<svg id="Layer_1" data-name="Layer 1" xmlns="http://www.w3.org/2000/svg" viewBox="0 0 480.94 345.87"><title>8-bit_dino</title><path d="M1560.6,1867.66c15.35-.49,15.35-.49,15.35,14.92,0,.67,0,1.33,0,2,.11,3.81-1,8.27.67,11.27,2,3.7,7,1.28,10.62,1.69s3.72,2.54,3.72,5.23c0,11.31.19,22.63-.11,33.94-.13,4.74,1.61,6.37,6.07,5.86a23.12,23.12,0,0,1,4,0c3.26.19,4.25-1.41,4.34-4.53.28-10,.38-10.09,10.38-10.41,3.48-.12,4.55-1.45,4.61-4.82.16-9.86.28-10,10.11-10.17,3.72-.07,5.23-1.45,4.81-5.06a4.17,4.17,0,0,1,0-.5c.16-9.16-1.81-9.77,9.4-9.44,4.43.14,6.17-1.46,5.6-5.78-.12-1,.1-2,0-3-.61-4.74,1.32-6.51,6.16-6.38,9.71.27,8.8.77,8.84-8.84,0-5.33.14-10.66,0-16-.12-3.58,1.21-5,4.89-5.14,10.14-.36,10.14-.48,10.14-10.57,0-4.82.11-9.65,0-14.47-.09-3.29,1.08-4.77,4.56-4.94,10.46-.53,10.45-.64,10.46-11.25,0-9.49.12-19,0-28.45-.08-3.88,1.38-5.25,5.24-5.3,9.79-.14,9.79-.28,9.79-9.87,0-5.16.09-10.32,0-15.48-.06-3.1,1.13-4.74,4.37-4.55a4,4,0,0,0,.49,0c9.73-.46,9.86-.46,10.08-10.09.08-3.69,1.49-5,5.08-4.94,6.65.14,13.31-.1,20,.08,3.55.1,5-1,5.07-4.79.11-10,.27-10.15,10.1-10.16,4.26,0,4.88-2,4.86-5.51-.09-21,0-41.93,0-62.89,0-6.53.09-6.58,6.77-6.62,1.33,0,2.66-.09,4,0,2.91.2,4.1-1,4.27-4,.61-11,.71-11,11.86-11,14.47,0,29,.14,43.42-.08,4.5-.07,6.2,1.31,6.1,5.95-.2,9.94-1.27,9.08,9,9.12,5.49,0,11,.1,16.47,0,3.21-.06,4.44,1.35,4.43,4.49q-.09,26.2,0,52.41c0,3.27-1.51,4.43-4.56,4.41-6.82,0-13.64.13-20.46,0-3.59-.09-5.35,1.13-5,4.89a26.81,26.81,0,0,1,0,4.48c-.25,3.29,1.3,4.39,4.45,4.33,6.82-.12,13.65.08,20.47-.06,3.54-.08,5,1.15,5.13,4.88.34,11.52.46,11.51-11,11.51-14.47,0-29,.14-43.42-.08-4.42-.06-5.89,1.45-5.68,5.79.29,6.14.17,12.31,0,18.46-.07,3.16,1.09,4.49,4.36,4.47q25-.14,49.91,0c3.27,0,4.58-1.35,4.35-4.48,0-.33,0-.67,0-1-.1-10.68,0-9.69,9.43-9.44,4.49.11,6.08-1.59,5.59-5.83-.14-1.15.08-2.34,0-3.49-.43-4.28,1.33-5.92,5.72-5.84,9.69.19,9.46,1.3,9.23-8.93-.11-4.5,1.43-6.62,6-6a8.34,8.34,0,0,0,1,0c8,0,8,0,8-7.8,0-7.16,0-7.16,7.27-7.19,7.68,0,7.68,0,7.73-7.58,0-7.37,0-7.37,7-7.4,7.89,0,7.89,0,8-7.87.06-7.1.06-7.11,7.33-7.12,1.33,0,2.67.1,4,0,3.6-.3,5,1.2,5,4.89.17,9.73.31,9.86,10,10,3.64.07,4.92,1.35,5,5,.15,9.63.29,9.77,10.07,10,3.69.08,4.87,1.47,4.92,5.06.12,9.55.25,9.69,10.13,9.93,3.75.09,5.15,1.58,4.78,5.12a4.13,4.13,0,0,0,0,.5c.17,9.26.17,9.45,9.25,9.35,4.27,0,6.33,1.26,5.74,5.7a16.67,16.67,0,0,0,0,2c0,7.34,0,7.23,7.33,7.43,2.47.07,6.19-1.41,7.11,1.73a24.24,24.24,0,0,1-.11,13.27c-.37,1.35-2.22,1.23-3.54,1.27-2.33.06-4.66.11-7,0-2.77-.08-3.68,1.22-3.84,3.93-.61,10.46-.69,10.54-10.77,11-2.88.13-4.08,1-4.23,4.09-.48,10.26-.58,10.35-10.88,10.89-3,.16-4,1.28-4.09,4.22-.44,10.37-.53,10.46-10.51,10.77-3.12.1-4.77,1-4.42,4.34a4.17,4.17,0,0,1,0,.5c-.29,9.9-.29,10-10.17,10.13-3.71,0-4.9,1.33-4.88,5,.06,10.58,1.8,10.08-10.22,10.08-10,0-20-.19-30,.08-4.56.12-6.55-1.45-6-6a14.81,14.81,0,0,0,0-1.49c0-7.53,0-7.53-7.76-7.57-7.19,0-7.2,0-7.24-7.23,0-7.75,0-7.76-8.07-7.76q-37.43,0-74.87,0c-6.93,0-7-.08-7-6.92,0-7.79-3.39-10.1-11.21-8-2.16.59-2.36,2.07-2.36,3.79,0,17,0,33.94,0,50.91,0,2.82,1.39,3.87,4,3.77a33.64,33.64,0,0,1,4.49,0c4,.4,5.2-1.42,5.14-5.25-.17-10.2-1.23-9.6,10.15-9.84,4.83-.1,6.37,1.65,6.25,6.38-.26,11,.08,22-.16,32.94-.09,4.28,1.18,6,5.65,5.83,10.44-.32,9.38-.27,9.41,9.46q0,13.23,0,26.46c0,11.51.92,10.3-10.06,10.3q-73.87,0-147.75,0c-7.08,0-7.08,0-7.12,7.17,0,7.78,0,7.78-8.12,7.81-6.84,0-6.84,0-6.88,6.93,0,8,0,8-7.87,8.06-7.11,0-7.12,0-7.13,7.18,0,2.49,0,5,0,7.48h-75.88c-.12-3.62-.35-7.23-.32-10.84,0-2.73-1.07-3.87-3.81-3.84-3.62,0-7.23-.19-10.85-.3ZM2025.51,1757c0-8,0-8-7-8-1,0-2-.07-3,0-3.51.22-5-1.16-5.08-4.91-.13-9.58-.29-9.62-10.08-10.08-2.78-.12-4.83-.55-4.88-4.08,0-3.28,1.37-7.23-.79-9.69-2.43-2.77-6.61-1-10-1.19-3.09-.16-4.65-1.34-4.62-4.48,0-1.5-.17-3,0-4.49.44-4.42-1.18-6.26-5.9-6.16-9,.17-9-.06-9.14-8.87,0-1.16-.06-2.33-.19-3.48a2.75,2.75,0,0,0-2.22-2.37c-7.41-2.42-11.26.21-11.29,7.78,0,7,0,7-6.89,7-8.05.06-8.05.06-8.1,8.18a12.33,12.33,0,0,0,0,1.49c.42,3.83-1.22,5.63-5.12,5.33-1.33-.1-2.68.13-4,0-4.56-.56-6.11,1.3-6,5.92.27,9.17,1.21,9.17-9.22,9.11a29.77,29.77,0,0,0-3,.11c-1,.09-2.12.41-2.32,1.53-.6,3.46-1.06,7.12.12,10.34,1.09,2.94,4.4,1.51,6.72,1.57,7.76.18,7.77.09,7.79,7.66,0,7.36,0,7.36,7.32,7.39,7.64,0,7.64,0,7.67,7.73,0,7.23,0,7.23,7,7.26,8,0,8,0,8,7.87,0,7.09,0,7.09,7.1,7.12,7.86,0,7.86,0,7.89,8a6.66,6.66,0,0,1,0,1c-.77,5,1.61,6.62,6.24,6a21.4,21.4,0,0,1,3.49,0c2.7.08,4-1.19,4-3.89,0-1.5.15-3,0-4.49-.43-4.81,1.35-7.32,6.51-6.62,1,.14,2-.1,3,0,4.93.71,6.68-1.55,6-6.23-.11-.82.08-1.67,0-2.49-.61-4.7,1.25-6.51,6.12-6.38,9.8.27,8.85,1,8.89-8.72a4.17,4.17,0,0,0,0-.5c-.58-4.38,1.38-6.18,5.7-5.69,1,.11,2-.1,3,0C2024.16,1763.27,2026.59,1761.49,2025.51,1757Zm-172.15,35.59c5.48,0,11-.16,16.45.06,3.85.16,5.62-1.22,5.22-5.16a25.18,25.18,0,0,1,0-4c.19-3.09-1-4.56-4.31-4.53-11.8.09-23.6.06-35.39,0-2.72,0-4,1.11-3.9,3.86a36,36,0,0,1,0,5c-.36,3.82,1.49,4.92,5,4.8C1842.06,1792.44,1847.71,1792.58,1853.36,1792.57Zm-44.64,91.35c-6,0-12,.1-17.94-.05-3.26-.08-4.56,1.28-4.35,4.45a43.54,43.54,0,0,1,0,5c-.14,2.91,1.09,4.26,4.09,4.25q17.7-.09,35.4,0c3,0,4.23-1.35,4.09-4.25a33.64,33.64,0,0,1,0-4.49c.34-3.63-1.14-5.1-4.86-5C1819.7,1884.07,1814.21,1883.91,1808.72,1883.92Zm6.31-217.84c0-7,0-7.07-6.75-7.08s-6.86,0-6.85,7c0,6.69,0,6.69,6.49,6.71C1815,1672.68,1815,1672.68,1815,1666.08Z" transform="translate(-1560.6 -1627.63)"/></svg>