<svg id="Layer_1" data-name="Layer 1" xmlns="http://www.w3.org/2000/svg" viewBox="0 0 766.88 260.81"><defs><style>.cls-1{fill:#080808;}</style></defs><title>cake_dino</title><path class="cls-1" d="M-127.19,1930.45c-5-.4-8.84,1.71-12.81,3-7.36,2.43-15,3.25-22.58,4.42-28.29,4.36-56.77,1.22-85.14,2.33-5.3.21-9.81-2.21-14.76-3-6.29-1-10.61-5.66-16.06-8.17a37.28,37.28,0,0,0-7.65-2.59c-3.89-.86-5.73-3.48-7.62-6.7-3-5.17-3.9-10.67-5.06-16.41-.94-4.64,1-5.43,3.69-7.76,5.16-4.52,10.94-8.45,14.16-15.14,1.61-3.34,4.63-6.33,7.24-9.28a44.79,44.79,0,0,0,6.29-9.66c.84-1.66.89-2.46-1.33-2.43-5.5.07-11.06-.47-16.47.2-3.51.43-7,1.33-10.58,1.41a14.73,14.73,0,0,1-6.39-1.69c-2.65-1.18-1.36-3.69-1.34-5.63,0-1,.79-2,1.28-3.19-4-.16-8.94.86-10.67-2.92a9.79,9.79,0,0,1,1.76-11.31c-.82,0-1.28-.09-1.74-.1-5.25-.1-5.68-.56-4.88-5.92.13-.88.64-1.54-.41-2.14-1.31-.75-1.45.59-1.94,1.09-6.21,6.38-12.52,13-16.46,20.83A67.39,67.39,0,0,1-348.15,1866c-4.61,4.83-9.15,9.61-15.24,13.23-5.32,3.16-11.71,5.42-15.75,10.72-.61.8-1.83,1.06-2.3.38-2.41-3.46-6.79-1.38-9.53-3.53-2.91-2.28-6.36-2.29-9.7-3.09a63.41,63.41,0,0,1-12.79-4.6,19.81,19.81,0,0,0-7.8-1.95c-20.94-1.2-41.89-2-62.87-1.56a6.23,6.23,0,0,1-2.95-.25c-5.49-3-11.64-2.62-17.55-3.46a13.85,13.85,0,0,1-3.42-1.38c-3-1.28-5.68-3.2-9.17-3.58-5.54-.62-10-3.84-13.89-7.57-6-5.79-12.91-10.54-19.17-16-2.77-2.43-6.1-4.24-8.06-7.66-2.61,2-1.36,5.5-3.76,7.35-4.29,3.32-5.22,8.78-7.92,13.13a20.5,20.5,0,0,1-12.19,9.39c4.83,1.08,7.72,4.66,11.47,6.86,5.45,3.2,11.1,6,16.76,8.87,3.94,2,7.39,5,11,7.57,1,.72,2,1.74,1.12,3.15-1.11,1.73-2.69.73-3.6,0-9.7-7.85-21.57-12.08-31.74-19-7.9-5.39-16.66-8.25-25.31-11.8s-18.25-4.7-27-8.29c-3.2-1.32-5.48-4.05-8.21-6a32.2,32.2,0,0,0-11.55-5.6c-6.14-1.48-12.35-2.71-17.73-6.52-2.84-2-6.68-1.55-10-2.4-5.69-1.45-11.61-2.09-17.16-4.13a12.14,12.14,0,0,0-4.39-.58c-17.87,0-35.75-.3-53.62.13-7.21.17-14.6-.34-21.59,1-4.13.76-8.72.08-12.65,2.57a15.81,15.81,0,0,1-6,1.81,15.8,15.8,0,0,0-7.83,3.5c2.37,0,3.8,0,5.22,0,.75,0,2-.19,2.17.16,2.4,4.14,6.67,2.35,10,3.24,3.89,1,6.53,3.87,9.57,6.07,2.1,1.52,3.61,3.84,5.66,5.46a6.91,6.91,0,0,1,2.45,7.68c-.73,2.88-3.87,2.83-6.06,3.57-8.06,2.72-16.48,1.68-24.73,1.46a12.65,12.65,0,0,1-12.57-13.18c.13-4.12-1.08-8.51,1.9-12.51a88.29,88.29,0,0,0-7.43,5.83c-4.2,4.07-6.06,9.31-7.38,15-.85,3.6-2.05,7-2.24,10.82s1.37,6,3.79,8.27c.74.67,1.74,1.19,2.18,2,4.13,7.82,12.13,10.59,19.24,14.22,2.77,1.42,6.33,3.07,10,1.67.45-1.2-.93-1.5-1.33-2.32-1.24-2.57-1.58-5,1.19-6.89a39.52,39.52,0,0,1,5.38-3.2c1.62-.73,3.55-1.75,4.73.84.5,1.07,1.55.51,2.34.55a37.59,37.59,0,0,1,15.7,4.53c6.47,3.36,13.79,6.75,21.63,2.53,1.63-.88,4.16-2.23,4.72,1.53.06.4,1,.94,1.5,1,4.75.25,8.33,3.63,12.88,4.65,5.31,1.18,10.17,3.92,15,6.54,9.29,5,18.51,10.25,27.88,15,7.56,3.87,15.64,7.13,23.65,10.32,10.36,4.12,20.78,4.11,31.42,4.17a19,19,0,0,1,2.62.1,1.82,1.82,0,0,1,1.8,2c-.06,1.23-.87,1.68-2,1.67h-93c.91,7.27,5,12.68,9.24,18.19,6.91,8.9,14,17.62,21.57,26a15.35,15.35,0,0,1,1.41,2.18,2.75,2.75,0,0,1,.23,3.16c-.88,1.26-2.3.88-3.46.64-3-.63-4.93-3.31-7.72-4.4-4.86-1.92-8.67-5.45-12.9-8.36-1.87-1.29-1.94-3.65-3.17-5.39-3.79-5.32-7.56-10.7-9.72-17-1.9-5.49-.66-11.14-.86-16.71-.06-1.82,1.58-2,3-2,3,0,6,0,9,0h52.92c-7.61-3.16-14.37-5.93-21-9.1-12-5.74-23.25-12.72-35.17-18.52a70.41,70.41,0,0,0-14.59-5.65c-3.73-.88-6.72-3.6-10.64-4.19a28.81,28.81,0,0,0-4.33-.8c-1.61,0-3.49-.74-4.75.23-1.84,1.42.73,2.65.76,4.15,0,2.4-.06,4.07-3.28,4-6.44-.22-12.86,0-19-2.74-1.58-.71-3.69-.28-5.55-.31-3.37-.06-6.67-.16-9.79-1.87-1.89-1-4.18-.38-6.28-.37-14.19.07-25.3-6-33.88-17a28.66,28.66,0,0,0-4.53-4.31c-2.17-1.81-2.37-3.66-2.6-6.1-.89-9.46,3.24-17.67,6.12-26.19.74-2.19,2.89-3.46,4.45-4.89,2.67-2.45,5.13-5.58,8.67-6.74,5.77-1.88,11.19-4.61,17-6.42,4.74-1.46,9.75-2,14.32-4a4.28,4.28,0,0,1,1.49-.13c26.21-1,52.43-.72,78.65-.78a11,11,0,0,1,3.62.74c8,2.66,16.34,3.64,24.43,5.71,5.68,1.45,10.42,5.58,16.47,6.47,9,1.32,16.39,5.85,23.08,12,1.91,1.75,5.17,2.23,7.91,2.84a123.65,123.65,0,0,1,25.94,8.42c1.95.91,4.24.39,6.31,2a14.16,14.16,0,0,1,2.55-13.82c5.26-6.73,9.75-14.38,19.07-16.4a3.15,3.15,0,0,0,1-.6c4.7-3.45,6.7-2.83,10.48,1.71,5.95,7.13,13.64,12.21,20.79,17.9,3.42,2.72,6.09,6.23,9.81,8.61,3.41,2.18,6.78,4.21,11,4.28a9.36,9.36,0,0,1,5.23,1.8c2.4,1.72,5,3,7.83,3,9.75,0,18.77,4.4,28.78,3.6,17.32-1.39,34.65.81,52,1.36,6.53.21,12.13,3.57,18,5.87a15.73,15.73,0,0,0,2.85.82c3.51.6,6.83,1.18,10.15,3.05a12.83,12.83,0,0,0,12.39.15c6.05-3,11.42-7.08,16.88-10.77,5.25-3.55,9.32-9.15,13.72-14,4.79-5.34,6.28-12.55,11.09-17.83s8.71-10.86,13.51-15.85c2.45-2.54,6.12-3.5,9.82-4,6-.84,11.07,1.32,16,4.18,5.6,3.26,11.17,6.56,17.34,8.68,2,.67,2.77,2,3.79,4,3.34,6.32,6.62,13,14.65,15,1.64.39,2.48,2,3.21,3.47,1,2.13.24,3.19-1.95,3.07-2.6-.14-4.4-.22-4.75,3.43a11.93,11.93,0,0,1-3.06,5.81c-7.39,8.19-12.17,18.45-20.6,25.79-1.4,1.21-2.86,2.36-4.19,3.63-3.51,3.34-4.43,10.81-1.69,14.86a21.88,21.88,0,0,1,2.47,4.53c1.63,4.33,5.32,6.46,9.43,6.86,4.28.42,7.49,2.94,10.59,4.93a45.72,45.72,0,0,0,25.07,7.39q27.73.2,55.49,0c7,0,14.14.41,20.9-.92,10.24-2,20.76-2.67,30.71-6.34,6.12-2.27,12.62-3.47,17.3-8.65,1-1.08,2.79-2.12,4.34-.63s.45,3-.53,4.3c-4.28,5.9-7.89,12.51-13.08,17.45-3.87,3.69-7.59,7.85-12.31,10.69s-8.44,6.48-12.54,9.9c-5.53,4.6-10,10.52-16.23,14.08a58.75,58.75,0,0,1-10.85,4.72,26.94,26.94,0,0,0-7.54,3.92c-5.08,3.63-11.18,4.78-17,6.33-2.92.78-5.75,1.44-8.21,3.28a4.54,4.54,0,0,1-2.29,1.17c-5.41.11-9.29,4-14.12,5.51-8.83,2.74-17.21,6.85-26.55,8.09a57.45,57.45,0,0,0-12.89,3.72c-12.7,4.92-26.1,6.22-39.41,8.17-19.6,2.86-39.3,3.06-59,3.25-5.07,0-10.3.37-15.12-.44-13.72-2.32-27.71-1.66-41.38-4.7a63.69,63.69,0,0,0-17.87-1.09,7.77,7.77,0,0,1-5.66-1.36,3.79,3.79,0,0,0-2.4-.9c-9.52.13-18.39-3.43-27.63-4.92-2.67-.43-5.39-1.13-8.05-1-8.38.43-16.55-1.5-24.68-2.68-7.37-1.07-14.71-3.12-22.11-4.48-.37-.06-.72-.36-1.06-.34-7.89.45-15.26-3.06-23.06-3-3.83,0-6.93-2-10.25-3.25-8.23-3-16.61-5.74-23.85-11.17-4-3-9-4.68-12.09-9.1-.68-1-2.37-.89-4.17-.41-5,1.32-9.38,4.1-14.42,5.47a74.56,74.56,0,0,0-12.91,4.28,33.55,33.55,0,0,1-10.59,3.44c-6.95.74-13.43,3.39-20.39,4.18-4.32.49-8.51,2.45-13.08,2-1.29-.12-2.7,0-2.8-1.7s1.14-2.08,2.53-2.08c9,0,17.41-3.31,26.14-4.86,6.74-1.2,13.12-3.46,19.59-5.65,4.18-1.42,8.67-2.77,12.94-4.1s8.81-2.4,12.28-5.43c1.51-1.31,2.34-1.28,3.59.1,3.64,4,8.38,6.49,13,9.14,1.94,1.13,3.74,2.42,5.6,3.64,6.53,4.28,14.07,6.21,21.13,9.25,6.08,2.63,12.65,2.36,18.88,3.84,8.41,2,17.06,2.15,25.5,4.2,7.12,1.73,14.6,2.58,21.89,3.71,9.35,1.45,18.84,1.38,28.2,3.64,6.66,1.61,13.74,2.82,20.65,3.9,16.41,2.56,33,3.51,49.35,6a20.34,20.34,0,0,0,4.1.39c7.61-.41,15,1.87,22.51,2.11,4.8.15,9.55-.85,14.39-.65,22.07,1,43.86-1.87,65.6-5.16a123,123,0,0,0,27.4-7.14c6.86-2.75,14.46-2.64,21.22-5.68,6.39-2.87,13.23-4.43,19.66-7.46,5.91-2.79,12-5.63,18.55-7.23,6.74-1.65,13.46-3.34,19.17-7.84,3.59-2.82,8.31-3.89,12.51-5.57a29.59,29.59,0,0,0,10-6.82c5.24-5.31,10.5-10.67,16.69-14.69,5.89-3.82,10.6-8.94,16.2-13A19.8,19.8,0,0,0-127.19,1930.45Zm-660.36-69.84c5.27-.09,10.11.44,14.75-1.48,1.45-.6,3.24-1.1,3.87-2.31.73-1.41-1.18-2.23-2.06-3.19a30.88,30.88,0,0,0-4.26-4.22c-4-2.92-7.51-6.79-13.38-6.19-2.1.22-5.16.31-6.57-1.48-1.93-2.46-4.21-1.56-5.95-1a4.88,4.88,0,0,0-3.61,5.07c.12,2-.2,4,.07,6a10,10,0,0,0,4.18,7C-796.32,1861.76-791.57,1860.12-787.55,1860.61Zm475.28-35.81c.81,1.77,1.81,1.19,2.59,1.29,4.45.58,7.37,3.4,9.55,6.94,3.37,5.46,3.08,12.28,6.63,17.86,1.52,2.37,3.23,4.17,5.48,4.28,7.49.36,15,.14,23,.14a37.47,37.47,0,0,1-12.94-14.81c-1.2-2.37-2.43-3.84-4.76-4.55-6.83-2.06-12.62-6.27-18.9-9.41C-305.31,1824.69-308.4,1824.76-312.27,1824.8Zm-250.25,9.52c-5.58.92-12.85,4.72-15.75,9.69a29.71,29.71,0,0,1-4.09,5.21c-2.78,3-4.29,6.58-2.71,10.9.37,1,.58,1.68,1.59,1.22,4.54-2.06,9.37-3.68,11.29-9.14,1.05-3,1.84-6.48,4.26-8.43C-564.74,1841.19-564,1837.69-562.52,1834.32Zm-151.42,115.29c2.19,12.42,16.17,30.05,24.2,30.66C-698.17,1970.43-705.89,1960.29-713.94,1949.61Zm414-103.26a12.93,12.93,0,0,1-.82-4.16c-.1-2.43-1.07-4.94-3-6.06-1.66-1-2.49,1.94-4.08,2.59-3.1,1.27-2,4.09-1.72,6.14.28,1.83,2.52,1.47,4.09,1.49C-303.75,1846.37-302,1846.35-300,1846.35Zm-454.28,50.1.12-.36c-1.52-.33-3-.68-4.54-1s-3-1.77-4.11-.68c-2.06,1.95-4.39,1.37-6.68,1.42-3.36.08-6.72,0-10.09,0l0,.59ZM-297.53,1851c-1.18,1.49-3,2.81-2.26,4.53s3,1.46,4.9,1.18Zm-462.24,49.52c7.46,1.6,9.41,1.68,12.7.2C-751.24,1899.22-755.56,1901.11-759.77,1900.49ZM-306,1832.1c-2.18-1.8-4.07-2.48-6.36-2.23a1.41,1.41,0,0,0-1.32,1.48c-.12,1.28,1,.69,1.51.72C-310.32,1832.15-308.47,1832.1-306,1832.1Zm-479.6,60c.77,2.89,2.5,3.9,5.21,3.61C-780.82,1892.5-783.14,1892.41-785.59,1892.11Zm-.61-1.45c-.18.22-.48.44-.45.57a3.94,3.94,0,0,0,.51.88c.15-.16.47-.36.44-.46A4.61,4.61,0,0,0-786.2,1890.66Z" transform="translate(883.03 -1763.64)"/><path class="cls-1" d="M-853.31,1842.06c.59-.2,1.06-.32,1.49-.51,1.31-.58,2.7-1.93,3.93-.12s-.67,2.19-1.54,3.14c-2.1,2.28,0,4.14,1.11,5.71,2.65,3.67,3.2,7.57,1.47,11.57a7.38,7.38,0,0,1-6.5,4.72c-4.36.19-8.74,0-13.11.07-2.4,0-2.72-1.07-2.66-3.3.21-7.59,3.38-14.29,5.92-21.19.47-1.26,1.41-2.7,2.53-2.36,3.49,1,3.4-1.51,4.61-3.47,2-3.25,2.36-5.06-2-6a13.6,13.6,0,0,1-4.2-2.25c-2.18-1.44-3.73-3.24-3.27-6.17.53-3.39-.46-6-3.19-8.48-5.42-5-6.64-11.64-5.76-18.75a4.73,4.73,0,0,1,4.26-4.16c4.44-.47,7.9-3.54,12.28-4.07,4.89-.58,9.57-2.32,14.59-2.44a7.54,7.54,0,0,0,6.3-3.31c1.31-1.77,4.63-2.44,7.33-2.57,6.46-.31,6.55-.29,5.4-6.36-.48-2.47-1.47-4.08-4.83-4.28-12.14-.75-23.41,3.28-35,5.46-4.73.89-9,3.27-13.75,3.67-1.44.13-1,1.16-1.05,1.93-.27,3.69,1.27,7,2.43,10.31a17.76,17.76,0,0,1,1.3,6.92,1.68,1.68,0,0,1-1.52,1.81c-1,.14-2-.27-2-1.22-.54-6.72-5.15-12.55-4.07-19.69.38-2.54.81-4.19,3.65-3.79,2,.28,3.49-1.07,5.24-1.44,15.07-3.13,29.71-8.8,45.53-7.65,4.84.35,7.41,2.44,8,7.4.27,2.32.55,4.65,1,6.94,1.31,6.3,5.71,11.06,8.52,16.61.72,1.41,2,2.46,1.69,4.26-.28,1.4.7,1.44,1.65,1.85,2.55,1.11,4.13,2.8,3.66,6-.66,4.49,1.45,9.52-1.61,13.46s-4,9.63-8.59,12.73a7,7,0,0,1-4.16,1.34c-10.07-.07-20.15.29-30.17-1.16-.77-.11-1.5-.36-1.95.47C-851.84,1836.26-853.84,1838.63-853.31,1842.06Zm6.56-12.57c9.14,1.42,18.11,1,27.07,1.17,2.07,0,4.14-.45,5-2,3.71-6.84,8.9-13.28,7-22-.31-1.44-.76-2.21-2.28-2.37-5.92-.65-11-3.86-17-5-7.64-1.46-15-.78-23.08-.42,3,1.75,3.57,2.42,3.18,3.44-.69,1.76-2.27,1.12-3.56,1.22-.62.06-1.25,0-1.87,0-4.52,0-6,1.28-6.46,5.78a27.33,27.33,0,0,1-.79,3.09c-.73,3.16-2.52,6.08-2.24,9.48a3.22,3.22,0,0,0,.84,2.35,9.3,9.3,0,0,0,11.46,1.81c1.31-.66,2.59-1.24,3.73.05C-844.43,1827.66-845.82,1828.55-846.75,1829.49Zm33.83-30.54c-2.6-3.55-4.15-7.22-6-10.75a5.9,5.9,0,0,0-5.56-3.46c-3.22-.15-6,1.49-9,1.51-4.64,0-8.88,1.92-13.43,2.16-7.62.4-14.56,3.52-21.79,5.47-1.39.37-1.87,1.19-2.07,2.65-.74,5.46,1.25,10,4.5,14.09.45.57.9,1.33,1.75,1.25s.9-1,1.12-1.69c.73-2.12,1.53-4.22,2.08-6.39,1.13-4.52,4.43-6.38,8.51-7.73,6.69-2.22,13.54-1.29,20.34-1.43,5.64-.12,11,1.49,16,3.77A5.08,5.08,0,0,0-812.92,1799Zm-47.35,48.18c-2.76,3.45-3.5,7-4.35,10.44-1.18,4.69-.45,5.28,4.32,5.28,1.87,0,3.75-.07,5.62,0a3.11,3.11,0,0,0,3.25-2c-.22-.09-.45-.28-.63-.25-3,.52-5.17-1.36-7.56-2.59-4.13-2.12-1.21-4.8-.69-7.33A20.47,20.47,0,0,0-860.27,1847.13Zm8,9.52c1.91-4.26-2.93-4.35-3.81-7.29C-857,1853.31-857.9,1856.8-852.31,1856.65Z" transform="translate(883.03 -1763.64)"/><path class="cls-1" d="M-329.26,1941.62c-4.69,0-9.05.16-13.38,0s-6.43-5-3.9-9c1.86-3,.49-2.67-1.8-3-4.1-.63-6.54-1-9.73,3.75-6.05,8.92-9.1,19-13.85,28.33-.44.88-.6,2.08-1.29,2.64-7,5.76-10,14.19-14.68,21.51-.77,1.2-1.34,3.12-3.27,2s-.72-2.67,0-3.87c4.63-7.33,7.87-15.5,14.4-21.72,2.62-2.5,4.27-6.57,5.15-10.22a48.52,48.52,0,0,1,8.64-17.62c3.64-4.9,5.66-10.72,9.45-15.55,2.25-2.89,4.44-4.89,8.3-4.25a19.86,19.86,0,0,0,3,0c4,0,7.37.19,11,3.49a130,130,0,0,0,13.75,10.73,22.69,22.69,0,0,1,5.83,5.73c.88,1.25,1.81,2.59,3.2,3.06,4.45,1.5,5.1,5.76,6.67,9.19.79,1.74-1.47,3.48-1.42,5.77.11,5.69,1.05,11.5-.66,17.09-1.13,3.71-1.92,7.68-5.22,10.36a3.08,3.08,0,0,0-1.16,1.85c-.36,6.68-4.68,11.53-7.59,17.05-2.28,4.33-5.26,7.42-10.31,8.09a4.64,4.64,0,0,0-2.74,1.06c-3.87,4.54-10,4.27-14.68,7-2.1,1.19-4.61.88-7,.85-1.13,0-2-.4-2.16-1.58s.72-2.24,1.67-2c5.76,1.23,9.74-4.07,15.15-3.93,1.18,0,1.67-1,2.39-1.61,1.91-1.66,4-3.14,6.54-3.35a7.23,7.23,0,0,0,6-3.81c3.09-5.81,8.37-10.54,8.74-17.75a6.91,6.91,0,0,1,1.92-4c4.19-4.41,5.44-9.76,5.44-15.59a70.61,70.61,0,0,1,.07-8.61c.42-3.49-1.45-3.85-3.8-3-4.22,1.61-8.54,1.45-12.89,1.43-4.76,0-5.87-1.15-5.88-6C-329.27,1944.65-329.26,1943.16-329.26,1941.62Zm22.08,3.44a3.89,3.89,0,0,0-2.57-3.8,8,8,0,0,1-3.22-2.49c-4.35-6.3-10.85-10.21-16.65-14.8-4.15-3.28-8.42-7.93-15.24-5a49.26,49.26,0,0,0,13.05,12.12c5.18,3.14,10.82,5.52,14.88,10.35C-314.5,1944.33-311.46,1946.57-307.18,1945.06Zm-22.21-8.33c-3-1.61-5.42-2.79-7.7-4.21-1-.65-1.93-2.14-3.16-1.14s-3.14,2.15-3.24,4.3c-.05,1.07.05,2.21,1.43,2.12C-338,1937.56-333.87,1938.7-329.39,1936.73Zm13.33,11.5c-2.54-3.56-7.19-7.83-9.32-8.63-.2,11-1.23,8.43,8.22,8.74A8.74,8.74,0,0,0-316.06,1948.23Zm-29.13-22.39c-.46-1.72-1-2.93-3-2.27-.81.27-1.58.69-1.18,1.41C-348.38,1926.78-346.67,1925.56-345.19,1925.84Z" transform="translate(883.03 -1763.64)"/><path class="cls-1" d="M-830.33,1818.23c-3.3,1.24-3.22-2.19-5-2.73-.9.42-.51,1.26-.57,1.93s-.32,1.17-1.1,1.16-.89-.64-.89-1.28V1808c0-.61-.05-1.28.82-1.36,1.06-.09,1.1.65,1.17,1.44.14,1.54-.42,3.15.42,4.69,1.73-.37,2.12-3.5,4.84-1.91C-834.86,1813.32-832.65,1815.73-830.33,1818.23Z" transform="translate(883.03 -1763.64)"/><path class="cls-1" d="M-842.36,1813.18c-1.57-2.35-3.19-.64-4.81-.92,1-2.45,3-2,4.69-1.79,1.85.29,2,1.89,2.07,3.47.17,2.73.39,5.25-3.71,4.71-1.59-.21-3-.28-3.36-2.15s.91-2.69,2.46-3.1A17.82,17.82,0,0,1-842.36,1813.18Z" transform="translate(883.03 -1763.64)"/><path class="cls-1" d="M-822.73,1816.61c-1.42,2.6-3.49,2.52-5.46,1.2s-1.68-3.51-.89-5.37,2.72-2.48,4.68-2a3,3,0,0,1,2.37,3.34c-.08,1.69-1.46.78-2.25,1.07-.94.35-2.92-.87-2.71,1,.19,1.75,2,1.29,3.35.95Z" transform="translate(883.03 -1763.64)"/><path class="cls-1" d="M-849,1811.91c-1.24.27-2.7-.76-3.51.85a3.65,3.65,0,0,0,.1,3.59c.84,1.4,2.12.48,3.28.39-1.1,2.06-2.79,2.56-4.46,1.25-2.2-1.72-2.05-4.1-.72-6S-850.8,1809.45-849,1811.91Z" transform="translate(883.03 -1763.64)"/></svg>