<svg id="Layer_1" data-name="Layer 1" xmlns="http://www.w3.org/2000/svg" viewBox="0 0 372.39 332.04"><title>club_dinosaur</title><path d="M1709.75,1862.82c-.73-.67-1.25-.08-1.81,0-5.29.85-7.22-1.51-5.44-6.73.34-1,.68-2.42,2.2-2,1.24.33,1.2,1.61.88,2.52-1.14,3.17-.08,3.72,2.94,3,1.9-.44,4-.05,6-.21,3.38-.27,4.4-1.59,3.33-4.92a15,15,0,0,0-5.26-7.57c-.87-.66-2-1.38-1.64-2.7s1.61-.9,2.5-1.24c13.09-5.08,26.81-6.26,40.67-6.86a97.63,97.63,0,0,0,16.22-2.51,18.8,18.8,0,0,1,10.35.38c3.58,1.27,4.1,3,1.31,5.56a30.87,30.87,0,0,0-9.81,19.2c-.33,2.36.3,2.89,2.48,2.77,5-.29,9.63-1.27,13-5.51.7-.88,1.83-2.27,3.08-.91s0,2.57-1,3.51c-3.34,3.14-7.07,5.63-11.86,5.65-2.54,0-2.88,1.18-2.35,3.29.48,1.93.75,3.91,1.15,5.86,1.32,6.34-.25,10.19-5.92,13.71,4.93,1.41,9.63,1.07,14.27.5,13-1.59,22.12-10.13,31.17-18.46,10.5-9.65,10.83-26.15,1-36.64-4.41-4.72-10.37-6.77-16.1-9.18-1.6-.66-1.44.69-1.58,1.67q-1.1,7.58-2.25,15.13a16,16,0,0,1-.58,2.55c-.28.89-.39,2.22-1.81,1.82-1.24-.34-1.12-1.54-1-2.52.73-4.93,1.45-9.85,2.27-14.76a120.15,120.15,0,0,0,.74-31.3c-.42-4.34-.17-8.74-.16-13.12.08-16.85-.44-33.67-3.1-50.33-1.18-7.34-4.48-14-8.55-20.21-4.37-6.66-8.68-13.37-14.16-19.26-8.7-9.35-19-14.23-32-12.56-4.71.61-9.4,1.28-14.12,1.73a6.29,6.29,0,0,0-5.07,3.17,66.15,66.15,0,0,0-10,23.61c-.21,1-.68,2.18.15,2.83s1.85-.39,2.61-.89c3.24-2.16,7.36-3.64,7.1-8.7a1.22,1.22,0,0,1,2.44,0c.07,1.49.61,3.49-.13,4.39-2.25,2.73-1.24,5.66-1.17,8.51.12,4.75-1.67,8.31-6.11,10.13-2.91,1.19-3.28,2.91-2.12,5.57,2.56,5.89,4.91,12,12.24,13.41a20.68,20.68,0,0,0,15.52-2.81c5.38-3.28,3.82-8.86,6.76-12.66,1.4-1.81,1.77-4.33,3.33-6.23,1.16-1.42,1.19-2.84-1.36-2.76-1.49,0-3,0-4.5,0-3,.08-4.74-.54-6-4s-3.59-7.09-7.63-8.66c-1-.4-2.35-.93-2-2.3.44-1.57,1.75-.88,2.83-.63,4,.93,7.9,1.86,12.13.92,4.88-1.07,9.24,1.49,13.7,2.94,2.57.83,3.32,3.28,3.53,5.72s-1.53,3.64-3.35,4.51a8.42,8.42,0,0,0-3.68,3.87c-3.1,5.28-5.89,10.61-7.12,16.67a4.33,4.33,0,0,1-1.41,2.59c-4.11,2.79-4.5,7.27-5.31,11.48-1.09,5.7-3.6,10.89-5.35,16.35-3.7,11.53-6.33,23.24-6.79,35.44-.22,5.77-.71,11.67-3.53,17-.8,1.53-1.76,2.45-3.46,2.16-1.26-.2-1.91-1.38-.76-2.07,4.53-2.68,3.82-7.52,4.12-11.33a215.74,215.74,0,0,1,5.71-37.2c1.78-6.88,5.45-13.16,6.81-20.21.37-1.94,1.57-4.39.82-5.72-.85-1.51-3.26.51-5.12.26-3.07-.41-6.19.16-9.31-.54-8.13-1.81-11.29-8.13-13.5-15-1-3.3-2.82-4.44-6-4.88-3.56-.5-7.11-1.32-9.54-4.51a8.54,8.54,0,0,1-1.92-5.88c.11-2.13,1.24-2.88,3.19-2.66.74.08,1.45.45,2.18.47,2.37.07,4.87.53,7.08-.06,3.28-.87,1.38-4,1.9-6.15,1.83-7.54,3.94-14.94,8.43-21.44.92-1.34,2.21-2.6,1-4.7-.78-1.35.78-1.86,1.91-2,9-1.22,18.11-3.67,27.07-3.3,10.91.46,20.51,5.47,28,14.08a151.35,151.35,0,0,1,17.17,24.43,54.89,54.89,0,0,1,6.86,20.83c2.22,18.63,2,37.34,2.41,56,.17,8.22.55,16.45.54,24.68,0,2.4,1.34,3.27,3.14,4,4.56,2,9.21,3.63,13.2,6.88,5.93,4.83,9.9,10.56,9.89,18.37,0,5.09.75,10.23-.59,15.28-1.85,7-8.27,10-12.83,14.65-1.71,1.74-3.78,3.12-5.51,5.32a263.23,263.23,0,0,0,25.7,7.25c1,.22,1.51-.2,2.21-.86,3.65-3.51,6.87-3.07,9.17,1.28a4.61,4.61,0,0,0,3.84,2.52c12.33,1.72,24.87,2.57,36.81,6.22,18.3,5.58,37.34,5.87,56,8.55a137,137,0,0,0,35.45.37,64.65,64.65,0,0,1,7.5-.08c1.47,0,2.8.39,3.26,2,.53,1.77-1,2.39-2.09,3.11-7.68,5-16.17,8.23-24.64,11.57-14.4,5.68-29.65,7.32-44.78,9.26-13.44,1.72-27,2.5-40.48,3.91-6.82.71-13.6,1.71-20.47,1.43-1.81-.08-2.69,1-3.55,2.3-2,3-4.07,5.93-6.35,8.76-4,5-9.17,6.56-15.19,6.14-5.56-.39-8.21-4.54-10.15-8.91-3-6.64-5-13.59-4.31-21,0-.49-.14-1.09.06-1.48,3.5-6.7-.31-13.07-.8-19.59-.13-1.69-.8-1.76-2.42-1.7-7,.26-14,.22-21,.23-1.16,0-3,.38-3-1.31s1.78-1.42,3-1.41c4.75.06,9.47-.27,14.21-.58,3.17-.2,3.56-1.35,2.5-4-1.3-3.24-2.43-6.55-3.46-9.88-.53-1.75-1.17-1.85-2.6-.9-9,6-19.14,6.58-29.49,6.08a6.06,6.06,0,0,1-1.46-.27c-4.74-1.32-4.92-1.29-5.2,3.9-.21,3.91-1.48,6.07-5.79,7.1a121.06,121.06,0,0,1-29.94,3.58c-6.66-.08-8.13-1.33-8.26-8.1-.06-3-.65-6-1-8.92-.22-2.26-1-4.11-3.77-1.82-2.31,1.93-5.08,2.18-8,2.41-12,.94-22.5-3.48-32.55-9.27-2.31-1.33-3.13-1.4-4.08,1.53a80.21,80.21,0,0,0-3.44,20.53c-.15,2.82.69,4.52,3.76,4.86,2.34.26,4.64.88,7,1.32,1.11.21,2,.73,1.78,2s-1.2,1.28-2.3,1c-5.1-1.07-10.35-1.64-15.27-3.24-5.84-1.91-11.87-1-18.72-2.65,3.72,3.43,5.47,7.06,7.91,10.19,4.08,5.24,5.37,11.47,6.08,17.81,1,8.56,1.57,17.15,0,25.71-.45,2.39.55,2.73,2.38,2,3.24-1.3,6.51-2.57,9.63-4.13,5-2.47,10.47-3.19,15.63-5,6-2.15,11.78-4.8,18.17-5.62,1.71-.22,3.51-1.31,3.46,1.86,0,1.24,1.48,1.12,2.35,1.22,12.73,1.52,25.27,4.38,38.19,4.75,9.59.27,19.33,2.09,28.55-1.08a71.15,71.15,0,0,1,16.34-3.92c7.5-.72,15-1,22.25,1.36,1.08.35,2.9.5,2.36,2.22-.48,1.55-2.13,1.06-3.26.72-7.18-2.18-14.69-3.38-21.72-.94a128.27,128.27,0,0,1-13.76,3.47c-10.49,2.41-21,1.36-31.62,1-13-.5-25.74-2.89-38.57-4.67-1.61-.22-3.06-.44-4.31-1.85s-3.3-.44-4.84,0c-3.34,1-6.58,2.26-9.87,3.4-8.91,3.11-18.27,5.09-26.41,10.18a4.63,4.63,0,0,1-3.22.36c-1.34-.13-3.05-.64-4,.35-1.58,1.67-2.53,2.14-3.85-.2-.4-.7-1.59.07-2.43.17-4,.5-7.75,1.85-11.79,1.85-10.35,0-19.69-9.09-19.84-19.6-.1-7.23-.67-14.53,2.33-21.42.7-1.62-.07-2.69-.92-4-2.28-3.65-5.32-7-5.2-11.77,0-2.36.42-4.28,3.3-4.46,2-.13,1.89-1.57,2-3,.14-2.59-.45-5.23.73-7.76,1.91-4.08,7.15-5.14,10.09-1.76,1.35,1.55,1.85,1.55,3.39.15,2.35-2.14,5.54-1.47,8.21-.74,2.5.69,2.29,3.42,2,5.48-.48,3.93.89,5.28,5,5.76,4.85.57,9.74-.31,14.54.88,1.55.39,1.74-1,1.74-2.21a72.36,72.36,0,0,1,3.46-22c.46-1.43.91-3.12-.17-4.33-4.84-5.46-2.85-11.62-2.33-17.81,1.24-14.56,10.1-24.06,21-32.09a33.52,33.52,0,0,1,16.73-6c4-.4,7.92-.85,11.88-1.27a11.74,11.74,0,0,1,1.87-.11c1.2.06,2.39.48,2.43,1.83.05,1.71-1.43,1.38-2.48,1.4a120.12,120.12,0,0,0-15.61,1.55,31.68,31.68,0,0,0-14.32,6c-10.79,8-18.26,18-18.92,32a3.74,3.74,0,0,1-.07.75c-2.2,9.63.93,9.93,6.9,14.56,6.41,5,14.25,7.06,21.83,9.56a9.55,9.55,0,0,0,2.19.43c5.14.43,4.91.34,4.13-4.5-.83-5.09-.56-10.24,2.48-14.8C1708,1865.18,1708.91,1864,1709.75,1862.82Zm272.42,46.8a44.42,44.42,0,0,0-4.47,0,191.33,191.33,0,0,1-39.53-.6c-7.42-.81-14.85-1.54-22.24-2.57-9-1.26-18.25-1.34-26.86-4.24-13-4.38-26.62-5.08-39.92-7.63-1.33-.25-3-.29-3.05,1.73,0,3-.73,6.14,1.82,8.82,3.56,3.72,5,8.58,6.09,13.46,1,4.57.41,9.3,1.08,14,.44,3.06,1.27,2.72,3,2.62,13-.77,26-2.38,39-3.59a437.89,437.89,0,0,0,44.3-5.95C1955.9,1922.78,1969.3,1917.14,1982.17,1909.62Zm-255.61-49.1c-.06-.55-.1-1-.14-1.44a25.17,25.17,0,0,1,.57-9.66c.38-1.27,1.16-1.93,2.5-1.57s2.51.71,2.9,2.08-.7,1.46-1.71,1.8c-1.77.61-1.55,2.39-1.58,3.79,0,1.76.18,3.58,2.46,4,.78.15,1.55.48,1.53,1.36,0,1.16-1,1.27-1.9,1.32-1.41.08-2.74-.07-2.35,2.21.8,4.66-.55,8.76-3.29,12.66-1.26,1.79-3.38,3.67-2.75,6.25a69.25,69.25,0,0,1,1.83,13.29c.14,2.94.95,5.63,5,5.64,9.89,0,19.64-.91,29.13-3.82,4.28-1.31,7-9.43,3.66-12.47-6.47-6-6.19-14.47-9-21.77-1.26-3.28-1.07-7.11-1.49-10.7-.2-1.63.41-3.58-2.5-3.52-1.31,0-1.37-1.34-.43-2.19,1.12-1,2.5-1.91,4.06-1.53,3.14.76,6,2.45,9.21,3.06a1.81,1.81,0,0,1,1.15,2.46c-.77,2.29.37,3.82,1.4,5.65.69,1.23,1,2.14,2.6,2a2.31,2.31,0,0,0,2.07-2.32,30.62,30.62,0,0,1,9.31-18.7c1.16-1.11.56-1.78-.64-2a12.47,12.47,0,0,0-4.06-.34c-4,.61-8,1.83-12.11,2.09a307,307,0,0,0-37,4.34,30.82,30.82,0,0,0-6.47,1.69c-1.82.77-2.25,1.59-1,3.33s3.07,3.63,3.13,5.88C1720.69,1857.43,1722.93,1859.31,1726.56,1860.52Zm-101.62,52.08a33.18,33.18,0,0,1,1.15-3.39c.43-1,.69-2.46,2.25-1.82,1.16.47.87,1.68.6,2.64-.63,2.28-1.3,4.56-2,6.82-2.91,9.27-6,18.4-5.28,28.46.75,9.82,9.33,18.59,18.35,17.59,4.07-.45,8.08-1.42,12.12-2.11,2.7-.46,3.94-2,4.44-4.72,1.47-8.24.33-16.37-.45-24.54-.73-7.79-4.68-14-9.18-20.09-2.59-3.49-5.69-6.27-9.87-7.55C1628.85,1901.36,1623.67,1904.88,1624.94,1912.6Zm226.55,14.11c0-.74,0-1.49,0-2.24-.24-8.33-2.85-15.47-9.79-20.71-4.11-3.1-8.72-2.6-13.28-2.41-3.57.16-2,3.78-3.24,5.52-.15.2-.39.35-.48.57-3.39,8.74-8.4,17.09-5.68,27.19a72,72,0,0,0,3.71,10.52c3.36,7.49,8.35,9.59,15.3,5.52C1846.9,1945.48,1851,1937,1851.49,1926.71Zm-144.19-49.84a15.2,15.2,0,0,0,0,2.24c.51,3.63,3.9,6.45,6.82,5.85,1.93-.4,2.55-2.26,3.84-3.34a24.69,24.69,0,0,0,8-13.14c.9-3.54-1.55-6.27-5.29-6.24C1712.81,1862.31,1707.29,1868.31,1707.3,1876.87Zm57.78-14.58c-2.85.24-5.07,1.4-6.15,4.67-1.91,5.79,1.09,10,3.91,14.45,1.82,2.88,4.16,3.74,6.85,2.32s5-3.8,4.41-7.51c-.43-2.56-.89-5.13-1.42-7.68A7.69,7.69,0,0,0,1765.08,1862.29Zm57.79,34.17c.45-1.88.81-3.46,1.21-5,.21-.81.18-1.72-.65-1.88-5.18-1-9.91-3.7-15.34-4.12.34,3.85,2.14,6.92,3.2,10.23.39,1.21-.14,3,1.71,3.35,1.68.29,2.65-.9,3.59-2.17C1819.27,1893.22,1819.56,1893.24,1822.87,1896.46Zm-77-188.84c-1.54.3-3,.48-4.44.88-1,.28-3-.9-2.73,1.23.13,1.3,1.54,1.72,3,1.4a9.19,9.19,0,0,1,8.55,2.75c2.12,2.19,3.65,2.15,5.92.94.61-.32,1.62-.13,1.74-1a2.26,2.26,0,0,0-1.21-2.52C1753.17,1709.7,1749.68,1708.13,1745.86,1707.62Zm-119.29,185.44c-2.83.68-3.42,3.12-3.25,5.85.07,1-.9,3.51,1.09,2.93,2.35-.68,5.88.33,6.92-2.66C1632.06,1897.11,1628.7,1893.09,1626.57,1893.06Zm15.66,5c.06-3.62-.4-4.28-3-4.29a4.75,4.75,0,0,0-4.37,5.35c.48,2.87,3.4,1.74,5.15,2.17C1642.47,1901.89,1642.17,1899.65,1642.23,1898.07Z" transform="translate(-1615.21 -1633.74)"/><path d="M1639.25,1675.72a20.05,20.05,0,0,1,11.28,3.11c4.07,2.66,4,6.17,3,10.12-.46,1.8-1.07,3.57-1.48,5.39-.85,3.74,0,4.88,3.94,5.4,1.15.15,2.91-.23,2.72,1.62-.14,1.45-1.74,1.08-2.79,1.13-5.24.28-7.05-1.48-6.92-6.73a24.23,24.23,0,0,1,1.41-7.29c1.47-4.33.44-6.64-3.9-8.47-7.25-3.07-11.3-1.93-16.09,4.2-1.18,1.51-2.33,5-4.42,3.41s.89-3.6,2-5.12C1632.9,1675.67,1633,1675.73,1639.25,1675.72Z" transform="translate(-1615.21 -1633.74)"/><path d="M1743,1637.19c-2.12,0-4.24,0-6.35,0-.79,0-1.59-.32-1.62-1.21s.68-1.29,1.49-1.37c4.83-.53,9.69-1.17,14.54-.68,3.26.33,4.7,6.39,2.49,9.69-1.94,2.89-5.09,4.31-7.63,6.48-2.07,1.76-5.18,3.15-3,6.84a1.18,1.18,0,0,1-.47,1.63c-.75.46-1.4.07-2-.42-1.9-1.54-1.9-5,0-7.46,2-2.63,5.08-4,7.52-6.1.84-.74,1.73-1.42,2.56-2.17a3,3,0,0,0,.78-3.71c-.61-1.43-1.73-1.62-3-1.61H1743Z" transform="translate(-1615.21 -1633.74)"/><path d="M1805,1682.92c0-4.69,1.9-6.8,6.26-7.13a49.7,49.7,0,0,1,6,0c3.35.17,7-.58,8-3.6s-1.54-6-3.62-8.5a15.15,15.15,0,0,0-2.09-1.56,1.79,1.79,0,0,1-.52-2.63c.88-1.14,1.64-.2,2.53.27,4.59,2.42,5.85,7,7.06,11.38.87,3.12-3.91,7.12-8.34,7.36-2.62.14-5.25-.07-7.86.11s-4.54,1.23-4.64,4.3c0,1.25.54,3.39-1.32,3.34C1804.27,1686.16,1805.42,1683.84,1805,1682.92Z" transform="translate(-1615.21 -1633.74)"/><path d="M1745.77,1859.67c0-1.93,0-3.86,0-5.79,0-.89.13-2,1.23-2,1.42-.1,1.43,1.14,1.46,2.12,0,2.12.09,4.25,0,6.37-.12,1.92-1.07,3-3.15,3.53-2.84.75-5.73.33-8.53,1-1.74.43-2.26-.79-2.2-2.17.2-4.85.5-9.7.78-14.55,0-.8.39-1.59,1.25-1.61,1.14,0,1.38,1,1.37,1.86,0,3.62-.06,7.24-.18,10.85,0,.85-.65,1.83.52,2.22a3,3,0,0,0,2.15-.09c1-.55.38-1.51.22-2.34-.43-2.32-1.22-4.6-.86-7,.13-.9.33-1.83,1.5-1.73.92.09,1.1.93,1.16,1.69.22,2.77.46,5.54,2.2,7.78Z" transform="translate(-1615.21 -1633.74)"/></svg>