<svg xmlns="http://www.w3.org/2000/svg" width="128" height="128"><path fill="none" stroke="#000" stroke-width=".75" stroke-miterlimit="10" d="M112.854 78.57c7.109-7.012 6.791-25.291 6.791-25.291s-1.887 9.186-9.734 14.914M112.241 80.766c1.121-5.75.279-12.201-10.37-20.053M112.616 35.891c-.515 13.042-11.446 23.559-11.586 26.224M92.764 53.981c-4.561-4.978-9.389-12.34-9.108-18.09M91.402 52.427c5.845-5.878 10.89-9.385 9.628-18.92"/><ellipse transform="rotate(16.374 106.837 34.619)" fill="none" stroke="#000" stroke-width=".75" stroke-miterlimit="10" cx="106.823" cy="34.613" rx="6.307" ry="2.875"/><path fill="none" stroke="#000" stroke-width=".75" stroke-miterlimit="10" d="M85.477 32.946c0 1.626-.401 2.945-1.833 2.945s-2.593-1.318-2.593-2.945.473-2.945 1.903-2.945c1.432 0 2.523 1.318 2.523 2.945z"/><path stroke="#000" stroke-width=".75" stroke-miterlimit="10" d="M83.644 35.42c-.186.243-1.154.387-1.616.033-.462-.354-1.002-1.248-.817-1.49.186-.243 1.125.017 1.588.371.46.354 1.03.844.845 1.086z"/><path fill="none" stroke="#000" stroke-width=".75" stroke-miterlimit="10" d="M86.335 30.424l-6.007 4.343M76.105 31.563c0 2.061-1.416 3.049-3.941 3.049-2.524 0-3.993-1.489-3.993-3.549 0-.639.365-3.549 2.89-3.549 2.525 0 5.044 1.988 5.044 4.049z"/><path fill="none" stroke="#000" stroke-width=".75" stroke-miterlimit="10" d="M83.68 30.122c.098-2.239-1.074-3.922-3.352-5.342-2.278-1.419-5.432-4.312-10.213-1.262-4.781 3.05-3.889 7.678-3.889 8.256"/><path fill="none" stroke="#000" stroke-width=".75" stroke-miterlimit="10" d="M68.171 34.246c0 1.447-.94 1.157-2.522 1.157-1.582 0-2.54-1.36-2.54-2.807 0-1.448 1.054-2.888 2.172-1.769.946.947 2.89 1.971 2.89 3.419z"/><path stroke="#000" stroke-width=".75" stroke-miterlimit="10" d="M67.494 34.415c0 .53-.166.922-.79.922s-1.064-.692-1.064-1.223c0-1.117.286-1.157 1.112-.539.5.373.742.31.742.84z"/><path fill="none" stroke="#000" stroke-width=".75" stroke-miterlimit="10" d="M63.109 29.758l6.218 4.855M65.068 35.336c-.26 9.006 3.103 17.104 7.07 20.26-9.643-3.786-11.552.626-17.438 16.4"/><path fill="none" stroke="#000" stroke-width=".75" stroke-miterlimit="10" d="M67.898 77.313c-.4.994-3.679.613-7.324-.855-3.644-1.469-6.274-3.465-5.874-4.461.4-.992 3.679-.609 7.323.857 3.646 1.468 6.275 3.464 5.875 4.459zM67.898 77.313c5.809-7.902 7.139-11.83 7.139-11.83"/><path d="M45.786 71.996l-7.542-8.307-4.771-5.256 6.632 3.042 9.984 4.58-2.125 1.363V53.394l2.714 6.438 2.569 6.094-4.997-4.333 2.714-.881v9.044l-2.126-.975-9.984-4.579 1.861-2.214zM73.32 71.996l8.615-6.016 1.169 1.606-8.475 7.805-.875-1.717 8.475-1.703.701 1.843-6.825 2.817 5.819-4.545.7 1.846-8.476 1.703-3.502.705 2.627-2.42 8.476-7.805 1.17 1.606z"/><path fill="none" stroke="#000" stroke-width=".75" stroke-miterlimit="10" d="M42.212 89.568c.105-4.313 0-10.412 0-14.914 14.613 14.289 46.137 7.342 51.812 0 1.156 5.027 1.216 9.221-.42 13.967-12.821 7.047-34.682 8.52-51.392.947z"/><path fill="none" stroke="#000" stroke-width=".75" stroke-miterlimit="10" d="M44.517 76.631l1.846-1.367 2.575 1.367-.61 2.389M48.938 79.324l.946-2.181 4.817 1.877-.04 2.433M55.139 81.453l.631-2.156h4.519v3.266l.904.107.107-2.568 4.034.88.422 1.973 1.468.006.674-2.195h3.005l1.236 1.939 1.181-.123v-2.689l2.313-.596 1.152 2.781.629-.115v-1.197l2.633-.873 1.126 1.236 1.254-.34v-2.924l2.98-.552 1.382 1.984 1.414-.609v-2.057l1.933-1.977 2.628 1.285M3.922 76.631c0-1.977 19.758-19.563 22.981-18.861 3.223.701 11.911 13.462 11.63 15.847-.28 2.383-17.936 19.774-20.739 19.774S3.922 80.766 3.922 76.631z"/><path stroke="#000" stroke-miterlimit="10" d="M8.686 76.631c0-1.895 14.713-14.518 16.395-14.516 1.682.003 10.089 9.538 9.949 10.942-.14 1.402-14.433 14.303-16.535 14.303-2.101-.001-9.809-8.063-9.809-10.729z"/><path fill="none" stroke="#000" stroke-width=".75" stroke-miterlimit="10" d="M27.249 86.168c1.756 2.875 5.54 4.697 5.54 4.697M28.863 84.635c1.823 2.584 5.466 3.883 5.466 3.883"/><path fill="none" stroke="#000" stroke-width=".75" stroke-miterlimit="10" d="M40.776 88.518c-6.866-5.014-8.969 4.592-9.179 9.08l9.179-9.08zM37.551 91.707c11.633 5.609 20.303 7.076 28.089 2.908M36.9 92.352c5.837 4.965 16.487 9.313 27.697 6.088M39.032 90.242h4.736M36.187 93.057c4.169 5.102 12.717 9.027 18.953 9.027"/><path fill="none" d="M40.127 65.318L16.136 85.465l-6.62-7.897 23.992-20.146z"/><text transform="matrix(.7657 -.643 .6425 .7663 11.835 80.335)" fill="#00A651" stroke="#00A651" stroke-width=".75" stroke-miterlimit="10" font-family="'CourierNewPSMT'" font-size="5.888">Code_</text></svg>
