<svg id="Layer_1" data-name="Layer 1" xmlns="http://www.w3.org/2000/svg" viewBox="0 0 528.2 338.71"><title>contributing_dinosaur</title><path d="M1809.15,1786.68a8.54,8.54,0,0,0-4,3.77c-.55.85-1.29,1.63-2.43.88a2.08,2.08,0,0,1-.77-2.67c1.52-3.05,3.36-6.09,7.28-5.91,9,.42,17.91-.6,27.08,2.24,8.19,2.54,17.44,2.35,25.68,5.26,8,2.84,15.88,6,24.17,8.16,3.83,1,7.51,1,11.28,1.25,4.24.27,8.65-1,12.65,1.66a3.71,3.71,0,0,0,3.84-.3c10.73-6.7,22.74-11.46,31-21.81,4.44-5.55,5.29-11.66,4.52-18.16-.62-5.25-1.88-10.41-2-15.77a15.89,15.89,0,0,0-3.07-8.34c-2.18-3.28-4.62-6.4-7.09-9.48-1.64-2-3.62-2.92-6-.8-4,3.63-8.75,5-14.14,4.73s-10.66,0-16-.06c-4.81,0-7.26-2.4-7.57-7.24-.16-2.49,0-5-.25-7.49-.09-1.13,0-2.06,1.13-2.39a1.91,1.91,0,0,1,2.49,1.77,58.17,58.17,0,0,1,.28,7.47c-.06,3,1.25,4.32,4.2,4.2,1.67-.07,3.34,0,5,0,8.25,0,8.42,0,9.06-8.07.25-3.09,2.43-3.53,4.33-4.75.88-.56,2.68-.72,2.42-2.07a3.17,3.17,0,0,0-3-2.27c-2.66-.11-5.41-.41-8,.11-7.13,1.45-14.28.43-21.41.7-1.44.06-3.51.08-3.37-1.93s2.19-1.67,3.66-1.69c8.47-.16,17,.45,25.2-1.39-13.31-10.08-25.9-21.67-42.75-26.89-12.6-3.91-24.35-10.09-36.28-15.69-11.71-5.5-24.21-6.62-36.81-7.32-4.32-.24-8.67.15-13-.09s-8,0-9.46,5c-.24.82-1.26,1.54-2.08,2-11.79,7-19.19,17.53-24.16,29.93-2.62,6.53-7.81,11.4-10.43,18-7.24,18.21-16.66,35.51-22.48,54.34-2.37,7.69-5.4,15.17-8.09,22.76-1.61,4.53-2.92,9.05-2.65,14,.34,6.31.06,12.66,0,19,0,1.37-.18,3.06-1.8,3.07s-1.79-1.69-1.81-3.07a46.07,46.07,0,0,0-.22-5c-3.86,17-8.68,33.79-8.31,51.58.16,7.58-1,15.24-.79,22.88.11,4.12-.74,8.35,1.51,12.23a2.25,2.25,0,0,1-.59,3.14c-1.43,1-2.08-.19-2.58-1.3-.83-1.87-2-1.6-3-.33-6.56,7.87-15.87,10.83-24.83,14.85-8.26,3.7-17.25,5-25.33,9.28-4.26,2.24-9.57,2.56-14.59,2.57-8.33,0-16.66,0-25,0a20,20,0,0,1-14.76-6.09c-3.89-3.85-7.55-7.94-12-11.23-2.68-2-4.25-5-5.48-8.18-3.14-8-6.33-15.92-8.34-24.3,0,7.62-.06,15.24,0,22.86.07,7.4,5.2,12.65,8.21,18.8,5.08,10.36,13.3,18.17,21.6,25.79s18.94,9.8,29.26,12.61a70.89,70.89,0,0,1,20.78,9.22c5.06,3.33,11.4,3.6,17.28,3.68,16.29.24,32.44,3.06,48.77,2.22,2.1-.11,4.24.67,6.37,1,1.08.19,1.95.68,1.92,1.88s-1.1,1.67-2.12,1.6c-3-.22-6-1-8.88-.82-16,.9-31.82-1.89-47.76-2.36-6.91-.21-14.21-.72-20.37-6.13-6.34-5.56-15.25-6.22-23.18-8.42-12.47-3.45-22.51-9.92-31.59-19.32-8.23-8.54-14.24-18.3-20.32-28.15a23.46,23.46,0,0,1-3.76-13.14c.26-8.83.07-17.66.09-26.5,0-1.47-.27-3.36,1.5-3.87s2.65,1.19,3.52,2.33c2.49,3.26,3.33,7.3,4.09,11.13,1.38,6.91,4.29,13.23,6.72,19.74,4,10.65,20.64,22.07,31.93,21.87,9.8-.16,19.61.81,29.39-.88,5.32-.93,9.74-4,14.82-5.41a85.64,85.64,0,0,0,15.72-5.46c6-2.9,12.83-3.78,18.2-8.22,4.55-3.76,7.59-7.59,8.25-14.23,2.2-21.8,1-43.87,6.84-65.47,2.74-10.15,7-20.21,7-31.1,0-2.74,0-4.52-3.7-4.79-4.24-.3-9.43-6.6-10.3-10.92-1.18-5.82,2.53-9.07,6.43-11.93,3.34-2.44,7.36-3.77,11.38-4.9,1.25-.35,2.44-.62,3,.77s-.75,2-1.8,2.45c-3.21,1.36-6.43,2.67-9.64,4-4.32,1.77-6.48,5.48-5.48,9.41,1.14,4.46,6.11,8.09,10.24,7.81,3.48-.24,3.73-3.25,4.36-5.31,1.5-4.91,3.62-9.63,5.06-14.47,5.54-18.61,14.14-35.88,21.88-53.56,5.72-13.07,13.38-25.05,20-37.62,2.6-5,7.5-9,12.21-12.72,3.2-2.55,8.84-4.19,7.19-10.87-.52-2.12-1.55-2.36-2.59-2.59-5.3-1.17-10.7-1.88-16.72-5.11,3.24,4,5.69,6.85,7.85,9.88,1,1.41,2.36,3.52.28,4.85-2.27,1.44-2.44-1.36-3.35-2.47-2.17-2.69-3.59-5.91-6.29-8.24-1.55-1.33-3.87-2.78-2.27-5.34,1.39-2.24,4.06-2,5.91-1.17,5.56,2.34,11.61,2.71,17.24,4.64a78.11,78.11,0,0,0,26.7,4.23A88.7,88.7,0,0,1,1841,1662c14.1,6.8,28.48,13.09,43.2,18.51,8.73,3.22,15.58,9,22.47,15,4.33,3.77,9.43,6.66,14.21,9.9a7.92,7.92,0,0,0,4.76,1.21c2.67-.05,5.34,0,8,0,8.12,0,12.42,5.71,8.06,12.65-3.65,5.81.08,8.89,2.64,11.31a20.64,20.64,0,0,1,6.49,13c.73,7.08,2,14.1,2.62,21.2,1.09,12.1-6.75,18.87-14.58,25.45-6,5-13.56,7.61-19.87,12.3-2.26,1.68-5.45,2.15-8.34,3-12.8,3.6-25.8,4.13-39,3.85s-26.66,0-40-.11c-3.65,0-6.32,1.55-6.15,4.94.52,10.65-3.39,20.91-2.27,31.6.94,9,2.27,9.87,9.84,10,10,.19,17.7,5.66,23.35,13.85,1.51,2.18.68,4.2-1.81,4.41-3.7.31-4,1.38-1.8,4.08.63.77.69,2.25-.17,2.75-1.94,1.12-.7,5.27-3.58,4.59-3.12-.75-6.39-2.68-7.27-6.08s-2.54-4.4-5.64-4.13c-2.22.2-3.62-.86-5-2.63a5.64,5.64,0,0,0-5.77-2.13c-2.22.67-1.14,3.24-1,4.84.63,8.4,4.61,15.8,7.69,23.4,2.75,6.78,2.17,13.66,2.09,20.59,0,1.1-.68,2.17-1.71,2.1-1.35-.08-1.74-1.37-1.79-2.62-.16-4.15-.18-8.31-.52-12.44-.64-7.75-5.18-14.21-7.47-21.45-1.11-3.53-2.17-6.81-2.1-10.5.1-4.83.09-9.67,0-14.5,0-2.94,1.05-6.19-3.06-7.91-1.78-.75-.67-3.15.12-4.49,2-3.5,2-7.24,2-11.07,0-3.61-.37-7.19,1.57-10.68,1-1.82,1.24-4-2.59-4.75-8.31-1.62-12.69-7.7-12.94-16.86-.08-3.13-.66-4.81-4.25-5.22-8.36-1-16.67-2.43-25-3.66-1.56-.23-4,.28-3.87-1.95s2.55-1.9,4.1-1.69c8.2,1.07,16.39,2.2,24.55,3.54,2.54.41,4.34.49,4.47-2.7C1805.82,1790.18,1808.57,1789.4,1809.15,1786.68Zm40.49,4.29c-10.66-.8-19.87-5.21-30-4.67-5.72.31-9.93,3.87-10.28,9.53a40.84,40.84,0,0,0,2,16.18c1.21,3.51,4.66,3.57,7.11,4.73,1.89.89,2.64-2.29,3-3.75,1.62-6.12,6-9.42,11-12.69C1837.67,1796.87,1843.77,1795.17,1849.64,1791Zm51.71,12.52c-7.26.6-14.1-.72-21-2.92-5.13-1.63-10.42-2.19-15.22-5.3-4.64-3-10.08-4.53-14.85.58-1.06,1.13-2.72,1.08-4.06,1.62-4.74,1.94-9.75,3.59-14,8.51C1856,1804.46,1878.76,1807.7,1901.35,1803.49Zm-49.76,66.74c-1-2.45-3.16-2.93-4.57-4.31-5.41-5.32-12-7.26-19.49-6.56-1.38.13-2.8.21-3,1.92-.18,1.44-.77,3.88.46,4.15,4.53,1,7.27,5.61,11.67,6,3.86.35,6.73,1,8.1,5a2.51,2.51,0,0,0,2.6,1.88C1844.5,1872.6,1845.12,1871.35,1851.59,1870.23Zm73.78-159.87a23.3,23.3,0,0,1,6.74,6.46c1.07,1.44,2.15,3.88,4.49,3.07,2.51-.87,1.94-3.46,2.05-5.56.14-2.58-.69-4.1-3.58-4S1929.56,1710.36,1925.37,1710.36Z" transform="translate(-1555.57 -1643.41)"/><path d="M1932.46,1923.19c.37-4.55,0-7.84,1.08-11a13.29,13.29,0,0,1,3.85-6.23c5.8-5,5.63-8.48-.94-12.67a54.5,54.5,0,0,0-9.85-5.49c-8.23-3.09-13.35-11.65-22.7-12.66a1.58,1.58,0,0,1-1.47-1.71c.17-1.78,2-1.41,3.29-2.35-2.31-3-4.72-5.39-8.76-5.8-3.14-.33-3.58-2-2.34-4.94a173.25,173.25,0,0,1,37.42-55.49c9.24-9.27,18.09-18.94,26.71-28.79,3.49-4,8.29-5.36,12.41-8,4.58-3,5.58-7,5.57-11.89,0-2.87-1.51-6.63,1.28-8.46,3.13-2.05,4.27,2.73,6.93,3.42,2.12.55,3.6,2.32,5.08,3.91,14.49,15.64,32.8,27.11,47,43,8.69,3,11.07,11.71,16.29,17.85a16.06,16.06,0,0,0,2.6,3c12.15,8.54,17.89,22.06,26,33.69,3.14,4.51,1.32,10.36,1.06,15.62-.07,1.44-1.55,2.23-2.81,2.57-3.61,1-5.68,3.78-8.17,6.21-8.59,8.42-17.25,16.78-26.06,25-2.65,2.46-6.48,3.09-9.46,5.35-8.13,6.19-15.35,13.27-22.67,20.35-6.82,6.6-12.37,14.2-18.8,21.06-2.48,2.65-4.78,1.94-6.71-.52-8.67-11.08-20.27-19.18-29.79-29.41-3.51-3.78-8.77-1.45-11,4.73a37.05,37.05,0,0,1-2,4.51c-.58,1.12-.69,3.06-2.42,2.44-2-.72-1.69-2.71-1-4.28,1.53-3.44,3-6.88,6-9.52,1.85-1.62,4.24-4,1.52-6.75-1.65-1.66-2.48-5.71-5.22-4.43s-6.06,3.25-7.18,7c-2.52,8.46-.91,15.94,4.83,22.58,4.67,5.4,4.4,11.91,4.2,18.43-.09,2.71-1.53,4-4.13,3.84-4.13-.25-8.4-.1-12.34-1.14-5-1.33-7.87,1.31-8.71,5-2,8.48-7.92,13.5-14,18.62a7,7,0,0,1-2.07,1.33c-8.43,2.84-19.61-.42-25.57-7.58-3-3.59-7.72-5.32-10-9.65a19.65,19.65,0,0,1-1.61-3,1.85,1.85,0,0,1,1.28-2.38c1-.31,1.57.43,1.91,1.18,3,6.65,9.09,10.61,14.35,14.8,10,7.94,25.65,2.42,30.06-9.74,1-2.85,2-5.62,4.33-7.67,3.52-3,2.36-6.32.36-9.57a100.58,100.58,0,0,1-8.81-19.11c-.72-2-1.3-4.58-4.14-5.11-1-.2-2-.84-1.75-2,.3-1.36,1.59-1.52,2.81-1.54,2.73-.06,4.3,1.3,5,3.9,2.23,8.16,6.58,15.38,10.38,22.83,2.54,5,11.18,8.39,16.68,7.15,2.29-.52,2.2-2.12,2.26-3.81.31-8-3.79-14.15-8.16-20.2-1.15-1.6-2.91-2.75-4.17-4.29-3.16-3.85-6.55-5.32-11.2-2.22-1.14.77-3.74,2.39-4.57-.38-.54-1.78,1.6-2.38,3.17-3.08C1923.11,1917.2,1928.21,1915.86,1932.46,1923.19Zm48.23-170.39c-.14,1.63-.34,2.76-.32,3.88.12,6.22-1.65,10.84-7.69,14.29-4.75,2.73-10.14,4.58-14,9.18-7.87,9.39-15.79,18.87-24.72,27.21-14.44,13.48-23.42,30.55-33.23,47.14-2.06,3.47-2.93,6.77,1.89,9.36,2.53,1.36,4.35,4.07,6.46,6.19,4.32,4.37,8.72,8.79,14,11.86,7.23,4.2,15.19,7.18,20.67,14,1.21,1.5,2.61,3.25,4.71.8a1.69,1.69,0,0,1,2.94.13c.88,1.37-.44,2.07-1.21,2.86s-3,1.28-1.5,2.89c2,2.11,1.63,6.92,6.62,5.76,1.3-.3,1.87,1.07,1.91,2.38,0,1.07-.69,2.08.49,3.19,5.46,5.12,10.56,10.65,16.23,15.52s11.55,8.94,15.75,15.06c1.6,2.34,2.7,1.41,4.14-.26,9.14-10.58,19.11-20.38,29.12-30.12,5.46-5.3,11.11-10.58,18.09-13.85,5.74-2.69,9.83-7.24,14-11.62,6.24-6.6,13.89-11.66,19.69-18.76,1.83-2.25,5.66-2.77,5-7-.51-3.23,1-6.9-1.17-9.74-7.81-10.42-12.72-23-23.53-31.2-2.63-2-4.6-4.73-6.57-7.44a118.81,118.81,0,0,0-11.27-12.83c-14.62-15.07-32.23-26.74-46.55-42.06A27,27,0,0,0,1980.69,1752.8Z" transform="translate(-1555.57 -1643.41)"/><path d="M1877.41,1889.56c5.65,0,8.32,4,12,5.91,3,1.57,5.21,4.47,9.17,4.42,2.25,0,4,2,4.47,4.13.72,3.18-1.34,5.56-3.67,7.08-8,5.22-13.51,12.11-17.67,20.81-3.9,8.15-9,15.72-12.86,24-2.88,6.25-5.27,12.49-5.55,19.42,0,1.16,0,2.43-1.25,3s-2.11-.53-2.93-1.26c-9.27-8.16-19.41-14.84-31.22-18.75-.79-.26-1.54-.63-2.33-.87-2.3-.69-5.65,1.13-6.85-1.54-1.08-2.41,2.51-4.1,2.8-6.5,1-8.73,6.92-15.22,10.43-22.79a13.64,13.64,0,0,1,5-5.42c8.31-5.18,15.58-11.75,23.52-17.4,4.64-3.3,7.36-8.48,12.13-11.64C1874.45,1891,1875.85,1889.29,1877.41,1889.56ZM1865,1907.4a24.73,24.73,0,0,0-2.22,1.85c-4.93,5.24-12.26,6.68-17.74,11.42-2.52,2.19-6.87,3.34-8.82,6.48-4.39,7.09-9.55,13.84-10.79,22.56-.36,2.56-.83,3.81,2.2,4.8a87,87,0,0,1,29.61,16.66c2.7,2.3,2.76-.82,3-1.87a98.71,98.71,0,0,1,4.92-14c4.12-9.84,10.45-18.42,15-28,1.51-3.21,1.88-7.53,5.37-9.29,5.28-2.65,8.3-7.56,12.55-11.21,1.13-1,1.81-2.75-.09-3.07-6.68-1.11-10.59-7.15-16.89-9-3.11-.89-8.84,1.34-9.54,4.48a1.81,1.81,0,0,0,.25,1.38c.57.64,1.26.23,1.71-.25,2.11-2.32,4.92-1.42,7.49-1.78,5.14-.71,8.14,2.37,9.5,6.36,1.27,3.71-1.62,8-4.25,9.16-5.32,2.31-7.85,6.42-10.21,10.89-5.16,9.79-13.85,17.62-15.51,29.41-.7,5-3,5.44-8,3.85-7.25-2.3-11.8-9-19.06-11.27-1.29-.4-1.41-1.62-.6-2.87,1.43-2.22,2.23-5,4.56-6.45,3.89-2.5,6.29-6.29,8.86-9.93a40.4,40.4,0,0,1,8.58-8.89A35.77,35.77,0,0,0,1865,1907.4Zm-10.3,47.41c1.41.42,1.92-.28,2-1.14,1.09-7.6,5.08-13.81,9.43-19.86,1-1.38.32-2.42-.75-3.46-2.39-2.32-4.75-2.84-7.38-.33-4.18,4-4.88,6.86-2.4,9.67,1.07,1.22,3.68,2.35,1.77,4.37s-2.79-.68-3.91-1.59c-1.62-1.31-2.73-1.71-3.7.68a24,24,0,0,1-2.69,4.75c-1.37,1.94-1,3,1,4.4C1850.24,1953.79,1852.89,1953.57,1854.7,1954.81Z" transform="translate(-1555.57 -1643.41)"/><path d="M1831.56,1722.65a44.8,44.8,0,0,1,4.49,0c5.3.56,9.47.29,9-7.05-.23-3.63,2.51-5.35,6.45-5,4.61.43,5,3.78,5.25,7.1.15,1.69-1.26,4.54,1.18,4.48,2.94-.06,7.07.67,8.78-2.09,1.58-2.56-.55-5.71-3.34-6.56-11-3.35-21.57-8.46-33.45-8.26-1.44,0-3.5.08-3.33-2,.16-1.88,2.21-1.61,3.68-1.68,8.26-.4,15.9,2.28,23.56,4.86,3.13,1.06,6.31,2,9.44,3.06a11,11,0,0,1,6.73,5.47c2.92,6,1.46,8.64-5,10.18-15.26,3.68-30.63.1-45.92,1a4,4,0,0,1-4.26-3.48c-.58-3-.43-6,2-8.37,3.81-3.69,8.56-2.89,13.18-2.46a1.56,1.56,0,0,1,1.47,1.69,1.8,1.8,0,0,1-1.73,1.54c-1.83.12-3.66.24-5.48.18a5.74,5.74,0,0,0-4.76,2.25,3.53,3.53,0,0,0-.89,3.68c.49,1.34,1.77,1.35,2.95,1.35,3.33,0,6.65,0,10,0Z" transform="translate(-1555.57 -1643.41)"/><path d="M1787.09,1886.35c3,1.84,4.93,3,4.5,5.26s-2.58,1.7-4.19,1.73c-1.45,0-2.07.6-2.11,2.08-.15,5.14-4.12,3.61-7,3.92-3.24.36-6.49-.86-6.22-4.09.75-9.17-6.11-12.1-12-15.65-4-2.38-6.88-6.24-11.5-7.6a1.4,1.4,0,0,1-.76-2.36,2.85,2.85,0,0,1,3.66-.6,29.37,29.37,0,0,1,6.65,4.2c2.81,2.67,5.66,5.22,9.32,6.5,5.65,2,7.74,6.25,7.88,11.76.09,3.62,1.79,4.64,5.58,3.74-2.25-2.59-4.57-5.3,1.13-5.79.5,0,1.35-.83,1.34-1.25-.23-6.31,4.25-5.56,8.24-5.64a4.47,4.47,0,0,0,1.37-.6c-1.59-4.79-6.34-4.67-9.69-6-7.44-3-14.75-5.89-19.33-13.06-1.2-1.89-3.45-2.59-5.37-3.35s-2.7-2.2-3.27-4c-.39-1.24-.61-2.34.73-3,1.16-.56,1.85.42,2.49,1.12,3.73,4.07,9,6.28,12.09,11.37,2.4,4,7.62,5.18,12,6.38s7.8,3.39,11.5,5.54c2.74,1.59,3.67,3.7,3.07,6.62-.66,3.24-3.31,2.7-5.58,2.8C1790.63,1886.39,1789.64,1886.35,1787.09,1886.35Z" transform="translate(-1555.57 -1643.41)"/><path d="M1733.27,1677.34c4,2.91,7.49,5.79,9.94,9.88.64,1.07,1.35,2,.13,3s-2.4,0-2.87-.89c-2.91-5.24-8.12-7.5-12.92-10.31-1.27-.75-2-1.8-1.53-3.31a2.94,2.94,0,0,1,3.1-2c4.83,0,9.66-.18,14.48,0,5.24.15,9.8-1.13,13.3-5.27.64-.75,1.35-1.63,2.45-.66s.66,2.08-.19,3c-3.46,3.84-7.65,6.37-12.92,6.55C1741.92,1677.47,1737.59,1677.34,1733.27,1677.34Z" transform="translate(-1555.57 -1643.41)"/><path d="M1702.77,1743.29c2.61-11.54,2.59-14.12,14.64-13.66,1.48,0,3,.22,4.39-.61s2.57-1.11,3.16.71a2.38,2.38,0,0,1-2,3.34c-2.8.33-5.65.22-8.48.28-5.11.12-8.12,4-7.17,8.94.32,1.67,1.37,2,2.69,2.46a52.59,52.59,0,0,1,5.53,2.2c.72.33,1.42,1,1,2a1.65,1.65,0,0,1-2,1.07c-3.49-1-7-2.06-10.39-3.35C1702.69,1746.1,1702.72,1744.5,1702.77,1743.29Z" transform="translate(-1555.57 -1643.41)"/><path d="M1719.62,1706.88c4.46,1,7.59,3.92,10.4,7.22.53.62,1.11,1.31.29,2.17s-1.62.37-2.15-.22c-3.49-3.84-8.47-5.1-12.8-7.47-3.32-1.82-2-2.8.29-4.38,6.71-4.71,14.23-5,21.94-4.49,1.34.08,3,.21,2.83,2s-1.88,1.58-3.22,1.65c-4.62.26-9.29-.5-13.86,1C1721.88,1704.74,1720.52,1705.06,1719.62,1706.88Z" transform="translate(-1555.57 -1643.41)"/><path d="M1950.29,1839.6c2.92-.19,5.49-2.2,7.15.34s1.31,5.85.36,8.67c-.87,2.59-3.41,2.9-5.86,2.72-3.53-.25-8.18,1.5-8.57-4.64,0-.2-.89-.61-1.15-.48-1.8.86-3.94,1.62-4-1.21-.08-2,1.5-4.75,3.53-4.93,7.53-.67,8.83-9.28,15.14-11.29.24-.08.4-.52.53-.82.66-1.55-.36-4,2.2-4.47,1-.16,1.63,1,1.66,2.12,0,2.43,1,5.49-2.08,6.55C1955.34,1833.51,1953.1,1836.4,1950.29,1839.6Z" transform="translate(-1555.57 -1643.41)"/><path d="M2000.28,1883.61c3,.23,6.19.27,6.81,3.79s-1.47,5.57-4.81,6.45c-.64.17-1.21.58-1.84.75-2.87.77-6.07,2.14-7.55-1.89-1.62-4.41.2-7.67,4.52-8.73A25.08,25.08,0,0,1,2000.28,1883.61Z" transform="translate(-1555.57 -1643.41)"/><path d="M1997.37,1855.93a9.2,9.2,0,0,1-5.64,9.11,1,1,0,0,1-.47.15c-5.33-.08-1.15,7.16-3.92,6.44-3.44-.9-5.48-1.76-7.25,1.91-.5,1-1.48,2-2.84,1.22s-.9-1.85-.23-2.92c.85-1.36.84-3.23,2.6-4.07,1.91-.9,3.06-2.09,1.16-4.15a1.35,1.35,0,0,1,.09-2.16c1-.83,1.73-.33,2.67.14,5.21,2.58,9.5,0,10.11-5.92.16-1.58-.36-4.08,1.74-4.07C1997.93,1851.61,1997.07,1854.28,1997.37,1855.93Z" transform="translate(-1555.57 -1643.41)"/><path d="M2011.43,1842c-3.48-5-5.18-.76-7.46,1.7a2.12,2.12,0,0,1-3.13-.21c-1-1-.18-1.76.23-2.64a9.53,9.53,0,0,1,3.75-3.83c1.63-1.08,4.9-1.79,1.75-4.77-.56-.52-.22-1.23.3-1.74.82-.79,2.08-1.06,2.71-.37,4.49,4.89,6.34-.35,8.86-2.36.86-.68.75-2.88,2.57-2.12s1.5,2.52,1,3.92a6.35,6.35,0,0,1-2.16,3.2c-3.2,1.84-7.45,2.62-6.18,8C2013.8,1841.41,2012.6,1842.05,2011.43,1842Z" transform="translate(-1555.57 -1643.41)"/><path d="M2011.55,1902.46c-2,.56-2.94,2-4.61,1.85-1.14-.12-2.41.13-3.18-1-1-1.37.65-1.91,1-2.85,1-3.09,4.81-4.55,4.73-8.37,0-1.14,1.64-1.59,2.79-.67,1.42,1.13,3,2.28,3,4.33q.09,6.7,0,13.42c0,1.46-.76,2.79-2.33,2.65-1.83-.17-1.51-1.67-1.39-3.06C2011.68,1906.84,2011.55,1904.86,2011.55,1902.46Z" transform="translate(-1555.57 -1643.41)"/><path d="M1961.65,1808.91c0-8.13,7.63-15.2,15.34-14.21a6.7,6.7,0,0,1,4.72,2.38,2.24,2.24,0,0,1,0,2.78c-.71,1-1.5.71-2.54.18-6.08-3.16-12.64.16-13.71,7-.33,2.09-.57,4.51,2.75,4.7,1.23.06,2.48.57,2.26,2s-1.58,1.44-2.77,1.58C1962.93,1815.89,1961.66,1814.56,1961.65,1808.91Z" transform="translate(-1555.57 -1643.41)"/><path d="M1980.74,1823.33c-3.8,0-7.24.42-7.06-4.52.16-4.28,2-5.06,10.33-5.39,4.07-.16,3.1,2.48,3.31,4.59C1987.9,1823.73,1984,1823.52,1980.74,1823.33Z" transform="translate(-1555.57 -1643.41)"/><path d="M1968.64,1848.35c2.14,1.1,2,3,1.16,4.68-1.12,2.38-2.59,4.59-3,7.28-.16,1-.55,2,.35,2.75,1.11.91,2.29.41,3.13-.45a10.79,10.79,0,0,1,4.8-2.48,2.11,2.11,0,0,1,2.59.89c.72,1,.26,1.87-.42,2.68-1.39,1.65-2.79,3.28-4.15,5-.89,1.09-1.8,1.4-2.91.33a5.56,5.56,0,0,0-1.48-1.29c-2-.8-5.05.36-5.77-2.81a15.08,15.08,0,0,1,1.62-10.1c.8-1.61,2.15-2.9,2.36-4.84C1967,1849.06,1967.71,1848.55,1968.64,1848.35Z" transform="translate(-1555.57 -1643.41)"/><path d="M1999.35,1833.52a9.24,9.24,0,0,1-1.46,6.26c-.59.81-1.39,1.56-2.52,1s-.95-1.34-.68-2.47c1.83-7.76,1.65-7.94-6-8a16.67,16.67,0,0,1-2,0c-1.86-.24-4.8.8-5.05-1.77s2.76-1.57,4.35-2.13c1.88-.66,3.89-1.2,3.79-3.89a1.86,1.86,0,0,1,1.73-2.09,1.82,1.82,0,0,1,1.72,2.07c-.17,2.93,1.27,4,4,4.53C1999.24,1827.47,1999.34,1828.54,1999.35,1833.52Z" transform="translate(-1555.57 -1643.41)"/><path d="M2033.3,1856.2c0,1.93,0,2.75,0,3.58,0,1.22-.31,2.57-1.65,2.7s-2-1.16-1.89-2.38c.32-5.84-2.35-4.77-5.94-2.89-2.45,1.28-5.26,1.86-7.92,2.72-1.6.52-3.19.3-3.67-1.44-.52-1.91,1-2.58,2.61-2.77,3-.34,5.34-1.5,6-4.82.21-1,1.51-2.16,2.06-1.36,2,2.93,5,1.79,7.58,2.26C2033.71,1852.39,2033.23,1855,2033.3,1856.2Z" transform="translate(-1555.57 -1643.41)"/></svg>