<svg id="Layer_1" data-name="Layer 1" xmlns="http://www.w3.org/2000/svg" viewBox="0 0 132.14 184.97"><title>dinosaur_waving</title><path d="M1826.22,1858.16c1.88-1.15,3.42-2.07,4.23-4.05a34,34,0,0,1,3.83-7.15,10.68,10.68,0,0,0,1.83-6.08c.24-4.79-.67-9.46-1.33-14.16-.62-4.42-1.36-8.82-1.84-13.27-.21-1.94-.61-3.86-.74-5.81a.77.77,0,0,0-.39-.71c-.7,2.39-.87,4.86-1.39,7.26-1.21,5.54-2.27,11.11-3.79,16.57-.48,1.7-1,3.48-2.46,4.67-.18.14-.41.36-.61.35-1.43-.11-1.92,1-2.72,1.86-3,3.21-7.18,3.36-10.72,1.39s-6.91-4.27-10.6-6a5.1,5.1,0,0,1-2.33-2.46.93.93,0,0,1,.35-1.35,1,1,0,0,1,1.48.31,6.47,6.47,0,0,0,2.82,2.3c3.24,1.8,6.37,3.8,9.68,5.46,3.47,1.74,6.57,1.15,8.61-2.55.33-.59.49-1.28.8-1.87.44-.84.12-1.28-.67-1.54-4.44-1.46-8.86-3-13.63-2.86-1,0-2,.16-3,.29a1.05,1.05,0,0,0-1.07.92,1.27,1.27,0,0,1-2.48-.29,43.77,43.77,0,0,1,0-5.25c.34-3.2.14-6.39.17-9.58a18.43,18.43,0,0,1,3.38-10.72,85.32,85.32,0,0,0,7.1-11.75,28.54,28.54,0,0,1,2.86-4,1.12,1.12,0,0,1,1.7-.27,1,1,0,0,1,0,1.67c-2.22,2.35-3.44,5.34-5.11,8s-3.11,5.19-4.87,7.64a16,16,0,0,0-2.95,9.06c-.09,2.76,0,5.52,0,8.28,0,1.16-.34,2.29-.24,3.46,0,.59.12.87.85.69,5.76-1.36,11.13.45,16.53,2.08,1.24.37,2.3,1.24,3.7,1.24.79,0,.74.82,1,1.44.77-3.17,1.51-6.35,2.32-9.52.77-3,1.2-6.09,1.94-9.12a87.86,87.86,0,0,0,1.37-8.72c.18-1.3.15-2.64.39-3.93a3.22,3.22,0,0,0-1-2.92c-.53-.58-1.4-1-.79-2s1.32-.37,2,0a3.43,3.43,0,0,0-.33-2.73c-.9-1.48-1.56-3.08-2.61-4.52a8,8,0,0,1-1.17-4.32,29.46,29.46,0,0,0-1-6.7,113,113,0,0,1-2.46-12.91c-.29-2-.68-4.09-1-6.14-.48-3.39-.74-6.8-1.45-10.16-.75-3.63-1.06-7.33-1.91-10.94a2.8,2.8,0,0,0-.38-1.12,1.47,1.47,0,0,1-.26-1.94c.31-.51,0-1-.14-1.51a67.94,67.94,0,0,0-4.09-11.06,20.52,20.52,0,0,0-7.44-8.8,5.27,5.27,0,0,0-3-.87c-.34,0-.69,0-.88-.25-1.4-1.88-3.21-1.25-4.86-.67a45.28,45.28,0,0,0-8.39,3.75,31.59,31.59,0,0,0-7.89,7.22,11.1,11.1,0,0,0-2.08,2.81,5.11,5.11,0,0,1,4.85,2.74,6.21,6.21,0,0,1,0,6,1.74,1.74,0,0,1-2.36.85,10.72,10.72,0,0,0-5-1c-.34,0-.65,0-.64.45,0,1.07-.21,2.17.45,3.15a1.12,1.12,0,0,1,.22.55c-.1,2.54,1.53,4.32,2.89,6.14.76,1,.94,2.28,1.72,3.25.32.41.53.89,1.12,1a25.42,25.42,0,0,0,8.91.44c.68-.12,1-.74,1.67-.9a18.39,18.39,0,0,1,4.33-.79c2.3,0,3.69-1.42,4.57-3.45.59-1.4,1.32-2.74,1.88-4.14.39-1,1-2,.31-3.08a.93.93,0,0,1,.56-1.37,1.21,1.21,0,0,1,1.71.62,3.83,3.83,0,0,1,0,3.16c-1,2.43-2.06,4.83-3.23,7.19s-3.46,3.09-5.87,3.32a8.27,8.27,0,0,0-4.09,1.1,4.46,4.46,0,0,1-2.41.63.76.76,0,0,0-.85.9c.15,3.8-.8,7.53-.68,11.33a2.64,2.64,0,0,1-.09.84,105.49,105.49,0,0,0-2.57,12.46,6.45,6.45,0,0,1-1.16,3.23c-.17.21-.35.56-.56.59-1.39.19-.75.88-.45,1.55,1.37,3.14,3,6.18,4.14,9.41.32.89,0,1.84-.72,2-.94.18-1.19-.41-1.42-1.2a25.65,25.65,0,0,0-1.34-3.71c-1.92-4.17-3.78-8.36-5.88-12.44a101.57,101.57,0,0,0-7.06-11.34,43.15,43.15,0,0,0-8.86-9,16.87,16.87,0,0,0-3.84-2.18,3.42,3.42,0,0,0-2.42.16c-.46.12-.28.42-.26.66.37,3.93-1,7.55-2,11.25a39.52,39.52,0,0,1-2,5.74,12.36,12.36,0,0,1-9.31,7.45,64.07,64.07,0,0,0,6.65,5.06c5.44,3.83,10.88,7.67,16.18,11.71.55.42,1.07,1,1.77.12a.87.87,0,0,1,1.12,0,.89.89,0,0,1,.45,1.13c-.38.83.05,1.15.7,1.43a13.91,13.91,0,0,0,2,.83c.69.19,1.15.65.88,1.43s-.86.87-1.56.6a7.86,7.86,0,0,1-1.55-.63c-1-.72-1.36-.22-1.54.75a51,51,0,0,0-1.08,12.59c.24,4,.87,7.92,1.18,11.9a102.17,102.17,0,0,0,2.6,17.12c.32,1.27.85,2.49,1.26,3.73.19.6.53.59,1,.33.65-.35,1.27-.35,1.63.39s-.17,1.26-.82,1.56c-2.79,1.3-5.79,2-8.65,3.12-4.49,1.71-9.23,2.51-13.82,3.83a27,27,0,0,0-10,5.43,23.82,23.82,0,0,1,5.2,3.27,20.92,20.92,0,0,1,5.32,7.69,16.89,16.89,0,0,1,1.48,4.66,4.38,4.38,0,0,1,.11.94,1.15,1.15,0,0,1-1.1,1.2c-.7,0-1.08-.42-1.16-1.11a19.18,19.18,0,0,0-4.81-10.48,13.12,13.12,0,0,0-6.15-4.18,1.1,1.1,0,0,0-1.19.21c-.89.78-.84,2.17-1.88,2.86-.08.06.12.69.31,1a33.59,33.59,0,0,0,8.31,9.3,37.37,37.37,0,0,0,9.1,4.47c.35.13.78.29.67-.47s.56-1,1.07-1.28a27.34,27.34,0,0,1,4.69-1.76,35,35,0,0,0,9.24-5.68q4.85-3.8,9.51-7.81a15.49,15.49,0,0,0,3.65-3.92,1,1,0,0,1,1.53-.45c.61.33.64.85.37,1.44a13.38,13.38,0,0,1-4,4.44c-3.63,3.1-7.36,6.11-11.13,9a31.52,31.52,0,0,1-11.36,5.92,3.77,3.77,0,0,0-.57.18l-1.62.81a3,3,0,0,0,3.29-.41c.58-.44,1.2-.63,1.65.07s.14,1.3-.49,1.76a5.42,5.42,0,0,1-4.33.88,35,35,0,0,1-9-3.4,27.69,27.69,0,0,1-11.17-10.18,30.84,30.84,0,0,1-2.5-4.07c-.3-.66-.78-1.37-.23-2.13s1.22-.23,1.84-.17c0-.15.08-.27,0-.3-.44-.43-1.08-.75-.81-1.56a1.57,1.57,0,0,1,1.73-1,3.57,3.57,0,0,0,2.51-1.1,31,31,0,0,1,11.36-6.17c5.81-1.57,11.69-2.92,17.35-5,2-.76,2-.79,1.26-2.82a40.1,40.1,0,0,1-2-7.74c-.75-4.45-1.07-9-1.57-13.42a131.77,131.77,0,0,1-1.27-15.24,44.33,44.33,0,0,1,1.23-8.51c.44-2.19.57-2.19-1.21-3.48-6.34-4.58-12.66-9.18-19-13.71-2.18-1.54-4.13-3.37-6.42-4.75a.88.88,0,0,1-.52-1c.29-1-.18-1.78-.37-2.67-.56-2.61.57-4.84,1.72-7a58.13,58.13,0,0,1,5.17-7.31,4,4,0,0,1,.44-.56c.5-.45,1-.83,1.68-.25a1.11,1.11,0,0,1,0,1.62c-.54.74-1.08,1.48-1.67,2.19a25.75,25.75,0,0,0-5.11,8.55,5.09,5.09,0,0,0-.13,2.35,2,2,0,0,0,2.66,1.66A10.44,10.44,0,0,0,1751,1769c1.46-3.45,2.19-7.09,3.22-10.64a12.14,12.14,0,0,0,.27-4c-.13-.24-.27-.13-.42-.08-.75.3-1.36.16-1.63-.66a1.52,1.52,0,0,1,1.18-1.8,3.44,3.44,0,0,1,2.2.36c.51-1.63,1.62-2.22,3.48-1.71a18.09,18.09,0,0,1,6.33,3.51,38.17,38.17,0,0,1,7.42,7.44,103.43,103.43,0,0,1,9.85,16.38c.09.18.2.35.31.55a6.77,6.77,0,0,0,1.36-3.66,14.6,14.6,0,0,1,.6-3.41.54.54,0,0,0,0-.35c-.85-2,.53-3.54.94-5.28a75.13,75.13,0,0,0,1.33-9.45c.16-1.58.1-3.19.18-4.78,0-.79-.21-1.21-1.08-1.16a27.23,27.23,0,0,1-4.51-.54,3.49,3.49,0,0,1-2.88-2.42c-.83-2.12-2.37-3.77-3.44-5.73a9,9,0,0,1-1.28-4.42c0-1.3-.39-2.58-.31-3.9a1.07,1.07,0,0,0-.19-.56c-1.45-2.24-1.53-5.83.71-7.38,3.3-2.27,4.86-5.89,7.71-8.46a34.39,34.39,0,0,1,10.5-6.71c1.11-.44,2.25-.84,3.32-1.34,2.08-1,4.23-.66,6.37-.63a1,1,0,0,1,.68.17c1.53,1.73,4.08,1.62,5.71,3.24,1.32,1.31,2.92,2.38,3.94,3.94a47.36,47.36,0,0,1,5.16,10.61c1.07,3.09,2.32,6.15,2.71,9.39.48,3.91,1.23,7.78,1.85,11.67.51,3.23.93,6.46,1.4,9.68.87,5.86,1.44,11.8,3,17.54.86,3.25,1.31,6.54,1.85,9.84.35,2.13,1.53,3.93,2.44,5.83,1.78.36,1.58,1.77,1.85,3.11a11.46,11.46,0,0,0,1.93,3.69,2.83,2.83,0,0,1,.44,1,1.15,1.15,0,0,1-2.18.68c-.14-.31-.1-.72-.51-1a4.08,4.08,0,0,0,0,2.32,75.42,75.42,0,0,1,2,11.17c.2,1.7.46,3.39.68,5.09.12,1,.5.7,1,.25,2.88-2.76,5.57-5.69,8.26-8.64,4.94-5.39,9-11.47,13.83-17,1.54-1.76,2.86-3.72,4.25-5.61.46-.61,1-1.15,1.75-1.07s.93.85,1.1,1.51a4.88,4.88,0,0,1-.21,3.18c-.4.93-.43,2-.79,2.88a.77.77,0,0,0,0,.47c1.29,3.26-.24,6.29-.87,9.35a105.73,105.73,0,0,1-4.71,15.44,79.25,79.25,0,0,1-4.17,10c-2.61,4.85-5.1,9.79-9,13.76a89.54,89.54,0,0,1-8.62,7.78,13.63,13.63,0,0,0-4.61,6.23,8.48,8.48,0,0,1-5.46,5.3c-.15.06-.34.17-.45.12-1.32-.57-1.39.53-1.63,1.27a130.56,130.56,0,0,1-6.16,15.55c-2.09,4.35-4.33,8.63-6.37,13-.39.86-1,1.57-1.39,2.48a.92.92,0,0,1-1.4.48,2.84,2.84,0,0,0-1.84-.12,23.24,23.24,0,0,1-12.14-1.93,57.24,57.24,0,0,1-8.37-4.87,5.13,5.13,0,0,1-1.48-1.7,1,1,0,0,1,.28-1.37,1,1,0,0,1,1.4.13,29.25,29.25,0,0,0,13.75,7.33,14.6,14.6,0,0,0,6.77.12c1-.24,1.17-.62.8-1.63a9,9,0,0,0-5.44-5.31,44.36,44.36,0,0,0-13.58-3,1.86,1.86,0,0,0-2.11,1.17c-.27.62-.76,1-1.44.61s-.71-1-.38-1.63a57.93,57.93,0,0,1,4-5.94,68.88,68.88,0,0,0,3.5-6.14c.54-1.06,1.16-2.08,1.73-3.13.13-.23.41-.46.23-.76s-.51-.07-.77-.07a38.79,38.79,0,0,0-5.66.91,7.62,7.62,0,0,1-.94.14c-.68,0-1.24-.21-1.32-.94s.41-1,1.09-1.15a60.87,60.87,0,0,1,8.13-1.4c1.31-.15,1.33-1.28,1.69-2.06,1.21-2.55,2.35-5.14,3.37-7.77a31.34,31.34,0,0,0,1.82-4.4,2.7,2.7,0,0,1,.56-1,1.05,1.05,0,0,1,1.31-.31,1,1,0,0,1,.57,1.2,10.07,10.07,0,0,1-.64,1.92c-1.7,3.78-3.35,7.58-5,11.36a.76.76,0,0,0,.1.86,1,1,0,0,1-.45,1.69,3.4,3.4,0,0,0-1.63,1.79c-2.27,4.11-4.23,8.39-7,12.21a6,6,0,0,0-.3.57,23.49,23.49,0,0,1,3.58.56,38.64,38.64,0,0,1,11.25,3.1,10.81,10.81,0,0,1,5.32,5c.18.34.4.67.68,1.15,1.59-3.16,3.1-6.19,4.62-9.21a155.69,155.69,0,0,0,8.52-21.67,19.17,19.17,0,0,0,1.08-6.46c0-.84.16-1.63,1.16-1.6s1,.85,1.06,1.6A22.68,22.68,0,0,1,1826.22,1858.16ZM1838,1844.8a80.18,80.18,0,0,0,8-7.66c3.14-3.58,5.13-7.86,7.39-12a54.93,54.93,0,0,0,3.36-8.31c.87-2.47,1.82-4.91,2.58-7.43.52-1.75,1.08-3.49,1.49-5.28s1.65-3.28.34-5.06a.74.74,0,0,1,0-.47,28.28,28.28,0,0,1,.47-3.43c.56-2.16,1-4.33,1.64-6.76a12.91,12.91,0,0,0-1,1c-.82,1.08-1.57,2.2-2.42,3.25-1.56,1.92-3.26,3.72-4.73,5.7a154.65,154.65,0,0,1-16.9,19.34,2.89,2.89,0,0,1-1.69,1.06c-.53,0-.54.25-.47.67.4,2.79.78,5.6,1.19,8.39.54,3.71,1.29,7.39,1.2,11.17A48.41,48.41,0,0,1,1838,1844.8Zm-56.66-117.41c-1.06-1.19-2.41-1.07-3.78-.78a3.13,3.13,0,0,0-2.44,2.88,1.08,1.08,0,0,0,.6,1.19,1.84,1.84,0,0,0,1.8.28c.62-.28.25-.77.26-1.15a8.47,8.47,0,0,1,.22-1.88c.31-1.13,1.25-1.55,2.18-.85A1.61,1.61,0,0,0,1781.31,1727.39Z" transform="translate(-1733.66 -1708.07)"/><path d="M1800.58,1723.45a5.44,5.44,0,0,1,4.35,1.6,5.84,5.84,0,0,1,1.74,3.68c.17,1.23-.73,2.06-2.11,2.28a3.83,3.83,0,0,1-1,.09c-2.24-.26-3.56,1.55-5.32,2.36-2.19,1-3.31.25-4.37-1.82-1.2-2.35-.53-4.22.74-6S1798.19,1723.37,1800.58,1723.45Zm-.37,2.19a13.12,13.12,0,0,0-1.67.14,3.34,3.34,0,0,0-2.74,2.37c-.24,1,.37,2.12.48,3.22,0,.41.59.4.87.12s1.35-.14,1.06-.93c-.21-.6-.27-1.23-.53-1.81-.43-1-.09-1.57.94-1.67a5.52,5.52,0,0,0,1.92-.6,1.83,1.83,0,0,1,2.81,1.46c.05.28-.16.7.3.79a.65.65,0,0,0,.54-.16.87.87,0,0,0-.12-.9A3.67,3.67,0,0,0,1800.21,1725.64Z" transform="translate(-1733.66 -1708.07)"/><path d="M1741.83,1786.7a8.41,8.41,0,0,1-6.11-3.09,10.83,10.83,0,0,1-1.87-2.76c-.29-.65-.29-1.18.37-1.54s1.15-.06,1.48.54a10.44,10.44,0,0,0,3.78,4.05,4.78,4.78,0,0,0,2.53.57c.88,0,2-.09,2,1.15s-1.18,1-2,1.08Z" transform="translate(-1733.66 -1708.07)"/><path d="M1770.71,1754.46c0,.66-.17,1.19-.85,1.32a.93.93,0,0,1-1.2-.71,26.35,26.35,0,0,0-4.18-8.4c-.42-.6-.6-1.21.08-1.67a1.21,1.21,0,0,1,1.77.44,33.61,33.61,0,0,1,4.13,8C1770.57,1753.81,1770.64,1754.17,1770.71,1754.46Z" transform="translate(-1733.66 -1708.07)"/></svg>