<svg id="Layer_1" data-name="Layer 1" xmlns="http://www.w3.org/2000/svg" viewBox="0 0 433.28 466.14"><title>dino_handing_docs</title><path d="M1545,1972.25a4.78,4.78,0,0,0-2.66-3c-2.95-1.74-2-3.15.29-4.16,3.16-1.38,3.56-3.18,2-6.14-1.15-2.19-1.28-4.6,1.17-6.34.45-.32.9-.46.56-1.38-2.56-6.91-1.95-13.88-.28-20.89,1.44-6,2.53-12.19,4-18.24,3.09-12.83,10.5-23.59,16.62-35,7.07-13.21,18.68-21.4,30.24-30a178.87,178.87,0,0,1,32.73-18.84c8.59-3.92,16.09-9.54,24.15-14.28.32-.18.54-.59.87-.7,6.67-2.2,5.25-7.58,4.4-12.24-1.95-10.8-4.54-21.48-6.54-32.27-4-21.49-4.31-43.25-3.34-65a145.48,145.48,0,0,1,15.22-59c3.86-7.71,9.26-14.57,14.89-21.09,10.4-12,23.23-21.19,36.87-29.17,4.27-2.5,9.07-4.17,13.75-5.88,9.09-3.31,17.33-8.29,25.87-12.67,5.54-2.83,11.62-3.94,17.59-5a111.23,111.23,0,0,1,23.08-1.83,49.92,49.92,0,0,1,22.9,6.15c7.75,4.26,15.71,8.13,23.42,12.47,7.91,4.46,14.15,11,20.37,17.49,5.68,5.93,9.69,13,13.76,20,5.54,9.5,7.88,20.16,9.58,30.92a86.17,86.17,0,0,1-4.23,43.15c-5,13.86-10.17,27.94-20.37,39.36-5.06,5.68-9.8,11.66-15.1,17.13-1.09,1.13-.82,2-.35,3.31,4.23,11.71,7.47,23.72,10.93,35.66a140.93,140.93,0,0,0,6.67,18.61c2.5,5.55,5.31,10.25,10.09,14.52,12.16,10.9,23.33,22.9,35.09,34.27,6.42,6.2,11.35,13.91,17.32,20.6a110.81,110.81,0,0,1,19.23,29.31c3.84,8.78,7,17.86,10.44,26.81,2.47,6.41,5.37,12.63,8.33,18.83,1,2.06,3.06,2.9,4.37,4.53.82,1,2.15,2.36.88,3.58s-2.2-.29-3.24-1.19c-7-6-8.9-14.87-12.37-22.77-4.46-10.16-8-20.72-12.46-30.88-5.09-11.53-12.79-21.4-21.31-30.59-2.64-2.85-4.61-6.16-7.22-9-10.9-12.05-22.68-23.2-34.44-34.38-2.34-2.23-4.39-4.77-6.6-7.14-.6-.63-1.24-1.59-2-1.69-5-.65-5.34-4.86-6.73-8.35-2.68-6.69-5.93-13.15-7.77-20.19-1.76-6.72-3.79-13.38-5.75-20.05-1.54-5.25-3-10.53-4.8-15.71-1-2.79-3.28-3.16-5.66-1.41a56,56,0,0,1-31.26,11.18c-10.72.44-21.49.55-32.17-.77a45.51,45.51,0,0,1-11.55-3c-9.58-3.92-18.87-8.19-26.94-15.14a110,110,0,0,1-21.17-25c-4.47-7.08-9.63-14.13-11.54-22.55-2.52-11.14-6.83-21.92-7.12-33.53,0-.62,0-1.25,0-1.87.06-1,.11-2.27,1.41-2.23s1.35,1.33,1.29,2.32c-.28,5.2.94,10.18,2.37,15.07,2.17,7.41,2.84,15.23,6.09,22.33,8.62,18.84,19.82,35.78,36.9,48.06,7.12,5.12,15.27,8.38,23.78,10.65,15.72,4.21,31.61,4.13,47.44,1.22,11.52-2.12,21.16-8.1,29-16.81,7.08-7.91,14.77-15.44,20-24.7,10.46-18.51,18.65-37.93,18.39-59.71a91.1,91.1,0,0,0-14.72-48.77,100.1,100.1,0,0,0-24.66-26.36c-6.59-4.93-14.43-7.84-21.51-12-1.29-.75-2.78-1.17-4-2-12.07-7.43-25.12-8.14-38.68-5.89-4.18.7-8.35,1.38-12.51,2.16-8,1.5-15,5.37-21.94,9.29-8.42,4.78-17.56,7.81-26.32,11.77-4.71,2.13-8.84,5.09-13.14,7.82a115,115,0,0,0-39.12,41.16c-5.74,10.17-9.13,21.48-11.84,33-4.34,18.47-4.52,37.13-4.05,55.83a232.29,232.29,0,0,0,4.85,39.69c2.24,11.22,5.86,22.24,5.57,33.9-.09,3.32.12,5.64-4.28,7.52-5,2.12-9.75,5.46-14.3,8.75a56.53,56.53,0,0,1-11.38,6.48c-19,7.94-35.58,19.67-51.19,32.83-5.78,4.88-9.54,11.48-13.24,18-3.49,6.17-7,12.36-10.32,18.6-2.69,5-4,10.53-5.36,16-1.7,6.62-2.73,13.42-4.27,20.09-.58,2.51-.21,5-.53,7.72a54.75,54.75,0,0,1,18.12-16,181.22,181.22,0,0,1,42-16.59c16-4,32.06-8.46,48.84-8.91,12.15-.33,21.5,5.43,30.38,12.59,1.65,1.33,3,3,4.56,4.45.16.15.44.17,1,.37a19.36,19.36,0,0,0-1.1-4c-4.22-7.82-6.5-16.53-10.93-24.22-2-3.43-3.76-6.72-3.55-10.77.06-1.07-.1-2.55,1.53-2.46,1.32.08,1.22,1.43,1.2,2.39-.13,4,2.54,7,4.06,10.32,4.6,10.1,9.12,20.24,13.14,30.58a7.91,7.91,0,0,0,2.35,3.29c7.91,6.64,13.59,15.25,20.35,22.9,3.3,3.74,6.38,7.74,10,11.12,5.62,5.21,9.87,11.61,15.34,16.9a189.24,189.24,0,0,0,16.79,14.84,24.37,24.37,0,0,1,2.47,2.3c1.75,1.76,3.15,3.83,2.23,6.34s-3.48,2.46-5.7,2.67a13.7,13.7,0,0,0-2.24.13c-1.83.48-4.17.4-2.15,3.63,1.7,2.73-.32,5.79-.58,8.71-.08.92-1.32,1-2.2,1-9.39-.39-17.74,3.74-26.18,6.71-12.56,4.41-25.19,4.76-38,3-8-1.14-15.91.16-23.82.54-11,.52-21.79,3.47-33,3.56a224.81,224.81,0,0,0-29.33,2.58c-10.82,1.5-21.76,2.18-32.65,3.23a18.81,18.81,0,0,0-2.18.46H1554c-2.81-.42-5.61-.91-8.43-1.24-1.92-.23-2.76-1.2-3.09-3.08-1.62-9.27-3.68-18.47-4.93-27.79-1.09-8.15-.3-16.36,1.25-24.45.11-.58.4-1.49.77-1.58a4,4,0,0,0,3.28-3.88c.12-1,1.25-1,2.16-1,.11,4.12-.27,8.32.42,12.34a229.13,229.13,0,0,1,2.81,36.42,4.93,4.93,0,0,0,2.43,4.66,22.25,22.25,0,0,0,9.35,3.43c5.24.65,10.38.2,15.6.07,12.71-.33,25.29-.9,37.93-2.86,13.5-2.1,27.13-3.35,40.51-6.33,5.76-1.28,11.55-2.36,17.33-3.53-8,.64-15.81,2-23.69,3-8.27,1.09-16.42,3.24-24.78,3.29-11.76.07-23.25,2.51-34.89,3.59-9.81.91-19.57,2.13-29.44,1.69-3.61-.16-6.13-2.43-6.32-5.61-.31-5.1-.32-10.22-.83-15.29-.92-9-1-18.19-3.27-27C1547.46,1977.39,1547.5,1974.25,1545,1972.25Zm.13-5.12a16.82,16.82,0,0,1,4.78,7.78c4.33,14.27,3.73,29.08,5,43.67.5,5.58,1.15,6.55,7,6.67,13.76.29,27.29-2,40.86-3.75,8.29-1,16.63-1.13,24.91-2.17,7.78-1,15.46-2.85,23.22-3.67,18.35-1.92,36.47-5.21,54.67-8s36-6.41,54.15-8.69c1.12-.14,2.38-.26,2.92-1.35.63-1.27-.68-2-1.26-2.89a7.88,7.88,0,0,0-1.57-1.59,272.22,272.22,0,0,1-25.72-24.9c-10.18-11.16-20.25-22.37-29.76-34.11-1.68-2.07-3.32-4.37-5.49-5.82-4-2.68-8.64-2.76-13.21-1.38a476.76,476.76,0,0,1-50.79,12.33c-16.54,3-33.24,5.18-49.45,9.91C1571.24,1953.26,1558.18,1959.64,1545.12,1967.13Zm145.22-44.6c-11.52-12.07-24.26-19.81-41.32-17.06-5.9,1-11.83,1.87-17.61,3.35-8.21,2.12-16.65,3-24.8,5.53a247.31,247.31,0,0,0-26.37,9.55c-10.32,4.56-21.1,8.78-27.94,18.6-1.87,2.69-5.68,5.22-2.22,9.41.75.91-.17,2-1.1,2.42-3.19,1.6-1.69,3.77-.56,5.6,1.38,2.22,2.95.28,4.14-.39,18.72-10.63,39.08-16.39,60.13-19.71,13.18-2.07,26.29-4.56,39.33-7.24C1664.66,1930,1677,1926.08,1690.34,1922.53Zm62.43,89.24c-3.84-.52-7.56.28-11.31.87-10,1.58-19.9,4.67-30.24,4.11-2.85-.16-5.69-.47-8.54-.74-14.42-1.38-28.1,3-42,5.54-7,1.27-13.87,2.91-20.81,4.38a13.94,13.94,0,0,0,2.24,0c6.87-1.09,13.72-2.27,20.63-3.17,4.75-.62,9.51.1,14.17-.67a40.15,40.15,0,0,1,13.35.08,70.25,70.25,0,0,0,24.92-.07,117.29,117.29,0,0,0,21.68-6.81C1742,2013.2,1747.42,2012.86,1752.77,2011.77Zm-63.12,1.45c7.67.13,14.88.3,22.1.61,13.27.57,25.91-4.41,39-5.56.84-.07,2.4-.1,2.14-1.5a4.07,4.07,0,0,0-2.64-3.35,5.08,5.08,0,0,0-2.23,0C1728.73,2006.65,1709.41,2009.9,1689.65,2013.22Zm-147.78-33a47,47,0,0,0-1.81,12.36c-.62,12.48,3.35,24.33,5.2,36.47.23,1.53,1,2,2.48,2.24,5.67.85,11.31,1.93,17.13,1.38-5.87-1-12.11-.55-17-5-1.4-1.26-2.4-2.35-2.37-4.32C1545.65,2008.91,1544,1994.58,1541.87,1980.19Z" transform="translate(-1537.05 -1569.11)"/><path d="M1747.66,1683.76c-5.54-.24-11.73.39-17.92-1.32-6.88-1.9-11.91-6.07-16.23-11.34a7,7,0,0,1,1-10c12.86-10.71,27.18-15.79,44-11.26,1.88.51,4,.31,5.94.41,4.35.24,8.74-.53,13,.47,7.14,1.65,10.92,9,7.65,15.61-5.42,11-14.59,16.6-26.71,17.42C1755.08,1684,1751.7,1683.76,1747.66,1683.76Zm-.94-32.65a44.92,44.92,0,0,0-13.54,2.61c-6,2.07-11.75,4.85-16.37,9.42-1.6,1.58-2.9,3.49-1.19,5.59,3.64,4.48,7.65,8.44,13.45,10.27,10.29,3.27,20.9,2.54,31.22,1.62,9.64-.86,17.54-6.24,22-15.4,2.47-5-.09-10.14-5.43-11.6-3.83-1-7.7-.39-11.54-.58-.74,0-1.69-.08-1.87.82s.7,1.52,1.52,1.86c2.07.87,4.14,1.73,6.24,2.53,4.29,1.62,4.8,4,1.2,6.9-2.54,2-4.87,4.28-7.18,6.55-6.2,6.08-17.74,7.94-25.49,4.14-6.78-3.33-8.32-11.22-3.3-16.76C1739.4,1655.83,1742.22,1652.45,1746.72,1651.11Z" transform="translate(-1537.05 -1569.11)"/><path d="M1851.39,1642.56c5.75.32,11.29.77,16.84.89,8.24.18,15,9.56,12.38,17.41-2,6-5.79,9.69-12,12.1-12.59,4.85-25.33,4.67-38.22,3.15-9.41-1.11-13.92-8.59-12.52-18.16.93-6.42,5.12-9.87,9.88-12.66,7-4.1,14.48-7.38,23-6.29,1.37.17,3.42-.64,3.77,1.38S1852.26,1641.13,1851.39,1642.56Zm-8.5,31.6c4.34.7,9,0,13.43-.89,8-1.55,16.58-2.71,20.77-11.61,3.05-6.47-2.12-15.49-9.28-15.33-5.38.13-10.65-1.16-16-.84a3.85,3.85,0,0,1-3.58-1.67c-1.57-2.35-3.54-2.27-5.88-1.44-6.08,2.18-12,4.53-17.19,8.62-4.6,3.6-4.74,8.24-4.44,13,.27,4.26,4.11,7.78,8.55,8.81A44.12,44.12,0,0,0,1842.89,1674.16Z" transform="translate(-1537.05 -1569.11)"/><path d="M1699.37,2000.16a15.3,15.3,0,0,1-9.6-1.83c-6.58-3.67-7.57-9.63-2.94-15.69a98,98,0,0,1,9.1-9.66c1-1,6.15-.42,6.41.83,1.29,6,6.24,9.7,9.07,14.74,2.26,4,2.32,5.4-1.24,8.42A12.83,12.83,0,0,1,1699.37,2000.16Zm-.31-2.8c3.56.72,6.65-.57,9.43-3,1.25-1.1,1.57-2.11.58-3.52-2.8-4-5.56-8-8.33-12-1.55-2.24-3.43-2.13-5.5-.79-3.45,2.23-5.66,5.7-7.73,9a5.26,5.26,0,0,0,2,7.51C1692.36,1996.3,1695.24,1998.12,1699.06,1997.36Z" transform="translate(-1537.05 -1569.11)"/><path d="M1652.88,2005.5c-3.13.14-6.31,0-9.07-1.55-5.13-2.94-6.28-14.12-2-18.26.26-.25.59-.65.87-.64,6.72.22,13.3-4,20.24.23,6.42,3.89,7.39,12.88,1.3,17.46C1660.81,2005.31,1656.93,2005.67,1652.88,2005.5Zm.12-2.76a15.11,15.11,0,0,0,6.62-.9c4.92-1.66,7.54-8.34,4.7-11.72-3.2-3.79-11.15-5-15.29-2.25-1.35.89-2.66,1.84-4,2.72-3.77,2.46-4.18,6.29-1,9.54C1646.5,2002.74,1649.83,2002.47,1653,2002.74Z" transform="translate(-1537.05 -1569.11)"/><path d="M1583.64,2012.25c-1.12,0-2.25,0-3.37,0s-2.63.23-2.7-1.27,1.46-1.42,2.55-1.45c1.87-.07,3.74,0,5.61-.07s4-.3,4.5-2.53-1.16-3.71-3-4.72c-3.71-2-8-1.53-12-2.62-2-.57-4.86.12-5.62-2.66-.83-3.08,1-5.23,2.88-7.63,5-6.57,12-6.19,19-6,1.67,0,2.69,1,2.26,2.65-.51,2-1.67.92-2.86.49-5.87-2.06-14.57,1.46-17.85,7-1.48,2.48.39,2.84,1.93,3.15,3.41.68,6.88,1.08,10.3,1.7a10,10,0,0,1,6.79,4.25c2.86,4.29.72,9-4.36,9.64a35.19,35.19,0,0,1-4.11,0Z" transform="translate(-1537.05 -1569.11)"/><path d="M1631.57,2001.71c1.12,10-10.06,15.56-19.2,11.9-2.08-.84-4.21-1.57-6.26-2.45-.86-.37-2.08-.77-1.58-2.1.45-1.16,1.61-1.18,2.57-.84,2.34.85,4.57,2,6.94,2.76,3.64,1.13,7.31,1.72,10.56-1.18,3.94-3.5,5.54-8.42,3.7-12.71a12.75,12.75,0,0,0-11.24-8,21.54,21.54,0,0,0-9.14,1.5c-.94.33-2,1-2.64-.16s.47-2,1.46-2.6c7.84-4.66,20-1,24,7.18C1631.78,1997,1631.37,1999.13,1631.57,2001.71Z" transform="translate(-1537.05 -1569.11)"/><path d="M1851.54,1646.49a22.47,22.47,0,0,1,13.94,4.87c2.26,1.87,2.64,3.67,1.78,6.17-1.94,5.58-9.07,13.21-19,13.47a28.42,28.42,0,0,1-10.65-1.43c-5.55-2-6.84-4.08-5.21-10.44C1834.69,1650.31,1840.5,1646.46,1851.54,1646.49Z" transform="translate(-1537.05 -1569.11)"/></svg>