<svg id="Layer_1" data-name="Layer 1" xmlns="http://www.w3.org/2000/svg" viewBox="0 0 377.72 305.52"><title>dinosaur_ninja</title><path d="M1993,1965c-4.48-10.09-9-20-12.31-30.74-3.69-12-7.57-24.32-15.11-35-3.57-5.06-4.55-11.54-6.34-17.58-3-10.19-4.76-21-10.83-30.17-6.55-10-10.68-21.24-17.42-31.19a204.85,204.85,0,0,0-16-20.22c-9.33-10.59-17-22.06-20.69-35.79-1.07-3.93-4.12-6.81-5-10.78-.25-1.1-1.14-1.44-2.29-.49-4,3.34-9.49,5-12.47,9.47a25.69,25.69,0,0,1-13.06,10.06c-10.62,3.88-18.54,12-28.12,17.5-6.77,3.91-13.27,7.5-21.36,6.26-9.13-1.4-16,2.58-22.14,8.81-1.18,1.2-2.3,3.95-4.76,1.72s-.86-4.22,1-5.84c1.46-1.3,3.15-2.35,4.73-3.5l-.93-1.17c-19.79,0-39.59-.31-59.36.25-4.3.12-8.29.93-12.83,0-5.93-1.17-12.28-.48-18.43-.2-3.53.16-6.51,2-9.14,4.48-1.9,1.77-3.59,5.12-6.93,2-3.07-2.83-.13-4.67,1.76-7.11-4.75-.53-9.06-1.28-13.39-1.44-12-.47-23.61-3-35-6.34-2.22-.65-3,.11-3.91,1.7-5.22,9-10,18-8.3,29.13,1,6.68-.13,13.55.94,20.38.86,5.46,3.47,8.9,8,11.59,3.54,2.09,7.45,3.58,10.49,6.61s7.46,3.48,11.08,3.78c9.59.8,19.85,2.27,28.79-.25,8.5-2.41,17.31.15,24.7-2.79,11.92-4.74,25.41-1.42,36.32-7.69,9.72-5.59,20.61-8.58,29.94-15.24,3.59-2.56,7.7-5.11,11.6-7.63a13.8,13.8,0,0,1,4.69-1.5c2.6-.53,4.24-1.59,3.9-4.63-.22-2,.77-4.06,2.78-4.07s2.74,2,2.84,4c.3,5.8.69,11.59,1,17.38.2,3.61-1,5.69-5,6.67-3.26.8-5.85,2.36-9.3,0-1.89-1.28-4.38,1-6.34,2a16.11,16.11,0,0,1-8.16,1.85c2.32.23,4.82.13,6.24,2.39,2.8,4.47,6.93,7.58,10.93,10.78,4.47,3.58,7.63,8.13,8.46,13.6,1,6.68,5,11.52,8.81,16.41,14.64,19.06,23,40.81,28.48,63.92.68,2.89,2.7,5.35,2.56,8.47h-5c-3.41-5.84-4.21-12.56-6.06-18.88-6.22-21.23-15-41-29.67-57.87a15.39,15.39,0,0,1-3.8-7.88c-1-6.11-3.17-11.89-9.09-15.27a6.15,6.15,0,0,1-2.21-2c-6.88-11.8-17.51-7.62-27.47-6.64-7.36.73-14,4.8-21.75,4-5.14-.55-10.07,1.69-15.13,2.45a98.45,98.45,0,0,1-15.3,1.47c-4.29,0-8.59-.49-12.48,2.3-1.18.84-3.2.64-4.84.65-8.16.06-16.33,0-24.49,0-8.51.05-16.34-1.63-23.07-7.38-2.59-2.21-6.27-3.16-8.87-5.36-5.38-4.54-9.9-9.86-9.91-17.49,0-11.79-.88-23.57.5-35.37.57-4.81,4.49-7.11,6.37-10.89,1.8-3.62,3.41-6.8,0-10.25-1.16-1.17-1.08-2.77-1-4.26.38-9.25-.76-18.49,1.77-27.75,2-7.11,2.28-14.69,3.22-22.07.67-5.28,2.46-6.67,7.58-5.59,2.24.47,12.09-3.74,13.25-5.71,4.2-7.21,11.29-11.39,17.56-16.34,1.79-1.41,3.6-2.85,5.35-4.33,6.19-5.22,12.7-9.89,20.63-12.2a8.16,8.16,0,0,0,3.42-2c10-10.15,23.14-12.54,36.44-14.83,10.89-1.87,22,.72,32.74-2,7-1.8,14.3-.87,21.19-2.14,20-3.68,40.1-.66,60.11-1.79,3-.17,5.77.79,6.75,3.28,1.61,4.13,5.17,7.18,5.79,11.87.68,5.16,4.15,8.15,9.18,7.78a25.74,25.74,0,0,1,14.63,3.37c2.36,1.29,3.84.58,4.91-1.36,3.61-6.51,11.23-8.42,15.85-14,1.88-2.25,6.51-1.9,9.32.11s5.73,3.22,9.22,3a4.2,4.2,0,0,1,4.1,2.35c1,1.79-.46,2.92-1.54,3.76-2.94,2.31-1.38,6.15-3.62,9-3.22,4.1-7.28,7.08-10.94,10.58-.71.68-1.76,1.27-2,2.1-.36,1.22-2.09,2.17-1.16,3.55.71,1,2.16.58,3.28.58,10.5,0,21,0,31.49,0,3,0,5.7.12,7.14,3.31a3.26,3.26,0,0,0,1.28,1.42c5.37,3.06,5.44,3.12.45,7.47-2,1.78-2.36,3.51.15,4.57,2.67,1.13,4.61,3.86,8.07,3.41a2.77,2.77,0,0,1,3.24,2.94c-.15,1.54-1.65,2.4-3.31,2.53l-1.5.06c-6,.37-8.2,2.72-8.35,9.06a22.18,22.18,0,0,1-.17,5c-.72,2.86-2.15,5-5,1.67-1.39-1.62-2.66-2.62-4.49-.79-3.15,3.18-4.06.45-5.22-1.9-.34,2-.72,4.48-3.36,4.11-2-.28-2.78-2.45-2.41-4.38,1-5.26-2.19-7.13-6.28-9-6.69-3-13.24-5.55-20.9-4.93-4.23.34-5.48,1.65-5.25,5.64s.41,8.14-2.59,11.83c-1.76,2.18-.21,5.36,1,7.54,2.49,4.37,4,9,5.7,13.71,5.08,14.37,14.5,25.9,24.52,37.06a132.94,132.94,0,0,1,21.78,33.67,94.55,94.55,0,0,0,5.93,10.88c6.54,10.41,8.79,22.31,11.78,33.94a64.33,64.33,0,0,0,8.93,19.83,39.56,39.56,0,0,1,5.18,10.68c3.12,10.45,8.47,20.12,10.22,31.11.74,4.64,5,8.17,6.23,12.93C1994.77,1960.88,1999,1965.48,1993,1965Zm-135.43-282.62c-1.1-3.21-2.52-6-3.25-9.05-1.28-5.39-5.46-8.21-11-7.93-18.17.91-36.42-1.92-54.59,1.74-6.69,1.35-13.74.17-20.65,2.06-10.65,2.92-21.85,0-32.7,2.11-10,1.93-20.12,3-29.13,8.68-4,2.5-6.92,6.67-11.21,8-7,2.14-13.09,5.92-18.71,10.21-3.44,2.62-6.55,5.84-9.89,8.71-2.53,2.17-6.66,2.45-7.89,6.39a10.22,10.22,0,0,0,6.47,0c9.42-3.68,19.37-4.24,29.23-4.49,7.67-.19,15.18-1.31,22.74-2.17,1-.12,2.06-.24,2.51-1.3,1.77-4.19,5.73-4.47,9.23-4.56,16.59-.42,33.17.15,49.76-1.89,9.32-1.15,18.71-1.19,27.79-4.21,8.39-2.79,17.53-3.24,25-8.9,3.22-2.44,7-4.77,11.18-1.1.46.41,1.63-.1,2.44,0C1849.37,1685.45,1853.08,1682.45,1857.57,1682.38Zm-66.15,75.25c9-2.36,10.22-3.86,10.23-11.3,0-2.34-.1-4.67,0-7,.18-3.51-1-5.63-4.83-6.18-11.6-1.66-23.23-.46-34.85-.68a2.32,2.32,0,0,0-2.34,1.59c-2.41,8.25-7.51,16-5,24.51,10.45.64,20.75,2.56,31-.25-1.55-3.45-4.68-4.31-6.79-3.72-3.16.88-5.39.29-5.85-2.45-.62-3.72-2.28-8.61,2.21-10.82,3.42-1.68,5.92-6.08,10.83-4.47.64.21,1.79-.7,2.52-1.3,1.32-1.1,2.1-3.36,4.41-2.16,2,1.07,2.29,3,2.31,5.16C1795.42,1744.94,1796,1751.39,1791.42,1757.63Zm-101-15.28c-5.31,0-10.64.2-16-.06a19.84,19.84,0,0,0-11.33,2.75c-2.3,1.34-3.73,7.91-2.05,9.87a2.67,2.67,0,0,0,1.78.67c7.28.35,13.84,5.24,21.52,2.86C1685.43,1747.42,1686.25,1745.16,1690.42,1742.35Zm13,24.3,0-1.33a225.58,225.58,0,0,1-28-.92c-1.56-.15-3.69-.45-3.88,2-.2,2.64,2.32,3.48,4,4.67,1.29.94,3.65,1.41,4.27-.58,1.31-4.21,4.47-3.79,7.61-3.8Zm31.38-10c2.57.8,3.46-2,5.1-1.73,7.8,1.26,9.29-3.35,9.58-9.55a10.64,10.64,0,0,1,1.52-4.18,13.78,13.78,0,0,0,1.7-8C1749.59,1743.28,1744.82,1751.93,1734.77,1756.7Zm105.76-16.83a16.73,16.73,0,0,0-.16,2.34c.37,5.59-1,10.12-5.72,14s-8.49,8.69-12.79,13.22C1834.4,1761.68,1844.87,1754.68,1840.53,1739.87Zm-90,47.71c5.18.44,9.88-.42,14.67,2.56,5,3.08,6.13-3,9-5.45A42.6,42.6,0,0,0,1750.49,1787.58Zm-29-74.52c-.48.63-.59.42-1.09.41a2,2,0,0,0-.49,0c-8.48,1.28-16.93,2.79-25.44,3.72-3.48.37-6.9.42-11.23,3.18C1696.56,1717.27,1709.53,1721.33,1721.54,1713.06Zm-21.14,32.3c-.39,5,1.39,10-3.26,13.79,6.68.84,8.72-1,9.5-7.67C1707.18,1746.79,1705.53,1744.52,1700.4,1745.36Z" transform="translate(-1618.58 -1659.51)"/></svg>