<svg id="Layer_1" data-name="Layer 1" xmlns="http://www.w3.org/2000/svg" viewBox="0 0 181.31 121.45"><title>dinosaur_imagining</title><path d="M1743.64,1733.24c2.33,2,3.66,4.7,5.12,7.31.26.47.37,1.17,1.16.52a18.84,18.84,0,0,1,9.66-3.83,9.52,9.52,0,0,1,10.11,5.86c.68,1.58,1.58,3.06,1.37,4.88,0,.16,0,.32,0,.48a1.49,1.49,0,0,1-.84,1.34.56.56,0,0,1-.76-.17c-.28-.48-.59-1.08-.29-1.58.64-1,.25-1.9-.18-2.82s-.78-1.67-1.12-2.52a3.21,3.21,0,0,0-1.15-1.49c-1-.71-2-1.44-3.07-2.1a4.49,4.49,0,0,0-3.43-.54,21.8,21.8,0,0,0-9.49,3.73,1,1,0,0,0-.39,1.47,9.26,9.26,0,0,1,.57,4.11c0,.54,0,1.13-.77,1.11s-.78-.53-.73-1c.29-3.18-1.46-5.64-2.88-8.21-.51-.91-1.06-1.79-1.55-2.7-1-1.76-2.62-2.74-4.2-3.81Z" transform="translate(-1695.93 -1733.24)"/><path d="M1727.56,1733.24a12.3,12.3,0,0,1-2.94,2A12,12,0,0,0,1720,1740c-.69,1.26-1.32,1.28-2.3.32a20.28,20.28,0,0,1-2.52-3.17c-1.19-1.75-1.59-1.87-3.59-1.28-.84.24-1.71.42-2.52.74-2.63,1-3.9,3.33-5,5.69-1.3,2.79-2.35,5.68-2.12,8.86,0,.43-.08.82-.62.84a.75.75,0,0,1-.83-.71,9.07,9.07,0,0,1-.07-2.38,23.12,23.12,0,0,1,4.59-11.16c2.22-2.72,5.36-3.69,8.78-3.57,1.7,0,2.27,1.71,3.19,2.83a6.37,6.37,0,0,1,.35.63c1,1.52,1.27,1.52,2.3,0a16.47,16.47,0,0,1,5.27-4.44Z" transform="translate(-1695.93 -1733.24)"/><path d="M1720.31,1758.57q1.92-6,3.82-12.06c.11-.35.26-.59.64-.57s.62.29.68.69c.36,2.32.81,4.63,1.07,7,.22,2,.83,3.91.79,5.92,0,.49.28.89.82.82s.34-.56.34-.87c0-1.44,0-2.88,0-4.32,0-.85-.09-1.76,1.19-1.78,1.61,0,2.07.34,2.08,1.72,0,1.75,0,3.51,0,5.27,0,.4-.06.88.47,1s.52-.4.69-.69a3.49,3.49,0,0,0,.36-1.86c0-.63.12-1.29.85-1.38,1.76-.22,2.64-1.68,3.87-2.64.73-.56,1.39-1.19,2.08-1.8.35-.3.78-.42,1,0,1,1.53,2.9,2,4,3.47.07.09.2.12.29.2,1.15,1,1.7,1.28,3,1.09,1-.14,1.35.5,1.72,1.13s.59.48,1,.06c1.7-1.57,3.4-3.13,5.18-4.59,1.16-1,1.44-.7,2.53.32a19.07,19.07,0,0,0,3.37,2.26c2.1,1.28,4.31,2.41,5.8,4.48.19.25.44.16.66.13a18.4,18.4,0,0,1,3,.24c.4,0,.73.16.76.61s-.32.68-.76.72c-1.11.12-2.22-.18-3.33,0-.82.14-1.66.17-2.5.25-.15,0-.4,0-.45.1-.66,1.21-1.35.95-2.09.07a.82.82,0,0,0-.8-.15,12,12,0,0,1-3.1.16c-.82,0-1.19.29-1.12,1.14a15.22,15.22,0,0,1,0,1.91c0,.52,0,1.15-.75,1.16s-.72-.6-.73-1.13c0-.72,0-1.44,0-2.16s-.28-1.14-1.11-1.12c-1.72,0-3.43,0-5.19,0,.28.2.91.12.91.45,0,1.83,1.67,1.86,2.68,2.59.54.38,1,.76.86,1.55a1.43,1.43,0,0,1-1.35,1.26,34,34,0,0,1-6.69,0,2.37,2.37,0,0,0-1.06,0,9.78,9.78,0,0,1-2.54.3c-2.52.34-4.89-1-7.44-.22-1.59.48-3.41-.11-5.11.28a1.07,1.07,0,0,1-.9-.27,1.66,1.66,0,0,0-1.57-.29c-.74.19-1.52.26-2-.57a.71.71,0,0,0-.75-.27c-1.74.19-3.61.19-5.1,1.06-.79.46-1.64.71-2.43,1.13-.44.23-.86.16-1-.29-.19-.7-.52-.8-1.13-.55a2,2,0,0,1-1.18-.1c-.42-.08-1-.24-1.25.11-.56.83-1,.56-1.83.37-1.24-.27-1.23-.91-1.18-1.76a76.35,76.35,0,0,0-.5-9.07c-.12-1.88.08-2.14,1.89-1.85s2.21.65,2.33,2.52a40.29,40.29,0,0,0,.17,4.79c0,.32-.14.82.45.78a.73.73,0,0,0,.67-.74c0-.76,0-1.52,0-2.28,0-.36,0-.76.27-1,1.85-1.4.87-3.25.65-4.87-.13-.9-.14-1.44.67-1.83.21-.11.46-.13.56-.39.21-.55.53-.93,1.17-.65s1.47.46,1.4,1.52,0,2.31,0,3.47Zm46,3a55.28,55.28,0,0,0-7.58-5.1c-.19.48,0,.62.23.73a12.12,12.12,0,0,1,3.69,3.33A3.08,3.08,0,0,0,1766.33,1761.61Zm-24.49-6a2.21,2.21,0,0,0,.23,1.88,18.66,18.66,0,0,0,2.26,2.9c.19.23.67.75.77.36s1-.92.51-1.51A23.71,23.71,0,0,0,1741.84,1755.57Zm9,6.13c1.08,0,1.09,0,1.47-1.13a2.86,2.86,0,0,1,1.22-1.41,11.47,11.47,0,0,1,3.12-1.72.8.8,0,0,0,.61-1c0-.23.09-.56-.2-.62s-.63.27-.87.51C1754.37,1758.15,1752.16,1759.5,1750.81,1761.7Z" transform="translate(-1695.93 -1733.24)"/><path d="M1750.06,1812.11c.52-.28,1-.62,1.55-.23.34.23.57-.1.83-.27,1.66-1,3.35-2,5-3.08,2.49-1.64,5.36-1.44,8.11-1.63,3.5-.25,7,0,10.54-.29a2.35,2.35,0,0,1,2.13.89,11.57,11.57,0,0,1,2.33,4.93c.49,3.19-.9,4.72-4.15,5.13a13.77,13.77,0,0,0-7,2.59c-.6.47-1.2.94-1.8,1.39-3,2.3-6.52,2.6-10.13,2.36a11.37,11.37,0,0,1-5.73-1.47c-1.35-.92-2.77-1.73-4.1-2.67-.37-.25-.63-.43-.78.12-1.2,4.4-3,8.7-2.31,13.43.06.38,0,.89.64,1,.54,0,.55.62.64,1a14.8,14.8,0,0,0,2.48,5.91c.66.89.4,2.24,1.49,2.93.27.16.45.5.73.61a4.36,4.36,0,0,1,2.14,2.36,6.47,6.47,0,0,0,4.42,3,23.78,23.78,0,0,0,7.7.8,37,37,0,0,1,6.8-.39c3.42.35,6.73-.25,10.08-.7a19.66,19.66,0,0,1,3.6,0c4.42.27,8.61-.81,12.79-2.1a33.11,33.11,0,0,0,6.39-2.3,34.83,34.83,0,0,0,11.08-9c.67-.89,1.65-1.58,2-2.7a.63.63,0,0,1,.44-.36c1.27-.09,2.54-.17,3.82-.2.35,0,.56.28.55.66a.84.84,0,0,1-.93.88,5.72,5.72,0,0,0-3.12,1c-1,.55-1.38,1.51-2.06,2.27a35.69,35.69,0,0,1-13.84,10,67.92,67.92,0,0,1-9.88,2.78,19.93,19.93,0,0,1-4.73.56c-.66,0-.73.24-.49.81a7.6,7.6,0,0,0,.72,1.23c.28.39.38.85-.07,1.17a.78.78,0,0,1-1.22-.3,21.22,21.22,0,0,1-1.08-2,1.39,1.39,0,0,0-1.49-.92,26.34,26.34,0,0,0-5,.45,23.33,23.33,0,0,1-6.68.29c-3.36-.22-6.7.48-10,.28-2.85-.17-5.79-.11-8.32-1.79a7.37,7.37,0,0,1-1.45-1,58.91,58.91,0,0,1-4.24-4.6,29.84,29.84,0,0,1-3.45-6.75,5.87,5.87,0,0,0-1.2-2.25c-.84-.88-.77-2.3-.9-3.52-.31-2.84.46-5.54,1.16-8.25a73,73,0,0,1,2.5-8,83.44,83.44,0,0,1,6.92-13.5,110.59,110.59,0,0,1,6.3-9.19,57.31,57.31,0,0,1,9.79-9.65c8-6.49,17.14-10.75,26.91-13.78a36.7,36.7,0,0,1,9.09-1.32h.6c.48,0,.94.11,1,.68s-.46.66-.93.67c-1.76.06-3.48.4-5.22.61-3.77.45-7.23,1.9-10.75,3.19-5.85,2.14-11.16,5.31-16.42,8.58a58.32,58.32,0,0,0-7.2,5.93c-5,4.38-8.52,10-12.09,15.55C1752.85,1806.52,1751.65,1809.39,1750.06,1812.11Zm21-4a38.3,38.3,0,0,0-9.76.67c-4.07.8-7.31,3.41-10.37,6.12-.33.29-.56.74-1.07.68-1.1-.13-1.13.83-1.46,1.44a1.22,1.22,0,0,0,.44,1.6c1.43,1,2.9,1.95,4.42,2.82a10.68,10.68,0,0,0,4.64.93c3.08.24,6-.1,8.63-2,2.23-1.67,4.41-3.44,7.3-3.87,1-.15,2-.36,2.93-.58a2.69,2.69,0,0,0,1.93-4.15c-.41-.82-.86-1.62-1.2-2.47a1.79,1.79,0,0,0-1.88-1.17Z" transform="translate(-1695.93 -1733.24)"/><path d="M1804.18,1764.89a6.35,6.35,0,0,1,3.8-1.12,89.73,89.73,0,0,1,9.54.65,93.07,93.07,0,0,1,16.78,4.38,129.32,129.32,0,0,1,19.65,8.49,57.42,57.42,0,0,1,13.94,10.83c4.95,5.22,7.36,11.53,8.56,18.49,1.26,7.32.66,14.67.59,22,0,3.25-.77,6.48-1.17,9.72-.25,2.06-.54,4.11-.82,6.16-.42,3-1.36,5.9-1.79,8.91-.09.6-.37,1.26-1.17,1s-.44-.87-.32-1.46c.77-4,1.84-8,2.29-12.08.43-3.92,1.06-7.83,1.4-11.75a101.63,101.63,0,0,0,0-19.5,43.18,43.18,0,0,0-4-14.09,27.91,27.91,0,0,0-5.05-6.8,55.87,55.87,0,0,0-17.74-12.42,154.16,154.16,0,0,0-21.78-8.33,63.88,63.88,0,0,0-13.85-2.53Z" transform="translate(-1695.93 -1733.24)"/><path d="M1722.05,1788.2c.55-.1,1.08-.09,1.24.58s.62.75,1.17.78a65.47,65.47,0,0,0,9.07-.58,41.24,41.24,0,0,0,6.12-1.06,15.84,15.84,0,0,0,5.65-2.76c.55-.39.49-.7.15-1.16a5.17,5.17,0,0,0-2-1.94,3.34,3.34,0,0,1-1.76-3.06c-.06-1,0-2.08,0-3.12,0-2.37,1-3.31,3.19-4.21,1.75-.71,3.52-1.4,5.29-1s2.76-.21,4.15-.82a8.67,8.67,0,0,1,6.76.11c1.71.69,2.86,3.13,2.49,5.14a1.19,1.19,0,0,0,.76,1.58,3,3,0,0,1,1.28,4c-.17.34-.38.72-.72.75-1,.08-1.15.75-1.23,1.57a3.37,3.37,0,0,1-3.33,2.55,14.46,14.46,0,0,0-3.38.89,32.56,32.56,0,0,1-6.62,1,1.52,1.52,0,0,1-1.38-.84,1.52,1.52,0,0,0-1.93-.77,2.84,2.84,0,0,0-1.67,1.44,1.06,1.06,0,0,0,.44,1.27,8.36,8.36,0,0,0,4.45,1.91,5.32,5.32,0,0,0,4.32-1.93c.41-.45.8-1.12,1.43-.55s.08,1.11-.3,1.57a7.05,7.05,0,0,1-8.31,1.73c-1.35-.64-2.8-1.26-3.47-2.78-.2-.45-.46-.36-.76-.21-3.11,1.55-6.51,1.69-9.86,2.17a60.81,60.81,0,0,1-8.84.44c-2.3,0-2.63-.38-2.37-2.71Zm21.11-11c-.07,1.26-.22,2.77.93,3.42a9.44,9.44,0,0,1,3,3c.43.57,1,1.09,1.83.67.6-.28.93,0,1.09.68.27,1.15.74,1.37,1.79.86a3.6,3.6,0,0,1,1.73-.37c.72,0,1.44,0,2.16,0s.91-.48,1.12-1-.27-.7-.59-.9c-.61-.37-.86-1-1.38-1.49a3.19,3.19,0,0,1-1-3.79,3.6,3.6,0,0,1,3.29-2.4,1.41,1.41,0,0,0,1.47-1,2.74,2.74,0,0,1,1.85-1.58c.42-.14,1.06.07,1.09-.65a1.34,1.34,0,0,0-1-1.25c-2.95-1.34-6-1-8.24,1.83-.61.78-1.24.75-1.56-.19s-.77-.93-1.52-1c-1.4-.12-2.51.68-3.76.92a2.67,2.67,0,0,0-2.12,1.8A6,6,0,0,0,1743.16,1777.2Zm18.72-.66c.41-1-.35-1.43-1-1.56s-1,.61-1.06,1.2c0,1-.57,1.12-1.34,1.06a3.22,3.22,0,0,0-2.81,1c-.64.72-.63,1.3-.18,2.3.78,1.73,3,1.65,3.62,3.42,0,.08.29.1.44.12a2.26,2.26,0,0,0,2.7-2.12c.07-.93.36-1.6,1.39-1.79.77-.14.88-.69.62-1.36a1.5,1.5,0,0,0-1.27-.94C1762.28,1777.75,1761.69,1777.45,1761.88,1776.54Z" transform="translate(-1695.93 -1733.24)"/><path d="M1798.79,1801.32a14.81,14.81,0,0,1,1.75-8.1,13.29,13.29,0,0,1,2.41-3,13.7,13.7,0,0,1,14-4.18c5.72,1.46,10,5.33,10.07,12.05a11.56,11.56,0,0,1-1,5.71,5.21,5.21,0,0,1-3.8,3c-4.53.91-9.07,1.8-13.56,2.86-2.4.56-4.74,1.41-7.15,1.95a2.34,2.34,0,0,1-.59.09c-.51,0-1.12,0-1.19-.68s.46-.74,1-.83c3.1-.56,6-1.75,9.12-2.38l11.82-2.4a3.94,3.94,0,0,0,3-2.39,10.52,10.52,0,0,0-1.54-11.38,11.47,11.47,0,0,0-8.47-4.4,13.37,13.37,0,0,0-14.12,10.15,19.25,19.25,0,0,0,.83,11.14c.15.42.21.83-.27,1s-1,.21-1.24-.36a8.33,8.33,0,0,1-.61-1.93A23.26,23.26,0,0,1,1798.79,1801.32Z" transform="translate(-1695.93 -1733.24)"/><path d="M1722,1788.21c-1.11,1.14-2.16,2.33-3.3,3.45a6.61,6.61,0,0,1-5.8,1.87c-2.57-.33-5.13-.64-7.35-2.25a13.86,13.86,0,0,1-4.32-5.44,19.09,19.09,0,0,1-1-2.41,5.84,5.84,0,0,0-1.82-2.85c-1.61-1.35-2-3.39-2.15-5.31a79.43,79.43,0,0,1,.07-15c.2-1.74.65-3.47,2.25-4.58.45-.32,1-.81,1.46-.23s-.07,1.06-.48,1.38a5.48,5.48,0,0,0-1.83,4,63.19,63.19,0,0,0,0,14.22A8.76,8.76,0,0,0,1699,1779c.15.23.3.65.58.49,1.2-.73,1.23.09,1.54.92.24.66,1.08.71,1.76.78s1.35-.14,1.27.81-.73.73-1.35.6c-.91-.2-1.28.07-.86,1,1.33,3.09,2.88,6,6.24,7.35a12.76,12.76,0,0,0,7.14,1c2-.38,3.25-2,4.46-3.45,1-1.18,2.17-2.13,3.07-3.37a.7.7,0,0,1,1.14-.1.8.8,0,0,1,0,1.19c-.61.68-1.25,1.34-1.88,2Z" transform="translate(-1695.93 -1733.24)"/><path d="M1810.56,1804.59c-1.31,0-2.74.28-3.72-1a2.57,2.57,0,0,1-.63-1.51,11,11,0,0,0-.22-2.62,1.8,1.8,0,0,1,0-.83c.25-1.07,2.83-3,3.92-2.72a21.6,21.6,0,0,0,3.93.18,2.37,2.37,0,0,1,2.57,2.61,6.33,6.33,0,0,1-1.12,4C1814.11,1804.39,1812.46,1804.74,1810.56,1804.59Z" transform="translate(-1695.93 -1733.24)"/><path d="M1789.05,1748.71c.37,1.68-1.08,2.68-1.83,4a.59.59,0,0,1-.75.2.67.67,0,0,1-.42-.66,2.06,2.06,0,0,1,.5-1.32c1.53-2.29,1.25-4.42-.86-6.2-1-.87-2.12-1.68-3.11-2.62-1.19-1.13-2.62-.55-3.83-.16-2.3.72-4.71,1.32-6.38,3.31a.73.73,0,0,1-1.08.13.78.78,0,0,1,0-1.18,7.76,7.76,0,0,1,2.29-1.9,19.11,19.11,0,0,1,6.66-2.17,3.87,3.87,0,0,1,3.53,1c1.23,1.36,3,2.11,4.06,3.67A6,6,0,0,1,1789.05,1748.71Z" transform="translate(-1695.93 -1733.24)"/><path d="M1794,1759.61a11.2,11.2,0,0,0-.51-3.3c-.36-1-.68-2-1.93-2.15a.56.56,0,0,1-.36-.93,1.11,1.11,0,0,1,1.57-.41,4.15,4.15,0,0,1,1.91,2.08c1.11,3.74,1.41,7.46-.69,11a4.79,4.79,0,0,1-2,1.86.72.72,0,0,1-1-.22.77.77,0,0,1,.23-1.07C1793.64,1764.78,1794,1762.25,1794,1759.61Z" transform="translate(-1695.93 -1733.24)"/><path d="M1760.89,1815.59c-.33-1.36.57-2.24,1.08-3.25a9.67,9.67,0,0,0,1.09-2.24c.06-.29.2-.63.48-.63.82,0,1.38-.57,2.1-.75,1.66-.43,2.93.12,3.28,1.86.45,2.26.6,4.64-.84,6.66-.87,1.21-1.95,2.37-3.76,1.73-.38-.13-.57.19-.82.37-.93.67-1.42.49-1.69-.59S1760.38,1816.83,1760.89,1815.59Z" transform="translate(-1695.93 -1733.24)"/></svg>