<svg id="Layer_1" data-name="Layer 1" xmlns="http://www.w3.org/2000/svg" viewBox="0 0 309.65 370.57"><title>dinosaur_holding_rubber_duck</title><path d="M1761.42,1776.45a21.43,21.43,0,0,0-11.43,4c-4.25,3-9.32,4.45-13.11,8.44-6.11,6.44-12.05,12.46-14.1,21.82s-5.93,18.44-5.12,28.44c.27,3.28.45,6.38,2.23,9.26,4,6.57,7.66,13.72,15,17.08,5.14,2.34,10.18,5.16,16,6,4.49.63,8.68,2.87,14.21,2.71-4.07-3.38-3.7-7.42-3.62-11.4,0-1.75.11-3.37-1.89-4.45-3.65-2-4.53-5.48-2.39-9a4.72,4.72,0,0,0,.54-4.94c-1.22-3.17.75-6.24,3.47-8.33,1.46-1.12,2.76-2.11,2.53-4.2-.44-4.07,2.3-5.08,5.5-5.55,1-.15,2,0,3-.22a1.57,1.57,0,0,0,1.43-1.49c0-.73-.61-1.09-1.17-1.31-6.94-2.73-13.88-5.46-21.51-5.52-1.16,0-3,.45-3.11-1.18-.1-2,1.94-1.62,3.15-1.52,6.3.51,12.72.52,18.42,4,1.84,1.12,3.63,2.08,4.31-1.7.61-3.35,3.31-5.78,6.51-7.32l3.72-1.75c1.56-.73,4-1,4.29-2.61.34-2-2.53-1.25-3.61-2.41-2.21-2.35-3.34-5.24-4.36-8.18-.66-1.88-1-3.84-1.64-5.75-1.22-3.95,1.24-7.25,4.82-5.56,6.73,3.18,11.19-1.46,16-3.91a44.07,44.07,0,0,1,18-5.28c3.93-.2,7,2.09,9.8,4.76,9.53,8.92,9.91,18.62.87,28-3.07,3.17-3,3.16,1.19,4.86,7.21,2.91,12.06,8.65,16.83,14.42,1,1.18,1.46,2.79,3.27.86a2.88,2.88,0,0,1,2.49-.36c6.32,2.14,12-.87,18-1.9,5.81-1,11.71-.37,17.57-.32.78,0,1.57.46,1.52,1.33-.06,1.13-1.08,1.26-2,1.27-3.5,0-7,0-10.5,0-1.25,0-2.51,0-3.75,0-1.65.12-4.29,1.31-4,1.91,1,2.2-1,5.36,2.5,6.82,4.15,1.74,4.85,7.91,1.07,10.32-3.49,2.23-3.45,4.91-2.87,8.32s2.28,7.69-3.45,8.91c-.45.1-1,.88-1.07,1.42a58.83,58.83,0,0,1-3.79,12.49c-.64,1.36.25,1.69,1.48,1.74,8.74.41,17.45-.5,26.16-1,1.45-.08,2.85-1.44,4.24-2.26,3.73-2.21,7.29-4.65,11.53-6,3.08-1,3.94-4.12,5.64-6.54,2.68-3.78,5.44-7.43,7-11.85a9.13,9.13,0,0,0,.9-2.83c-.15-8.6.51-17.19-.48-25.81-1.28-11.1-4.75-21.52-8.26-32-1.76-5.29-5.57-8.38-9.3-11.78-6.85-6.25-15.5-8.76-24.18-10.92-2.93-.73-6.2-.17-9.32-.06-1.08,0-2.44.84-2.66-.87-.16-1.3,1-2,2.24-2,3.61-.06,7.43-.71,10.81.2,5.36,1.44,10.93,2.35,15.87,5.3,8.59,5.13,17.14,10.18,20.05,20.77a15.51,15.51,0,0,0,1.26,2.39,32.87,32.87,0,0,0,3.27-14.73c.19-9.24.06-18.49.06-27.74a71,71,0,0,1,1.57-13.71c.31-1.62.4-3.76,2.73-3.93s3.1,1.8,3.52,3.35c2.6,9.74,8,18.24,12.1,27.29q6.87,15.11,12.25,30.74c2.48,7.19,3.45,15,4.36,22.64,1.48,12.45.5,24.94.69,37.42a25.88,25.88,0,0,1-3.78,13.45,28,28,0,0,0-2.42,6.63c-2.28,8.35-7.12,15.29-12.66,21.62a84.79,84.79,0,0,1-9.54,9.4c-6.47,5.4-12.62,11.2-15.85,19.39-1,2.45-.47,4.93-.94,7.37-1.52,7.89-4.87,15-8.11,22.32-2.62,5.91-6.86,8.64-12.81,10a62.68,62.68,0,0,0-17.57,6.65c-4.13,2.4-9.07,3.41-13.89,4.14-1.06.16-1.84.18-2.42,1.22-5.64,10-14.84,10.5-24.7,9.16-6.42-.86-12.43-3.31-18.66-4.91a8.75,8.75,0,0,1-5.28-3.36c-2.94-4.33-6.84-7.91-9.51-12.46-1.58-2.7-1.47-5.54-1.28-8.37.23-3.25-1.35-3.8-4.07-3.59-2.9.22-5.25,2-8.15,2.48-7.14,1.23-13.89.06-20.54-2.2-2.91-1-5.9-.94-8.84-1.4-6.13-1-12.27-2.29-18.43-2.46-6.57-.18-13.19.43-19.78.76-3.36.18-6.17,3-9.7,3.65-7.63,1.42-14.91,4.29-22.82,4.89-4.68.36-9.3,2.47-13.7,4.52-1,.47-2,1.1-3.19.84a1.86,1.86,0,0,1-1.69-1.74c0-.91.67-1.18,1.42-1.44a169.48,169.48,0,0,1,25.88-6.58c6.5-1.11,13.44-2.47,19.51-5.81,1-.54,1.88-1.28,3.08-1.24,11.76.37,23.45-1.54,35.34,1,8.22,1.74,16.53,3.38,24.85,4.8a19,19,0,0,0,12-1.89,6.69,6.69,0,0,1,4-.91c3.65.51,5.33-.69,4.91-4.67-.34-3.28,1.71-5.91,3.37-8.52.77-1.2,1-1.92,0-3.24-2.67-3.55-.68-6.83,1-10,1.47-2.73,4-2,6.34-2,.58,0,1.49.14,1.72.52,1.28,2.23,2.76,2.28,4.91,1.12,1.73-.94,3.48-1.27,3.93-3.83.51-2.85,3.15-3.59,5.78-3.84s4.16,1.2,5.23,3.41c1.55,3.18,4,3.82,7,1.91,5.64-3.62,9.55-1.63,9.87,5.1a5.68,5.68,0,0,0,1.72,4c5.59,5.75,8.65,13.07,12.14,20.09,1,2,.36,4.45.4,6.68.09,5.1-.74,10.12-1.49,15.5,5.11-1.69,10.1-2.82,14.89-5.55a45.73,45.73,0,0,1,15.45-5.29,13.46,13.46,0,0,0,11-8.34c3.3-7.25,6.7-14.39,8.14-22.32.44-2.45,0-4.92,1-7.38,3.12-8.37,9.25-14.36,15.76-19.9a81.81,81.81,0,0,0,17.5-20.06c3.14-5.17,4.33-11.12,6.86-16.4,7.3-15.26,3.37-31.06,3.56-46.67.09-7.3-2.29-14.22-3.53-21.29-1.1-6.29-3.75-12.4-6.33-18.32-4.11-9.45-7.85-19.09-12.76-28.18a75.46,75.46,0,0,1-6.41-15.9,43.91,43.91,0,0,0-2,13.23c-.2,9.12-.08,18.25-.06,27.37a40.68,40.68,0,0,1-3.85,18.47c-1.6,3.24.13,6.41,1.07,9.39,2.16,6.83,2.84,13.89,3.41,20.91.52,6.33.08,12.74.12,19.11s-2.69,11.37-6.19,16.39c-3.1,4.45-6.73,8.51-8,14.29-1,4.62-4.17,8.71-5.85,13.24-1.6,4.32-4.42,7.65-7.34,11-.76.87-1.83,2.35-3.07,1.26-1.56-1.37.14-2.46,1-3.37,4.23-4.51,6.75-10.06,9-15.64,1-2.44,2.89-4.39,3.42-7,.15-.71.79-1.43.23-2.11-.74-.93-1.62-.21-2.4.05-3.46,1.18-5.89,4.07-9.21,5.55a9.27,9.27,0,0,1-3.82,1.32c-7.73.07-15.42,1.23-23.17.75-4.13-.26-8.2.38-12.29.72-1.5.12-3.39.18-3.82-1.6-1.42-5.93-6-10.26-7.8-16-.89-2.81-.28-5.65-1.32-9.17-3,5.28-8.67,5.64-12.6,8.86a10.62,10.62,0,0,1-6.25,2.22c-13,.48-25.64-.7-37.29-7.1-2.06-1.13-2.88-.54-3.34,1.53a30.61,30.61,0,0,1-1.13,3.56c-3.21,9.36-8.87,13.16-18.6,11.63-10.42-1.64-20.52-4.56-29.79-9.82-4.24-2.4-7.19-6-9.76-10.07-2-3.18-2.37-3-4.43-.06-5.52,7.89-5.38,17.39-7.68,26.19-1.75,6.7-2,6.86-8.84,7.48-9.89.89-19.9,1.43-28.94,6.33a21.37,21.37,0,0,1-3.89,1.38c-7,2.15-8.86,6.24-6.72,13.41,4.15,14,6.49,28.16,5.53,42.78-.41,6.26-1.54,7.45-6.43,7.29-2.18-.07-3.08-1-4-3.07-5.57-12.5-5.36-25.68-5.09-38.9,0-2.08.3-4.38-3.16-4.52.68,1.66,1.3,3.1,1.86,4.57.33.86.41,1.82-.45,2.37s-1.56-.2-2.17-.86a7.53,7.53,0,0,1-.76-9.51c.59-.85.84-1.48.27-2.31-1.15-1.7-.82-3.61-.82-5.46,0-4.53,1.83-5.94,6.06-4.46,1.19.42,1.48.39,1.7-.71.69-3.29,3.1-4.41,5.89-3.59,5.75,1.68,10.63-.85,15.37-3,5.87-2.67,12-3.06,18.17-3.82,3.21-.4,6.42-.75,9.62-1.16,2.14-.27,3-1.32,3.26-3.68,1.08-10.61,3.92-20.87,9.43-30,1.75-2.9,1.62-4.43.16-6.71a5.28,5.28,0,0,1-.66-2.88c-.13-8.24-.71-16.61,1-24.64,1.93-9.11,5.35-17.81,11.44-25.24,7.62-9.31,17.37-15.48,28.38-19.83,2.16-.85,4.87-2.06,6.13,1.54C1761.78,1776.1,1761.6,1776.28,1761.42,1776.45Zm48.56,11.26c3.65,2.85,4.68,6.18,4.68,10.38s-3.08,6.12-5.05,8.81c-2.79,3.8-5.93,4.68-10.17,2.54-4.39-2.21-8.11-1.91-12.15.69-3.21,2.08-7.11,3.1-9.56,6.35-2.21,2.93-2,4.51,1.42,5.71,3.08,1.09,4,2.93,3.94,6.17-.24,8,0,16-.13,24,0,2.53.59,4.08,3,5.31,10.84,5.56,22.37,7.35,34.37,6.75a11,11,0,0,0,6.85-2.68c1.43-1.29,3.23-1.77,4.86-2.62,4.12-2.15,8.61-4.5,9.33-9.66.91-6.52,1-13.14,2.13-19.65a3.57,3.57,0,0,0-1.32-3c-5.3-5.78-10.55-11.62-18.67-13.61-2.89-.71-3.33-3-.94-4.81,3.75-2.92,6.08-6.84,8.42-10.83a6.72,6.72,0,0,0,.17-6.78c-1.84-3.67-3.84-7.21-7-10.06-3.37-3-6.9-3.81-11.14-2.29C1815.42,1784.14,1814.91,1785.94,1810,1787.71Zm-11.78,165.67c-.58,5.58-.5,10.46,3,14.43a98.08,98.08,0,0,1,7,8.73,6,6,0,0,0,3.3,2.37c9.67,2.59,19.07,6.62,29.43,5.59a7.75,7.75,0,0,0,3.57-.9c4.24-2.65,7.72-6.08,9.3-10.85,3.33-10.09,2.84-19.65-2.69-29.29-5.7-9.93-13.73-15.39-24.63-18-5-1.19-8.75,1.19-12.89,2.31-3.35.9-7.88,2.76-9,5.42C1801.71,1939.81,1795.54,1945.68,1798.2,1953.38Zm45.45-96.72a27,27,0,0,0,1.38,8.41c1.34,4.41,4.69,7.6,6.23,11.84,1.43,3.92,3.91,4.08,6.47.61a12.09,12.09,0,0,0,1.6-3c4.09-11,4.8-22.61,6.23-34,.77-6.1-3.69-9.38-9.82-8.34-2.11.36-4.27.9-6.3.48-2.93-.6-3.79.76-4,3.18C1844.82,1842.77,1844.24,1849.72,1843.65,1856.66Zm-63.42-14.23c0-5.61,0-9.48,0-13.35,0-1.07.3-2.38-1.13-2.86-1.19-.41-2.06.3-3,.92-4.86,3-6.8,8.15-8.92,12.95-3.9,8.83-3,18.31-2.62,27.61.16,3.52,4.2,5.84,7.36,5,2.61-.74,3.61-2.94,4.32-5.23C1778.91,1858.72,1781.55,1850,1780.23,1842.43Zm-124.52,63.34a29.15,29.15,0,0,0-1.73,10.36c.11,6.86,0,13.73,0,20.6,0,6.19,2.35,11.89,4,17.69.48,1.64.56,5.06,3.57,4.3,2.59-.65,2.18-3.65,2.29-5.75C1664.79,1936.8,1661.55,1921.32,1655.71,1905.77Zm132.5-104.55c-1-2.24-2.23-4.43-3.13-6.74a4.5,4.5,0,0,1,.46-4.63,2.75,2.75,0,0,1,3.38-.92c4.32,2.25,8.67,4.62,10.88,9.27,1.37,2.91.24,4.43-3,4.55-1.51,0-3,0-4.54,0a53.53,53.53,0,0,0,9,4.26c1.92.77,3.7.68,5.09-1s3-3.69,4.38-5.59a5.62,5.62,0,0,0,.42-6.37c-2.11-3.45-4.85-6.17-9.44-6.32-6.2-.2-12.47.94-18.6-.91-1.57-.47-1.71.61-1.43,1.72C1782.88,1793.24,1784.28,1797.86,1788.21,1801.22Z" transform="translate(-1645.2 -1616.93)"/><path d="M1761.94,1775.92c4.65-4.17,7.16-9.79,10.21-15,2.23-3.84,3.74-8,6.33-11.74,3-4.36,3-10.15,5.33-15.05,4.15-8.9,4.3-19.11,8.81-27.95a4.76,4.76,0,0,0,.08-4.37c-.91-1.52-2.16.3-3.29.32-10.16.24-20.83,1.72-28.63-6.84a24.13,24.13,0,0,1-6.74-15.46,168.17,168.17,0,0,1,1.61-27.15c.74-5.61,1.57-11.15,2.68-16.7,1.4-7,5.25-12.28,10.07-17.14a3.41,3.41,0,0,1,2.32-1c13.81-.64,27.59-1.73,41.42.46,6.65,1,13,3.12,19.59,4.3a15.12,15.12,0,0,1,9.72,6.5c3.74,5.26,8.16,10.15,9.7,16.71a3.77,3.77,0,0,0,1,2c3.71,3.08,4.41,7.48,4.95,11.78a181.11,181.11,0,0,1,1.58,18.59c.3,14,.36,28,1.09,41.9.74,14.21,1.25,28.39,1.18,42.6,0,1.54,1,4.35-1.38,4.3-2.19,0-1.27-2.84-1.3-4.43-.1-6.75.34-13.52-.12-20.24-1.05-15.44-1.42-30.87-1.57-46.34-.11-11.43-1.23-22.86-2.21-34.27-.38-4.41-.94-9-4.79-12.21a6,6,0,0,1-1.46-3c-1.81-6.58-6.44-11.43-10.23-16.8-2-2.77-5-3.58-8-4.46-15.54-4.61-31.43-6-47.6-5.43-12.53.47-18.37,5.12-21.13,17.55-.48,2.17-1.12,4.31-1.6,6.49-.75,3.31.7,4.06,3.39,4.74,5.43,1.36,11.11,1.48,16.41,3.46,3,1.12,7.64.07,7.32,5.47-.21,3.53-5.11,7-9.68,7.35a31.75,31.75,0,0,1-17.08-3c-2.63-1.35-3.1,0-3.12,2,0,5.5-.71,11.12.19,16.47,1,6.14,3.68,12.11,9.23,15.67a25.66,25.66,0,0,0,9.73,3.38c10.78,1.63,20-2,28-9.19a38.19,38.19,0,0,1,7.12-4.74c4.42-2.47,8-6,11.71-9.28,3-2.62,3.81-6.64,5.25-10.2.53-1.32.19-2.6-1.81-2-4.65,1.36-9.44.5-14.14.93-4.32.39-7.73-1.17-10.95-3.73a11.27,11.27,0,0,0-4.07-2.56,3.3,3.3,0,0,1-2.34-3.82c.28-2.18,2.07-1,3.29-1.12,8.54-.93,17-2.36,25.42-4,5.12-1,6-.51,7,4.77,1.71,8.85.77,17.33-5.68,24.08-4.73,5-10.56,8.68-16.36,12.39-3.83,2.43-7,5.84-11.15,7.9a2.69,2.69,0,0,0-1,1.9c-.89,9.21-5,17.59-6.87,26.6-1.28,6.19-3.88,12.32-6.41,18.24-4.91,11.48-10.27,22.79-18.51,32.4-.7.81-1.57,1.9-2.85,1.21s-.53-1.73-.24-2.66A6.38,6.38,0,0,0,1761.94,1775.92Zm52.11-121.59c2.13.82,4.14,1.76,6.47,1.75,1.82,0,3.16.91,2.6,3.1-.24,1-.29,1.83,1,1.93a4.12,4.12,0,0,0,3.48-1.87c1.58-2-.11-4.06-.42-6-.22-1.39-1.66-.93-2.81-.7C1820.82,1653.2,1817.29,1653.76,1814.05,1654.33Z" transform="translate(-1645.2 -1616.93)"/><path d="M1797.53,1829.11c0-1.87,0-3.74,0-5.61,0-.92.28-1.91,1.34-1.93s1.32,1,1.33,1.9c0,2.87.11,5.74,0,8.6s1.48,4.38,3.5,5.75a1.8,1.8,0,0,0,2.12.06c.77-.56.46-1.33.09-2a7.9,7.9,0,0,1-.94-4.69c.1-1,.11-2.18,1.49-2.13,1.14,0,1,1.15,1.25,2,1.41,6.08,5.09,9.6,9.84,9.42.83,0,1.88.32,2.38-.63s-.32-1.65-.81-2.32a9.35,9.35,0,0,1-2.05-3.93c-.14-.87-.14-1.84.85-2.25,1.15-.48,1.52.42,1.85,1.26,1.28,3.29,4.15,5.24,6.5,7.61a5.87,5.87,0,0,0,5.87,1.54c.89-.23,1.85-.39,2.15.75s-.57,1.88-1.61,2.07c-1.72.32-3.61.61-5.16-.18-3.14-1.59-6.33-1.4-9.68-1.18-5.37.36-10.31-2.14-15.56-2.9-4.37-.64-5.21-5.14-4.85-9.33,0-.62,0-1.25,0-1.87Z" transform="translate(-1645.2 -1616.93)"/><path d="M1823.12,1798.26c-4.81,0-6.13-1.16-6.13-5.41,0-2.32-.08-4.75,3.25-4.74,4.39,0,7.67,2.11,7.73,4.82C1828.05,1796.86,1826.78,1798.25,1823.12,1798.26Z" transform="translate(-1645.2 -1616.93)"/></svg>