<svg id="Layer_1" data-name="Layer 1" xmlns="http://www.w3.org/2000/svg" viewBox="0 0 491.62 350.52"><defs><style>.cls-1{fill:#0f0f0f;}</style></defs><title>dino_winning</title><path class="cls-1" d="M-598,1806.83a80.35,80.35,0,0,1,19.84-10c1-.35,1.82-.39,2.22.59.5,1.26-.82,1.29-1.47,1.7a13,13,0,0,1-2,.8c6.37,1.86,11.22,6.15,17.07,8.5a9.75,9.75,0,0,1,2.66,2c.7.63.48,1.35-.14,1.94s-1.11,1.54-2.09,1.39-1.08-.85-.76-1.71-.24-1.22-.78-1.5q-7-3.67-14-7.29c-.51-.26-1.47-.65-1.64-.46-3.19,3.6-2.18-.76-2.65-1.34-5.7.78-9.63,4.87-14.77,6.28-.53.15-.89.07-.79.76,1.08,7.86-3.55,12.16-9.64,15.62-4.43,2.51-8.77,2.71-12.8-.62-2-1.63-3.91-1.75-6.36-1.51a75.89,75.89,0,0,0-16.47,3.72c-1.15.38-2.12.51-2.12,2,0,8.42-1.7,16.68-2.23,25a18.15,18.15,0,0,0,.13,2.17c8.52-2.82,16.16-7.18,24.26-10.4,9.51-3.78,18.61-8.52,28.19-12a159.7,159.7,0,0,0,28.11-13.81c.91-.54,1.71-.62,2.26.26.67,1-.33,1.68-1,2.06-4.7,2.64-9.31,5.5-14.21,7.7-10.18,4.59-20.53,8.78-30.79,13.18-9,3.85-18.1,7.21-26.73,11.85-2.72,1.46-6.07,1.82-8.69,3.77,1.59,3.29,3.1,6.55,4.73,9.76,1.35,2.63,3.24,3.62,6,1.75,9.63-6.52,20.16-11.51,30.77-16,16.73-7,31.52-17.6,48-25.08,1.67-.76.61-1.75.16-2.27-2-2.33-4.08-4.59-6.29-6.72a8.33,8.33,0,0,1-1.54-2.48,1.24,1.24,0,0,1,.57-1.61,1,1,0,0,1,1.57.47c2.15,3.85,6.28,6,8.41,9.85,1.15,2.07,1.08,3.68-1.31,4.82a240.27,240.27,0,0,0-26.9,14.52c-4.48,2.88-9.41,4.82-14.37,7.22,4.2,4.42,9.66,5.69,15,6.82,5.92,1.27,11,4.47,16.67,6.26,1.17.37,2.22,1.13,3.39,1.51,9.86,3.19,19.3,7.76,29.69,9.27l10.6,1.57c-2.19-9.4-3.32-18.73-1.25-28,.8-3.58,3.13-6.94,5.28-10,3.59-5.2,6.69-10.82,10.35-15.78,4.62-6.28,4.08-12.19,2.87-18.62-1.12-6-.84-12.09-1.29-18.13A243.08,243.08,0,0,0-510,1749.1c-2.15-9.2-4.37-18.46-5-27.95-.55-8.41-2.6-16.5-4.55-24.65-1.63-6.84-1.17-13.93-.36-20.81,1.61-13.63,10.23-22.82,20.52-31a85.17,85.17,0,0,1,13.86-9.12c5.09-2.61,11-3.66,16.81-4.1,2.36-.18,4.77.2,7.12-.07,9.07-1,14.71,3.92,19.24,10.82,4.14,6.33,8.69,12.45,10.87,19.85,2.08,7.07,5.78,13.58,7.11,20.91,1.21,6.67-3.17,10.93-6.67,15.44-4.45,5.73-10.87,8.92-17.24,12-2,.94-2.46,2-2.18,3.84.58,3.78.68,7.73,1.88,11.31,3.43,10.21,6.37,20.58,11.5,30.25,3.32,6.27,4.39,13.61,6.73,20.41,1.65,4.8,3.81,9.36,5.65,14.06,2.43,6.18,5.36,12.17,7.95,18.29.88,2.06,2,2.86,4.41,3,18.1,1,31.34-7.64,42-21.19,2-2.55,3.09-5.83,4.55-8.8,1.31-2.65.4-4.75-1.93-6.22a10.24,10.24,0,0,1-3.21-3.55c-1.49-2.44-1.73-5.17,1-6.91,3.33-2.14,7.32-3.15,11-1.74,5.85,2.23,11.2,5.46,13.41,11.94.71,2.06,1.92,2.68,4.13,2.73,4.53.09,9.23-1.1,13.55,1.39,3.09,1.78,6,3.43,6.95,7.43a108.75,108.75,0,0,0,4,12.61c1.31,3.56.83,6.54-2,9.1-7.29,6.55-14.52,13.1-23.13,18a67.59,67.59,0,0,0-16.32,13.37c-4.85,5.32-11.2,8.66-18.12,11,1.94,3,5.06,4.33,7.59,6.26,5.53,4.22,10.78,8.75,15.91,13.44,2.92,2.67,5.59,2.93,8.43.16a56.12,56.12,0,0,1,16.83-11.33c2.35-1,2.05-2.08,1.34-3.74-1.68-3.9-1.95-7.64,1-11.17,2.22-2.66,5.1-2.88,7.71-.57s3.5,5.61,5,8.84c1.51-1.91.88-3.95.77-5.74-.21-3.63,2.64-3.93,4.84-4.53,2-.57,3.94-.3,4.92,2.5.91,2.59.68,5.14.92,7.89,2.58.41,4.61-1.5,7.05-1.55,4.4-.09,5.42,1,5.68,5.33.32,5.56-.31,10.73-4.75,14.63-1.73,1.52-.11,2.69.39,3.53,6,10.17,6.32,21.59,7.33,32.86.26,2.88-1.06,4.85-2.9,6.91-7.31,8.14-16.56,13.6-25.76,19.14-5,3-9.46,6.74-14.19,10.11-6.61,4.73-13.27,9.48-21,12.41-2.76,1.05-6.07,2-7.83,4.08-5.48,6.49-13.21,7.29-20.53,8.92-10.06,2.24-20.18,4.33-30.6,4.49-5,.08-9.71,2.4-14.49,3.86a84.53,84.53,0,0,1-18.73,3.68,146.3,146.3,0,0,1-18.23.57,118.21,118.21,0,0,1-36.37-7.21c-8.93-3.4-13.38-10.63-14.35-19.9-.39-3.64-1.69-4.8-5.45-5.23A148.14,148.14,0,0,1-547,1943c-10-3.36-19.28-8-28.63-12.46-8.75-4.16-16.26-10.75-22.54-18.29-6-7.17-12.08-14.26-16.56-22.54-3.17-5.84-4.57-12.32-6.77-18.51-.68-1.91-1.19-3.88-1.85-6-3.74,2.22-7.19,4.42-10.79,6.34-3.77,2-7.06.85-8.93-3-1.47-3-2.82-6-4.15-9.11-.68-1.57-3.51-1.52-2.83-4.16,1.3-5,1.41-10.24,1.92-15.39.35-3.67,1.37-7.29,1.12-11a5.07,5.07,0,0,0-.15-1.85c-1.24-2.38-1.32-2.58,1.42-3,3.89-.66,4.86-1.91,4.27-6.38-1-7.91-1.59-16.39,3.86-23.24,3-3.71,6.83-6.71,10.51-9.76a23.43,23.43,0,0,1,7.74-4.36c2.58-.84,4.72-3,7.49-3.23,3.8-.35,2-4.25,4.22-6.07,2.92-2.43,5.77-5.07,8.91-7.2,6.54-4.44,13.63-8.13,20-12.82,10.15-7.49,11.46-18.94,6.36-29.48-3.23-6.69-7.8-12.5-12-18.6-5-7.3-9.72-15.13-10.17-24.88-4.12,6.64-10.26,10.34-16.07,14.19-8,5.3-17.16,8.25-26,11.78a303.61,303.61,0,0,1-61.48,16.94,93.26,93.26,0,0,1-32-.48c-1-.18-2-.64-2.77.26s.27,1.59.46,2.37c1.52,6.28,4.72,11.89,7.27,17.76.76,1.75,1.54,3.5,3.36,4.25,2.61,1.07,1.07,3.56,2,5.18,3.89,6.62,5.44,14.25,9.07,21,1.62,3,4.59,4.15,7.16,5.75a31.66,31.66,0,0,0,17.37,4.58c5.22,0,10.37,1.18,15.63.78,8.52-.64,17-1.59,25.6-1.52a23.46,23.46,0,0,1,10.64,2.89c.75.38,1.94.66,1.51,1.73s-1.52,1-2.49.5c-6.32-3.32-12.91-2.94-19.82-2.23-13.47,1.39-27,1.47-40.43-.84-4.86-.84-9.3-3.47-13.31-6.51a15.07,15.07,0,0,0-1.54-.86c-.5,2.12-.55,4.23-1.65,5.94-.59.91-1.37,1.89-2.72,1.63-1.6-.31-1.23-1.62-1.28-2.69-.31-6.7-1.32-7-7.72-6.47-8.35.72-16.24,3.9-24.86,3.4-7.39-.43-13-3.07-16.83-9.09-2-3.06-1.18-6.89-.63-10.21,1.36-8.15,6.95-13.12,14-16.6a6.71,6.71,0,0,1,2.92-.33c7.08.14,14.19-.63,21.56,1.15-1.57-5.76-4.72-10.36-6.48-15.62-3.7,4.77-7.67,8.36-14.12,7.8-4-.34-6.13-2-6.06-6.08,0-2.27-1-2.24-2.64-2.25-4.29,0-8.64.72-12.48-2.46-3.5-2.89-4.29-8.69-1.16-12.11,1.82-2,3.61-4,5.8-6.4-2.76,0-5.08.16-7.38,0-4.23-.37-6.11-3.83-4.3-7.61,3.59-7.51,13.65-11,21.69-8.32a23.6,23.6,0,0,1,15.4,14.36c1,2.36,2.2,4.6,3.34,7,5.31-3.6,9.29-8.49,14.77-11.68,11.2-6.51,22.49-12.7,34.72-17.19,7.1-2.61,14.28-5.09,21.42-7.57,5.49-1.91,11.56-2.54,17.35-3.73,5.35-1.1,10.69-2.81,16-4.4,7.52-2.26,14.94-1.64,22.41-.28,3.83.7,7.31,2.59,11.73,4.44-2.28-4.48-2.38-8.51-2.24-12.6.43-12.41,12.51-23.46,26.62-19.15,5,1.53,6.28,5.44,3.22,9.64-.88,1.2-2,2.21-2.82,3.46s-3,.72-3.7,2.5c2.65,1,5.25,2.14,7.89,3.13a8.41,8.41,0,0,1,4.3,4c2.21,3.8,2,5.56-1.5,8-2.58,1.82-4.93,4.08-8.31,5.08,1.15,2,3.76,3.2,2.83,6.15,5.94-3.64,11.86-5.66,18.54-3.68,5.46,1.61,13.06,11.43,10.45,18.51-1.38,3.75-5.29,6.49-7.64,10a75.75,75.75,0,0,0-10.82,24.77c-.87,3.61,1.31,5.66,4.1,7.08s2.06,2.88.3,4.51c-3.36,3.08-7.46,2.49-11.46-1.76-2.89,8-8.58,13-15.79,17.35-8,4.82-16.75,9-22.93,16.53a1.82,1.82,0,0,0-.59,1.84c2.75.56,5.05-1.4,7.7-1.66,3-.29,6-1.37,9.14-1.14.79.06,1.54.28,1.63,1.18s-.74.77-1.2,1.12c-4.18,3.23-9.11,5.92-12.22,10-3.39,4.44-3.27,10.2-.21,15.35C-600.92,1802.38-599.46,1804.54-598,1806.83Zm250,67.76c1.17,1.36,1.78,2,2.26,2.64a29,29,0,0,1,5.5,16.22c0,.85.13,2-1.12,2-.89,0-1.07-.82-1.17-1.63-.2-1.7-.42-3.41-.76-5.1a24.93,24.93,0,0,0-8.66-14.68c-8.23-6.79-16.36-13.69-24.8-20.23-2.61-2-4.41-2.19-6.94-.83a4.17,4.17,0,0,1-1.74.55c-1.6,0-4,2.12-4.59,0s2.31-1.87,3.77-2.28c12.26-3.39,23.31-8.57,31.81-18.61,2.9-3.42,7-6,10.95-8.29A111,111,0,0,0-320.27,1806c1.68-1.72,1.92-3.3,1.28-5.68-1.26-4.66-3.56-8.93-4.66-13.59a6.25,6.25,0,0,0-2.13-3.28c-4.59-4.43-10.35-3.52-15.88-3.4-3.27.07-5.21-.8-6.31-4.26-1.91-6-7.11-8.85-12.59-10.63-2.87-.93-6.85-.29-8.47,2.28-1.77,2.8,1.38,5.1,3.5,6.56,3.94,2.73,3.39,5.89,1.72,9.41-5.66,11.93-14.5,20.5-26.42,26.32-10.31,5-21.14,4.33-31.87,3.79-4.59-.23-8.74-.6-12.7,2-.91.6-2,1-2.61-.11s.61-1.81,1.42-2.2a22.25,22.25,0,0,1,9.52-2.56c2.72-.05,5.26,1.56,8.07.61-1.91-6.85-5.77-12.83-8.21-19.41-1.73-4.64-4.27-9-5.79-13.69-3-9.38-5.6-18.88-9.74-27.9-5.18-11.3-9.32-23-10.53-35.51-.25-2.53-1.29-2.69-2.93-2a72.54,72.54,0,0,1-15.62,4.13c-10.33,1.8-21-3.73-23.76-14-1.55-5.69-3.56-11.27-5.46-16.86-.32-1-1.82-1.85,0-2.6,1.51-.62,2,.8,2.32,1.78,1.45,4.32,3.2,8.59,4.06,13,2.28,11.72,12.67,18.56,23.52,16,5.06-1.17,10-2.67,14.95-4a47.25,47.25,0,0,0,23.31-13.83c5-5.5,7.3-11.57,4.09-19-2.19-5.07-3.88-10.37-5.88-15.53-.76-2-1.13-4.18-2.95-6,.17,8.24.14,8.15-8,10.24-2.59.67-5.17,1.65-6.45,4.49a3.62,3.62,0,0,1-4,2.12,4.53,4.53,0,0,1-3.85-3.16c-1.79-6.39,3.73-16.75,10.94-17.2,4.09-.25,7.57,1.16,11.2,3.1-4.09-6.08-6.39-13.21-12.34-17.79-1.71-1.32-3.22-2.85-5.67-3.3a52.16,52.16,0,0,0-26,2.06c-6.28,2-11.42,6.1-16.61,10-10.11,7.68-18.3,16.65-19.92,29.9-.76,6.19-1.54,12.75.14,18.6,3,10.51,4,21.23,5.59,31.92a196.58,196.58,0,0,0,4.2,21.68,178.91,178.91,0,0,1,5.36,33.8c.42,6.18,1,12.37,1.06,18.61,0,3.43.17,7.19,1.75,10.46,1.78,3.7,1.5,5.61-1.58,8.2a6.75,6.75,0,0,0-1.48,2.1,142,142,0,0,1-12,19.2,26.07,26.07,0,0,0-5.07,10.92c-1.14,6.86-.16,13.5.66,20.24.53,4.46,2.74,5.5,7,5.44,7-.11,13.85-.25,20.46-2.88,1.3-.51,3.59-1,4,.64.55,2.22-1.8,1.07-2.85,1.45-.81.29-1.65.5-2.45.81-9.13,3.53-18.73,2.64-28,1.87a93.73,93.73,0,0,1-31.78-7.92c-4.49-2.07-9.32-3.37-13.93-5.22s-8.68-4.31-13.46-5.33-9.42-2-13.58-4.68c-2.55-1.67-5.18-3.2-8.58-1.42-4.42,2.33-9,4.35-13.61,6.33-3.9,1.67-6.6,3.63-3.46,8.19.18.26,0,.76.1,1.1,2,6,3.41,12.19,6.43,17.83,4.38,8.2,10.48,15.15,16.32,22.26s13,13.51,21.29,17.48c9.23,4.42,18.42,9.05,28.24,12.43,12,4.11,24.19,5.65,36.58,7.11,3.69.44,7.49-.57,11.05,1,.77.33,1.86.63,1.31,1.81-.36.79-1.3.75-2,.47-2.9-1.2-5.87-.41-8.75-.54.18,1.22.37,2.31.5,3.4,1,8.79,5.05,15.71,13.51,18.75a124.21,124.21,0,0,0,39.56,7c4.37.1,8.66-.77,13-.74a50,50,0,0,0,17-3.13,82.82,82.82,0,0,1,24.85-5.11c7.59-.26,14.84-2.28,22.15-3.89,7.1-1.55,14.44-2.37,19.9-8.65,1.79-2,5.68-3.31,8.81-4.48,7.76-2.9,14.44-7.68,21-12.55,4.36-3.26,8.65-6.61,13.29-9.44,8.91-5.44,17.84-10.8,25-18.58a7.79,7.79,0,0,0,2.44-6,115.93,115.93,0,0,0-2.74-20.13c-1.29-6-3.32-12-8.89-15.74-1.06-.71-1-1.82-1.19-3a36.93,36.93,0,0,0-3.54-12.35c-.84-1.63-2-2.53-3.83-2-6.29,1.79-12.58,3.69-18.09,7.31-4.66,3.06-10.5,4.1-14.07,9.21A8.89,8.89,0,0,1-348,1874.59Zm-363.65-155.34c3.93-.35,8.43.44,12.9-.46,21-4.26,41.8-9.17,61.71-17.22,8.46-3.43,17.19-6.33,25-11.27a86.91,86.91,0,0,0,12.39-9.52c4.14-3.83,3.91-7.37-.42-9.32a52.19,52.19,0,0,0-9.63-3.65,45.12,45.12,0,0,0-19.17-.48c-6.58,1.35-12.93,3.77-19.46,5.45-5.49,1.42-11.24,2-16.59,3.78-9.39,3.16-18.84,6.19-28,10.1-14.49,6.2-28.29,13.46-39.94,24.28-2.7,2.51-2.23,4.94,1.15,6.31C-725.4,1719.82-718.75,1719.12-711.65,1719.25Zm-54.51-16.52h5.61a1.59,1.59,0,0,1,1.58.81c.44,1-.42,1.17-1,1.61a42.2,42.2,0,0,0-8,7c-3.17,3.84-2.84,7.49,1.21,10.17,3.57,2.36,7.75,2.07,11.16,1,4-1.33,3.82.31,3.67,3-.12,2.1-.47,4.54,2.1,5.34,3.83,1.2,7.26,0,10.38-2.46,2.87-2.3,4.42-5.57,3.41-8.71-1.87-5.8-3.31-11.72-5.78-17.42a20.85,20.85,0,0,0-26.92-10.75c-2.53,1.07-6.42,6.21-5.61,8.42,1.21,3.27,4.39,1.59,6.73,2A9.37,9.37,0,0,0-766.16,1702.73Zm187.19-63c-9.75-.42-15.8,6.16-18.11,14.12-1.33,4.59-1.57,10.1,2,14.6,1,1.2,2,2.59.79,4.39-.36.56-.63,2.24.55,1.88,2.34-.73,3.34,1.17,5,1.79,3.73,1.43,6.85,4.62,11.4,3.73,1.32-.25,3.09-.19,3.51-1.31s-.92-2-2.07-2.74c-2.74-1.66-2.34-3.18.49-4.19,3.08-1.1,5.55-3.18,8.28-4.86,2.3-1.41,2-2.89,1-5-1.78-3.43-5.22-3.9-8.29-5-1.83-.68-4.17-.79-4.23-3.39-.06-2.22,1.8-2.8,3.49-3.77,2.32-1.33,4.82-3.46,4.42-6.31-.48-3.39-3.7-3.86-6.67-3.94Zm-163.2,103.45c-3.1.57-6.59-.75-10,.88a20.7,20.7,0,0,0-11.72,14.32,12.76,12.76,0,0,0,9.48,15.56,38.91,38.91,0,0,0,18-.21c5.61-1.38,11.21-2.69,17-2.86,1,0,2.54,1.29,2.89-.26s-1.58-1.6-2.61-2c-7.52-3-15.09-3.79-23-1.13-3.23,1.09-7,1.67-9.47-1.89-2.09-3-1.73-6,.42-8.93,3.82-5.27,15-7.7,20.94-4.54a58,58,0,0,0,6.45,2.86c1.34.52,2.65.4,2.31-1.58-.78-4.53-5.2-8.4-9.78-9.5C-734.73,1743.06-738.3,1743.48-742.17,1743.22Zm180.08-18.61c4-9.86,7.62-19.42,15.09-26.85a8.17,8.17,0,0,0,2.76-7.31c-1.53-10.63-14.7-16-23.57-9.76A50.16,50.16,0,0,0-579.95,1692c-1.87,2.58-3.5,5.61-2,9.24.39.94.7.91,1.44,1s1.57.34,1.63-.75c.29-5.12,3.86-4.87,7.51-4.82,1.66,0,3.16.68,4.73.76,7.76.37,8.29,5.94,6.74,11.61C-561.2,1714-562.73,1718.92-562.09,1724.61Zm-76.3,96.57c2.23-1.12,4.62-.58,6.94-.7,4.22-.2,5.66-2.08,4.43-5.83-.64-1.93-1.06-3.89.16-5.68a65.43,65.43,0,0,1,10.13-12.21c7.41-6.63,12.85-15.28,21.86-21-4.5-.63-7.85,1.31-11.32,2.19-10.38,2.65-20.29,6.42-26.65,15.95-.41.61-.75,1.39-1.34,1.72-3.81,2.13-4.93,5.92-5.18,9.66C-639.7,1810.51-640,1815.9-638.39,1821.18Zm32-30.8c-3.57,3.4-6.74,6.68-10.19,9.62a33.14,33.14,0,0,0-7.1,9.27c-2.09,3.63-.89,6.43,1.11,9.11,2.54,3.43,9.2,6.07,11.91,4.76a24.56,24.56,0,0,0,7.71-5.08c3.5-3.81,4.06-7.67,1.22-12.2C-604.73,1801.1-607.59,1796.45-606.4,1790.38Zm-109.34-23.29c-1-3.28-1.74-6.1-2.62-8.9-.22-.71-.28-1.68-1.72-1.08-2.74,1.15-5.43.41-7.74-1.21-6.6-4.65-13-3-19.46.3-2.62,1.34-4,6.36-2.07,8.22,2.12,2.08,4.76,1.55,7.33.69C-733.15,1762.13-724.6,1763.53-715.74,1767.09Zm148.55-37c1.84-3.2,2.8-5.89,2.71-9-.14-4.47,1.22-8.72,2.4-13,.77-2.76,1.35-5.35-1.45-7.33-2.1-1.48-11-2.48-12.13-1.36a2.36,2.36,0,0,0-.54,1c-1.15,4-1.68,7.56,1.17,11.44A41.83,41.83,0,0,1-567.19,1730.11Zm-7.18-48.2c-7.55,2.39-12.32-2.08-17.79-4.46.26,7.41,3.84,13.2,7.28,19.81C-583.31,1690.86-578.76,1687.27-574.37,1681.91Zm283.57,177.66c.4-6.38.11-7.09-6.47-5.15-.34.11-.65.45-1,.48-2.33.15-2.68,1.73-2.13,3.42a38.42,38.42,0,0,1,2.19,9.64,2.64,2.64,0,0,0,1.8,2.21c1,.43,1.45-.58,2-1.3C-292.36,1866-289.88,1863.18-290.8,1859.57Zm-34.51-8.84c.55,2.06.59,5.64,3.23,5.15,2-.38,5.88-.77,6.29-3.77s-3.61-8-5.5-7.51C-324.19,1845.37-325.11,1847.79-325.31,1850.73Zm-232.36-111.3c-4.16-2.54-6.34-5.94-5.48-10.92-3.51,5.54-3.66,8.27-1.21,11.15S-560,1739.77-557.67,1739.43ZM-303.79,1852a7.88,7.88,0,0,0-1.21-7.09c-.92-1.19-2.61.08-3.34.57-2.26,1.54-.83,4-1,6.13A7.57,7.57,0,0,1-303.79,1852Zm-141.62-197.1c1.18,2.11,2.68,3.61,2.53,5.89-.05.63-1.27,2.44.95,2.33,1.5-.08,2.61-.66,2.66-2.41C-439.16,1656.67-442,1655.82-445.41,1654.86Zm-9.7,6c-1.54,1.33-1.69,3-2,4.49-.26,1.19-.78,3,.83,3.67,1.25.48,2.43-.49,3.69-1.82C-455.81,1666-454.81,1663.4-455.11,1660.84Zm-258.56,112.32-.81-.74c-.17.27-.5.56-.47.81s.39.55.6.83Z" transform="translate(777.05 -1631.3)"/><path class="cls-1" d="M-671.6,1734a85.33,85.33,0,0,1-7.54,11.92c-.79,1-1.59,1.41-2.45.83-1.33-.89-.14-1.73.45-2.42A38.9,38.9,0,0,0-673.7,1732c.3-.87.56-2,1.78-2.19,1.53-.18,1.86,1.2,2.22,2.14,1.53,4,3.09,8.06,4.32,12.18s3.74,7.75,5.29,11.75c.71,1.85,1.25,2.09,2.63.77a10.28,10.28,0,0,1,5.92-2.91c.88-.11,2,0,2.15,1,.23,1.27-.92,1.09-1.76,1.29-3.74.87-6.52,3.44-9.46,5.65a22.8,22.8,0,0,1-5.77,3.27c-.74.27-1.93.28-2.16-.86-.18-.87.69-1.06,1.39-1.39,6.11-2.92,6.3-3,2.92-9.76C-667.24,1747-669,1740.6-671.6,1734Z" transform="translate(777.05 -1631.3)"/><path class="cls-1" d="M-632.09,1717.6a5.11,5.11,0,0,1,5.64,2.88,5.9,5.9,0,0,1-.47,6.36,59.61,59.61,0,0,1-5.18,5.37,1.1,1.1,0,0,1-1.64.22,1.32,1.32,0,0,1-.16-2c1.12-1.14,2.39-2.14,3.58-3.21,1.71-1.53,2.77-3.45,1.74-5.63s-3.38-1.6-5.32-1.44c-.71.06-1.39.52-2.11.6-5.45.6-5.51.62-2.69,5.43,3.67,6.29,5.47,13.46,9.26,19.69.55.9,1,2-.31,2.49s-1.73-.61-2.2-1.52a94.7,94.7,0,0,1-6.1-14.3c-.92-2.88-3.22-5-4-7.91-.08-.32-.89-.82-1-.73-2,1.23-2.45.2-2.45-1.55s.62-2.86,2.48-3.12C-639.38,1718.71-635.74,1718.15-632.09,1717.6Z" transform="translate(777.05 -1631.3)"/><path class="cls-1" d="M-605.77,1716.58c0-1,0-2,0-3s0-2.17,1.17-2.45c1.47-.36,2.3.91,3,1.86.94,1.34-.76,1.27-1.14,1.86-1.38,2.17-.91,4.63.07,6.9.82,1.9,2.07,3.49,4.38,3.43,1.9,0,1.89-1.6,1.39-2.72-1-2.31-.51-4.67-.52-7,0-1.75.45-3.5,2.75-3.75,2.5-.27,4,1,4.93,3.13.76,1.8,1.22,3.63-.74,5-1,.66-2.71,1-2.2,2.39s2.22.67,3.42.76a5.48,5.48,0,0,0,4.53-1.18,1.31,1.31,0,0,1,2,.36c.6.85-.18,1.14-.75,1.67-2.69,2.51-5.9,1.23-8.9,1.3-.86,0-1.4-.73-2.39.44-2.58,3-6.15,2.64-8.73-.55C-605.28,1722.88-605.77,1721-605.77,1716.58Zm10.86,2.86c.75-1.49,4.42-.52,2.94-3.6-.42-.88-.92-2.19-2-1.71C-596.46,1715.25-594.72,1717.58-594.91,1719.44Z" transform="translate(777.05 -1631.3)"/><path class="cls-1" d="M-607.07,1729.11c-.08.74.06,1.52-.26,1.92-1.21,1.53-1.42,4.29-4.26,4s-3.45-2.71-3.81-4.85a16.5,16.5,0,0,1,1.12-9.08c.6-1.47,1.4-2.53,3.22-2.61s2,1.15,2.64,2.43c1,2.21,2.58,4.2,3.75,6.37.47.86,1.81,1.84.7,2.89S-606.09,1730-607.07,1729.11Zm-4.48-8.06a13.52,13.52,0,0,0-1.56,8.76c.15,1,.46,2.56,1.76,2.38a2.71,2.71,0,0,0,1.83-2.54C-609.33,1726.68-609.45,1723.77-611.55,1721.05Z" transform="translate(777.05 -1631.3)"/><path class="cls-1" d="M-625.27,1713.44c1.59.1,1.73,1.3,2.1,2.1,2.6,5.57,4.13,11.53,6.22,17.28.62,1.7,1,3.54,2.76,4.65a2.44,2.44,0,0,1,.47,3.86c-1.3,1.14-1.95-.65-2.65-1.61-3.3-4.49-3.66-10.13-5.86-15-1.22-2.74-1.18-6.08-4-8a1.19,1.19,0,0,1-.31-1.67A12.73,12.73,0,0,1-625.27,1713.44Z" transform="translate(777.05 -1631.3)"/><path class="cls-1" d="M-657.5,1733.1c-1.27-1.61-3.11-1.83-4.56-2.7-.91-.55-1.86-1.41-1.33-2.38.86-1.6,2-3.25,4-3.49,1.05-.13,2.33-.43,3.08.73a1.91,1.91,0,0,1,.14,1.4.9.9,0,0,1-1.43.64c-1.17-.77-2-.33-2.33.73-.41,1.49,1.15.91,1.76,1.2,1.89.89,3,2.23,2.87,4.33-.16,2.63-2.67,2.16-4.2,2.89-.67.31-1.92.39-2.27-.67s.65-1.32,1.51-1.58A29.18,29.18,0,0,0-657.5,1733.1Z" transform="translate(777.05 -1631.3)"/><path class="cls-1" d="M-652.14,1725.05c-1,.11-1.84,1.92-2.81.34-.67-1.09.55-1.75,1.24-2.37s1.27-.77,1.85-1.23c1.25-1,2.88-2,3.78-.23,1,1.92-1.62,1.06-2.25,2a8.89,8.89,0,0,1-1.88,1.59Z" transform="translate(777.05 -1631.3)"/><path class="cls-1" d="M-652.21,1725.14c1.56.6,4.12,5.62,3.7,7.22-.14.51-.32,1-.88,1.05-.74.1-1.1-.38-1.33-1-.85-2.37-2-4.69-1.43-7.34Z" transform="translate(777.05 -1631.3)"/><path class="cls-1" d="M-478.48,1667.48a6.88,6.88,0,0,1,6.5,2.4c3,3.34,2.77,6.17-1.45,8.14-4.65,2.17-9.49,3.77-13.33,7.6-1.64,1.64-4.78,1.13-7.06.13-2-.89-1.9-3.07-1.68-4.94C-494.64,1673.44-489.91,1667.4-478.48,1667.48Zm-12,7.69c-2.37,2.43-3.17,5-2.59,7.6.49,2.22,2.71,1.17,4.12,1.07a1.18,1.18,0,0,0,.62-2.18C-490.4,1680.09-490.21,1677.85-490.51,1675.17Zm14.81,1.3c1.92-.65,3.79-1.84,3.15-3.33a4.94,4.94,0,0,0-6.27-3.07C-476.55,1671.7-476.34,1674.09-475.7,1676.47Z" transform="translate(777.05 -1631.3)"/></svg>