<svg id="Layer_1" data-name="Layer 1" xmlns="http://www.w3.org/2000/svg" viewBox="0 0 134.37 90.86"><title>dinosaur_coming_from_the_future_to_destroy_humanity</title><path d="M1747.69,1820c-1.21,3.62-2.46,7.17-2.59,11,0,1.27-.09,2.59,1.11,3.6.44.38.49,1.24.65,1.9a13,13,0,0,0,1.59,3.85,11.14,11.14,0,0,1,1.3,2.69,3.75,3.75,0,0,0,2.15,2.14,1.87,1.87,0,0,1,1,.94c1.27,3.05,3.93,3.88,6.84,4.48,4.47.91,8.93-.36,13.36,0,3.13.27,6.11-.36,9.15-.72a8.55,8.55,0,0,1,1.43-.05,45.07,45.07,0,0,0,14.76-1.91,35.53,35.53,0,0,0,16.43-9.83,12.56,12.56,0,0,0,2-2.52c1.12-2,4-3.31,5.62-2.85a5,5,0,0,1,3,2.54c.28.51.29,1-.28,1.35s-.85-.14-1.1-.59c-1-1.76-2.51-2-4-.65-.09.08-.18.22-.28.22-1.69.07-2.17,1.59-3,2.59a42.75,42.75,0,0,1-7.89,6.75c-4.76,3.32-10.27,4.42-15.73,5.79a14.67,14.67,0,0,1-4.26.43c-1.09-.05-1.15.44-.76,1.22.19.39.48.73.69,1.12a.69.69,0,0,1-.24,1,.74.74,0,0,1-1-.27,9.85,9.85,0,0,1-1-2,1.5,1.5,0,0,0-1.62-1.1c-2.42-.08-4.73.64-7.11.83a18.53,18.53,0,0,1-3.94,0,30.33,30.33,0,0,0-6.8.23,31.53,31.53,0,0,1-6.8-.16,12.4,12.4,0,0,1-5.14-1.45,6.9,6.9,0,0,1-2.53-2.14c-.78-1.31-2-2.07-3-3.14a5,5,0,0,1-1.34-2.21c-.35-1.45-1.57-2.49-2-3.93-.23-.77-.51-1.51-.76-2.27-.06-.19-.06-.48-.19-.55-1.85-1-1.31-2.95-1.47-4.49-.38-3.79.75-7.41,2-10.88a15.6,15.6,0,0,0,.55-8.41,14.34,14.34,0,0,1-.13-2.27c0-.32.09-.7-.06-.94-1.36-2.25.4-4.22.53-6.32,0-.21.28-.42.14-.66-.77-1.35.11-2.34.87-3.18a13,13,0,0,1,3.88-2.76c3-1.54,6.38-2.29,9.34-4a6,6,0,0,0,1.49-1.2,68.31,68.31,0,0,1,18.21-14.23,80.55,80.55,0,0,1,18.51-7.43,37.47,37.47,0,0,1,7.47-.89c.53,0,1.28-.11,1.23.72s-.74.57-1.23.6a50.78,50.78,0,0,0-15.53,3.7,101,101,0,0,0-16.94,8.92c-2.48,1.55-4.46,3.75-6.71,5.6-3,2.44-5.17,5.52-7.47,8.53-.14.19-.27.4-.41.59-.33.51.11.93.23,1.35s.57.08.84,0c4-1.13,8-1.77,11.91-3.14a18.24,18.24,0,0,1,3.88-.75,3.46,3.46,0,0,0,2.4-.89.72.72,0,0,1,.86-.26c1.51.75,2.65.17,3.65-1a.82.82,0,0,1,1-.26c1.61.5,3,.36,4.11-1.17a.76.76,0,0,1,1.38,0c.41.74,1,.67,1.64.61,4.53-.43,8.92-1.65,13.43-2.24,4-.52,8-.71,12-1.22,3.46-.45,7,.26,10.41,1.09a3,3,0,0,1,2.12,1.79c.22.54.61.83,1.11.53s0-.73-.13-1.08a27.62,27.62,0,0,0-3.29-4.1,3.18,3.18,0,0,0-1.72-1,8.32,8.32,0,0,1-3.57-1.88,10.9,10.9,0,0,0-6.35-2.49,5.1,5.1,0,0,0-3.12,1.07,12.12,12.12,0,0,1-5.27,1.35,1.29,1.29,0,0,1-.82-.11c-1.32-1.14-2.3-.21-3,.67a12.71,12.71,0,0,1-5,3.61,4.64,4.64,0,0,0-2,1.89c-.27.4-.59.82-1.16.4a.87.87,0,0,1-.1-1.29,5.65,5.65,0,0,1,2.71-2.45,11.36,11.36,0,0,0,4.5-3.26,5.67,5.67,0,0,1,2.26-1.54,1.54,1.54,0,0,1,1.39,0c2,1.16,3.91.4,5.45-.52,3.55-2.11,6.77-1.55,10,.52a17,17,0,0,0,5.15,2.73c1.42.36,2.06,1.82,3,2.83a15.21,15.21,0,0,1,2.41,3.12,1.37,1.37,0,0,0,2,.69,82.06,82.06,0,0,0,10.28-4.2c1.34-.72,2.91-1,4.07-2a.58.58,0,0,1,.93.13.82.82,0,0,1-.17,1.18,6.31,6.31,0,0,1-2.2,1.2c-2.22.81-4.19,2.15-6.44,2.91-1.66.56-3.27,1.26-4.9,1.9-.47.18-1.11.2-.7,1a.56.56,0,0,1-.23.64c-.41.32-.36.65-.11,1a17.11,17.11,0,0,0,1.63,2.51c.19.2.44.44.46.68.13,1.66,1.3,2.55,2.43,3.51a1.59,1.59,0,0,0,1,.53c1,0,1.41.7,1.46,1.56a25.82,25.82,0,0,1-.88,8.66,1.87,1.87,0,0,1-1.52,1.39c-.66.12-1.34.16-2,.24a2.13,2.13,0,0,0-2,2.36,8.06,8.06,0,0,0,.88,3.22,4,4,0,0,1,.53,2.06,22.46,22.46,0,0,0,.39,5.24c.31,1.25-.64,1.87-1.56,2.42a6,6,0,0,0-1.16.59c-1.52,1.42-3.29,1.46-5.16,1a3.51,3.51,0,0,0-1.64-.12,1.65,1.65,0,0,1-1.16-.19,26.24,26.24,0,0,0-10.32-2.86,6,6,0,0,1-3.8-2.3,4.5,4.5,0,0,0-4.11-1.54,9.48,9.48,0,0,1-5.77-1.17c-1.44-.82-2.25-2.24-3.48-3.25-2.88-2.34-4.31-5.79-6.51-8.64-2.06-2.67-3.37-5.78-5.19-8.59-.6-.93-1.37-.94-1.92,0a4.21,4.21,0,0,0-.52,2.07c0,2.63.13,5.28-.08,7.9-.15,1.84-.29,4-1.31,5.38a16.56,16.56,0,0,1-4.79,4.43,29.21,29.21,0,0,0-7.47,5.7,4.56,4.56,0,0,1-.79.73c-.8.58-1.44.34-1.46-.63s-.38-.87-1.09-.88c-3.2-.06-6.38.34-9.56.51-1.68.09-3.17-.75-4.82-.59-.51,0-.61-.69-1-1A14.42,14.42,0,0,1,1747.69,1820Zm92.07-14a2.64,2.64,0,0,0-1.5-3.17c-1.1-.62-2.52-1.35-2.87-2.76-.45-1.81-1.67-3.14-2.5-4.7-.31-.57-.66-1.16-1.35-.83s-.32,1-.18,1.5a55.59,55.59,0,0,1,1.22,7.79,5.53,5.53,0,0,1-.14,2c-.73,3-1.22,6-2.09,9-.67,2.27-1.39,4.44-3.72,5.53-1.17.55-2.06,1.48-3.47,1.77-3.42.71-6.89.77-10.33,1.14-.2,0-.43,0-.54.19s.09.34.25.47c1.35,1.17,2.62,2.52,4.69,2.12a1.59,1.59,0,0,1,.94.11c2.67,1.24,5.87.86,8.3,2.8a.89.89,0,0,0,.81.08,2,2,0,0,1,1.53.14c2.46,1.07,4.22-.65,6-1.71.89-.54-.17-1.84-.07-2.8,0-.28,0-.56,0-.84a11.38,11.38,0,0,0-.85-5c-.77-1.88-1.25-4,.77-5.59a3.68,3.68,0,0,1,2.7-1.07c1.16.12,1.66-.42,1.83-1.51A22.84,22.84,0,0,0,1839.76,1806.07Zm-15.25,10.09c-1,1-1.08,2.23-1.62,3.19-.2.35-.45.72-.91.65a1,1,0,0,1-.84-.92,7.15,7.15,0,0,1-.06-1.31,22.69,22.69,0,0,1,.59-3.17c0-.26.16-.64-.19-.73s-.35.33-.46.56a22.69,22.69,0,0,1-1.43,2.88c-.27.39-.57.7-1.08.6a1,1,0,0,1-.82-1c0-.2,0-.39,0-.74l-2.49,5.29a16.39,16.39,0,0,0,4-.18c2.69-.4,5.37-.79,7.52-2.71.51-.44.93-.79.25-1.4-.46.43-.7,1.24-1.5,1S1824.57,1817.13,1824.51,1816.16Zm-65.32-20.92a1.39,1.39,0,0,0-1,.13c-1.39.59-2.8,1.13-4.22,1.63a14,14,0,0,0-5.22,3.3c-.28.28-.65.65-.39,1s.63,0,.94-.13c1.92-.62,3.75-1.61,5.88-1.25a1.08,1.08,0,0,0,1.15-.47C1757.23,1798.07,1758.21,1796.67,1759.19,1795.24Zm3.63,4.59c1.33.29,2.65,1.25,3.84-.22.41-.5,1-.24,1.17.41.16.88.48,1,1.17.48.35-.29.77-.59,1.19-.29.75.52,1,0,1.43-.48.6-.77,1.31-1.77,2.26-1.59,1.52.29,1.76-1.15,2.76-1.53C1771.82,1796.86,1767.53,1799.23,1762.82,1799.83Zm61-4.91a1.76,1.76,0,0,0-.27.33c-1.61,3-3.48,5.91-4.27,9.29a5,5,0,0,1-1.33,2.88c-1.1.94-1.25,2.26-1.69,3.48-.11.29-.24.67.12.85s.44-.24.65-.4c1.57-1.27,1.76-3.25,2.51-4.94,1.47-3.33,2.07-7,4.36-10a2.76,2.76,0,0,0,.4-.87C1824.36,1795.22,1824.21,1795,1823.8,1794.92Zm-26.93,13.87c-.59.71-1,1.46-1.69,1.8-1.07.52-.78,1.15-.28,1.8,1,1.26,1.82,2.62,2.66,4,.16.27.32.66.69.52s.24-.59.17-.85a10.12,10.12,0,0,1,.27-4.61c.18-.85.45-1.68.68-2.52a20.09,20.09,0,0,0-.86,2c-.22.56-.42,1.26-1.21,1s-.62-.91-.45-1.5A2.54,2.54,0,0,0,1796.87,1808.79Zm-3.94,0c-.71-1,.31-2.88-1.67-3.37-.39-.1-.49-.66-.4-1,.31-1.28-.11-2.52-.15-3.78-1.37.24-1.67-.15-1.6-2.1a3.38,3.38,0,0,1-1.72,1.18c.9.34,2.07.62,1.61,1.44-.6,1.07-.07,1.59.36,2.32.61,1,1.18,2.09,1.72,3.15A4.28,4.28,0,0,0,1792.93,1808.84Zm19.9-17.75a14.61,14.61,0,0,1,4.13-.3,10.91,10.91,0,0,1,4.08.86c1.66.71,2.85.62,3.77-.92C1820.12,1789.63,1814,1789.73,1812.83,1791.09Zm17.19,7.06a36,36,0,0,1-1.1,12,3.66,3.66,0,0,0,.21,2.76C1830.51,1808,1831.75,1803.19,1830,1798.15Zm-27.87,18.74c-.9.76-.91.77-2.19.46-.34-.08-.53.14-.77.24s-.09.28,0,.38c1.44,1.24,2.43,3,4.45,3.72.17-1.89.9-3.67.43-5.61-.41.79-.19,1.62-.42,2.39-.16.51-.33,1.07-1,.93s-.64-.73-.61-1.27S1802.44,1817.32,1802.15,1816.89Zm-45.73,8.94c.51,0,.65-.34.91-.66.58-.7,0-1.47.27-2.18a44.87,44.87,0,0,1,2.65-5.61c.13-.24.6-.48.12-.76-.32-.19-.61.05-.78.36a8.68,8.68,0,0,0-.51,1c-.82,1.94-1.7,3.86-2.69,5.72-.25.47-.51.92-1.07,1-.28.06-.74-.22-.8.24s.44.48.75.59S1756,1825.73,1756.42,1825.83Zm67.43-13.81c.46-.22.47-.51.57-.76a20.11,20.11,0,0,1,1.79-4.28c1.57-2.21,1.27-4.73,1.64-7.14,0,0-.1-.09-.14-.12-1.37,2.6-.85,5.8-2.82,8.31A7,7,0,0,0,1823.85,1812Zm-31.3-12.32.2.09c.57-1.13,1.15-2.25,1.7-3.39a14.19,14.19,0,0,1,1.8-3c.25-.31.56-.6,1-.43a.91.91,0,0,1,.56.84c0,.21-.11.48.21.66l1.39-2.46a15.53,15.53,0,0,1-4.54,1,.42.42,0,0,0-.39.49,7.19,7.19,0,0,1-.75,2.87C1793.33,1797.47,1793,1798.59,1792.55,1799.7Zm15.17,22.34c1.7.48,3.31,0,4.92-.32.13,0,.35-.24.33-.29-.36-.9.41-2.06-.64-2.91-.11.34-.17.61-.28.86-.34.74-.18,2.27-1.76,1.13,0,0-.26,0-.3.06A5.51,5.51,0,0,1,1807.72,1822Zm-51.92-6.44c-1.36,1.93-2.07,4.17-3.11,6.25a15.11,15.11,0,0,0-.58,1.45.5.5,0,0,0,.31.68c.29.08.42-.19.51-.41q.3-.72.57-1.44C1754.27,1820,1755.37,1817.92,1755.8,1815.6Zm45.81-3.67c.61.18,1.27.48,1.39-.36.42-2.74.76-5.48,1.14-8.23-.66,1.69-1.19,3.39-1.68,5.11a2.27,2.27,0,0,0-.15,1.63C1802.77,1811,1802.54,1811.51,1801.61,1811.93Zm22.17-11a44.15,44.15,0,0,0-3.68,11C1822,1808.45,1822.48,1804.55,1823.78,1800.91Zm-47.57,20c3.09-1.14,4.25-2.3,3.57-4.69Zm24.18-25.68a8.13,8.13,0,0,1,2.45-2.4c.29-.18.8-.65.6-1.07s-.86-.2-1.31-.2a7.73,7.73,0,0,0-1,.06c-.25,0-.51.18-.38.47C1801.29,1793.27,1800.55,1794.21,1800.39,1795.28Zm-31.94,19.55a20.24,20.24,0,0,0-3,6.44C1766.82,1819.29,1768.33,1817.39,1768.45,1814.83Zm36.32-19.75a3.52,3.52,0,0,0,.37-.27c.78-.69.91-1.74,1.41-2.6s.83-1.36,1.69-.46c.14.14.3.33.5.14a2.92,2.92,0,0,1,2.21-1,20.4,20.4,0,0,0-3.22,0c-.35,0-.82-.1-1,.25C1806.11,1792.47,1805,1793.52,1804.77,1795.08Z" transform="translate(-1743.7 -1763.78)"/><path d="M1804.87,1764.9a7,7,0,0,1,3.92-1.11,81.64,81.64,0,0,1,8.83.58,85.71,85.71,0,0,1,18.73,4.91c7.9,2.93,15.77,6,22.8,10.78a45.78,45.78,0,0,1,13.44,13.33,34.59,34.59,0,0,1,4.27,11.76c1.49,7.36,1.35,14.78.88,22.2a164.84,164.84,0,0,1-2.69,20.86c-.32,1.73-.73,3.44-1.13,5.15-.14.59-.35,1.28-1.17,1s-.37-.87-.25-1.4c1.12-5.15,2-10.32,2.79-15.54a123,123,0,0,0,1.07-25.57c-.4-6.48-1.83-12.87-5.48-18.4a44.15,44.15,0,0,0-13.07-12.5c-6.37-4.17-13.38-7-20.42-9.69a95.64,95.64,0,0,0-15.35-4.66,63.1,63.1,0,0,0-11.87-1.41C1808.4,1765.19,1806.63,1765,1804.87,1764.9Z" transform="translate(-1743.7 -1763.78)"/></svg>