<svg id="Layer_1" data-name="Layer 1" xmlns="http://www.w3.org/2000/svg" viewBox="0 0 334.88 266.83"><title>dinosaur_sealing_letters_with_wax</title><path d="M1752.62,1715.38a85.35,85.35,0,0,1-6.73-5.35c-4.77-4.6-4.39-10.28-.22-15.46,1.68-2.08,1.93-5.54,2.27-8.43a30.74,30.74,0,0,1,6.37-16.09c6.64-8.36,14.53-15,25-17.87a55.8,55.8,0,0,1,7.26-1.71,16.89,16.89,0,0,1,13.35,3.47c6,4.63,10.72,10.23,15.75,15.79,6.52,7.2,11.17,15.88,18.67,22.3a27.47,27.47,0,0,1,8.47,13,32.37,32.37,0,0,0,3.06,7.22c2,3.35,1.09,7.08,1.91,10.55,2.6,11,7.7,20.7,14.52,29.81,3.42-14,3.91-27.48-3.21-40.5-2.7,2.28-4.91,1.27-7.31-1.06-5.69-5.54-9.46-12.53-14.52-18.49-4.48-5.28-3.92-9.63-1.31-15.67s6.29-9.44,12.48-10.91c4.17-1,8-3.6,12.61-1.75.78.31,1.29-.59,1.85-1.07a74.35,74.35,0,0,0,6.16-5.44c3.46-3.76,7.46-3.52,11.68-2a12.69,12.69,0,0,0,4.67,1.25c5.78-.19,8.25,3.53,9.44,8.26.8,3.15,1.93,3.59,4.95,2.58,5.83-2,12-1.78,18.1-2,1.75-.08,2.73,1,3.27,2.55a29.33,29.33,0,0,0,5.4,10.12,5.77,5.77,0,0,1,.19,7.35c-4.59,6.33-9.2,12.68-14.79,18.19-1.85,1.83-1.66,3.79-1.3,5.86.94,5.41,2,10.78,3,16.18s-.3,10.43-.63,15.65c-.67,11-4,21.22-7.87,31.38-.44,1.17-.76,2.38-1.09,3.59-1.8,6.59-1.88,7.09,4.26,10,6.85,3.23,11.62,8.54,16,14.34,3.28,4.39,6.71,8.69,9.13,13.69,1.43,2.95,2.72,2.91,5,.42,5.73-6.17,8.36-14.11,12.32-21.3,5.46-9.91,7.58-20.74,9.42-31.68.25-1.47.17-3.15,2.17-3.47s2.42,1.28,3.25,2.53c2.16,3.21,1.7,7,2.31,10.48,2.41,14.12,1.69,28.38,1.65,42.59a60.66,60.66,0,0,1-9.32,32.23c-2.78,4.53-4.65,9.61-7.34,14.27a36.3,36.3,0,0,1-6.68,8.38,3,3,0,0,1-3.39.85c-1.28-.47-1.28-1.68-1.38-2.83-.58-6.32-1.48-12.63-1.72-19-.42-11.11-4.76-20.78-10.16-30.15-4.37-7.58-9.13-14.87-15.48-21-6-5.82-13.25-9.44-21.21-12-8.89-2.84-16.75-7.48-22.51-15.1-1.31-1.73-2.23-4-5.18-3.35-1.19.24-2-.86-2.54-1.91-5.84-11.81-14.34-22.26-18.17-35.08-2.35-7.87-4.69-15.72-7.55-23.44a33.08,33.08,0,0,0-8.27-12.69,79.82,79.82,0,0,1-8.16-9.66c-6.06-8-12.16-16-19.77-22.81-5.73-5.1-11.64-7.41-19.11-4.56-12.86,4.89-23.28,12.47-28,26-1.45,4.19-1.74,8.78-2.74,13.14-.29,1.28.21,1.59,1.16,1.79,1.33.29,2.68.56,4,.74,5.89.76,8.82,4.09,8.79,10.05,0,5.34-2.13,7.49-7.46,7.55-1.5,0-3-.07-4.5-.1A2.92,2.92,0,0,1,1752.62,1715.38Zm156.79,15q-1.5-8.48-3-16.94c-.24-1.34-.78-2.23-2.23-1.14-5.22,4-10.4,2.4-15.47-.24a4,4,0,0,0-4.49.21c-4.42,2.69-9,4.81-14.45,4.12-1.91-.24-2.63.45-2.09,2.64,2.22,9,1.81,18,1.1,27.17-.29,3.65-1.7,7.21-.21,11,4.57,11.73,14.14,18,24.82,22.93,2.6,1.21,5.29-.67,5.74-3.66a26.25,26.25,0,0,1,1.62-5.75C1905.9,1757.85,1909.16,1744.48,1909.41,1730.42Zm53.76,43.36c-.31,1.52-.51,2.62-.76,3.71-2.63,11.7-8.34,22.12-14,32.52a30.72,30.72,0,0,1-8.52,10.32c-2,1.45-2.23,2.5-1.1,4.55,3.47,6.35,4.9,13.27,5.46,20.43.43,5.39,1,10.75,1.62,16.92,1-1.39,1.45-2.08,1.94-2.76,4.24-5.92,6.51-12.87,10-19.18,3.08-5.51,5.83-11.33,6.34-17.84.9-11.46.75-23,.55-34.43A63.6,63.6,0,0,0,1963.17,1773.78Zm-66.71-99.08a14.36,14.36,0,0,0-5.71,2.78c-6,4.85-10.72,11.16-17.91,14.56-2.17,1-5.2,2.87-4.78,5.1s3.77,3.29,6.31,4.07a102.57,102.57,0,0,1,17.67,7c3.07,1.62,6.43,2.23,9.43-.44,7.36-6.56,13.1-14.55,19.33-22.11,1.28-1.56.61-2.23-1.07-2.34-5.54-.37-10.25-2.88-15-5.52A29.49,29.49,0,0,0,1896.46,1674.7Zm-36.19,6.42c-.6,2.69.94,5.94.75,9.33-.06,1,0,2,1.2,2.48a2.32,2.32,0,0,0,2.66-.86c3-3.23,6.83-5.39,10.67-7.5a12,12,0,0,0,3.47-2.8,45.33,45.33,0,0,1,9.62-8.84c2.36-1.61,2.45-3.52,1.71-5.78-.82-2.46-2.94-1.81-4.75-1.78-6,.1-11.35,2.48-16.85,4.49C1859.17,1673.35,1860.36,1672.88,1860.27,1681.12Zm-4.19-8c-6.46,1.77-9.74,6.83-14.29,10.17-2.58,1.88-2.35,3.09-1,5.37,3.3,5.58,7.91,10.21,11.29,15.75,2.19,3.58,3.87,3.42,6.85.41.78-.79,1.6-1.57,2.36-2.39.48-.52,1.26-1,.86-1.88-.3-.67-1.07-.58-1.66-.53-3.56.28-4-1.72-3.92-4.7C1856.69,1688,1855.52,1680.68,1856.08,1673.1Zm14.41,38.54a12.52,12.52,0,0,0,6.83-1.6c.66-.33,1.58-.57,1.34-1.48-.13-.46-.87-.87-1.41-1.06a77,77,0,0,1-7.42-2.52c-1.85-.88-3.24-1.13-4.51.67-.82,1.19-3.29,1.85-2.59,3.23s2.9,2.23,4.78,2.56A26.63,26.63,0,0,0,1870.49,1711.64Zm49.09-33.43c-1-2.4-1.74-4.24-2.43-6.1-.38-1-.85-1.66-2.16-1.48-3.37.44-6.76.74-10.84,1.17C1909.42,1674.43,1913.74,1677.42,1919.58,1678.21Z" transform="translate(-1634.86 -1650.26)"/><path d="M1753,1715.62a33.29,33.29,0,0,0,7.52,12.26c3.48,3.42,6.41,8.23,12.17,7.68,6.36-.61,16.16-4.13,19.44-11.84,2.83-6.62,6.09-13,8.3-19.94.54-1.68,1.45-3.2,3.47-2.38s1.92,2.71,1.12,4.18c-1.51,2.81-.33,3.53,2.27,4.21,8.72,2.31,11.74,7.32,10,16.13-1,5.25-5.64,7.54-10.49,5.18-.23-.1-.43-.26-.65-.38-9.35-4.66-10.57-4.33-16.39,4.27a2,2,0,0,0-.25,2.07c2.8,7.13,2.28,14.72,3,22.12.33,3.22.44,6.41,4.82,6.67a1.47,1.47,0,0,1,1.42,1.48,1.3,1.3,0,0,1-1,1.41c-4.83.63-7.73,4.46-11.25,7a195.37,195.37,0,0,0-36.64,35.64c-1.74,2.16-3.92,3.82-5.73,5.83-4.79,5.33-4.53,16.23-1.65,23,3.41,8,11,8.77,17.12,12.07,1.71.92,3.37,0,4.34-1.85,5.36-10,13.7-17,23.3-22.59,2.29-1.34,2.61-2.32,0-3.68-4.32-2.25-8.45-4.9-13.71-3.91-1.48.28-2.86-.28-2.9-2.09s1.2-2.65,2.83-2.93c4.14-.71,7.91.65,11.61,2.19,4.93,2.06,9.33,5.37,14.76,6.28a3.12,3.12,0,0,1,2.37,2.65c2.11,8.63,7.89,15.56,10.92,23.74,6.21,16.74,15.94,31.5,25.9,46.1,3.93,5.77,9.06,10.6,14.09,15.44,1.39,1.33,3.27,2.67,1.45,4.6-1.67,1.78-3.36.47-4.83-.92-12.9-12.24-22.49-26.82-31.2-42.25a213,213,0,0,1-12-25.23c-.5,3.5-1.53,5.53-5.68,6-3.42.39-7.28,2.29-6.86,7.35.1,1.18-.5,2.42-.78,3.64-1.31,5.7-.5,7.52,4.84,10.23a6.94,6.94,0,0,1,2.57,2.59,44.84,44.84,0,0,0,7.49,8.8,15.68,15.68,0,0,1,4.84,9.45c1,5.39-3.44,7.37-6.86,9.11-8.92,4.54-18.31,7.53-28.63,7.28-5.52-.13-10.09-2.48-15-4.23-2.93-1-5.7-2.57-9-2.3-1.88.15-2.67-1.16-3.32-2.53-3.64-7.67-6.63-15.56-7.87-24-1-6.57,1-8.61,7.74-8.41a40.35,40.35,0,0,1,12.43,1.93c.47.16,1.18.51,1.42.32,3.33-2.67,6.71-5.32,9.84-8.23.88-.82.21-1.76-1.24-1.8a7.35,7.35,0,0,1-6.07-3.69c-2-3.1-5.47-1.83-8.23-2.47-12.64-2.9-22.86-10.5-22.89-25.58,0-5.74.74-11.14,3.8-16.13,1.86-3.05,4.93-4.83,7.18-7.52,11.78-14.11,24.58-27.21,39.72-37.81,2.18-1.53,3-3.19,2.34-6a45.77,45.77,0,0,1-1.24-13.36c.17-3.72-.93-7.16-2.06-10.59-.77-2.34-2.12-2.82-3.57-.56a2.06,2.06,0,0,1-2,1.24c-4.35-.19-8.69,0-13-1-3.55-.79-5.36-3.55-7.6-5.77-3.61-3.57-7.2-7.28-8.87-12.26-.91-2.7-1.1-5.28,2.56-6.16A2.92,2.92,0,0,0,1753,1715.62Zm13,180.66a4.72,4.72,0,0,0-.48-2.29c-2.22-2.91-2-6.41-2.36-9.67-.79-7-.87-7.27-8-8.15a31.34,31.34,0,0,0-4.06-.53c-2.36,0-4.19.68-3.63,3.75a51.75,51.75,0,0,0,3.42,12.6c1.75,3.83,2.9,8.11,8,9.51S1765.68,1902.09,1766,1896.28Zm9.26-38.47c.24,0,1,.08,1.45-.24,4.47-3.14,9.61-4.52,14.76-6,2-.57,2.07-3.15.33-4.77-3.21-3-3.63-4.7-1.1-8.29,1.37-1.94.3-2.49-.84-3.51s-1.89-2.51-3.6-.82c-5.25,5.18-12.49,8.34-15.78,15.52-.63,1.37-2.84,2.39-1.6,4.16C1770.3,1855.9,1772,1857.86,1775.27,1857.81Zm10.78,41.72c-4.44-.94-9.29.9-14.28,1.71-1.73.28-1.88,1.41-2.27,2.51-.47,1.29.56,1.75,1.48,2.17a15.74,15.74,0,0,0,5.76,1.46c9.4.53,18-2.26,26.19-6.41,5.65-2.85,6.08-4.94,2.31-10.06-.29-.4-.62-.78-.92-1.18-1.52-1.94-2.48-1.91-3.5.57-2.39,5.89-5.44,11-13.28,9.1A6.85,6.85,0,0,0,1786.05,1899.53Zm-13.87-26.15c-2.65,1.42-3.25,3.54-2,6.2,2.58,5.43,7,8.12,12.91,8.76,3,.32,5.42-.24,7.3-2.65a7.73,7.73,0,0,0,.89-9.1c-.94,2-1.77,4.15-4.07,3.07-3.4-1.61,0-4.45-.84-6.6-1.27.26-2.57.94-3.64.67-2.69-.67-4.55-.35-5.55,2.56a2.14,2.14,0,0,1-2.5,1.23,2.26,2.26,0,0,1-1.88-2C1772.69,1874.8,1773.06,1874,1772.18,1873.38ZM1799,1722.22c1.82.92,3.66.74,5.13,1.74a45.86,45.86,0,0,0,4.63,2.38c1.43.74,2.76.64,3.47-.88,1.22-2.6,1.6-5.27-.5-7.67-2.28-2.61-7-3.86-9.44-2.57.23,1,1.14.78,1.79,1,1.63.55,3.21,1.35,2.73,3.36s-2.21,2.4-4.14,1.78C1801.46,1721,1800.23,1720.52,1799,1722.22Zm-3.5,165.56c-3.16,6-8.6,4.83-13.69,5-5.45.19-9.7-2.14-13.43-6.72-.4,3.27,2.09,4.48,2.05,6.77s1.4,3.1,3.79,2.73a52.4,52.4,0,0,1,10-.83C1788.9,1894.9,1794.59,1895.51,1795.45,1887.78Zm-12.22-19.43c2.53,0,4.38-.95,4.9-3.65.41-2.15,2.33-5,.64-6.29s-4.35.6-6.3,1.89a10.2,10.2,0,0,0-2.28,1.89,3.62,3.62,0,0,0,3,6.16Z" transform="translate(-1634.86 -1650.26)"/><path d="M1693.59,1844.18c.14,1.87-.07,3-1.13,3.31-6,1.6-10,7-16,8.7-1,.28-1.81.84-2.75,1.18-5.19,1.87-6.54,1.55-9.06-3.24-4.2-8-10.51-14.19-16.4-20.79-2.8-3.13-6.82-4-10.36-5.76-1.52-.75-3.19-1.17-3-3.21.15-1.81.13-3.91,2.14-4.86,9.3-4.39,14.93-13.09,22.75-19.21.68-.54,1.25-1.22,1.89-1.81,6.74-6.19,8.49-5.8,13.83,1.47a153.41,153.41,0,0,1,12.6,21.15,35.43,35.43,0,0,1,3.38,11C1692.07,1836.42,1692.94,1840.68,1693.59,1844.18Zm-22.44-27.54c-1-4.25-2.05-8.47-2.81-12.75-.56-3.13-1.61-3-3.71-1.2-7.42,6.26-13.43,14.11-21.71,19.42-1.7,1.09-.5,1.84.53,2.38,1.65.86,3.53,1.38,5,2.47,7.11,5.24,12.41,12.23,17.46,19.31,5.27,7.4,5,7.62,13,3.1,1.34-.75,3.67-1.46,3-3.17s-2.68-.11-4,.13c-4.56.82-9.78-.51-11.51-3.49-3.3-5.69-4.9-16.2,2.94-22.07C1670.87,1819.63,1671.58,1818.51,1671.15,1816.64Zm3.23-8.27a39.73,39.73,0,0,1,1.65,7.34,13.3,13.3,0,0,0,3.11,7.74c4.08,4.54,6.17,9.5,5.72,15.58a1.76,1.76,0,0,0,2.11,2c1.19-.15.9-1.24.72-2.12-1.39-6.79-2.06-13.79-6.5-19.61C1678.59,1815.87,1677.92,1811.24,1674.38,1808.37Z" transform="translate(-1634.86 -1650.26)"/><path d="M1704.31,1786.34c-1.37,0-2.74,0-4.11,0-3.76.17-6.39-1.09-7.8-4.93-3-8-10-13.26-13.91-20.72-2.53-4.87-2.27-6.08,3.18-7.3,7.45-1.66,14.54-4.42,21.63-7.17a11.72,11.72,0,0,1,8.66-.11c9.6,3.34,17.7,9,25.38,15.44.29.24.54.52.81.78,4.37,4.27,4.49,5.3.24,9.49C1729,1781.11,1717.81,1786.49,1704.31,1786.34Zm29.7-19.9a60.31,60.31,0,0,0-24.85-15.62,5.13,5.13,0,0,0-3.6-.06c-6.56,2.31-13,5.08-19.81,6.54-2,.43-2.48,1.44-1.22,3.16a18.76,18.76,0,0,1,1.37,2.23c2.75,5.16,8.18,8.44,10.06,14.23.21.65,1,1.12,1.47.61,2.92-3.16,9.73-2.72,8.81-9.5a4.41,4.41,0,0,1,1-2.38c3-4.87,9.61-6.1,14.63-1.66C1725.73,1767.45,1729.59,1766.36,1734,1766.44Z" transform="translate(-1634.86 -1650.26)"/><path d="M1798.73,1693.23c-.13,6.7-2.76,11.51-7.53,15s-12.92-1.19-14.49-8.22c-.35-1.53-1-3.19-.39-4.77.77-2,2.62-1.4,4.19-1.49,1.17-.06,1.52-1.21,2-2,1.78-3.13,4-6,5.29-9.42a4.32,4.32,0,0,1,4.24-3c2.28-.08,3.35,1.16,4.1,3.07A39.29,39.29,0,0,1,1798.73,1693.23Zm-7-7.25c-1.41,2.38-2.54,4.27-3.65,6.17-.8,1.38-2.44,3-2.18,4.13.48,2.08,3,.4,4.5,1.33,2.37,1.51,3.07,0,3.33-2A14.81,14.81,0,0,0,1791.74,1686Z" transform="translate(-1634.86 -1650.26)"/></svg>