<svg id="Layer_1" data-name="Layer 1" xmlns="http://www.w3.org/2000/svg" viewBox="0 0 562.67 382.08"><title>jspaint-dino</title><path d="M-858,1928c1.87-5.93.39-11.55-1.57-17.13-.48-1.36-1.54-2.91-1.24-4.09,1.33-5.14,3.46-10.09,4.53-15.26,1-4.71.94-9.62,1.34-14.45,0-.49-.19-1.06,0-1.49,3.46-8.51.07-17.26,1-25.86.34-3.27.77-6.54,1-9.82.35-5.59-2.77-9.15-7.19-12-3.78-2.4-6.45-6.25-11.7-6.78-1.87-.19-3.16-4.58-5-6.8-5.13-6.14-10.21-12.34-15.7-18.16-4.26-4.53-9.07-8.54-13.69-12.72a6.81,6.81,0,0,0-2.58-1.39c-6.93-2-8.23-4.31-8.65-11.39a27.39,27.39,0,0,0-3.59-10.92c-9.51-17.49-19.32-34.82-28.91-52.28-.9-1.65-.93-3.77-1.37-5.68l-2.56,2c.47-.26.94-.76,1.42-.77,14.6-.38,29.2-.62,43.8-1.15,3-.11,4.44,1.18,5.69,3.58,3,5.62,6,11.21,9.15,16.73,2.32,4.06,3.72,3.15,7.78.86,4.27-2.41,9.74-2.69,14.71-3.82.83-.19,1.88.33,2.63,0,4.57-1.8,9-3.91,13.64-5.55a4.77,4.77,0,0,1,4.15.92c3.31,3.53,6.31,7,11.77,3.55.58-.37,2.19.93,3.34,1.4,2.84,1.15,5.79,2.08,8.52,3.45,2.12,1.07,4.57,2.28,5.84,4.13,3,4.32,9.08,7.37,13.08,6.53,1.28-7.32,2.48-14.21,3.74-21.45-3.68-2-6.32-4.91-1.68-9.49a2.08,2.08,0,0,0,.34-1.88c-2.72-5.59-1.67-11.64-2.12-17.48-.38-4.92-.11-9.89-.09-14.84,0-.82.25-1.64.26-2.45,0-5.69-.06-11.39,0-17.08.05-3.15-1.08-3.49-4.17-3.18-7.74.8-15.63,3.87-23.32-.87a8.25,8.25,0,0,0-6.19-.61c-3.78,1.26-5.14-.59-5.24-3.57-.11-3.71-1.85-6-4.26-8.7-8.32-9.22-11.82-20-9.23-32.53,1.15-5.54,1-11.11,3-16.78,3.43-9.92,9.6-16.62,18.19-21.81a8.8,8.8,0,0,0,3.15-3.45c1.44-2.86,2.69-5.1,6.14-2.1a3.83,3.83,0,0,0,3.22.74c7.07-2.62,13.9-6,21.58-6.63a74.42,74.42,0,0,0,9.93-1c7.21-1.59,14.4-3,21.84-2.55s14.82.33,22.15,1.16c3.89.44,7.73,2.08,11.39,3.66,4.08,1.76,7.85,4.21,11.9,6.06a8.75,8.75,0,0,0,4.51.25c4.1-.52,5.83,1.5,4.46,5.32-.21.6-.4,1.56-.1,1.94,2.5,3,5.19,5.92,7.68,9,1,1.19,2.54,3.12,2.16,4-1.44,3.33.71,4.78,2.57,6.55.6.57,1.57,1.13,1.68,1.8,1.06,7,7,11.22,10.36,16.89,2.88,4.88,2.75,9,2.72,14-.08,13.12.89,26.24.7,39.36-.09,6.49-1.78,13-2.84,19.45-1.28,7.87-2.67,15.73-4,23.6-.93,5.53-.87,11.37-5.22,15.79a3,3,0,0,0-.74,1.75c-.38,6.51-.71,13-1,19.53-.6,11.35-1.19,22.71-1.86,35.46a53.82,53.82,0,0,1,5.31-4.33c1.35-.83,4-2,4.38-1.56,4.6,5.18,9.1.92,13.75.46,5.42-.52,11,.14,16.44.66.73.07,2.07,3,1.7,3.47a7.37,7.37,0,0,1-4.26,2.67c-6.49.9-13,1.56-19.55,2-2.42.18-4.65,5-6.51,1.26l-7,2.61c-.94.35-2.28.45-2.73,1.13-2.29,3.47-5.45,2-7.31.49a9.38,9.38,0,0,1-3.1-6.67c.16-6.56-.32-13.68,2.07-19.5,4.31-10.51-2.71-21.44,2.52-31.59.62-1.21-.42-3.19-.39-4.81a13.56,13.56,0,0,1,.75-4.49c1.48-3.86,4.63-7.72,4.42-11.42-.27-4.77,1.49-8.64,2.31-12.93,1.53-8,2.93-16.11,3.94-24.22,1-7.87,2.59-15.93,1.79-23.68s0-15.59-2-23.55a137.12,137.12,0,0,0-4.72-16.21c-.28-.73-.75-1.85-1.28-1.94-4.83-.84-4.89-4.91-6.29-8.36s-3.67-6.45-5.63-9.61c-2.88-4.66-4.93-10.35-9-13.65-5.9-4.85-11.55-11.2-20.85-10.07-2.65.32-5.56-2.56-8.42-2.74-9.63-.62-19.35-1.43-28.93-.74-8.86.63-17.64,2.87-26.37,4.81-5.79,1.29-13.23,1.61-16.73,5.35-7.14,7.64-19.67,10-22,23.41,4.69-1.86,9-3.69,13.48-5.27a12,12,0,0,1,4.6-.41,57.77,57.77,0,0,1,8.21.91c3.59.74,7.09,1.92,10.67,2.73,1.61.36,3.34.18,5,.46s3.44.39,4.32,1.36c.68.76.07,2.72-.05,4.14-.23,2.78-.75,5.55-.7,8.32.06,3.93-2.66,4.91-5.52,5.91-1.36.48-3.75.65-4,1.43-1.66,6.14-6.38,5.23-11,5.78-4.39.52-8.69,2.29-12.85,4-3.41,1.36-6.57,3.35-11.05,5.71,2.05,1.86,4.08,3.66,6.06,5.51s3.75,5,6,5.43c5.58,1,11.17,3.87,17.13,1.31,1.07-.46,2.68.5,3.88.18a76.24,76.24,0,0,0,7.37-2.65c2.87-1.08,5.73-2.22,8.62-3.28,1.63-.6,4-.57,4.82-1.7,4.1-5.6,10.63-6.26,16.31-8.6.88-.37,2.4.12,2.87-.42,4-4.76,9.35-2.2,14.09-2.52,3.56-.24,5.73,3.69,3.29,6-3.65,3.5-1.29,5.27,1.07,7.59,5,4.88,6.2,8.85,2.47,12.6s-7.37,8.26-14.19,7.84c-10.26-.63-20.58-.16-31.46-.16,0,9-.35,18.82.1,28.58.42,9.28,1.67,18.52,2.37,27.7.49,2.89,2.23,6.32,1.25,8.58-4,9.15-2.55,18.6-2.73,28-.06,2.88,1,7.06-2.56,7.62-2.08.33-5-2.63-7-4.67-4.18-4.26-8.14-8.44-14.89-7.92-1.28.1-2.67-1.07-4-1.71-4.49-2.21-9-4.44-13.86-6.88l-2.53.85c-.83,3.29-1.4,5.94-2.16,8.53s-1.64,4.89-2.51,7.32c-.24.68-1.08,1.64-.88,1.93,3.31,4.61-.8,5.87-3.24,8.46-3.87,4.12-6.94,9-10.42,13.51-1.09,1.41-2.14,3.32-3.62,3.88-9,3.32-16,12.13-27.65,8.62,1.12,6,5.62,7.18,8.8,9.63,1.24,1,2.38,2,3.55,3.1,4.76,4.32,9.63,8.52,14.21,13,2.3,2.26,3.83,5.29,6.09,7.6,4.19,4.27,8,8.91,14.47,10.4,3.84.89,4.23,4.89,4,8.52-.61,8.26-1.11,16.53-1.8,24.79-.71,8.51-1.55,17-2.42,25.52-.4,3.9-.9,7.79-1.56,11.65-.49,2.85-1.31,5.65-2,8.47-.27,1.08-1.18,2.56-.77,3.18,4.09,6.18,2.25,13.11,2.79,19.73Zm-54.33-176.32c-4.22-2-7.67-3.31-10.66-5.27-5.93-3.91-5-10.2-5-16.13a14,14,0,0,1,7.46-12.85c4.77-2.63,10.31-2.9,14.69,1.26,2.62,2.48,4.55,5.69,6.92,8.74,3.81-.84,4-3.32,1.88-6.87-2.87-4.75-5.47-9.66-8.39-14.37a4.69,4.69,0,0,0-3.26-2.09c-13.19-.15-26.38-.1-39.58-.1-.18.59-.37,1.17-.56,1.75l32.54,58.29C-914.61,1758.74-913.29,1754.64-912.33,1751.68Zm-1.75-34.24c-2.07.79-4.4,1.22-6.16,2.45-8,5.62-7,17.88-2.8,23.46,4.57,6.08,9.61,6.37,14.25.86,2.07-2.47,4.23-5.23,5.13-8.22,1-3.15,1.53-7.17.36-10C-905,1721.71-907.89,1717.38-914.08,1717.44Zm24.82,17.7c-2,1.69-3.69,3.74-5.84,4.71-4.09,1.83-4.74,6.18-7.33,9.09-1.69,1.91-1.72,5.2-2.81,7.74-1.3,3-2.93,5.94-4.63,9.32,5.15,0,9.49.19,13.8-.1a9.66,9.66,0,0,0,4.66-2.08q5.4-4,10.46-8.45c.83-.73,1.75-2.56,1.39-3.23C-882.62,1746.41-886,1740.83-889.26,1735.14Zm13.13,18.54a33,33,0,0,0,3-3.72c3.89-6.62,7.75-13.25,11.46-20,.56-1,.29-2.47.41-3.72a41.5,41.5,0,0,0-4.6.07c-1.77.23-3.49.83-5.26,1.07-2.88.39-6,.06-8.6,1-2.9,1.1-5.37,3.33-7.9,5Zm22.77-142a37.8,37.8,0,0,0,5.64,0c2.46-.43,5.13-.77,7.14-2,.64-.4-.87-3.7-.82-5.66a8.13,8.13,0,0,1,1.61-4.51c2.12-2.64,4.61-5,6.95-7.43l-.72-.9-19.8,4Zm59.22,29.36.5,1.81a42.31,42.31,0,0,1,6.58-.78,118.78,118.78,0,0,1,15.23,1c5.12.83,7.08-2.93,9.79-5.69a2.75,2.75,0,0,0-.06-2.48c-1.75-3-6.07-3.07-8.74-.76-1.2,1-3.16,1.23-4.76,1.84s-3.15,1.36-4.78,1.85-3.63.81-5.44,1.22C-788.6,1639.72-791.37,1640.38-794.14,1641Zm-76.23,123.09c10.2-8.23,13.73-19.52,15.82-31.47-1.61,1.59-2.18,3.62-2.75,5.65-.33,1.17-.36,2.57-1.05,3.45-4.68,6-9.5,12-14.29,18Zm-26.68,4.15h-13.21c.38,2.47.71,4.58,1.18,7.6Zm5.64,7.23c5.42-.5,11.27-.3,12.65-7.19C-885.87,1765.61-887,1773.41-891.41,1775.51Zm19.49-9.7-3.34-4.76-6.68,4.76Z" transform="translate(1222.92 -1545.92)"/><path d="M-720,1928v-23.47c0-14.36.2-28.71-.09-43.06-.14-6.86-1.09-13.72-1.89-20.55-.51-4.29,3-8.42,7-10.13a23.29,23.29,0,0,0,8.8-7.14c1.87-2.42,2.21-4,6.22-2.65,3.22,1.08,7.64-.92,11.38-2,4.59-1.39,9-3.28,13.53-5a18,18,0,0,1,2.64-1.06,57.11,57.11,0,0,1,9.81-1.52c.68,0,2.44,3.44,2,4.47-2.53,5.37-5.59,10.51-8.56,15.68-1.93,3.37-4,6.66-6.23,10.3,3.3-.19,6.61,1.49,9.46-2,.7-.87,3.85-.6,5.2.24.83.51.46,3.1.44,4.75,0,1.11-.74,2.29-.51,3.29,1.31,5.7-.29,10.57-3.16,15.52a141.11,141.11,0,0,1-19.68,25.77c-5.63,6-10.11,13-15.31,19.39a84.74,84.74,0,0,1-9,9.51c-1,.86-3.07.45-4.94.66v9Zm7-57.43c1.08-.35,2.42-.47,2.51-.86,1.74-8.06,9.75-10.79,14.09-16.63,1.22-1.64,3.42-2.51,5-4,2.76-2.62,5.8-5.09,7.9-8.19,3.94-5.8,7.28-12,10.88-18.05l-.95-1.31a45.22,45.22,0,0,0-5.6,1.17c-4.83,1.63-9.56,3.57-14.41,5.13-3.48,1.13-6.48,2.06-7.64,6.42-.83,3.13-3.71,4.08-6,1.17-4.08,2.57-7.25,4.28-6.1,10.41C-711.94,1853.75-713,1862.12-713,1870.57Z" transform="translate(1222.92 -1545.92)"/><path d="M-940.24,1573v118.75h-275.54V1575.36l-7-.7-.1-1.31c3.49,1,6.17-2.7,10-.55,1.29.72,3.27.2,4.94.2h267.71Zm-273.55,116.64h271.55V1575.27h-271.55Z" transform="translate(1222.92 -1545.92)"/><path d="M-934.71,1774h-47.71c-24.16,0-48.31-.11-72.47,0q-61.87.36-123.76,1.06c-4,0-6-1.13-7.84-4.85-8.94-18.41-18.25-36.64-27.46-54.91-.77-1.53-1.75-3-3-5,1.31-.12,2.63-.33,4-.34q115,0,229.91.09a7.24,7.24,0,0,1,5.12,2.44c14,19.13,27.73,38.39,41.51,57.64A24.07,24.07,0,0,1-934.71,1774Zm-3.39-2c-3-4.24-5.49-7.68-7.93-11.15-10.51-14.94-21-29.92-31.54-44.83a8.83,8.83,0,0,0-8-4.17q-111.17.3-222.33.15h-4.81c.83,1.91,1.42,3.41,2.13,4.85,8.54,17.14,17.2,34.22,25.55,51.44,1.74,3.58,3.72,4.84,7.76,4.81q95.08-.72,190.16-1.09c14.49-.07,29,0,43.47,0Z" transform="translate(1222.92 -1545.92)"/><path d="M-761.4,1604c-6.17,0-12.33,0-18.49,0-3.54,0-5.21-1.54-5.12-5.09.07-2.67-.2-5.36.1-8a12,12,0,0,1,1.84-4.28c1-1.69,1.77-3.73,3.24-4.81,2.63-1.92,5.71-3.23,8.6-4.81.78-.43,1.53-.91,2.31-1.34,2.89-1.57,5.83-4.53,8.67-4.44,8.3.27,16.59,1.61,24.84,2.84,3.95.58,7.48,6.72,7.41,12A17.9,17.9,0,0,1-745.91,1604Zm9.47-25.11.43,1.46c-3.68,1.47-7.33,4.09-11,4.18-7.88.21-14,2.06-15.23,12.47,5.68,0,11.3,0,16.93,0,2.87,0,8.14-4.92,8.88-7.74.83-3.15,2.08-6.18,3.17-9.32Zm13.86,10.91,2.1-.78c-.67-2-1-4.16-2.12-5.84-.78-1.2-2.59-1.72-5-3.2Z" transform="translate(1222.92 -1545.92)"/><path d="M-1118.22,1605.28a20.9,20.9,0,0,1,8.11,17.62c-.24,6.58-1,13.3-9.15,15.63,3.25,3.19,5.47,5.84,9.67,3,1.07-.72,3.74,1.4,5.66,1.37,8.6-.13,17.19-.65,25.79-.82,1.64,0,3.31.87,5,1.35a39.85,39.85,0,0,1-2,4.17c-1.29,2.08-2.36,4.65-4.25,5.91-2.14,1.42-5,2-7.7,2.27-3.87.48-7.81.44-12,.64,2.76,9.54,8.13,18.18-.94,26.11-.65-4.79-.4-9.75-2.12-13.88-2.46-5.93-4-12.25-11.58-15.6-6.14-2.72-10.46-9.41-15.86-14-2.13-1.82-5-2.76-7.25-4,1.79-8.32,3.44-15.94,5.21-24.17l-2.67-1.38c.8-1.55,1.63-3.1,2.42-4.68,1.93-3.86,8-6.35,12.49-5.79,2.4.3,5-1,7.43-1,11.67-.12,23.35-.48,35,.1,8,.4,14.87,4.54,21.1,9.48,3.25,2.58,6.81,6.06,5.53,10.07-1.92,6,1.44,11.22.59,17s-.31,11.64-.15,17.47a113.37,113.37,0,0,0,1,11.79c.53,4-1.17,6.55-5.31,9-.25-13.72-.42-26.73-.8-39.73a10.53,10.53,0,0,0-2.54-6l2.14-8.09-4.14,1.94c.38-2.24,1.6-5.15.86-5.78-3.43-2.94-7.38-5.26-11.18-7.77a16.52,16.52,0,0,0-4.15-2.43c-3.1-.9-6.3-1.92-9.48-2-9.82-.25-19.66-.13-29.49,0a28.73,28.73,0,0,0-4.9.85Zm3.34,24.49c-6.31.63-9.37-1.54-11-7.86l10.48-6.32a42.54,42.54,0,0,0-3.25-4.6c-3.56-4-7.37-4.07-8.77.11s-2.59,8.91-2.34,13.31c.17,2.91,2.38,7,4.83,8.17A7.6,7.6,0,0,0-1114.88,1629.77Zm4,16.15c5.5,6.47,14.65,7.85,23.57,3.2C-1095.06,1644.68-1103.16,1648.84-1110.89,1645.92Z" transform="translate(1222.92 -1545.92)"/><path d="M-1061.66,1622.07c-2.38,2.77-4,5.82-6.53,7.37-7.5,4.62-19.4,2.25-25.4-4.5-4.09-4.62-3.29-9,2.08-12.08,5.91-3.37,11.89-5.3,18.5-1.92a3,3,0,0,0,2.53,0c2.57-1.69,3-.39,3.22,1.89.06.65.93,1.19,1.32,1.85C-1064.66,1616.79-1063.43,1619-1061.66,1622.07Zm-10.87-4.68c-7.08-5-11.93-4.75-19.06,1.08,1.51,9.36,10.37,5,15.34,8.81Z" transform="translate(1222.92 -1545.92)"/><path d="M-1085.36,1768.79h-10.37v-13.38h10.37Zm-2.05-2v-9.55h-6.28v9.55Z" transform="translate(1222.92 -1545.92)"/><path d="M-1183.28,1729.76h-10.35v-13.43h10.35Zm-8.44-11.52v9.43h6.35v-9.43Z" transform="translate(1222.92 -1545.92)"/><path d="M-1163.41,1729.91h-10.21v-13.57h10.21Zm-1.83-2.1v-9.53h-6.44v9.53Z" transform="translate(1222.92 -1545.92)"/><path d="M-1143.41,1729.91h-10.21v-13.57h10.21Zm-1.83-11.59h-6.4v9.45h6.4Z" transform="translate(1222.92 -1545.92)"/><path d="M-1122.41,1729.91h-10.21v-13.57h10.21Zm-8.34-11.7v9.49h6.41v-9.49Z" transform="translate(1222.92 -1545.92)"/><path d="M-1102.41,1729.91h-10.21v-13.57h10.21Zm-2-2v-9.56h-6.23v9.56Z" transform="translate(1222.92 -1545.92)"/><path d="M-1092.89,1729.58v-13.2h10.56v13.2Zm8.61-1.82v-9.43h-6.35v9.43Z" transform="translate(1222.92 -1545.92)"/><path d="M-1063.11,1716.42v13.2h-10.56v-13.2Zm-8.51,1.66v9.56h6.23v-9.56Z" transform="translate(1222.92 -1545.92)"/><path d="M-1043.09,1716.31v13.29h-10.56v-13.29Zm-2.15,2h-6.4v9.45h6.4Z" transform="translate(1222.92 -1545.92)"/><path d="M-1023.23,1716.27v13.37h-10.46v-13.37Zm-2.07,11.65v-9.56h-6.31v9.56Z" transform="translate(1222.92 -1545.92)"/><path d="M-1013.82,1729.61v-13.3h10.56v13.3Zm2.15-11.39v9.4h6.42v-9.4Z" transform="translate(1222.92 -1545.92)"/><path d="M-983.39,1729.82H-993.7v-13.56h10.31Zm-2-1.9v-9.56h-6.23v9.56Z" transform="translate(1222.92 -1545.92)"/><path d="M-1065.23,1755.27v13.37h-10.46v-13.37Zm-2,2.11h-6.57v9.33h6.57Z" transform="translate(1222.92 -1545.92)"/><path d="M-1026.27,1768.78h-10.38v-13.47h10.38Zm-1.92-11.4h-6.57v9.33h6.57Z" transform="translate(1222.92 -1545.92)"/><path d="M-1006.29,1768.9h-10.33v-13.56h10.33Zm-8.38-11.68v9.4h6.42v-9.4Z" transform="translate(1222.92 -1545.92)"/><path d="M-996.73,1755.22h10.38v13.47h-10.38Zm8.49,2.1h-6.4v9.45h6.4Z" transform="translate(1222.92 -1545.92)"/><path d="M-966.39,1768.82H-976.7v-13.56h10.31Zm-8.23-11.65v9.58h6.33v-9.58Z" transform="translate(1222.92 -1545.92)"/><path d="M-1074.23,1735.27v13.37h-10.46v-13.37Zm-2,2h-6.4v9.45h6.4Z" transform="translate(1222.92 -1545.92)"/><path d="M-1185.79,1748.74v-13.39h10.49v13.39Zm8.38-1.92v-9.55h-6.28v9.55Z" transform="translate(1222.92 -1545.92)"/><path d="M-1155.21,1735.26v13.39h-10.49v-13.39Zm-2,2.06h-6.4v9.45h6.4Z" transform="translate(1222.92 -1545.92)"/><path d="M-1145.8,1748.63v-13.35h10.56v13.35Zm2.06-11.42v9.48h6.4v-9.48Z" transform="translate(1222.92 -1545.92)"/><path d="M-1124.81,1748.76v-13.43h10.53v13.43Zm8.46-2v-9.58h-6.38v9.58Z" transform="translate(1222.92 -1545.92)"/><path d="M-1094.22,1735.35v13.39h-10.39v-13.39Zm-2.11,11.43v-9.4h-6.42v9.4Z" transform="translate(1222.92 -1545.92)"/><path d="M-1056.75,1768.71v-13.33h10.42v13.33Zm2.16-11.53v9.55h6.28v-9.55Z" transform="translate(1222.92 -1545.92)"/><path d="M-1055.31,1748.91h-10.29v-13.55h10.29Zm-8.41-11.67v9.43h6.35v-9.43Z" transform="translate(1222.92 -1545.92)"/><path d="M-1035.11,1735.42v13.2h-10.56v-13.2Zm-2.13,11.39v-9.53h-6.44v9.53Z" transform="translate(1222.92 -1545.92)"/><path d="M-1025.73,1735.22h10.38v13.47h-10.38Zm8.52,2h-6.5v9.41h6.5Z" transform="translate(1222.92 -1545.92)"/><path d="M-995.21,1735.26v13.39h-10.49v-13.39Zm-2.17,11.66v-9.56h-6.23v9.56Z" transform="translate(1222.92 -1545.92)"/><path d="M-985.91,1748.69V1735.4h10.56v13.29Zm8.66-11.4h-6.42v9.33h6.42Z" transform="translate(1222.92 -1545.92)"/><path d="M-1176.77,1768.73v-13.37h10.46v13.37Zm8.36-1.91v-9.55h-6.28v9.55Z" transform="translate(1222.92 -1545.92)"/><path d="M-1156.89,1768.58v-13.2h10.56v13.2Zm8.48-1.76v-9.55h-6.28v9.55Z" transform="translate(1222.92 -1545.92)"/><path d="M-1126.21,1755.26v13.39h-10.49v-13.39Zm-2.2,11.56v-9.55h-6.28v9.55Z" transform="translate(1222.92 -1545.92)"/><path d="M-1105.31,1769h-10.29v-13.64h10.29Zm-1.93-2.19v-9.53h-6.44v9.53Z" transform="translate(1222.92 -1545.92)"/></svg>