<svg id="Layer_1" data-name="Layer 1" xmlns="http://www.w3.org/2000/svg" viewBox="0 0 556.06 249.94"><title>money_dinosaur_2</title><path d="M-309.18,1847.67c-1.89.36-3.78,1-5.66,1-10.22-.13-20.44-.24-30.64-.78a108.79,108.79,0,0,1-15.39-2.26c-11.89-2.39-24-4.27-35.55-7.73-12.53-3.73-24.62-9-36.81-13.74-1.4-.55-2.35-2.36-3.37-3.69-4.06-5.29-8-10.68-12.14-15.89a8.32,8.32,0,0,0-3.76-2.16,79.83,79.83,0,0,0-9.19-2.69c-1.58-.35-3.35.16-5-.07-7.32-1-8.06-4.33-6.91-11.86a27.15,27.15,0,0,1,1.9-5.64c.66-1.7,1.48-3.34,2.27-5.08-4.48-.71-8.79-1.11-12.95-2.11s-8.18-2.6-12.31-4c-1.68,7.66-6.1,14.44-11.08,20.6-2.3,2.85-6.87,3.86-10.41,5.7,1.82,1.09,4.23,3,7,4.1a100.41,100.41,0,0,0,33.3,6.92c8.9.24,17.77,1.38,26.65,2.18a8.21,8.21,0,0,1,2.17.85l-.08,1.2c-4,0-8,.24-11.92-.06-6.52-.49-13-1.62-19.52-2A94.77,94.77,0,0,1-511.3,1803a46.12,46.12,0,0,1-11.08-7.35c-1.06-.9-1.34-4-.68-5.43a71.37,71.37,0,0,1,16.57-23.63c1.91-1.76,4.1-1.62,6.11,0-9.9,3.92-14,12.68-18.69,20.94a66.29,66.29,0,0,0-2.69,6.09c9.81,1.4,14.91-1.45,19.13-10.25,1.71-3.55,3.69-7,4.95-10.73.83-2.48,1.67-5.55-2.69-7.84,2.07-.62,3.89-1.57,4.24-1.18.87,1,1.08,2.52,1.55,3.84l-.62,1.19,24.23,6.63.81-1.25c-1.84-2.81-3.55-5.74-5.56-8.43-5.63-7.55-11.41-15-17.06-22.51-.72-1-.77-2.55-1.61-3.29-3.37-3-6.95-5.67-10.42-8.51a37.82,37.82,0,0,1-4.08-3.59c-7.35-8.11-5.25-18.51-.16-26.13,5.66-8.48,8-8.85,18.58-7.51,5.15.65,10.33,1.13,15.49,1.75,8.93,1.06,15.65,5.53,20.53,13,4,6.12,8,12.26,12.42,18,1.63,2.1,4.72,3,7.06,4.61,3,2,5.77,4.2,8.76,6.12,4.8,3.06,9.89,5.7,14.49,9,3.72,2.67,7.18,2.57,11.53,1.88,7.56-1.2,15.36-.89,23-1.77,14.74-1.7,29.41-4.16,44.18-5.62,13.7-1.36,27.48-3.25,41.28-1.08,8.53,1.34,17,2.91,25.51,4.57a25.85,25.85,0,0,1,6.13,2.48c4.45,2.17,9,2.53,14,2.18a79.47,79.47,0,0,1,13.76.72c10.51,1.09,21.14,1.7,31.46,3.79,8.19,1.66,16,5.14,24,8,4.2,1.48,8.19,3.63,12.46,4.82,14.05,3.88,26.9,10.38,39.35,17.72,11.52,6.79,23.05,13.6,34.24,20.91a38.06,38.06,0,0,1,12,13.28c-6.39.93-12.06,2-17.77,2.52a179.64,179.64,0,0,1-19.4.74c-5.67-.12-11.32-1.36-17-1.49-7.53-.18-15.09,0-22.6.48-7.9.54-15.75,1.76-23.62,2.59-8.24.86-16.49,1.61-24.74,2.44-.29,0-.55.45-1.48,1.25l16.77,4.59c3.59,1,6.83,2.27,7.3,6.69.06.6,1.05,1.1,1.13,1.7.19,1.51.62,3.3,0,4.52a18,18,0,0,1-4.32,5.84c-1.72,1.45-4.12,2.11-6.33,3.16l1,1.12c1.8,2.16,1,3.58-1.47,3.87a38.24,38.24,0,0,1-7.86,0,3.19,3.19,0,0,1-2.27-1.9c-.16-.66.74-1.9,1.48-2.43,4.53-3.25,9.22-6.27,13.67-9.61.78-.59.73-2.31,1-3.53.08-.41-.23-1-.07-1.29,1.49-3,.89-4.21-2.94-5.41-6.11-1.92-12.22-3.87-18.38-5.64a56.22,56.22,0,0,0-6.26-.95,2.83,2.83,0,0,1-1.66-.73c-4-5.09-10.33-4.74-15.48-7.11-5.37-2.47-10.32-5.86-15.4-9-2.15-1.31-4.15-2.88-6.64-4.63,3.15-1.59,5.14.28,7.11,1.63,3.35,2.3,6.37,5.19,9.94,7,4.25,2.21,8.93,3.59,13.43,5.3a80.32,80.32,0,0,0,8.63,3.14,21.56,21.56,0,0,0,7.07.56c9.48-.84,19-1.83,28.42-2.91,8.85-1,17.66-2.46,26.53-3.26a84.92,84.92,0,0,1,17.53-.15c10.36,1.24,20.62,2.93,31.11,1.27,5.38-.85,10.86-1.06,16.28-1.61a34.36,34.36,0,0,0,4-1c-4.22-3.77-7.5-7.31-11.37-10-6.18-4.35-12.62-8.38-19.18-12.15-9.89-5.69-19.73-11.6-30.07-16.37s-21.26-8.23-31.91-12.33c-7.29-2.81-14.35-6.48-21.86-8.42s-15.7-2.42-23.6-3.35q-10.56-1.23-21.17-2c-4.27-.31-8.59,0-12.85-.36-2.37-.22-4.64-1.37-7-2-7.57-2.07-15-4.82-22.75-6a139.76,139.76,0,0,0-27.1-1.5c-11.85.59-23.64,2.56-35.47,3.87-4.3.48-8.64.72-12.94,1.2-6.27.7-12.5,1.64-18.77,2.25-6.53.63-13.1.9-19.63,1.55-2.18.22-4.27,1.27-6.44,1.66a5.07,5.07,0,0,1-3.28-.53c-8.75-5.41-17.42-11-26.14-16.42a51.2,51.2,0,0,0-6.5-3.65c-4.16-1.85-6.1-5.53-8.22-9.15-1.86-3.18-3.93-6.24-5.33-8.45-2.91.49-5.43,1.7-7.28,1a20.09,20.09,0,0,1-8-5.33c-1.07-1.22-1.62-4.75,2.38-5.13,1.24-.11,2.39-1.13,4.44-2.17l-12.21-4.73-.39.65,1.71,2.54c-.83.29-1.64.88-2.08.67-2.79-1.32-5.35-3.51-8.26-4.11-6.06-1.23-12.49-3.74-18.42-.23-5,3-7.31,8.19-8.75,13.68-2.6,9.94,3.79,18.17,12.5,21.31,2.68,1,4.49,4.68,6.43,7.34,5.59,7.69,11,15.49,16.57,23.23,2.38,3.31,4.84,6.57,7.44,10.1,2.4-2.45,5.23-4.7,7.22-7.54,2.59-3.69,4.83-2.44,7.62-.56a9.43,9.43,0,0,0,4.17,1.42c3.95.4,8,1.1,11.87.69,8.59-.92,17.12-2.48,25.68-3.69a10.38,10.38,0,0,1,3.1.52c-.83.59-1.6,1.53-2.52,1.71-6.18,1.18-12.36,2.48-18.6,3.19-4.38.5-8.86.11-13.3.12h-8.22c-1,5.06-2.87,10.24-2.81,15.4.06,6.1-5,8.64-7.45,13.55,25.19,8.12,48.68,2.28,71.83-7.23l.79.86c-.65.78-1.16,2-2,2.26-10.21,3.6-20.17,8.05-31.23,8.72-8,.49-16,1.39-24.24,2.13a51.4,51.4,0,0,0,3.77,5.41c4.08,4.59,7.58,10.42,12.7,13.23a124.45,124.45,0,0,0,26.89,10.49c14.79,4.07,29.83,7.23,44.85,10.4A112.29,112.29,0,0,0-341,1845.7c7.7.44,15.42.6,23.14.76,1.83,0,3.67-.49,5.51-.56a19.06,19.06,0,0,1,3.31.45Zm-147.13-82.58c-8.87,5.63-13.21,13.87-15.1,23.58-.56,2.89-1.34,6.09,2.12,7.89,2.75,1.44,5.34.21,7.84-3.14a37.88,37.88,0,0,0,7.56-19.15C-453.58,1771.08-452.29,1767.18-456.31,1765.09Zm-10.5-57c.85,3.11,4.89,5.86,8.26,4.76.75-.25,1.8-1.87,1.59-2.28a4.1,4.1,0,0,0-2.56-2A64.59,64.59,0,0,0-466.81,1708.13Z" transform="translate(634.95 -1609.27)"/><path d="M-626.45,1611.37c2.31,13.37-3.64,25.55-5.67,37.91,15.53,2.67,29.14,9.62,42.84,16.68,11.1,5.73,28.27,9.06,39.68,2.6-.56-1.92-.75-4-1.74-5.51s-2.7-2.29-3.53-3l3.11-10.71,3.85,5-1.52,1.32c1.63,1,4.14,1.62,4.73,3,1,2.47-.46,4.32-3.64,4l.25,5,4.25-3.61c.58,3.74-.07,4.7-4.37,6.67-9.34,4.27-18.93,3.72-28.76,1.9-9.49-1.76-17.22-7.21-25.73-11a226.27,226.27,0,0,0-21.75-8.51c-3-1-6.54-.45-10.5-.64Z" transform="translate(634.95 -1609.27)"/><path d="M-320.5,1825.92c3.87,5.12,7.67,10.3,11.64,15.35,3.79,4.82,9.44,7.29,14.89,8.75,10.34,2.78,21,4.41,31.59,6.14a75.7,75.7,0,0,0,14.12.78c14.43-.36,28.85-1,43.27-1.46a9.14,9.14,0,0,1,2.41.63c-.77.55-1.51,1.53-2.3,1.57-6.83.37-13.67.59-20.5.81-8.46.28-16.92.68-25.37.72-10.19,0-20.18-1.54-30.23-3.25a85.16,85.16,0,0,1-22.38-7.57c-6.35-3-9.84-9-14-14.22a34,34,0,0,1-3.05-4.22,23.07,23.07,0,0,1-1.36-3.85Z" transform="translate(634.95 -1609.27)"/><path d="M-500.1,1717.19c.87-3.56,1.79-7.11,2.59-10.68.68-3,2.43-3.06,4.66-1.77,5.41,3.14,7.35,8.36,8.33,14.13a12.76,12.76,0,0,1,0,2.23c0,6.2-1.07,8.52-4.3,8.34-5.76-.34-9.83-2.87-10.67-8.75a23.39,23.39,0,0,1,0-3.35Zm3.86,5.06-.68,1.26a62.34,62.34,0,0,0,6.06,3c.93.35,2.88.25,3.12-.24a7.76,7.76,0,0,0,.69-4.51c-.11-.6-2.08-1.33-3.11-1.2A41.49,41.49,0,0,0-496.24,1722.25Z" transform="translate(634.95 -1609.27)"/><path d="M-624.88,1614.65c.5-1.43.57-2.91,1.3-3.43a10,10,0,0,1,4.45-1.67c12.1-1.4,22.73,2.57,32.74,9a72.46,72.46,0,0,0,30.72,11.28c4.26.53,8.33,1.13,12.42-.68.62-.27,1.64.35,2.47.56l0,1.64c-3.78.46-7.62,1.58-11.35,1.27a76.15,76.15,0,0,1-35.71-12.21c-9.26-6-19.2-10-30.51-8.59C-620.22,1612.06-622,1613.36-624.88,1614.65Z" transform="translate(634.95 -1609.27)"/><path d="M-585.94,1633.6c.6-.74.77-1.18,1.06-1.28,4.68-1.54,13.77,5.16,14.2,10,.77,8.83-5.84,16.55-14.84,15.19-1.46-.22-3,.06-4.49,0-5-.38-7.66-3.28-7.75-8.2-.15-8.16,3.12-14.65,9.37-19.79,1.89-1.55,3.63-1.82,6.11.18-6.19,1.51-9.54,5.56-11.55,10.81a27.87,27.87,0,0,0-1.62,6.42c-.71,5.74,1.69,8.3,7.54,8.35,1.5,0,3,0,4.5,0,7.64.26,12.24-8.34,10-14.12-1-2.61-4.84-4.23-7.57-6C-582.27,1634.31-584,1634.18-585.94,1633.6Z" transform="translate(634.95 -1609.27)"/><path d="M-541.51,1670.76c.26-2.79.45-5.59.79-8.37.7-5.75,1.42-11.5,2.24-17.23.5-3.54,1.27-7,1.8-10.56.21-1.43,0-2.92.17-4.38a7.37,7.37,0,0,1,.67-1.77c.6.45,1.68.87,1.72,1.36a24.4,24.4,0,0,1-.22,5.19c-.84,6-1.78,11.92-2.66,17.89s-1.74,12-2.62,18Z" transform="translate(634.95 -1609.27)"/><path d="M-609.89,1622.79l-5.38-2.29-.49.8c1.9,1.84,5.57,2.6,4.13,6.64l-3.8.54-.84,4.17-.9.09-2.24-7.72,1.34-1.16c-5.85-4.94,1.65-4.9,2.35-7.27a50.42,50.42,0,0,1,4.3,2.71,23.81,23.81,0,0,1,2.64,2.76Z" transform="translate(634.95 -1609.27)"/></svg>