<svg id="Layer_1" data-name="Layer 1" xmlns="http://www.w3.org/2000/svg" viewBox="0 0 471.03 495.61"><title>motivational_dinosaur</title><path d="M1647.35,1670.06c0,3.17-.13,6.29.06,9.4.08,1.47-1.13,3.83,1.1,4.23,1.65.3,1.85-1.93,2.44-3.29a13,13,0,0,1,2.13-3.33,3.53,3.53,0,0,1,4.52-.92,3.11,3.11,0,0,1,1.39,4.31c-1.15,2.71-1.75,5.7-4.18,7.8-5.68,4.91-11.72,9.35-18.56,12.38-7.58,3.36-9.69,2.37-13.35-4.9-.44-.86-.86-1.72-1.43-2.86-.51,5.09-2,9.47-1.74,14.52.55,8.6,4.3,15.06,9.51,21.27a52.93,52.93,0,0,1,7.66,12.19,10.59,10.59,0,0,0,5.22,5c11.81,6.13,23.86,4.06,36.33,2.66,16.9-1.89,31.56-9.7,47-15.4,7.52-2.78,12.49-9,17-15.54,6-8.75,11-17.72,11.22-28.68,0-2.22.61-4.05,3.27-4.08s3.18,1.76,3.39,4c.87,8.81-1.64,17-6.12,24.2-5.71,9.22-10.94,19.09-21.25,24.43-2.85,1.48-1.75,3,0,4.52,3.47,2.83,7.37,5.26,10.36,8.52,9.39,10.28,18.5,20.82,27.58,31.39,2.24,2.6,5.25,4.64,6.41,8.12.42,1.25,1.32,2.86-.78,3.11-3.81.44-3.33,3.13-3.21,5.56.32,6.25-.17,12.26-4.05,17.56-1.59,2.19-3.45,4.2-6.12,2.41s-1.65-4.23-.33-6.63c5.89-10.64,4.94-21.92-3.34-31.24-6.63-7.44-12.27-15.67-19-23-5.12-5.62-12.1-9.21-17.14-15-1-1.18-2.12.23-3.17.51-8.17,2.22-15.12,7.68-23.61,9.06-13.88,2.25-27.67,6.43-41.83,4.8-11.18-1.28-21.57-4.63-26.77-16.7-2.3-5.35-6.7-9.8-10.22-14.61a20.11,20.11,0,0,1-3.66-7.5c-.69-3-.84-5.88-3.62-8.67-3-3-2.41-8.51-1.74-13,1.83-12.26,3.63-24.56,7.87-36.3,1-2.68,1.28-4.62-2.1-5.81-2.67-.94-4.87-3-3.39-6.11,1.35-2.85,3.94-1.85,6.06-.75,2.59,1.34,3.44,0,4.39-2.16,6.89-15.45,13.43-31.08,21-46.21a77.36,77.36,0,0,1,25.64-29.84c8.52-5.85,18.31-7,27.77-8.53a204.67,204.67,0,0,1,35.72-2.28,132.43,132.43,0,0,1,19.83,1.37c9.77,1.67,19.06,4,26.82,11.63,6.37,6.31,15.44,9.44,23.71,13.28,5.94,2.77,10.18,7.88,15.32,11.75,3.93,3,8.23,5.4,12,8.71,6.59,5.76,9.59,13.81,14.87,20.31,6,7.41,7.88,16.66,11,25.36a501.09,501.09,0,0,0,25.07,57.92c8.68,17.18,14.54,35.56,22.05,53.24,3.3,7.77,6.56,15.66,12.12,22.22,1.69,2,2.89,4.2.47,6-2.21,1.64-4.5,1.06-6.42-1.42-7.75-10-12.36-21.59-16.8-33.2-7-18.27-14-36.58-23-53.93-9.74-18.79-17-38.46-23.7-58.42-1.72-5.07-3.78-10.28-7.49-14.51-5.11-5.81-7.7-13.34-13.88-18.64-4.53-3.89-10.78-4.15-14.72-8.88-8.85-10.65-22.74-14.1-33.06-22.46-8.37-6.78-17.23-11.42-27.62-12.15-9.35-.67-18.68-1.8-28.25-.86-10.72,1.06-21.34,1.9-32,3.91-15.52,2.91-25.49,12.28-33.9,24.56-10.62,15.5-15.34,33.82-24.43,50-2,3.64-2,6.2,3,8.13A72.6,72.6,0,0,1,1657,1668c1.9,1.83,3.64,4,1.19,6.39-2.19,2.09-4.25.51-6-1.21C1650.73,1671.82,1649.56,1670,1647.35,1670.06Zm-7.17-5.54c-4.39-2.18-7.52-3.68-10.61-5.28-2.69-1.4-4.07-1.25-5.56,2.09-2.59,5.79-2.2,11.06.33,16.57,1,2.09,1.58,4.35,2.34,6.54,4.67,13.59,3.48,11,14.17,5.13.21-.11.27-.5.54-1.06-3.64-.13-7.65.34-8.37-4.71-.79-5.51.6-10.82,1.43-16.17C1634.8,1665.31,1636.77,1664.58,1640.18,1664.52Z" transform="translate(-1568.37 -1558.66)"/><path d="M1637.78,1827.26c-5.47,6.29-13.14,7.3-20.69,8.24-10.9,1.34-21.86,1.94-32.68-.5-3-.67-4.15-.13-4,2.85.19,4.8,0,9.56.7,14.4,1.24,9.18,1.89,18.48,2.21,27.75.49,14.61,2.7,29,4.58,43.47,1.62,12.48,2.71,25,4.59,37.45,2.19,14.51,3.1,29.38,9.86,42.87,1.93,3.86,4.36,6.53,9,7.59,5.61,1.3,11.34,2.47,16.65,5,3.62,1.71,7.51,1,11.18,0,4.13-1.16,8.27-.54,12.41-.63,2.08,0,3.57.86,3.63,3.19s-1.32,3.41-3.45,3.34c-4.87-.16-9.52,1-14.26,1.88a19.91,19.91,0,0,1-9.89-.39c-5.62-1.83-11.16-4.07-17.32-2.46-1.87.49-3.53-.46-4.89-1.91a9.67,9.67,0,0,0-5.41-3.29,5.49,5.49,0,0,1-4.07-4c-5.52-19.56-9.75-39.31-11.46-59.66-1.45-17.3-4.55-34.45-6.58-51.71a236.7,236.7,0,0,1-2-28.25c0-11.51-3.35-22.73-2.19-34.27a5.66,5.66,0,0,0-1.54-4.06c-6.3-8.27-4.49-17.15,4.79-21.94,12-6.18,25.05-8.3,38.25-9.39,7-.58,14.11-2.42,21.26-.13,5.44,1.75,8,4.68,7.94,10.43-.16,10.45,2.77,20.44,5.38,30.27,4.1,15.45,5.38,31.31,8.63,46.85,1,4.83,1.72,9.65,5.73,13.34,1.72,1.58,2.72,4.07,4,6.2,2.46,4.22,5.14,8.69,11,9,1.93.11,3.13,1.1,3.18,3.12a3.92,3.92,0,0,1-3.42,4.26,16.87,16.87,0,0,1-6.45,0c-11.11-2.5-17-9.58-18.67-21.05-1.74-11.95-4.21-23.79-5.91-35.74-1.84-13-6-25.46-8.13-38.36A5.82,5.82,0,0,0,1637.78,1827.26Zm-35.44,2.32c5.31.48,11.14-.58,17-1.73,8.32-1.63,15-3.88,15.89-14.3.29-3.58-.43-3.93-3-4.26a69.47,69.47,0,0,0-26,1.78c-4.94,1.23-11.26-.09-14.62,5.72-.29.5-2,.58-2.81.31-5.05-1.63-8.49,1.48-11.91,4.14-2,1.54-2.59,3.36.89,4.59A61.75,61.75,0,0,0,1602.34,1829.58Z" transform="translate(-1568.37 -1558.66)"/><path d="M1710.92,1658.25c10.76-4.8,14.69.63,17.28,11.76.92,4,.38,7.88-5.51,7.51a7.93,7.93,0,0,0-3.78,1.13c-1.45.74-3.29,1.69-3.31,3.36,0,1.46,1.77,2.19,3.12,2.89a24.25,24.25,0,0,1,3.33,2.15c6.36,4.79,10.53,3.7,13.56-3.64,4.47-10.84,9.08-21.61,10.6-33.45a23,23,0,0,0-1.65-13.07c-1-2.09-1.67-4.4.82-5.67,2.84-1.45,4.7.38,6,2.8,3.07,5.79,2.3,12,1.71,18.1-1.22,12.5-6.17,24-11.07,35.35a22.27,22.27,0,0,1-8.84,10c-4.67,2.86-9.06-.09-12.94-2.53-8-5-15.57-10.6-21.84-17.78-.78-.9-2.13-1.93-1.54-2.88,2.69-4.39-5.72-8.45-.19-12.88,2.87-2.3,4.5-5.72,6.75-8.58A114,114,0,0,1,1723,1633c.4-.31.78-.85,1.19-.88,12-.8,17.34-11.5,25.93-17.34,3.14-2.14,6.08-4.59,9.07-6.94,1.62-1.28,3.39-1.76,5-.33,1.8,1.64,1.39,3.58-.08,5.31-3.91,4.62-9.27,7.48-13.81,11.35-12,10.18-24.28,20-36.4,30A6.72,6.72,0,0,0,1710.92,1658.25Z" transform="translate(-1568.37 -1558.66)"/><path d="M1828.41,1894.27c-2.61,6.61-2.09,13.63-3,20.46a21,21,0,0,1-4.94,11.62c-2.23,2.54-4.85,2.78-7.46.62a27.93,27.93,0,0,1-8.26-12.22c-3.56-9.65-5.29-19.77-7.22-29.84-.89-4.63-3.25-8.69-5.56-12.71-1.28-2.22-2.33-4.49.41-6,2.44-1.32,4.63-.54,6.23,2.16,4.39,7.43,6.22,15.59,7.77,23.95s3.28,16.88,7.85,24.37c.52.85.94,2,2,1.93,1.7-.1,1.29-1.68,1.43-2.72,1.33-9.65,2.59-19.31,3.91-29,1.07-7.86,2.08-15.73,3.39-23.55.36-2.14.92-4.89,4.22-4.57s2.81,3,3.11,5.28c2.59,19.51,2.92,39.26,6,58.71a11.6,11.6,0,0,0,2.35,5.93c1.7,2,2.57,4.36-.06,6-2.37,1.43-4.5.58-6.35-1.89-2.8-3.73-3.25-8.18-3.41-12.28C1830.6,1911.74,1827.27,1903.24,1828.41,1894.27Z" transform="translate(-1568.37 -1558.66)"/><path d="M1998,1854.54c-2.61-16.12-8.27-31.21-11.6-46.89-.56-2.65-1.83-5.59,1.76-6.66s4.57,2,5.25,4.57q7,26.64,13.77,53.34a20.54,20.54,0,0,1,.14,5,3,3,0,0,1-2,3.13c-1.52.5-3.23.42-4-1.12-.91-1.91-2.48-2.36-4.21-3a15.55,15.55,0,0,1-6.95-5.33c-4.78-6.2-11.6-10.27-17.85-16.06a41.23,41.23,0,0,0,2.9,10.92c2.91,7.06,3.34,14.46,3.13,22-.06,2-.69,3.66-3,3.8s-3.6-1.07-3.52-3.24c.47-12.8-5.56-24.07-8.38-36.09a20.32,20.32,0,0,1-.71-5.39c.07-2.09-.52-4.62,2.25-5.47,2.5-.76,4.65.49,6.22,2.28C1979.11,1839.39,1990.12,1845.15,1998,1854.54Z" transform="translate(-1568.37 -1558.66)"/><path d="M1941.3,1891.52c0,3.3,0,5.64,0,8,0,2.07-.82,3.59-3.15,3.68s-3.31-1.25-3.42-3.39c-1-20.18-7.63-39.78-6.13-60.22.1-1.44-.52-2.92-.73-4.39-.31-2.24.2-4.07,2.82-4.38,2.13-.26,4.36.08,4.48,2.7.14,3.07,2.2,4.66,4,6.62,7.88,8.78,15.14,18,20.67,28.5,3.15,6,6.79,11.71,10.14,17.59,1.16,2,2.54,4.46.13,6.29-2.61,2-4.51.12-6.25-2-3.88-4.62-5.41-10.58-9-15.38-1.65-2.19-2.32-3-4-.17a20.08,20.08,0,0,1-4.11,4.34C1942.69,1882.85,1939.07,1886.46,1941.3,1891.52Zm-5.78-45c-.66,10.27,2.43,18.86,3,27.72.13,2.19,1.6,1.76,2.71.55,2.44-2.69,4.82-5.45,7.18-8.21a2.19,2.19,0,0,0,0-2.79C1944.37,1858.27,1940.27,1852.84,1935.52,1846.49Z" transform="translate(-1568.37 -1558.66)"/><path d="M1794.67,1897.25c-.74,11.71-.75,20.64-4.12,29.2-2,5-5.86,8.35-9.38,11.92-2.06,2.09-5.22,1.4-7.63-.83-5.57-5.17-8.08-12.16-10.58-18.93-1.08-2.9-2.28-5.83-3.23-8.81-2.23-7-2.75-13.91-.65-21a24.42,24.42,0,0,0,.54-6.91c0-2.94,1.25-4.54,3.72-6.35,7.27-5.3,13-3.62,19.5,1.75C1790.27,1883.35,1796.76,1889.26,1794.67,1897.25Zm-7,4.18c0-9.89-6.43-19-14.14-21.57-2.16-.7-3.35.37-4.26,2.26-3.82,8-6,16.17-2.65,24.74,2.5,6.44,4.28,13.16,7.77,19.23,3,5.26,3.88,5.51,7.76.68a9.8,9.8,0,0,0,1.44-2.54C1786.76,1916.45,1787.09,1908.19,1787.65,1901.43Z" transform="translate(-1568.37 -1558.66)"/><path d="M1919,2003.94c4-4.27,8-8.66,12-13,1.83-1.94,4.08-3.58,6.38-1.08,2,2.22.33,4.22-1.32,6q-11.62,12.94-23.15,26c-2.14,2.42-4.78,3.71-7.29,1.26s-.59-5,1.57-6.28c5.63-3.26,5.54-8.3,4.28-13.34-2.58-10.33-2.28-21-4.67-31.41-.88-3.82-2.19-3-4.11-1.53s-3.35,3.25-5.2,4.65c-2.06,1.57-4.53,1.84-6.18-.42s-.24-4,1.53-5.59c11.58-10.31,25.08-17.88,37.86-26.46,1.84-1.24,4.24-2,5.83.23,1.71,2.4.36,4.52-1.77,5.92-6.1,4-12.2,8-18.46,11.74-2.73,1.63-4.13,3-3.2,6.64C1916.19,1979.21,1915.83,1991.64,1919,2003.94Z" transform="translate(-1568.37 -1558.66)"/><path d="M1711.32,1910.29a77.54,77.54,0,0,0,6.22-17.34c2.44-9.57,6.72-18.34,10.72-27.26,1.15-2.57,3-5,6.11-3.58,3.46,1.63,1.75,4.57.54,6.88-7,13.31-10.9,27.74-15.27,42-1.61,5.21-.3,10.92,1,16.24a58.44,58.44,0,0,1,1.71,15.29c-.06,4-.26,7.94.75,11.91.54,2.12.84,5-2.37,5.7-3.55.8-4-2.15-4.74-4.48a10.72,10.72,0,0,1-.35-3.95c.9-10.08-1.53-19.8-3-29.62-.19-1.24-.44-2.47-1.87-2.55-3.94-.2-5.1-3.24-6.48-6.09-4.26-8.76-9.3-17.19-11.06-27-.47-2.64-1.62-5.62,2.16-6.49,3.26-.76,4.35,1.95,4.85,4.46C1702.06,1893.45,1706.57,1901.36,1711.32,1910.29Z" transform="translate(-1568.37 -1558.66)"/><path d="M1848.28,2021.56c.24,7.48.68,14.46-5.52,19.76-6.78,5.8-14.2,3.35-17.64-4.69-6.88-16.06-4.32-31.87-.37-47.78a30.09,30.09,0,0,1,5.55-12.09c1.5-1.82,3.53-2.92,5.67-1.36,2,1.42,1.67,3.48.29,5.3s-1.2,3,.16,4.84C1844.41,1996.36,1849.59,2008.16,1848.28,2021.56Zm-16.66-29.92c-3.67,14-6.39,27.47.07,40.83.14.3.28.61.39.92.47,1.33-.08,3.46,1.9,3.64a5.3,5.3,0,0,0,5.15-2.43,16.87,16.87,0,0,0,2.5-7.49C1842.73,2014.19,1839.23,2002.57,1831.62,1991.64Z" transform="translate(-1568.37 -1558.66)"/><path d="M1947.22,1953.1c-2.84,3.1-4.89,5.43-7,7.67-1.54,1.6-3.53,2.29-5.31.68-2-1.83-1.24-3.86.37-5.68,2.3-2.61,4.6-5.23,6.82-7.91,2-2.4,4-4.63,2.81-8.37-.85-2.73.44-5.18,3.88-4.65,2,.3,2.94-.5,4.2-1.72,3.82-3.68,7.82-7.17,11.72-10.77,2.1-1.93,4.61-2.65,6.64-.56,2.33,2.41.46,4.62-1.5,6.34s-4,3.43-6.2,5c-7.94,5.73-11.79,12.87-9.13,23a56.39,56.39,0,0,1,1.75,14.24c0,8,.49,15.89,2.89,23.6a12.12,12.12,0,0,1,.08,4.46,2.85,2.85,0,0,1-2.94,2.81c-1.69.1-3-.55-3.4-2.26-1.35-5.79-3.36-11.48-3.21-17.54C1949.89,1972.26,1948.41,1963.3,1947.22,1953.1Z" transform="translate(-1568.37 -1558.66)"/><path d="M1807.34,2017c.08,7,.89,14.16-3.15,20.34s-8.12,12.09-14.89,15.6c-2.24,1.16-4.42,2.42-6-.25s.37-4.92,2.48-6.23c5.34-3.34,9.79-7.66,12.11-13.37a41.8,41.8,0,0,0-1.52-36c-2.63-5.1-8.93-5.68-14.24-6.65-2.46-.44-5.41.08-5.22-3.66.17-3.36,2.94-3.21,5.23-3.06,17.35,1.16,22.89,7.12,25.18,23.84C1807.7,2010.63,1807.34,2013.84,1807.34,2017Z" transform="translate(-1568.37 -1558.66)"/><path d="M1903.83,1873.07c-1.18-10.24.75-19.67,7.54-27.91,2.1-2.54,4.33-3.45,6.73-1.55s1,4.06-.68,6c-8.31,9.59-7.66,21.13-6.7,32.61.44,5.15,2.46,9.93,5,14.44,1.66,2.91,3,5.93,7.39,5.16,1.91-.34,3,1.12,3.06,3.1a4,4,0,0,1-3.48,4.23c-4.76.92-8.29-.92-11.06-4.89A44.49,44.49,0,0,1,1903.83,1873.07Z" transform="translate(-1568.37 -1558.66)"/><path d="M1767.93,1998c-.25-1.92,0-3.75,2.38-4.12a4,4,0,0,1,4.8,3.29,28.81,28.81,0,0,1,1.15,7.83c-.46,12,2.92,23.57,4.48,35.33.35,2.62,1.25,5.16-2.32,5.85s-4.29-1.35-4.89-4.53C1770.75,2027.2,1769.77,2012.55,1767.93,1998Z" transform="translate(-1568.37 -1558.66)"/><path d="M2001.22,1940.19c.91,5.16-1.08,10.16-.94,15.32.06,2.07-.81,3.59-3.14,3.66-2.63.07-3.47-1.62-3.44-3.88,0-3.3-.23-6.59.51-9.91a20.86,20.86,0,0,0-.19-11.33c-2-5.68-.53-11.91-3.15-17.5a3.23,3.23,0,0,1,1.88-4.55c2.24-.76,3.87.21,4.8,2.36.53,1.21,1.61,2.45,1.54,3.62C1998.64,1925.51,2002.44,1932.59,2001.22,1940.19Z" transform="translate(-1568.37 -1558.66)"/><path d="M2024.71,1906.67c.11-1.46-.58-4.28,2.69-4.78,3.65-.56,3.8,2.24,4.11,4.8,1.37,11.18,4.65,21.91,7.5,32.75.59,2.25.92,4.87-2.25,5.66-2.72.68-4.07-1.21-4.69-3.38-3-10.79-6.09-21.6-7.36-32.79C2024.66,1908.44,2024.71,1907.94,2024.71,1906.67Z" transform="translate(-1568.37 -1558.66)"/><path d="M2016.31,1941c0,2.75-.19,4.61-2.52,5.07s-3.54-.82-4.3-3c-1.81-5.21-1.85-10.71-2.65-16.06-.54-3.61-1.58-7.09-2-10.67-.3-2.25-.59-4.93,2.67-5.5,2.85-.5,3.64,1.6,4.29,3.77C2014.38,1923.52,2014,1932.94,2016.31,1941Z" transform="translate(-1568.37 -1558.66)"/></svg>