<svg id="Layer_1" data-name="Layer 1" xmlns="http://www.w3.org/2000/svg" viewBox="0 0 394.4 290.29"><title>orpheus</title><path d="M1601.92,1659.12c1.27,1.86,3,2.29,4.59,2.79,4.16,1.28,7.3,4,10.62,6.7,7.86,6.41,12.58,15.11,17.5,23.55,2.45,4.19,3.67,9.21,5.39,13.86,2.6,7,3.26,14.85,8.54,20.84,2.83,3.23,3.54,8,7.36,10.67.83.59,1.35,1.25,2.47,1.1a2.35,2.35,0,0,1,2.8,1.36c.59,1.45-.43,2.27-1.37,3.16-5.16,4.87-11.45,6.89-18.37,7.08-5.75.15-11.5,0-17.25.06-3.79.06-6.86,4.28-5.86,8,.33,1.21.53,2.54-.74,2.87-2.93.76-2.45,2.91-2.61,5-.73,9.36,2,17.94,6.3,26,2.49,4.65,7.36,6.63,12,8.63,9.61,4.12,19.71,1.51,29.56,2.19,5,.34,10-.59,14.86,1.13,6.06,2.14,10.39,5.86,11.5,12.52a3.43,3.43,0,0,0,1.06,2.27c8,7.13,13.87,16.09,20.14,24.67,2.2,3,4.67,5.9,6.57,9.1,4.61,7.76,10.11,14.93,15,22.49,3.36,5.19,7,11,13.23,13.84,1,.46,1.94,1.09,3.52,2,0-2.18,0-4.1,0-6,0-1.47.4-2.89,2.22-2.86,1.59,0,2.07,1.34,2,2.67-1.06,13.84,8.43,23.49,13.72,34.8,3.1,6.63,8.79,11.38,12.63,17.46.64,1,1.5,1.62,2.19.15a9.28,9.28,0,0,1,3.67-3.63c2.71-1.82,2.81-4.51,2.56-7.33-.29-3.27,1.24-4,4.37-5,4.73-1.4,9.58-.31,14.18-1.83a11.83,11.83,0,0,0,4-2.59c2.33-2,3.43-1.69,5.13,1.24,1.19-.38,1.42-1.63,2.15-2.41,2-2.15,4.32-2.53,6,0,3,4.7,7.53,3.45,11.76,3.52,1.57,0,1.39-1.11,1.2-2.12a27.22,27.22,0,0,0-4.06-10.7c-2.91-4.18-4.29-9.24-7.73-13.18-5.29-6.07-9.37-13.11-15.62-18.44-3.17-2.7-5.58-6.3-8.25-9.57a8.1,8.1,0,0,0-7.51-3.23,66.52,66.52,0,0,1-7.86,0,1.85,1.85,0,0,1-2-1.87c0-1.16.73-1.75,1.77-2.12,6.46-2.23,16,.44,20.35,5.46s9.2,9.52,13.27,14.56c5.35,6.62,11.17,13.09,15,20.91,2.77,5.67,6.55,10.86,7.31,17.41a57.2,57.2,0,0,1,.19,10.46c-.22,3.39-2.91,4.6-5.74,4.92-7.51.85-14.29,4.24-21.58,5.82-4.35,1-8.66,2-13,2.73a99.38,99.38,0,0,1-12.49,1.47c-2.07.12-3.47,2.46-6.07,2.22-2.27-.22-4.38-.51-5.53-2.47-3.47-5.92-8.88-10.31-12.32-16.34-3.95-6.92-8.23-13.67-11.46-21-2.53-5.69-7.82-8.38-12.25-12-.66-.54-1.7-.73-2.18-1.37-4-5.2-9.54-9.16-12.08-15.48a3.88,3.88,0,0,0-.59-1c-5.91-7.24-10.15-15.61-15.88-23-3.59-4.65-7.38-9.21-10.48-14.32-3.37-5.56-8-10.31-13-14.61a4.27,4.27,0,0,1-1.7-2.7c-1.29-7.7-6.78-12.3-14.87-12.37-9-.07-18-.38-27,.11-6.05.33-10.79-2.18-15.69-4.9-2.35-1.31-4.51-2.88-7.13-3.83-3-1.07-5.94-3.23-5.67-6.73.4-5.12-2.57-7.1-6.52-8-3.71-.83-4.59-2.89-4.14-6.15.61-4.4-.59-7.68-4.9-9.81-2.55-1.27-3.55-6.67-2.26-9.16.94-1.82,2.7-1.68,4.27-1.56,2.78.23,3.86-.86,3.67-3.65a32.41,32.41,0,0,1,.69-9.3,3.14,3.14,0,0,1,3.33-2.82,18.26,18.26,0,0,1,9.12,1.62,32.86,32.86,0,0,0,8.85,2.52,60.54,60.54,0,0,0,16.79,0,23.18,23.18,0,0,0,10.65-3.79c-3.46-2.17-5.2-5.64-7.53-8.73-4.48-6-6.3-12.82-9.06-19.42-2.22-5.29-2.81-11.12-5.78-16.11-4-6.71-6.72-14.19-12.44-19.82-2.31-2.27-4.52-4.67-6.85-6.93-2.16-2.1-4.54-4-7.58-4.6-5-1-7.79-5.2-11.42-8.12-1.66-1.33-.68-3.82,1.54-4.16a13.13,13.13,0,0,1,5.58,0c6.51,1.91,13.15,1.34,19.74,1.27a17.55,17.55,0,0,1,10.17,3.16,40,40,0,0,0,10.58,5.45,18.45,18.45,0,0,1,7.79,5,19.91,19.91,0,0,0,4.23,3c10.65,6.39,21.22,12.91,31.88,19.27,7.49,4.46,15.23,8.5,22.69,13.05,3.47,2.12,8,2.52,12.29,2.84a10.62,10.62,0,0,0,1.87,0c11.51-1.39,21.7,2.29,31.3,8.15a20.38,20.38,0,0,0,5.51,2.3c10.52,2.74,20,8,28.93,13.76,10.45,6.75,19.21,15.41,24.95,27.09A101.39,101.39,0,0,0,1823,1774.6c2.79,3.65,4,8.15,6.82,11.94,6.86,9.18,11.47,19.81,17.93,29.31,3.24,4.76,4.58,10.42,5.78,16,1.33,6.1,1.38,6.32,7.69,6.46a191.56,191.56,0,0,0,36.9-2.3c8.25-1.41,13-7,16.5-13.75,1.87-3.61,2.73-7.73,4.07-11.62.79-2.3-.05-3-2.3-2.5-10.38,2.51-20.8,2.1-31.12-.1-7-1.47-11.71-5.16-14-12.69a45.8,45.8,0,0,1-1.43-19.54c.67-5.19,1.08-10.33,1.23-15.53a2.88,2.88,0,0,1,1.68-2.69c4.08-2.08,6.93-5.42,9.8-8.9s7.76-4.84,11.79-6.92a83.39,83.39,0,0,1,15.27-5.63c4-1.14,8.14-2.29,12.47-2.13a67.13,67.13,0,0,0,23.59-2.93c6.11-2,12.81-2.19,18.35,3.54s12.2,10.76,16.39,17.81a40.42,40.42,0,0,1,5.1,14.71c2.46,16.37,1.41,32.88,1.55,49.33.08,9.23.08,18.46-2.29,27.48a27,27,0,0,1-3.75,8.82c-6.32,9.16-13.76,17.31-23.56,22.54-13.05,7-25.51,15-39.54,20.25-6.66,2.46-13.44,4.34-20.17,6.48-.76.25-1.79.22-2.24,1.39.32.29.64.85,1,.89,6.56.74,8.34,7.17,12.57,10.66,3.63,3,3.06,6.81-1.3,8.52-7.81,3.07-15.36,7.32-24.2,6.83a2.62,2.62,0,0,0-1.12,0c-8.24,3.43-17.17,2.53-25.71,4.09a8.5,8.5,0,0,1-9.86-6.54c-1.06-4.23-.8-8.7-2.48-12.81a2.07,2.07,0,0,1,1.35-3,2.23,2.23,0,0,1,3.18,1.7c.64,3,1.08,6.12,1.63,9.18.45,2.44.94,4.87,1.55,8,6.45-5.3,14.39-7.54,18.81-14.89,1.26-2.09,4.86-3.38,7.71-2.27,2.6,1,2.75-.06,2.9-2,.47-5.86,2.32-6.79,7.14-3.4,2.31,1.62,5,2.62,6.95,4.89,1-1.29,1.94-2.39.19-3.57-3.08-2.06-5.68-5-9.55-5.67-1.22-.23-2.26-.64-2.22-2s1.19-2.12,2.56-2.17c8-.33,15.48-3.15,22.65-5.78,12.91-4.74,25.65-10.25,37.23-18.06,5.54-3.73,11.94-6.06,17.06-10.65,10.27-9.2,18.15-19.21,18.71-34.06.57-15.37.59-30.72.39-46.08-.12-9.27-.91-18.64-4.79-27.37a23,23,0,0,0-4.46-7.26c-4.34-4.3-8.58-8.69-13.11-12.82-4-3.67-8.57-4.4-12.78-2.62-8,3.41-16.29,3.12-24.63,3.2-4.89,0-9.4,1.94-14.06,3.2-7.08,1.9-13.52,5-20,8.17-1.18.59-2.62,1-3.07,2.81,4,.45,7.4,2.68,11.12,4,5.31,1.85,8.56,6.58,8.43,11.35-.1,3.54-2,5.44-5.29,5.58-5.74.24-11.5,0-17.25.09-2,0-3.11-1.39-4.47-2.47-1.65-1.31-2.74-1.29-3.4,1.09-2.34,8.39-1.4,16.62,1.73,24.49,1.4,3.52,4.81,5.9,8.57,6.79a66.45,66.45,0,0,0,29.27.65c8.43-1.77,16.54-4.64,24.86-6.76,2.27-.58,4.66-.55,6.89-1.52a2.14,2.14,0,0,1,3,1.39c.49,1.51-.45,2.47-1.73,2.85-3.44,1-6.92,1.85-10.39,2.74-.72.18-1.47.26-2.2.4-7,1.28-11.76,3.94-13,12.26-1.15,8-5.94,15.09-11.85,20.75-2.79,2.67-7.12,3.29-11,4.09-14.06,2.89-28.32,1.9-42.51,2.46-4.65.19-9.72-.51-14.15,2.45-1.58,1.06-3.93.41-5.87-.14-4.76-1.35-9.57-2.56-14.22-4.23-3.21-1.15-4-4.49-5.17-7.33a1.91,1.91,0,0,1,1.42-2.34,2.1,2.1,0,0,1,2.63.93c3.25,6.1,9.38,6.71,15.1,8.06,4.54,1.07,8.73-1.82,13.26-1.31.68.07.84-.78.7-1.46-.5-2.44-.84-4.92-1.54-7.3-3.5-11.86-11.56-21.33-17.13-32.13-3.28-6.35-7.67-12.12-11.28-18.35-3.2-5.52-5.93-11.52-10.36-16.33a8.21,8.21,0,0,1-1.62-2.5c-3.75-9.4-10.88-16-18.53-22.08a101.66,101.66,0,0,0-35.85-17.94c-2.57-.72-4.78-2.64-7.24-3.84-7.53-3.69-15.23-6.38-23.91-5.68-9.82.8-18.28-2.93-26.51-8.14-10.53-6.67-21.4-12.81-32.12-19.17-5.17-3.07-9.83-7.07-15.58-9.21-1.29-.49-2.28-1.89-3.32-3-3.29-3.37-8-3.92-11.9-6.09-.43-.24-1.1-.17-1.4-.49-6.48-7-15-5.56-23.16-5.64C1606.63,1659.48,1604.47,1659.26,1601.92,1659.12Zm226.72,269.14c-2-3-4.57-3.43-8-2.41s-6.72,4-10.76,1.44c-.7-.44-2,0-2.7.87-1,1.17-2.26,1.06-3.69,1.14a19.12,19.12,0,0,0-14.34,7.6C1802.79,1936.05,1815.85,1932.77,1828.64,1928.26ZM1886,1926c4.93-.18,9-2.83,13.47-4.22,1.61-.51,1.09-2,.48-2.78-.8-1.08-1.53-.08-2,.62-.86,1.3-2.14,2.26-3.4,1.26-3.19-2.5-6.18-.08-9.22.11-2.17.14-2,2.33-1.9,3.87C1883.54,1926.62,1885.15,1925.71,1886,1926ZM1609.1,1752.12H1609c0,.74,0,1.49,0,2.24.06,1.08-.25,2.4,1.29,2.73s2.15-.89,2.74-2c.68-1.32.93-2.84,2-4a2.52,2.52,0,0,0,.4-3.41c-1-1.49-2.85-1.57-4.38-1.67s-1.73,1.59-1.95,2.74A18.8,18.8,0,0,0,1609.1,1752.12Zm-3.65,9.39c-1.19.63-3.92-1.18-4.12,1.14-.23,2.67,3.12,3.1,4.82,4.6,1,.9,2.26,1.59,3.73.94.64-.29.7-.93.83-1.55C1611.55,1762.51,1610.59,1761.52,1605.45,1761.51Zm291.48.87c-2.52,5.63-8.35,3.92-11.65,6.86,3.24,0,6.49.13,9.73,0,2-.11,4.7,1.18,5.68-1.43C1901.82,1764.73,1898.08,1764.71,1896.93,1762.38Z" transform="translate(-1592.7 -1653.6)"/><path d="M1936.61,1776.5c-3.94-.38-8.93.67-13.86-.67-2.24-.6-4.32-1.62-4.25-4,.08-2.73.44-6.79,2.93-7.42,6.8-1.71,13.23-6.52,20.41-4.67,4.31,1.11,9.66.63,12.78,5.57,1.73,2.76,2.23,5.51,1.27,8.08-.9,2.38-3.9,2.89-6.32,3C1945.6,1776.67,1941.6,1776.5,1936.61,1776.5Zm1.51-4.32c3.24,0,6.49.11,9.72,0,1.46-.07,3.29-.49,3.66-2.08.32-1.42-1.28-2.35-2.28-3.19-2.25-1.87-7.66-1-7.85,1.18S1940.11,1771.38,1938.12,1772.18Z" transform="translate(-1592.7 -1653.6)"/></svg>