<svg id="Layer_1" data-name="Layer 1" xmlns="http://www.w3.org/2000/svg" viewBox="0 0 487.59 373.83"><title>party_orpheus</title><path d="M1887.15,1810.48c-15.67-.9-29.57-16.22-25.65-35.86A7.13,7.13,0,0,0,1858,1779c-1.56,5.43-5.58,8.91-9.16,12.92-6.72,7.5-14.4,14.19-19.7,22.91-.65,1.06-1.53,1.37-2.5.72s-.87-1.76-.3-2.67a69.32,69.32,0,0,1,7.81-9.54q8.57-9.39,17.23-18.7a15.74,15.74,0,0,0,3.53-6.1c1.12-3.63,4-6,6.43-8.61.71-.77,1.72-1.68,3-1.12s1,1.93,1,3c-.26,3.73-1.55,7.28-1.51,11.09.15,14,14.17,26.24,28,24.34,3-.4,5.91-4.33,5.93-8.55,0-9.07-4.42-16.09-11.28-21.37-5.55-4.26-11.82-7.57-17.71-11.4-1.59-1-2.74-.66-4,.46-.89.8-2.06,1.33-3,.26s.28-1.95.91-2.82c3-4.19,7.71-3.87,12-4.47,1-.13,2.18.1,2.13,1.48,0,1.16-1.16,1.1-2,1.2-1.32.15-3-.12-3.37,1.56-.16.74,1.07,1.31,1.9,1.57,1.47.45,3.09,1.56,4.28-.51a11.63,11.63,0,0,1,6.6-5.77c4.17-1.32,6.34,0,6.53,4.12.09,2.07.61,2.53,2.68,2.06,5.68-1.28,6.89-.32,7.09,5.43.07,1.93.48,3.17,2.7,3.07a2.68,2.68,0,0,1,2.93,2.36c.76,4.25,1,8.46-1.89,12.16-.23.29-.44.83-.69.85-5.46.38-3.13,4.22-3,6.91.38,7.27-2.52,11.9-8.86,16.15-11.35,7.61-22.65,15.46-32.81,24.72-2.3,2.09-4.76,3.95-6.73,6.46-1.66,2.12-1.19,2.89.82,4.22,8.1,5.36,15.8,11.33,24.34,16,1.82,1,2.77,3.94,4.7,3.42,1.59-.42,2.58-2.88,4-4.3,6.76-6.88,12-15,17.92-22.52,3.8-4.85,8.84-8.31,13.13-12.59a3.44,3.44,0,0,1,2.47-.57c7.41.75,14.71,1.43,21.6,5.13,5.33,2.86,11.29,4.54,16.1,8.5,2.44,2,4.24,4.2,4.08,7.55,0,.62-.14,1.54.2,1.82,3.44,2.83.72,5.1-.73,7.29-6.53,9.88-14.29,19-19.41,29.75a134.29,134.29,0,0,1-16.13,25.11c-3.92,5-9.25,8.77-12.58,14.31-.64,1.06-1.56,2-2.16,3-1.28,2.31-3.25,2.93-5.67,2.54a47.46,47.46,0,0,1-7-1.3c-4.16-1.32-8.23-1.09-12.53-.71-10,.88-19.7,3.12-29.29,5.61-12.45,3.23-24.73,7.33-35.83,14.08-3.48,2.12-6.43,5.1-9.66,7.64-1.83,1.44-4.81,2.46-5.34,4.24-.58,1.94,2.59,3.48,3.56,5.73,2.74,6.28.87,13.14-4.45,14.41-4.34,1-8.92.82-13.2,2.37-7.18,2.61-14.68,2.56-22.15,2.33-8.72-.27-17.52,1.06-26.15-.77-7.41-1.57-11.36-11.18-7.45-17.84,1.37-2.33,2.63-4.84,5.12-6.35,1.47-.89,1.72-1.74.16-3.11-2.53-2.22-5.46-3.92-7.74-6.48-1.16-1.3-3-.76-4.6-.2-15,5.37-30.28,3.9-45.47,1.57-18-2.75-33.15-11.17-46.84-23.21-7-6.12-12.18-13.36-18-20.28-8.72-10.31-14-22.63-21.25-33.82a13.44,13.44,0,0,1-2-7.48c0-10-.06-19.94,3-29.65a56.3,56.3,0,0,1,11.5-20.39c1.51-1.72,2.9-3.32,2.86-5.85a5.49,5.49,0,0,1,2.75-4.67c7-4.51,13.65-9.59,21.5-12.68,1.27-.5,2.58-.74,1.05-3.06-1.71-2.59,1.26-3.7,3.25-4,2.35-.39,2.93-.87,1.29-2.85a2.39,2.39,0,0,1,.27-3.39c1.12-1.22,2.51-1.85,4-1.1,2.55,1.25,5.18,2.43,7.64,3.76,2.26,1.21,2.23,4.39,1.44,6.69a17,17,0,0,0-.8,5.47c0,5.19,1.28,10.32.12,15.61-.64,2.94-.22,5.84-2.33,8.68-1.63,2.21-1.62,5.66-2.27,8.56a31.28,31.28,0,0,1-3.47,8,54.76,54.76,0,0,0-4.08,10.87c-1.26,4.44-2.15,9-6.74,11.57-1.72,1-.33,2,.31,2.7,3,3.17,5.83,6.56,9.2,9.26,6.42,5.13,12.86,10.25,20.65,13.42,6.93,2.81,13.26,6.95,20.27,9.68,12.06,4.69,23.14,3,33.47-4.74,4.28-3.19,9.26-5.37,12.74-9.7,2-2.49,2.4-3.86-.6-6.07a91.33,91.33,0,0,0-23.59-12.6c-5.71-2-10.78-4.7-14.78-9.65-4.82-6-10.89-10.83-16.12-16.48-1.64-1.77-4.7-1.93-6.36-4.28-2.94-4.14-2.31-8.63-1.42-13a62.74,62.74,0,0,1,3.67-10.6c.5-1.23,1-2.09-.69-2.49-3.67-.86-4.78-3.23-4.1-6.73a8.9,8.9,0,0,1,6.89-7,15.69,15.69,0,0,1,3-.09c1.89.08,2.59-.74,2.74-2.65.39-4.88,2.11-6.14,6.69-5.26,4.8.92,5,.78,5.28-4.12.16-2.68,1-5.2,3.82-5.75s6.16-.59,7.2,3.39c.46,1.74,1.4.84,2.27.45,2.16-1,4.31-2,6.51-2.83,3.28-1.29,5.67-.2,6.84,3.07,1.64,4.57,3,9.22,4.64,13.81,3.38,9.78,7.57,19,16.77,24.9,1.17.75,2.39,2,3.66,1.39,1.51-.66.75-2.47.75-3.75,0-12.47.29-24.92,2.22-37.29.94-6,3.33-11.48,5.07-17.18a89.73,89.73,0,0,0,2.57-11.6c.83-5,1.12-10.44,5.66-14.07a2.5,2.5,0,0,0,.84-1.62c.44-8.32,5.52-15.18,7.22-23.09.41-1.89,1.36-3.8.09-5.73-.07-.1-.16-.27-.12-.34,3.15-5.31-2.44-8-3.69-12-1.49-4.79-2.31-9.68-3.49-14.52-.41-1.66-.23-3.91-2.93-4.13-.81-.06-1.45-1.1-.8-1.66,3.31-2.85.83-6,.79-9-.67-.15-.77.24-.81.61-.13,1.51-.19,3.26-1.79,3.82s-2.77-1-3.58-2.17c-3.47-4.85-7.37-9.4-10.91-14.11-2.56-3.41-4.09-8.08-6.42-12q-5.2-8.87-10.2-17.87a17.91,17.91,0,0,1-2-4.81c-.42-1.95.35-3.26,2.71-2.47,2.59.86,5.46.88,7.85,2.34,6.68,4.09,14.67,4.75,21.51,8.34,2.73,1.42,5,3.64,7.74,5.11,2.37,1.28,4.61,2.33,7.88,2.06s7.06,2,10,4.37c1,.84,1.83,2.12,3.51,1,1.15-.76,1.74.2,2.3,1.12a48.74,48.74,0,0,0,10.67,11.92c2.15,1.82,3,4.45,4.65,6.59,2.55,3.31,6.2,5.41,8.56,8.82a3.26,3.26,0,0,0,2.18,1.35c3.14,0,5.23,1.82,7.47,3.68a11.64,11.64,0,0,0,8.91,2.73c9.49-.88,17.75,1.92,24.33,9a4.35,4.35,0,0,0,2.59,1.37c8.29,1.45,11,5.66,8,13.55a19.28,19.28,0,0,0-1.2,10.86c.53,2.84.81,6-1.33,8.63-1.43,1.75-.1,2.68,1.21,3.55,4.38,2.92,9.25,4.9,14,7.07.91.41,1.89.68,2.77,1.14,2,1,3.9,2.89,5.93,3,2.31.14,2-3.17,3.5-4.64,5.5-5.34,17.85-2.84,20.33,4.3,1.38,4-1.55,11.71-5.23,13.75-9.21,5.11-20.18,4-27.7-3.3-5.82-5.68-12.36-10.49-18.3-16-1.39-1.3-2.36-1.21-3.32.17-2.42,3.45-5.7,5.9-9.17,8.15a3.28,3.28,0,0,0-1.28,1.34c-2.31,6-8.15,8.11-12.55,11.8a5.54,5.54,0,0,1-4.84,1.54c-1.33-.3-2.39.34-3.58.61-7.89,1.83-7.79,8.45-9,14.45-1.34,6.38-.32,12.44,1.91,18.34,4.25,11.24,4.7,23.51,9.42,34.59,3.32,7.81,5,16.19,8.71,23.87,2.29,4.8,10.34,6.77,14,2.89,7.7-8.08,16.43-14.92,25.41-21.43,3.52-2.55,7-5.16,10.57-7.68C1885.38,1812.49,1886.74,1812,1887.15,1810.48Zm-62.69,132.1.81.54c2.16-1,4.26-2,6.47-2.85,15.57-5.74,31.4-10.54,47.93-12.64,7.36-.93,14.72-2.57,22,.67,1.92.85,4.3,1.22,6.07-1.13,3.6-4.78,7.61-9.2,11.68-13.61,5.23-5.66,10.24-11.59,14-18.44,6-11.19,11.79-22.56,19.91-32.48,1.21-1.49,2.13-3.21,3.26-4.93-2-.73-3-.28-4.14.89a14.57,14.57,0,0,1-12.12,4.7c-2.17-.12-3.68-.53-3.61-3.1,0-1.6-.91-2.19-2.4-2.17-1.25,0-2.5,0-3.75,0-6.23-.13-8-2.87-5.33-8.36,1.86-3.86.71-5.76-3.58-5.88-7.32-.22-8.29-1.47-6.77-8.59.07-.31-.12-.67-.25-1.27-3.38,2.09-5.73,5-8.05,7.85-4.62,5.72-9,11.66-13.63,17.34-3.6,4.38-7,9-11.14,12.88-.48.46-.54,1.5-1.46,1.41-1.1-.1-1.26-1.05-1.35-2-.3-3-2.2-5-4.66-6.4a161.07,161.07,0,0,1-20.81-13.9c-2.45-1.9-5.28-3.6-8.42-3.91-2.41-.24-5.71-2.58-7.07,1.94-.24.83-1.66.71-2.23-.08a24.48,24.48,0,0,1-2.47-4.11c-4.8-10-7.78-20.76-11.57-31.18-4.1-11.28-5-23.42-9.37-34.63-2-5.12-2-10.41-1.1-15.85.61-3.69,1.83-7.35,1.92-11,.06-2.69,1-3.49,3-4.26a100.34,100.34,0,0,0,17.79-9.52c4.82-3.11,8.61-7.53,13.39-10.74,6.79-4.55,7-6.84,1.57-12.62-1.49-1.59-1.76-3-.3-4.55s2.94-.88,4.32.25a28.7,28.7,0,0,0,3.18,2.58c2.37,1.41,3.19-.55,3.74-2.16.49-1.44,1.08-4-1.19-3.85-5.12.41-9.28-3.1-14.46-2.65s-7.1-2.34-7.26-7.37,3.72-6.58,7.23-8.42c2.67-1.41,5.88-3.47,6-6,.14-2.31-3.52-3.78-6.06-4.92-.56-.26-1.07-.66-1.64-.9-8.16-3.41-16.32-2.89-24.44.11-3,1.1-4.34,4-6.49,6.07-4.12,3.89-9.59,5.49-14.74,9,4.37,0,8-.08,11.58,0,5.58.17,10.28,3.76,9.64,9.42-.5,4.41-3,7-6.69,8.72-6.35,3-13,3.17-19.73,1.65-4.27-1-5.56-2.68-5.69-7-.1-3.31.51-6.28,3.22-8.61a8.86,8.86,0,0,0-1.89.56c-5.26,1.63-8.22,4.43-6.91,10.65.73,3.48.32,7.22,2.17,10.48,3,5.2,6.11,10.28,8.73,15.68,3.92,8.08,9.7,10.85,18.53,9.22.83-.16,1.48-.17,1.86.66a1.86,1.86,0,0,1-.4,2.08c-.82,1-2,.93-3.1,1-9,.3-15.64-3.26-19.73-11.42a99.88,99.88,0,0,0-6.08-11.17c-3.26-4.83-5.17-10.2-4.64-16.21a11.08,11.08,0,0,0-.08-3c-.22-1.18-.12-3.06-1.26-3.27-1.54-.29-2.33,1.54-3.22,2.65-.35.43-.27,1.2-.41,1.8a87.11,87.11,0,0,1-4.36,14.27,53.74,53.74,0,0,0-4,13.16c-.35,2.55-.52,6-2.82,7.48-3,1.92-3,4.66-3.51,7.38-.29,1.46-.19,3-.47,4.45-1.22,6.25-3.52,12.16-5.42,18.21-2.53,8-2.91,16.37-3.39,24.73-.55,9.49-1,18.92.46,28.35.18,1.18,1.07,2.76-.68,3.13s-2.21-1.23-2.29-2.69c-.1-1.68-.32-3-2.35-3.7-7-2.53-12-7.44-15.81-13.63-4.94-8-7.59-17-10.4-25.94-1.42-4.5-2.63-5.1-6.76-2.92-6.79,3.58-13.73,7-20,11.44-5.34,3.74-11.2,7.73-11.2,15.6,0,.88-.84,1.12-1.55,1.41a4.49,4.49,0,0,0-2.56,2.62,94.5,94.5,0,0,0-3.72,11.38c-1,4.52.61,8.76,3.66,10.2,4.08,1.93,8,2.1,11.87-1.08a43.52,43.52,0,0,0,14.06-21.07,116.26,116.26,0,0,1,5.28-13.94c2.09-4.5,5.91-8.55,4.58-14.23-.18-.76.69-1.29,1.55-1.2,1.06.1,1.41.88,1.52,1.83a17.44,17.44,0,0,1-2.66,10.71c-1.6,2.8-2.87,5.77-4.21,8.7-2.6,5.66-3.19,12-6.53,17.41-4.69,7.57-9.48,14.91-18.81,17.64,1.25,1.56,3,2.33,4.55,3.26a7.11,7.11,0,0,1,2.7,2.52c4.57,7.81,10.46,14,19.41,16.93a76.4,76.4,0,0,1,24.87,13.31,5.18,5.18,0,0,0,2.28,1.17c3.1.52,2.83,2.44,1.76,4.41a28.46,28.46,0,0,1-6.43,8.16c-3.06,2.63-6.8,4.24-9.89,6.73-10,8.07-21.46,9.41-33.21,6.23-10.23-2.76-19.35-8.6-28.78-13.37-10.63-5.36-19.51-13.35-27.15-22.58a5.87,5.87,0,0,0-3.1-1.93c-9.84-2.7-12.89-6.35-13.31-18.37a59.62,59.62,0,0,1,3.37-23.17c.44-1.17,1.57-2.87-.51-3.92a2.8,2.8,0,0,0-3.73.58c-5.92,6.8-11.48,13.77-14.12,22.68a69.54,69.54,0,0,0-3.24,16.85c-.24,5.92-1.65,12.21,1.27,17.73a247.9,247.9,0,0,0,14.73,25.18c7.82,11.33,15.44,23,26.9,31.26,7.57,5.46,14.73,11.5,23.48,15.27,5.16,2.22,10.8,2,15.93,3.92,5.92,2.27,12.12,2.88,18.34,3,9.83.18,19.57.38,29.17-3.28,3.67-1.39,3.06-2.42,2.15-4.69-1.55-3.82-3.22-7.67-3.58-11.79-1.14-12.81,1.26-25.09,6-37,1-2.42,2.9-4,4.72-5.73.72-.67,1.66-1.45,2.6-.43s0,1.85-.62,2.59c-1.37,1.6-3.18,2.85-4,4.93-5.91,15.92-9.25,31.83-1.8,48.36a24.36,24.36,0,0,0,11.08,11.64c2.7,1.47,6.15,1.59,9.28,2.19,1.65.32,3.22.92,2.85,2.73-.49,2.34-2,.8-3.2.43-4.21-1.29-8.16-1.7-11.44,2.32-2.56,3.14-5.17,6.09-4.59,10.57.36,2.74,1.69,5.3,3.85,6.43,2.51,1.32,2.26-2.19,3.44-3.34,3.7-3.64,6.09-3.53,8.86.92a8.35,8.35,0,0,1,.72,1.31c1.07,2.72,3,3.75,5.92,3.4a16.13,16.13,0,0,1,3.74,0c3.22.36,5.1-.43,6.24-4,1.68-5.33,6.09-5.78,9.57-1.46.32.39.53.86.87,1.22,3.1,3.35,7.75,4,10.11,1.11,1.18-1.43,2.23-3,3.5-4.36,5.59-6.16,7.81-6,11.54.85,2.29-2.88,2.32-6.47-.36-10.11-2-2.65-4.57-4.3-8.09-2.74-1.8.8-3.69.48-5.54.46-.89,0-1.93-.19-1.86-1.34s1-1.28,2-1.32a21.75,21.75,0,0,0,4.77-.76c10.21-2.89,17.53-9.85,24.14-17.53,2.41-2.81,4.79-6.18,5.28-10.17a28.76,28.76,0,0,0-5.27-21.25,9.94,9.94,0,0,1-2-4c-.18-.92,0-1.83,1-2.11.88-.23,1.26.52,1.67,1.17,4.47,7.15,8.31,14.34,7.55,23.37C1828.3,1935,1827.44,1939,1824.46,1942.58Zm-172.72-140.75c0-2.12,0-4.25,0-6.36,0-1,.46-2.21-.55-2.77s-2.15.39-3.05,1c-1.57,1-2.83,2.51-4.8,2.76-10,1.25-17.19,7.88-25,13.22-1.14.78-.75,1.4.12,2a18.93,18.93,0,0,0,2.57,1.5c9.33,4.19,17.53,9.51,20.7,20.08.21.72.65,1.85,1.62,1.89,1.24,0,1.45-1.26,1.78-2.11C1648.93,1822.94,1651.59,1812.65,1651.74,1801.83Zm162.46-129.37c-3-1.27-4.71-3.51-6.76-5.44a87.18,87.18,0,0,0-7.11-6.61c-1-.78-2.25-1.61-2.56.7-.75,5.73-4.68,9.78-7.75,14.22-3.86,5.56-9.15,9.88-13.82,14.75-1.21,1.26-2.94,2.12-1.88,4.6.67,1.57-.62,2.37-2.44,1.87,5.12.76,10.12,1,14.41-2.25C1795.59,1687.29,1805.7,1681.31,1814.2,1672.46Zm104.6,157.87c3.76,2.94,4.44,8,8.8,10.49A8.68,8.68,0,0,1,1931,1846c.76,3.14,2.62,4.83,5.26,6.26,6,3.23,12.4,2.13,18.71,2.22a2.71,2.71,0,0,0,2.61-1.8c1.81-4.17,1.18-6.93-2.51-9.9a29.1,29.1,0,0,0-7.9-4.93C1938.14,1834.43,1929.82,1828.71,1918.8,1830.33ZM1743.27,1644c1-2.82,2.31-5,2.49-7.23.26-3.2,3-6.62-.44-9.76-.77-.69,0-1.63.8-2.13a1.79,1.79,0,0,1,2.63.44,6.13,6.13,0,0,1,1,3.89c.25,5.36-1.8,10.23-3.15,15.25-.94,3.49-1,3.48,1.9,6.78,1-7.22,6.24-13.64,2.56-21.24,1.74-4.72-1.65-5.71-4.92-6.6a46.24,46.24,0,0,1-10.78-4.09,48.69,48.69,0,0,0-5.13-2.22c-.8-.34-1.72-.87-2.41-.07s.06,1.66.44,2.38c1.57,3,3,6.05,4.83,8.85C1736.42,1633.27,1739,1638.83,1743.27,1644Zm155.09,90.78c-1.7-.69-4.43,1.29-4-1.7.36-2.32,2.83-1.4,4.45-1.5s3,.24,3.08,2.33c.09,2.79-2.47,5.1-5.2,5.73-5,1.15-8.72-3.85-13.65-2.63-.16,0-.47-.23-.59-.42-4.15-6.65-11.81-7.34-18-10.65,6,4.51,10.72,10.47,16.86,14.71,6.5,4.48,13.43,4.85,20.47,1,5.43-3,6.17-10.63,1.13-14.06a9.94,9.94,0,0,0-10-.78c-4.11,1.88-4.18,5.28-.38,7.77a20.78,20.78,0,0,1,1.75,1.38C1896,1737.28,1897.2,1736.76,1898.36,1734.73Zm-142.45-102.34c-.19,1.35-.42,2.69-.58,4-.69,5.71-2.83,11-4.31,16.56-.77,2.87.59,5.59,2.51,6.36,2.1.84,3.6-2,3.89-4,.69-4.86,3.68-8.57,5.64-12.79,1.2-2.58,4.31-4.86,3.67-7.51-.71-2.94-4.77-3.06-7.22-4.65-1.06-.69-2-2.51-3.45-1.55C1755,1629.55,1756,1631.17,1755.91,1632.39ZM1888,1765c-.28-1.3.79-3.26-1.55-3.59-1.88-.27-6.08,3.34-6.8,5.84-.81,2.75,1.88,3,3.22,3.77,5.54,3.33,10.46,7.21,13.63,13,.77,1.39,1.27,3.13,3.39,3s2.7-2,3.44-3.54.5-3.19.36-4.8-.93-2.25-2.79-2c-4.59.64-4.78.32-3.58-4.19.42-1.58,1.07-3.32-.3-4.58s-2.8.18-4.2.47c-1.75.37-2.78,3.43-4.76,2C1886.27,1769,1888.56,1766.81,1888,1765Zm-261.15,68.29c-2.08,5,1.09,19.89,4.91,23.39,1.31,1.21,2.23.46,3.26-.25,3.55-2.46,3.77-6.49,4.85-10.14.49-1.65-.09-2.29-1.5-3.14A50.51,50.51,0,0,1,1626.81,1833.29ZM1628,1857c-6.28-11.72-5.88-23.71-2-35.84.5-1.52.26-2.4-1.25-2.88s-2,.46-2.57,1.81a57,57,0,0,0-3.42,22.73C1619.1,1851,1621.4,1855.9,1628,1857Zm175.83-161.59c-6.46-1-10.22,1.62-13.41,4.87-2.59,2.64-2.25,7.58.67,8.55a23.58,23.58,0,0,0,11.28,1.3C1795.63,1709,1798.09,1701.11,1803.8,1695.45Zm41.58,6.77c2.74.3,3.63-.44,3.42-3.56-.38-5.52.55-8.62,3.61-9.13.88-.15,2.09.5,2.57-.81.09-.25-.18-.74-.43-1-1.08-1-2.32-.29-3.1.22-2.81,1.86-5.69,3.57-8.6,5.27-2.08,1.22-3.75,3-2.85,5.86C1840.85,1701.77,1843.16,1702,1845.38,1702.22Zm-64.71-29.51c.61,1.18.7,2.93,2.09,4,.62.47,1.16,0,1.64-.44,3.15-2.88,6-6,7.36-10.14.25-.74.71-1.82-.4-2.28-.77-.31-1.33.47-1.91.93a2.67,2.67,0,0,0-.85,2.66c.12,1.78-.42,2.64-2.42,1.51C1784.4,1667.92,1780.7,1670.38,1780.67,1672.71Zm-99.15,121.84c-6.07-.5-8.43.36-9.71,3.37-.6,1.42-1.55,3,.72,4.06,1.74.77,3.3,1.06,4.44-1A27,27,0,0,1,1681.52,1794.55Zm94.21-109.61c1.19-1.3,2.28-2.47,3.34-3.66,1.78-2,0-3.68-.54-5.45-.23-.73-.64-1.32-1.59-1.2a4.73,4.73,0,0,0-3.54,6.69A40.6,40.6,0,0,0,1775.73,1684.94Zm10-43.19c-2.08,1.78-3.65,3-5,4.31-2.1,2.08.11,3.69.93,5.23,1.13,2.11,2.17.16,3.22-.44C1789.13,1648.39,1785.81,1645.34,1785.7,1641.75Zm20.3,55c5.43,2.61,5.53,2.84,5,10.16,3.33-1.57,5.08-4.59,4.14-7.15C1814.33,1697.67,1809.44,1695.87,1806,1696.74Z" transform="translate(-1556.85 -1612.62)"/><path d="M1906.35,1642.55a11.85,11.85,0,0,1-.75,1.67,143.33,143.33,0,0,1-11.11,15.83c-1.4,1.69-2.78,3.26-4.82,1.41-1.86-1.69-3.31-3.87-1.36-6.54,1.46-2,2.88-4.05,4.44-6a47.42,47.42,0,0,0,5.38-8.5,3.1,3.1,0,0,1,4.38-1.61C1904.11,1639.57,1906.06,1640.23,1906.35,1642.55Z" transform="translate(-1556.85 -1612.62)"/><path d="M1689.24,1721.33c0-2,0-3.22,0-4.46.07-3.44,3-5.27,6.11-3.81a1.89,1.89,0,0,1,.9,2.55c-1.25,3.92.66,6.67,3.29,9.19.72.69,1.3,1.52,2.07,2.14,3,2.4,2.81,4.41-.65,6.1a1.69,1.69,0,0,0-.31.21c-4.52,3.88-5.43,3.64-8.94-1.63A15.18,15.18,0,0,1,1689.24,1721.33Z" transform="translate(-1556.85 -1612.62)"/><path d="M1696,1634.78c-2.36,5-4.32,10.21-8.59,14.08a1.56,1.56,0,0,1-.65.34c-.7.21-9.3-5.79-9.31-6.5,0-1.23.83-1.67,1.81-2.06,5-2,9-4.83,9.36-10.83a1.3,1.3,0,0,1,1.48-1.33C1691.7,1628.62,1695.72,1633,1696,1634.78Z" transform="translate(-1556.85 -1612.62)"/><path d="M1686.78,1668.14c-.65-3.05,2.79-2.56,5.13-2.46,2.52.12,4.88,1,4,4.67-.66,2.79.35,5.35,2.4,7.49,1.64,1.71.81,8.45-1.19,9.49s-3.09-.49-4.11-1.7C1689.14,1681,1687.45,1675.48,1686.78,1668.14Z" transform="translate(-1556.85 -1612.62)"/><path d="M2013.75,1749.38c0,3.44-1.5,4.44-4.77,3.1-1.71-.7-3.2-1.73-5.23-1.79a5.67,5.67,0,0,0-5,2.54c-.62.79-1.13,2.28-2.58,1.48-1.19-.66-.88-2-.77-3.06a21.85,21.85,0,0,1,.67-4c.92-3.06.67-5.37-3.1-6a1.14,1.14,0,0,1-1-1.37,1.6,1.6,0,0,1,2.07-1.15,51.79,51.79,0,0,1,6.13,1.65c3.84,1.36,7.62,2.93,11.45,4.34C2013.72,1745.89,2013.79,1747.58,2013.75,1749.38Z" transform="translate(-1556.85 -1612.62)"/><path d="M1579.4,1817.29a14,14,0,0,1-.82,6.9,4.23,4.23,0,0,1-3.72,3.14c-3.82.46-6.92,3.33-10.93,3.45-2,.06-4,.76-4.43-2.33-.56-4.57.26-6.57,3.47-6.08,5.66.88,8.88-3.09,12.92-5.5a2.1,2.1,0,0,0,.52-.51c.79-1-.25-3.81,2-3.11C1580.5,1813.87,1579,1816.38,1579.4,1817.29Z" transform="translate(-1556.85 -1612.62)"/><path d="M1656.71,1697.91c.49,3.15-.64,6.16-.84,9.26-.22,3.52-3.3,4.63-6,5.14-3,.57-5.06-1.73-6.77-3.88a2.33,2.33,0,0,1,.59-3.06c3.67-3.41,7-7,8.26-12.07.34-1.39,1.6-1.36,2.76-1.31a2,2,0,0,1,2,2.18C1656.74,1695.42,1656.71,1696.67,1656.71,1697.91Z" transform="translate(-1556.85 -1612.62)"/><path d="M1696.76,1756.13c-.08-1.8.15-3.3,2.28-3.73,1.18-.23,1.82-1.24,2.49-2.16.82-1.12,1.72-2.31,3.32-2s2,1.63,2.29,3.06.81,2.62,1.16,4c1.56,5.88,1.54,5.88-3.56,9.33-.51.35-1,.82-1.47,1.16-1,.66-.52,2.93-2.2,2.62-2-.36-1.11-2.5-1.63-3.79C1698.32,1761.8,1696.52,1759.25,1696.76,1756.13Z" transform="translate(-1556.85 -1612.62)"/><path d="M1932,1786.25c.3,2.9-1.2,4.29-3.9,4.2a11.88,11.88,0,0,0-8.59,2.87c-1.33,1.15-2.43,1-3-.9A15.94,15.94,0,0,0,1915,1789c-.88-1.47-.38-2.5,1-2.94,3.77-1.19,5.91-4.43,8.77-6.75s4.14-2.32,5.87,1.17A14.33,14.33,0,0,1,1932,1786.25Z" transform="translate(-1556.85 -1612.62)"/><path d="M1935,1756.31c0,1.93-.2,2.88-1.48,3.46-2.94,1.33-6,2.57-8.5,4.66-.85.69-2.26.82-2.65-.16-.79-1.92-3.77-3.32-2-5.88,2.34-3.52,4.93-6.88,7.55-10.2a1.89,1.89,0,0,1,3.21.07A32.24,32.24,0,0,1,1935,1756.31Z" transform="translate(-1556.85 -1612.62)"/><path d="M1641,1632.85c0,7.85-8,15.53-15.66,15.19a8,8,0,0,1-5.49-2.78c-2.23-2.31-1.32-5.92,1.81-6.1,6.4-.38,10.69-4.53,15.63-7.56a1.31,1.31,0,0,0,.71-1.54c-.26-1.17-.51-2.46,1.25-2.32,1.32.09,1.69,1.31,1.74,2.5C1641,1631.11,1641,1632,1641,1632.85Zm-19.53,8.9c2.19,3.18,4.42,4.34,6.77,3.16,3.81-1.92,7.38-4.36,8.93-8.73C1632.35,1638.93,1627.8,1641.86,1621.44,1641.75Z" transform="translate(-1556.85 -1612.62)"/><path d="M1576.74,1699.23c0-6.53.27-6.75,6.26-7.56a22,22,0,0,0,8.27-3.34c1.07-.64,2.37-1.67,3.3-.32,1.22,1.79-.86,2.38-1.83,3-3,1.82-6.1,3.47-9.72,3.51-1.88,0-3.31.56-3.39,2.59-.07,1.65-.91,3.72,1,4.79a3.74,3.74,0,0,0,4.78-1,64.06,64.06,0,0,1,9.51-8.9,3.93,3.93,0,0,0,1-4.47c-.34-1.16,0-2,1.26-2.17,1-.1,1.61.65,1.69,1.62.26,3,.5,5.89-2.57,8a27.07,27.07,0,0,0-7.62,7c-2.31,3.47-5.89,3.5-9.39,2.9C1575.62,1704.22,1577.19,1701,1576.74,1699.23Z" transform="translate(-1556.85 -1612.62)"/><path d="M2028.21,1823c6.58-.11,10.33.46,12.11,8.69a18.19,18.19,0,0,0,3.28,7.44c2.16,2.76-.31,4.7-2.23,6.14s-4.42,1-5.39-1.26c-1.76-4.07-4.42-7.52-6.8-11.17-.71-1.09-1.49-2.35,0-3.22s2,.74,2.54,1.55c2.34,3.23,4.81,6.39,6.41,10.09.28.63.5,1.68,1.49,1.3s1.08-1.28.69-2.21c-1.41-3.32-2.45-6.76-3.58-10.18s-4.26-4.42-7.83-4.49c-2.05,0-5.82,1.2-5.83-1.2C2023.07,1821.54,2026.84,1823.9,2028.21,1823Z" transform="translate(-1556.85 -1612.62)"/><path d="M1950.1,1641.58a8.77,8.77,0,0,1,5.42,2.49,34.65,34.65,0,0,0,8.32,5.58c2.2,1.1,2.63,2.3.31,3.62-1.82,1-2.85,2.72-4.06,4.28-2.47,3.2-3.15,3.21-5.42,0a12.16,12.16,0,0,0-3.47-3.31c-1.7-1.08-3.16-1.62-4.26.67-.36.74-.88,1.25-1.75.85a1.54,1.54,0,0,1-.83-1.89c1.15-3.54,2.3-7,2.42-10.82C1946.82,1641.52,1948.62,1641.74,1950.1,1641.58Zm10.05,10.73a1.89,1.89,0,0,0-1.24-1.93,23.33,23.33,0,0,1-5.35-4c-1.32-1.23-2.63-1.39-3.61.44-.85,1.58-1.32,3,1,3.83a14.25,14.25,0,0,1,4.88,3.35c.57.56,1.15,1.73,2.09,1A14,14,0,0,0,1960.15,1652.31Z" transform="translate(-1556.85 -1612.62)"/><path d="M1663.52,1785.2a5.41,5.41,0,0,1-5.13-1.9,19.21,19.21,0,0,0-7.35-5.56c-1.74-.71-1.42-1.84-.5-2.94,1.6-1.9,3.2-3.82,5-5.57,1.51-1.5,3-.85,4.72.1,4.36,2.46,7.82,6.09,11.89,8.91,1.39,1,1.54,3.18.38,3.36C1669.1,1782.13,1667.25,1786.2,1663.52,1785.2Zm-5.69-13.42c-1.25.24-1.66,1.78-2.7,2.58-.47.37-1,1.14-.37,1.54,3,1.8,4.82,5.06,8.14,6.36,1.45.57,2.66-.08,3.65-1.17.56-.61,1.39-1.09,1-2.18S1659.28,1771.9,1657.83,1771.78Z" transform="translate(-1556.85 -1612.62)"/><path d="M1948.28,1711.28c-.44.19-.67.27-.89.39-1,.54-1.8,2-3.23.94a1.33,1.33,0,0,1-.16-2c1.27-1.26,2.13-3.28,4.42-3a4,4,0,0,1,3.44,2.54c1.4,3.85,4.55,5.06,8.15,5.54,2.08.28,2.93.93,2.06,3.16a52.3,52.3,0,0,0-2.23,7.11c-.53,2.23-1.62,2.66-3.48,1.58-4.77-2.79-7.16-7.48-9.58-12.14a1.52,1.52,0,0,1,.49-2c1-.65,1.65,0,2.14.8,1.63,2.51,3.19,5.06,4.84,7.55.62.94,1.42,2,2.7,1.53,1.12-.37.72-1.74,1.14-2.61.53-1.13.14-1.88-1-2.32-3.3-1.22-6.59-2.45-7.76-6.32C1949.18,1711.69,1948.56,1711.49,1948.28,1711.28Z" transform="translate(-1556.85 -1612.62)"/><path d="M1686.72,1768.75c0-.38,0,.12,0,.62-.07.89-.19,1.93-1.29,2s-1.45-1-1.38-1.87c.31-3.92-2-6.56-4.47-9.06-1-1.05-2.2-2.82-4-1.17-1.46,1.32-4.06,1.72-2.63,5.11,1.29,3.06,2.28,5.11,6,4a4.16,4.16,0,0,1,3.25.59c.92.54,1.7,1.2,1.28,2.38-.49,1.37-1.49,1-2.43.51a4.13,4.13,0,0,0-2.84-.42c-5,.79-10.32-5.46-9.09-10.48a4.27,4.27,0,0,1,2.42-2.68,5.22,5.22,0,0,0,2.78-2.87c1.2-3.49,2.67-2.78,4.53-.38a69.36,69.36,0,0,0,4.85,5.16A10.8,10.8,0,0,1,1686.72,1768.75Z" transform="translate(-1556.85 -1612.62)"/><path d="M1575,1745.53a18.59,18.59,0,0,1-.62,4.56c-1,5.12-.91,5.17-6,4.64a4.21,4.21,0,0,0-3.13.91c-2,1.55-4.27,1.09-6.48,1.06-1.59,0-2.24-.83-1.73-2.46.64-2,1.29-4,1.78-6.07,1.14-4.78,4.37-7,9-7.59.5-.06,1,0,1.49-.14C1574.51,1739.32,1575.05,1739.77,1575,1745.53Zm-6.76,6.25c1-.19,2.52.88,3-.59a28.41,28.41,0,0,0,.94-6.18c.1-1.48-1.09-1.71-2.31-1.72a9.13,9.13,0,0,0-9,8.57c-.06,1.67.55,2.46,2.2,1.47S1566.27,1751.52,1568.25,1751.78Z" transform="translate(-1556.85 -1612.62)"/><path d="M1998.05,1703.51c-5.55,0-6.74-1.5-7-8,0-.74.06-1.48,0-2.21s0-1.5.82-1.83a1.32,1.32,0,0,1,1.65.54c1.37,2.49,3,1.7,5,.77,2.25-1,4.59-1.85,6.77-3.09,2.73-1.55,3.71-.8,4,2.4.22,2.8-.69,5.43-1,8.14a2.61,2.61,0,0,1-2.42,2.47C2003,1703,2000.17,1703.28,1998.05,1703.51Zm8.26-10.54c-3.42,1.37-6.48,2.65-9.59,3.8a2.11,2.11,0,0,0-1.6,2.52c.17,1.33,1.19,1.35,2.22,1.43C2003.75,1701.21,2005.49,1699.79,2006.31,1693Z" transform="translate(-1556.85 -1612.62)"/><path d="M1928.79,1678.25a4.34,4.34,0,0,1-1.67,2.55c-2.81,2.72-5.18,5.69-6.32,9.54-.8,2.71-2.13,1.77-3.42.31-1.71-2-3-4.85-6.49-3-.5.25-1.22-.18-1.46-.88a1.5,1.5,0,0,1,.62-1.64,12.87,12.87,0,0,0,4-7.44,1.14,1.14,0,0,1,.13-.35c2.17-3.9,5.83-1.49,8.78-2,2.07-.35,4.33-.28,5.6,2A4.07,4.07,0,0,1,1928.79,1678.25Zm-3.5-.21c-2.7,0-4.54,0-6.38,0-2.65.08-2.4,2.33-2.94,4-.59,1.88.48,3.06,1.68,4.15.83.76,1.35,0,1.7-.63C1920.77,1683,1922.86,1680.9,1925.29,1678Z" transform="translate(-1556.85 -1612.62)"/><path d="M1644.73,1752.26c-1.88,0-4.13.11-4.68-2.13s1.8-2.53,3.23-3.42c2.22-1.37,4.45-2.81,4.78-5.79.09-.8.56-1.69,1.36-1.44a11,11,0,0,1,3.8,1.93c.83.69.09,1.67-.64,2.17a3.74,3.74,0,0,0-1.83,3C1650.3,1751.36,1649.34,1752.19,1644.73,1752.26Z" transform="translate(-1556.85 -1612.62)"/></svg>