<svg id="Layer_1" data-name="Layer 1" xmlns="http://www.w3.org/2000/svg" viewBox="0 0 156.53 188.85"><defs><style>.cls-1{fill:#0d0d0d;}</style></defs><title>pirate_dinosaur</title><path class="cls-1" d="M-1329.86,1373.59c-4.73-.62-8.13-3.46-11-6.86a6,6,0,0,0-2.71-2c-2.83-1-5.44-2.66-8.68-2.38a5.09,5.09,0,0,1-3.14-1.25c-2.56-1.85-5.28-3.48-7.92-5.23-1.15-.77-1.84-2-3-2.9a53.91,53.91,0,0,0-8.17-6c-1.22-.66-1.74-2-3-2.78-2.33-1.55-5-1.7-7.47-2.67a22.32,22.32,0,0,1-7.28-4.69c-1.48-1.4-3.49-2-4.94-3.57-3.31-3.54-6.23-7.42-9.75-10.78-1.3-1.24-2.61-1.41-3.69-.59-3.15,2.37-7,2.89-10.51,4.07-3.37,1.13-5.41,3.49-6.87,6.63a39.06,39.06,0,0,1-3.54,5.83,60.58,60.58,0,0,0-5.3,8.85c-2.08,4.38-1.68,9-1.7,13.67,0,1.33.86,1.18,1.69,1.18h9.75c1.55,0,3,.12,3.74,1.83a4.39,4.39,0,0,0,1.55,1.6c4.82,3.37,3.8,8.4,3.58,13.09-.07,1.56-1.85,2.18-3.33,2.54-4.27,1-8.63.43-12.93.43-2.12,0-2.67.59-2.59,2.65a90.74,90.74,0,0,1,0,12.23c-.34,3.61,2.21,5.41,3.75,7.92,1.75,2.85,5,3.9,6.93,6.06a7.36,7.36,0,0,0,6,2.79,1.63,1.63,0,0,1,.73.17c6.85,3.85,14.47,3.56,21.95,4.27,6.17.59,12.32.09,18.46.48,2.69.18,4.14-1.21,5.41-3.09a14.51,14.51,0,0,0,2.44-5.62c.32-1.79,2.28-2.42,2.88-4.22a18.79,18.79,0,0,1,2.27-3.77c.94-1.43,2.43-2.41,4-1.24s.72,2.4-.23,3.86c-2.82,4.38-5.83,8.68-7.48,13.7-.66,2-3.8,4.37-5.94,4.38-6.25,0-12.5,0-18.75,0-1.92,0-3.74-.64-5.68-.57-1.56.05-2.24.36-2.13,2.07.14,2.41-.14,4.85.07,7.25.36,4.25-.88,8.12-2.33,12a1.56,1.56,0,0,0-.18.71c.54,4.08-1.17,7.93-1.17,12a30.52,30.52,0,0,1-2.8,12.2,12.23,12.23,0,0,0-1.07,5c0,1.2-.48,2.16-1.83,2.24s-2-.86-2.18-2.18c-.35-3.42.71-6.54,2-9.6a29.1,29.1,0,0,0,1.82-8.88c.63-6.45.87-12.86,3.29-19.06.91-2.32.3-5.26.3-7.92,0-2,.53-4.33-.33-5.86s-3.54-.66-5.37-1c-2.57-.53-5.23-.91-7.5-2.43a1.64,1.64,0,0,0-.92-.36c-5.27.62-7.88-4.26-12.09-5.85a4.36,4.36,0,0,1-2.16-2c-1.3-2.68-3.29-4.82-5.13-7.09a5.69,5.69,0,0,1-1-3.78c0-5,0-10,0-15,0-1.69-.17-2.78-2.23-2.44a2.08,2.08,0,0,1-2.27-1.23,26,26,0,0,1-2.4-15c.3-1.91,1.94-1.9,3.33-1.8,1.69.12,2.15-.51,2.07-2.12a67.44,67.44,0,0,1,0-7.25,27.06,27.06,0,0,1,4.09-13.23c1.55-2.51,3.38-4.94,4.82-7.58,1.66-3,2.9-6.49,5.79-8.76a25,25,0,0,1,7.49-3.55c2.53-.89,5.28-1.17,7.53-2.92,1-.76,1.13-1,.25-2a15.24,15.24,0,0,0-4.85-4,3.11,3.11,0,0,1-1.86-2.19c-1.54-7.3-.9-14.7-1-22.06,0-1,.48-1.74,1.5-1.52,5.13,1.11,10.21-.25,15.32-.17,5.39.09,10.88-.52,16.14.63,4.55,1,9.06.76,13.59.88.79,0,1.72.14,2.06.69,1.38,2.23,3.57,2.11,5.53,1.74,2.68-.5,4.12,1.52,5.87,2.59a18.75,18.75,0,0,0,9.14,2.43c4.07.23,8.16.15,12.24,0a3.83,3.83,0,0,1,3.52,1.89c2.18,3.19,4,6.62,6.94,9.26a6,6,0,0,1,1.4,3.28c.62,2.88,2.52,4.66,4.57,6.16,3.14,2.3,3.53,5.9,4.51,9,1.58,5,4.29,9.24,7.31,13.47,3.26,4.57,7.35,8.57,9.84,13.69a7.77,7.77,0,0,1,1,3.25c0,1,.34,2.33,1.31,2.47,2.89.41,3.45,2.83,4.47,4.79.67,1.29,1,2.75,2,3.92a1.47,1.47,0,0,1-.18,2,1.18,1.18,0,0,1-1.78-.14,2,2,0,0,0-1.83-.55c-3.92.29-7.86.53-11.43,2.48a12.56,12.56,0,0,1-4.27,1.2c-4.69.73-9.07,3.27-14,2.32-1-.19-1.15.2-1,1.22.44,4.87.17,9.88,1.28,14.58a52.15,52.15,0,0,0,3.65,10.36,9.24,9.24,0,0,1,1.17,4.23c0,2.92.12,5.84-.06,8.75a11.4,11.4,0,0,0,1.44,6,32.31,32.31,0,0,1,3.55,14.76,107.09,107.09,0,0,0,1.23,12.79c.47,3.89,1.77,7.72,1.34,11.73a18.21,18.21,0,0,0,1.61,9.22c.51,1.17.59,2.37-.85,2.92-1.27.48-2.56.38-3.12-1.13a19.7,19.7,0,0,1-1.58-5.18c-.35-4.51,0-9-1-13.54-.51-2.3-.35-4.76-1.29-7a7.84,7.84,0,0,1-.29-3.47c.2-5.34,0-10.63-1.81-15.73a29.06,29.06,0,0,0-1.75-3.81c-1.89-3.57-1.79-7.47-1.36-11.22.51-4.39-1.24-8.08-2.73-11.85A36.54,36.54,0,0,1-1330,1385c-.08-2.65-.32-5.29-.48-7.94A6.77,6.77,0,0,1-1329.86,1373.59Zm-24.82-49.75,0,0c.61-.61,0-1.2-.27-1.45-2.55-2.31-5.19-4.5-7.67-6.89a33.09,33.09,0,0,0-6.94-4.76c-2.68-1.51-4.94-4.07-8.58-3.43-2.55.45-4.79-1.1-6.9-2.11a78.31,78.31,0,0,1-16.39-11.08,19.36,19.36,0,0,0-15-4.8c-.93.08-1.33.26-1.29,1.27.25,5.68-.62,11.43,1,17.05.22.76-.06,1.65.83,2.17,6.12,3.56,9.84,9.62,14.58,14.55a151.24,151.24,0,0,0,13.39,12.45,18,18,0,0,0,4.29,2.21c1.93.84,4,1,6,1.84,2.72,1.21,4.24,3.57,6.64,5a20,20,0,0,1,4.67,3.17,44.63,44.63,0,0,0,11.71,8.94c1.21.63,2,2,3.62,1.91,3.75-.12,7,1.5,10.31,3a4.94,4.94,0,0,1,1.82,1.64,17.17,17.17,0,0,0,12.87,6.93c4.82.39,9.1-1.33,13.56-2.27,5.26-1.11,10-4.19,15.69-3.87.39,0,.71-.22.57-.58-.55-1.32-.53-3.15-1.91-3.8-2-.93-4.19-1.35-6.27-2.09-3.53-1.26-7.5-2.16-9.63-5.44a30.7,30.7,0,0,0-4.64-5.45c-4.15-3.91-7.76-8.61-13.23-11-3-1.28-5.07-4.15-8.46-4.59-.79-.1-1.12-.66-1.59-1.09-1.63-1.52-3.42-2.84-5-4.41C-1349,1324.87-1351.52,1323.38-1354.68,1323.84Zm30.49,15c0-6.15,0-12,0-17.8a3.41,3.41,0,0,0-.16-1.47c-1.87-3.77-5.25-6.72-6-11.1,0-.07-.13-.11-.19-.17-2.66-2.44-4.3-5.66-6.39-8.54a3.68,3.68,0,0,0-3.39-1.88c-8,.07-16,0-24,0-.74,0-1.53-.22-2.19.28-1.64,1.23-3.54,1.3-5.46,1.2a12.46,12.46,0,0,0-5.88,1.49c-1.59.73-3,1.91-4.75,2.41,2.07.21,3.63,2,5.84,1.6,2-.31,3.58.55,5.35,1.39,2.26,1.06,4.07,2.7,6.11,4a40.27,40.27,0,0,1,7,5.39c2.68,2.69,5.19,6.15,9.67,6.3.29,0,.57.33.84.51,4,2.6,6.85,6.59,11.65,8.58C-1332,1332.76-1328.23,1335.81-1324.19,1338.8Zm-79.86-49.9a40.26,40.26,0,0,1,7.53,5.22c3.15,2.69,6.75,4.63,10,7.11.59.44,1.09.58,2-.1a19,19,0,0,1,6.54-3.19c5.21-1.23,10.53-2,15.6-2.91-1.53-1-3-2.76-5.52-2.2a4.3,4.3,0,0,1-5-1.88c-.5-.82-1.31-.57-2-.57-3.08,0-6.28.5-9.23-.14C-1390.48,1288.84-1396.88,1288.84-1404,1288.9Zm102.13,67.93c-1.66-5.77-5.45-9.35-8.35-13.47-2.12-3-4.44-5.89-6.5-9-2.3-3.44-3.31-7.35-4.72-11.16-.17,5.31-.07,10.59-.24,15.87a4,4,0,0,0,1.39,3.39c2.6,2.51,5.67,4.75,7.55,7.73C-1310.25,1354.25-1306.3,1355-1301.92,1356.83Zm-123.92,11a2.64,2.64,0,0,0-2.78-1.73c-2.58.06-5.15,0-7.73,0-.56,0-1.4,0-1.63.33-1.07,1.54-2.54,1.34-4,1.16-1.31-.17-2.09.18-1.89,1.72.09.73,0,1.49,0,2.24.18,3.32,2.23,6.29,4.72,6.71.89.15,1.84,0,2.74.06,1.43.17,1.65-.42,1.82-1.77.27-2.27-1.57-5.26,1.9-6.62-.06-2.78,2-2,3.55-2.12C-1428.08,1367.8-1427,1367.85-1425.84,1367.85Z" transform="translate(1448.09 -1286.25)"/><path class="cls-1" d="M-1382.06,1380.14h-8.25c-5.34,0-8.57-2.87-9.12-8.18a4.68,4.68,0,0,0-.65-1.82,1.64,1.64,0,0,1,.29-2.27c2-1.19,4-2.66,6.18-3.14A69.37,69.37,0,0,1-1375,1363c4.6.25,6.8,2,7,6.65.13,2.49.05,5,0,7.49,0,2-1.12,3-3.17,3C-1374.74,1380.11-1378.4,1380.14-1382.06,1380.14Zm-5.51-3.42c-.91-1.66-.59-3.35-.6-5,0-2.83,2.5-1.38,3.72-2.15.33-.21.8-.22,1.16-.4,3.72-1.8,5.85-1.08,7.56,2.53a5.78,5.78,0,0,1,.56,3.13c-.1,1,.36,1.38,1.3,1.24.72-.12,1.88.44,1.89-.94,0-1.82.28-3.66-.28-5.45a3.3,3.3,0,0,0-3.53-2.64,58.93,58.93,0,0,0-15.67,1.62,7.3,7.3,0,0,0-3.7,2.35c-.8.9.58,1.72.81,2.65C-1393.86,1375.65-1390.94,1376.92-1387.57,1376.72Z" transform="translate(1448.09 -1286.25)"/><path class="cls-1" d="M-1367.7,1316.89c.47.15.82.62,1.11-.41.37-1.27,1.83-.77,2.53-.47s.57,1.47.16,2.22c-1.24,2.27-1.18,2.27,1.14,2.65a15.79,15.79,0,0,1,6.8,2.75c.35.25.69,1.21,1.3.23l0,0c-1,1.08.25,1.29.72,1.44,2.21.71,2.88,2.33,2.77,4.4a20.5,20.5,0,0,0,.5,2.89c.08.94.69.78,1.23.77s1.33.24,1.25-.7c-.23-2.53,1.47-1.68,2.77-1.62-1.15.38-2.74.3-2.26,2.27a.56.56,0,0,1-.19.39c-2.95-.62-2,2.52-3.07,3.17a28.78,28.78,0,0,1-5.22,2.47c-.63.22-1,.25-1,1,0,2-1.12,2.6-2.88,2.55s-1.18.88-.76,1.75a2.48,2.48,0,0,0-.4.26c-.6-1.05-.84-2.3-1.88-3.1-.38-.29-.35-1.28-1.18-.7-.59.41-.47,1-.06,1.5l-.38.3c-.56.1-.42-1.64-1.31-.55-1.4,1.71-2.73,1-4,0-1.52-1.24-3-2.57-4.49-3.8-1-.83-1.46-1.73-.35-3.27-1.51.49-2.95-.85-3.49,1.64-.26,1.21-2.65.42-4.06.43s-.57-1-.57-1.75c.44,1.91,1.9,1.15,3,1.29.86.1,1.14-.18,1.39-1.15.44-1.72,2.07-.54,3.14-.83.54-.15,1.24,0,1.43-.7.23-.87-.39-1.15-1.11-1.28-.1-.12-.21-.24-.32-.35.89-.2.83-.89.78-1.55a2,2,0,0,1,1.38-2.09c.69-.32,1.73.54,2.13-.62.61-1.74,1.91-3.23,2-5.17,0-.9,0-1.81,0-2.72l.38-.3c.41.62-.14,1.46.46,2,1.55-.93,3.72-1.24,3.36-3.91-.06-.44,1.61-1,.42-1.77-.56-.36-1.35-.26-1.73,1-.28.94-1.33.73-1.32-.6Zm15.56,17.29a24.4,24.4,0,0,1-.64-5.12,2.65,2.65,0,0,0-1-1.92c-2.81-1.48-5.24-3.67-8.34-4.58-2-.59-4.41-.45-5.26,1.44s-2.2,3.5-2.24,5.61c0,1.2-.54,1.53-1.52,1.13-.75-.32-1.47-.7-1.88.25s.21,1.25,1.08,1.47,1.15,1.21.44,1.69c-1,.69-2,1.62-2,2.61,0,1.2,1.61,1.49,2.43,2.28a7.09,7.09,0,0,1,1.08,1c1.32,1.93,2.75,1.5,4.06.1,1.56-1.66,2.82-2,4,.36.45.91,1.33.91,2.18.76s1.17-.8,1.09-1.66a1.45,1.45,0,0,1,1-1.55c1.6-.37,2.69-1.73,4.18-2.07C-1352.25,1335.74-1352,1335.21-1352.14,1334.18Z" transform="translate(1448.09 -1286.25)"/><path class="cls-1" d="M-1382,1330.54c1.36-.33,2.33-.45,2.9,1.43s2.33.69,3.6.57c.11.11.22.23.32.35-2.61,1-3.56.71-4.62-1.3-.42-.81-1.14-.76-1.88-.7C-1381.75,1330.77-1381.86,1330.65-1382,1330.54Z" transform="translate(1448.09 -1286.25)"/><path class="cls-1" d="M-1360.81,1344.63c.43.52-.42,1.77,1,1.73,1.7,0,1.91,1.3,1.51,2.35-.47,1.25-1.57.86-2.45.18.1-.12.19-.25.29-.38.62.25,1.38,1,1.69-.26a1,1,0,0,0-1-1.33c-1.86.21-1.36-1.09-1.46-2A2.48,2.48,0,0,1-1360.81,1344.63Z" transform="translate(1448.09 -1286.25)"/><path class="cls-1" d="M-1369.21,1320.39c-.84-.24-.18-1.44-1.27-1.81-.48-.16-.59-1.95.48-2.46.75-.36,2.08-1.06,2.3.77l.06-.06c-.78-.33-1.62-.92-2.31.07s.1,1.32.71,1.86c.3.25.28.87.41,1.33Z" transform="translate(1448.09 -1286.25)"/><path class="cls-1" d="M-1346.19,1337.38c-.56-1.81-1.88-2.36-3.62-2.23,1.77-.36,3.61-.86,3.93,1.89C-1346,1337.15-1346.09,1337.26-1346.19,1337.38Z" transform="translate(1448.09 -1286.25)"/><path class="cls-1" d="M-1344.35,1335.05a1.75,1.75,0,0,1,.45,2.55,1.53,1.53,0,0,1-2.29-.22c.1-.12.2-.23.31-.34.51.33,1.14.59,1.55.09s-.05-1.19-.38-1.74C-1344.58,1335.28-1344.47,1335.17-1344.35,1335.05Z" transform="translate(1448.09 -1286.25)"/><path class="cls-1" d="M-1364.71,1347.89c-.69-.33-.65-1.13-.25-1.3,1.2-.51.64-1.44.75-2.2l.38-.3a3.81,3.81,0,0,1-.5,3.5Z" transform="translate(1448.09 -1286.25)"/><path class="cls-1" d="M-1381.65,1330.89c.16.62-1.51.25-.67,1.24a1.4,1.4,0,0,0-.39.26c-1.28-1.23,0-1.41.74-1.85C-1381.86,1330.65-1381.75,1330.77-1381.65,1330.89Z" transform="translate(1448.09 -1286.25)"/><path class="cls-1" d="M-1344.71,1335.39c-.34-.08-.88.14-.9-.47a.63.63,0,0,1,.37-.49c.5-.14.68.28.89.62C-1344.47,1335.17-1344.58,1335.28-1344.71,1335.39Z" transform="translate(1448.09 -1286.25)"/><path class="cls-1" d="M-1362.21,1348.82c-.64.92-1.31.71-2,.06l.33-.33c.5.46,1.15.22,1.72.34Z" transform="translate(1448.09 -1286.25)"/><path class="cls-1" d="M-1382.66,1333.83l0-1.44a1.4,1.4,0,0,1,.39-.26c0,.57.1,1.15.14,1.72Z" transform="translate(1448.09 -1286.25)"/><path class="cls-1" d="M-1364.21,1344.39c-.78-.3-.35-1-.5-1.5l.38-.3.5,1.5Z" transform="translate(1448.09 -1286.25)"/><path class="cls-1" d="M-1360.7,1348.89l-1.51-.07.06.07c.4-1,1.11-.47,1.74-.38C-1360.51,1348.64-1360.6,1348.77-1360.7,1348.89Z" transform="translate(1448.09 -1286.25)"/><path class="cls-1" d="M-1364.2,1348.88c-.6-.11-.45-.6-.51-1l.38-.3.46,1Z" transform="translate(1448.09 -1286.25)"/><path class="cls-1" d="M-1364.52,1337.88c-2.45.1-3.83-1.31-5-3a1.15,1.15,0,0,1,.32-1.74c.78-.4.93.36,1.16.85.69,1.53,2,2,3.55,2.33.69.12,1.78-.15,1.67.91S-1364.06,1337.61-1364.52,1337.88Z" transform="translate(1448.09 -1286.25)"/><path class="cls-1" d="M-1354.66,1333.38c.05.8,0,1.56-1.25,1.49-2.29-.13-2.12-2.12-2.53-3.52-.3-1,.77-1.09,1.47-1A2.57,2.57,0,0,1-1354.66,1333.38Z" transform="translate(1448.09 -1286.25)"/><path class="cls-1" d="M-1364.66,1325.8a3.28,3.28,0,0,1,2,3,1,1,0,0,1-1.51,1c-.87-.47-2.67.1-2.46-1.76C-1366.52,1326.87-1365.5,1326.39-1364.66,1325.8Z" transform="translate(1448.09 -1286.25)"/><path class="cls-1" d="M-1362.24,1331.94c-1.44.18.46,2.59-1.48,2.34-.74-.1-2.41,0-2.22-1.23s1.69-1.65,2.8-2.11C-1362.66,1330.74-1362.25,1331.22-1362.24,1331.94Z" transform="translate(1448.09 -1286.25)"/></svg>