<svg id="Layer_1" data-name="Layer 1" xmlns="http://www.w3.org/2000/svg" viewBox="0 0 315.1 272.48"><defs><style>.cls-1{fill:#fefefe;}.cls-2{fill:#fe7d36;}</style></defs><title>reddit-dino</title><path d="M-736.77,1669c-10.72,1-24.1-.66-37.51-1.14-9-.32-18.43-1.63-26-6.31-8.71-5.39-18.4-9.23-26.26-15.86-3.39-2.87-5.64-7-7.48-11.18-1.16-2.63-2.74-2.65-4.65-1.23-6.35,4.77-14.12,6.74-21.13,10.12A26.69,26.69,0,0,1-873,1646c-7.78-.7-15.45,1.69-23.25,1-10.57-1-21.3-1.22-31.67-3.25a126.48,126.48,0,0,1-29-9.11c-6.12-2.85-11.52-7.58-17.63-11-8.81-4.93-16.47-11.78-25.59-16.3-3.87-1.91-6-5.33-7.84-9-1.46-2.82-2-6-4.42-8.51a4.69,4.69,0,0,1,.17-6c2-2.26,4.86-.81,6.1.68,5.77,6.9,14.61,8.62,21.85,12.84,5.57,3.24,13.07,3.89,19.63,5.79a107.38,107.38,0,0,0,37.43,3.72c11.64-.76,23.56-.65,34.6-5,9.68-3.84,16.58-10.2,20-21a39.1,39.1,0,0,0,1.49-19.86c-3.36-17.26-.89-34.65-2-51.92-.51-8-2.57-16-1.72-24,1.31-12.11,0-24.24,1.12-36.24.47-4.83,0-10,3.21-15,2-3,1.91-8.21,3.47-12.3,2.74-7.2,6.11-13.94,13-18,6.24-3.67,12.84-6.26,20.27-6.68,11.06-.63,21.2,1.57,30.46,7.9a8.2,8.2,0,0,1,2.77,3.09c3.12,5.77,6.1,11.17,12.87,14.14,7.47,3.29,9.8,10.38,7.66,17.83a2.62,2.62,0,0,1-1.86,2c-5,1.31-4,5.06-3,8.32,2.54,8.38.38,16.09-3.54,23.26-1.41,2.58-4.84,4.2-7.58,5.87-1.91,1.17-2.56,1.8-1.18,4.06,5,8.25,9.37,16.92,18.15,22.14a12.65,12.65,0,0,1,4.46,5.16c1.59,3.08,3.78,5.73,7.93,5.27a2.22,2.22,0,0,1,2.61,2.34c.37,9.27,2.69,18.56-.53,27.8-1.13,3.23-.14,6.81-1.36,10.17s.87,4.75,3.9,5.68c10.25,3.12,20.73,3.66,31.36,4.3,7.08.42,14.71,1.62,20.8,6.36a7.8,7.8,0,0,1,2.91,6.94c-.16,3.66-.2,7.34,0,11,.27,4.93-.34,9.51-4.2,13-1.06,1-.67,2.12-.88,3.21a2.46,2.46,0,0,1-3.34,2.07c-14.59-3.77-30-5.23-43.7-11.36-9-4-19.21-5.46-27-12.12-1.8-1.54-3.06.09-3.48,1.74a69.87,69.87,0,0,1-5.92,15.71c-1.43,2.64.44,3.23,2,3.89,6.55,2.8,13.07,5.77,19.79,8.12,7.21,2.52,14,6.24,21.62,7.64a39,39,0,0,0,4.88.44c11.72.62,23.51-1.2,35.19,1a2.55,2.55,0,0,0,2.62-1c1.21-1.5,2.32-1,3.14.37,7.84,12.7,10.11,26.14,5.94,40.69-1.7,6-6.52,4.59-10.19,4.84C-718.35,1669.36-726.2,1669-736.77,1669Z" transform="translate(1013.4 -1396.84)"/><path class="cls-1" d="M-1006,1590.35c8.83,6.64,18.66,10.35,28.62,13.54a233.83,233.83,0,0,0,25.11,6.27c9.81,2,19.87,1.31,29.69.4,6.17-.57,12.4.1,18.58-1.44,8.72-2.16,17.69-3.91,24.73-9.65,4.54-3.71,7.42-9.21,10.07-14.66,3.3-6.77,2.72-14.16,4.18-21.21.57-2.76-1.29-5.56-2.28-7.66-3.24-6.85-.46-13.69-1.5-20.51,3.46,5.81,7.85,10.81,11.5,16.36A32.11,32.11,0,0,0-843.77,1563c8.64,4,17.47,7.23,27.07,8,2.74.22,5.1-.74,7.7-1.81,0,4,.13,7.86,0,11.68-.13,3,.88,4.28,4,4.13,3.82-.18,7.66,0,11.92,0a98.16,98.16,0,0,0-5.35,14.43c-1.77,5.85-5.15,2.81-7.34,2-1.94-.74-3.68-2.48-4.81,0-1,2.13,1.72,4,3.11,4.25,5.79,1.17,10.49,4.7,15.92,6.62,9.42,3.33,18.41,7.88,27.81,11.25,5.09,1.83,10.32,3.68,16,3.54,8.15-.2,16.32.09,24.48-.13,2.77-.07,4.72,1.42,4,3.36s3.91,5.57-1.9,5.91c-1.85.1-3.08,2.21-2.87,4.59s-.48,4.73,2.71,5.51c4.69,1.15,6.76,3.66,4.38,8.53a4.52,4.52,0,0,0,0,2.48c.37,2.16-1.32,5.22,1.44,6.3s5.75,1.2,8.38-1.75c.12,3.25-1.77,3.15-3.58,3.15-15.5,0-31,.54-46.47-.19-10.08-.48-20.32-.6-30.22-2.91-6.57-1.52-12.13-5.5-18.06-8.6-7-3.66-14.44-6.61-19.57-13-4.68-5.8-8.06-12.6-13.65-17.74-1-.94-.92-3.62-3.33-2-2,1.33-.77,2.93.06,4.3a38.54,38.54,0,0,0,2.58,3.44c-5.92,5.82-14.7,6.32-21.35,11.23-2.31,1.71-6.78,1.8-10.13,2.18a182.27,182.27,0,0,1-43.42-.12,167.87,167.87,0,0,1-23.84-5.15c-7.94-2.25-15.9-4.43-22.43-9-8.82-6.18-18.46-11-27.07-17.48-4.66-3.5-10.66-5.18-14.36-10C-1004.13,1597.18-1005.83,1594.11-1006,1590.35Z" transform="translate(1013.4 -1396.84)"/><path class="cls-1" d="M-802.35,1513c-1.73,0-3.4.43-4.69-.08-5.57-2.2-5.55,1.61-4.86,4.84,1.68,7.82,0,16,2.79,24-3.08-4.89-9.23-4.43-12.75-8.18-1.77-1.9-3.2.83-4.94.09-7.82-3.37-16-6.77-22-12.48s-8.73-14.42-11.08-22.62c-.36-1.26-.27-2.59-1.44-3.48-.73-.56-1.32-1.67-2.48-.71a2,2,0,0,0-.85,2.48c1.1,3.67,1.69,7.43,3.58,10.92,2.35,4.32,3.85,9.11,6.22,13.42,2.82,5.13,8.72,6.56,13.2,9.65,3.77,2.59,8.24,4.19,12.48,6.06,1.37.61,2.56,1.37,2.14,2.81-2,7-.46,14.15-.89,21.2-.14,2.37,0,3.51-3.28,2.54a46.38,46.38,0,0,1-26.89-20.1c-3.27-5-5-11.31-10.53-14.75-.43-.26-.34-1.53-.32-2.33.23-11.72-2-23.45-1.6-35,.54-15.31-.83-30.75,1.6-46,1.82-11.38,4.38-22.72,11.15-32.19a26.67,26.67,0,0,1,19.42-11.24c6-.64,12-1.62,18,.1,7.77,2.22,16.19,3.53,18.62,13.34.28,1.13,1.61,2,2.68,3.27-2.3.49-4.41.84-6.47,1.41-4.57,1.27-7.07,7.62-4.28,11.5,4.37,6.07,8.85,12.18,17.43,12.5,1.89.06,2,1.55,2.56,3,5,12.36.27,25.89-12.71,31.35-9,3.8-12.63,4.5-16.78-1.52a29.26,29.26,0,0,1-5.13-17.58c0-1.53.18-2.67-1-3.07-1.77-.58-2.83,1.21-3.22,2.37-.74,2.19,0,4.42.65,6.69,1.29,4.79,2.61,9.54,5.17,13.8,1,1.67,2.44,4,4,4.24,5.3.87,5.8,4.87,6.43,8.72C-811.25,1499.93-805.64,1505.62-802.35,1513Z" transform="translate(1013.4 -1396.84)"/><path class="cls-1" d="M-777.28,1585.24c10.21-.61,10.17-.67,10.33-10.32a94.17,94.17,0,0,1,1.14-9.68c10.79,3.3,21.61,5.55,32.82,4.71,5.15-.39,6,3.21,7.28,6.75.23.64.66.84-.27,1.33-4.29,2.27-4.39,7.25-4.6,10.68-.25,4.2,4.15,6.87,8.24,8.58a4.3,4.3,0,0,1,2.73,2.41c.52,1.33,1,2.61.24,3.66-.27.39-2-.15-3-.37-11.42-2.5-23.08-4.34-33.8-9.12C-762.9,1590.85-770.11,1588.91-777.28,1585.24Z" transform="translate(1013.4 -1396.84)"/><path class="cls-1" d="M-770.08,1553c.64,7.76-.42,15.44-.95,23.15-.21,3.09-1.13,5.19-5.23,5-8.42-.39-16.86-.12-25.3-.12-1.79,0-3.57.47-3.5-2.55.19-8.12.07-16.26.13-24.38,0-.36.5-.72.77-1.07,1.73.3,2.26,1.81,3,3a12.9,12.9,0,0,0,8.6,6.17,24.16,24.16,0,0,0,9.84.08c5.37-.78,8-4.89,10.77-8.85a2.68,2.68,0,0,1,1.18-.72Z" transform="translate(1013.4 -1396.84)"/><path class="cls-1" d="M-804,1541.92c-2.32-5.18-3-10.65-3.06-16.27,0-2.77.6-5.61-.62-8.39,9.73-1.08,19.24.36,28.73,2.3a9.26,9.26,0,0,0,3.39.39c5.15-.93,8.31.42,8.23,6.32,0,3.63.63,7.33.21,10.9-.63,5.31-1.95,10.53-3,15.79l.15.11c-2.6-2.9-.62-6.67-1.88-9.82-2-5.22-6.21-8-11-10.21A13.1,13.1,0,0,0-792,1533a21.47,21.47,0,0,0-9.54,7.07,16.75,16.75,0,0,1-1.91,1.65Z" transform="translate(1013.4 -1396.84)"/><path class="cls-2" d="M-782.16,1532c4.88,2.08,9,5,11.31,10a37.9,37.9,0,0,1,0,11c-2.28,5-5,9.42-11.15,10.15a38.25,38.25,0,0,1-11,0c-6.32-.52-8.61-5.48-11.16-10.15l.18-11.08-.1.07c1.92-.51,1.89,1.35,2.69,2.18.57.9,1.28,1.68,1.83,2.59.55,1.11.57,2.38,1.06,3.52.19.36.37.72.57,1.07a6.77,6.77,0,0,0,2.18,2.08c1,.88,2.26,1,3.36,1.6,2.22,1.91,4.77,2.07,7.47,1.45.42-.14.85-.25,1.28-.35,1.47-.3,2.95-.57,3.7-2.13.21-.4.44-.77.66-1.16a26.4,26.4,0,0,0,1.29-2.68c1-2.5,1.93-5.51,1.24-7.7-1.21-3.86-4.46,1-6.63-.61a6.1,6.1,0,0,1-1.32-.47c-1.2-.86-2.75-1.05-3.93-1.92-1.54-1.13-1.65-2.76-1-4.38s1.59-1,2.63-.23c1.5,1.15,1.52-.2,1.58-1.13C-785.28,1531.31-784,1531.09-782.16,1532Z" transform="translate(1013.4 -1396.84)"/><path class="cls-1" d="M-824,1552.13c.34-3.48-.7-7.61.94-11.6.44-1.06.42-1.75,1.86-1.22,4.32,1.61,8.38,3.35,9.57,8.51.76,3.26,1.86,6.45,2.59,9.71a7.58,7.58,0,0,1-3.54,8.49c-2.84,1.89-6.12,1.29-9,.56-1.73-.43-2.42-2.85-2.41-4.93C-824,1558.67-824,1555.68-824,1552.13Z" transform="translate(1013.4 -1396.84)"/><path class="cls-1" d="M-781.72,1508.89c-4.23.29-7.72-.18-11,2-4.2,2.72-5.93-1.59-7.7-3.95a45.73,45.73,0,0,1-8.67-18.05c-.9-4.22,2.65-3.1,4.15-4.26s3.21-1.5,4.3,1.05c.93,2.2,2.63,4.06,3.62,6.24C-793.85,1499-788.46,1504.09-781.72,1508.89Z" transform="translate(1013.4 -1396.84)"/><path class="cls-1" d="M-714.76,1600.91c-3-8.94-3-17.8-.93-26.81C-709.4,1577.4-708.73,1595.2-714.76,1600.91Z" transform="translate(1013.4 -1396.84)"/><path class="cls-1" d="M-792.58,1440.46c-5.47-2.92-10.65-5.55-13.47-11.32a3.19,3.19,0,0,1,.38-3.85c1.92-1.93,4.68-2,7.19-2.22,2-.22,2.4,2.14,2.33,3.07C-796.57,1431.18-792.84,1434.84-792.58,1440.46Z" transform="translate(1013.4 -1396.84)"/><path class="cls-1" d="M-703.82,1657c-2.22-6.15-7.45-11.16-6.19-18.28.11-.64-.16-1.38,0-2,.66-1.91.56-5.23,2.39-5.29,2.05-.07,2.2,2.87,2.76,5,.75,2.88.79,5.9,2.31,8.75C-700.48,1649-703.32,1653-703.82,1657Z" transform="translate(1013.4 -1396.84)"/><path class="cls-1" d="M-721,1592.79c-2.78-1-5.07-2.13-5.47-4.7-.15-1,1.72-1.24,2.91-1.08C-719.85,1587.52-721.31,1590.34-721,1592.79Z" transform="translate(1013.4 -1396.84)"/><path class="cls-1" d="M-712.43,1660.11c-1.72-3.25.94-5.8.78-8.63C-711.42,1654.31-706.16,1657.34-712.43,1660.11Z" transform="translate(1013.4 -1396.84)"/><path class="cls-1" d="M-788.5,1513.7c4.39-1,8.45-.65,12.11,2Z" transform="translate(1013.4 -1396.84)"/><path class="cls-1" d="M-715.93,1644c-1.28-.81-3.52-.83-3.93-2.85-.31-1.51,1.26-1.07,2.12-1.11,2-.08,3,1.36,3.62,2.83C-713.69,1643.89-714.86,1644-715.93,1644Z" transform="translate(1013.4 -1396.84)"/><path class="cls-1" d="M-713.27,1633.86c-2.29-1.19-1.83-2.89-1.46-4.71C-712.42,1630.33-712.92,1632-713.27,1633.86Z" transform="translate(1013.4 -1396.84)"/><path d="M-842,1435.29c-.32-2.93.77-5.79,2.73-8.94,2.33-3.74,5-4.9,8.89-4.3s6.4,3,7.44,7c.72,2.75,2.17,5.18,2,8.29-.3,6.62-4.81,12.63-10.06,12.66-4.67,0-11-7.24-11-12.6Z" transform="translate(1013.4 -1396.84)"/><path d="M-770.85,1553v-11c2,3.55.22,7.42.92,11.07A3.54,3.54,0,0,0-770.85,1553Z" transform="translate(1013.4 -1396.84)"/><path d="M-793,1563.15h11A14.83,14.83,0,0,1-793,1563.15Z" transform="translate(1013.4 -1396.84)"/><path class="cls-2" d="M-803,1540.16c2.38-4,6-6.43,10.16-8.17,1.53-.88,3.1-.36,5.65-.26-4,2.79-.69,7.16-3.64,9.8a6,6,0,0,1-2.75,1.58C-797.16,1543.54-800.56,1543.36-803,1540.16Z" transform="translate(1013.4 -1396.84)"/><path d="M-791.84,1541c3.56-1.89.15-6.49,4-9h-5a12.14,12.14,0,0,1,10.68,0c-.75.44-3.09-1.22-2,1.67.59,1.59.47,3.67-1.48,4.13-2.16.51-2.07-1.92-2.83-3.32-.51,3.57-.51,3.57,2.57,4.59a2.89,2.89,0,0,1,1.93,2C-786.61,1541.9-789.24,1542.35-791.84,1541Z" transform="translate(1013.4 -1396.84)"/><path d="M-803,1540.16c3,.87,5.78,2.32,9,2,0,2.58-1.78,2.82-3.6,2.39a5.7,5.7,0,0,0-4.56.45c-1.61-.38,0-2.82-1.92-3C-803.82,1541.33-804.46,1540.13-803,1540.16Z" transform="translate(1013.4 -1396.84)"/><path class="cls-1" d="M-802.16,1545c.14-2.52.66-4.53,3.56-2,2,1.72,3.4,1.34,4.6-.82.81-.21,1.81-.07,2.16-1.15,2.62-.29,5.25-1.51,7.85.07l-.09-.08c1.77,1.24,3.42.72,5-.39.86-.61,1.7-1.07,2.65-.28a2.3,2.3,0,0,1,.67,2.66c-1.08,3.69-1.08,7.7-3.31,11l.09-.11c-.89,2.35-3.18,2.41-5.09,3.09l.12-.09a8.26,8.26,0,0,1-6,.15c.29-2.2,2-2,3.28-2.52a10.21,10.21,0,0,0,1.11-.67c-1.24-1.48-3.47-1.83-5.93-1.73s-.71,2.14-1.63,2.84c-1.49,1.14-2.35.37-3-1a9.84,9.84,0,0,1-2.85-3.07l.09.11c-.75-1.18.57-2.93-1.07-3.87Z" transform="translate(1013.4 -1396.84)"/><path d="M-785,1555c-.93,2.25-3.41-.07-4.82,1.9H-784c-3.54,1.6-6.93,2.5-9.2-1.93-.2-1.62-1.92-2.08-2.84-4,3.77,0,7.3,0,10.83,0,.9,0,2-.3,2.16,1.22s.1,3-2.11,2.87c-.74-1.9-2.45-1.77-4.18-1.93C-787.94,1554.2-786,1553.56-785,1555Z" transform="translate(1013.4 -1396.84)"/><path d="M-779.08,1554c.79-3.58,1.43-7.2,2.45-10.72.29-1,.79-1.63-.08-2.54-1.28-1.35-1.49.54-2.22.62-1.73.21-3.7,2.82-5.15-.4,1.76,0,3.34,0,5-1.24,2.46-1.85,4.49-.27,3.9,2.37C-776.06,1546.17-775.37,1550.88-779.08,1554Z" transform="translate(1013.4 -1396.84)"/><path d="M-784.08,1557l5.09-3.09C-779,1557.74-781.85,1556.87-784.08,1557Z" transform="translate(1013.4 -1396.84)"/><path d="M-800,1547.16c4.51.14.91,2.53,1.07,3.87C-800.91,1550.2-799.62,1548.45-800,1547.16Z" transform="translate(1013.4 -1396.84)"/><path d="M-799,1550.92a5.29,5.29,0,0,1,2.85,3.07C-798.26,1554-799,1552.86-799,1550.92Z" transform="translate(1013.4 -1396.84)"/><path class="cls-1" d="M-824.93,1437.45c.29,3.57-.91,5.27-4.8,5-1.15-.09-1.27-.14-1.26-1,.07-4-2.19-7-4.25-10-1.26-1.84-.72-2.92.6-4.24s2.67-1.5,4.22-.06C-827.34,1429.92-825.15,1433.17-824.93,1437.45Z" transform="translate(1013.4 -1396.84)"/><path class="cls-2" d="M-786.45,1533c.59.73,1.17,1.16,1.32,1.72a.84.84,0,0,1-1,1.12c-.82-.15-.85-.85-.77-1.49A7.67,7.67,0,0,1-786.45,1533Z" transform="translate(1013.4 -1396.84)"/><path class="cls-2" d="M-785.84,1549v-4a7.74,7.74,0,0,1,5.68,0c.71,1.36,2.26,2.69.16,4.16A9.19,9.19,0,0,1-785.84,1549Z" transform="translate(1013.4 -1396.84)"/><path class="cls-2" d="M-788.12,1546.81a2.2,2.2,0,0,1-2.15,2.12c-1.26.11-2.7.36-2.71-1.69,0-1.25.11-2.22,1.74-2.24A2.88,2.88,0,0,1-788.12,1546.81Z" transform="translate(1013.4 -1396.84)"/><path d="M-780.16,1545h-5.68A4,4,0,0,1-780.16,1545Z" transform="translate(1013.4 -1396.84)"/><path d="M-785.84,1549l5.84.14A4.43,4.43,0,0,1-785.84,1549Z" transform="translate(1013.4 -1396.84)"/><path class="cls-2" d="M-785,1555c-2.73-.31-6.11,1.15-7.71-3h6.61c3.58,0,1.41,1.84,1,3.11Z" transform="translate(1013.4 -1396.84)"/></svg>