<svg id="Layer_1" data-name="Layer 1" xmlns="http://www.w3.org/2000/svg" viewBox="0 0 304.06 282.79"><title>smart_dinosaur_reading_docs</title><path d="M1815.76,1837c-.74-1.94-4.64-1.5-3.38-3.85,1.36-2.54,3.52-.06,5.13.65,1.81.81,3,.83,4.68-.54,3.65-3,7.5-5.81,11.4-8.52,4.06-2.83,4.15-2.84,1.62-7-1.1-1.8-3.76-4,1.14-4.21.12,0,.32-.08.33-.15.43-3.05,2.78-6.34,2.36-8.67-1.42-7.84-2-15.76-3.13-23.61-1-6.81-2.57-13.43-4.07-20.1-1.92-8.5-3.87-17-5.77-25.51a8.8,8.8,0,0,1-.06-2.24c0-1.1-.13-2.63,1.33-2.69s1.21,1.52,1.44,2.58q3.53,15.85,7.1,31.7a136.18,136.18,0,0,1,3.37,19.86c.21,2.88,1.08,3.8,4,2.29,9.11-4.74,19.14-6.21,29.15-7.42,4.67-.57,9.41-.84,14.16-1,8.88-.23,15.33,4,20.52,10.46a66.36,66.36,0,0,1,8.77,14.32c3,6.79,1.6,13.22-2.31,19.1-1.57,2.36-2.13,5.28-4.46,7.25-1.56,1.31.58,2.65.7,4.08.26,3.16,1.74,5.8,3.62,8.37,2.23,3.06-.16,5.3-2.33,6.86a17.73,17.73,0,0,0-5.55,6.87,8.64,8.64,0,0,0-.37,2c10.64-2.73,20.89-5.75,31-9.05,2-.66,3.41-1.94,3.09-4.45-.22-1.69.13-3.45,2.08-3.9,1.74-.4,2.91.88,3.42,2.31.71,2,1.86,2.18,3.75,2,3.22-.25,4.87,1.58,3.7,4.69-1.7,4.5-.48,8.67,0,13.09,1.27,12.09-.17,23.89-5.46,35a5.34,5.34,0,0,1-3.64,3c-9.34,2.61-18.73,5.07-28,7.86-4.87,1.46-9.56,3.52-14.36,5.24-2.32.83-2.3,2.68-2.22,4.6a41.27,41.27,0,0,1-4.31,19.14c-1.48,3.19-3.64,4.78-7.3,4.58-12.46-.69-25,.06-37.39-1.09-12.93-1.2-26.08-1.81-38.7-5.61a14,14,0,0,1-4-2c-4.2-3-9.74-4-13.24-7.48-3.81-3.75-7.32-3.41-11.74-2.72-11.29,1.78-22.73,1.27-34,.65-21.48-1.17-43-3.22-63.65-9.7a99.9,99.9,0,0,1-18.33-8.24c-5.79-3.21-10.29-8.05-15.93-11.36-.89-.53-1.64-1.27-1.2-2.46.54-1.43,1.81-1.56,3.1-1.56q10.7,0,21.37,0a174.4,174.4,0,0,0,37.82-4.16,120.42,120.42,0,0,0,32.43-12,61.21,61.21,0,0,0,17.1-14.33c2.12-2.51,2.63-4.91,1-8.46-2.15-4.8-1.41-10.48-.58-15.53,1.53-9.4,4.54-18.43,11.39-25.6.51-.54.95-1.33,1.58-1.55,4.47-1.6,4.62-5.35,4.78-9.16.23-5.52,1.92-10.77,3.07-16.12,1.61-7.5.19-14.92-.27-22.34-.57-8.93-1.57-17.83-2.12-26.78-.78-12.66-2-25.29-1.43-38,.34-7.62,1-15.14,5-22,5.45-9.07,13.09-14.22,23.85-15.07,14.6-1.15,25.94,5,34.38,16,3.62,4.71,6,9.56,12.32,11.61,3.87,1.24,3.14,7.74-1.14,9.57s-4.31,4.28-3.65,8.2c2.59,15.59-8.75,26.36-24.41,23.78-4.63-.77-9.43-.32-13.87-2.48-2.8-1.36-4.29-3.1-4.08-6.36s0-6.75.09-10.12c0-1.3.26-2.74,2-2.48s1,1.57,1,2.7c-.18,2.61,0,5.26-.27,7.85-.43,3.51,1.1,5.68,4.3,6.32,7.73,1.53,15.52,4.06,23.3.06s10.74-10.12,9.18-18.52c-1.2-6.48-1.2-6.49-7.53-7.81-.49-.1-1-.12-1.48-.21-5.32-1-6.88-2.53-6.46-6.41s4.56-8,8.46-7.42c3.21.46,2.59-.87,2-2.78-1.17-4.12-4.45-6.64-7.41-9.18-6.46-5.54-13.73-9.08-22.58-9.54-12.31-.65-23.76,7.41-28.17,19.84a37.65,37.65,0,0,0-1.77,11.38c-.37,9.94-1.31,19.95.65,29.86a10,10,0,0,1,.45,2.19c-.42,10,1,19.9,1.59,29.84.34,5.21,1,10.4,1.47,15.6.87,9.23-1.49,18.05-3.37,26.94a25.47,25.47,0,0,0-.36,3.71c-.1,1.59.13,2.85,2.27,2,.78-.32,1.75-.77,2,.63a1.67,1.67,0,0,1-1.09,2.13c-3.16.79-4.62,4-8.14,4.84-3.1.7-5.15,4.4-6.54,7.39-3.46,7.44-6.43,15-6.7,23.54a21.83,21.83,0,0,0,7.16,17.33c8.77,8.41,18.35,15.75,30.36,19.07a62.07,62.07,0,0,0,26.26,1.66c7.17-1.1,14.07-3.26,21.13-4.76,8.56-1.82,13.43-7.69,16.62-15.28,1.4-3.32,2.32-6.85,3.67-10.2,2.67-6.65-.74-11.76-4.6-16.27-4.33-5-10.55-7.85-16.07-11.46-1.56-1-2.78-.58-4.16.13a89.31,89.31,0,0,0-17.91,12.17c-3.76,3.31-8.43,4.83-12.2,7.9a1.35,1.35,0,0,1-2,0,1.73,1.73,0,0,1,.32-2.64C1813.13,1838.66,1814.5,1837.85,1815.76,1837Zm-159.47,56.73c4.24,5.77,10.39,9.1,16.26,12.28,10.93,5.91,23.07,8.67,35.27,10.69,8.58,1.41,17.24,2.34,25.9,3.25,4,.42,8,.38,11.94.68,13.32,1,26.64,1.45,39.88-1,2.07-.37,3.13-1.08,2.6-3.8a83.59,83.59,0,0,0-3.15-12.29c-.44-1.2-.78-3,1-3.48,1.56-.38,1.36,1.41,1.74,2.36a63.66,63.66,0,0,1,3.61,13c.94,5.38,3.15,9.65,9.31,10.6a9.16,9.16,0,0,1,4.55,2.48,24.13,24.13,0,0,0,11.73,5.48c6.59,1.37,13.46,1.19,20,2.55,16.33,3.39,32.88.87,49.22,2.73,2.8.32,4.38-1.15,5.54-3.51a49.22,49.22,0,0,0,3.84-12.47,26.33,26.33,0,0,0-15.23-28.48c-2-.85-4.19-1.53-5.85.45a26,26,0,0,0-3.65,5.62c-2.76,5.91-2.21,12.16-2.29,18.38a6.4,6.4,0,0,0,2.32,5.21c3,2.78,5.9,5.76,7.33,9.77.35,1,1.31,2.19-.17,2.93s-2.37-.41-2.83-1.63a14.93,14.93,0,0,0-4.46-6.37c-4.13-3.32-5.58-7.4-5-12.53.35-3,.42-5.74-4.09-5.61a4,4,0,0,1-4-3.82c-.18-2.67,2.11-2.42,3.7-2.63,2.93-.39,4.12-1.85,3.67-4.78a6.59,6.59,0,0,1,.1-3c.62-1.81-.25-1.86-1.69-2.16-5.24-1.09-10.44-2.41-15.65-3.62-.88-.2-1.91-.32-1.78-1.47s1.13-1.27,2-1.23a16.21,16.21,0,0,1,3,.38c4,.88,8,1.78,12,2.76,1.35.34,2.12.49,2.85-1.2,1.4-3.24,3.91-3.67,6.4-1.12a6.09,6.09,0,0,0,5.27,2.13,8.37,8.37,0,0,1,4,.71c7.77,3.21,12.63,9.16,15.61,16.74.84,2.13,1.67,2.7,3.76,1.82,12.77-5.35,26.25-8.45,39.48-12.33a6.13,6.13,0,0,0,4.09-3.39,49.56,49.56,0,0,0,5-18.27c.84-8.13.46-16.24-3.41-23.75-.61-1.18-1.12-2.77-2.71-2.76-1.4,0-1.82,1.51-2.56,2.5-2.59,3.5-1.21,8-3.15,11.82-1.27,2.5-1,5.83-1.25,8.8-.4,6-2.11,12.27,3,17.33a3.45,3.45,0,0,1,.52,1c.32.71.51,1.47-.21,2a1.45,1.45,0,0,1-2-.27c-2.24-2.22-4.37-4.54-4.48-7.94-.23-6.86-.34-13.79,1.41-20.44,1.06-4-1.35-7.12-1.6-10.72-.08-1.05-1.14-.63-1.83-.42-8.13,2.37-16.3,4.59-24.35,7.19-5.09,1.64-5.49,2.7-4.29,8.06,1.38,6.2,1.51,12.63,3.62,18.68.36,1,.5,2.07-.89,2.36-1.22.26-1.81-.51-2.07-1.62s-.58-1.92-.76-2.9c-.91-5-1.78-10-2.68-15-.3-1.7-.9-3.08-2.86-1.59-6.71,5.11-14.76,6.33-22.69,7.64-4.11.68-8.88,1.76-11.14-3.8-.88-2.13-2-1.25-3-.07a15.53,15.53,0,0,1-8,4.66c-13.2,3.75-26.46,7.44-40.4,6.18-6.94-.62-14-1.76-20.13-5.12-9.61-5.22-18.85-11.11-26-19.6-1.82,2.17-3.36,4.29-5.17,6.14-14.62,14.88-33.28,21.43-53.11,25.36-15.37,3-31,3.35-46.58,3.06C1659.31,1893.26,1657.79,1892.87,1656.29,1893.71Zm240.89-43.81c1.32-3.19,5-1.05,6.92-3.57-1.54-.62-2.74.56-4.08.41-1.16-.13-2.31-.16-2.6-1.59a3.5,3.5,0,0,1,1.14-3.4c1.06-1,2.07-.6,2.86.45a2.15,2.15,0,0,0,1.9,1c2.72-.17,4.71.53,4.27,4.42,1.61-1.5,3.35-1.93,2.46-4-3.4-7.82-6.7-15.68-10.22-23.45-3.38-7.44-8.27-14.21-9.58-22.58a12.38,12.38,0,0,0-3.18-6.79,51.2,51.2,0,0,0-2.12,9.82c-.27,2.34-5.55,7.5-7.32,6.76-5.05-2.11-10-1-15-.37-8,1.06-15.53,3.28-22.1,8.19-1.36,1-2.2,1.93-1.23,3.7s2.13,1,3.38.32a7.11,7.11,0,0,1,7.45.49c1.47.91,2.88,1.89,4.93,3.24-.37-2.25-2-3.92-.1-5.38a6.28,6.28,0,0,1,6-1,3.85,3.85,0,0,1,3.07,4.14,5.43,5.43,0,0,0,.21,1.84c.19.61.64,1.16,1.39.89.59-.22.47-.78.29-1.26a14.11,14.11,0,0,1-.66-1.74c-.71-3.27,2.49-2.42,3.82-3.53.8-.67,2.09-.9,2.62.2,1,2.05-1.24,2.3-2.16,3.29-.1.11,0,.38,0,.61,1.28.09,2.89-.91,3.73.68s-.91,1.76-1.63,2.47a1.17,1.17,0,0,0-.19,1.65c.59,1,1.28.55,1.87.07,1.18-1,2.22-2,2.2-3.73s-.06-3.25,0-4.87c.14-2.19,1.4-3,3.29-1.9a14.87,14.87,0,0,1,5.8,6.14,1.72,1.72,0,0,1-.21,2.09,1.19,1.19,0,0,1-1.69.13c-2-1.7-2.81-.83-3,1.37-.1,1.12-.7,1.6-1.71,2.14-3.67,2-7.14,3.51-10.93.1-.83-.74-2.86-1.7-3.71-.37s.58,2.7,1.84,3.62c3.58,2.59,4.55,7.05,7.29,10.26.76.88.38,2.12.19,3.25a88.82,88.82,0,0,1-7,21.56c-1.64,3.62.44,8.44,3.92,8.19,6-.42,12.13-1.15,17.68-3.71,3.73-1.72,7-3.59,9.77-7.57s5.87-7.62,7.62-12.4c-1.79.35-3.47.31-4.83,1.81-1.09,1.21-2.87,1-4.25.55-3.15-1.1-1.85-3.92-2-6.13-.06-.88.34-2.09,1.36-1.82,2.23.61.92,2.77,1.46,4.15A8.54,8.54,0,0,0,1897.18,1849.9Zm-56.53-50c1.41-.43,2.19-1.89,3.34-1,1.78,1.38,3.84.78,5.79.87,7,.32,13.94.43,20.89.93,4.32.31,4.3.56,3.54-3.52a11.25,11.25,0,0,1,6.67-12.14c4.51-1.86,6.88-1,8.9,3.4,1.53,3.29,2.88,6.19,7.13,7.52,8.07,2.52,14.27,7.71,17.35,16.57a9.86,9.86,0,0,0-.65-6.49c-3.09-6.27-6.38-12.42-11.35-17.46-4.67-4.74-10.1-7.36-17-7.09a142.4,142.4,0,0,0-26.93,3.52c-5.57,1.3-11.08,2.87-16.13,5.73-1.23.7-1.86,1.19-1.6,2.81A42.7,42.7,0,0,1,1840.65,1799.86Zm53.65-1.09a19.81,19.81,0,0,0,3.33,10.51c2.56,3.85,4.27,8.13,6.43,12.18.92,1.74.55,5,2.83,5s2.1-3.3,3.09-5.1C1915.34,1811.56,1903.36,1799.72,1894.3,1798.77Zm-41.42-107.5c-.29-1.44-1.49-2-2.57-2.87-5.37-4.22-10.28,1.91-15.49.57-.06,0-.22.42-.37.62-1,1.27-1.8,2.77,0,3.77,1.33.74,3.25,2.75,4.45-.38a2.44,2.44,0,0,1,2.23-1.74c3.37,0,6.91-1.42,10,1C1852.47,1693.19,1852.52,1692.07,1852.88,1691.27Z" transform="translate(-1648.58 -1659.27)"/><path d="M1812.74,1701.22a29.36,29.36,0,0,1-6.65-.49c-4.93-1.23-6.5-2.51-6.32-5.82.26-4.67,3.1-8,7.46-8.33,3.58-.27,7.21-.48,10.54,1.52a6.31,6.31,0,0,0,2.86.62c2.72.16,4.51,1.56,5,4.15a5.46,5.46,0,0,1-2.8,6.33A16.44,16.44,0,0,1,1812.74,1701.22Zm-3.49-12c-2.51.27-4.87.82-5.77,3.44-.49,1.43-1.08,3.13.71,4.39s2.88.23,4.08-1c2.85-3,7.22-2.2,10.61-4,.77-.4,1.32.79,1.73,1.61.33.66.16,1.92,1.45,1.74.25,0,.55-.52.62-.84.22-1-.6-1.56-1.21-2.15-1.12-1.08-2.55-.82-3.9-.86-2.26-.07-5.24,2.13-6.25-2C1811.26,1689.24,1809.94,1689.3,1809.25,1689.21Z" transform="translate(-1648.58 -1659.27)"/><path d="M1879.79,1854.49c3.46,0,5,1.43,5.18,4.85a5.06,5.06,0,0,1-.18,2.21c-1.06,2.28-1.58,5.48-4.47,5.82-3.3.38-3.45-2.85-4.18-5.14-.41-1.29-1.3-2.6-1.22-3.85C1875.09,1855.53,1877.09,1854.45,1879.79,1854.49Z" transform="translate(-1648.58 -1659.27)"/><path d="M1894.76,1816.92a6.85,6.85,0,0,1-1.28,4.21c-.31.5-.79,1.25-1.23,1.27-4.25.26-4.91-4.33-7.83-6-1.48-.86-.43-2.7.74-3.8,2-1.9,4.22-3.13,7-1.46C1894.38,1812.44,1894.48,1814.72,1894.76,1816.92Z" transform="translate(-1648.58 -1659.27)"/><path d="M1878.55,1839c-.62.67-.16,2.17-1.55,2.17s-1.36-1.2-1.62-2.12a3.59,3.59,0,0,0-.12-.35c-2-5.31-1.83-5.67,3.68-5.53,1.58,0,2.82.49,3.61-1.43.5-1.22,1.7-1.16,2.25,0,.7,1.54,2,2.48,3,3.78.52.7,1.09,1.49.35,2.33a1.84,1.84,0,0,1-2.4.19c-.67-.34-1.28-.78-1.94-1.11-1.44-.72-2.48-.86-2,1.36a7.83,7.83,0,0,1,.07,2.22c0,.66-.36,1.3-1.06,1.35C1878.78,1842,1879.73,1839.65,1878.55,1839Z" transform="translate(-1648.58 -1659.27)"/><path d="M1891.45,1830.61c1.8-1.12,3.75-2.64,5.35,0,.94,1.58,2.28,3.26,1.41,5.2-1,2.13-2.66.25-4,.26-5.65,0-6.25-.65-6-5.78.07-1.43-.26-3.42,2-3.24S1890.87,1829.29,1891.45,1830.61Z" transform="translate(-1648.58 -1659.27)"/></svg>