<svg id="Layer_1" data-name="Layer 1" xmlns="http://www.w3.org/2000/svg" viewBox="0 0 304.22 282.82"><title>smart_dinosaur_docs</title><path d="M1647.75,1890.75c1.38-1.14,3-1,4.65-1,8.12,0,16.25.18,24.37,0a201.37,201.37,0,0,0,33-3.88c7.42-1.46,14.45-4,21.41-6.63a69.55,69.55,0,0,0,27.91-18.91c2.53-2.84,3.53-5.71,1.59-10.08-2-4.54-1.29-10.22-.41-15.17,1.65-9.25,4.51-18.2,11.28-25.27.52-.54.93-1.35,1.55-1.58,4.57-1.67,4.76-5.49,5-9.46.25-5.13,1.77-10,2.92-15,1.8-7.7.41-15.41-.12-23.08-.67-9.8-1.36-19.62-2.28-29.38a348,348,0,0,1-1.26-36.51c.08-8.72,1.67-17.15,7.07-24.34,8.05-10.71,19.21-13.19,31.7-11.29,10.85,1.64,19.49,7.84,25.22,16.57,3.11,4.74,5.61,8.25,11.14,10.18,4.27,1.48,3.71,8.06-.88,10.06-4.1,1.79-4.17,4.14-3.51,7.92,2.78,15.67-8.5,26.4-24.56,23.92-4.52-.7-9.17-.33-13.52-2.36-3-1.38-4.49-3.22-4.25-6.63s0-6.74.1-10.12c0-1.19.34-2.43,1.81-2.32s1.27,1.34,1.18,2.54c-.22,2.74,0,5.51-.32,8.23-.39,3.35,1.06,5.43,4.12,6.06,7.85,1.6,15.74,4.21,23.65.06,7.44-3.91,10.51-10,9.06-18.26a20,20,0,0,1-.53-3.32c0-2.93-1.19-4.35-4.31-4.2a19.84,19.84,0,0,1-4.77-.76c-4.8-1-6.22-2.47-5.92-6.15.32-3.84,4.33-8.18,7.9-7.62,4.38.68,3.12-1.78,2.37-3.65-1.45-3.58-4.47-6-7.27-8.46-11.6-10.15-27.73-13.07-39.86-4.21-7.43,5.44-11.21,13-12.22,22.15a135.39,135.39,0,0,0-.58,21.67c.66,13.16,2.06,26.27,2.73,39.43.52,10.07,2.53,20.1,1.57,30.2-.54,5.66-2.13,11.22-3.19,16.84a30.69,30.69,0,0,0-.43,4.07c-.08,1.4.1,2.59,2.07,1.89.72-.26,1.72-1,2.17.37a1.74,1.74,0,0,1-1.19,2.4c-3.18.77-4.53,4.13-8.14,4.87-3,.62-5.1,4.41-6.48,7.42-3.46,7.58-6.53,15.24-6.61,23.95a21.08,21.08,0,0,0,6,15.51c14.75,15.43,32.31,24.59,54.22,22.5a114.75,114.75,0,0,0,29.73-7.11c5.92-2.24,9.08-7.62,11.47-13.23,1.47-3.43,2.59-7,3.76-10.57,1.72-5.22-.79-12.72-4.9-16.53-4.62-4.31-10.11-7.25-15.28-10.72a4.12,4.12,0,0,0-4.81-.12,95.15,95.15,0,0,0-18.16,12.45c-3.65,3.25-8.3,4.57-11.93,7.64a1.29,1.29,0,0,1-2-.22,1.64,1.64,0,0,1,.28-2.36c1.24-1,2.61-1.86,3.91-2.77-.17-1.19-1.13-1.28-1.89-1.63-1.07-.49-2.21-1.16-1.48-2.5s2.07-.92,3-.24c3.69,2.83,6.42,1.26,9.37-1.43a78.4,78.4,0,0,1,8.74-6.44c4.36-3,4.46-3,1.52-7.49-1.26-1.91-2.65-3.59,1.23-3.77,1.26-.06,1.08-1.2,1.07-2,0-2,0-4,1.9-5.39a1.11,1.11,0,0,0,.39-1.3c-3.23-13.29-3.15-27.11-6.67-40.37-2.43-9.14-4.41-18.4-6.46-27.64-.45-2.07-1.52-5.51.81-6,2.72-.52,1.44,3,1.84,4.67q4.77,19.61,9.09,39.32a87.27,87.27,0,0,1,1.18,10.37c.26,2.67,1.41,3.08,3.75,1.89,9.61-4.87,20-6.49,30.6-7.63,4.34-.47,8.68-.69,13-.82,9-.28,15.49,4.12,20.67,10.83a69,69,0,0,1,8.38,13.7c3.13,6.91,1.72,13.39-2.29,19.41-1.57,2.37-2.2,5.25-4.46,7.26-1.37,1.22.73,2.42.71,3.73,0,2.76,1.35,5.08,2.58,7.33,2.23,4.06,2.2,5.82-1.6,8.49-2.93,2.06-4.55,4.78-5.75,8.62,6.83-1.9,13.24-3.65,19.63-5.5,3.47-1,6.87-2.24,10.34-3.24,2.76-.81,4.83-2,4.38-5.39a2.81,2.81,0,0,1,1.86-3.32c1.79-.57,3,.65,3.52,2,.78,2,1.92,2.55,4,2.23,2.39-.37,4.51,1.07,3.68,3.34-3,8.21.88,16.19.31,24.33a73.67,73.67,0,0,1-5.8,24.93,5.56,5.56,0,0,1-3.88,3.22c-9.46,2.63-19,5.15-28.36,8-4.64,1.39-9.08,3.39-13.65,5-2.25.79-2.56,2.43-2.46,4.45.32,6.63-1.36,12.82-4,18.84-1.59,3.6-3.94,5.47-8.09,5.13-12.33-1-24.79.16-37-1.06-12.8-1.28-25.81-1.88-38.32-5.58a15.1,15.1,0,0,1-4.35-2.09c-4.2-3-9.79-4-13.22-7.49-3.71-3.8-7.09-3.32-11.4-2.66-11.41,1.76-23,1.23-34.39.67-18.88-.93-37.71-2.92-56.12-7.52a107.82,107.82,0,0,1-29.7-12.82c-4.81-2.9-7.81-8.08-13.39-9.75Zm7.77,2.22c4.27,5.74,10.4,9.09,16.27,12.26,10.94,5.92,23.08,8.68,35.28,10.69,8.57,1.42,17.24,2.35,25.9,3.26,4,.42,8,.38,11.93.68,13.32,1,26.64,1.45,39.88-1,2.07-.37,3.15-1.07,2.61-3.8a82.54,82.54,0,0,0-3.15-12.28c-.44-1.2-.78-3,1-3.49,1.57-.38,1.37,1.4,1.75,2.35a63.2,63.2,0,0,1,3.61,13c.94,5.39,3.15,9.65,9.3,10.61a9.11,9.11,0,0,1,4.56,2.48,24.09,24.09,0,0,0,11.73,5.48c6.58,1.37,13.46,1.18,20,2.55,16.21,3.41,32.64.83,48.85,2.74,3.11.37,4.86-1.18,6.09-3.85a52.09,52.09,0,0,0,3.67-12.13,26.32,26.32,0,0,0-15.22-28.48c-2-.86-4.2-1.54-5.85.43a25.7,25.7,0,0,0-3.66,5.63c-2.76,5.9-2.21,12.16-2.29,18.37a6.39,6.39,0,0,0,2.32,5.22c3,2.77,5.89,5.76,7.32,9.76.36,1,1.32,2.19-.16,2.94s-2.34-.41-2.83-1.62a18.31,18.31,0,0,0-5.23-7.19,11.15,11.15,0,0,1-4.22-10.22c.3-3.5,1-7.35-4.78-7.34a3.6,3.6,0,0,1-3.29-4c.11-2.1,1.9-2.06,3.35-2.18,3.31-.27,4.51-2,4-5.23a6.6,6.6,0,0,1,.15-3c.51-1.51-.24-1.49-1.38-1.74-5.35-1.15-10.68-2.45-16-3.67-.88-.2-1.9-.32-1.78-1.46s1.12-1.28,2-1.24a17.25,17.25,0,0,1,3,.37c4,.89,8,1.78,12,2.77,1.35.33,2.13.5,2.86-1.19,1.4-3.25,3.94-3.71,6.39-1.12a6.44,6.44,0,0,0,5.65,2.11,7.83,7.83,0,0,1,3.63.73c7.77,3.19,12.63,9.15,15.62,16.72.84,2.13,1.66,2.71,3.76,1.83,12.77-5.35,26.25-8.45,39.48-12.33a6.14,6.14,0,0,0,4.09-3.38,49.67,49.67,0,0,0,5-18.28c.84-8.12.46-16.23-3.41-23.75-.61-1.18-1.12-2.76-2.71-2.76-1.4,0-1.82,1.51-2.55,2.49-2.61,3.5-1.22,8-3.16,11.83-1.27,2.5-1,5.82-1.24,8.79-.41,6-2.13,12.27,3,17.33a3,3,0,0,1,.52,1c.32.72.53,1.47-.2,2a1.45,1.45,0,0,1-2-.27c-2.23-2.22-4.37-4.54-4.48-7.93-.23-6.86-.31-13.79,1.4-20.45,1-4-1.29-7.12-1.59-10.71-.08-1.06-1.14-.64-1.83-.44-8.12,2.38-16.3,4.6-24.35,7.19-5.08,1.64-5.49,2.72-4.3,8.07,1.39,6.19,1.52,12.63,3.63,18.68.36,1,.51,2.06-.88,2.36-1.23.27-1.81-.51-2.08-1.62s-.58-1.91-.76-2.89c-.91-5-1.78-10-2.67-15.06-.31-1.68-.9-3.09-2.87-1.59-6.7,5.12-14.75,6.33-22.68,7.64-4.12.68-8.88,1.76-11.15-3.79-.87-2.13-2-1.28-3-.08a15.49,15.49,0,0,1-8,4.65c-13.21,3.76-26.46,7.45-40.4,6.2-6.94-.63-14-1.76-20.13-5.12-9.62-5.23-18.85-11.11-26.08-19.68-.91,1.16-1.66,2.13-2.44,3.08s-1.69,2.16-2.65,3.13c-14.63,14.87-33.28,21.42-53.11,25.36-15.38,3.06-31,3.35-46.58,3.06C1658.57,1892.51,1657.05,1892.13,1655.52,1893Zm231-103.16a38.63,38.63,0,0,0-2.21,9.63c-.28,2.38-1.38,3.76-3.41,5.26-2.73,2-5,1.24-7.8.93-6.25-.69-12.39.68-18.47,2.06a40,40,0,0,0-14.8,6.77c-1.34,1-2.26,1.86-1.31,3.67s2.09,1.09,3.37.4a7,7,0,0,1,7.45.44c2.45,1.49,4.86,3,7.31,4.53a42.67,42.67,0,0,1,15.16,16.54,4.74,4.74,0,0,1,.19,3.28,88.68,88.68,0,0,1-7,21.58c-1.65,3.63.4,8.45,3.88,8.21a68.72,68.72,0,0,0,17.76-3.56c5.27-1.81,8.54-5.68,11.52-10,.86-1.22,2.59-1.53,3-3.21,1.11-4.41,3.77-7.8,7.2-10.68.79-.66,1.7-1.32,1-2.82-3.47-7.75-6.79-15.56-10.18-23.35-2.91-6.7-7.61-12.58-8.94-20A26.85,26.85,0,0,0,1886.49,1789.81Zm-46.27,9c1.17,0,1.76-1.55,2.83-.78,2.16,1.56,4.59.83,6.9,1,6.84.36,13.71.37,20.5,1.1,3.12.34,4-.14,3.18-3.14-1.48-5.13,1-8.71,4.7-11.69,2.35-1.92,5.32-2.09,8.18-1.62,2.16.35,1.73,2.76,2.58,4.18a13.45,13.45,0,0,1,1.28,2.68,5.73,5.73,0,0,0,4.24,4c8.65,2.83,15.6,7.83,18.88,17.13a9.75,9.75,0,0,0-.83-6.84,76,76,0,0,0-8.77-14.31c-5.24-6.42-11.56-10.4-20.32-9.76-3,.21-5.92.72-8.9.86a94.9,94.9,0,0,0-27.64,5.84C1839.49,1790.05,1839.6,1790.37,1840.22,1798.8Zm70.46,16.5c-.13-6.64-8.87-16.41-15-17.32-2-.29-2.34.36-2,2.13a22.83,22.83,0,0,0,2.92,8,86.57,86.57,0,0,1,8,16c.26.66.6,1.63,1.11,1.79,1,.31,1.62-.71,2-1.41A36.25,36.25,0,0,0,1910.68,1815.3Zm-74.43-121.59a1.45,1.45,0,0,0,1.6-.61c2.45-2.71,8.81-3.91,12-2.34.61.31.89,2,1.94.64.78-1,.2-1.8-.56-2.59-1.79-1.84-8.3-3.37-10.54-2.25-2,1-3.33,4.25-6.13,1.34a6.76,6.76,0,0,0-.72.8c-.58.91-1.56,1.71-1,3S1835,1693.26,1836.25,1693.71Z" transform="translate(-1647.75 -1658.52)"/><path d="M1812,1700.47a29.36,29.36,0,0,1-6.65-.49c-4.93-1.23-6.5-2.51-6.32-5.82.26-4.67,3.1-8,7.46-8.33,3.58-.27,7.21-.48,10.54,1.52a6.31,6.31,0,0,0,2.86.62c2.72.16,4.51,1.56,5,4.15a5.46,5.46,0,0,1-2.8,6.33A16.44,16.44,0,0,1,1812,1700.47Zm-2.88-12c-4.35,0-6.79,2.13-6.78,5.43,0,2.09,2.6,4,3.65,2.61,2.61-3.39,6.59-3.12,9.87-4.64,2.2-1,3.47-1,4.25,1.52.16.53.28,1.76,1.38,1.07.75-.46.61-1.25.12-2-1.24-1.84-3.1-1.78-5-1.78-2.13,0-5,2.13-5.91-1.92C1810.61,1688.56,1809.32,1688.56,1809.11,1688.52Z" transform="translate(-1647.75 -1658.52)"/><path d="M1877.72,1830.3a19.36,19.36,0,0,1-.44,2.85c-1,3.07-2.72,3.61-5.32,1.75s-3.25-4.66-5-6.94c-.65-.88.29-1.56,1.07-2,1.36-.83,2.88-.68,4.37-.68,1.76,0,3.52.58,4.34-2.07.48-1.51,2.56-2.07,4.22-1.41s2.67.66,3-1.52c.22-1.27,1-2.86,2.84-2.06,1.55.69,1,2,.34,3.17-1.27,2.06-.29,3.66,1.29,4.83s2.39-.25,3.09-1.48,2.34-.49,3.54-1.72c-3.13-.15-6.29-.16-5.37-4.52.23-1.07.6-2,1.83-2,1.05,0,1.52.77,1.38,1.81-.26,1.85,1.09,1.6,2.17,1.66,2.11.13,3.65,1.06,3.95,3.23s-1.39,2.9-3.21,3.3c-.58.12-1.4.3-1.63.72-1.8,3.2-4.56,2.37-7.25,1.84-.7-.14-1.5-.76-1.92.22C1883.32,1833.37,1880.65,1831.63,1877.72,1830.3Z" transform="translate(-1647.75 -1658.52)"/></svg>