<svg id="Layer_1" data-name="Layer 1" xmlns="http://www.w3.org/2000/svg" viewBox="0 0 304.09 282.81"><title>smart_dinosaur</title><path d="M1794.07,1819c-1-1.91-4.78-1.47-3.38-4,1.23-2.21,3.37,0,4.88.7,1.92.94,3.22,1,5-.54,3.63-3.05,7.51-5.8,11.41-8.51s4-2.81,1.4-7c-1.05-1.68-3.41-3.7,1-4.06,1.25-.1,1.07-1.21,1.06-2,0-2,0-4,1.91-5.39a1.12,1.12,0,0,0,.38-1.3c-3.22-13.29-3.15-27.11-6.67-40.38-2.4-9-4.31-18.17-6.37-27.28-.5-2.22-1.62-5.83.74-6.27,2.81-.53,1.48,3.27,1.91,5,3.2,12.93,6.16,25.93,9,38.95a75.89,75.89,0,0,1,1.13,10c.23,2.66,1.08,3.63,3.81,2.23,9.48-4.83,19.81-6.47,30.23-7.59,4.33-.46,8.67-.74,13-.87,9.32-.28,16,4.15,21.26,11.18a74.16,74.16,0,0,1,8,13.05c3.3,7,1.92,13.6-2.16,19.75-1.57,2.37-2.25,5.22-4.45,7.27-1.42,1.31.84,2.61.78,4.1-.1,2.62,1.35,4.82,2.53,7,2.21,4,2.18,5.82-1.64,8.47-3,2.06-4.44,4.87-5.91,8.67,7-2,13.44-3.72,19.84-5.57,3.47-1,6.87-2.23,10.34-3.24,2.76-.81,4.8-2,4.35-5.41a2.79,2.79,0,0,1,1.88-3.3c1.8-.55,3,.68,3.52,2.07.77,2.08,2,2.5,4,2.19,2.41-.35,4.51,1.14,3.64,3.38-3,7.73.64,15.2.32,22.83a72.23,72.23,0,0,1-5.65,26.1,5.86,5.86,0,0,1-4.06,3.53c-9.47,2.62-19,5.15-28.37,8-4.63,1.39-9.08,3.39-13.64,5-2.27.8-2.52,2.48-2.43,4.48.3,6.76-1.41,13.06-4.2,19.16-1.53,3.34-3.75,5.07-7.57,4.76-12.45-1-25,.2-37.39-1.06-12.8-1.3-25.82-1.85-38.32-5.58a14.94,14.94,0,0,1-4.34-2.1c-4.21-3-9.87-4-13.21-7.5-3.73-4-7.18-3.23-11.42-2.6-11.42,1.69-23,1.2-34.4.63-18.87-.94-37.71-2.9-56.12-7.53a105.13,105.13,0,0,1-27.14-11.26c-5.3-3.07-9.22-7.82-14.62-10.61a1.86,1.86,0,0,1-1.13-2.16,2.07,2.07,0,0,1,1.84-1.63,15.14,15.14,0,0,1,2.24-.14c14.59-.07,29.21.57,43.73-1.54,7.63-1.11,15.3-2.1,22.63-4.68,7.74-2.74,15.64-5,22.87-9.12a68.23,68.23,0,0,0,18.89-15.64c2-2.34,2.19-4.6.79-7.82-2.17-5-1.48-10.72-.63-15.89,1.53-9.26,4.48-18.2,11.24-25.28.51-.54.92-1.36,1.54-1.59,4.73-1.76,4.75-5.75,5-9.81.29-5,1.75-9.79,2.9-14.64,1.81-7.7.42-15.41-.11-23.09-.7-10.05-1.37-20.12-2.31-30.13a344.61,344.61,0,0,1-1.24-35.76c.08-8.72,1.65-17.15,7-24.34,8-10.72,19.2-13.22,31.7-11.33,10.85,1.64,19.47,7.84,25.23,16.55,3.11,4.71,5.54,8.31,11.13,10.19,4.27,1.44,3.74,8.08-.84,10.06-4.11,1.79-4.21,4.12-3.53,7.91,2.8,15.68-8.51,26.45-24.54,24-4.52-.71-9.17-.32-13.52-2.35-3-1.38-4.51-3.2-4.27-6.61s0-6.75.1-10.12c0-1.19.32-2.44,1.79-2.35,1.62.1,1.3,1.31,1.2,2.52-.21,2.74,0,5.51-.31,8.23-.39,3.34,1,5.44,4.1,6.07,7.85,1.61,15.73,4.22,23.64.07,7.45-3.9,10.53-10,9.08-18.25a20.92,20.92,0,0,1-.53-3.31c0-2.92-1.15-4.37-4.29-4.22a19.9,19.9,0,0,1-4.78-.75c-4.79-1-6.22-2.47-5.93-6.14.31-3.85,4.32-8.18,7.88-7.65,5.06.75,2.94-2.28,2.23-4-1.46-3.4-4.38-5.77-7.1-8.13-11.79-10.28-27.92-13.14-40.18-4-7.22,5.38-11,12.85-11.92,21.94a140.24,140.24,0,0,0-.57,21.67c.66,13.16,2.06,26.28,2.73,39.43.52,10.07,2.54,20.11,1.57,30.2-.56,5.79-2.21,11.46-3.31,17.2a25.44,25.44,0,0,0-.31,3.71c-.06,1.41.09,2.61,2.07,1.9.72-.26,1.72-1,2.17.36a1.75,1.75,0,0,1-1.18,2.41c-3.19.77-4.54,4.13-8.15,4.87-3,.62-5.1,4.41-6.47,7.42-3.47,7.58-6.54,15.24-6.62,23.95a21.08,21.08,0,0,0,6,15.51c14.75,15.43,32.32,24.6,54.22,22.5a114.82,114.82,0,0,0,29.74-7.11c5.91-2.24,9.07-7.63,11.46-13.23,1.47-3.44,2.59-7,3.76-10.57,1.72-5.22-.8-12.72-4.9-16.54-4.63-4.3-10.12-7.24-15.29-10.71a4.07,4.07,0,0,0-4.8-.11,94.31,94.31,0,0,0-18.17,12.45c-3.65,3.25-8.3,4.57-11.93,7.63a1.28,1.28,0,0,1-2-.23,1.65,1.65,0,0,1,.3-2.36C1791.27,1820.81,1792.65,1820,1794.07,1819ZM1634,1875.26a69.36,69.36,0,0,0,25.93,16.7c18.53,6.88,38,8.55,57.48,10.5,11.32,1.14,22.7.74,34,.77,4.39,0,8.65-1,12.94-1.73,1.38-.25,2.65-.87,2.2-2.79-.87-3.75-1.15-7.64-2.69-11.24a11.51,11.51,0,0,1-.81-2.86c-.12-1-.21-2.2,1-2.52,1.44-.38,1.4,1,1.75,1.85a68.92,68.92,0,0,1,3.71,13.3c.92,5.59,3.29,9.82,9.55,10.83a9.49,9.49,0,0,1,4.2,2.35,26.08,26.08,0,0,0,12.1,5.57c6.47,1.31,13.21,1.16,19.6,2.49,16.2,3.37,32.62,1,48.84,2.77,3.06.33,4.92-1,6.17-3.74,2.91-6.35,4.72-13,3.84-20-1.25-9.89-6.61-17-15.9-21-1.94-.83-4-1.12-5.45.82a32.13,32.13,0,0,0-3.56,5.68c-2.9,6.3-2.1,12.94-2.16,19.51,0,1.67,1,2.69,2.18,3.74,3.1,2.91,6,6,7.5,10.1.37,1,1.17,2.21-.47,2.81-1.38.5-2.13-.5-2.55-1.59a15.8,15.8,0,0,0-4.69-6.67c-4-3.23-5.41-7.26-4.79-12.21.4-3.27.15-5.84-4.34-5.82a3.84,3.84,0,0,1-3.76-4c0-2.39,2.07-2.15,3.57-2.37,2.74-.42,4.34-1.59,3.81-4.66a6.37,6.37,0,0,1,0-2.61c.47-1.75.27-2.38-1.86-2.75-5.14-.89-10.19-2.33-15.28-3.52-.86-.2-2-.22-1.91-1.35.06-1.3,1.25-1.43,2.25-1.38a16.21,16.21,0,0,1,2.94.46c4,.89,8,1.78,12,2.76,1.25.3,1.91.3,2.59-1.13,1.63-3.45,3.93-3.84,6.61-1.1a5.82,5.82,0,0,0,5,2,8.15,8.15,0,0,1,3.67.51c8,3.13,13,9.11,16,16.8.94,2.37,1.86,2.78,4,1.87,12.54-5.26,25.79-8.27,38.77-12.11a6.84,6.84,0,0,0,4.71-3.72,51.5,51.5,0,0,0,5-18.67c.71-7.61.39-15.24-3.08-22.35-.71-1.43-1.21-3.42-3-3.54s-2.33,2-3.22,3.3c-1.38,2,0,4.88-1,6.37-3,4.52-2.5,9.6-3,14.39-.6,5.52-1.9,11.56,3,16.28.72.68,1.61,2,.5,3-1.37,1.2-2.2-.28-3.07-1.08a11.14,11.14,0,0,1-1.18-1.45c-4.17-5.49-2.16-11.81-2.12-17.77s2.74-11.74-.11-17.74c-.65-1.35-.59-2.11-2.34-1.58-8.22,2.5-16.44,5-24.73,7.24-3.8,1-4.71,3.44-3.93,6.73,1.51,6.3,1.58,12.86,3.61,19.07.34,1,1.39,2.58-.5,3.14s-2.06-1.23-2.43-2.51c-.21-.71-.43-1.43-.57-2.16-.91-5-1.83-10-2.7-15-.3-1.69-1-2.71-2.68-1.44-6.6,5-14.46,6.35-22.3,7.61-4.44.71-9.32,1.94-11.78-3.89-.84-2-2-1-2.8,0-2.3,2.71-5.38,4-8.66,4.93-12.61,3.49-25.23,7.13-38.55,6-8.86-.73-17.59-2.25-25.22-7.23-7.9-5.15-16.18-9.85-22.12-17.62-1.8,2.18-3.35,4.26-5.12,6.14-12.11,12.83-27.81,19.32-44.3,23.62a157.18,157.18,0,0,1-42.23,4.88C1646.42,1875.19,1640.58,1875.26,1634,1875.26Zm203.58-68a4.69,4.69,0,0,0,.49.66c5.38,3.63,9.08,8.7,12.33,14.2a5.75,5.75,0,0,1,.51,4.28,89.52,89.52,0,0,1-7.09,21.56c-1.52,3.37.63,8.11,4,7.94a70.42,70.42,0,0,0,17.42-3.39c5.41-1.72,8.86-5.64,11.88-10.09.85-1.24,2.59-1.54,3-3.2a20,20,0,0,1,7.2-10.67c1.35-1.1,1.46-2.06.52-3.79a96.71,96.71,0,0,1-5.94-13.54c-2.71-7.45-6.51-14.26-10.2-21.17-.3-.54-.3-2.1-1.67-1-.92.71-.58,1.5-.06,2.3.82,1.25,1.68,2.48,2.37,3.8a5.12,5.12,0,0,1,0,5.28c-1,1.35-2.71-.26-4.11-.54-.71-.14-1.38-.59-2.15-.09-.11,1.28.93,2.92-.55,3.76s-2.07-.93-2.84-1.75c-1.08-1.16-1.62-.53-2.31.39s-.5,3.24-2.3,3-1-2.56-1.69-3.81a4.57,4.57,0,0,1-.56-2.16c.06-2.39-3-6.7,3.24-5.46a1,1,0,0,0,.64-.28q4.35-3.7,8.67-7.43c.76-.65,1.58-1.32,1.23-2.52-1-3.51-1.61-7.19-4.33-11-.75,3.74-1.45,6.71-1.91,9.72a7.14,7.14,0,0,1-3.35,5.31c-2.7,1.9-4.94,1.32-7.77,1-6.63-.76-13.14.72-19.57,2.28a40.67,40.67,0,0,0-14,6.66c-1.49,1.06-1.91,2.16-.94,3.77s2,.82,3.14.2a7,7,0,0,1,7.45.35c1.61,1,3.19,2,4.7,3.08,1.14.85,2,.78,2.82-.37,1.38-1.92-.88-1.27-1.34-1.7a4.5,4.5,0,0,1-1.22-5.43c.64-1.61,1.71-2.77,3.64-2.69.93,0,1.8.23,2.12,1.21a1.47,1.47,0,0,1-1,2.06c-.76.26-2,.13-1.67,1.46.24,1,1.27,1,2.11,1.24,2.58.79,3.23,3.11,1.43,5.06A14.84,14.84,0,0,1,1837.56,1807.23Zm54.92-12.66a9.81,9.81,0,0,0-.59-6.48c-3-6.17-6.25-12.19-11.06-17.22s-10.41-7.87-17.61-7.41a153.69,153.69,0,0,0-17,1.61c-8.93,1.6-17.88,3.28-26,7.77-.74.41-1.63.58-1.49,1.81.25,2.3.37,4.62.55,7,1.16-.29,1.82-1.64,2.88-.84,1.92,1.44,4.09.81,6.16.91,7.08.37,14.2.38,21.24,1.13,3.32.36,3.86-.43,3.07-3.27-1.45-5.12,1.11-8.7,4.8-11.64a9.71,9.71,0,0,1,8.19-1.56c2.07.42,1.9,2.74,2.49,4.27a11.68,11.68,0,0,0,7.68,7.44C1883.43,1780.82,1889.6,1785.74,1892.48,1794.57Zm-19.94-13.82a20,20,0,0,0,3.33,10.52c2.56,3.85,4.29,8.12,6.43,12.17.93,1.75.57,5,2.83,5s2.11-3.28,3.1-5.08C1893.58,1793.56,1881.67,1781.78,1872.54,1780.75Zm-59-110.32a14.62,14.62,0,0,0-1.76,2.82,2,2,0,0,0,1.62,2.55c1.07.34,2.69,1.65,3.3.11,1.07-2.73,3.06-3,5.38-2.89s4.73-.65,6.92.66c.54.32.79,1.56,1.69.57.69-.75.49-1.52-.12-2.34-1.56-2.1-8.71-3.83-11.12-2.5C1817.59,1670.42,1816.32,1673.64,1813.51,1670.43Z" transform="translate(-1626.84 -1641.26)"/><path d="M1790.83,1683.24a31.17,31.17,0,0,1-6.29-.47c-5.2-1.28-6.78-2.6-6.51-6,.37-4.85,3.34-8,8-8.21,3.48-.17,7-.31,10.15,1.65a6.45,6.45,0,0,0,2.88.55,4.84,4.84,0,0,1,4.8,3.94c.56,2.57,0,4.94-2.6,6.43A17,17,0,0,1,1790.83,1683.24Zm-2.68-12c-4.38,0-6.72,2.09-6.85,5.4a2.74,2.74,0,0,0,1.63,2.67c.81.49,1.92.61,2.41-.16,2.1-3.29,5.77-3,8.81-4.21,2.37-.94,4.2-1.82,5.09,1.54.13.52.38,1.37,1.24.78a1.19,1.19,0,0,0,.33-1.66c-1.26-2.28-3.42-2.18-5.57-2.1s-4.79,2-5.54-1.93C1789.65,1671.34,1788.35,1671.31,1788.15,1671.27Z" transform="translate(-1626.84 -1641.26)"/><path d="M1874.39,1815.39a33.47,33.47,0,0,1,0,4.48c-.23,1.78-1.27,3.05-3.27,2.85-4.1-.42-7.22,1.43-10.18,4-3.43,3-5.7,2.38-7.8-1.67a12.4,12.4,0,0,1-1.64-6.79c.2-2.48,1.3-4,3.87-4.16,2.87-.13,2.61,2,2.69,3.91,0,.47,0,1,1.22,1.32.44-5.8,4.92-7.33,9.61-8.21,2.55-.47,4,1.69,5.13,3.68C1874.14,1815,1874.27,1815.18,1874.39,1815.39Z" transform="translate(-1626.84 -1641.26)"/><path d="M1855.73,1803.26c-.44.5-.67,1-1,1.17-1,.51-1.88-.07-2.71-.7-1.57-1.21-4.87.22-5.24,2.28-.16.85,0,1.91-1.12,2.09-1.38.23-1.52-1-1.86-1.91-.81-2.08-1.55-4.19-2.32-6.28-.31-.85-.56-1.74.23-2.42,1-.9,1.87-.15,2.6.53,1.77,1.63,3.54,3.82,3.65-1a1.54,1.54,0,0,1,2.43-1.37C1853.06,1797.46,1853.47,1800.92,1855.73,1803.26Z" transform="translate(-1626.84 -1641.26)"/><path d="M1874,1814.78c.17-1.74-1.39-2.86-1.64-4.48-.12-.83-.69-1.6-.33-2.5.27-.64.82-.75,1.43-1,1.11-.37,1,2,2.26.88,1.81-1.65,2.54-.35,2.43,1.16-.21,3,.57,5.24,3.25,6.81a1.79,1.79,0,0,1,.86,2.53c-.61,1-1.48.56-2.29.13a1.61,1.61,0,0,0-1-.26c-3.2.89-3.19.9-4.55-2.71C1874.27,1815.18,1874.14,1815,1874,1814.78Z" transform="translate(-1626.84 -1641.26)"/></svg>