<svg id="Layer_1" data-name="Layer 1" xmlns="http://www.w3.org/2000/svg" viewBox="0 0 879 500.33"><title>smash_orpheus</title><path d="M1984.31,2044.1c10.87.89,21.93-.68,32.61.9a170,170,0,0,0,35.72,1.63c11.52-.72,23.15.8,34.45-.87,15.77-2.32,31.56-.85,47.23-2.24,7.89-.7,15.75-.29,23.57-1,17.25-1.64,34.55.15,51.74-1.07,6.11-.44,12.7.31,18.55-2.77a5.08,5.08,0,0,1,2.46-.41c2.77.13,3.45-1.38,3.44-3.83,0-7.3-.6-14.59-.73-21.87-.38-22.79-.11-45.6-.16-68.39a26.46,26.46,0,0,1,1.63-9.13,25.62,25.62,0,0,0,1.43-8.08c.41-15.47-.12-31-1.18-46.34-1.86-26.6-1.2-53.19-.65-79.73.34-16,.6-32,.95-48.06q0-1.44,0-2.88c-.13-5.44-2-6.89-7.23-5.64-10.37,2.49-20.8,4.77-31.12,7.48a119.7,119.7,0,0,0-17.42,5.48c-3.19,1.37-5.37.37-5.87-3.17a17,17,0,0,1,.74-8.15c1.25-3.5.64-4.33-3.07-4-5.86.51-10.76-1.92-15.62-4.57-6.38-3.48-12.7-7.07-19.11-10.49-2.13-1.14-3.75-4.37-5.81-3.69-1.68.56-2.3,3.9-3.73,5.74a40.5,40.5,0,0,1-23.93,15.32c-9.24,2.06-17.69.36-26.18-2.88a100.58,100.58,0,0,1-13.17-5.65c-1.6-.89-3.09-2-1.95-3.91,1.24-2,2.55-.22,3.9.38a154.29,154.29,0,0,0,22.16,8.19c9.26,2.51,17.36-.07,25.08-4.12a27,27,0,0,0,13.82-16.63,3.9,3.9,0,0,0-.15-2.42c-.9-3-1.79-5.9-.83-9.14a7,7,0,0,0-1.16-5.51c-2.86-4.4-5.21-9.17-9.12-12.87s-6.55-8.84-10.11-13.05a15.1,15.1,0,0,0-2.92-3.14c-2.74-1.79-2.55-4.39-2.34-7,.09-1.15.56-2.21,1.9-2.2a1.87,1.87,0,0,1,1.83,2.23c-.14,2.27,1.22,3.63,2.46,5.31,6.91,9.33,15,17.77,21.19,27.64a20.77,20.77,0,0,1,3.44,12.27c-.39,5.59,2.7,8.59,6.6,10.94,7.66,4.6,15.57,8.81,23.44,13.05,5.37,2.9,10.88,3.5,16.39.21a1.91,1.91,0,0,1,2.34-.1c.9.71.73,1.62.47,2.61-.9,3.35-1.77,6.7-2.55,10.07-.32,1.38-.78,3,.39,4.09s2.33,0,3.4-.36c14-4.64,28.47-7.46,42.81-10.78a26.29,26.29,0,0,0,2.73-.88c2-.69,5-.13,5.74-2.24a14.62,14.62,0,0,0-.21-9.19,6.64,6.64,0,0,1-.61-2.41c.4-6.14-1.25-12.16-.93-18.28.51-10-1.22-19.75-2-29.61-.47-6-.22-12-.13-18a6.8,6.8,0,0,0-2.23-5.43c-7.84-7.35-15.32-15.08-23.7-21.88-4.44-3.6-7.85-8.51-12.39-12-10.23-7.77-17.14-18.67-26.6-27.11-1.25-1.12-2.58-2.14-3.87-3.21-1.48-1.2-2.9-1.66-4.32.16a1.91,1.91,0,0,1-2.84.53c-1.11-.83-.85-2-.17-2.88,1.27-1.7.42-2.44-1.08-3.27-18.54-10.32-38-15.52-59.52-12.9-7.4.89-14.28,3.05-21.2,5.17-4.13,1.26-7.86,4.06-11.53,6.52-3,2-5.56,4.54-8.36,6.8-1.13.92-2.2,1.76-2.27,3.44a2.31,2.31,0,0,1-1,1.79c-7.48,2.79-10.07,9.94-13.85,15.87-4.28,6.72-7.59,14-12.38,20.47-.74,1-.43,1.69.13,2.57a117.32,117.32,0,0,1,12.19,26.78,215.91,215.91,0,0,1,7.58,28.37c1.42,7.87,3.36,15.64,5,23.46.37,1.75.44,3.56.7,5.33.19,1.31.13,2.55-1.46,2.75a2.09,2.09,0,0,1-2.45-2.1c0-3.67-1.61-7-2.18-10.48a319.54,319.54,0,0,0-10.54-45.28c-2.82-9-6.49-17.91-11.93-25.62-3.18-4.5-5.1-9.61-8.4-14s-5.84-9.31-8.73-14a50.92,50.92,0,0,0-26.35-21.81c-5.17-1.88-10.18-4.16-15.27-6.23-8.88-3.61-17.56-2.25-26.19.07a186,186,0,0,0-24,8.42c.54,1,2.46,1.58,1.63,3.26-.76,1.51-2.31,1.46-3.62,2-3.63,1.51-7.92-.34-11.36,2.57a33.32,33.32,0,0,0-5,4.56,158.34,158.34,0,0,1-14.68,15.73c-9.92,9.65-16.29,21.42-21.2,34.17-2.92,7.59-7.06,14.64-9.61,22.44-2.6,8-1.93,15.68-.42,23.67.74,3.9,2.36,5.77,6.11,5.73,4.7,0,9.2,1.77,13.87,1.56a107.48,107.48,0,0,0,28.56-4.72c1.14-.37,2.29-.7,3.45-1s2.53-.62,3.07.87-.62,2.19-1.82,2.58c-6.61,2.19-13.24,4.4-20.22,4.83-3.61.22-7,1.42-10.66,1.45-5.68,0-11.14-1.51-16.78-1.7-2.46-.08-2.74.39-2.09,2.46,1.33,4.22,2.55,8.48,3.87,12.7.68,2.2,1.77,1.34,2.81.27,1.9-2,3.92-2.18,6-.39a2,2,0,0,1,.77,2.53c-.44.88-1.21.91-2.13.9-3.82,0-5.88,2.43-4.47,5.8,2.3,5.52,2.77,11.61,5.94,18.15.25-8.85,6.63-10.56,12-13.16,2.54-1.22,4.12.27,3.75,3.07-.27,2-1.07,4-2.52,5-4.09,2.82-6.06,8.83-12.35,8.35.84,5.17,1.93,5.57,6.78,3.89a108.39,108.39,0,0,0,20.23-8.89c5.7-3.39,11.42-7.09,14.34-13.59,2-4.34.84-8.34-1.78-11.81-2.34-3.09-5.88-3-9.52-2.51a35.81,35.81,0,0,0-12.19,4c-1.1.6-2.36.86-3.09-.59-.54-1.07.1-1.87,1-2.41,6.06-3.77,12.64-6,19.78-5,8.1,1.18,12.86,11.31,9.71,19.14-3.34,8.31-10.35,12.56-17.55,16.61a113.87,113.87,0,0,1-10.26,5.1c-3.85,1.7-7.9,2.72-11.76,4.34-1.75.74-2.17,1-1.41,2.94a67.4,67.4,0,0,0,17.3,24.82c9.43,8.75,20.68,13.88,32.8,17.65a157.51,157.51,0,0,0,16.86,4.67c8,1.55,16.15,2.4,24.21,1.49a30.44,30.44,0,0,0,16.34-7.5c3.66-3.09,6.16-7.34,10.37-9.79a4.35,4.35,0,0,0,1.56-1.48c2.36-4.16,4.77-8.29,6.93-12.55,2.9-5.72-1.09-10-3.4-14.57a36,36,0,0,1-1.87-3.44,2.05,2.05,0,0,1,1-2.49c.87-.53,1.56-.13,2.24.47,5.5,4.85,8.74,16,5.37,22.37-3.06,5.78-5.24,12.14-11,16.54-3.58,2.75-6.77,6.28-10.1,9.49-5,4.85-11.34,6.27-17.68,6.83a78.11,78.11,0,0,1-25.66-1.67c-3-.74-3.38,1.08-3.1,3.22,1.31,10.06,1.38,20.23,2.85,30.3,1.32,9,1.63,18.14,2.79,27.16a139.1,139.1,0,0,0,4.88,24.18c3.3,10.49,6,21.16,8.61,31.83a366.44,366.44,0,0,0,14.46,45.49c1.89,4.8,4.22,9.37,6.34,14.06.56,1.23,1.58,2.47,0,3.42s-2.81,0-3.56-1.38a92.54,92.54,0,0,1-5.62-12.43c-3.45-9.56-7.27-19-10-28.79-2.91-10.36-6-20.66-8.22-31.21a14.51,14.51,0,0,0-1.77-4.61,48.93,48.93,0,0,0-6.72,12.59,195.46,195.46,0,0,1-15.19,29.87c-4.19,6.94-9.54,12.9-14.73,19.09-8.61,10.26-20.18,15.41-31.73,20.88-2.32,1.09-4.38.92-6.23-.91-8.67-8.59-17.26-17.26-26-25.76-8.6-8.35-17.36-16.53-26.07-24.77a45.65,45.65,0,0,0-3.83-3.25c-1.35-1-2.66-3.8-4,.33-.59,1.81-2.82,1-3-.78-1.11-9.81-10-9.21-16.14-12.18-1.45-.69-2.52.09-2.68,1.84a21.75,21.75,0,0,0,2.28,12.55c1.06,2,2.72,2.16,4.61,1.76,1.25-.26,2.57-.44,2.94,1.11s-.88,2.38-2.18,2.82c-4.12,1.38-7.15,0-9.09-4-.38-.8-.29-2-1.75-2.25-2.11,12-6.48,23.25-11.06,34.32-3.23,7.81-7.43,15.51-13.57,21.75a54.86,54.86,0,0,0-4.46,5.18,88.4,88.4,0,0,1-24.39,21.53c-2,1.24-2.31,2-.42,3.92,5.6,5.84,12.48,8.88,20.13,10.94,8.88,2.39,17.53,1,26.24-.56a3.1,3.1,0,0,1,.7-.14c2,.2,5.13-1.29,5.54,1.48.44,3-2.89,2-4.65,2.31-5.3.78-10.53,2.1-16,2.09a53.08,53.08,0,0,1-21-4.1c-.64-.27-1.52-.72-2-.49-5.19,2.36-10.65,1-16,1.09-17.52.19-35.08-.62-52.56.21-45.42,2.15-90.85.61-136.27,1.11-7.41.08-14.7-1.49-22.07-1.93-4.18-.26-8.39-.21-12.59-.19-11.59,0-23.1.64-34.68,1.73s-23.62,1.32-35.47-.58a102.54,102.54,0,0,0-15.72-1.14c-12.84-.07-25.68,0-38.52,0-5,0-5.8-.78-5.87-5.85-.07-4.8-.16-9.59-.2-14.39,0-.7-.06-1.66.35-2.06,2.79-2.75,1.84-6.23,2-9.49a203.31,203.31,0,0,0-1.11-32.29c-1.7-16.18-.49-32.29-.82-48.43-.44-20.75-.08-41.51-.22-62.26,0-4.61-1.87-8.85-2.47-13.35a51.76,51.76,0,0,1-.56-7.13c0-26.16.55-52.34-.18-78.48-.47-16.85-1.86-33.72-1-50.54,1.13-21,.74-41.89,1.35-62.82.2-6.8,1.26-13.72.47-20.42-1.47-12.41,0-24.78-.68-37.15a123.86,123.86,0,0,1,1.12-23c.83-6.19.84-12.59,3.09-18.64s3.1-7.07,9.47-7.07c5.64,0,11.37-.65,16.9.14,9.54,1.35,19.35.07,28.7,3.14a12.05,12.05,0,0,0,3.57.19h33.48a143.83,143.83,0,0,1,23.87,1.92c4.24.7,8.83,1.06,13.13-.7a5.55,5.55,0,0,1,4.24-.19c3.7,1.7,7.54,1.1,11.33,1.11,30.84,0,61.68-.2,92.51.16,9.81.11,19.91-.74,29.37,1,12.48,2.31,24.9.64,37.19,2.13a98.81,98.81,0,0,0,19.61.93c34-2.69,68.07.07,102-1.38,23.27-1,46.51-.28,69.76-.62,13.63-.21,27.22-2.58,40.85-1.27,10.94,1,21.94,1.33,32.81,2.47s21.76,2,32.19.53c22.75-3.33,45.51-3.08,68.32-3.07,16.78,0,33.54-1.62,50.31-.83,21.21,1,42.46,0,63.62,1.13,10.38.57,20.77.34,31.12,1.09,6.51.48,13,1.8,19.44,2.6,5.74.71,11.51.2,17.26.27,3.84,0,7.68,0,11.52.08,2.09,0,4.06.72,4,3.18-.19,6.1,2,12,1.39,18.12-.1,1,0,1.93-.19,2.87-.19,1.12-.69,2.13-2.08,2-1.2-.12-1.5-1.09-1.53-2.1-.07-1.8-.12-3.6-.07-5.4.07-2.19-.84-3.16-3.05-2.68-1.87.4-4,.51-5.36,1.85-2.53,2.49-5.53,2.37-8.68,2.47a259.66,259.66,0,0,0-34.63,3.42c-5,.84-10.13,1.29-14.87,1.88,19.55,22.47,41.86,42.09,63.83,62.24,1-1.39.58-2.75.58-4,0-12.36,0-24.72,0-37.08,0-2-.15-3.83,1.53-5.62,1.48-1.6.44-4.16.6-6.28.09-1.2,0-2.4.06-3.6s.32-2.26,1.73-2.31a1.87,1.87,0,0,1,1.93,2.14c-.19,4.08,1.38,8.36-1.5,12.19-.62.82-.48,2.3-.49,3.48,0,21.72-.72,43.46.25,65.14.61,13.66,1.83,27.36,2.54,41,.33,6.21,1.55,12.31,1.52,18.53a1.68,1.68,0,0,0,0,.71c2.78,5.72,1.81,11.9,2.07,17.89.28,6.58.07,13.19.07,19.79s.53,13-.11,19.43c-2.6,26.08-1.25,52.22-.88,78.3.26,18.5,1.75,37,1.9,55.55a29.83,29.83,0,0,1-1.75,10.91,22.94,22.94,0,0,0-1.36,8.1c.06,21.84-.15,43.68.17,65.52.08,4.8-.42,10,2.58,14.47,1,1.48.38,3.49-.82,5.06a5.61,5.61,0,0,0-.68,5.48c1.21,3.51.33,5.83-3.36,6.16-5.68.5-11.16,2-16.83,2.7-15.82,1.86-31.61.2-47.38,1-9.69.49-19.49,0-29,1.14-12.48,1.45-25-.49-37.26,1.22-15.05,2.11-30.1,1.14-45.1,2.16-9.6.66-19.22,1.17-28.7.43-12.87-1-25.7-2.24-38.63-2-1.64,0-3.28-.63-4.94-.81-2.29-.25-3.16-1.43-2.71-3.65Zm-145.61-337c.3,1.33,1.38,3-.51,3.76s-2.81-1-3.78-2.07c-1.13-1.28-1-2.94-.48-4.44.57-1.67,2.08-1.82,3.57-1.78,1.08,0,2.16.12,3.22.26,1.26.16,1.67-.48,1.11-1.44-1.37-2.29-1.12-4.93-1.4-7.35-.76-6.54-.65-13.1,1.46-19.51a167.53,167.53,0,0,1,8.07-19.08c2.45-5.19,4.13-10.75,6.78-15.78a110.89,110.89,0,0,1,22.86-29.2c4.19-3.93,7.8-8.48,12.2-13.33h-26.2c-3.47,0-7.06-.47-10.41.21a113.23,113.23,0,0,1-22.78,2,22.9,22.9,0,0,0-4.31.19c-9.25,1.8-18.7,1.82-28,3.07-7.78,1.05-15.69,1.36-23.44,2.7-3.12.53-6.2.33-9.29.68-10.59,1.19-20.94,4.67-31.8,3.28-4.81-.61-9.53.6-14.3.93-5.22.35-10.42,1.09-15.61,1.75-6.27.79-12.49,2-18.78,2.41s-12.3,1.39-18.53,1.64c-11.53.46-23,2.16-34.56,2.65-7.16.31-14.19,1.67-21.4,1.71-3.74,0-7.75-.15-11.4.8-7.2,1.89-14.66,1.45-21.91,3.06-11.37,2.52-23.08.87-34.66,2-14.12,1.38-28.45.61-42.7,1.07-18.58.59-37.19.23-55.79.11-17.14-.11-34.23,0-51.13,3.53a166.23,166.23,0,0,1-23.8,3.54c-2.56.16-3.5,1.16-3.54,3.77-.09,7.41-.23,14.82-.63,22.24-1,18.51.22,37.06-1.3,55.63-1.69,20.66,1.13,41.37,1.1,62.07,0,10.68,0,21.36,0,32,0,4,1.07,7.78,1.62,11.66.59,4.13,3.88,8.8-1.29,12.45-.28.19-.3.9-.27,1.37.36,6.93-.68,13.9.63,20.8.79,4.1,2.08,8.18,2.27,12.31.86,18.51-1.09,37.07,1.23,55.59.77,6.1-.64,12.4-.83,18.52-.39,12.5-.83,25,.66,37.64a162.89,162.89,0,0,1,1.22,28.31c-.19,3.35.18,6.73-.08,10.07s1.16,4.34,4.37,4.23c16.28-.55,32.58.74,48.87-.8,9.61-.91,19.31-.5,29-1,19.19-1,38.46-.73,57.64-2.54,8-.75,15.92-1.37,23.81-2.51,3.12-.45,6.24,0,9.29-.69,9.45-2,19.15-1.87,28.7-3.16,6-.81,12.21-.66,18.25-.68,14.37-.06,28.62-2.52,43-1.57a24.26,24.26,0,0,1,3.88.6,40.34,40.34,0,0,0,16.76.29c5.72-1,11.51-1.71,17.23-2.83,11.08-2.15,22.39-3.13,33.6-4.58,1-.13,1.88-.19,1.66-1.66a98.4,98.4,0,0,1-1-22.44,68.75,68.75,0,0,1,2.82-15.46c1.61-5,3.06-10.29,7-14.41,3.11-3.26,5.93-6.89,5.78-11.89,0-.74.65-1.52,1-2.26s1.17-1.64,2.29-1.26c1.3.44,1.31,1.52,1.11,2.68-.17,1-1.43,2.19-.1,2.87s2-.9,2.88-1.65a7.59,7.59,0,0,0,2.15-2.39c2.69-6.44,8.31-9.31,14.23-11.78,1.33-.56,3.16-1.73,4.08.31s-.91,2.64-2.34,3.35c-2.14,1.07-4.26,2.21-6.38,3.31,2.88-.54,5.39-1.91,8.07-2.73s3.36-2.54,2.75-4.92a19.27,19.27,0,0,1-.62-6c.06-1.12.25-2.3,1.62-2.43,1.61-.15,1.92,1.16,2.15,2.36a33.46,33.46,0,0,1,.87,5.65c0,2.73,1.48,3.46,3.68,3,9.26-2,18,.15,26.75,2.89,1.52.48,2.54.47,2.38-1.25-.33-3.73,2.09-5.15,4.92-6.09,2-.68,3-1.34,2-3.73-.71-1.68-.52-3.92,1.73-4.39,2.07-.43,3,1.29,3,3.15,0,2.3,1.2,2.28,3,2.26,3.76,0,7.2-1.68,10.92-1.82,1.41,0,3.1-.93,3.56,1.09.41,1.85-1.39,2.62-2.68,2.77-3.21.37-6.2,1.73-9.47,1.78-4.11.06-5.24,1.51-4.11,5.5,1.45,5.14,1.6,11.2,8.16,13.24.31.09.52.48.78.73,9.28,8.69,18.58,17.35,27.83,26.07,9.08,8.55,18,17.27,27,25.85,2.78,2.63,4.65,3.19,7.84,1.86,16.8-7,29.22-19.19,39.38-33.82a123.53,123.53,0,0,0,9.58-17.41c1.2-2.49,2.9-4.67,3.9-7.24,2.45-6.32,4.47-12.84,8.28-18.55,3-4.52,4-8.87,1.71-14.42a79.88,79.88,0,0,1-5.43-25.1c-.6-9.46-1.94-18.82-2.85-28.22-1.08-11-2.65-22-2.83-33.14,0-2.14-1-2.55-2.58-3.1-7-2.48-14-4.8-21-7.55-11.65-4.64-20.39-12.74-28.34-21.94-4.49-5.21-7.5-11.39-10.33-17.62-.93-2-2-2.73-4.41-2.31-5.51,1-11.07,2.29-16.73,1.54-3.37-.44-7.2-.31-9.72-2.89-3.82-3.92-3.39-12.54.47-16.45,5-5,10-10.07,15-15,1.63-1.59,2.28-3,1.51-5.38-1.63-5-3.08-10-4.32-15.1C1844.15,1708.85,1842.9,1706.65,1838.7,1707.12Zm-472.11-100.44c0,8.09.17,14.09-.06,20.08-.14,3.38.84,4.37,4.26,3.88,8.87-1.29,17.69-2.67,26.49-4.57s17.84-2.26,26.8-2.46c16-.37,31.92-.1,47.88-.12,1.42,0,3.1.47,4.18-.56,1.8-1.72,3.91-1.48,6-1.61,6.71-.43,13.34,1.27,20,1.18,16-.22,32,.21,48.06-.76,16.81-1,33.5-2.36,50.19-4.56,8.48-1.11,17.08-1.14,25.62-2.14,9-1.06,18-1.1,27.07-2.1,9.69-1.08,19.49-1.19,29.25-2.17,7.12-.72,14.14-2,21.27-2.61,10.68-.87,21.23-3.24,32-2.81a11.57,11.57,0,0,0,4.63-.39,29.9,29.9,0,0,1,10.9-1.77c4.2,0,8.59.72,12.56-.26,7-1.73,14.18-1.55,21.22-3,6.71-1.33,13.7-1.55,20.55-2.12,10.92-.92,21.8-2.72,32.82-2.45a25.27,25.27,0,0,0,2.87-.18c7.22-.65,14.34-2.24,21.68-2,8.75.26,17.51,0,26.27.08,4.68,0,9-.08,13.33-2.89,8.71-5.72,19-7.84,28.75-11,9.27-3,18.67-4.37,28.36-1.32,5.86,1.85,11.19,4.84,16.9,7a53.8,53.8,0,0,1,25.57,19.48c5.07,7.14,9.37,14.74,14.08,22.09,2.28,3.54,2.8,3.79,4.84,0,2.31-4.31,5.41-8.15,7.4-12.67s5-8.37,7.75-12.44c.88-1.31,3.48-2.27,2.34-3.9-.89-1.28-3.37-.4-5.14-.38a10.07,10.07,0,0,0-1.73.46c-8.74,1.81-17.59,1.87-26.44,1.45a17.27,17.27,0,0,1-4.19-1c-1.23-.39-2.19-1.24-1.92-2.65s1.49-1.51,2.82-1.32c2.71.4,5.36,1.1,8.14,1.27,10.69.66,21.08-2.65,31.74-2.31a3.62,3.62,0,0,0,2.26-.92c3.2-2.88,6.58-5.53,9.87-8.3,9.45-8,20.62-12.12,32.45-14.25,7.75-1.4,15.77-.91,23.68-1.11,14.73-.38,27.34,6,40.24,11.64,3.37,1.48,6,4.91,9.83,4.79a122.92,122.92,0,0,0,17.84-2c7.68-1.39,15.49-1.66,23.16-2.91,5.06-.82,10.18-.23,15.26-1.67,3.33-1,6.17-3.29,9.74-3.29,4.07,0,3.66-2.83,3.68-5.53,0-3.33-2.38-2.64-4.32-2.68-1.56,0-3.12.06-4.68,0-8.48-.35-17,.9-25.45-1a116.33,116.33,0,0,0-15.6-2c-10.34-.88-20.73-.35-31.14-1.09-19.21-1.37-38.55.06-57.85-1.07-15.06-.87-30.17.34-45.26.67-25.68.57-51.35-.53-77,3.13-11,1.57-22.58.68-34-.51-10.87-1.13-21.87-1.63-32.82-2.35-9.48-.62-19.07.43-28.6.87-26.45,1.19-53-.19-79.45.95-33.86,1.44-67.79-1.14-101.69,1.31-16.11,1.16-32.23-2.05-48.4-1.19a3.81,3.81,0,0,1-1.07-.09c-14-3.59-28.39-2.43-42.55-2.68-38.14-.69-76.3-.23-114.46-.24a20.62,20.62,0,0,1-4.31-.14,112.89,112.89,0,0,0-23.84-2q-16.74,0-33.48,0a16.11,16.11,0,0,1-3.94-.23c-9.78-2.55-19.86-2.22-29.81-3.14-3.68-.34-7.43-.08-11.15,0-3.5,0-6.22-.93-7.87,4.73-1.8,6.16-2.36,12.37-3.28,18.48A138,138,0,0,0,1366.59,1606.68Zm363.07,435.86a38.34,38.34,0,0,1-9.8-10.58c-4-6.48-8.51-12.85-10-20.54-.75-4-3.14-4.39-6.21-3.72-7.58,1.64-15.35,2-22.94,3.44-4,.78-8,1-12,1.84a115,115,0,0,1-20.92,2.47c-5.58.15-10.89-1.3-16.39-1.48-12.69-.43-25.26,2.18-38,1.38a7.87,7.87,0,0,0-1.08.09c-12.82,1.11-25.69,1.51-38.52,2.77-7.71.76-15.43,1.68-23.08,2.68-9.69,1.26-19.47,1.33-29.14,2.89-6.55,1-13.33.29-20.05.89-11.29,1-22.66.57-34,1.12-23.55,1.14-47.17,1.8-70.78,1.22-.84,0-1.68,0-2.52,0-3.13,0-5,1.06-4.66,4.67a27.63,27.63,0,0,1,0,5.75c-.34,3.24.81,4.38,4.2,4.34q19.25-.29,38.5,0a88.25,88.25,0,0,1,15.35,1.12c10.73,2,21.53,1.26,32.2.63,7.31-.44,14.63-1.79,22-1.8q12.42,0,24.83,0c1.32,0,2.63.12,3.94.25,6.28.62,12.56,1.9,18.82,1.8,42.15-.64,84.3,1.25,126.46-1,23.09-1.23,46.29-.22,69.44-.22Zm-8.35-91.54c-5.6,3.38-6.22,9.3-7.89,14.3-3.73,11.15-3.58,22.8-2.25,34.36.32,2.74-.38,5.8.8,8.14,2.49,4.91,3.73,10.33,6.63,15.06,3.21,5.23,3.06,5.31,8.06,1.83,1-.68,2-1.28,3-1.91a61.7,61.7,0,0,0,15.91-13.78c2.55-3.17,5.42-6.1,7.93-9.31,5.76-7.36,10.91-15.13,13.76-24.14a83.58,83.58,0,0,1,2.88-8.47c3.88-8.8,5.51-18.25,7.74-27.51a5.05,5.05,0,0,0-2.58-5.83c-2.11-1.14-3.7-.08-5.36,1.5a23.46,23.46,0,0,0-6.28,9.89c-.58,1.72-1,4.22-3.4,4.07s-2.85-2.68-3.39-4.57c-1-3.43-1.75-6.93-2.51-10.42-.47-2.17-1.41-3-3.74-2.25a3.88,3.88,0,0,0-3,4.24c.07,5.52.25,11-.07,16.55-.41,7-1.19,14-4.33,20.53-3.25,6.71-7.36,9.17-13.9,8.31-3.58-.47-6.11-4.75-4.52-7.8.59-1.12,1.32-2.56,2.94-2.15s1.65,1.87,1.25,3.23c-.68,2.28.65,2.73,2.45,2.85,4.23.27,6.19-2.63,7.87-5.76,3.33-6.16,3.75-13,4.34-19.78.29-3.28,0-6.6,0-10.44-1.57,1-2.52,1.68-3.56,2.21-2.23,1.15-5,1.9-6.79.22-2.07-1.91-3.37-1.14-5.23-.19a4.88,4.88,0,0,0-3,4.84c0,2.76,0,5.52-.08,8.28,0,1.24-.42,2.56-1.93,2.57s-1.79-1.34-1.82-2.59C1721.29,1955.09,1721.31,1953.1,1721.31,1951Zm124.63-188c3.79.81,7.68-1.48,11.88-1.55,2,0,2.12-1.57,1.53-3.14a203.92,203.92,0,0,1-6.4-21.22c-.69-2.72-1.8-2.87-3.76-.81-4.13,4.34-8.24,8.72-12.73,12.66-3.72,3.25-3.47,6.81-1.92,10.69,1.31,3.29,4.74,2.56,7.33,3.32C1843,1763.31,1844.24,1763,1845.94,1763Zm-85.17,178.23a43.43,43.43,0,0,1,9.45-12c-4-1.06-7.47.55-11,.66-1.23,0-1.63,1-1.32,2.06C1758.74,1934.88,1759.68,1937.78,1760.77,1941.27Z" transform="translate(-1361.28 -1551.97)"/><path d="M2141.65,1930.33c8-4.18,16.52-5.65,23.08-11.3,2.71-2.32,6.31-3.13,9.14-5.55,6.07-5.17,9.66-12.17,14.57-18.17,3.59-4.39,6.64-9.07,7.48-14.86a23.64,23.64,0,0,0,.53-2.44,145.3,145.3,0,0,0-1.85-31.8c-1.31-7.31-1.6-14.7-2.33-22.06-1-9.74-2.16-19.43-3.85-29.07-1.19-6.8-2.33-13.59-5.29-19.94a3.7,3.7,0,0,1,1.74-4.92c2-.87,2.82,1.4,3,2.71,1,8.09,3.72,15.78,4.87,23.86,1.9,13.48,3.06,27,4.57,40.53,1.45,13,3.59,25.81,3,38.89-.27,6-1.54,11.77-5.42,16.76-4.27,5.49-8.19,11.25-12.33,16.84-3.3,4.47-7.68,7.57-12.3,10.7-8.74,5.94-18.76,8.93-27.89,13.79A42.26,42.26,0,0,1,2133,1938a55.67,55.67,0,0,0-12.62,5.17c-6.27,3.48-13.22,3.73-20,5.07-4.6.92-8.95-1.23-13.51-1.31-2.63,0-3.43.68-3.26,3.16a34.63,34.63,0,0,1-.2,5.38,1.79,1.79,0,0,1-1.82,1.86,1.7,1.7,0,0,1-1.7-1.94c.41-4.72-.72-9.37-.27-14.15a76.78,76.78,0,0,0-2.3-26.67c-1.56-6-2.56-12.11-3.95-18.15-2.25-9.87-4.66-19.71-6.92-29.59-1.25-5.46-2.42-10.94-3.47-16.44-1.58-8.23-4.08-16.21-6.38-24.25-3-10.52-4.85-21.15-4.07-32.16a137.22,137.22,0,0,0-1.12-28,164.88,164.88,0,0,0-6.87-29.55c-1.1-3.3-.58-6.64-.46-10a1.75,1.75,0,0,1,1.85-1.82,1.8,1.8,0,0,1,1.77,1.92c.17,11.38,4.82,21.86,6.67,32.91,2.17,13,2.27,26,2,39a71.38,71.38,0,0,0,2.44,20.22c4.07,15.1,7.92,30.22,11.06,45.57,2.22,10.83,5.17,21.58,7.78,32.36q2,8.16,3.6,16.4c.58,3,1.63,1.94,3.31.86,7.15-4.58,11.26-11.74,15.44-18.64,7.69-12.7,14.65-25.84,22.21-38.62,9.82-16.59,14.32-35.21,20.62-53.14,1.08-3.06.9-6.6,1.89-9.81.46-1.48.88-3.34,2.94-2.94,1.83.36,1,2,1.07,3.26.17,3.3,1.76,6.28,2.44,9.52,3.27,15.75,5.83,31.52,5.95,47.67.05,7.28-1.77,14.22-2.57,21.34-.7,6.25-2.65,12.34-3.75,18.56-2.21,12.49-4.43,25-8.84,36.9A19.91,19.91,0,0,0,2141.65,1930.33Zm5.79-125-.91-.17c-1.19,3.49-2.29,7-3.59,10.47-5,13.29-8.24,27.26-15.53,39.7-8.17,13.93-15.79,28.18-24.08,42-5,8.39-10.21,16.86-19.29,21.75-.85.46-1.77,1.12-1.37,2.25,2.07,5.85.71,11.89,1,17.84.13,2.73,1.18,3.75,3.85,4,5.53.52,11,1.08,16.55.11,2.91-.51,6,.08,8.83-1.16,7.05-3,14.15-5.94,21.24-8.88a4.22,4.22,0,0,0,2.8-2.49c3.11-8.43,6-17,7.47-25.79,2.23-13.28,5.51-26.36,7.28-39.71.65-5,2.31-9.79,1.53-14.92a41.38,41.38,0,0,1-.49-8.24C2153.44,1829.46,2149.35,1817.56,2147.44,1805.32Z" transform="translate(-1361.28 -1551.97)"/><path d="M1984.34,2044.05c-1.48,2.08-3.54,2.49-6,2.44-5.88-.14-11.76,0-17.63-.07a66.14,66.14,0,0,0-9.64.73c-4.5.62-8.9-.94-13.46-.86-4.36.08-8.41,1.84-12.79,1.47-4-.33-8-.09-12.09-1.1-5.78-1.43-11.32,1.17-16.84,2.58a50.35,50.35,0,0,1-10.22,1.59c-10.26.47-20.53,2.23-30.77,1.11-21.53-2.36-43.09-.53-64.62-1.18a5.74,5.74,0,0,1-3.13-.6c-1.07-.7-1.93-1.59-1.35-3s1.66-1.27,2.76-.89c2.58.88,5.24.52,7.86.53,15,0,30-.12,45,.06,9.42.12,18.79,2.28,28.22,1.2,11.3-1.29,22.81-1,33.77-5.06,3.76-1.39,8.11-1,12.09-.06a36.35,36.35,0,0,0,15.91,0c5.29-1.12,10.77-.51,16.14-.34,5,.15,9-1.56,12.85-4.56,5.08-4,11.09-6.64,15.6-11.41a24.07,24.07,0,0,0,5.2-7.23c.64-1.53,1.64-3.89,3.81-3,2.56,1.09.68,3.22,0,4.62-2.43,5.25-6.69,9-11.16,12.47-3.76,2.89-7.84,5.35-12.31,8.36,3.67,1.13,6.75.5,9.76.61,3.24.12,6.48,0,9.72,0,1.31,0,2.71-.1,3.27,1.55Z" transform="translate(-1361.28 -1551.97)"/><path d="M2060.42,1652.37a34.25,34.25,0,0,1,5.78-22.77c4.64-6.73,11.42-9.64,19.19-10.36a62.19,62.19,0,0,1,29.22,4.09c13.55,5.42,25.24,13.33,34,25.28,7.45,10.16,11.23,22.15,17,33.15.6,1.14.9,2.43-.54,3.09-1.63.76-2.44-.53-3-1.74-3.73-7.76-7.4-15.56-11.12-23.33-4.15-8.69-10.3-15.61-17.94-21.51A79.54,79.54,0,0,0,2110,1626c-9.38-3.23-19-4.24-28.87-1.82-8.71,2.13-13.63,8.06-15.56,16.13-2.19,9.11-2.58,18.46.61,27.6a15.81,15.81,0,0,0,2.68,4.65c6.57,8.25,12.77,16.8,20.18,24.35,2.79,2.84,5.65,5.53,9.74,6.38,1.32.28,2.79.74,2.38,2.51s-2,1.62-3.27,1.43c-4.12-.6-7.16-3.12-10-5.94-8.69-8.66-16-18.51-23.48-28.13a20.25,20.25,0,0,1-4-12.08C2060.35,1658.58,2060.42,1656.06,2060.42,1652.37Z" transform="translate(-1361.28 -1551.97)"/><path d="M1976.1,1698.26c6.11-.6,11.92.21,17.2,3.63,3.47,2.26,5,5.6,3.72,9.54a18.72,18.72,0,0,1-5.89,9.27c-6.75,5.35-13.21,11.1-20.9,15.17-1.34.71-2.3,2.12-3.6,2.94-10,6.23-20.49,10.8-32.5,10.78-4.28,0-7.88-2-10.93-4.81a8,8,0,0,1-1-10.25c3.84-5.89,7.57-11.82,13.79-15.76a49.7,49.7,0,0,0,9.44-7.74c1-1.1,2.71-2.73,4.3-1s-.31,2.86-1.43,3.8a137.54,137.54,0,0,1-11.22,9c-5.07,3.42-8,8.46-11.38,13.27-1.67,2.4-1,4.55,1,6.37a14,14,0,0,0,13.52,3c9.42-2.82,18.84-5.47,26.93-12,6.28-5,13.53-9,19.6-14.47,2.61-2.37,4.89-4.87,6.16-8.25.86-2.29.4-4.08-1.62-5.27s-4.25-2.94-6.44-3c-7.7-.29-15.51-1.76-23,1.7-2.9,1.34-6.1,2-8.75,4-1,.74-2.23,1.39-3.12,0s.12-2.54,1.28-3.26c6-3.7,12.25-6.46,19.41-6.65C1972.5,1698.22,1974.3,1698.26,1976.1,1698.26Z" transform="translate(-1361.28 -1551.97)"/><path d="M2143,2032.84c-10.73-2-22.93-.56-34.79-3.47-3.78-.92-7.86-.68-11.8-1-1.07-.08-2.16-.12-3.22-.3s-1.93-.63-1.94-1.78c0-1.36,1-1.8,2.22-1.83a79.2,79.2,0,0,1,16.79,1.33c3.16.6,6.4,1.43,9.5,1.45,12.3.08,24.49,2.33,36.88,1.11,9.75-.95,19.64-.46,29.45-1a49.92,49.92,0,0,0,23.74-7.16c4.95-3,7.73-7.89,9.86-12.9,3-7.11,5.84-14.38,7.32-22,.59-3,1.18-6.09,1.48-9.16.15-1.42,0-2.92,1.82-2.78a2.57,2.57,0,0,1,2.21,3.47c-.72,2.57-.65,5.24-1.27,7.75-2.7,10.91-6,21.58-11.82,31.37-3.28,5.53-8.18,8.52-13.73,11-9.07,4-18.74,4.58-28.44,4.88C2166.2,2032.12,2155.16,2031.94,2143,2032.84Z" transform="translate(-1361.28 -1551.97)"/><path d="M1931.11,1698.06a1.61,1.61,0,0,1-1.72-1c-.48-1.25.41-2,1.1-2.81,3.94-4.69,8.91-8.24,13.55-12.13,6.49-5.45,13.66-10,19.78-16,1.22-1.18,2.8-2.6,4.3-.91,1.67,1.88-.11,3.34-1.48,4.45-8.75,7.06-17.56,14-26.32,21.09-2.42,2-4.73,4-7.09,6.07A3.67,3.67,0,0,1,1931.11,1698.06Z" transform="translate(-1361.28 -1551.97)"/><path d="M1948.18,1726c-.19-6.74,3.87-11,10-10.45,3,.26,4.19,2.13,2.69,4.6a29.58,29.58,0,0,0-2.68,5.37c-1.33,3.73-5.71,3.28-8,5.85-.7.78-1.85-.6-2-1.8S1948.18,1727.2,1948.18,1726Z" transform="translate(-1361.28 -1551.97)"/><path d="M1413.14,1846.35c-1.64-10.5,1.58-19.58,7.79-28,3-4,5.25-8.6,8.09-12.76a32.24,32.24,0,0,1,10.4-10.12c5.4-3.12,10.67-6.47,16-9.72a18.12,18.12,0,0,1,14.08-2.3c1.37.32,3.15.54,2.75,2.56-.36,1.81-2,1.47-3.27,1.22-5.57-1.1-10.3.74-14.84,3.78-3.69,2.47-7.57,4.64-11.35,7a35.58,35.58,0,0,0-12.26,12.28c-3,5-6.07,10.08-9.4,14.91a23.59,23.59,0,0,0-4.14,14.56c.21,6.69-.74,13.43.84,20.07.93,3.9,2.09,7.62,5.42,10.24,6.86,5.39,13.09,11.72,21,15.53a44.46,44.46,0,0,0,22.91,4.33,90.78,90.78,0,0,0,20.27-4.08c7.39-2.28,13-7.17,18.29-12.3,9.34-9,14.68-20.4,17.2-32.87,2.38-11.76.19-23.24-5.17-34a52.61,52.61,0,0,0-5.64-9.54c-5.23-6.6-12.36-9.11-20.51-9.33-1.79,0-3.64.17-5.07-1.28a2.1,2.1,0,0,1-.69-2.27,1.45,1.45,0,0,1,1.68-1.07c5.61,1.52,11.56.69,17.13,3.29,7.31,3.41,11.63,9.26,15.44,15.87a59.57,59.57,0,0,1,7.7,29.21c.12,9.06-2.41,17.82-6.42,26.22-6.42,13.47-15.88,23.88-29.21,30.42-7.11,3.49-15,4.72-22.9,5.57a50.82,50.82,0,0,1-24.5-3.52c-7.11-2.81-12.68-8-18.53-12.74a26.85,26.85,0,0,0-2.52-2c-7.48-4.64-10-11.87-10.57-20.11C1413,1852.36,1413.14,1849.35,1413.14,1846.35Z" transform="translate(-1361.28 -1551.97)"/><path d="M1653.38,1858.11a11.71,11.71,0,0,0-4.33,8,42.21,42.21,0,0,0,0,5c.11,3.12-1.07,5.17-4.16,6.34a41.49,41.49,0,0,0-5.93,2.46c-2.11,1.18-3.91.48-4.64-2.16a18.86,18.86,0,0,1-.83-6c.85-19.12-1.79-38-3.3-57-.23-2.87-.21-5.75-.21-8.63,0-1.47.2-3.16,2.16-3.07,1.74.07,1.82,1.67,1.79,3-.16,7.69.76,15.32,1.45,23,1.21,13.49,2.53,27,2,40.55a4.38,4.38,0,0,0,4.35,4.66c2.56.14,3.68-2,3.46-4.79-.43-5.23.64-10,4.83-13.64,1.77-1.56,3.65-2.36,5.91-1.54s1.74,2.91,1.76,4.64q.07,7.92,0,15.84c0,2.27.72,3,3.07,2.28a12.82,12.82,0,0,0,6.13-3.51,3.44,3.44,0,0,0,.92-3.62c-1.64-5.28-1.19-10.46-.11-15.86s.6-11,.13-16.49a4.36,4.36,0,0,0-3.84-4.22c-3.12-.2-6.39-.06-8.5,2.73a61.51,61.51,0,0,0-3.89,6.44c-.79,1.37-1.58,3-3.45,2.57-2.28-.54-1.64-2.66-1.65-4.22,0-11,0-22.08-.06-33.12,0-1.67.76-4-1.7-4.55-2.2-.52-4.6-.75-6.24,1.48-.8,1.07-1.55,2.53-3.08,1.37s-.95-2.75,0-4.15c1.77-2.64,6.84-3.94,10.9-2.6,3.07,1,4,3.52,4,6.53,0,9.72,0,19.43,0,30,3.24-5.31,7.81-6.56,13-6.47,4.85.08,8.41,2.72,8.42,7.5,0,8.45,1.39,17-.89,25.38a8.25,8.25,0,0,0,.29,5.32c1.72,4.21.33,7.4-3,10.16a18,18,0,0,1-8.81,3.79c-3.32.56-5.42-1.39-5.5-5-.13-5.28,0-10.56-.07-15.84A22.74,22.74,0,0,0,1653.38,1858.11Z" transform="translate(-1361.28 -1551.97)"/><path d="M1552.13,1862.64c-1.46,2.46-1.12,4.41-.67,6.42,1.51,6.66-.93,11.37-7.21,13.52a58.76,58.76,0,0,1-9.37,2.29c-4,.66-5.64-1.28-4.73-5.24,3.52-15.31,6.27-30.69,6.2-46.51,0-6.71,3.67-12,8.29-16.63a5.76,5.76,0,0,1,5.38-1.4c8.6,1.6,15.16,6.11,19.17,14a11.8,11.8,0,0,1,.32,9.78,59.3,59.3,0,0,1-2.15,6.09c-3.71,7.38-.82,10.51,4.8,15.22,4.34,3.63,4.84,6.86.46,10.21a18.52,18.52,0,0,0-4.83,6.18c-.84,1.53-2,2.93-3.87,2.71a5.18,5.18,0,0,1-4.07-3.09C1557.43,1871.59,1554.73,1867.14,1552.13,1862.64Zm11.45,11.79c2.16-2.61,3.56-5,5.58-6.58,2.39-1.88,2.57-2.85-.05-4.63-4-2.71-6.35-6.89-8-11.25-1.2-3.2,1.85-5.74,2.65-8.69,0-.12.15-.21.17-.32.6-4,4.1-7.49,1.84-12-3.2-6.42-8.73-9.79-15.23-11.9a3.33,3.33,0,0,0-3.67.82c-4,4.46-7.07,9.3-6.79,15.69.17,3.94.64,8-.18,11.83-2.32,10.77-2.43,21.92-5.73,32.51-.07.23.24.58.48,1.11,2.3-1.37,4.91-1.15,7.28-2,5.44-2,6.24-3.69,5.45-9.46a75.74,75.74,0,0,1-.24-11.48c0-2.1,1.6-3,3.13-1.79,3,2.48,6.52,4.72,7.91,8.62C1559.4,1868.35,1562.1,1870.81,1563.58,1874.43Z" transform="translate(-1361.28 -1551.97)"/><path d="M1683.05,1845.14c0-10.45,6.16-16.77,14.5-21.73,7.68-4.57,15.75-5.07,24.14-2.6a6.62,6.62,0,0,1,4.34,4c1.3,4.12,2.11,9-.25,12.53-3.65,5.43-8.29,10.41-16.07,9.69-1.47-.13-3.94-1-4.29,1.23a5.47,5.47,0,0,0,2.84,6c1.94.86,2,2,2.3,3.8a48.82,48.82,0,0,1,1.08,11c-.1,2.24-.91,3.85-3.38,3.68-8.93-.64-17.44-2.71-22-11.31C1683.66,1856.63,1682.86,1850.9,1683.05,1845.14Zm31.8-2.92c3-2.19,6-4.34,7.7-7.52s.21-8.77-2.28-9.6c-2.69-.89-5.6-1.92-8.34-1.74-14.52,1-30.19,12.44-23.46,32.68,1.33,4,3,7.82,7.17,9.36a59.23,59.23,0,0,1,7.52,3.11c1.53.83,4,1.47,4.46-1.51.38-2.5.55-5.36-1.27-7.25-3.58-3.72-5.07-8.49-6.52-13.06-1.33-4.18-2.33-9.21,1-13a12.43,12.43,0,0,1,11.81-4.45c2.18.36,3.28,1,3.29,3.31C1716,1835.74,1716.22,1839,1714.85,1842.22Zm-2.86-6.54c0-2.19-1.83-3.31-4-2.17a14.38,14.38,0,0,0-4.41,3.46c-1.15,1.42-.86,3.46-.25,5.12.5,1.37,2,1.1,3.14.84C1708.93,1842.34,1712,1838.16,1712,1835.68Z" transform="translate(-1361.28 -1551.97)"/><path d="M1410.26,1993.9c-1.09-10.56-.91-21.33-3.18-32-1.46-6.85-1.25-14.06-1.77-21.11-.24-3.22-.51-6.45-.63-9.68-.09-2.58,1.07-4.11,3.9-3.9,1,.07,2,.15,2.41,1.21s-.19,1.85-1.07,2.37a2.51,2.51,0,0,0-1.16,2.75c.43,5.62.85,11.23,1.15,16.86.1,2,.93,2.83,2.88,2.7,4.91-.33,9.59-1.77,14.36-2.77a46.55,46.55,0,0,1,8.45-1.45c2.92-.05,4-1.17,3.55-3.87-1-6.35-.77-12.87-2.59-19.12-.48-1.67-1.2-4,1.32-4.36,2.1-.27,2.79,2,3,3.78,1.51,12.79,2.67,25.62,4.51,38.36,1.55,10.73,2.58,21.56,5.2,32.12a9.5,9.5,0,0,1-.08,5,1.73,1.73,0,0,1-1.82,1.43,1.71,1.71,0,0,1-1.59-1.67c-1.21-7.63-2.49-15.26-3.58-22.91s-2.08-15.6-3-23.42c-.22-1.86-1.35-1.62-2.56-1.59-6.28.14-12.18,2.29-18.22,3.62a27.27,27.27,0,0,1-5.29.73c-3.65.09-4.58,1-3.6,4.64a87.08,87.08,0,0,1,2.34,15.95c.41,5.25.62,10.52.89,15.79a10.46,10.46,0,0,1-.18,2.5c-.26,1.32-.64,2.85-2.33,2.68-1.85-.19-1.6-1.74-1.41-3.09C1410.21,1995,1410.22,1994.52,1410.26,1993.9Z" transform="translate(-1361.28 -1551.97)"/><path d="M1585.93,1870.34c0-2.16,0-4.32,0-6.48s.25-4.27-2.14-5.62c-1.06-.59-1.27-2.08-1.23-3.25.26-6.6-1.47-13.1-.94-19.7.86-10.8,11.12-21.07,23.73-13.13a55.67,55.67,0,0,1,11.44,9.7c3.81,4.15,2.42,14.16-2.7,18.27-2.48,2-4.44,4.75-7.74,5.69a1.81,1.81,0,0,0-1.15,2.63c1.7,3.94,2.28,8.33,4.74,12,2,2.9,1,5.32-2.56,5.83-6,.86-11.72,2.13-16.73,5.86-2.14,1.6-4.49.11-4.66-2.78s0-6,0-9Zm3.85-4.1h0v7.91c0,2,.6,2.91,2.82,1.9a47.65,47.65,0,0,1,7-2.6c5.56-1.52,5.57-1.45,3.94-6.65a13.44,13.44,0,0,0-.48-2.08c-1.22-2.38-1.08-5.5-3.81-7a2.41,2.41,0,0,1-1.4-3c.39-1.4,1.57-1.75,2.8-1.85,6.26-.49,10.14-4.4,13-9.42,1.69-3,1.84-6.25-.42-9.13a33.25,33.25,0,0,0-12.19-9.74c-6.12-2.86-13.22,1.1-14.88,7.71-1.36,5.43-.23,10.67.06,16,.15,2.75-.24,5.49,2.51,7.4,1,.7,1,2.14,1,3.34C1589.79,1861.45,1589.78,1863.84,1589.78,1866.24Z" transform="translate(-1361.28 -1551.97)"/><path d="M1741.46,1845.27c0-3.84.06-7.68,0-11.52-.07-3.27,2-3.6,4.53-3.62s4.63.6,4.6,3.67c-.06,7.25,3.94,12.81,7.55,18.54.39.61.7,1.75,1.81,1.32.71-.28.77-1.12.93-1.84,1.18-5.19,2.62-10.32,3.19-15.66.39-3.62,3-4,8.32-4.59,2.82-.32,3.47,1.8,4.22,4.28,1.89,6.28,1.49,12.69.89,18.9-.73,7.56-5.22,13.33-12.12,16.75-2.85,1.41-5.89.46-8.68-.8-5.39-2.42-11.43-3.91-14.09-10.21a10.92,10.92,0,0,1-1.16-4.43C1741.48,1852.46,1741.46,1848.86,1741.46,1845.27Zm5.06-10.57-1.07.25c0,6.92-.16,13.85.09,20.77a7.77,7.77,0,0,0,3.42,6.48,39.59,39.59,0,0,0,10,4.75c5.17,1.36,8.9-.25,11.33-5,.43-.85,1-1.63,1.42-2.49,3.38-7.07,2.79-14.31.87-21.61-.4-1.55-1.52-1.66-2.8-1.51s-1.79,1-1.94,2.18a63.05,63.05,0,0,1-1,6.73,52.87,52.87,0,0,1-4.73,13.45c-1.5,2.75-4.2,3-5.29.61C1753.17,1851.18,1746.54,1844.39,1746.52,1834.7Z" transform="translate(-1361.28 -1551.97)"/><path d="M1447.64,1855.23c-.24-9.42,3.08-17.1,7.33-24.57,2.53-4.45,5.39-8.63,10-11,6.77-3.45,13.69-6.88,21.67-3.46a13.57,13.57,0,0,1,7.58,8c5.14,12.77,1.7,24.83-4.16,35.86a30.43,30.43,0,0,1-21.23,15.76,13.3,13.3,0,0,1-8-1.34C1453.33,1870.75,1446.74,1866.45,1447.64,1855.23Zm3.91-1c0,.48,0,1,0,1.44-.69,10.37,10.57,18.15,19.69,15.43a25.2,25.2,0,0,0,13.14-10.06c7.24-10.34,10.6-21.74,6.45-34.47-2.3-7.08-11.61-10.18-17.52-5.58a4.31,4.31,0,0,1-2,.69c-3.25.43-5.71,2.17-8,4.4s-3.46,4.84-5.15,7.29A38.83,38.83,0,0,0,1451.55,1854.2Z" transform="translate(-1361.28 -1551.97)"/><path d="M1781.18,1876.32c.06-1.78-.09-3.54.73-5.28,2-4.23,3.45-4.71,7.35-2.13,3.68,2.43,7,1.76,9.56-1.91,1.82-2.64,1.23-4.87-1.63-6.46-2.6-1.45-5.61-1.94-8-3.87-4.16-3.3-6.43-7-5.4-12.67s5.27-7.91,9.7-10c1.57-.73,3.43-.85,5.14-1.43,2.81-.94,4,.19,3.75,3.19a1.81,1.81,0,0,0,.41,1.62c3.38,3.35,1.09,5.79-1.32,8.17-1.57,1.56-3,2.89-.18,4.73,12.63,8.13,9,10.07,7.11,21.29-.91,5.41-5.65,9-11.21,9-3.35,0-6,2.35-9.34,2.27C1782,1882.77,1781.18,1882.13,1781.18,1876.32Zm22.44-13.38c.16,6.83-5.36,13.85-14.51,10.59-1.17-.42-2.56-1.55-3.52,0a4.42,4.42,0,0,0,0,4.78c.84,1.23,2.4.76,3.64.25a19.8,19.8,0,0,1,7.25-1.76,8,8,0,0,0,8-6.37c.46-1.72.43-3.61,1.11-5.22,1.52-3.62.36-6.28-2.47-8.5a22.84,22.84,0,0,0-4.43-3c-3.57-1.6-3.49-4.54-3-7.58.23-1.63,2-2.29,2.83-3.62.55-.89,1.5-1.7.56-2.86-.74-.92-1.38-1.95-2.81-2-1.88,0-7.32,3.46-8.1,5.46-1.09,2.81-1.31,5.46,1.09,8,1.89,2,4.17,3,6.49,4.27C1799.14,1857.14,1804.43,1857.38,1803.62,1862.94Z" transform="translate(-1361.28 -1551.97)"/><path d="M1691.94,1912.31c4.66,4.16,8.74-.64,13.14-1a73,73,0,0,0,14.05-2.74,17.43,17.43,0,0,1,2.07-.61c1.22-.18,2.58-.21,3,1.24s-.76,2.27-1.93,2.57c-4,1-8.12,2-12.21,2.88A81,81,0,0,0,1695,1919a3.23,3.23,0,0,0-2.17,3.67c.35,3.44.79,6.88,1.22,10.32.22,1.77,1.23,2.09,2.8,1.56,5.22-1.75,10.61-3,15.59-5.42,1.14-.55,2.34-1.16,3.2.11,1,1.51-.2,2.41-1.31,3.19-3.11,2.19-6.87,2.74-10.37,3.9-9.23,3.07-9.4,3-8.18,12.46a310.34,310.34,0,0,0,5.69,32.88c.34,1.41,1.49,3.37-.86,3.84-2.07.41-2.62-1.44-3-3.21-2.89-12.24-4-24.78-6.52-37.07a36.58,36.58,0,0,1-1-11c.46-5.33-1.2-10.85-2.06-16.28C1687.46,1915.09,1689.43,1912.15,1691.94,1912.31Z" transform="translate(-1361.28 -1551.97)"/><path d="M1848.89,1929.72c-2.4-.24-3.31-2-4.28-3.63-1.76-3-3.43-6-5.21-9-2.46-4.1-6.23-6.9-10-9.7a6,6,0,0,1-2.14-2.67c-1.64-3.92-1.17-5,3.25-5.51,7.49-.83,15.06-1.15,22.48-2.34,5-.79,10.16-1.14,14.59-4.07,1-.65,2.21-1.34,3.22-.1s.19,2.42-.86,3c-11.21,6.28-12.8,18-16.53,28.62C1852.61,1926.73,1851.64,1929.09,1848.89,1929.72Zm-17.53-26.41c6.76,5.78,12.49,11.59,16,19.23.93,2,2,1.22,2.54-.4.89-2.45,1.75-4.92,2.56-7.4a123.45,123.45,0,0,1,5.41-14.27Z" transform="translate(-1361.28 -1551.97)"/><path d="M1518.86,1969.73c-.75,1.76-1.5,3.39-2.15,5-.52,1.31-1.2,2.39-2.77,2.41s-2.26-1.35-2.66-2.54c-1.24-3.74-2.47-7.49-3.39-11.31-1.09-4.51-2.69-8.94-2.59-13.67,0-1.55-.62-3.91,1.81-4s2,2.17,2.13,3.81a75.37,75.37,0,0,0,4.67,19.49c3.82-4.33,4.65-9.71,6.69-14.55a8.06,8.06,0,0,1,1.45-2.45,3.25,3.25,0,0,1,4-.63c1.47.71,1.35,2.13,1.06,3.46-.53,2.4-2,4.36-3.36,6.3a6.32,6.32,0,0,0,0,7.67c1.8,2.6,4.92,2.1,7.27,1.22,3.68-1.37,7.75-1.57,11.17-3.75,1-.67,2.37-.92,3.08.55s-.36,2.26-1.45,2.84c-6,3.19-12.37,5-19.26,4.56C1521.66,1974,1520.59,1971.47,1518.86,1969.73Z" transform="translate(-1361.28 -1551.97)"/><path d="M1473.7,1973.4a14.77,14.77,0,0,1-9.12,7.53c-2.33.77-4.34,1-6.32-.84s-3.33-4.16-2.35-7c1.6-4.64,3.34-9.23,5.09-13.81a3,3,0,0,1,1.38-1.54c4.13-1.9,8.29-3.74,12.49-5.49a2.54,2.54,0,0,1,3.61,1.35,3.81,3.81,0,0,1-.62,4.36c-1.09,1.15-2.3,1.23-3.33-.16a1.35,1.35,0,0,0-1.16-.65c-2.12-.05-8.93,4.43-9.74,6.5-1.18,3-2.29,6-3.48,9a3.63,3.63,0,0,0,.84,4.28c1.18,1.06,2.6.12,3.69-.4,3.84-1.85,6.16-4.82,6.06-9.31,0-1.92,0-3.83,0-5.75,0-1.13.33-2.25,1.72-2.32s1.87,1,2,2.1a44.59,44.59,0,0,0,1.83,7.28,13,13,0,0,0,4.54,6.7c1.07.8,2.22,1.82,1.12,3.26s-2.35.54-3.49-.17C1476.65,1977.19,1475.45,1975.37,1473.7,1973.4Z" transform="translate(-1361.28 -1551.97)"/><path d="M1613,1958.44a22.92,22.92,0,0,1,9.52-8.29c3.61-1.69,8.06.16,9.85,4.19a63.78,63.78,0,0,1,2.77,8.49c.37,1.3.31,2.85-1.31,3.27s-2.16-1.1-2.57-2.34c-.76-2.26-1.28-4.61-2.19-6.8-1.54-3.73-3.79-4.3-7-1.91s-5.73,5.09-6.44,9.15c-.18,1.06-.46,2.11-.73,3.15a2.83,2.83,0,0,1-3.13,2.37c-1.41-.13-1.73-1.36-1.93-2.64-.82-5.17-1.87-10.3-2.55-15.48-.8-6.17-3.38-11.89-4.24-18-.2-1.43-.93-3.09,1-3.57s2.46,1.38,2.78,2.67c1.67,6.71,3.3,13.43,4.67,20.2A48.6,48.6,0,0,0,1613,1958.44Z" transform="translate(-1361.28 -1551.97)"/><path d="M1653.24,1963.89c1.72-.07,3.55-.64,3.62,1.55.06,1.89-1.74,2-3.14,2.25-7.73,1.11-15.7-6-14.39-12.75,1.06-5.45,8.79-10.78,15.15-10.38a19.57,19.57,0,0,1,3.88.67c2.81.77,3.25,2.25,1.17,4.29-2.89,2.83-6.67,4.14-10.27,5.72-2.12.92-5.38,1.48-5.34,3.83s3.29,3,5.51,3.89C1650.77,1963.47,1652.05,1964.21,1653.24,1963.89Z" transform="translate(-1361.28 -1551.97)"/><path d="M1557.35,1938c1.42,0,2.4,0,3.23.59a2.63,2.63,0,0,1,.92,3.48c-.53,1.21-1.46,1.2-2.69.83-3.75-1.13-11.71,3.22-12.55,6.84-.47,2,1.29,2.76,2.57,3.44a21.54,21.54,0,0,1,6.68,5.33c3,3.67,2.91,7.91-.45,11.27-1.92,1.93-3.59,4.21-6.45,5-1.12.29-2.21.48-2.84-.7s.13-2.08,1-2.72A32.78,32.78,0,0,0,1552,1967c2.07-2.21,1.76-4.23,0-6.37a20.85,20.85,0,0,0-6.64-4.79c-3.67-1.95-4.61-6.22-1.88-9.3C1547.35,1942.2,1551.42,1938.11,1557.35,1938Z" transform="translate(-1361.28 -1551.97)"/><path d="M1603.72,1947.41a2.06,2.06,0,0,1-2.43,1.78c-2-.07-3.74.74-5.55,1.36-4.91,1.67-5,1.81-4.29,7.16.45,3.2,1.11,6.37,1.62,9.57.22,1.36.15,2.87-1.58,3.09-1.54.19-1.86-1.21-2.08-2.42-.64-3.42-1.34-6.82-1.85-10.26-.27-1.73,0-3.52-2.48-4-1-.17-1.18-1.53-.59-2.44,2.89-4.45.71-8.67-.49-13a12.36,12.36,0,0,1-.65-2,2.08,2.08,0,0,1,1.84-2.29,2,2,0,0,1,2.46,1.56,38.82,38.82,0,0,1,1.8,8.4c.37,3,1.77,4.1,4.88,2.89,2.18-.86,4.41-2,6.93-1.46C1602.52,1945.65,1603.57,1946,1603.72,1947.41Z" transform="translate(-1361.28 -1551.97)"/><path d="M1497.23,1981.62c-4,.29-7.67.1-10.17-3.75-4.58-7-.56-20.09,5.63-24a6.84,6.84,0,0,1,5.59-.42,2.57,2.57,0,0,1,1.82,3.68c-.65,1.65-1.93,1.56-3.23.66a2.3,2.3,0,0,0-3.22.35c-3.7,3.44-5.35,11.84-3.4,16.57a4.27,4.27,0,0,0,4.35,3c2.75,0,5.52.37,8.23-.4,1.12-.32,2.25-.43,2.73.88s-.53,2.23-1.62,2.81C1501.81,1982.11,1499.47,1981.45,1497.23,1981.62Z" transform="translate(-1361.28 -1551.97)"/><path d="M1848.32,1949.18c-1.34,0-2.84-.36-2.86-2.47,0-2.32,5.15-7.89,7.27-7.69,2.84.26,3.54,2.76,3.92,4.88C1857.17,1946.78,1853.55,1949,1848.32,1949.18Z" transform="translate(-1361.28 -1551.97)"/><path d="M1562.59,1841a5.2,5.2,0,0,1-1.74,4.35c-1.89,1.83-3.78,3.68-5.81,5.34-1.25,1-2.65,2.35-4.51,1.3a5.12,5.12,0,0,1-2.61-4.8c0-3.59-.11-7.19,0-10.78.16-4,3.5-5.85,7.08-4.13C1560.64,1835,1562.64,1837.26,1562.59,1841Zm-10.79.94c.56,1.29-1.1,3.93.84,4.77,1.41.61,2.72-1.89,4.15-2.9s2.39-2.52,1.18-4.32-3.24-3.44-5.29-3.14c-1.76.26-.56,2.64-.86,4A8.74,8.74,0,0,0,1551.8,1842Z" transform="translate(-1361.28 -1551.97)"/><path d="M1599.92,1833.63a11.09,11.09,0,0,1,6.74,1.75c3.36,1.89,3,4.45,1.93,7a11.23,11.23,0,0,1-8.43,6.63c-4.11.87-5.87-.25-6.59-4.41a76,76,0,0,1-.7-7.85c-.1-1.46,1-2,2.11-2.58C1596.57,1833.38,1598.27,1833.7,1599.92,1833.63Zm-2.75,7.23c0,3.32.43,4.18,2,4.13s6-3.78,5.63-5c-.66-1.9-2.38-2.39-4.3-2.53C1597.71,1837.27,1596.84,1838.63,1597.17,1840.86Z" transform="translate(-1361.28 -1551.97)"/></svg>