<svg id="Layer_1" data-name="Layer 1" xmlns="http://www.w3.org/2000/svg" viewBox="0 0 310.81 365.83"><title>undercover_dinosaurs</title><path d="M1643.75,1720c1.51-1.49,3.13-2.89,4.48-4.51.62-.74,1.87-1.34.67-3.08-1.08-1.57,1.27-2.68,2.28-3.66,3.3-3.19,6.9-6.06,10.26-9.18,1.82-1.7,3.24-1.6,5.21-.13,3.32,2.47,6,5.59,9.07,8.31,2.38,2.1,4.47,2.6,6.67,0,2.63-3.1,6.13-5.12,9.27-7.57,2.48-1.93,5.21-3.06,8.25-1,.73.49,1.63.86,1.69,1.86.38,6.67,7.09,6.85,10.63,10.27.86.83,2-.41,3-1,6.27-4,6.81-4.88,13.17-.1a67.82,67.82,0,0,1,10.18,9c-2.32-8.79-7.29-15.7-7.47-24.15-1.34.34-.72,3.43-2.68,2.12-1.58-1.06-1-2.9,0-4.34a3.63,3.63,0,0,1,4-1.48c4.65,1.23,8.66-1,13.44-2-4.28-2.39-8.52-3.39-12.36-5.47-8-4.34-12.53-11.21-15.48-19.41-1.24-3.42-2.32-6.73-6-8.48a5.33,5.33,0,0,1-3.22-5.11c0-.79-.22-1.42-1.27-1.43-3.63,0-2.43-1.9-1.32-3.62,3.71-5.76,7.69-11.29,13.18-15.57-.48-1.29-2.82-.38-2.64-2.13.15-1.53,1.79-1.64,2.87-2.05,6.93-2.64,14.32-3.28,21.57-4.33,8.49-1.23,17.08-1.78,25.64-2.49,9.32-.78,17.6,2.83,25.78,6.58,1.75.79,3.17,2,5,.1a1.73,1.73,0,0,1,2.68,0c.75.86.17,1.65-.44,2.3-1.18,1.26-1,2.29.17,3.54a71.54,71.54,0,0,1,15.5,27.42c.24.77.17,2,1.27,2.09.83.11,1.16-.74,1.62-1.34,1.08-1.44,8.58-2.53,10.1-1.61.56.34.49.7.39,1.22-.32,1.68-1.52,1.7-3.27,1.23,6.24,6.73,7.75,15.17,11.24,22.65,1.88,4,3.53,8.2,6.94,11.38,1.64,1.53,2,3.59-.59,4.83-1.72.8-1.39,1.76-.95,3.3,1.22,4.26,3.37,8.29,3,13-.26,3.07,1.16,4.67,4.71,4.57,6.77-.2,12.1,3.5,17,7.54a51.24,51.24,0,0,1,10.11,11.51c1.36,2.06,2.42,1.73,3.66.06a138,138,0,0,0,10.66-15.81c.17-.33.59-.84.5-.95-2.92-3.72.69-3.91,2.55-5.69,3.2-3.08,5.64-7,8.27-10.6,1.87-2.58,1.2-4.83-1.15-6.88-6.38-5.55-6.54-6.14-3.36-14.11,1-2.57,1.27-4.68-1.09-6.64a7.55,7.55,0,0,1-1.84-2.8c-1.33-3-.27-5.09,3.46-5.82,2.9-.57,3.37-1.6,2.25-4.27a27.88,27.88,0,0,0-3.35-6.24c-2.14-2.8-.08-3.45,1.82-3.54,3.51-.15,6.26-.72,6-5.11,0-.43.32-1.17.64-1.27,4.06-1.25,7.3-4.67,11.53-5.07a118.71,118.71,0,0,0,16.2-2.28c9.93-2.32,10.06-1,11.43,8.84,1.6,11.48,3.85,22.84,6,34.18,1.34,7.07,3.52,13.94,3.41,21.26,0,2.51-.37,4.22-3.29,4.82-2.16.44-4.1,1.84-6.25,2.44-2.35.66-2.23,2-.89,3.16,4.46,3.93,4.93,9.46,6.29,14.65a1.82,1.82,0,0,1-.35,1.75c-4.27,5-7.09,11.2-13.14,14.65-3.12,1.78-4.65,4.11-3.1,8.34,2.12,5.75-.75,11-4.6,15a137.07,137.07,0,0,1-26.73,22,11.85,11.85,0,0,1-1.68.82c-1.62.67-3.86,1.64-4.63-.28-.85-2.13,1.88-1.68,3-2.26,6.7-3.49,12.32-8.4,18-13.3,5-4.32,10.31-8.27,13.24-14.5a8.07,8.07,0,0,0,.95-5c-.18-.94-.42-2-2-1.28-2.09,1-2.64-.63-2.22-2,.72-2.35-.49-3.83-1.68-5.41a177.07,177.07,0,0,0-16.86-19.49c-3.12-3.1-7.35-5.08-11.12-7.5-1.08-.7-2-.59-2.76.74a147.48,147.48,0,0,1-13.39,19.35c-1.83,2.25.61,4.17,1,6.26.26,1.55,2.77,3.48.6,4.48-2.38,1.09-2.69-1.87-3.42-3.43-5.24-11.2-12-20.92-23.86-26.13a14.42,14.42,0,0,0-10.85-.76,25.67,25.67,0,0,1-3.63.75c-.55.09-1.25.56-1.62-.25a1.58,1.58,0,0,1,.43-2c5-3.1,1.67-7.46,1.63-11.25,0-1.66-1.23-3.26-1.54-5-1-5.27-4.92-5.85-9-4.59-6.49,2-12.1,5.84-18.06,8.92-5,2.58-9.83,5.41-15.13,7.34-2.67,1-6.35,1.59-6.85,4.48-.63,3.64,1.59,7.07,4.52,9.38,2.62,2.06,5.06,4.43,8.19,5.87,2.28,1,2,3.5,2.18,5.52.14,1.81-1.37,2.55-2.79,3.1s-2.74-.43-1.84-1.48c2.77-3.24-1-4.08-1.92-5.82a9.07,9.07,0,0,0-3.64-3.15c-4.48-2.55-6.48-6.71-7.86-11.38-.83-2.82,0-4.8,2.5-6.33,5.25-3.2,11.28-4.67,16.57-7.8,4.93-2.92,10.16-5.34,15.15-8.16a57,57,0,0,1,10.42-4.06c.69-.22,1.84-.12,2.06-.54,1.85-3.54,3.7-1.41,6.41.69-1.2-2.22-1.8-3.55-2.58-4.76-5.07-7.83-7.12-17-11.32-25.22-2.21-4.34-2.14-4.17-5.39-.58-3.81,4.21-5.73,9.54-8.9,14.14-4.27,6.2-10.48,10.08-15.88,14.86-6.19,5.47-12.46,10.64-16.3,18.16-.9,1.76-2,3.62-3.76,4.59-7.38,4-10,11-12,18.49-2.15,8.18-5.55,16.21-5.9,24.62-.31,7.4-.81,15.37,4.57,22.2,1.33-2.14.77-4.29.68-6.25a12.73,12.73,0,0,1,6.1-11.79c8-5,14-12.39,22-17.33,2.45-1.52,4.69-3.38,9.11-1.7a56,56,0,0,0-11.66,7.53c-6.7,5.35-13.26,10.87-19.84,16.35a8.93,8.93,0,0,0-2.51,4.12c-1.42,4-.37,5.52,3.84,5.58,7,.09,9.48,3,7.71,9.51-.68,2.55.66,3.09,2.37,3.73a29.75,29.75,0,0,1,12.13,7.88c9.71,10.73,10.31,22.68-.4,33.72a47.77,47.77,0,0,1-23.93,13.49c-1.94.46-4.88.65-2.38,4.07.55.76.35,2.21.21,3.3-.22,1.77-.36,3.23,2.12,3.22a1.2,1.2,0,0,1,1.23,1.51c-.13.73-.77.91-1.41,1a10.52,10.52,0,0,1-1.12.07c-7.21,0-7.21,0-7.9,7.13-3.75.93-3.33-2-3-3.8.47-2.34.24-3.51-2.33-3.81-1.84-.21-3.13-1.3-3.21-3.88-1.88,3.3-2,6.33-2.77,9.2-.31,1.26-.68,2.82.94,3.09,1.83.3,1-1.51,1.22-2.42.22-1.19.56-2.28,1.83-2.51s1.38,1,1.7,1.91c1,2.88,2.94,3.58,5.65,2.31,10.24,0,20.32-2.17,30.6-1.83,7.41.24,14.37-3,21.65-4,10.13-1.44,19.77-5,29.79-6.78a35.12,35.12,0,0,0,11.16-3.85c4.72-2.61,10-1.92,15-1.7,6.89.31,9.88-4,11.94-8.85,1-2.4-2-7.87-5.07-9.75-6-3.68-6-3.78-3.48-10.36,2.13-5.54-1.28-9.74-3.92-13.75s-5.2-8.14-5.22-13.3a4.51,4.51,0,0,0-2.49-4.28c-6.64-3.42-13.27-6.86-20.48-9-.93-.27-2.24-.2-1.87-1.67a1.84,1.84,0,0,1,2.5-1c3.8,1.17,7.87,2,11.23,3.92,10.07,5.88,21.22,8.32,32.33,11,3.35.8,6.36,3,10.05,2.5a1.18,1.18,0,0,1,1.23,1.17c.07.71-.46,1.09-1,1.43a4.9,4.9,0,0,1-4.66.1,45.15,45.15,0,0,0-9.26-2.86c-1.71-.27-3.5-1.8-4.87.68-.31.57-1.15.41-1.7.06s-1-.79-1.47-1.16c-1.87-1.36-4.14-4.21-5.94-2.81-2.09,1.62-.54,4.88.46,7.27,1.88,4.51,5.54,8,7.37,12.57,1.5,3.77,1.86,7.46.26,11.21-1,2.35-.64,4.12,1.75,5.28a11.2,11.2,0,0,1,4.63,4.24c2.3,3.6,4,7.19,1.69,11.52-2.63,5.06-6,8.86-12.32,8.62-2.46-.09-4.92,0-7.77,0,1.3,3.07,2.49,4.67,6,4.15,6.41-1,11.74,1.57,16.79,5.67,8.35,6.77,10.55,16.15,12.78,25.87a63.17,63.17,0,0,1,.46,28c-.37,1.72.75,3.3,1.42,4.93,1.86,4.47,5.31,7.79,8,11.62,4.7,6.65,12.5,6.51,19.36,8.39.6.17,1.27.1,1.84.31,1.28.48,2.79.91,3,2.5.23,1.75-1.34,2.31-2.56,2.79-5.76,2.24-11.85,2.88-17.92,3.17-6.48.31-13,.06-19.49,0-1.2,0-2.11-.18-2.52,1.39-1.22,4.58-4.42,8-7,11.83-1.15,1.67-1.85,3-1.45,5.3.75,4.3-2.35,7.37-5,10.3a2.44,2.44,0,0,1-3.44-.09c-1.24-1.38.31-1.8,1.21-2.38a4.53,4.53,0,0,0,1.75-2.59c-3,1-6.8.75-6.46,5.53a1.42,1.42,0,0,1-1.51,1.39,32.88,32.88,0,0,1-8.43-1.2,1.4,1.4,0,0,1-1.18-1.66c.29-1.06,1.16-1.14,2.11-1,1.48.2,3,.4,4.44.53.83.07,1.9.36,1.86-1.07a1.34,1.34,0,0,0-1.47-1.37c-4.38,0-8.75-.07-13.12,0-1.71,0-1.23,1-.82,2,2,5,1.08,6.36-4.31,6.11-3.83-.17-8,.25-9.2-5.35-.39-1.85-2.58-3.64-5.51-3.7a44.83,44.83,0,0,1-9.54-1.63c-3-.71-4.05-3.44-2.78-7a52.22,52.22,0,0,1,2.76-5.29c1.12-2.24.81-4-2-4.33-6.92-.83-12.28-4.47-17.09-9.18a3.4,3.4,0,0,0-1.58-.9c-8.18-1.61-16.06-4.41-24.38-5.51-4.4-.58-6.13,2-8,4.68-2.91,4.31-2.88,9.5-3.46,14.38-.33,2.74-1.45,4.11-3.78,4.82a84.34,84.34,0,0,1-13.38,3.3c-.61.08-1.63.08-1.74.38-1.43,3.71-5.62,3.39-8,5.61-1.77,1.63-4,2.24-5.81,1-2.09-1.45-.49-3.6.19-5.73a33.61,33.61,0,0,0-9.43,2.16c-3.31,1.2-4.56,0-3.77-3.47.14-.65.46-1.14-.27-1.55a.91.91,0,0,0-1.32.22,2.44,2.44,0,0,1-.42.61c-.54.37-10-1.94-10.29-2.5a2.1,2.1,0,0,1,.8-2.64,7.2,7.2,0,0,1,5-2.09c1.66.08,3.1,0,3.61-2.27s0-3.56-1.9-4.61c-1.63-.9-3.2-1.95-4.86-2.78-4.63-2.33-6.27-6.92-8.47-11.06-.59-1.11,0-1.7,1.21-1.31a3.36,3.36,0,0,1,2.37,1.71c2.66,7.18,9.48,9.54,15.19,13.17,2.43,1.54,5,2.92,5.82,6,.17.6.66,1.21.57,1.75-.29,1.86-1,4.25,1,5,2.5.89,5.52,1.24,7.91-.57,3.5-2.65,6.8-4.4,10.38-.19a2.16,2.16,0,0,0,1.76.36,80.38,80.38,0,0,0,13-3.45c1.39-.52,1.49-1.76,1.71-3,1-6.34,1.1-13.05,6.16-18,1.35-1.34,0-1.83-.79-2.15-7.94-3.38-13.94-9.52-20.77-14.46a3.55,3.55,0,0,0-.61-.43c-1.94-.81-1.93-4.73-4.43-3.78-3.19,1.2-6.44,3.18-8.27,6.16-1.72,2.78-4.64,4.59-5.78,7.76a1.67,1.67,0,0,1-1.11.92c-6.14.58-11.71,3.69-18.52,1.71a45.92,45.92,0,0,1-17.55-9.7,10.94,10.94,0,0,0-6.2-3.08c-3.59-.36-4.93-4-3.05-7.54a42.67,42.67,0,0,1,11.83-13.8c.49-.38,1.06-.67,1.55-1.06,1.55-1.24,3.53-2.24,4.52-3.84,1.29-2.07-1.35-3.4-2-5.18-2.13-5.72-1.45-8.64,3.5-12.13a79.46,79.46,0,0,0,9-7.22c2.71-2.58,3-4.47.14-6.77a10.71,10.71,0,0,1-4-8.09c-.27-3.77-1.64-7.29-2.88-10.8a14.24,14.24,0,0,1,1-12.31c4.47-7.62,8.75-15.34,14.09-22.46a37.2,37.2,0,0,0,7.3-22.94c0-2.83-.43-5.71,1.12-9-9.65,1-18.38-1.49-27.18-3.64-10.68-2.61-21-6.29-28.18-14.92-4.11-5-9.93-8.37-12.8-14.39a5.29,5.29,0,0,0-2.68-2.5,3.51,3.51,0,0,1-2.25-3.58c.6-7-4.65-9.8-9.36-13l-.92-.65v-2.25c4.33.25,7.8,2.35,10.72,5.31,2.43,2.46,4.58,5.13,7.93,6.56a84.13,84.13,0,0,1,10.65,5.35c2.13,1.29,3.42,1,4.58-.93,2.76-4.75,6.9-8.12,11.23-11.28,5.08-3.7,4.63-7.45-.83-10.75-6.76-4.07-13.41-8.45-18.87-14.2-4.53-4.78-3.09-5.78-9.49-.88-.92.7-1.83,1.27-1.62,2.67.27,1.8-1.06,2.72-2.28,3.56a22.27,22.27,0,0,0-4.48,4.46c-2.42,3-5,5.76-7.54,8.63Zm280.46-44.3c-1.89.6-2.61-.72-3.53-2-2.43-3.31-3.17-7.23-4.16-11-.65-2.47-3.11-4.4-2.2-7.32.65-2.1,1.46-4.15,4.08-2.09,1.88,1.48,3.31.45,4.75-.47a29.19,29.19,0,0,1,8.78-4.09c2.55-.64,5-.16,5.73,2.7,1.54,5.62,4,11,4.09,17,0,2.59,1.25,3.49,3.84,3.37-.49-2.15-.88-4.09-1.38-6-1.54-5.77-.76-11.88-2.77-17.64-1-2.91-2-4.2-5.27-3.08a48.85,48.85,0,0,1-9.46,1.93c-4.82.63-9.91,0-14.3,3.32-3.76,2.86-4.17,3.25-2.68,7.62,1.64,4.84,4.76,9,5.79,14.14,2.37,11.74,6.51,23.11,7.9,35,.43,3.65,2.22,7.39.48,11.39-.78,1.79,1.43,1.29,2.22.91,2-1,3.78-2.5,5.85-3.26,5.41-2,10.85-3.87,16.08-6.34,2.51-1.18,4-2.37,3.75-5.5-.53-6.34-1.57-12.51-4.17-18.4-7.4,8.92-13.09,8.77-20.82,5.84l-.55-.53c-4.65-4.64-4.7-9.88-2-15.47,2.7-1.74,4.73-5,8-5.23,4.43-.24,3.88-2.14,3.13-5.24-.66-2.72-3-5.59.24-8.55,1-.87-.19-3.08-1.11-4.42s-2.36-.65-3.38-.17c-2.69,1.27-5.31,2.7-7.88,4.2-3.59,2.09-4.19,4.77-2.72,8.69C1921.84,1668.54,1924.07,1671.77,1924.21,1675.7ZM1743.5,1811.49a11.34,11.34,0,0,1,5.54.3c4.91,1.61,5.67,3.61,2.87,8-3.51,5.5-8.17,7-15.25,5-2.27-.63-3.84-1.68-4-4.43a84.81,84.81,0,0,0-4.44,14.11c-.24,1.07-.57,2.37.31,3.22s2.31.13,3.09-.4a24.63,24.63,0,0,1,12.21-4c7.64-.71,15.16.1,22.67,1.17,1.83.26,3.84.94,4.15,3.2.43,3.23-2.44,4.22-4.25,6s-2.37-.2-3.53-.78-2.81-1.47-3.91.44c-.55.93-1.66,1.9-2.3.71-2.1-3.91-5.3-1.69-8.31-2.17.62,1.27,2.57,1.42,1.62,2.9a2.24,2.24,0,0,1-3,.55c-3.72-3.08-7.83.5-11.6-1a6.06,6.06,0,0,0,3,1.48c4.48.55,8.77,1.75,13.51,1.45,3.64-.22,7.84.44,11.52.42,6.61,0,13-3,18.85-6.33,5.52-3.14,9.32-8.19,13.16-13.07a13.77,13.77,0,0,0,2.25-13.2,29,29,0,0,0-20.31-18.82,5,5,0,0,0-3.26.44c-4.67,1.81-10.56-.3-14.33,4.47-.12.16-.72-.11-1.08-.08-4.87.4-9.54,4.28-10.62,8.79a1.49,1.49,0,0,1-1.7,1.13c-1,0-2-.4-2.77.59-3.62.83-5.11,4.16-7.38,6.51-1.23,1.26-.85,2.93,1.21,3.8,4.6,2,9.41.58,11.94-3.59.69-1.13,2-2.47-.23-3.19-1.51-.5-3.62-2.27-4.5.84a5.41,5.41,0,0,1-1.61,2.42c-.78.79-1.7,1.19-2.63.46s-.42-1.85.1-2.67C1741.38,1814.52,1742.46,1813,1743.5,1811.49ZM1871,1973.68c-2.22-3.37,0-4.32,2.4-4.71a5.49,5.49,0,0,0,4.1-2.83c3.41-5.67,9.9-9.87,8.48-17.84,3.65-3.57,1.78-7.69.9-11.55a9.93,9.93,0,0,0-14.51-6.31,133.78,133.78,0,0,1-20.93,9.8c-8.42,3.23-17.28,3.52-26.09,4.23-1,.09-2.66.33-2.79-1.12-.17-1.84,1.59-1.45,2.74-1.61,7.63-1,15.38-1.09,22.84-3.56,9.41-3.11,18-7.92,26.78-12.33,1.66-.83,2.77-2,2.63-4.12s1-2.87,2.87-3.26a39.43,39.43,0,0,0,5.7-1.74c1.26-.49,2.56-1.14,2.54-2.87,0-.85-.24-1.84,1.07-2a2,2,0,0,1,2.22,1.61c.42,1.37,1.2,2.49,2.63,1.88,1.86-.79-.84-1.3-.37-2.19a4.27,4.27,0,0,0,.63-1.72c.24-4.23,2.5-8.19,1.39-12.64-1.5-6-2.57-12.2-4.08-18.24-1.77-7-6.74-11.8-12.2-16.09-.66-.51-1.83-1.85-2.52-.65-2,3.56-2.94.82-4-.59-.84-1.07-1.31-2.47-3.18-1.56-5.47,2.68-11.49,3.82-17.16,6-.55.21-1.5.44-1.79.16-2.83-2.67-5.29-.29-7.83.48-3.7,1.11-7.33,2.41-11,3.49-14.5,4.22-29.46,6-44.32,8.27-6.15.94-12.25,2.22-18.51,2.24a5.24,5.24,0,0,0-4.76,3.61c-.69,1.68,1.43,2.75,2.8,3.39,4.11,2,5.64,5.83,7.45,9.5s.9,6-2.64,7.55a15,15,0,0,1-6.14,1.43c-2,0-3.09-.49-3.74-2.66-1.4-4.68-3.38-9.14-7.43-12.27-1.14-.88-2-2.93-3.56-2.24-1.78.8-2.77,2.78-3.45,4.68-.16.44,0,1,0,1.49-.43,5.28-.75,10.53-2.5,15.68a8.92,8.92,0,0,0,2.55,9.33c5.37,4.8,11.32,8.92,17.12,13.22,4.67,3.47,10.36,2.47,15.37,4.43,4.47,1.74,9.43,2.08,14.1,3.46,4.36,1.29,9.39-.16,13.32,3.18.31.27,1,0,1.46.18,3.83,1.22,7.89.47,11.7,1.35,1.59.36,2.81.56,4.19-.21,1.08-.61,2.19-1.17,3.24-1.82s2.14-1.18,3,0-.44,1.68-1.09,2.38a12.2,12.2,0,0,1-3.81,2.31c-1.6.77-2.24,2-1.3,3.65,2,3.45.3,6.74-.84,9.71-2.86,7.44-3.07,7.3,4.77,9.15,2.61.62,4.46.84,6.11-2.18,2-3.67,8.45-3.65,9.54-.17,1,3,2.44,4,5.31,3.57,2.45-.33,5,.7,7-2.09,2.63-3.55,8.2-3.18,11.06.19C1869,1972.73,1869.23,1973.74,1871,1973.68Zm-108.83-178.92c-.37-1.33-2.15-1.85-1.59-3,2-4.1-2.12-6.46-2.77-9.87-.7-3.65-2.63-7-2.67-11a56.14,56.14,0,0,1,1.74-16.29c.38-1.32.63-2.38-.91-3.13a3.32,3.32,0,0,1-1.61-2.81c-1-6.44-1.8-12.9,1.52-19,1.13-2.06.83-3.3-1.4-4-3.09-.91-6.2-1.73-9.67-2.69a17.37,17.37,0,0,1,.32,2c0,1.08.45,2.47-.85,3-1.6.62-1.76-1-2.19-1.92a8,8,0,0,0-5.32-4.78,4.87,4.87,0,0,1-2.38-1.74c-2.84-3.82-7-6-10.75-8.58-1.33-.92-2.34-1-3.67-.06-4.09,3-8.37,5.8-12.36,9-9.47,7.48-16.5,17.25-24.46,26.16-3.9,4.37-6.39,9.74-10.66,14,2.11,1.78,4.28,3.61,6.44,5.45,5.64,4.83,12.42,7.14,19.47,8.91,8.68,2.17,17.21,5.06,26.39,4.66,3.09-.13,4.21-1.2,4.19-4.22,0-6.73.75-13.43.84-20.17.1-7,2.59-13.43,6.43-19.29.76-1.16,1.55-2.32,3-2.68,1-.25,2.07-.2,2.58.91a1.51,1.51,0,0,1-1.13,2.29c-2.08.57-2.74,2.42-3.65,4-5.87,10.31-4.52,21.8-4.94,32.9-.19,5.07-1.76,9.72-2.55,14.57-.51,3.12-1.56,6.26-.26,9.09,2.1,4.58,2.37,6.74-.86,10.29-8.37,9.19-15,19.57-21,30.38-2,3.69-2.81,7.6-.41,11.35a14.15,14.15,0,0,1,2,7.45c.1,5.22,1.58,8.85,7.4,9.38.2-1.71-1.29-4,1.1-4.95,2-.77,2.72,1.21,3.46,2.64,3.29,6.36,9.64,8.23,16,4.68.77-.43,1.54-1,2.34-.19s.16,1.6-.34,2.33-1.42,1.34,0,2.05c2.73,1.4,5.81-.51,6.57-3.55.6-2.38-.76-5.45,1.08-7s2.24-3.19,1.73-4.83c-1.18-3.78.82-4.47,3.76-4.68.14,0,.26-.32.47-.59-5.28-.92-10.63-1.36-15.67-2.87-6.83-2-13.1-6.8-11.65-13.29,2.11-9.48,3.12-19.26,13-25.25C1746.26,1805,1753.43,1798.91,1762.21,1794.76Zm6.44-102.76c-1.18,2.74-.37,6-1.74,8.92-1.46,3.07-.25,6.13.15,9.18.17,1.35.46,2.69.69,4s-.69,3.51,1.06,4c1.45.37,2.25-1.67,3.29-2.69,7.16-7.1,13.83-14.74,22-20.78a88.37,88.37,0,0,0,19-20,6,6,0,0,0,.86-5.22c-1-5-2.82-9.68-4.24-14.5-2.3-7.81-6.36-14.23-11.33-20.36-1.36-1.67-2.28-1.54-3.9-.13-4.6,4-7.78,9.31-12.25,13.42-.55.52-.23,1.18-.09,1.76,2.45,9.85-2.79,18.42-4.61,27.55a3.39,3.39,0,0,1-1,1.54c-3.3,3.23-4.63,7.28-4.94,11.76a6.32,6.32,0,0,1-1.75,4c-.1.11-.41,0-.79,0C1768.85,1693.59,1768.73,1692.68,1768.65,1692Zm-48.58-31c2.93,10.25,8.62,18.12,18.54,22,4.61,1.81,9.25,5.57,14.81,2.31a1.39,1.39,0,0,1,1.32.23c1.64,2.12,4.15.45,5.93,1.38,3,1.57,2.48-1.22,3.57-2.36a36.07,36.07,0,0,1,7-5.49,10.38,10.38,0,0,0,4.92-7.56,65.56,65.56,0,0,1,3-11.55,12.92,12.92,0,0,0,.58-7.06c-2.46,2.35-4,5.71-7.43,5.72-6.65,0-13.51.51-19.21-4.16-.75-.62-1.32-1.42-2.82-.47C1741.17,1659.83,1731.38,1663.16,1720.07,1661Zm-27.37,257.5c4.88,0,7,3.72,4.63,8.44-.86,1.69-.23,1.86.78,2.76,5.2,4.62,12.71,2.07,18.15,5.92.33.24,1.23-.1,1.74-.39,2.12-1.19,3.68-4.2,6.85-2,.12.09.93-.68,1.3-1.15,4.23-5.36,8.14-11,14.54-14.2,2.18-1.09,1.66-2.14-.68-3-6.28-2.19-12.94-2.58-19.35-4.46s-11.89-3.9-16.43-8.49c-1.33-1.34-2.23-.71-3.19,0-6,4.25-11.82,8.74-15.55,15.3-.57,1-2,2.21-.78,3.18a3.32,3.32,0,0,0,4.17-.41A4.67,4.67,0,0,1,1692.7,1918.5Zm27.61-280.57c2.13-1.64,4.23-1.44,6.3-1.44,2.24,0,4.49-.06,6.73,0,4.36.15,8.06,1.47,9.68,6,.41,1.16,1.13.85,2,1,4.17.7,5.32-2.61,7.17-5.08,5.43-7.25,13.5-6.86,17.83.82,2.09,3.71,4.93,4,8,1,3.39-3.28,6.85-6.5,10.39-9.62,1.77-1.56,2.27-2.43-.44-3.56-8.35-3.48-16.61-5.7-26-4.57-11.72,1.41-23.5,2.25-35.07,4.71-1.06.23-4.4-.93-2.24,2.52.3.48-.57.94-1.12,1.27C1721.11,1632.43,1720.54,1634.76,1720.31,1637.93Zm21.75,245.73c-9.19.79-16.9-1.59-24.63-3.93-5.64-1.7-14.43,1.78-17.39,6.8-.81,1.36-.36,2.62.06,4,2.67,8.49,11.45,15.43,20.38,16.12.58.05,1.47.21,1.67.6,1.46,2.73,4.28,2.49,6.59,2.82,4,.58,8.19.54,12.11,1.93,1.46.51,1.64-.61,2.09-1.48,1.69-3.29,2.13-6.64.26-10-1,.39-1.14,1.62-1.7,2.55-2.81,4.7-4.93,5.23-9.75,2.39-.75-.44-1.52-.86-2.28-1.29-3.46-1.95-3.45-2.92-.68-5.83C1733.14,1893.7,1737.28,1889,1742.06,1883.66Zm15.46-135a3.07,3.07,0,0,0,1.47-2.47c.66-4.81,1.4-9.57,4.19-13.78.82-1.24,3.84-3.31-.43-4.42-.75-.2-.43-1.3-.15-2,1.54-3.92.9-7.79,0-11.75-1.55-6.82-2.8-13.77-1.89-20.75.43-3.35-.71-4-3.48-3.93-7.78.13-14.44,4.27-21.78,6-1.71.41-1.48,2-.94,3.45,2,5.24,3.87,10.52,6,15.72,1.21,3,3.18,5.23,6.72,5.79a57.63,57.63,0,0,1,7.17,2c5.62,1.68,6.58,3.72,4,9C1755.69,1737,1756.08,1742.52,1757.52,1748.62Zm9.92,131.11c2.31-.21,4.93-.32,7.51-.7,8.74-1.29,17.43-2.93,26.19-4a204.24,204.24,0,0,0,35.27-7.75c7.23-2.17,14.09-5.73,21.88-5.86,1.15,0,3.62.38,2.8-1.6-.66-1.59-.6-5-4.39-4.07-4,.94-7,4.28-11,4.48-9.7.46-18.62,4.36-28.07,5.92-12.26,2-24.21,5.83-36.93,5-4.64-.32-9.4.79-14.08,1.48-2,.29-3.66,1.62-3.16,3.85C1763.84,1878.18,1764.56,1880.24,1767.44,1879.73Zm158.45,66.35c-2.36-.56-4.68-1.31-7.06-1.63a20.72,20.72,0,0,1-14.24-8.15c-3.42-4.52-7.21-8.86-9.15-14.42-1.34-3.85-4-4.8-6.37-2.35a48.31,48.31,0,0,1-10.32,7.73c8,.6,9.65,2.15,11.35,9.78a23,23,0,0,1,.62,7.41c-.4,3.78,1.51,4.84,4.84,4.8,5.12-.07,10.26.25,15.36-.1S1921,1948.18,1925.89,1946.08ZM1944,1736.13c.17-1.46-.86-1.64-1.9-1.58-6.89.39-13.1-2.7-19.7-3.78a7.94,7.94,0,0,1-5.34-3.17c-2.47-3.44-5.42-6.49-7.68-10.1-1.49-2.38-2.42-6.62-4.77-6.62-2.53,0-3.89,4.1-6,6.2-1.71,1.7-1.52,2.66.66,3.86a67.53,67.53,0,0,1,21.86,19.29c2.37,3.2,5,6.17,7.53,9.28.65.8,1.38,2,2.12.43,1.33-2.89,4.19-3.79,6.4-5.53C1940,1742.16,1942.69,1739.73,1944,1736.13Zm-36.46-29.24a41.1,41.1,0,0,0,7.37,12.87c2.11,2.55,3.37,6.43,6.63,7.4,6.65,2,13.27,4.45,20.34,4.53,4.36,0,6.08-3,3.87-6.83-1.31-2.26-3.17-4.18-4.58-6.39-1.11-1.73-2.4-1.9-4.12-1.18a63.17,63.17,0,0,0-8.65,4.37c-4.14,2.54-7.8.52-8.14-4.22a7.85,7.85,0,0,0-.8-3.14c-1.87-3.71-4.27-7.18-5.19-11.34a9.53,9.53,0,0,0-5.91-6.84,24.57,24.57,0,0,0,2.73,5.59c1.77,2.87,3.6,5.7,5.35,8.58.68,1.13,1,2.52-.18,3.4s-1.55-.77-2.34-1.12C1911.14,1711.34,1909.94,1708.55,1907.52,1706.89Zm-211.77,19.22c5.09-3.59,8.46-7.88,13-10.76,2-1.27.36-2.08-.49-2.77-2.8-2.28-6.16-3.81-8.68-6.47-1.39-1.47-2.89-1.45-4.74-.62s-2.15,2.12-2.12,3.87c0,2.6.31,5.22-1.11,7.66-.78,1.35.1,2.48,1.19,3.18A5.64,5.64,0,0,1,1695.75,1726.11ZM1737.47,1881a9.24,9.24,0,0,0,1.49,0c1.4-.2,3.26.73,4-1s-1.26-2.35-2.11-3.46a5.09,5.09,0,0,0-3.41-1.85c-6.31-1.37-12.56-3-18.86-4.38-1-.24-2.89-2.08-3.16.3-.22,1.89-1.62,4.83,1.39,5.85A85.71,85.71,0,0,0,1737.47,1881Zm8.33,3.34a13.2,13.2,0,0,0-1.45,1.19q-6.42,7.2-12.82,14.42c-.62.7-.7,1.26.13,1.81,2.28,1.53,5,2.19,6.73-.12,3.12-4.16,6.57-8,9.71-12.18.49-.66,1.47-1.91,1-2.2C1747.72,1886.53,1746.23,1886.16,1745.8,1884.33Zm9.43,4.58a28.5,28.5,0,0,1,9.46,12.49,5.15,5.15,0,0,0,2.63,2.55c1.86,1,3.4.06,4.77-1s.38-2.25-.16-3.34-1.16-2.48-1.87-3.65C1767.05,1891,1760.61,1887.76,1755.23,1888.91ZM1945,1676.47a9.4,9.4,0,0,0-1.06-1.21c-4.9-4.1-16.28-1-18.31,4.89-.33,1-.68,2.13.52,2.56,1,.38,2.63,1,3.17-.69.75-2.37,1.75-2.28,3.46-.89,1.51,1.24,2.11.25,2.44-1.27,1.09-5.06,1.37-5.21,5.59-2.12,1.33,1,2.32.31,3.47,0C1944.84,1677.63,1945.15,1677.32,1945,1676.47Zm-276.91,68.59a21,21,0,0,1-3.18.67c-3.37.2-3.22,1.69-1.71,4,1.4,2.16,3.49,3.49,5.44,5,1,.78,2.15,2.33,3.47.88,1.53-1.7,3.89-4.1,3-5.94C1673.81,1747.24,1670.89,1745.62,1668.1,1745.06Zm245.73-50.21a51.22,51.22,0,0,0-9.88-20.17c-1.1-1.3-2.23-1.93-3.83-1.61-1,.21-2.54.3-2,1.92.38,1.16,1.15,2.17,2.82,1.25,2.68-1.46,3.82.35,3.2,2.42-1.44,4.74,1.56,7.74,3.69,11.06C1909.27,1692,1912.46,1692.34,1913.83,1694.85ZM1758.69,1860c3.1,0,5.5-1,5.36-4.11a5.45,5.45,0,0,0-4.82-5c-2.35-.41-5.18,3.46-4.88,6.49S1757.1,1859.68,1758.69,1860Zm8.51-75.45a42,42,0,0,1,4.75,1c1.1.38,2,1.21,1.47,2.56s-1.59.89-2.48.36a5,5,0,0,0-4.63-.22c-1,.38-2.43.37-2.14,2a2.68,2.68,0,0,0,2.78,2.47c2,0,4-.13,5.94-.29,2.9-.22,3.61-2.53,3.76-4.75s-1.6-3.29-3.6-3.54A12.19,12.19,0,0,0,1767.2,1784.54Zm-10.47,100.93c2,.26,4.49-.71,4.91-2a5.51,5.51,0,0,0-1.69-5.65c-.78-.68-1.45-1.5-2.53-1.19a2.38,2.38,0,0,0-1.62,2.3c-.1,1.24,0,2.48-.94,3.54-.53.62-1.64,1.18-1.18,2.12C1754.28,1885.84,1755.65,1885.37,1756.73,1885.47Zm-2.38-12c-1-.52-1.78.41-2.57.34-4.36-.35-4.86,2.18-4.32,5.58a16.43,16.43,0,0,1,.07,1.86c0,.61,0,1.3.7,1.59.88.37,1.34-.25,1.79-.87A23.62,23.62,0,0,0,1754.35,1873.48Zm9.09-35.25c-.15-1-.48-1.52-1.18-1.57q-6.85-.47-13.73-.84c-.8,0-1.53.31-1.47,1.27a1.65,1.65,0,0,0,1.27,1.66c2.33.34,5.15,1.09,6.9-.25,2.23-1.71,3.43-1.74,5.17.26.43.5,1.62.43,2.46.42C1763.1,1839.18,1763.32,1838.44,1763.44,1838.23Z" transform="translate(-1643.75 -1619.15)"/><path d="M1669.74,1734.5h-2.61c-1.84,0-3.56-.53-4.44-2.22-1.08-2.06.91-2.94,2.07-3.8,2.15-1.58,2.66-4.11,4-6.13,1.12-1.66,2.15-2.41,2.92.09.56,1.81,1.91,2.88,3.13,4.07,1.62,1.59,2.84,3.36,1.84,5.6-.93,2.07-3,2.41-5.07,2.4h-1.87Z" transform="translate(-1643.75 -1619.15)"/><path d="M1663,1713.36c1.33.08,4.9,4.49,4.71,5.6-.12.68-.62,1.25-1.26,1.12-4.53-.87-5.09,4-8,5.5-1.07.56-.78,1.68.15,2.48s1.55,1.87.45,2.83-2-.17-2.89-.82c-.59-.45-1.13-1-1.69-1.46-3.31-3-3-3.56.86-5.36,3.35-1.55,6.4-3.85,6.42-8.22C1661.77,1714,1662.12,1713.39,1663,1713.36Z" transform="translate(-1643.75 -1619.15)"/><path d="M1831,1919c-13.14.1-15.55-4.32-20.66-15.38a7.43,7.43,0,0,1-.21-3.31c.06-1.11.66-1.94,1.91-1.77,1.08.14,1,1,1.22,1.92,2.85,13,10,18.27,23,14.74,1.09-.29,2.32-1.78,3.14,0s-.83,2.32-2.06,2.89A13.63,13.63,0,0,1,1831,1919Z" transform="translate(-1643.75 -1619.15)"/><path d="M1768.93,1828.26h-1.12c-4.8-.14-7.65-1.72-8-4.45-.7-5,1.6-9.17,5.91-10.77,1.51-.57,3-1.09,4.6-1.52a10.12,10.12,0,0,1,12.43,8.5,4.36,4.36,0,0,1-2,4.46A18.64,18.64,0,0,1,1768.93,1828.26Zm.89-2.79a15.52,15.52,0,0,0,8.08-2.83c2.35-1.76,2.48-3.43-.05-4.84a29.69,29.69,0,0,0-6.94-2.68c-2.56-.66-7.06,2-8.1,4.38C1761.24,1823.11,1763.79,1825.52,1769.82,1825.47Z" transform="translate(-1643.75 -1619.15)"/><path d="M1926.81,1691.74c.48,4.19,1,8.38,1.45,12.57.36,3.29,2,4.27,5,2.71,3.43-1.77,6.67-3.9,10.15-5.57,2-1,2.55-2,1.7-4.07a13.85,13.85,0,0,1-.78-3.26c-.15-1,0-2.09,1.12-2.5s1.85.28,2.29,1.3a38.4,38.4,0,0,1,2,4.79c.66,2.39,0,4.23-2.52,5.45-6.49,3-12.37,7.43-19.6,8.91-1,.21-1.84.76-2.73-.08a2.15,2.15,0,0,1-.52-2.71c2.26-4.77.32-9.53-.46-14.14-.44-2.62.1-3.43,2.28-3.93Z" transform="translate(-1643.75 -1619.15)"/></svg>