<svg id="Layer_1" data-name="Layer 1" xmlns="http://www.w3.org/2000/svg" viewBox="0 0 504.12 329.71"><defs><style>.cls-1{fill:#fefefe;}</style></defs><title>arcade_dino</title><path d="M-674.66,1913.73c2.09-13.81-1.38-29-2.11-44.33-1.21-25.27-.15-50.51-.7-75.76,0-2.35.07-4.56-2.19-6.19-.83-.59-1.77-2-1.62-2.86,1.44-8.24-3.24-15.6-3.23-23.61q.06-32.74,0-65.49c0-1.33.51-3-.09-3.94-3.78-6-.19-10.08,3.85-13.24a10,10,0,0,0,3.81-6.2c.82-3.34,5.24-5.2,3.83-9.58-.15-.46,1.38-2.37,3.37-2.13,11,1.31,21.94.73,33,.07,9.67-.59,19.48-1.07,29.27.54,4.51.75,9.31.89,14-1.64s10.11-1.76,15-.49a31.46,31.46,0,0,0,8.06,1.34c16.16,0,32.33.14,48.49-.06,7.12-.1,14.11,1.28,21.25,1.2,6.95-.07,10.17,2.86,11,10.76.63,5.82,4,10.46,5,16.08.61,3.38,2,7,2,10.32-.15,10.62,1.05,21.16,1.32,31.75a64.21,64.21,0,0,1-2.48,18.37c-2.37,8.83-2.61,17.93-4.64,26.75-1.78,7.69-.37,15.52-1.07,23.23-1,11.53-2.71,23-3.82,34.51-.44,4.46-.1,9-.1,13.49,0,9.83,0,19.66,0,29.49,0,6.51,3.23,12.68,2,19.33-.28,1.57,0,3.06-1.19,4.6a57.26,57.26,0,0,0-12,29,243.17,243.17,0,0,1-4.58,27.77c-1,4.35.08,9.06-2.22,13.38-1.66,3.12-3.17,5.87-7.28,5-12.62-2.73-25.52-1.52-38.26-2.8-9.08-.91-18.32-.41-27.48-.13s-17.94-3.16-27.06-3.59c-14.8-.69-28.63-6.92-43.48-7.62a21.27,21.27,0,0,1-13.88-6.1c-3-3.06-3.73-8-4.63-12.38C-675.34,1933.57-674.09,1924.44-674.66,1913.73ZM-507.94,1795c1.25-1.57,3-1.54,4.82-1.91,4.22-.88,9.6-.77,9.6-7.28a68.05,68.05,0,0,1,1-11.74c1.3-7.52,1.69-15.24,3.53-22.6,2.08-8.26,4.31-16.46,3.44-25-.92-8.91-.51-17.84-1.09-26.73a73.87,73.87,0,0,0-1.94-10.38c-1.26-5.8-5.39-10.61-5-16.61-4.43,2-4,6.23-4.07,9.63-.3,9.44.2,18.91.15,28.36,0,3.63,2.14,7.16.92,10.71-4.17,12.1-4.41,25-7.51,37.32a140.37,140.37,0,0,0-4.44,35.35c-1,.29-1.06.93-.7,1.75ZM-677.42,1683.3c2,0,4.08.29,6-.17,12.15-3,24.71-3,37-3.51,20.59-.81,41.26-1.08,62,1.33,21.23,2.47,42.57-2.06,63.91-1.74,3.57.06,9.59-5.26,10.12-8.79s-.89-5.32-4.45-5.18c-8.44.31-16.77-1.34-25.23-1.12-14,.37-28,.08-42,.11a33.45,33.45,0,0,1-10.55-1.49c-3.51-1.12-7.65-1.55-11.06.36-5.13,2.87-10.65,2.68-15.86,1.9a110.36,110.36,0,0,0-15.27-.74c-13.75-.17-27.45,1.68-41.22,1a5.44,5.44,0,0,1-1,0c-2-.42-3,.7-4.27,2.18-3.91,4.58-4.53,11-8.92,15.25l-.91,1.36C-678.35,1684.38-677.72,1684.26-677.42,1683.3Zm3.93,116.67c0,2.47,0,4.1,0,5.74,0,30.92-.41,61.83,2.82,92.69,1.48,14.13-.59,28.46,1.07,42.7,1,8.36,7.05,15.76,15.34,16,15,.51,29,6.74,43.93,7.68,7,.44,13.78,3.15,20.58,3.16,18.59,0,37.14,1.2,55.72,1.34,3.66,0,4.66-.76,4.64-4.57-.1-21.4-.58-42.73,6.55-63.58,2.88-8.42,2.69-18,3.25-27.09.66-10.72-.77-21.54,1.13-32.21,1.26-7,1.36-14.22,2.54-21.3.92-5.52,3-11.11,2.26-17.59a57,57,0,0,1-4.14,5c-4.36,4.08-9.56,7.07-13.39,12-1.86,2.39-6.37,5.19-8.92,4.9-9.42-1.07-17.77,3.9-27.45,2.75-19-2.24-38.31,1.6-57.36-2.32-9.13-1.88-18.47-1-27.72-1-2.35,0-4.4-1-4.64-2.8-.39-3-2.68-4.13-4.35-5.94-1.33-1.44-3.35-2.38-3.82-4.45C-666.48,1806.54-669.45,1803.43-673.49,1800Zm20.19-38.62c6.32.49,13-2.91,17.21,4.68a4.38,4.38,0,0,0,2.6,2.09c6.53,1.15,13.08,2.86,19.64,3,24.94.41,49.91-.42,74.81,2.06,5.55.55,7.75-3.26,4.73-8.05a8.19,8.19,0,0,1-.78-7.5c1.82-5.11,2.05-10.63,5-15.53,1.9-3.18.42-7.47.61-11.25,0-.92-.28-1.52-1.37-1.59-7.4-.5-14.25-4-22-3.14-9.36,1.09-18.81-.63-28.18-1.16-8.3-.46-16.58-2-25-1.71a6.45,6.45,0,0,1-2-.21c-8.61-2.48-17.14-5.33-25.85-7.38-5.46-1.29-10.76-3.49-16.55-3.46-2.31,0-3.21.44-3.14,3,.19,6.49-.15,13,.17,19.47a12.14,12.14,0,0,0,2.88,7.61,8.43,8.43,0,0,1-.25,10.46C-653.31,1755.53-653.95,1758.2-653.3,1761.35Zm2.67-76.06c-8.35-.2-14,.14-19.55,1.9-1.1.35-3.41-.82-3.06,1.13.27,1.49.25,3.72,2.13,4.7,1,.52,2.13.77,3.07,1.36,2.89,1.78,5.42,3.53,6.83,7.17,1.71,4.42,5.59,7,10.77,6.69a16.59,16.59,0,0,1,5,.06c10.26,2.66,20.49,5.39,30.68,8.27,5.33,1.51,10.55,3.14,16.24,2.73,3.08-.21-.28-4.11,2.88-4.08s.63,3.72,2.87,4c6,.68,11.84,2.12,17.93,2.08,11.25-.08,22.46,1.56,33.74,1a5.57,5.57,0,0,1,3.17.94c9.18,5.25,18.74,1.08,20.3-9.2a26.07,26.07,0,0,1,5.16-12.73c3.18-4,2.45-9.57,5.25-13.79.72-1.09,3-1.48,2-3.35-.88-1.61-2.71-.8-4.12-.86-11.89-.5-23.66,1.31-35.49,1.88-15.51.76-31-1-46.47-1.62C-611.93,1682.75-632.69,1681.8-650.63,1685.29Zm-18.81,106.52c0,3,0,4.74,1.56,6.75,4.32,5.6,7.36,12.15,12.46,17.16,1.42,1.4.8,4.58,3.74,4.48,13.18-.46,26.19,2.16,39.2,2.59,20.93.69,42,2,63-1.28,7.73-1.19,14.22-3.06,19.17-9.06a16.28,16.28,0,0,1,4.09-3.59c3.44-2.18,7.72-3.95,9.55-9.22-9.24,2.36-17.56-.57-25.87-2.61-5-1.22-9.9-.85-14.76-.57-2.28.13-3.34-2.71-6-1.1-5.76,3.47-12.37,4.68-19,4.8-12.49.22-25-.22-37.49.13C-636.76,1800.76-653.21,1798.76-669.44,1791.81Zm176.48,4.42c-2.33,1-3.79,1.16-5.51.61-4.25-1.35-6.63,3.11-10.42,3.75-1.42.24-.56,3.28-.56,5,0,5.43-1.58,10.63-2.35,15.92-1.68,11.47-3.53,23-3.54,34.51,0,11.27-.9,22.48-1.3,33.72-.16,4.44-.68,9.46-2.5,13.25-5.09,10.65-4.33,22.19-6,33.25-1.54,10.09-.08,20.61-.45,30.92-.14,3.75,2.63,3.5,4.3,3.84,2.05.41,4.84,1.41,5.91-2.43,3-10.78,4.51-21.9,5.6-32.89,1.27-12.9,4.76-24.8,11.58-35.44,2.86-4.46,2.36-8.56,2.78-13,.21-2.34-2.21-3.31-2.17-5.82.25-15.82-.22-31.66.35-47.46.15-4.34-.09-9,1.08-13.18C-494,1813-495.14,1804.88-493,1796.23Zm-23.85,0c-.9-1.36-1.13-1.78-1.43-2.15-3.74-4.59-9.54-7.08-12.5-12.68-.68-1.3-1.52-4.29-4.71-4.21-9.31.2-18.56-1-27.82-1.6-16.58-1.16-33.3,0-49.94-.51-6.51-.22-12.83-1.94-18.35,3.1-.55.5-1.94,0-2,1.51s.81,1.35,1.84,1.65c3.1.9,2.56,2.7.43,4a14.6,14.6,0,0,1-5.38,1.82c-2,.31-3.76-1.56-2.7-2.94,2.62-3.39,1.92-6.07,0-9.3a3.34,3.34,0,0,1,.76-4.12c.26-.22,1.51-1,.42-1.35-3.38-1.2-5.08-6.16-9.88-4.29-1.13.44-2.65.1-4-.13-3-.51-5.11-.16-7,3-3.32,5.59-6.9,11-9.1,17.18-.81,2.29,0,3,1.64,3.62,11.56,4.23,23.39,7.34,35.79,7.43,14.66.1,29.31,0,44,0,8.16,0,16.14-.92,23.23-5.53.87-.57,2-.91,2.71-.06,2,2.42,4.57,1.59,6.93,1.56,5.92-.08,12-.51,17.45,1.88C-530.15,1796.79-524,1796-516.81,1796.19ZM-680.49,1733c-.43,12.71-.47,30.61,3,48.31.47,2.39,4.59.49,4.44,3.69,1.31-1,2.61-1.8,2.58-3.78,0-3.62,2.07-6.12,4.18-8.93a73.24,73.24,0,0,0,8.41-14.46c2.39-5.45,5.85-10.53,1.68-17.49-3.36-5.59-1.46-13-1.16-19.49.28-6.22-.35-11.52-6.08-15.14a4.94,4.94,0,0,1-2.17-3.13,6.83,6.83,0,0,0-5.94-5.13c-3-.27-3.83-1.63-4.46-4.08-.38-1.49-.29-3.92-3.17-3.13-2.58.72-1.24,2.77-1.25,4.11C-680.55,1705.48-680.49,1716.63-680.49,1733Zm179-44.53a4.91,4.91,0,0,0-3.49,3.84c-.69,5.06-3,9.36-5.53,13.64-1.8,3.1-2.38,6.49-3.24,9.91-1.22,4.79-2.66,10.61-8.29,12.16-3.15.87-3.6,2.15-3.46,4.68.34,5.78-.31,11.2-3.23,16.52-1.78,3.23-3.64,8.24-2.34,11,2.32,4.82.89,9.37,1.58,14,.16,1.1-.34,2.26.67,3.26,4.55,4.5,9,9.09,13.56,13.58.91.89,2.68,3,2.7-.43,0-8.37,2.34-16.44,3-24.7.71-8.88,4.13-17.14,4.74-26.2.62-9.42,4.81-18.44,3.51-28.43C-502.26,1703.83-501.49,1696.25-501.49,1688.45Z" transform="translate(985.48 -1657.7)"/><path d="M-832.65,1925.83c-5.26,3.57-10.79,2.11-16.11,2.38a55.82,55.82,0,0,0-7.26.82c-2.35.43-3,1.42-2.41,3.14,2.69,7.66-.17,14.63-2.27,21.78-1.64,5.61-.61,11.45-.82,17.18-.09,2.5.24,5,0,7.49-.6,5.37-2.88,7.39-9.35,7.54-10,.23-20,.2-30,0-6.33-.11-9-4.21-7.29-10.65a87.68,87.68,0,0,0,2.57-26.72c-8,6.08-16.9,6.58-25.84,6.39-10.17-.22-20.69,1.83-30.36-2.16-7.06-2.91-15.33-2.22-21.51-7.68-1.18-1-2.5-1.66-2.09-3.32.36-1.45,1.8-1.46,3.09-1.89,13.79-4.63,29.13-3.66,42.09-11.05,10.84-6.19,22.75-11.49,30-22.14,2.36-3.49,2.77-9,4.8-13.34,3.75-8,3.62-16.88,5.81-25.25a26.8,26.8,0,0,1,2.37-5.17c4.4-8.75,2.87-19.24,7.95-27.51,4.57-7.45,3.64-15.32,3.91-23.26.18-5.42.6-10.88,1.22-16.23.41-3.5,3.4-6.73,5.36-10,.58-1,1.38-1.67,1.4-3,.22-13.12,7.55-23,15.25-32.61a22.28,22.28,0,0,0,3.48-6.24c2.25-6.2,6.68-10.46,11.79-13.69a13.66,13.66,0,0,0,5.33-6.71,13.42,13.42,0,0,1,6.23-6.62c3.81-2,6.71-4.33,7-9,.11-1.86,1.67-2.11,3.3-2.1,11.67.08,23.2-1.34,34.77-2.83,10.92-1.41,19.65,4.1,28.2,10.41,4.93,3.64,4.85,9.63,8.34,13.45,5.93,6.47,5.51,13.7,4.27,21.33-.1.61-.3,1.63-.64,1.72-5.2,1.24-8,7.3-14,7-1.54-.08-3.6.17-4.58,1.13-3.54,3.46-8.19,2.84-12.36,3.68-2.71.54-3.62,1.88-1.57,3.21,7.89,5.08,6.09,12.8,6.14,20.07,0,2-.2,3.9,2.28,4.72.88.29.55,2.4,2.66,1.22,5.48-3.06,11.86-3.7,17.76-5.65s11.72-4.82,17.85-6.51c2.27-.62,4.1-.8,5.62.8,2.11,2.22,4.82,3.23,7.46,4.42,5.15,2.34,7,7.34,5.36,14.76-.88,4-6,7.63-10.38,8.16-8.49,1-16.2,4.09-23.83,8.21-4.22,2.28-8.7,5.11-13.88,5.75-5.42.68-7,3.18-8,8.5-1.09,5.78-.91,11.52-.77,17.26.09,3.55-2.12,5.78-3.77,8.21a19.74,19.74,0,0,0-3.44,10.9c-.3,7.32,1.15,14.49,1.12,21.76,0,4-.71,7.12-5.36,8.64-2.64.87-4.83,3.46-6.91,5.58-1.45,1.47-1.16,3.35.47,4.79,2.44,2.15,2.89,4.91,2.84,8-.13,7.16,0,14.33-.07,21.5-.07,4.6,1.82,8.61,3,12.87,2.66,9.85,1.84,20.5.35,30.54-.51,3.38-5.16,8-11.47,7.57-9.46-.61-18.9-.68-28.18-3.11-10.26-2.68-11.27-4.28-8-14.34a12.6,12.6,0,0,0,.31-3.94c0-10.34.14-20.67-.06-31C-833.63,1932.07-832.61,1929.31-832.65,1925.83Zm-145.5,19.35a24.79,24.79,0,0,1,12.7,2.48,37.11,37.11,0,0,0,15,3.47c8,.35,16,.35,24,0,7.11-.29,14.1-1.52,19.86-6.32,1.38-1.15,2.6-3.22,4.09-3.42,6.84-.91,12.56-4.53,18.64-7.22,5.39-2.38,11.25-4.08,15.51-8.56,4,2.49,7.17-9,11.62-.78a.94.94,0,0,1,.37-.19c9.74-.39,19.57-.21,28.86-3.89a5.07,5.07,0,0,0,2.41-1.53c5.28-8.41,14.83-10.39,22.67-14.82,2.26-1.27,4.53-1.62,5.94-4.38a15.23,15.23,0,0,1,5.71-5.64c7.33-4.37,6.48-4.15,5.72-12.86-.74-8.52-2.2-17.43,1.6-25.83,1.5-3.33,4.93-5.7,5-9.75.13-8.63.3-17.09,2.76-25.64s-.2-18-2.54-26.13c-1.7-5.91-1.49-11.42-2.13-17.09-.24-2.15-.22-4.34-1.73-5.94-4-4.24-7.18-10.13-14.75-8-1.49.42-3.33,0-3.43-1.85s1.62-2,3.22-2.13a139.13,139.13,0,0,0,14.74-1.09c3.75-.61,7.91,0,11.15-2.7a8.21,8.21,0,0,1,6.27-2.19c5,.5,6.3-5.33,10.68-6.25,1.74-.37.18-3,.84-4.42,2-4.29.39-7.33-2.57-10.5a17.22,17.22,0,0,1-3.55-7.17c-1-3.61-2.48-7.06-6.33-8.69-.88-.38-1.65-2-2.63,0-1.59,3.28-4.67,3.16-7.63,3-2-.11-5.14,1-5.1-2.11,0-2.63,3-1.78,4.89-1.84,3.71-.1,3.71,0,6.22-1.74-5.86-5.37-13.2-6.67-20.65-6-5,.44-9.94,1.52-15,1.82-5.25.31-10.47,1.2-15.76.94-.58,0-1.55.17-1.7.52-3.06,7.34-12.45,9.18-14.89,17.3-.48,1.59-1.87,4.35-4.24,5.09-6.09,1.88-9.63,6.25-12.09,11.79a34.06,34.06,0,0,1-4.17,7c-7.49,9.74-15,19.59-14.82,32.79,0,1.48-.82,2.34-1.44,3.48-1.89,3.46-5.33,6.39-5.48,10.44-.31,8.75-1.78,17.45-1.15,26.25a11,11,0,0,1-.45,4.37c-2,6.18-6.08,11.5-7.26,18.06-.53,2.95.61,6-.75,8.8a87.5,87.5,0,0,0-7.68,24,58.5,58.5,0,0,1-3.21,12.5c-1.52,3.77-4.91,7.56-4.34,11.44.79,5.29-2.41,7.68-5.24,10.38-6,5.7-13.07,10.06-20.16,14.06-12.64,7.13-26.1,12.4-41,12.59C-974.2,1941.24-976.26,1942-978.15,1945.18Zm188.66,25.6c0-5-.24-9.8.08-14.61a12,12,0,0,0-2.28-8.28c-1.64-2.08-1.82-4.06-1.82-6.38,0-8.83.11-17.67,0-26.5-.08-5.59-3.44-8.52-7.84-6.69-4.67,2-9,4.68-13.58,6.82-4.13,1.94-6.07,6.42-9.71,8.48-4.06,2.3-4.68,5.7-4.75,9.29-.23,12-.08,24-.08,35.61,5.09.44,10.43-4.81,14.81,1.6.07.09,1.09-.69,1.66-.68C-805.32,1969.56-797.52,1968-789.49,1970.78Zm-76-1.71c.43-5.73-.57-11.29.85-17,1.23-4.91,4.74-9.54,3-14.89-.6-1.87.5-8-5-3.4-.66.56-1.35.53-1.74,0-1.91-2.32-3.82-.69-5.4.17-8.64,4.73-17.48,8.92-27.12,11.22-.52.12-1.46-.15-1.25.83,1.85,8.54-.35,17-.41,25.5,0,2.24,1.63,2.06,2.67,1.32,4.68-3.3,11-2.47,15.44-6.24a1.24,1.24,0,0,1,2.07.33c1.3,2.82,3.41,1.65,4.76.62,1.68-1.29,2.78-1.16,4.78-.65C-870.21,1967.6-867.73,1968.67-865.5,1969.07Zm94.15-150.34c7.43-1.78,14.18-4.92,20.86-8.12,4.29-2.06,8-5.39,13.12-5.49.7,0,2-.56,1.32-1.89-3-6-.55-12.42-1.68-18.68-1.91,1-4.11,1.34-6.2,2.18-6.91,2.78-14,5.35-21.44,6.45-5.7.84-9.86,4.71-7.91,8.83C-770.68,1807.5-772.07,1813-771.35,1818.73Zm-30.28,164.76,0-.27a19.46,19.46,0,0,1,4,0c4.08.89,4.14-3.68,6.72-4.76-1.94-2.16-2.5-5.8-6.74-5.34-5.19.57-10.44-.45-15.69.91-2.44.63-5.49,1-7.71-1.79-1.21-1.52-9.63.69-10.26,2.49-.29.83-.58,1.86.71,2.46,2.74,1.26,5.31,3.34,8.16,3.83C-815.58,1982.25-808.58,1982.73-801.63,1983.49Zm-83.63-1.06c5.29-1.12,10.87.74,16.5-1,3.39-1.06,2.52-3.59,3.21-5.58.78-2.24-1.22-2.22-2.62-3-6.23-3.48-12.24,1.25-18.52.19-5.32-.89-9.75,4-15.16,4.19-1.28,0-2.68-.37-2.7,1.83,0,1.82.92,1.82,2.31,2.31C-896.69,1983.3-891,1981.49-885.26,1982.43Zm151.77-198.27c0,5.09-.16,9.42,0,13.73.2,4.59,4.59,6.75,8.42,4.34a8.48,8.48,0,0,0,.26-14C-727.38,1786.48-730.49,1786.24-733.49,1784.16Z" transform="translate(985.48 -1657.7)"/><path class="cls-1" d="M-677.42,1683.3c-.3,1-.93,1.08-1.76.7l.91-1.36Z" transform="translate(985.48 -1657.7)"/><path class="cls-1" d="M-507.94,1795l-1.34.88c-.36-.82-.26-1.46.7-1.75Z" transform="translate(985.48 -1657.7)"/><path d="M-581.85,1785.2c-2.15,0-4.3,0-6.45,0a2.12,2.12,0,0,1-2.07-1.76,1.82,1.82,0,0,1,1.65-2.07c4-.47,8.1.25,12.13-1,1.27-.39,2.86,1.4,2.92,2.8.07,1.81-1.61,2.12-3.22,2.06s-3.3,0-5,0Z" transform="translate(985.48 -1657.7)"/><path d="M-562.57,1785.24c-1.83-.22-4.77.73-4.69-2.09s3-1.89,4.84-1.89,4.77-.78,4.69,2S-560.73,1785-562.57,1785.24Z" transform="translate(985.48 -1657.7)"/><path d="M-798.92,1820.51c-5.66.6-9.77-2.74-13.4-6-2.92-2.57-.68-6.92-1.09-10.45-.05-.39.62-.82.68-1.27.24-1.82,1.17-4.27.35-5.31-1.17-1.49-3.26.46-5,.75-5.88,1-11.5,3.44-17.65,3-3.76-.29-6.8,3.2-10.85,2.06-1.43-.4-3.4-.14-3.46-1.92-.08-2.25,2-1.89,3.66-2.21,11.78-2.32,23.8-3.19,35.29-7.32,6.36-2.29,13.26-.78,19.35,2.55a5.42,5.42,0,0,1,2.52,5c0,5.92.25,11.84-1,17.71-1,4.58-5.46,5.5-8.43,7.46-2.55,1.68-5.45,3.4-8.09,5-4,2.47-8.08,2.76-12.27,3.87-6.32,1.67-13,.51-19,3.1-1.48.64-2.07.38-2.86-.58-.94-1.16.06-1.88.77-2.43,1.14-.88,2.4-2.13,3.68-2.21,5.17-.34,10.32-1.42,15.34-1.77,7.15-.5,12.66-3.25,18-7.2C-801.25,1821.62-800.07,1821.4-798.92,1820.51Zm6.43-14.74c-.24-6.85,2.11-7.94-8.48-10.34-3.9-.88-6.49-.43-7.49,4.38-2.15,10.31-1.79,12.24,4.8,15.72,6.82,3.62,10.86,1.35,11.16-6.27C-792.46,1808.1-792.49,1806.94-792.49,1805.77Z" transform="translate(985.48 -1657.7)"/><path d="M-798.52,1721.27c2.59.57,5.94-1.52,7.85,1.4a19.73,19.73,0,0,1,3.08,14.49c-.51,2.92-3.62,2.48-5.6,2.95-5.46,1.28-10.57-1.32-15.82-2.24-2.9-.51-3.49-9.4-1.34-12.4C-807.33,1721.27-803.27,1720.46-798.52,1721.27Zm2.81,6c-1.58,2.33-4.53,1.63-7.18,2.16-1,.2-.91,2.22-.14,2.37,3.16.64,6.45,2.71,9.59-.17a2.35,2.35,0,0,0,.67-3.08A2.46,2.46,0,0,0-795.71,1727.32Z" transform="translate(985.48 -1657.7)"/><path d="M-771.19,1722.22c8.41,0,9.68,1,9.7,7.41,0,6.16-3.79,9.54-10.78,9.59s-9.23-1.68-9.22-7.52C-781.49,1724.61-778.9,1722.22-771.19,1722.22Zm-.49,11c3.12.11,4.8-1,5.18-3.79s-1.91-3.16-3.33-3.07c-2.69.16-5.74,1.75-6.31,4.07C-776.58,1732.2-773.29,1732.84-771.68,1733.23Z" transform="translate(985.48 -1657.7)"/><path d="M-812.38,1722.25a2.88,2.88,0,0,1-1.89-4.34,10.77,10.77,0,0,1,9-5.68,2.36,2.36,0,0,1,2.77,2.14c.23,1.53-.64,2.89-2.05,2.74-3.56-.38-5.92.57-6.69,4.33C-811.35,1721.78-812,1722-812.38,1722.25Z" transform="translate(985.48 -1657.7)"/></svg>