<svg id="Layer_1" data-name="Layer 1" xmlns="http://www.w3.org/2000/svg" viewBox="0 0 388.5 352.21"><title>birthday_dino</title><path d="M1850.54,1951.17c-1.1,1.83-2.17,3.68-3.32,5.47a4.43,4.43,0,0,1-4.11,2.39c-2.19-.2-2.11-2.11-2.53-3.74-.53-2.06-.54-4.31-1.89-6.13-.79-1.07-1.12-2.22.18-3a2.35,2.35,0,0,1,3.43,1,49.23,49.23,0,0,1,2,6.38c2.34-2.79,4.42-5.21,5.44-8.27,1.3-3.88,4.08-6.85,5.88-10.4.65-1.27,1.56-2.3,3.12-1.84s1.83,2,1.5,3.3a78.63,78.63,0,0,1-3.45,11.34c-3.8,8.75-6.56,17.88-9.3,27.17,8.83-.76,16.08-4.54,23.8-6.73a6.64,6.64,0,0,0,5.22-5.35c3-14.37,7.87-28.25,7.56-43.41-.23-10.9.66-21.92.7-32.89a22,22,0,0,0-3.94-13.16c-.91-1.29-3.08-2.46-1-4s4.2-.14,4.94,1.75c1.62,4.15,3.66,8.31,3.53,12.9-.29,10.47,1,21-.7,31.41-.27,1.7.11,2.82,2.06,3.3,3.68.9,3,2.48.37,4a5.29,5.29,0,0,0-2.65,5c0,7-.7,13.89-3.65,20.39-.31.67-.26,2.24,0,2.32,4.76,1.54,2.33,5.41,2.58,8.23.28,3.09,1.17,4.17,4.37,3.24a16.17,16.17,0,0,0,8.9-6.64c.86-1.23,1.35-2.76,2.87-3.23,1.2-.38,2.74-1.22,3.74,0,1.22,1.48-.67,2.16-1.23,3.23-2.76,5.36-8.32,7.16-12.7,10.82,3.8.39,7.86,2.44,11-2.17.3-.44,1.38-.93,1.64-.74,4.5,3.16,5.89-1.16,7.67-3.42,7.13-9.06,12.43-19,14.81-30.48,1.74-8.41.77-10.28-6.62-14.11-5.72-3-10-7.94-14.46-12.42-3.91-3.91-7.88-7.45-13.12-9.29-1.45-.51-3.07-.62-3.14-2.57a3,3,0,0,1,.74-2.22c1.67-1.38,2.88.38,3.86,1.15,4.3,3.4,7.4,2.29,10.31-1.93,3.94-5.72,9.81-10,12.64-16.59,2.91-6.81,6.49-13.38,9-20.35,3.36-9.49,6-19.24,8.82-28.91a16.91,16.91,0,0,0,.09-8.9c-2.68-10.54-3.33-21,0-31.56,1.21-3.74-.15-6.27-3.87-7.89-1.68-.74-2.47-.59-3.13.87-1.49,3.23-3.64,6-4.78,9.61-1.07,3.42-3.75,6.84-6,9.95-8,11.05-16.09,22.08-24.91,32.56-2.81,3.34-4.94,7.07-8.41,10.1-3.19,2.79-5.5,5.87-10.32,5.82-2.19,0-3,1.67-.85,3.7,4.34,4,4.77,4,7.16-1a2.2,2.2,0,0,1,2.87-1.31c1.93.63,4,1.72,3.63,4.06a21.2,21.2,0,0,0,.26,7.37,3.85,3.85,0,0,1-3.28,4.79c-2.77.45-3.78,2.18-4.41,4.68-1.61,6.42-7.2,10.39-13.86,10.95-3.19.27-4.82,3.22-6.37,5.94-4.27,7.49-8.34,15.14-15.81,20.2-5.36,3.64-10.13,3.06-14.17-2-.92-1.16-2.23-2-3.21-3.1-5.12-5.78-6.51-5.56-9.42,1.63-3.81,9.42-9.31,13-19.56,12.74-5.55-.12-9.45-2.35-11.43-7.84-2.24-6.17-7.36-6.75-11.83-2-6.09,6.5-12.38,12.83-18.91,18.88-4.17,3.86-9.49,1.93-11.17-3.62a33.46,33.46,0,0,1-1.66-6.26c-.39-3.84-3-4.75-6-6.26-9.53-4.78-12.27,4-17.22,8.14-3.74,3.15-6.59,7.23-11.65,8.85-7.13,2.29-12.44-.17-14.73-7.42-3.15-10-3.36-10.11-10.63-2.74a42.62,42.62,0,0,1-15.46,9.55c-6.1,2.35-11.58,6.56-18.8,5.83-5.64-.57-6.85-1.66-7.79-7.47a69.67,69.67,0,0,1-.32-17.72c-3.61,6-10.41,4.65-15.31,7.47-3.24,1.86-5.44-1.78-8-2.94-3.66-1.67-4.63-1.19-4.7,2.81-.24,13.16-.78,26.48,1.49,39.33,1.46,8.19,2.25,16.29,2.91,24.5.12,1.47,1,3.22-1.19,3.56s-2.55-1.47-2.78-3.24a495.21,495.21,0,0,1-3.92-83.79c.16-4.48,1-9.88,4.23-12.26,2.93-2.14,6-4.27,9-6.54,6.63-5.12,13.14-10.35,19.5-15.81,5.13-4.4,11.6-6.37,18.18-7.44,2.91-.47,3.15-1.54,3.17-4.2.07-10.28-2.38-20.5-.29-30.83,1.23-6.09-4-7.62-8-8.69-5.43-1.42-10.79-3.28-16.22-4.38-10.42-2.1-18.23-7.71-25.79-14.76-3.09-2.88-5.4-4.72-5-9.27.38-4.12.91-7.86,4-10.88,1.13-1.09.93-2.78,1.25-4.24.54-2.37,1.6-4.6,4.36-4.82,3.77-.3,5-2.78,5.62-5.9,1.24-6.11,4.3-10.46,11-11,2.5-.21,2.46-2.23,2.6-3.58.53-5.14,3.2-9.36,5.37-13.8a6.3,6.3,0,0,1,6.06-3.72c9.78.41,15.84,4.5,14.21,15.56a89.05,89.05,0,0,0-.63,13.92c0,4.38,1.91,7.15,6.53,8.68,5.77,1.91,11,5.31,17.3,5.88,1.44.12,3.57,1,3.28-1.4-.36-3,7.72-3,2.26-8a17.25,17.25,0,0,1-5.09-11.58c-.13-2.8-.4-5.39,3.42-6.72,2.35-.83,3.18-3.92,3.82-6.61.45-1.9.51-5,3.56-4.54s2.61,3.28,2.86,5.58c.94,8.75-1.54,17.18-2.54,25.72-.67,5.75,1.19,9.85,4.8,13.63,2,2.11,2.21,3.54-1.07,3.8-3.44.28-2.08,2.93-2.3,4.54s1.46,1.38,2.57,1.39c2.15,0,3-1.17,2.84-3.18-.4-4.56,1.16-9.31-1.47-13.69a4.07,4.07,0,0,1-.37-3.37c2.53-4.51,1.14-9-.28-13.19-2.28-6.77,2-10.11,6.18-13.67,1.12-1,3-1.46,2.79-3.21-.63-6.8,1.83-13.5.5-20.32a13.7,13.7,0,0,1-.28-4.46c.55-3.76,1.63-7.38-3.36-9.39-1.25-.5-1.64-3.07-1.38-5a72.52,72.52,0,0,1,4.13-16.29c.45-1.18.7-2.87,2.45-2.72s1.61,1.81,1.79,3.09c1,6.72,2.08,13.41,2.82,20.15.67,6.12,3.38,12,2.18,18.34-.54,2.93-.72,5.93-1,8.9-.34,3.83.9,5.4,5.21,4.7,6-1,12.26-2.17,17.7,2.22a3.24,3.24,0,0,0,1.87.61c6.19.13,7.72,1.93,7.14,8.58-.07.81-.3,1.59-.49,2.59,1.89-.77,3.68-2.58,5.53-1s.74,3.19-.09,5c-1.58,3.38,2.54,4.14,3.39,6.52.49,1.36,2.33,1.85,3.91,1.07,1.94-1,2-2.83,2.21-4.7.59-5.25,1.39-10.47,1.92-15.72.18-1.78,1.19-3.06,1.82-4.57s1.4-2.37,3-1.79c2.06.75,1.65,2.6.84,3.73-3.46,4.85-1.73,10.73-3.43,16-1.09,3.34,4.72,8.34,8.36,7.74,8-1.34,11.62,1.25,12,9.28.11,2.66,1.1,2.86,3.21,3a42.54,42.54,0,0,1,19.8,7.37c3,2,4.51,4.27,1.22,7.69a8.19,8.19,0,0,0-2.14,8.67c1.29,3.82,1.13,7.86,1,11.86-.3,11.49,1.66,22.91,1,34.4-.22,4,2.15,4.79,5.09,3.2,2.42-1.3,4.16-1.07,6.46.12,5.94,3.06,12.66,2.65,19,3.22s12.39,1.2,18.46,3.11c-.28-10.59-5.76-19.33-8.09-28.91-1.44-5.92-4.78-11.64-3.23-18.4.81-3.5-2.09-6.68-4.25-10.27a41,41,0,0,0-1.36,4.2c-.49,2.37-1.54,3.62-4.16,2.73s-2.87-2.9-2.35-5.22a1.91,1.91,0,0,1,.45-.87c8.42-8.78,10.34-20.26,12.73-31.43,1.45-6.77,6.09-12.5,6-19.69,0-5.65,3.49-10.82,2.49-16.54-2.71-15.57-3.26-31.6-9.86-46.35-6-13.46-20.74-21.77-35.26-20.5-9.09.79-18.25.19-27.4,1-8.35.75-13,6.72-18.62,11.3-1.36,1.1.17,1.77,1.26,2.38,3.49,2,6.89,4.24,8.4,8.1,2.23,5.73,1.07,8.87-4.32,13.47-3.51,3-10.79,4.23-14.51,1.69-2.81-1.91-3.8-1.35-4.76,1.44-1.5,4.38-4.3,8.27-3,13.53.47,1.92-1,4.32.38,6.71,2.11,3.75,5.87,5.18,9.7,3.25,1.28-.65,2.74-1.92,4-.28s-.2,2.69-1.45,3.85c11.56.46,23,.56,34.29,1.54,4.8.42,5.77-3.15,7.94-5.42,2-2.08.49-4.41-1.07-6.21-2.59-3-.75-3.59,1.92-3.83,1.65-.15,3.33-.14,5-.44,2-.36,2.93.49,3,2.3.15,4.43,2.43,4,5.31,2.49a15.6,15.6,0,0,1,2.36-.8c1.19-.38,2.39-.57,3,.85s-.08,2.55-1.5,3.17-3,1.4-4.55,2c-1,.38-2.75-.36-2.77,1.26,0,.92,1,2,1.85,2.78,3.3,3,8.2,3.21,11.45,6.58,2.26,2.34,4.86,4.1,3.07,7.89-.26.55.19,1.29,1,1.45,1.34-.38,1.1-1.44.94-2.41-.14-.81-.85-1.86-.55-2.37a38.66,38.66,0,0,0,5.51-15.55c.2-1.77,2.47-.71,3.35.71s.46,3.25.65,4.89c.27,2.44,0,5.77,2.26,6.75,4.77,2,4.14,4.82,2.34,8.38a25.5,25.5,0,0,0-1.54,4.21c-1.66,5.53-4.7,6.76-9.43,3.38a49.78,49.78,0,0,0-7.62-4.68c-.72-.34-1.85-1-2.19-.78-4.76,3.62-6.39-1.3-8.8-3.34s-4.2-4.62-6.22-7c-3.79-4.52-6.38-5-11.19-2-1.48.93-2.45,9.08-1.18,10.21,1,.89,1.91.2,2.61-.46,2-1.91,4.17-2.16,6.25-.45s1.43,4,.45,6a82.29,82.29,0,0,0-5.32,14.79c-.78,2.88-2.14,3.25-5.83,2.24-8.55-2.36-4.69-9.12-6.2-13.82-1.73-5.4-.6-11.68-5.26-16.22-1.35-1.31.12-2.31,1.22-3.4-8.66.51-17-1-25.44-.88-2.91,0-5-1.62-7.47-2.47-7-2.42-13.74-4.94-21.51-3-2.61.63-5.82,0-8.77.37-2.35.27-3.89-.66-3.83-3.32.06-2.82-.32-5.66.49-8.44.56-1.94.92-4.06,3.74-3.7,2.46.32,3.33,1.92,3.38,4.18,0,.83,0,1.66,0,2.43,4.58-.31,8.6-2.86,13.18-2.75,2.58,0,3.7-1,4.31-3.65,1-4.48,1.89-9.12,4.29-13.15,1-1.64.2-2-.82-3.12-5.72-6.13-4.53-11.6,2.62-15.6,4.68-2.63,9.61-4.34,13.35-9.29,6.83-9.06,17.27-12.09,28.53-12.21,7.47-.08,15-.74,22.38-.58,10,.22,19.52,2.22,27.44,11.07,10.44,11.67,14.25,24.94,15.65,39.57.82,8.53,4.73,16.88,2.89,25.47-1.88,8.8-2.49,17.77-6,26.41-5.39,13.4-7.26,27.54-2.46,41.85,1.15,3.42,1.37,7.14,3.54,10.24.53.74,1,2.08,0,2.75-3.76,2.53-1.38,5.18-.67,8.16,1.74,7.31,5,14,7.85,20.83,3.27,7.76,8.44,8.48,14.7,2.83,10.18-9.19,16.91-21.14,26.14-31,.56-.59,1.51-1.55,1.34-2-2.58-6.7,3.6-9.89,5.88-14.55,1.28-2.63,1.9-4.61-.7-6.46a8.43,8.43,0,0,1-3.4-4.77,14.58,14.58,0,0,1-.37-2.3c4.87-.92,3.76-7.41,8.68-8.85,4.32-1.26,4.85-6.76,7.61-10,6.08-7.25,12-14.57,19.66-20.28,6.49-4.83,13-9.61,20.52-12.74,3-1.23,3.38-3.86,4.13-6.39s2.06-4.62,4.5-1.55c1.06,1.33,1.6.38,2.42.29,4.43-.44,9.24-2.76,12.6,2.45a1.85,1.85,0,0,0,1.33.55c2.4.12,4.54.87,4.54,3.58s-1.87,4.48-4.35,5.56a20.24,20.24,0,0,1-9.27,1.6c-2.58-.12-4.16.69-4.09,3.63.19,7-.09,13.93-2.87,20.52a3,3,0,0,0-.08,2c2.06,6-.66,11.43-2.57,16.6-2.1,5.7-4.39,11.48-6.26,17.19-2.84,8.66-8.34,11.25-16.42,11.15-2.6,0-2.92,1.82-2.69,3.8.26,2.31.17,4.85,1.15,6.84,2.91,5.91,1.34,12.11,1.8,18.17.27,3.55-2,6.25-3,9.34-.51,1.46-1.87,1.79-3.31,1.66-2.12-.18-3.23-1.78-3.94-3.41-.81-1.87-1.1-4-1.85-6.89-2.33,6.83-3.72,12.91-5.77,18.81-3.86,11.1-7.73,22.18-14.12,32.07a87.24,87.24,0,0,1-11.46,13.53c-2.19,2.2-1.31,2.35.45,4.16,4,4.11,8.08,8.08,12.27,12,2,1.91,4.13,3,6.62,2.51,4.88-1,5.92,1.84,6,5.58.26,8.86-1.65,17.1-5,25.48-3.48,8.58-9.17,15.22-14.35,22.46s-11.72,6.41-18.85,4.22c-3.16-1-6.4-1.94-9.81-1.28s-6.07,1.74-6.28,5.8a12.11,12.11,0,0,1-1,3.86c-.45,1.06-1.27,2.12-2.67,1.74s-1.35-1.63-1-2.84c.21-.8.28-1.64.52-2.43.94-3.22-.42-3.15-3-2.56-3.14.71-5.76,2.49-8.73,3.56-4.88,1.77-10.7,1.16-14.66,5.53-.6.66-2.86,1-3.19.55-2.94-3.74-6-1.05-9-.45-13.61,2.77-27.27,5.21-41,7.42-13.26,2.13-26.73,1.6-39.88,4.59-22,5-44.41,5.28-66.79,4.94-10.59-.15-21.46-.15-31.63-3.06-7.67-2.19-16.72-2.21-22.29-9.63a14.12,14.12,0,0,1-2.08-2.75c-1.78-4.38-4-8.32-8.64-10.28-1.36-.58-2.52-1.53-1.25-3,1-1.1,2.66-2.11,3.93-.76,2.77,2.92,6.8,4.46,8.12,9,1.94,6.74,7.46,9.17,13.92,11.24,19.22,6.16,39,6.12,58.67,5.68,13.42-.31,27-1,40.17-3.2s26.22-3.38,39.29-5.17c11.81-1.61,23.91-2.41,35.56-6.11,6.51-2.07,13.64-2.67,20.45-4.22,2-.45,3.61-1,4-3.12C1846,1965.44,1850.39,1959,1850.54,1951.17ZM1782,1860c5-.39,8.37-4.53,13-6,6.13-1.88,9.92-6.53,12.77-12.23,1.26-2.51-1.57-3.88-.46-6.51,2.39-5.66,1.84-19.39-.07-24.89-1.08,2.18-1.76,5.11-5,4.66-4.34-.61-4.32-4.66-5.21-8.85a34.89,34.89,0,0,0-1.64,3.66c-2.18,7.59-6.35,14.15-10.55,20.71-2.35,3.67-4.4,3.26-6.74-.17-2.88-4.21-3.36-9.31-5.51-13.92-4.66,3.23-7,8.66-12.61,10.83-5.87,2.28-10.28,1.17-13.1-4.39-1-1.92-2.25-3.69-3.19-5.62-1.36-2.84-2.42-3.62-4.77-.56-3.93,5.13-9.1,9.09-14.35,12.77-4.94,3.46-7.66,2.12-9.36-3.7-.48-1.64.06-4.35-2.13-4.61-1.85-.21-3.82,1.38-4.88,3-2.67,4.13-6.88,6.43-10.85,8.57-8.46,4.54-15,3.84-14.7-7a5.29,5.29,0,0,0-.53-1.49c-3.38,3.59-5.42,9.23-10,10-7.1,1.14-7.76,4.49-6.1,10.15.25.86-.33,1.94-.4,2.92-.63,9.11-1.82,18.2-1.29,27.37.11,1.9.09,3.71,2.69,4,6.44.63,12.85,1.56,19.3,2,19.13,1.26,37.38-4.41,55.94-7.5,10.57-1.77,10.42-2.26,10.51-13.18.06-6.16-1.79-12.2-1.07-18.38.17-1.44-.11-3.67,1.87-3.43,2.55.32,4.91-.25,7.35-.38a2.93,2.93,0,0,1,3.3,3c.61,6.2.23,12-6,15.59-2,1.13-2.76,10.94-1.18,12.48a2.28,2.28,0,0,0,2.31.39A70.86,70.86,0,0,0,1782,1860Zm24.14-7.56c-8.12,5.66-16.75,9.54-25.16,13.55-11,5.24-23,8.25-35,10.23-11.24,1.85-22.22,4.79-33.5,6.48-16.48,2.46-32.8,1.65-49.13-.57-6-.82-7-4-3.44-9a4.25,4.25,0,0,0,.75-2.29c.12-5.65,0-11.3,1-16.91.24-1.32.48-3.31-2-3-5.81.8-10.19,4.69-15.14,7.29-1.21.64.46,4.14-2,4.34-6.58.54-8,10.13-15.61,8.69-.57-.11-1.42.79-2,1.35-2.24,2.07-4.43,4.2-6.41,6.1,4.57,5.83,11,6.92,16.54,9.69,8.22,4.06,16.27,7,25.48,6.31a48,48,0,0,1,7.93.57c6.76.64,13.67,1.66,20.32.86a196.79,196.79,0,0,1,19.84-1.52c8.89-.15,17.74.59,26.65-1.78,9.21-2.45,18.88-2.58,28.34-4.66,17.9-3.94,36-6.81,53.82-11.45,9.43-2.45,19.24-3.23,28.52-6.6,9.49-3.45,17.36-9.48,25.58-15,2.11-1.42,2.21-3.19-.18-4.7-8.18-5.17-17.18-7.51-26.69-8.15a1.12,1.12,0,0,0,.86.41c1.88.09,3.36.9,3.55,2.82a3.59,3.59,0,0,1-1.56,3.5c-2.09,1.17-2.18-1.33-3.27-2a16.1,16.1,0,0,0-2.8-.91c-2.3-.91-4.92-.9-6.93-2.66-4.3-3.79-9-2.35-13.56-.71s-10,2.46-9.5,9.31c.12,1.72-.53,3.52-2.52,3.81C1806.29,1856.21,1807.22,1853.38,1806.12,1852.46Zm-194-83.65c-1.23,2.9-3.53,5.51.89,7.54.63.29,1,1.26,1.35,2,4.22,9.42,12.57,13.59,21.69,16.17,7.12,2,14.42,3.65,21.51,5.71,4.55,1.33,4.91-.19,5-3.32,0-2.89.46-6,3.35-6.52,5.8-1,10-4.38,14.8-7.31a13.05,13.05,0,0,0,6.44-9.27c1.46-7.65.93-8.1-6.81-9.51-7.06-1.27-13.08-5.28-19.79-7.44-3.77-1.22-4.63-5.07-6.8-7.66-1.74-2.08,2.09-2.82,2.6-4.62a10.69,10.69,0,0,0,.3-2.46c.18-4,0-7.93.71-11.93.76-4.32-3.2-8.53-8.3-9.35-4.09-.66-5.52,2.4-6.54,5.47-1.2,3.59-3,6.92-3.62,10.77-.35,2.37-.74,3.38,2.34,3.89,3.45.57,2.22,4,2,6.21-.22,1.86-2,2.35-3.94,1.37-3.44-1.78-5.48.76-8.3,2.18-7.21,3.63-5.19,14.31-13.52,16.68-.12,0,0,.63-.1.95-.2,1.38.46,3.26-1.68,3.63S1614.15,1769.69,1612.16,1768.81Zm99.36,43.07c8.76-.92,18.37-.5,27.51-3,12.9-3.5,26.53-3.42,39.12-8.37,7-2.73,13.47-5.77,19.18-11,4.25-3.85,5.63-9.55,10.25-13,2.33-1.77.92-4.36-1.48-5.63a47.46,47.46,0,0,0-17.32-5.57c-3.11-.33-4.64.82-4.51,4.19.15,3.64.31,7.3-.86,10.89-.59,1.8-1.29,2.83-3.45,2.71-4-.21-8.06,4.75-7.31,8.77.38,2,1.83,5-.93,5.52-2.19.42-5.94,1-7-2.9-.47-1.78-1.57-1.44-3-1.51-4.39-.2-7.67,3.16-11.86,3.33-2.69.1-4.86.44-4.84,4.08,0,2.11-1.84,2.92-4,2.89-1.93,0-3.52-.73-3.3-2.8.58-5.49-3-5.55-6.63-5.1-2.9.36-6.24-2.2-7.92-1-2,1.48-1.1,5.46-2.58,8.2-1,1.76-.92,4-3.72,3.55-3.44-.57-1.61-2.89-1.42-4.65.68-6.47-1.72-10.26-6.48-9.18-4.33,1-4.46-1-4.36-4.06,0-1.17,0-2.33,0-3.5,0-2.67-.85-4.73-4-4.35-2.72.32-5.37.92-5.29,4.63.06,3.32,0,6.66,0,10,0,1.44.32,3.18-1.46,3.9s-3.06-.3-4.44-1.41a18.5,18.5,0,0,1-5.67-8.51c-.37-1-.26-2.83-2-1.78-4.45,2.72-7.12,7.14-9.92,11.32-.9,1.34.66,1.86,1.75,2.36C1685.47,1806.34,1697.38,1811.75,1711.52,1811.88Zm161.57,47.54a2.78,2.78,0,0,0-1,.1,25.6,25.6,0,0,0-2.54,1.58c-11.65,8.52-24.21,14.9-38.71,16.93-4.27.59-8.76.82-12.69,2.36-8.7,3.42-18,4.43-26.92,6.45-11.24,2.55-22.93,3.47-34,6.91-6.72,2.09-13.63.53-20.23,2.41-1.15.33-3.09-.36-3.07,1.63s1.5,2.8,3.41,2.87c5.42.2,7.47,3.66,7.92,8.46a19.93,19.93,0,0,0,2,7.16c1.34,2.67,3.45,3.16,5.62,1,6.21-6.15,12.49-12.23,18.41-18.64,6.83-7.4,13.68-7.17,16.88.93,3.58,9.06,13.14,10.94,20.71,4.53,3.5-3,3.91-7.18,6-10.7,4-6.83,8.55-7.06,13-.52.37.55.52,1.25.92,1.77,5.6,7.33,10.74,7.77,16.63,1.33a70.46,70.46,0,0,0,5.22-6.68c3.85-5.38,6.51-11.5,10.65-16.74,1.59-2,2.64-2.73,5.24-2.21,5,1,7-.91,7.11-6.17C1873.67,1862.61,1874.18,1860.89,1873.09,1859.42ZM1925.8,1763c1.67-1.31,3.31-2.45,4.76-3.79s1.76-5.06,4.3-3.88c3.34,1.55-.62,3.93-.32,5.9.22,1.5-2.92,4.38.89,4.41,3.64,0,4.53,2.22,4.58,4.58.07,4.24,2.81,6.67,5.74,8.09a44.81,44.81,0,0,1,11,8c1,.9,2,1.68,3.53.69,4.35-2.91,6.27-12.77,2.87-16.8-3.2-3.79-4.5-8.4-6.69-12.61-2.49-4.82-2.05-11.95-9.27-13.71-1.28-.31-1.58-1.71-.93-2.91s1.85-1.24,3-.78c3.68,1.45,5.47,4.42,7.07,7.9,3.45,7.42,4.41,16.28,11.64,21.52,4.62-11.95-1.32-21.25-7.45-30.44-2.2-3.3-7-5.09-9.35-3.68a68.69,68.69,0,0,0-23.55,22.9C1926.71,1759.85,1924.81,1760.93,1925.8,1763Zm-189.62,50.51c-6.81.64-13,1.12-19.21,1.83-15.69,1.81-29.62-4.47-43.79-9.47-5.31-1.87-7.74-.56-7.82,5.19-.07,5.16-.09,10.33,0,15.49,0,1.9-.57,4.27,2.15,5,2.15.54,3.62-.51,5.23-2a47,47,0,0,0,8.92-12.41c.69-1.29,1.32-2.43,2.94-2s1.44,1.85,1.42,3.26c0,2.81.15,5.63.33,8.44.27,4.37,1.94,5.59,6.19,4.33a26,26,0,0,0,4.94-2.28c4.47-2.45,7.73-6.18,10.77-10.17,1.35-1.78,3.2-3,5.59-2.59,2.73.5,3.53,2.78,4.15,5.08a20.31,20.31,0,0,1,.39,2.46c.53,3.72,2.6,4.8,5.34,2.29C1727.79,1822.13,1733.12,1819.64,1736.18,1813.49Zm69.88-27a45.55,45.55,0,0,1-10.26,9.94c-10.73,7.54-23.25,10.1-35.71,12.67-3.53.73-7.28.12-10.85,1.21-1.91.59-3.38,1.92-2.63,3.49,1.73,3.66,2.62,8.27,6.35,10.32s6.7-1.65,9.93-3c.55-.24.8-1.1,1.34-1.44,4-2.54,5-7.18,7.65-10.7.7-1,1.62-2.37,3.26-1.54,1.24.62,1.14,1.93,1.16,3.08a40.49,40.49,0,0,0,2.6,13.11c.48,1.35.46,3.28,2.27,3.55s2.9-1.17,3.66-2.76c2.64-5.48,6.74-10.27,7.39-16.68.16-1.54,1.38-3,2.11-4.44s1.85-2.81,3.86-2.42,2.27,2.19,2.88,3.7c.71,1.74-.67,4,1.51,5.64C1808.48,1802.93,1806.81,1794.67,1806.06,1786.5Zm-117.23,114.16c-16.31-2.21-31.2-2-46.33-2.84,2,6.33-1.16,13,.6,19.8,1,3.86,2.46,5.54,6.33,5.09,7.22-.85,13.39-4.53,20-7.2C1676.92,1912.45,1680.29,1904.41,1688.83,1900.66Zm56.5-167.69c-.76-2.32-2.08-1.24-3.45-.7-4.62,1.81-6.57.79-6.9-3.72a2,2,0,0,0-1.76-2,24.58,24.58,0,0,0-12.28,1.11c-2.86,1-1.26,4.09-1.66,6.22a4.6,4.6,0,0,1-3.32,3.95c-1.76.49-3-.75-4.34-1.86-1-.87-.41-3.69-2.63-2.8s-1.16,3.1-.78,4.82a24.88,24.88,0,0,0,1.11,4.32c1.89,4.41,7.83,8,10.55,5.82s6.92-2.49,8.55-6.38a3.51,3.51,0,0,1,4.32-1.66c2.11.65,2.64,2.28,2.59,4.29s0,4,.05,6c0,1.5.08,3.45,1.83,3.65,2,.23,1.13-1.94,1.61-3,.74-1.66,1.46-3.47,3.41-4,1.75-.43,2,1.29,2.72,2.36s0,3.15,2.07,2.71c1.35-.28,2.08-1.76,2.31-3,.52-2.87,1.51-5.88-2.77-7.24-3.17-1-3.29-3.84-2.51-6.64A11.26,11.26,0,0,1,1745.33,1733Zm35.23,34.87c-7.17,1-14,3.13-20.61-1.07-1.18-.75-2,.17-2.7,1.35-1.89,3.24-2.87,1.74-3.64-.79-.49-1.58-1.7-3.13-1.62-4.63.16-3.09-1.14-4.49-4-4.25-3.11.25-2.42,2.9-2.71,5-.86,6,2.67,11.59,1.07,17.62a50,50,0,0,0-1,7.86c-.33,3.23,1.32,4.28,4.24,3.47,3.79-1.05,7.31-3,11.3-3.45,1.11-.13,2.42-.74,2.3-2.19-.28-3.62-.21-7.38-1.28-10.77-.7-2.23-1.51-3.71,1.07-4.71,3.1-1.21,3.06,1.15,3.46,3.17.63,3.12,2,3.73,4.1.94,1.3-1.75,2.62-2.31,3.57.2.47,1.23.38,2.94,2.41,2,1.54-.76,3.82-.82,4-3.21C1780.66,1772.33,1780.56,1770.33,1780.56,1767.84Zm-69.92,130.48v0h-7c-11.23,0-10.55-.11-8.67,11,1.66,9.83,8.46,11.32,16.13,5.4,5.18-4,8.79-9.52,13.92-13.52.65-.51,1.3-1.17.84-2.09s-1.43-.74-2.22-.75C1719.3,1898.3,1715,1898.32,1710.64,1898.32Zm20.67-106.65c6.63,0,6.42,0,5.72-6.05a42.44,42.44,0,0,1,.44-13.18c.66-3.38-2.26-7.15-2.35-11.07,0-.31-1.41-.75-2.19-.85-1.38-.16-10.55,7.43-10.84,8.86-.19,1-.85,2.44-.45,2.82,4.36,4.25,1.12,8.9.86,13.36-.11,2,0,3.32,2.11,4.42C1726.92,1791.16,1729.12,1791.93,1731.31,1791.67Zm-107.28,112a13.46,13.46,0,0,0,12.38-6.57c.93-1.45,1.06-1.93-.39-3.1-5.1-4.12-12.48-3.68-17.08-8.71a.56.56,0,0,0-.46-.15c-4.39,1.81-3.67,6.67-5.72,9.9-.82,1.3-2.18,4.32.34,5.21C1616.63,1901.54,1619.74,1904.31,1624,1903.72Zm345.78-154.24c4.44-5.37,4.13-10.78,3.8-16-.21-3.4,2.46-7.9,0-9.77-3.13-2.41-5.85,2.53-9.09,3.47a25,25,0,0,0-4.13,1.68c-1.57.76-3.21,1.54-3.71,3.61a9.1,9.1,0,0,1,5.37,2.62C1965.7,1739,1967.71,1743.82,1969.81,1749.48Zm-192.21,13.06c.47-.14,1.91-.5,3.32-1,2.18-.73,3.36-2.19,2.69-4.55s-2.31-4.25-4.64-3.45c-2.6.88-4.84.06-7.19-.24a8.91,8.91,0,0,0-7.71,2.64c-3.12,3.46-4.32,4.1-4.93-1.3-.28-2.44-3.69-1.77-5.05-3.51-.51-.64-.76,0-1,.45-.62,1.08-1.1,2.44,0,3.19,2.82,2,4.69,5.26,8.14,6.36,2.84.9,3.85-2,5.74-3.08,2.1-1.22,4.84-2.87,5.37,1.59C1772.65,1762.39,1774.4,1762.73,1777.6,1762.54Zm-64,1.59c-1.95,2-6.51.61-7,4.15-.85,6,.05,11.91,3.73,17.08,1,1.36,2.28,2.16,3.79,1.8,1.93-.47,1.49-2.36,1.51-3.78C1715.72,1777,1716.06,1770.54,1713.62,1764.13Zm-4.34-13.41a29.86,29.86,0,0,0,0,4.15c.3,2-1.19,4.94,1.23,5.85,2,.77,3.18-1.93,4.54-3.31,3.37-3.41,5.4-3,7.11,1.61.4,1.09-.28,3.26,1.85,2.73,3.66-.9,5.56-4,7.18-7.06.62-1.17,1-3.15-1.7-2.88-1.36.13-.9-3.32-3.67-1.37C1720.85,1754,1715.28,1752.73,1709.28,1750.72Zm53.79-65.88c-1-5.89.16-9.59,4-12.34.89-.64,3.16-1.73,1.23-3.42a2.93,2.93,0,0,0-4.44.37c-2,2.63-4.38,3.61-7.68,2.74-1.84-.49-3,.8-2.68,2.54.3,1.94-1.38,5.77.86,5.5C1758.11,1679.77,1759.71,1682,1763.07,1684.84Zm174.28,121.84a54.33,54.33,0,0,0,5.15-17.1c.2-1.89-.57-4.07,1.57-5.92,1.19-1-1.43-2-2.26-3-.69-.83-2.19-1.18-2.21.17,0,2.93-2.41,5-2.31,8C1937.49,1794.79,1937.35,1800.74,1937.35,1806.68Zm5.62,26.51c5.71-9.54,1.2-18.19-.32-27.46C1940.1,1815,1939.14,1823.75,1943,1833.19Z" transform="translate(-1606.49 -1646.04)"/><path d="M1792.7,1676.94c0-2.13,0-3.3,0-4.47.18-5.18,3.14-8,8.12-6.55,6,1.7,12.63,1.92,17,8,2.61,3.65,3.9,10.3.59,13.41-2.2,2.07-2.84,5.31-5.76,6.76-6.25,3.12-15.19,0-17.62-6.56C1793.64,1683.84,1791.59,1680.18,1792.7,1676.94Zm8,10.92c6.38,5.13,8.61,4.7,13.66-1.92,1.54-2,3.57-4.42,1.93-6.65-2.25-3.06-4.12-7-8.6-7.67-1.26-.19-2.48.17-2.79,1.46s1,1.45,1.93,1.64c2.85.57,4.2,2.42,4.45,5.19C1811.69,1685.09,1807.42,1688.58,1800.65,1687.86Z" transform="translate(-1606.49 -1646.04)"/><path d="M1787.67,1968.29c-2.9,2.64-3.43,6.07-4.94,9-.93,1.79-1.87,3.12-4.08,2.92s-3.35-1.68-4-3.81c-2-6.79.75-12.75,3.49-18.52.95-2,1.74-7.05,5.45-4.47,3.09,2.15-1.36,4.24-2.26,6.4-2,4.87-4.67,9.57-2.6,16.23,4.35-7.17,7.53-13.31,7.07-20.88-.56-9.31,1.48-18.49,1.88-27.77.06-1.35.17-3,1.92-2.92,1.38,0,1.69,1.47,1.65,2.67-.24,6.64,0,13.26-.51,19.92-.74,9-2.22,18.19,3,26.67,1.52,2.47,2.34,3.5,4.54.91.87-1,2.42-1.9,3.51-.87,1.74,1.66-.45,2.57-1.28,3.56-3.61,4.34-7,3.89-9.49-1.12-1-2.07-2.17-4.08-3.16-6.16A5.56,5.56,0,0,1,1787.67,1968.29Z" transform="translate(-1606.49 -1646.04)"/><path d="M1819.07,1956.87c-2.6,1.92-1.47,4.74-3,6.63s-2.95,3.28-5.4,2.56-3.27-2.82-2.87-5.15c1.1-6.31,4.75-11.14,9.45-15.21,1.84-1.59,4-1.27,6-.07,2.45,1.45.6,3,.28,4.7a73.21,73.21,0,0,0-1,8.89c-.19,3,2,1.23,3.1,1.3,1,.06,2.12-.51,2.52.8s-.69,1.74-1.44,2.37c-2,1.62-4.32,2.31-6.48,1C1817.37,1963,1819.33,1959.9,1819.07,1956.87Z" transform="translate(-1606.49 -1646.04)"/><path d="M1650.89,1967.09c3.66-2.1,4.51-4.53,4.8-7.25.15-1.43.56-2.73,2.21-2.82s2.75,1.18,3.1,2.7c.52,2.23.42,4.54,1.59,6.72,1.36,2.51,1.76,5.75,5.75,2.5,1.59-1.3,2.17.27,2.05,1.91-.21,2.64-1.91,3.88-4.2,4.19-2.53.36-4.81-.6-5.44-3.25-1.06-4.5-2.44-5.81-5.86-1.56-1.67,2.06-3.94,2-6.19.3s-2.09-3.25-1-5.61c1.63-3.6,2.67-7.46,4-11.18.59-1.57,1.46-3.5,3.51-2.39,1.65.89.91,2.6,0,3.93C1653.16,1958.56,1653.29,1962.61,1650.89,1967.09Z" transform="translate(-1606.49 -1646.04)"/><path d="M1714.61,1980.29c-3.53.24-5.77-2.13-5.67-5.94.11-4.48,1.19-8.8,5.68-11.4,2.24-1.29,4.45-1.86,6.48-.4a5.47,5.47,0,0,1,1.93,5.82c-.61,2.56-2.85,3-5.13,2.94-.67,0-1.33,0-2,0-1.52.06-3.32.08-3.15,2.19s1.51,3.24,3.77,2.94c3.17-.42,5.86-2.12,8.79-3.18,1.59-.57,4-2.13,4.88-.14,1,2.29-1.94,2.35-3.34,3.28A23.19,23.19,0,0,1,1714.61,1980.29Z" transform="translate(-1606.49 -1646.04)"/><path d="M1699.71,1982.88c-4.28,0-9.61-3.66-11.61-9-1.89-5-1-9,3.25-12.78,2.89-2.54,3.65-7,7-9.46.91-.65,1.6-2,2.89-1a2,2,0,0,1-.28,3.39c-4.28,2.69-5.06,7.92-8.71,11.24-4,3.59.48,12.47,6.33,13.28a52.11,52.11,0,0,0,7,0c1.08,0,2.59-.59,2.74,1.15.1,1.3-1,2.09-2.22,2.31C1704.3,1982.41,1702.48,1982.55,1699.71,1982.88Z" transform="translate(-1606.49 -1646.04)"/><path d="M1625.7,1957.69c-.32-7.67,4.69-13,10-18.11,1.41-1.37,3.44-1.16,5.19-.42,1.46.62,1.56,2.07,1.35,3.43s-1.09,3-2.57,1.71c-2-1.68-3-.5-4.12.67a26.19,26.19,0,0,0-6,11.23c-1.22,4.29,2,8.12,6.53,8.5.66,0,1.33,0,2,.11,1.17.14,2.53.31,2.44,1.84-.08,1.16-1.26,1.34-2.27,1.55C1631.23,1969.72,1625.7,1965.28,1625.7,1957.69Z" transform="translate(-1606.49 -1646.04)"/><path d="M1682.73,1956.21c0-3.16,0-6.32,0-9.47,0-1.18.23-2.55,1.74-2.56s1.79,1.37,1.75,2.54c-.24,7.12.4,14.25-.48,21.39-.46,3.68-2.18,7.67,1.62,11.07,1.77,1.58-.47,3.31-1.4,4.73a2.29,2.29,0,0,1-3.46.74c-1.7-1.19-3.34-2.8-2.51-5C1682.94,1972.06,1682.59,1964.12,1682.73,1956.21Z" transform="translate(-1606.49 -1646.04)"/><path d="M1740.7,1841c4.6-.49,7.71.57,8.53,4.8,1.22,6.36-.8,11.4-5.55,12.09s-4.6,3.22-4.33,6.55a20.76,20.76,0,0,1-.08,3.94c-.22,2-1.41,3-3.41,2.66a2.58,2.58,0,0,1-1.92-3.85c3.26-6.68,1.4-13.69,1.64-20.53C1735.73,1842.53,1736.13,1839.51,1740.7,1841Z" transform="translate(-1606.49 -1646.04)"/><path d="M1714.92,1864.69c2.16-.1,1.55-4,4.17-2.73,1,.47.44,1.78.33,2.75-.25,2.39-1.25,4.11-3.83,4.5-2.88.44-4-1.75-5.48-4.48-1,3.41-1.69,6.09-2.65,8.65-1.23,3.29-4.16,3.85-6.5,1.39-3.68-3.86-1.7-17.88,2.91-20.58,2.57-1.51,7.15,1.24,8.91,5.29C1713.55,1861.23,1713.2,1863.5,1714.92,1864.69Z" transform="translate(-1606.49 -1646.04)"/><path d="M1782,1860c-5.43.1-5.94-.64-4-5.46.94-2.32,1.65-4-1.74-5.84-3-1.65-1.94-6.24-2.13-9.61-.05-.83,1-1.19,1.95-1.08a2,2,0,0,1,1.82,1.47c.32,1.62.44,3.27.7,5.43,3.31-2.57,2.77-6.79,5.08-9.43,1.25-1.44,1.92-4.14,4.35-3.06s.54,3.21.35,4.89a19.16,19.16,0,0,1-2.62,7.45A28.6,28.6,0,0,0,1782,1860Z" transform="translate(-1606.49 -1646.04)"/><path d="M1695.31,1850.11c-.06,6.27-3,12.2-2.16,18.6a1.65,1.65,0,0,1-1.75,2c-1.17-.08-1.56-1.12-1.61-2.18-.07-1.49-.11-3-.06-4.48.08-2.37-.75-3.86-3.38-3.83-1.5,0-3.31.19-3.24-2,.05-1.77,1.08-3.39,3-3.34,5.13.13,7-1.24,3.84-6.28a4.37,4.37,0,0,1,.65-5.13,2.59,2.59,0,0,1,2.81-.46c2.32.81,1.72,2.91,1.86,4.65C1695.37,1848.45,1695.31,1849.28,1695.31,1850.11Z" transform="translate(-1606.49 -1646.04)"/><path d="M1682.32,1855.92c.32,3.53-.58,8.51.53,13.43.38,1.65-.27,3.2-2,3.4-2.19.25-2.1-1.68-2.11-3.13q-.08-13.65,0-27.31c0-1.28-.09-3,1.68-3.08,2.17,0,1.88,2,1.9,3.36C1682.38,1846.56,1682.32,1850.53,1682.32,1855.92Z" transform="translate(-1606.49 -1646.04)"/></svg>