<svg id="Layer_1" data-name="Layer 1" xmlns="http://www.w3.org/2000/svg" viewBox="0 0 1022.01 1566.6"><title>dinosaur_logo</title><path d="M2213.4,1762.73c-3.12,2.28-4.27,5.86-6.24,8.82-14.27,21.47-28.69,42.82-45.85,62.14-18.36,20.67-37.55,40.48-58.66,58.42-13.2,11.22-26.56,22.25-41.11,31.58-21.66,13.9-43.25,28-68.49,35.11-7.91,2.21-15.79,1.12-24,1.46,4.07,9.39,8.3,18.57,12.08,27.93,11.59,28.68,18.81,58.56,22.92,89.13a417.7,417.7,0,0,1,3.07,68.74c-.33,10.62-2.52,21.1-4.91,31.49-.68,3-2.21,5.09-5.46,4.53-3.52-.61-4.52-3.39-3.67-6.48,6.53-23.52,5.62-47.59,4.27-71.47a317.31,317.31,0,0,0-7.38-53.26c-2.43-10.54-4.79-21.09-7.77-31.49-5.27-18.43-12.63-36.06-20.67-53.42-.62-1.34-1.76-3-1.46-4.12,1.32-5.07-2-6.34-5.57-7.65-2.48-.9-5-1.84-7.08-4.71-3,8.22-7.12,15.08-10.12,22.4-2.92,7.11-6.63,13.79-9.71,20.79-5.44,12.36-11.76,24.22-19.85,35A155.56,155.56,0,0,1,1868,2065c-2.72,1.78-6.84,2.63-1.52,6.57,2.73,2,1.79,8-.84,9.88-2.93,2.06-6.53,1-8.33-3.31-1.61-3.84-5.34-5.34-7.51-8.42-.72-1-1.82-.57-2.78-.43-12.33,1.84-24.62,1.58-36.54-2.14a206.44,206.44,0,0,1-25.11-9.6c-9.36-4.33-19.21-7.47-28.34-12.36s-17.7-11.12-26.14-17.31c-9.71-7.12-18.47-15.62-29.95-20.17-2.54-1-3.15-3.32-2.08-5.86.57-1.36,1.82-2.4,1.79-4-.19-11.23,4.89-21,9.1-30.88s8.2-19.64,11.56-29.72c3.54-10.6,9-20.41,12.42-31,5.07-15.67,13.58-29.72,22.26-43.29,11.27-17.62,22.83-35.3,38.2-50,8.4-8.05,17-15.82,25.79-23.47a106.64,106.64,0,0,0,18.29-21.56,176,176,0,0,1,19.59-24.42c8.43-8.78,14.7-19.41,24-27.38a4.7,4.7,0,0,0,.63-.77c2.4-3.15,6.2-3.93,8.77-1.91,2.74,2.16,1,5.71-1.32,7.84-9.12,8.37-15.71,18.93-24.35,27.72a162.68,162.68,0,0,0-21.28,26.36c-8.92,14-21.92,23.88-33.74,35-11.08,10.45-22.07,21.08-30.36,34.11-4.72,7.42-9.82,14.62-14.94,21.79a201,201,0,0,0-19.69,35.11c-5.55,12.51-11.34,25.11-15.32,38.34-4.71,15.63-12.47,30.08-17.7,45.52-1.17,3.46-3.18,6.76.13,10.09a1.17,1.17,0,0,1,.34.92c-2.23,7.43,3.8,10,8.21,12.82,9.11,5.87,16.94,13.36,25.91,19.41a153.79,153.79,0,0,0,31.82,16.39c9.46,3.59,18.66,7.86,28.09,11.57,11.84,4.64,24,5,36.38,4,5.22-.45,5.9-2.61,3.52-7.64-6.23-13.17-14.92-24-27.31-32.19-17.35-11.49-35.43-21.61-53.44-32-12.55-7.2-25.13-8.71-38.79-5.75a12.23,12.23,0,0,1-6-.11,4.4,4.4,0,0,1-3.52-4.31,4,4,0,0,1,3.45-4.31c14.05-1.65,28.29-4,41.72,2.51a287.89,287.89,0,0,1,28.36,15.71c11.62,7.4,24,13.49,35.16,21.76,11,8.1,20,17.36,25.94,29.61,2.09,4.31,4,8.67,8,11.82,2,1.55,3.2,1.85,5.12.37,18.07-13.91,34.17-29.63,45.12-49.93,12.32-22.85,21.54-47.2,33.7-70.1,9.3-17.5,16.89-35.75,25-53.75,4-8.83,4.4-18.72,6-28.21,1.56-9.06,1.55-18.23,1.33-27.38-.16-6.79-3.73-13-3.1-20.09.56-6.44-.12-13-.18-19.47s.68-12.89-3.23-18.75c-1.2-1.8-1.46-4.44-1.56-6.72a143.59,143.59,0,0,0-5.86-34.31,41.85,41.85,0,0,1-1.25-5.86c-.42-2.92,1.15-7.4-5-4.35-2.54,1.26-4.18-1.53-5.21-4.1-3.87-9.65-5.26-19.92-7.52-30-3.62-16-6.06-32.34-10.78-48.15-1.25-4.18-3.16-6-7.7-5.76-9.31.41-18.65.38-28,.37-12.43,0-24.86-.21-37.28-.26-3.94,0-7.76-.27-11.37,2.52-3,2.29-6.66-.2-6.69-4.32,0-2.57-.21-4.12-3.24-4.13-1.63,0-2.47-1.44-3.34-2.72-10.41-15.27-16.26-32.69-23.36-49.52a139.85,139.85,0,0,0-7.89-16.65,254.61,254.61,0,0,1-17.78-36.25c-1.57-4-3.27-8-5.07-11.91a132.3,132.3,0,0,1-6.31-16.21c-.34-1.1-.27-3-2.12-2.94-1.35.06-1.56,1.57-2.08,2.57-5.78,11.06-10.86,22.49-17.32,33.21-8.4,14-15.21,28.8-24.09,42.47-1.65,2.54-2.8,5.22-2.41,8.46a9.66,9.66,0,0,1-.6,5.39c-3,5.63-2.46,11.64-2.25,17.57.56,15.34-2.72,30.15-7.11,44.57a77.63,77.63,0,0,1-8.92,19.41c-5.34,8.3-9.87,17.29-11.86,26.81-2.26,10.78-9.3,18.68-13.84,28-2.67,5.52-6,10.72-9,16.09-.94,1.68-1.48,3.66.26,5,3.3,2.63,4.61,6.87,8.08,9.41,2.85,2.09,2.61,5,.15,7.3s-5.14,2-7.42-.57c-3.54-4-5.92-9.16-11.84-10.85-2.83-.82-1.8-4.71-3.54-6.83-3.6-4.37-6.87-9-11-12.9-9.37-8.77-17.3-18.81-25.6-28.57-7.43-8.76-15.68-17-26.4-22.37-6.79-3.39-12.89-8.15-19.36-12.2-11.82-7.39-23.8-14.42-36.62-20.07-6.47-2.86-12-7.68-18.4-10.87-12.21-6.15-24.81-11.14-39-10.81-5.79.13-11.54-1-17.24-2.42-11-2.63-22.19-1.66-33.33-1.27a66.91,66.91,0,0,0-11.87,1.45,141.21,141.21,0,0,1,16.41,4.61c8.46,2.83,15.86,7.76,20.56,15s6.85,15.73,7.73,24.5c1.53,15.33-3.89,29.25-8.87,43.08-8.18,22.71-21.57,42.53-36.38,61.4-4,5.11-10.29,7.23-15.43,10.86-7.69,5.44-15.1,11.62-25.12,12.38-3.13.24-6.27.41-10.29.67,3.27,2.16,5.93,4,8.65,5.71,10,6.4,18,15.3,26.32,23.49,9.33,9.13,20.48,14,32.25,18.07,7.21,2.48,14.22,5.75,21.85,6.91a177.21,177.21,0,0,0,29.81,2.11,89.34,89.34,0,0,1,20.77,2.27,12.78,12.78,0,0,0,2.93.58c20.69-.62,39,8.63,58.22,14,7.62,2.13,15.57,2.08,22.88-1.6,5.1-2.58,10.24-4.63,16-5.11,3.4-.29,6.75-.3,7.28,4,.49,4-2.53,5.43-5.77,5.19-7.88-.57-13.45,5.46-20.63,6.82-1.71.32-2,2.46-2.53,4-2.36,6.72-1.74,13.83-2.69,20.73a243.3,243.3,0,0,0-2.31,38.82c.62,27.68,3.59,55,10.58,81.9,2.38,9.16,4.42,18.42,6.2,27.72,2.28,11.86,7.25,22.77,11.19,34,5.26,15.05,10.18,30.22,15.09,45.38,5.16,16,8.42,32.53,16.4,47.53,3.18,6,8.46,10.22,12.1,15.77a23.33,23.33,0,0,0,2,2.18c1.88,2.22,3,4.81.68,7.13s-5.37,1.65-7.53-.66c-5.11-5.45-10.06-11.11-13.85-17.54-9-15.37-13.09-32.64-18.15-49.51-5.54-18.47-11.46-36.82-18.39-54.82a234.94,234.94,0,0,1-10.67-35.75c-2.51-11.86-4.73-23.79-7.72-35.52-2.9-11.35-3.94-22.9-5.19-34.46-1.67-15.39-2.92-30.83-2.07-46.31.71-13.1,2-26.17,3.29-39.23.4-4.18-2.61-9.46-6.73-11.15-13.4-5.47-27.77-7.88-41.26-13.08a5.16,5.16,0,0,0-1.93-.47c-11.71.41-23-3.24-34.67-3.35s-23.23-1.42-34.79-2.48c-8.56-.78-16.62-4.65-24.62-7.82-4.94-2-10-3.54-14.9-5.69-13.64-6-23.39-17-33.62-27.06-7.6-7.5-16.81-12.36-25.27-18.44-1.82-1.32-4.2-.58-6.36-.57-4.23,0-6.19-2-4.91-5.89.91-2.72.14-3.93-1.91-5.28-4.35-2.85-6.63-7.09-8.62-11.86-4.59-11-6.87-22.49-9.56-33.94a11.92,11.92,0,0,1-.21-3c.56-16.43-1.15-32.9,1.73-49.32,2.73-15.58,7.82-29.32,19.54-40.93a103.61,103.61,0,0,1,35.78-23.6c7.25-2.83,14.87-1.11,22.17-2.75,1.63-.36,3.48-.08,4-2.21,1.23-5.49,6-7,10.22-7.41,14.07-1.24,28.31-2.87,42.3-.24,12,2.25,24,3.39,36,4.84,3.44.41,7.09,1,10.13,2.48,8.9,4.46,18.72,7.09,26.83,13.13a73.54,73.54,0,0,0,13,7.29c17.76,8.3,34.1,19,50.58,29.55,8.44,5.39,16.59,10.84,24,17.72,3.09,2.88,8,4.37,9.41,8.68a25,25,0,0,0,4,7.11c8,11,19.45,18.71,27.3,29.76,1.07,1.52,1.94,1.65,2.9-.05,5.49-9.68,12.45-18.83,16.1-29.16,4.42-12.51,10.21-24.26,15.42-36.34,1.79-4.15,4.45-7.71,6.35-11.79,5.27-11.36,7.53-23.32,9.06-35.56.37-3,.59-4.12-3.63-3.42-7.62,1.27-15.21,3.31-23.3,1.21-13.69-3.58-27.69-2.47-41.68-1.46-6.68.48-13.46,2.22-20.08-2.61-4.34-3.17-10.36-.07-15.58.44-15.36,1.49-30.49,5.22-46.07,4.71-.5,0-1.16-.17-1.48.07-5.65,4.38-10.52,0-15.63-1.38-2.53-.67-4.12-2.34-3.72-5.12.44-3.08,2.87-4.53,5.43-3.83,4.86,1.34,5.93-1.33,7.14-5a111.6,111.6,0,0,1,9.68-21.28c4.32-7.42,7.38-15.61,10.74-23.57.92-2.18,1.41-4.43,3.81-5.51.3-.13.76-.34.79-.57.89-5.5,2.14-10.63,9-11.59.37,0,.58-2.42.6-3.72.15-14.83.59-29.66.29-44.48-.45-23,2.89-45.79,3.78-68.71.6-15.31,1-30.6,1-45.92,0-17.8.78-35.58,2-53.34.68-10.19,1.5-11.26,11.76-14.57,12.26-3.95,22.91-11.38,34.87-15.95,16.56-6.34,32.72-14,50.5-16.53,11.46-1.64,21.89-6.86,33.15-9.1,3.26-.65,6.57-1.09,9.78-1.92,6.77-1.75,13.49-1.34,19.24,2.38,8.9,5.75,19.51,6.57,28.76,11a73.49,73.49,0,0,0,30.71,7.46c3.66.08,7.59,1.64,10.84,3.49,10.26,5.84,21.77,8.08,32.68,12q21.33,7.66,42.9,14.7c12.25,4,22.06,13.09,34.75,16.07,6.49,1.53,12.85,3.62,19.38,4.81,4.66.86,9.37-2,14.24-.46,2,.6,4,.75,5,2.81,1.59,3.42,4.43,4.08,7.83,4.14,11.12.18,13.22,1.94,16.69,13,4.91,15.64,6.64,31.89,9.14,48,2.14,13.78,4.19,27.61,5.58,41.49,1.12,11.23.86,22.6,3.49,33.68a372,372,0,0,1,7.23,40.72c.33,2.69,1.45,4.49,4.36,4.38,8.26-.28,13.17,5.25,17.47,10.86,7.65,10,14.72,20.48,21.86,30.87a35.85,35.85,0,0,0,7.75,7.71c9.56,7.48,16.92,16.73,23.34,26.91,1.29,2,3.67,3.35,5.35,5.18,3,3.27,1.87,7-2.47,7.66a6.45,6.45,0,0,0-5.15,3.2c-1.68,2.62-4.65,3.35-7.54,2.9-9.54-1.49-18.36,2.15-27.52,3.38-18.24,2.44-36.26,7.45-54.82,6.48-11.3-.58-22.6-1.75-33.89-.72-9.54.86-19,2.6-28.5,4-3.14.46-3.65,2.7-2.94,5.21,1.09,3.83,2.48,7.57,3.73,11.35,4.16,12.51,5.12,25.78,8.93,38.36,2.06,6.81,3.78,14,9.19,19.06a36.44,36.44,0,0,1,6.18,7.67c1.32,2.14,2,4.19.63,6.53-.91,1.56-.69,3.09-.23,4.8,3.6,13.31,6.78,26.71,7.35,40.58a6.33,6.33,0,0,0,.79,3.37c4.18,5.59,3.23,12,3.25,18.3a236.6,236.6,0,0,0,3.35,39.59c2.5,14.56-.24,29.47-2.61,44.14-2.31,14.28-7.82,27.26-14.47,40-4.53,8.67-8.19,17.81-12,26.84-1.18,2.82-5.37,5.3-3.66,7.92,1.29,2,4.55,3.57,7.07,5.11,9.6,5.88,19.74,6.86,30.58,3.59,19.77-6,37.25-16.16,54.79-26.87A385.88,385.88,0,0,0,2109,1874.2c22.49-21.2,44.57-43,62.94-68.09,13.06-17.81,26-35.73,37.22-54.82,1.23-2.09,2.35-5.41,5.32-4s7.37,2.17,7.82,6.74a234.78,234.78,0,0,1,.39,40.82,117.63,117.63,0,0,0-.08,21.32c.7,6.47-2,13-4.16,19.34-6,17.45-11.92,34.92-18.1,52.29-11.6,32.63-24.65,64.64-41.12,95.17-19.09,35.39-42.63,67.69-68,98.79-20.3,24.89-43,47.67-63.5,72.34-2.42,2.91-5.59,5.2-8.44,7.76-2.3,2.06-4.87,2.58-7.06.16s-1.25-5,1-7c9.63-8.51,17.41-18.72,25.87-28.29,19.06-21.55,38.69-42.58,56.59-65.16a618,618,0,0,0,41.29-58.12,457.33,457.33,0,0,0,32.91-63.24c12.62-29.88,23.56-60.36,34.27-91A165,165,0,0,0,2213,1805c.8-12.48.89-24.93,1-37.4C2214,1766,2214.47,1764.34,2213.4,1762.73ZM1915.79,1328.2c6,16.57,6.89,32.43,6.19,48.48-.27,6.13-3.38,8.56-9.1,6.65-4.51-1.5-8.72-1.92-12.81,1-1,.69-2.42,1.21-3.3.49-3.9-3.21-9.35-2.87-13.19-5.91a6.8,6.8,0,0,0-6-1.32c-5.42,1-10.79-3-12-8.3-4.2-18.81-7-37.91-11.86-56.57-1.88-7.18-5.81-11.93-13.36-13.53a49.9,49.9,0,0,1-14-5.16c-5.91-3.28-12.19-4.65-19-5.09-7.2-.45-14.59-1.69-21.09-5.46-5.69-3.3-11.91-4.91-18.26-6.22-2-.41-2.94.27-2.68,2.29a30.06,30.06,0,0,0,.88,4.4c4.79,16.75,9.87,33.42,14.35,50.26,6.85,25.7,8.36,52.1,9.46,78.52.39,9.28-.29,18.65,2.84,27.67.88,2.56,1.18,5.5-1.22,7.44-2.14,1.72-2.48,3.78-2.39,6.18.14,3.73-.23,7.34-2.57,10.46-1.33,1.77-.65,2.69,1.28,3.13,6.71,1.55,12.72,4.79,19,7.52,11.23,4.93,22.39,9.88,34.63,12.34,9.57,1.93,19.24,3.66,28.66,6.52,14.64,4.45,29.14,9.35,43.74,13.87,21.16,6.56,43,8.53,65.12,7.78a37.37,37.37,0,0,1,11.84,1.37,171.18,171.18,0,0,0,22.82,5.28c1.42.21,4,1.12,3.13-1.91-1-3.59-.84-7.27-1.5-10.87-4.34-23.68-8.87-47.28-10.76-71.39-1.51-19.18-5-38.21-7.89-57.28-1.6-10.69-7.31-20.36-8.12-31.29-.14-2-1.77-2.25-3.32-2.25a31.17,31.17,0,0,1-15.81-3.77,15.87,15.87,0,0,0-7.51-2.33c-8,.09-15.35-2.83-23-4.49S1924.46,1331.22,1915.79,1328.2ZM1754,1274.26a6.07,6.07,0,0,1-4.88-4.12,3.65,3.65,0,0,0-4.42-2.3c-5.57.94-11.22,1.25-16.72,2.78-13.42,3.76-26.58,8.48-40.5,10.5-8.6,1.24-16.23,6-24.44,8.31-10,2.86-19,7.87-28.4,11.81-6.28,2.62-12.06,6.28-18.65,8.36-8.9,2.81-10.12,4.84-10.65,14.24-.92,16.62-1.54,33.24-1.32,49.89.27,21.3-1,42.53-2.48,63.78-1.23,17.74-2.64,35.49-2.34,53.34.21,12.62.87,25.28-.54,37.91-.45,4.07,2.24,3.15,4.56,2.06a350.4,350.4,0,0,1,40.78-16c20.75-6.77,40.5-15.92,60.44-24.51,16.29-7,31.85-15.54,49.37-19.6,5.52-1.28,11.43-3.66,14.88-9.29a4,4,0,0,1,4.46-1.51c4.12,1.09,6.44-.42,6.61-4.57.39-9.5.67-19.16-1.87-28.3-4.46-16.09-5.44-32.35-4.91-48.88.32-9.65-1-19.22-2-28.82-2.36-23.38-6.7-46-20.19-66C1748.39,1279.86,1748.65,1276.71,1754,1274.26Zm135.51,346.35c5.53,1,12.11-1.26,18.74-.82,18.53,1.22,36.6-2.33,54.81-4.72,10.54-1.38,21.23-2.15,31.86-1.08s21.28,2.46,32.14-.13c10.48-2.5,21.4-2.9,32-4.69,9.78-1.65,19.18-5.32,29.41-4.38,3.72.34,5.11-2.25,3.11-5.42-4.81-7.6-9.89-15.43-17-20.66-9.57-7-16.25-15.89-22.22-25.74a126.48,126.48,0,0,0-14.9-20c-.77-.84-1.4-3.27-3.18-.66-3.91,5.75-6.91,6.46-12.48,2.44a20.58,20.58,0,0,0-8.69-3.43c-3.76-.71-7.71-.73-11.28-1.93-13.78-4.62-27.88-5.43-42.28-5.18-19.31.35-37.88-3.94-56.15-10.06-16.37-5.48-32.67-11.24-49.71-14.57-15-2.93-29.84-6.32-43.75-13.28-6.77-3.4-13.66-6.87-21.05-9-5.18-1.5-6.91-.07-5.78,5.21,1.56,7.33,4.42,14.22,7.25,21.13,5.6,13.68,11.44,27.33,18.86,40,6.75,11.59,11.55,23.93,16.79,36.12,4.33,10.08,7.93,20.54,14.49,29.47,2.76,3.75,2,10.31,5.84,11.67s8.89-1.26,13.61-1.39C1869.43,1619.34,1878.83,1621.05,1889.49,1620.61Zm-553.28,90.71c-.26,23.57-.51,26.81,9.42,53.41,2.28,6.09,7.08,12,13.74,12.66,12.14,1.25,24.43,2.07,35.14-6.9,8.45-7.09,19.08-11.46,25.32-21.32,10.27-16.22,22.07-31.67,28.05-50.16,4.1-12.71,9.51-25.29,8-39.27-.85-7.73-2.31-15.49-7.37-21.33-6.19-7.14-14.75-10.63-24.07-12.81a77.87,77.87,0,0,0-36.4.37c-9.6,2.29-17.46,7.93-25,14-14.68,11.69-23.66,26.47-25.7,45.4A236.56,236.56,0,0,0,1336.21,1711.32Zm432.69-236.57c-1.61-.49-2.64.24-3.61.78a73.46,73.46,0,0,1-17.15,6.71c-7.87,2-15.84,3.72-22.93,8-3.69,2.24-7.32,4.79-11.32,6.27-18.7,6.88-36.41,16.14-55.27,22.64-13.48,4.64-26.58,10.41-40.09,14.93-6.32,2.11-12.23,5.23-18,8.08-3.86,1.9-6,7.72-11.78,7.76-.16,0-.31.55-.48.83-2.28,3.67-4.59,7.31-6.53,11.2-1.48,3-2,6.27-4,9.11a106.23,106.23,0,0,0-14,27.92c-1,3.16.14,4,3,3.67,4.46-.46,8.93-.83,13.37-1.41,18.77-2.45,37.53-5,56.42-6.51q14.91-1.14,29.83-2c10.93-.62,21.58-.31,30.88,7,2.73,2.15,6.51,1.57,10.44,0-4.56-3.63-3.5-7.33-1.24-11.31,8.93-15.75,17.56-31.66,26.62-47.32C1745.58,1519.41,1757.18,1497.19,1768.9,1474.75ZM1863,1310.06c2.46,11.57,4.81,22.06,6.87,32.62,1.31,6.67,2.3,13.41,4.09,20,1,3.67,2.74,5.36,6.35,2.7,2.37-1.74,4.6-1.53,6.83.24a6.8,6.8,0,0,0,2.41,1.61c6.24,1.37,12.53,2.52,18.77,3.8,4.45.92,4.29-.61,4.5-4,.7-11-2.27-21.33-4.31-31.92-1.4-7.29-3.71-12.09-11.81-14.1C1885.49,1318.28,1874.69,1314,1863,1310.06Z" transform="translate(-1299.34 -1033.32)"/><path d="M1656.26,2418.57a168.76,168.76,0,0,1,38-1.8c13.11.88,22.45,6.85,25.55,20.1,2.7,11.55.24,20.54-6.52,29.8-7.53,10.31-17.65,17.56-27.18,25.49a160.52,160.52,0,0,0-15.82,15.8c-19.54,21.49-43.46,35.37-71.42,42.47a76,76,0,0,1-14.86,1.75c-7,.33-11.42-5.5-9.5-12.36.89-3.2,1.94-6.36,3-9.5.82-2.37,2.47-3.69,5-2.61s2.81,3.07,2,5.43-1.49,4.77-2.35,7.11c-1.28,3.49.16,4.61,3.52,4.34,11.93-1,23.1-4.59,34.08-9.16,21.48-8.94,38-24.18,53.11-41.28,4.77-5.41,10.42-9.84,16.09-14.07a86.55,86.55,0,0,0,23.3-26.33c4.61-7.9-1.47-23.68-9.74-27.35-6-2.65-12-2.12-18.12-2.13-18.54,0-36.73,3.64-55.13,5.15-2.38.19-4.87.74-6-2.07-1.29-3.22,1.41-4.49,3.45-5.78a66.69,66.69,0,0,1,20.13-8.57c12.15-2.87,22.21-9.75,33-15.18,5.08-2.55,10.36-4.51,15.5-6.85a28.06,28.06,0,0,0,16.29-31.46c-2.42-11.77-6.91-22.57-16-30.86a24.29,24.29,0,0,0-17.58-6.73c-16.94.24-33.28,4.17-49.82,6.94-3.56.6-5.85,2.88-8.14,5.37-3.66,4-6.19,3.79-10-.94-2.36,6-2,12.24-2.69,18.18-3.14,27-6.12,54-12.83,80.31-5,19.67-10.88,39.1-18.64,57.92-2.67,6.46-5,13-8.1,19.33-3.42,6.83-6.24,13.94-7.4,21.6a17.36,17.36,0,0,1-1.31,4.26c-.86,2-2.28,3.48-4.65,2.8-2-.58-2.83-2.37-2.65-4.33.32-3.46.17-7.2,1.47-10.31,7.56-18.1,10.26-37.5,15.27-56.27a153.65,153.65,0,0,1,7.39-21.7c6.94-16,10.25-33,13.58-50,3.58-18.26,7.09-36.54,10.65-54.81.54-2.77,1.34-5.51.4-8.35a4.11,4.11,0,0,1-.12-1.49c.12-2,8.09-11.61,10-12.14,3.27-.9,4.67,1.28,5.55,3.69,1,2.75,2.08,2.67,4.72,1.68,10-3.75,20.57-5.16,31-6.88a210.64,210.64,0,0,1,28.81-2.56c7.16-.18,13.3,2.61,18.55,7.31,13,11.7,19.41,26.61,21.06,43.85.93,9.62-8.67,28.41-24.18,33.6-10.36,3.47-19.61,9.12-29.08,14.31C1663.44,2415.21,1659.73,2416.6,1656.26,2418.57Z" transform="translate(-1299.34 -1033.32)"/><path d="M2177.15,1322.85a140,140,0,0,0,66.79-13.55,56.68,56.68,0,0,0,13.17-9c20.69-18.16,37.13-39.5,47.86-65,7.57-18,11.14-36.62,7.6-56.06a75.53,75.53,0,0,0-8.38-23.42c-3.27-5.82-9.82-7.27-15.87-8.33-7.82-1.37-15.58.32-23.24,2-2.63.58-3.28,3.13-4.35,5.15-1.27,2.41-2.88,4.53-5.82,3.08-3.11-1.52-1.67-4-.86-6.47,2-6.13,5.79-9.08,12.48-10,11.48-1.59,22.54-3.21,33.71,2.06,7.09,3.35,11.05,8.52,13.83,15.45,9.46,23.63,9.66,47.21.81,71.09-11.85,32-30.45,59-57.61,79.84-10.35,7.94-22.46,12.13-34.87,15.63-28.45,8-56.88,7.56-85.28,0a61.32,61.32,0,0,1-18.22-8c-8.39-5.55-11.41-14.18-13.19-23.65-3.29-17.46,3.21-32.43,11.47-47,4.44-7.79,8.86-15.6,14.16-22.89,15.79-21.72,37.51-32.15,63.78-34.21a278.56,278.56,0,0,0,34.45-5.3c5.27-1.09,10.62-.72,15.93-.4,2.52.15,3.91,2,3.52,4.52s-2.42,5.08-4.67,4.13c-6.62-2.77-12.85-.65-19.09.63-12.74,2.62-25.72,3.25-38.54,5.18-23.82,3.59-41.33,16.41-53.76,36.68-6.87,11.2-14,22.22-18,34.94-3.09,9.88-2.74,19.76,0,29.48,3.29,11.73,13.47,15.69,23.74,18.26C2151.89,1321.11,2165.23,1324.52,2177.15,1322.85Z" transform="translate(-1299.34 -1033.32)"/><path d="M1315.71,1235.49c-3-6.57-5-12.44-8.08-17.64-11.12-18.56-7.83-36,3.55-52.86,10.74-15.91,26.33-25.19,44.51-29.47,10.14-2.39,20.92-1,31.4-.67,4.93.17,9,3.33,13.22,5.64,21.51,11.84,31.89,30.6,33.94,54.67,1.78,21,.89,41.95.78,62.91-.09,18.65-8.64,34.2-20,48.41a114.73,114.73,0,0,0-14.26,23.38c-.79,1.7-1.73,3.29.35,4.84a3.44,3.44,0,0,1,1.12,4.84c-1.1,1.89-2.94,2.39-5.06,2.66-9.1,1.15-14.12-5-18.69-11-15.75-20.63-30.94-41.67-47.53-61.67-10.61-12.78-20.07-26.52-30.09-39.79-1.62-2.14-2.35-4.31.13-6s4.77-.94,6.39,1.57C1309.55,1228.68,1311.42,1232.35,1315.71,1235.49Zm111.92-.71c.09-19.08-.2-34.77-2.73-50.53-3.24-20.15-28.43-46-51.39-42.18-4.06.68-8.32.11-12.47.38-3.8.24-7.66.41-11.18,2.18-14.48,7.26-28.78,14.84-36,30.53-4.06,8.8-7.44,17.74-4.28,27.87,2.2,7,5.81,13.42,8.72,20.11,5.77,13.3,13.84,25.4,20.69,38.14,6.08,11.32,12.69,22.27,22.22,31.13,11.31,10.51,20.82,22.38,27.64,36.33,1.53,3.14,3.15,2.24,4.34-.45,6-13.51,14.8-25.21,23.41-37.08a57.37,57.37,0,0,0,8.33-18C1428.86,1259.46,1427.28,1245.43,1427.63,1234.78Z" transform="translate(-1299.34 -1033.32)"/><path d="M1951.14,1214.38c5.52-3.44,7.72-8.29,10.48-12.45,10.5-15.8,20.07-32.23,31-47.71a289.64,289.64,0,0,1,45-50q15.35-13.56,31-26.82c2.35-2,4.79-4.11,5.73-7.39.8-2.75,3.22-3.74,5.78-4.06a3.58,3.58,0,0,1,3.87,2.57c.92,2.53-.34,4.51-2,6.31-7.62,8.44-16.8,15.15-25.34,22.57-28.42,24.7-54,51.77-73.24,84.49q-10,17-21.47,33.06c-2.56,3.57-5.85,6.36-8.91,9.4-1.92,1.9-4,3-6.74,1.76s-2.61-3.58-2.61-6c0-16.32.23-32.65-.06-49-.47-27.29-3.56-54.4-6.25-81.53-1-10.09-1.74-20.21-2.59-30.32-.11-1.27-.2-2.55-.35-4.38-6.7,5.64-10.08,12.87-13.72,19.81-6.5,12.39-12.07,25.28-19,37.39-12.62,21.95-24.8,44.11-35.53,67a259.39,259.39,0,0,0-15.14,40.52c-1,3.5-3.57,5.09-6.8,4.26-3.71-1-2.64-3.76-1.66-6.47,10-27.59,21.56-54.59,36.3-79.9,15.1-25.92,27.59-53.17,42.34-79.23a37.71,37.71,0,0,1,9.75-11.19c5.23-4.06,10.12-2.3,11,4.38.65,4.77.67,9.62,1.1,14.42q3.36,37.26,6.8,74.52c2,21.27,1.08,42.6,1.28,63.9C1951.16,1207.36,1951.14,1210.34,1951.14,1214.38Z" transform="translate(-1299.34 -1033.32)"/><path d="M1593.27,1257.26c2.93-8,6.78-15.9,14.32-21.59,6.14-4.64,13-8.11,19.62-11.87,2.2-1.24,3.28-2.29,2.37-5-5.42-16.1-8.77-32.7-12-49.34-4.53-23.26-11.83-45.68-20.8-67.61-3.83-9.37-6.73-19.12-10.15-28.67-1-2.86-1.68-6.6-6.33-4.22a1.54,1.54,0,0,1-1.42-.21c-4-5-7.94-1-11.91,0-7.72,2-15.43,4.1-23.17,6a11.48,11.48,0,0,1-4,.09c-2.14-.25-3.92-1.19-4-3.67a3.85,3.85,0,0,1,4-4.23c5.89-.24,11.44-2.1,17.11-3.32a69.05,69.05,0,0,0,18.66-6.92,39.88,39.88,0,0,1,10.58-4.33,259.28,259.28,0,0,0,46.9-15.17,44.51,44.51,0,0,0,5.28-2.81c2-1.2,4.15-1.85,5.78.34,1.76,2.35.51,4.32-1.32,6.11-3.5,3.45-8.32,4.06-12.6,5.7-12.4,4.76-24.73,9.86-38,12-1.72.29-4.69.93-2.75,3.82,6.25,9.33,7.88,20.44,12,30.57,8.45,20.63,16.13,41.55,21.1,63.34,2.7,11.84,4.8,23.81,7.5,35.65,1.81,7.92,4.17,15.72,6.36,23.55.53,1.89,1.71,3.91,3.81,2.07,9.6-8.4,21.63-6.24,32.78-7.83a19.66,19.66,0,0,0,5.32-1.2c2.24-1,4.46-.91,5.59,1.49,1.23,2.62-.23,4.61-2.57,5.67-4.79,2.18-10.07,2.61-15.13,2.37-8-.37-15.17.93-21.64,5.71-1.28,1-3.46,1.31-2.85,3.5,1,3.65-1.32,4.85-3.83,6.53q-16.37,10.94-32.44,22.3c-1.85,1.31-3.1,3.45-4.73,5.09a4.22,4.22,0,0,1-5,1.18C1593.82,1261.56,1593.38,1259.85,1593.27,1257.26Z" transform="translate(-1299.34 -1033.32)"/><path d="M2056.64,2498.55c-6.51,0-12-2.57-17.14-6.18-8.42-5.93-14.93-13.66-20.86-22-3.89-5.45-4.07-5.49-7.75-.25-10.54,15-22.17,29.15-33.6,43.46-14.66,18.35-29.52,36.53-44.1,55-7.53,9.51-14.63,19.37-22,29.06-1.58,2.09-3.62,3.28-5.92,1.22s-1.8-4.38,0-6.66c13.6-17.47,27-35.06,40.79-52.41,14.48-18.28,29.3-36.28,43.82-54.53,6.21-7.81,12-16,18.09-23.88,1.68-2.17,1.43-3.93,0-5.83-12.83-17.23-25.33-34.8-45.69-44.27a15.12,15.12,0,0,0-4.78-1.27c-2-.22-3.53-1.29-3.64-3.44-.12-2.48,1.6-3.4,3.74-3.91,2.77-.67,5.14.1,7.63,1.36,18.34,9.29,31.78,23.73,43.6,40.17,6.6,9.18,4.75,8.93,11.05.22,14.89-20.59,26.46-43,36.88-66.12,1.94-4.3,4.19-8.58,10-8.42,2.42.07,4.9.55,5.35,3.44.49,3.08-1.56,4-4.26,4.17s-3.52,2.29-4.38,4.24c-11.32,25.65-24.7,50.14-41.22,72.83-1.89,2.6-2.48,4.94-.45,7.7,6.62,9,13.55,17.66,22.73,24.32a21.3,21.3,0,0,0,16,4c3.13-.42,6.31-.77,7.55-4.6a3.18,3.18,0,0,1,4.1-2c2.09.56,2.7,2.3,2.75,4.26.11,4.26-2.72,7.78-7.44,8.76C2063.92,2497.75,2060.26,2498.05,2056.64,2498.55Z" transform="translate(-1299.34 -1033.32)"/><path d="M1893.4,2459.13c-.61,19-3.06,35-12.43,49.12-10.72,16.14-33.29,23.3-50.23,16a44.49,44.49,0,0,1-15.56-11.48c-12.68-14.22-20-30.7-18.35-50.08,1-11.78,7.35-21.62,13.82-31.14a70.8,70.8,0,0,1,23.5-22,27.64,27.64,0,0,1,15.28-3.76c4,.18,6.18,2.68,6,6.55-.14,3-2.44,5.07-5.1,3-4.9-3.78-8.88-.91-12.89,1a34.57,34.57,0,0,0-8.14,5.72c-10.52,9.75-19.65,21-23.49,34.76-4.71,16.91.29,32.64,11.2,46.22,5.42,6.74,11.52,13.14,20.26,15.5,16.41,4.42,35.26-5.93,42-22.71,6.39-16,7.58-32.59,5.27-49.54-.59-4.29-1.12-8.58-1.52-12.88-1.22-13.09-9.1-21-20.37-26.18-3.77-1.74-7.74-3.08-11.45-4.93-10.73-5.37-20.22-1.89-28.81,4.54-6.4,4.8-13.43,9.34-15.72,18-.7,2.67-3.39,3.24-5.78,2-2.56-1.28-2.42-3.65-1.63-6.07,1.91-5.83,6.46-9.65,10.76-13.46,8.49-7.51,17.26-14.65,29.51-15.17a18.5,18.5,0,0,1,7.31.68c10.63,3.87,21.38,7.53,30.51,14.53,8,6.13,11.93,14.49,13,24.35S1892.56,2451.67,1893.4,2459.13Z" transform="translate(-1299.34 -1033.32)"/><path d="M1957.76,2269.75c-4.34,6.19-7.43,12.85-12.69,18s-10.11,10.65-18.42,10.4c-4.27-.13-6.09-2-6.68-6.3-2-14.68,4.11-26.15,13.65-36.42,2.82-3,5.56-6.15,8.35-9.21a9.8,9.8,0,0,1,4.5-3c3-.87,6.24-1.36,7.8,2.11s-.87,5-3.44,7.13c-10.17,8.46-20.78,16.85-21.49,31.76-.06,1.24-.65,3,.84,3.62s2.45-.93,3.29-1.76c7.87-7.71,15.09-15.89,18.12-26.88.77-2.77,1.65-5.84,5-6.11,3.55-.27,5.74,2.07,7.06,5.27,1.59,3.84,3.31,7.61,4.9,11.45,1.2,2.92,2.7,4,5.61,1.72,2.52-1.92,5.39-2.29,7.34.81s.23,5.46-2.17,7.31c-6.95,5.39-16.11,2.78-19.27-5.44C1959.54,2272.84,1959.52,2271.25,1957.76,2269.75Z" transform="translate(-1299.34 -1033.32)"/><path d="M1813.88,2247c2.28.21,4,1.56,4.13,3.66.17,3.45,1.87,3.39,4.55,3.16,5.65-.47,9.29,2.66,12,7.32s4.25,10.09,6,15.28c1,2.84,1.69,5.71,3.58,8.16a4.23,4.23,0,0,1-.33,5.91c-2,2-4.17,1.65-6.36.3-2.46-1.52-3.33-4.05-4.19-6.58-1.8-5.34-3.21-10.85-5.46-16-2.67-6.13-5-6.15-9.09-1s-4.79,11.95-7.24,17.9c-.81,2-1.48,4-2.41,6-1,2.12-2.7,3.49-5.2,2.91s-3.44-2.42-3.7-4.77c-.75-6.7,3-12.11,5.11-18,.65-1.88,1.67-3.63,2.37-5.49,1-2.69,1.25-5.09-.46-8C1804.52,2253.29,1808.87,2246.78,1813.88,2247Z" transform="translate(-1299.34 -1033.32)"/><path d="M1765.7,2254c-2,13.51-1.5,27.17-2.43,40.74-.22,3.19-1.31,6.24-5.19,6.05-3.6-.18-4.48-3.09-4.34-6.16q.85-19,1.91-38.08a14.44,14.44,0,0,1,1.28-4.78c1-2.44,3-3.55,5.67-2.78C1765.06,2249.67,1765.85,2251.6,1765.7,2254Z" transform="translate(-1299.34 -1033.32)"/><path d="M1772,2202c.3,3.85-1.4,6.35-5,7.72a4.37,4.37,0,0,1-4.67-.6,4.26,4.26,0,0,1-1.26-5,35.93,35.93,0,0,0,1.53-3.66c.63-3.09,1.88-5.58,5.5-5S1771.83,2199.08,1772,2202Z" transform="translate(-1299.34 -1033.32)"/></svg>