<svg id="Layer_1" data-name="Layer 1" xmlns="http://www.w3.org/2000/svg" viewBox="0 0 629.14 429.29"><title>dino_teaching</title><path d="M1866.3,1745.88c-3.15,12.73-12.94,19.92-22.68,27.13-2.7,2-5.13,4.29-8.1,6-7.9,4.52-16.19,4.37-24.72,2.79-1.27-.24-2.9-1.35-3.77.09-.71,1.2.34,2.67,1,3.82,8.93,14.72,9.18,31,8.62,47.46a12.7,12.7,0,0,1-2.54,6.55,6,6,0,0,0-.4,6.34,80.69,80.69,0,0,1,7.47,31c.09,2.54,0,4.93,2.4,6.65a3.73,3.73,0,0,1,1.15,4.42c-.63,2-2.41,2-4,1.88-2.73-.19-5,.07-5.26,3.53a2.42,2.42,0,0,1-1.69,1.88c-5.46,2-10.92,4.14-16.87,2.53-2-.55-3.54-2.28-5.27-3.32-3.92-2.34-5.55-6.66-9.07-9.19a7,7,0,0,1-2.18-3.39c-3.16-7.56-3.42-15.49-3.19-23.52.15-5.3,0-5.31-5.36-5.23a9.82,9.82,0,0,0-2.61.14c-14,4.23-28.57,3.52-43,4.31-3.35.18-5.28,1.41-6.1,4.75a166.89,166.89,0,0,0-4.63,28.69c-.19,2.76-1.07,5.06-3.6,6-2.83,1.07-3.89,3.27-4.72,5.73-1.47,4.34-5.13,5.93-9,7.18-2.22.72-3.3-1.17-4.46-2.68-1-1.31-1.75-1.72-2.35.47-1.16,4.27-7.9,7-11.46,4.41a9.87,9.87,0,0,0-6.87-2c-2,.12-3.77-.52-4.43-2.64s.53-3.52,2.15-4.33c4.05-2,3.8-4.89,3-8.88-3.12-14.67-2.48-29.22,2.88-43.39,1.59-4.19,1.84-8.8,4.13-12.78.62-1.08-.26-1.82-.84-2.64a25.66,25.66,0,0,1-4.89-15.68,172.26,172.26,0,0,1,2.43-28.63,47.3,47.3,0,0,1,7.08-17.93c4.48-6.65,6.86-14.37,10.86-21.29,2-3.45,4.13-6.8,6.14-10.23s1.56-4.13-2.29-4c-9.46.24-17.07-3.62-23.79-10a246.89,246.89,0,0,1-21.44-22.79c-1.64-2-4.67-1.72-6,1.15-2.42,5.29-6.31,9.54-9.4,14.34a55.89,55.89,0,0,1-6.54,7.6c-1,1-1.17,1.7-.07,2.74,8.61,8.17,17.43,16.34,28.34,21.1,8.09,3.52,15.33,8.81,23.92,11.2,1.24.34,3.08.81,2.31,2.68s-2.32.42-3.51.16c-6.43-1.46-11.7-5.39-17.39-8.4-2.46-1.3-5.17-1.77-7.59-3.09-9.37-5.11-17.6-11.72-25.44-18.88-1.2-1.09-2.37-2.23-3.54-3.35-6-5.68-6.15-9.34-1-16.17,3.86-5.17,7.06-10.94,13.32-13.76,1.19-.54,1.15-1.31.91-2.43a186.81,186.81,0,0,0-6.81-22.93c-.36-1-.43-1.35-2-1.24-2.67.2-2-2.33-1.23-3.8a5,5,0,0,1,4.82-3c2.63,0,4.82,1,5.84,3.32,2.09,4.79,4.51,9.59,5.59,14.65,2.24,10.57,8.93,17.88,16.08,25.27,4.58,4.73,9.07,9.56,13.83,14.13a30.41,30.41,0,0,0,24.26,8.65,3.89,3.89,0,0,0,3.53-2.35c3.86-8.2,8.77-15.92,11.63-24.56,2.49-7.53.25-14.8-2.35-21.89-.88-2.39-2.85-1-4.19-.7a41.19,41.19,0,0,1-19.24.5c-8.88-2-13.74-8.29-13.86-17.44a21.45,21.45,0,0,1,0-3c.42-3.41-.34-5.29-4.47-5.24-3.46,0-4.66-2.44-3.34-5.75.7-1.72,1.38-3.69,2.68-4.88,2.87-2.62,3.09-5.78,2.86-9.22,0-.5,0-1,0-1.5-1-12.72,2.93-17.77,17.86-21.84,12.36-3.38,24.27-1.25,35.13,5.54,5.2,3.26,9.11,8.08,13.08,12.72,3.08,3.6,6.07,7.27,9.09,10.93,2.52,3,3.76,6.83,5,10.41,5.7,16.63,14.85,31.84,20,48.66,2.93,9.61,6.66,19.1,6.91,29.37,0,1.17.14,2.25,1.32,2.88,6.44,3.45,7.08,10.46,9.89,16.13.49,1,.53,2.2,1,3.2,2.64,5.51,5.65,10.85,7.31,16.79a5.48,5.48,0,0,0,5.3,4.42c6.05.47,11.91,2.72,18.17,1.25a29.08,29.08,0,0,0,9.56-4.13,131.42,131.42,0,0,0,20.42-16.88c3.5-3.54,5.3-8.07,6.83-12.74a87.61,87.61,0,0,1,3.53-8.24c.31-.7.85-1.33,1.72-1.18a1.3,1.3,0,0,1,1.08,1.36c-.6,10.55,3.51,21,.58,31.6a113.94,113.94,0,0,1-19.65,39.91c-5.1,6.57-10.42,13-14.83,20.17-3.22,5.2-8.75,6.69-14.47,7.37a1.45,1.45,0,0,1-1.78-1c-.2-.91.47-1.35,1.2-1.61a14.94,14.94,0,0,1,2.5-.75c4.83-.77,8.26-3.19,11.07-7.38,5-7.44,10.64-14.45,16-21.64a101.88,101.88,0,0,0,17.94-40.23c1-4.75-.51-9.42-.76-14.13A34.91,34.91,0,0,0,1866.3,1745.88Zm-55.71,92.92c2.63-3.47,3.27-4.78,3.37-7.37.6-15.37-.55-30.35-8.52-44.14-2.86-4.94-4.67-10.48-7.06-15.7-4.2-9.17-7.32-18.81-11.91-27.82-.87-1.73-2-3.3-4.31-2.7s-2.42-.57-2.15-2.43a28.81,28.81,0,0,0-.24-8.18c-.72-5.25-2.72-10.11-4-15.18a181.83,181.83,0,0,0-10.1-28.08c-3-6.84-6.3-13.54-9.08-20.45-3.24-8.07-5.73-16.39-11.71-23.14-5.54-6.24-10.3-13.36-17.22-18.06-10.91-7.4-23.25-9.28-35.7-5-9.45,3.26-13.59,6.9-13.26,16.9.3,9,.13,9,8.18,4.66a7.89,7.89,0,0,1,8.54.36,5.1,5.1,0,0,1,1.89,6c-.93,2.83-2.34,5.45-5.9,6.06-7.11,1.2-10.46,5.31-10.4,12.42,0,.5,0,1,0,1.5.44,7.69,4.65,12.89,12.07,14.67,8.49,2,16.49,0,24.48-2.83,6.5-2.34,7.34-6.61,5.85-13.67-.44-2-2.58-5.34-.53-5.87,3.25-.83,3,3.34,3.48,5.38a21.15,21.15,0,0,1-.18,10.74c-1,3.35-3.75,4.79-6.76,5.89-1.5.55-1.21,1.7-.89,2.8.46,1.56,1,3.09,1.48,4.65,2.48,8.68,2.58,17.21-1.9,25.36-4.25,7.74-7.66,15.89-12,23.61-6.08,10.85-11.32,22.17-17.48,33-4,7-7.35,14.14-8.78,22.06a115.41,115.41,0,0,0-1.74,14.82c-.48,9.82-1.56,19.88,6.93,27.51,1.11,1,1.67,2.39-.43,3.15s-2.32,2.47-2.82,4.14c-.89,3-1.48,6.06-2.6,8.94-4.41,11.34-4.79,23.13-4,35,.16,2.44,1.15,4.83,1.84,7.23.63,2.16,3.48,4.68,3.93,4.42,2.61-1.44,5.33,0,7.56-.67a78.93,78.93,0,0,1,16.12-2.83c6.71-.63,7.27-1.65,8.1-8.29a204.6,204.6,0,0,1,4.91-27.53c.94-3.5,2.91-5.21,6.25-5.12,10,.28,19.87-1.63,29.84-1.56a23,23,0,0,0,8.45-1.34c4.67-1.78,9.52-1.77,14.4-1.71,2.36,0,3.44,1,3.37,3.38-.08,2.62.14,5.25,0,7.87-.34,5,.69,9.88,1.65,14.79.79,4.1,4.44,6.07,6.14,9.23,2.13,4,4.79,4.15,8.29,3.48a87.76,87.76,0,0,0,18.84-6c2.4-1,3.79-2.5,3.63-5.4a84.45,84.45,0,0,0-6.9-28.88c-.58-1.35-1.12-2.78-3.16-2.56-1.11.12-2.35-.82-1.36-1.8,2.6-2.58.21-4.25-.82-6.1-.49-.88-1.53-1.55-.35-2.47a2.07,2.07,0,0,1,3,.39A26.07,26.07,0,0,1,1810.59,1838.8ZM1644.5,1704.36c-9.27,4.58-13.47,12.11-17,20.2-.27.6-.38,1.28.23,1.68.92.62,1.72,0,2.29-.59a63.4,63.4,0,0,0,5-6C1638.29,1715.06,1642.65,1711.14,1644.5,1704.36Zm-7.68-32.16a24,24,0,0,1,2.28,5.59,165.38,165.38,0,0,1,5.67,19.26c.24,1.09.14,3.76,2.85,2.63,2.26-.94,1.44-2.51.71-4a22,22,0,0,1-1.89-5.23c-1.17-5.37-3.83-10.2-5.62-15.35C1640.17,1673.24,1638.66,1672.61,1636.82,1672.2Zm64.74,226.86c-1.69-.38-3.17.57-4.78.7-1.14.1-2.55.3-2.7,1.55-.24,2,1.62,3.21,2.65,4.72a1.69,1.69,0,0,0,2.6.43,50.83,50.83,0,0,0,4.11-3.2,3.3,3.3,0,0,0,1-3.42C1704,1898.37,1702.55,1899.29,1701.56,1899.06Zm-17.47-252.54c-4.25,1.21-6.73,4.45-9.29,7.6-.68.83-1.94,1.59-1.11,2.83s2.27.72,3.48.75,2.58-.36,2.41-1.72C1679,1651.78,1682,1649.46,1684.09,1646.52Zm5.37,256.92c.06-1.19,0-1.28-1.17-1.31a6,6,0,0,0-6.49,6c0,1.14.25,2,1.57,2.06C1686.27,1910.42,1689.3,1907.05,1689.46,1903.44Z" transform="translate(-1448 -1578.1)"/><path d="M2048.29,1847.71c2.19-.26,2.77,1.2,3.14,2.91,1.6,7.57,3.72,15.05,3.81,22.86a4.14,4.14,0,0,0,2.19,3.59c5.2,3.68,10.31,7.51,15.54,11.14a6.89,6.89,0,0,1,3.26,6.33c-.48,11.74.7,23.44.9,35.17.23,13.19-3.56,24.4-13.19,33.6-6.31,6-12.35,12.42-19.93,16.86-4.91,2.87-10.33,4.81-15.4,7.46-8.15,4.26-16.1,9-24.88,11.95a113.31,113.31,0,0,1-12.11,3.8c-2.22.48-4.48.43-6,3.4-1.16,2.24-2.59-2.39-5.81-1.77-8.36,1.62-17,2.45-25.56,0-12.24-3.44-19.5-11.82-23.65-23.4-1.08-3,.32-5.37,2.09-7.55,1.45-1.81,1.55-2.75-.8-4.16-4.35-2.62-9.14-4.64-12.75-8.39-1.73-1.8-2.92-1.36-4.5.54-5.53,6.66-8.6,14.53-11.64,22.45-1.82,4.75-4,9.38-4.54,14.56-.13,1.34-.77,2.62.18,4,.56.79.6,1.72-.53,2.15a2,2,0,0,1-2.55-1c-.87-1.51-.52-3.13-.25-4.75a79.78,79.78,0,0,1,4.87-16.44c2.36-5.92,5-11.68,7.94-17.34,1.22-2.38,3.14-4.18,4.75-6.23,1.33-1.69,1.13-8.22-.29-9.61-.81-.79-1.65-.28-2.44,0-9,3.3-18.34,5.5-27.61,7.9-4.41,1.15-9,.42-13.43.46-2,0-2.81.34-3,2.57-.8,9.81-1.86,19.61-2.76,29.42-.14,1.46-.39,3,.54,4.37.64.92.92,1.77,0,2.67a1.94,1.94,0,0,1-2.07.5c-1.15-.39-1.25-1.44-1.29-2.46-.24-6.51.84-12.93,1.16-19.41.24-5,.77-9.95,1.18-14.93.16-2-.19-3.33-2.31-4.5-4.7-2.59-6.39-7.47-6.67-12.36-1-16.39,5-29.92,17.79-40.39a23.1,23.1,0,0,1,7.56-4c11.27-3.68,22.33-8.06,33.93-10.63,2.77-.61,3.22-2,2.58-4.19s-.42-4.46-.49-6.7a3.65,3.65,0,0,1,3.42-3.8c2-.31,1.46,1.88,1.72,3.06,1.24,5.58,1.39,5.81,6,2,12.29-10,26.38-11.63,41.57-10.48,7.51.57,13.36,4.52,20,7,1.32.5,2.59,1.75,4,0,.7-.84,1.72-1.89,2.77-.58.9,1.12-.15,2.13-.81,3-3.17,4-6.28,8.11-9.61,12a9.2,9.2,0,0,0-2.57,7.13,24.93,24.93,0,0,1-1.83,11c-2.19,5.86-1.55,12.15-1.72,18.19-.44,15.51-5.14,29.95-9.63,44.5-.14.48-.38.93-.54,1.4-1.52,4.53-.79,5.9,4,6.08,5.6.21,11.23.51,16.8-.65a4.88,4.88,0,0,0,2.86-1.59c.39-.44,1.11-1.11,1.45-1,4.72,1.58,6.68-2.7,9.77-4.55,1-.59,1.76-2.38,3-1s.23,3-1,3.84a70.9,70.9,0,0,1-8.9,5.48,6.47,6.47,0,0,0-3.66,3.89c-1.43,4.13-3,8.2-4.53,12.31-.59,1.64-1.58,3.62-.39,5s3.36.25,4.87-.2a142,142,0,0,0,29.25-12.33,131.33,131.33,0,0,1,17.33-8.63,37.67,37.67,0,0,0,10.33-6.52c7.72-6.32,15.05-13.14,20.47-21.66a26.7,26.7,0,0,0,3.88-11.53,106.1,106.1,0,0,0,.63-16.8c-.41-8.85-.89-17.7-.73-26.56a6.87,6.87,0,0,0-3.35-6.26c-4.26-2.85-8.37-5.92-12.5-9-1.75-1.28-2.4-.84-2.35,1.24.41,16.64-5.61,31.91-11,47.14-4.17,11.9-11.63,22.2-20.15,31.61a140.33,140.33,0,0,0-10.26,12.4c-1.52,2.14-3.34,4.14-6.47,3.62-.77-.12-1.59-.25-1.71-1.15s.57-1.36,1.36-1.49c2.77-.43,4.24-2.45,5.66-4.54,3.51-5.18,8.16-9.4,12.11-14.2a113.55,113.55,0,0,0,22.55-45.51c2.88-11.5,6.18-22.87,5.16-35-.67-7.88-2.37-15.53-4-23.22a10.18,10.18,0,0,1-.32-4.07Zm-172.43,107.93c9.75-.74,20.15-4.33,30.48-7.78a227.2,227.2,0,0,0,26.94-11.44c10-4.84,20.61-8.08,30.28-13.71,8.37-4.87,13.9-11.61,15.13-21,1.45-11.06-3.37-17.77-14.94-17.51-3.21.07-6.44,1.78-9.9,1.69-5.89-.15-11.54,1.82-17.43,2a37.68,37.68,0,0,0-12.12,2.06c-1.49.55-2,1.37-1.42,2.85.38,1,.8,2,2.11,1.33,5-2.54,10.67-.77,15.74-2.79,2.24-.89,3.77.31,4.1,2.49.68,4.48,2.46,8.63,3.55,13,.71,2.81,1.31,6-1.42,8.37a33.84,33.84,0,0,1-11,6.22c-12,4.41-24.67,7-36.37,12.4a7.56,7.56,0,0,1-6.55,0c-1.85-1,.59-2.34.29-3.61a8.15,8.15,0,0,1-.31-1.45c-.33-5.11-.66-10.21-.94-15.32-.06-1,0-2.22,1.29-2.34s1.54,1.14,1.67,2.1c.22,1.73.24,3.48.39,5.22.3,3.47-.43,7,.83,10.4.65,1.78,1.13,2.26,3.4,1.62,6.37-1.79,11.94-5.82,18.67-6.5a2.06,2.06,0,0,0,2.06-2.58c-1.16-4.71-.65-9.69-2.32-14.28a2.88,2.88,0,0,1,1-3.63c2.26-1.76.24-2.12-.88-2.64-1.28-.6-2.46.19-3.58.64q-9.88,4-19.73,8.12c-.84.35-1.61.9-2.31,0s-.07-1.66.34-2.42c.61-1.14,1.86-1.18,2.87-1.58,6.38-2.55,12.73-5.2,19.2-7.48,3-1.06,1.91-3.08,1.67-4.84-.37-2.63-2.27-1.24-3.51-1-11.58,2.63-22.61,7.07-33.88,10.69a22.24,22.24,0,0,0-5.57,3c-9.37,6.45-13.12,16.4-16.38,26.52a22.52,22.52,0,0,0,1.18,16.8c1.07,2.26,1.86,6.11,6.09,3.68a1.08,1.08,0,0,1,1,.21C1868,1956.43,1871.44,1955.22,1875.86,1955.64Zm99.36-37.15a5.71,5.71,0,0,0-3.32,1.85c-3.64,3.72-8.2,6.18-12.8,8.28-12.54,5.72-25.26,11.08-37.95,16.45-6,2.54-7,5.23-3.15,10.58a26.26,26.26,0,0,0,3.82,4.07c4.45,4.06,9.8,6.87,15,9.68,7.54,4.08,15.46,7.48,24.29,7.93,2,.11,3-.49,3.47-2.36q2.79-10.08,5.71-20.11A120.8,120.8,0,0,0,1975.22,1918.49Zm-8,85.13c2.71.39,6.87-.84,11.1-1,3.6-.17,7-.76,6.11-5.91-.18-1,.54-2.15.92-3.2,1.14-3.18,2.32-6.34,3.49-9.5.74-2,1.21-3-2-2.75a78.71,78.71,0,0,1-16.81,0c-3.64-.46-4.33.74-4.73,3.69-.26,1.88.1,5.3-2.32,4.9s-.58-3.35-.46-5.2c.14-2.08.83-4.52-2.59-4.51-6.95,0-13-3.1-19.34-5.31-1.26-.44-2.62-2.26-4-.43s-3.82,3.51-2.83,6.14c1.61,4.28,3.22,8.68,6.34,12.15C1946.85,2000.18,1955.49,2003.61,1967.17,2003.62ZM1923,1886.81c1.94-.36,3.86-.82,5.82-1,10.51-1.18,21.08-2.06,31.42-4.45,6-1.4,11.27.34,16.23,3.61,1.82,1.2,2.15,4.86,4.5,4.21,1.77-.49,2.93-3.22,4.36-5,.63-.77,1.22-1.58,1.9-2.32,1.4-1.53,1-2.39-.78-3.36-10.71-5.76-21.81-8.25-34.16-6.67C1940.6,1873.34,1931.44,1879,1923,1886.81Zm-.43,27.87c-.25,1.58.35,3,.43,4.47.14,2.68,1.08,3.18,3.48,2.22,4.5-1.79,9.19-3.07,13.58-5.18,5.69-2.74,6.53-4.55,4.7-10.52q-1.35-4.47-2.51-9c-.26-1-.43-2.31-1.68-2-4.47,1.15-9.19,0-13.64,1.92-3.06,1.31-4.28,2.75-3.45,6.19.94,3.85,2.08,7.73,2,11.78,0,.86,0,1.89-1.19,2C1922.93,1916.8,1923,1915.57,1922.61,1914.68Z" transform="translate(-1448 -1578.1)"/><path d="M1548.45,1578.24c8.62,0,17.26-.36,25.86.09,10.56.55,21.08,2,31.64,2.58,5.83.31,11.25,2,16.75,3.43,4.69,1.22,9.14.06,13.7-.41a91.53,91.53,0,0,1,19,.13c7.21.74,10.29,5.09,12,11.35a85.48,85.48,0,0,1,3.11,21.77c0,13.2.9,26.48-2.3,39.48-2.32,9.47-4.32,19-3.62,28.8.49,6.68,2.83,13.18,2.17,20-.17,1.67,1,4.68-1.4,4.63s-1.35-3.09-1.28-4.77c.28-6.31-1.88-12.28-2.34-18.48-1-13.16,2.67-25.69,4.85-38.43,2-12,1.38-24.1.67-36.19a70.39,70.39,0,0,0-2.43-14.34c-2.34-8.63-4.73-10.89-13.59-11.51a66.55,66.55,0,0,0-18.25,1,27,27,0,0,1-15.1-1.1c-5.27-2-10.71-2.35-16.12-2.87-20.5-2-41.06-2.45-61.67-2.48a338.88,338.88,0,0,0-65.45,6.46c-3.67.72-7.33,1.52-11,2.18-2.16.39-3.16,1.33-3.16,3.73,0,8-.5,16-.55,24-.13,17.66-2.59,35-4.9,52.47-1.52,11.47-2.92,23-3.52,34.57-.2,4-.9,7.92-.72,11.93s1.23,5.2,5.15,5.26c4.86.08,9.68.15,14.51-1.08a47.13,47.13,0,0,1,10.76-1.09c8.75-.14,17.51.17,26.25-.1,8.53-.27,16.86,1.56,25.26,1.94,14.54.66,29.08,1.62,43.73.68,12.76-.82,25.7-1.37,38.48.89,1.7.3,3.48.19,5.2.45,1.16.18,2.28.85,2,2.23s-1.49,1-2.49.83c-13.46-2.53-27.1-2.44-40.64-1.74a231.64,231.64,0,0,1-25.8.39c-10.9-.66-22,.44-32.69-2.69a6.15,6.15,0,0,0-1.87-.13c-14.6.36-29.25-1.07-43.79.83a118.4,118.4,0,0,1-19.35,1.42c-5.69-.2-7.47-1.82-7.42-7.34.11-13.61,1.9-27.07,3.32-40.58,1.49-14.26,3.85-28.4,5.06-42.7,1.22-14.47-.17-29,1.26-43.42.23-2.4.82-3.17,3.45-3.55,9-1.3,17.94-3.19,26.91-4.78a237,237,0,0,1,41.7-3.67Z" transform="translate(-1448 -1578.1)"/><path d="M2048.22,1847.8c-6.08,11-16,17.66-27.07,22.54-9.8,4.31-20.17,6.26-30.38,1.38a37.33,37.33,0,0,1-16.6-15.68,14.71,14.71,0,0,1-1.94-7.91c.43-9.9,2.87-19.21,8.22-27.62,2.81-4.42,7.47-6.93,11.22-10.39,4.54-4.2,9.52-7.79,13.45-12.83,3.08-4,8.77-5,13.72-6.22,14.52-3.52,25-1.13,33.48,9.9a8.49,8.49,0,0,1,2.16,5.07c.09,11.34.58,22.69-2.93,33.75a75.23,75.23,0,0,1-3.26,7.92Zm3.52-32.06a39.38,39.38,0,0,1,0-4.86c.56-4.54-1.48-7.75-4.49-10.94-6-6.29-13.24-8.36-21.44-7.29-5,.66-10.2,1.45-14.33,4.83-6.19,5-12.21,10.32-18.37,15.4-5.5,4.54-11.09,8.89-13.73,16a91,91,0,0,0-4.37,18.5,10.19,10.19,0,0,0,1,5.47c3.47,8.31,15.53,19.14,26.8,18.71s21-5,30-11.33a38.36,38.36,0,0,0,10.75-10.79C2050.09,1839.05,2051.75,1827.62,2051.74,1815.74Z" transform="translate(-1448 -1578.1)"/><path d="M1726.86,1799.78c7.9-1.38,15.54-1.55,22-4.91,6-3.11,11.14-7.88,16.63-12,1.89-1.4,3.65-3,5.55-4.39.69-.51,1.66-.84,2.36,0s.08,1.61-.54,2.27c-2.64,2.84-5.86,5-8.79,7.49a56,56,0,0,1-38.61,13.93c-8.57-.14-13.88-5.73-14.33-14.28s3.07-15.17,9.53-20.45c1.67-1.36,3.6-2.72,5.73-2.44,7.4,1,13.19-3.1,19.28-6a37.2,37.2,0,0,0,10.59-7,3.63,3.63,0,0,1,3-1.25,1.6,1.6,0,0,1,1.49.94c.28.7-.14,1.11-.65,1.54-7.05,5.86-15.22,9.76-23.47,13.53-.44.2-1.07.08-1.44.35-2,1.47-5.66-1-6.53,1.91-.58,2,.83,4.55,1.21,6.87a50.14,50.14,0,0,1-.1,17.45C1729.42,1795.6,1728.23,1797.33,1726.86,1799.78Zm.81-15.49c.53-4-.51-8.17-1.61-12.25-.61-2.25-1.87-3.46-4.31-1.38-6,5.12-10.5,14.77-5.88,23,1.36,2.43,2.64,4.28,5.46,4.17,3-.12,4.66-2.14,5.52-4.83A22.24,22.24,0,0,0,1727.67,1784.29Z" transform="translate(-1448 -1578.1)"/><path d="M1712.76,1650.1c-1.68.28-4.23-.41-6.77-1-3.13-.68-4-2.87-1.81-5.11,3.27-3.33,6.6-6.79,10.5-9.27s8.84-.92,12.94.52c2.34.81,1.9,3.91.46,5.84-2.36,3.17-6,5-8.61,8.05C1718.15,1650.75,1715.69,1649.87,1712.76,1650.1Z" transform="translate(-1448 -1578.1)"/><path d="M1995.52,1833c-1.23,0-2.11,0-3,0-4.76-.19-6.31-2.4-4.63-6.81,1.55-4.07,3.07-8,8.16-9.29,4.21-1,9.82,1,11,4.58,1.8,5.72-.36,9.7-5.94,11.14A27.12,27.12,0,0,1,1995.52,1833Zm-4.81-3.8c3.25,1.61,6.62,1.23,10,.31a4.62,4.62,0,0,0,3.76-4.85c0-2.58-1.42-3.7-3.66-4.35C1999.72,1829,1998.86,1829.76,1990.71,1829.21Z" transform="translate(-1448 -1578.1)"/><path d="M2029.52,1832.26c-5.54,0-7-1-7-4.87,0-4.78,3.62-9.85,7-9.72,4.15.16,7.08,3.78,7,8.72C2036.48,1831.64,2035.72,1832.28,2029.52,1832.26Z" transform="translate(-1448 -1578.1)"/><path d="M1995.79,1846.78c3.35-.69,6.4,1,9.4,2.3,4.27,1.86,4.65,5.83,1.55,9.41-5.63,6.48-15.32,3.53-19.55-.21a5,5,0,0,1-1.12-5.92c1.33-2.63,3.24-5.08,6.54-5.56A22.25,22.25,0,0,1,1995.79,1846.78Zm1.43,12.46a5.57,5.57,0,0,0,3.81-.44c2.23-1,4.74-2.52,4.24-5s-3.49-2.57-5.9-2.82c-2.14-.22-4.66,2.18-6.48-.82-.07-.12-.91.09-1.3.3-3.72,2.06-3.7,4.67-.17,7C1993.52,1858.81,1995.9,1858.82,1997.22,1859.24Z" transform="translate(-1448 -1578.1)"/></svg>