<svg id="Layer_1" data-name="Layer 1" xmlns="http://www.w3.org/2000/svg" viewBox="0 0 414.47 550.44"><title>dinosaur_raging_about_proposals</title><path d="M1873.68,2097.6a101.76,101.76,0,0,0-5-12.2c-5.86-13.18-13.19-25.55-20.94-37.7-4.78-7.48-9.55-15-13.94-22.69a179.25,179.25,0,0,1-10.57-22,28.89,28.89,0,0,1-1.08-3.42c-.18-.73-.13-1.5.78-1.75.76-.21,1.17.28,1.51.88a27,27,0,0,0,9.32,9.42,32.8,32.8,0,0,1,5.65,4.44,28.86,28.86,0,0,0,3.13,2.61,6.62,6.62,0,0,0,4.25,1.35c3.44-.06,6.86-.1,10.19,1.09a3.85,3.85,0,0,0,4.13-1.17,9.68,9.68,0,0,0,3.42-6.89,6.92,6.92,0,0,1,.19-1.43c2.1-9.09,1.29-18.28.91-27.46-.13-3.11-.19-6.23-.44-9.34-.42-5.2-1.75-10.24-2.39-15.4-1-8.16-2.81-16.21-3.63-24.41a41.91,41.91,0,0,0-.89-5c-1-4.63-1.11-9.36-1.33-14.06-.26-5.75-.71-11.49-1-17.23-.33-7.81-1.14-15.64.09-23.45.15-.91.23-1.85,1.37-1.94s1.75.68,2,1.71c.25,1.25.35,2.53.62,3.78a46,46,0,0,0,9.73,20.09c2,2.33,3.93,4.64,5.87,7,.78.93,1.55,1.31,2.6.34a3.36,3.36,0,0,1,1.48-.75,39.25,39.25,0,0,0,9-3.64c8.8-4.36,17.38-9.14,26.14-13.58,7.55-3.82,14.76-8.32,22.33-12.13,6.07-3.06,12.21-6,18.29-9,1.79-.89,3.53-1.87,5.24-2.91,1.45-.89,1.38-1,.35-2.3a36.43,36.43,0,0,1-6.21-12.34c-2.3-7.51-3.38-15.29-4.88-23a3.2,3.2,0,0,1,0-1.89,1.3,1.3,0,0,1,1.55-.82c.68.13,1.32.46,1.27,1.21-.28,4.86,1.25,9.45,2.1,14.14,1.14,6.3,2.71,12.5,5.93,18.15a13,13,0,0,0,1.89,2.75,4.54,4.54,0,0,0,7.67-1.45,5.48,5.48,0,0,0,.5-1.84c.22-3.67.5-7.36-.56-11a97.22,97.22,0,0,0-8.57-21.05,46.81,46.81,0,0,0-3.26-4.74,4,4,0,0,0-4.46-1.49c-.31.07-.61.2-.91.3-3.73,1.29-3.74,1.29-3.72,5.26q0,7,.07,13.91c0,1.79-.41,2.68-1.28,2.77s-1.22-.59-1.24-2.66c0-4.4,0-8.8-.06-13.2,0-.79,0-1.58,0-2.21-.34-.36-.58-.4-.79-.28a45.4,45.4,0,0,0-6.3,3.92c-1,.8-1.88,1.75-3.4,1.13-.67-.27-1.16.45-1.63.83a69,69,0,0,0-7.33,6.55c-4.6,4.94-10,9-15.31,13.07a49.06,49.06,0,0,1-7.25,4.2c-4.49,2.37-8.42,5.53-12.39,8.62-3.1,2.41-6.12,4.89-9.71,6.56a5.25,5.25,0,0,0-2.19,1.78c-.92,1.3-1.51,1.34-2.73.27a14,14,0,0,1-3.63-4.41,67.83,67.83,0,0,0-10.17-14.75c-1.91-2.24-3.82-4.47-5.61-6.81a24.75,24.75,0,0,0-5.19-4.6,4.73,4.73,0,0,0-5.79.33,22,22,0,0,0-4.32,5.41,4.14,4.14,0,0,0-.29,2.78c.21,1.68-.29,2.72-1.14,2.83s-1.8-.72-2.14-2.22a20.7,20.7,0,0,1-.64-4.51,166.72,166.72,0,0,1,1.23-19.59c.8-7.06,1.85-14.1,1.85-21.25,0-3.51.33-7,.22-10.54-.21-7-.76-14-.79-21.06,0-8.06-1.94-15.86-2.59-23.82,0-.16,0-.32-.06-.48-1-4.1-2.41-8.12-2.55-12.4-1-.07-1,.65-1.28,1a20.85,20.85,0,0,1-5.31,5.49,9,9,0,0,1-13-2.54c-.26-.4-.44-1-.81-1.16-2.09-1-1.76-2.81-1.67-4.56,0-.24,0-.58.09-.7,2-1.83,1.64-4.77,3.2-6.81q3.72-4.85,7.43-9.7a4.76,4.76,0,0,1,1.5-1.17c1.55-.92,1.71-1.07.7-2.56-2.84-4.21-6-8.09-11-9.9a15.69,15.69,0,0,1-4.57-2.6,13.4,13.4,0,0,0-7.77-2.72,35.07,35.07,0,0,0-12.11,1.3,23.17,23.17,0,0,0-11.77,7.5,2.57,2.57,0,0,0-.75,1.71c.24.6.83.36,1.24.52s1,.55.87,1c-.38,1.29,0,2.66-.77,3.92-1.2,2.07-1.6,4.19.52,6a1.14,1.14,0,0,1,.27,1.52,1.29,1.29,0,0,1-1.65.61,6.31,6.31,0,0,1-1-.59,8.16,8.16,0,0,1-1.42-5.2,9.46,9.46,0,0,1,1.16-3.61c.18-.34.35-.79-.11-1a1.12,1.12,0,0,0-1.15.12,2.41,2.41,0,0,0-.82,2.14,21.23,21.23,0,0,1,0,3.82c-.39,2.08.5,3.15,2.31,3.77a2.83,2.83,0,0,0,.26.67,16.15,16.15,0,0,1,3.28,11.94,3.83,3.83,0,0,0,1.08,3.27c1.26,1.31.7,2.65-1.14,2.74a5.37,5.37,0,0,0-3,1.25c-3.13,2.13-6.41,3.89-10.4,3.74-2.4-.09-2.53.18-2.62,2.6-.17,5-.73,10-1.19,15,0,.64-.14,1.28-.13,1.91.2,8.32-.57,16.62-.6,24.94,0,5-.71,10-1.1,15.05,0,.4-.13.79-.15,1.19-.64,12.53-1.41,25.06-1,37.62a3.41,3.41,0,0,0,1,2.81,1.89,1.89,0,0,1,.72,1.47,1.65,1.65,0,0,1-1,1.73c-.74.3-1.2-.07-1.61-.64s-.77-1-1.18-1.5c-1.28-1.48-2.45-1.88-4.19-1.15-1.36.57-2.9,1-3.55,2.61-.32.78-1.17,1.11-1.8,1.54a5.38,5.38,0,0,0-2.26,3.78c-.16.86-.35,1.72-.57,2.57a1,1,0,0,1-2-.14,9.66,9.66,0,0,1,0-2.15,10.65,10.65,0,0,1,1-3.68c1.36-2.54.51-4.65-1.16-6.57-2-2.35-4.16-4.64-6.29-6.92-9.47-10.09-18.83-20.27-27.07-31.42s-16-22.35-23.11-34.16c-4.23-7.07-8.41-14.16-12.62-21.24-1.73-2.9-2.75-6.12-4.2-9.15-.2-.43-.25-.94-.71-1.23-.6.12-.62.69-.79,1.09a54.75,54.75,0,0,1-14.8,20.38,106.35,106.35,0,0,1-19,13.7c-1.31.73-1.32.84-.36,1.88,5.69,6.18,11.56,12.16,17.67,17.94a124.15,124.15,0,0,1,11.58,12.46c4.71,5.87,9.8,11.39,15,16.86,8.92,9.42,18.67,17.94,28.25,26.65a106.35,106.35,0,0,0,15.18,10.91c3,1.87,5.92,3.8,8.8,5.82a25.61,25.61,0,0,1,6,5.48,3,3,0,0,0,2.56,1.52c1,0,1.34.73,1.36,1.62a30.69,30.69,0,0,1-.24,5.74c-.74,4.74-1.92,9.39-3,14.07a46.47,46.47,0,0,0-1.12,7.34c-.09,1.27-.43,2.52-.57,3.79-1,8.59-3.36,16.92-4.59,25.46-1,7.12-2.65,14.13-4.33,21.12a6.39,6.39,0,0,1-.31,1.16,1.3,1.3,0,0,1-2.3.44c-.8-.78-1.49-1.66-2.23-2.5-3.07-3.5-6.86-6.22-10.27-9.35-2.32-2.13-5.12-2-7.94-1.52a2.8,2.8,0,0,0-2.35,2.69c-.81,6.82-2.36,13.55-2.18,20.48q.17,6,0,12a103.47,103.47,0,0,0,1.8,20c1.54,9.14,3.24,18.26,5.35,27.29a183.34,183.34,0,0,0,6.16,20.43c2.09,5.79,4.12,11.6,6.32,17.35a110.89,110.89,0,0,0,7.18,14.89,80.33,80.33,0,0,1,5.79,11.82c.17.44.38.88.58,1.32.38.87.75,1.4,2,1,1.38-.46,1.87.09,1.76,1.58,0,.62-.43,1.34.4,1.64a4.2,4.2,0,0,0,2.6,0c.44-.14.44-.62.39-1-.13-1.11-.29-2.22-.4-3.33-.07-.77.08-1.52,1-1.65s1.35.59,1.48,1.46c.18,1.18.35,2.37.59,3.54a1.87,1.87,0,0,0,1.8,1.65c3.19.18,6.35.81,9.8.4-.91-1.34-1.55-2.67-3-3.37a1.42,1.42,0,0,1-.58-2.22,1.45,1.45,0,0,1,2.29-.2,8.19,8.19,0,0,1,1.24,1.44c.73.94,1.3,2,2.71,2.15s.94,1.23.77,2.25c2.2-.07,4.29-.15,6.18-1.45.74-.51.93-1,.54-1.78a9,9,0,0,1-.69-1.78c-.17-.75,0-1.49.84-1.74s1.17.31,1.44.94c.13.3.2.61.32.91,1,2.47,2,3,4.65,2.58a3.56,3.56,0,0,0,.47-.1c3.51-1.25,4-.74,2.12-4.6a72.38,72.38,0,0,1-3.83-9.8,104.54,104.54,0,0,0-6.43-16,72.82,72.82,0,0,1-5.25-14.13,74.88,74.88,0,0,0-5.1-13.18c-2.63-5.23-4.61-10.72-6.8-16.13-1-2.6-2.21-5.14-3.51-7.62a103.21,103.21,0,0,1-7.79-19.31c-.4-1.38-1-2.7-1.52-4a8.46,8.46,0,0,1-.48-1.36,1.18,1.18,0,0,1,.76-1.55,1.09,1.09,0,0,1,1.34.73c.37.8.72,1.6,1.06,2.41.41,1,.82,1.94,2.13,2a1.46,1.46,0,0,1,.89.31c2.8,2.58,6.37,2.64,9.84,3a25.55,25.55,0,0,1,7.17,1.88c2.42,1,4.86,2,7.24,3.16a35.89,35.89,0,0,0,6.91,2.7,4.41,4.41,0,0,1,1.34.5c3.82,2.39,8.14,3.16,12.46,3.86,1.39.23,2.67,1.05,4.36.9-.7-2.6-1.27-5.08-2-7.48-1.88-5.84-1.72-11.83-1.46-17.83.06-1.2.16-2.39.21-3.59a10,10,0,0,1,.27-2.37c.58-2,1.41-2.64,3.44-2.65a8.19,8.19,0,0,1,3,.59,120,120,0,0,1,12.7,5.65,11.91,11.91,0,0,1,3.41,2.62c.41.47.61,1,.21,1.51a1.15,1.15,0,0,1-1.52.29,5.85,5.85,0,0,1-1-.64c-4.59-3.5-10-5.3-15.31-7.27-1.91-.7-2.57-.07-2.72,2-.31,4.23-.41,8.46-.36,12.7a25,25,0,0,0,.76,5.45c.78,3.18,1.68,6.34,2.56,9.49.37,1.3.72,2.59,2.12,3.3a1.94,1.94,0,0,1,.68,2.57,3.88,3.88,0,0,0,.31,3,207.83,207.83,0,0,0,13.87,26.54c.8,1.32,3,1.25,2.82,3.22-.16,1.64,1,2.66,1.68,3.86,3.54,5.81,7.39,11.4,11.2,17,4.29,6.36,8.44,12.83,12.22,19.51,1.66,2.94,4.52,4.43,7,6.4.68.54,1.18.19,1.45-.56s.64-1.41,1.54-1.11.92,1.12.82,1.83c-.33,2.07.82,3.26,2.35,4.32s3.06,2.25,4.52,3.32c.77-.46.47-1.15.79-1.6a1.24,1.24,0,0,1,1.19-.65,1.17,1.17,0,0,1,1.11,1.08,3.36,3.36,0,0,1,0,.95,4.38,4.38,0,0,0,1.44,4.1h-3.84a97.52,97.52,0,0,0-8.43-6.28c-2.22-1.48-4.36-3.2-6.47-4.91-.43-.35-.86-.93-1.33-1-2.27-.2-2.75-2-3.62-3.61-3.13-5.67-6.58-11.16-10.16-16.56-5.11-7.74-10.43-15.35-15.25-23.27a5.07,5.07,0,0,0-3.89-2.73,53.78,53.78,0,0,1-7.13-2,6.31,6.31,0,0,1-2.11-1.12c-3.3-2.56-7.24-4.4-9.36-8.29-6.32-6.31-10.09-14.1-13-22.41-.42-1.21-.83-2.42-1.13-3.66a3.41,3.41,0,0,0-2.67-2.75c-4.29-1.1-8.11-3.36-12.14-5.08a31.69,31.69,0,0,0-10.62-2.71c-2.34-.15-4.51-1-6.78-1.46-.38-.07-.74-.31-1.18-.16-.5.49-.22,1,0,1.54a71.8,71.8,0,0,0,4.43,10.87c4.2,7.76,7.12,16.08,10.56,24.16,1,2.35,2.11,4.66,3.25,6.95a45.5,45.5,0,0,1,3.28,8.75,109.46,109.46,0,0,0,7.24,19,93.82,93.82,0,0,1,5.53,14.81c.91,3.28,2.79,6.1,4,9.23a1.06,1.06,0,0,0,1.54.67c.22-.09.46-.13.69-.21.92-.31,1.81-.4,2.13.76a1.36,1.36,0,0,1-1.28,1.88c-1,.13-1.18.78-1.44,1.61-.41,1.31-.94,1.43-2.13.75a3.83,3.83,0,0,0-4.92,1.26c-.94,1.36-1.31,1.63-2.7.85a5.27,5.27,0,0,0-4.55-.19,23,23,0,0,1-7.1,1,67.06,67.06,0,0,1-9.82-.29,3.93,3.93,0,0,0-1.67,0,5.34,5.34,0,0,1-5-.67,4.1,4.1,0,0,0-2.6-.25c-3.23.31-5.18-1.09-6.52-4.05-1.58-3.49-2.93-7.09-4.82-10.44-1.45-2.57-2.79-5.21-4.23-7.79-4.63-8.29-7.42-17.33-10.76-26.15-5.56-14.73-9-30-11.63-45.46-1-5.84-1.93-11.67-2.54-17.56-.18-1.76-.27-3.51-.28-5.27,0-3.76.07-7.52,0-11.27a101.7,101.7,0,0,1,1.71-20.76c.26-1.41.37-2.85.63-4.27a5.2,5.2,0,0,1,4.61-4.52c3.93-.67,7.49,0,10.42,2.88s6.6,5.33,9.43,8.52c.88,1,1.36.81,1.65-.61,1.54-7.43,3.37-14.81,4.16-22.38a41.37,41.37,0,0,1,1.17-5.63,179.28,179.28,0,0,0,3.34-20.08,119.91,119.91,0,0,1,3-14.31c.55-2.18.71-4.42,1.19-6.61.52-2.38-1.17-3.88-2.32-5.48a29.82,29.82,0,0,0-7.93-7.25q-6.3-4.17-12.67-8.23a97.42,97.42,0,0,1-12.36-9.49c-6.63-5.89-13.2-11.87-19.53-18.08a279.22,279.22,0,0,1-20.7-22.66c-2.54-3.1-5.31-6-8-8.89-5.26-5.6-11.08-10.63-16.29-16.27-1.84-2-3.7-4-5.55-6a5.33,5.33,0,0,0-3.23-1.88c-1.62-.24-2-1-1.5-2.54a30.1,30.1,0,0,1,1.9-4.4c3.25-6,6.14-12.13,10.2-17.62a2.62,2.62,0,0,0,.4-.6,34.28,34.28,0,0,1,9-12.37c4.34-3.7,9.28-6.52,14.11-9.48a7.69,7.69,0,0,1,4.86-1c1.61.16,2,.62,2.18,2.28a1.93,1.93,0,0,1,0,.48c-.76,3.8,1.14,7,2.44,10.29,3,7.72,7.67,14.56,11.84,21.65,3.93,6.68,8.13,13.21,12.3,19.75,3.71,5.79,7.77,11.35,11.83,16.9,5,6.84,10.15,13.57,15.79,19.91,2.55,2.87,5.21,5.64,7.8,8.47,3.62,4,7.21,7.92,10.83,11.87.75.82,1.45,1.77,2.73,1.75s1.8.75,2.27,1.77c.71,1.54.81,1.59,2.3.76s3.21-1.76,5.16-1.61c1,.07,1.43-.57,1.46-1.52,0-.4,0-.8,0-1.2,0-7-.23-13.92.38-20.85.56-6.29.39-12.61,1.25-18.89a97.92,97.92,0,0,0,.69-13.16c0-7.76.62-15.49.65-23.25,0-4.46.79-8.91,1.13-13.37.16-2.07.09-4.15.13-6.23a2.53,2.53,0,0,0-.67-1.75,6,6,0,0,1-1.22-4,54.7,54.7,0,0,1,.72-9.31,4.77,4.77,0,0,0-2.92-5.32c-.92-.36-1.33-1-1.13-1.82a12.38,12.38,0,0,0,0-5.45,2.16,2.16,0,0,1,.16-1.17,1.34,1.34,0,0,1,1.49-.94c.73.07,1.31.5,1.23,1.21-.14,1.39.65,2.44,1,3.64.3.94.81,1.32,1.78.66a8.41,8.41,0,0,1,5.06-1.14c1,0,2.14.22,2.65-1.08a2.24,2.24,0,0,0-.46-2.8c-.89-.87-.21-1.66.73-2a3.28,3.28,0,0,0,2.19-2.61l0,0c1.35-1.87,1.12-4.11,1.42-6.22.12-.79.08-1.6.2-2.39s.38-1.27,1.2-1.22c.67,0,.9.55,1,1.13s-.17,1.29.45,1.82a1.81,1.81,0,0,0,.61-.29c2.91-3,6.59-4.78,10.32-6.41,3-1.29,6.22-1.41,9.37-1.85a29.9,29.9,0,0,1,5.27,0,13.78,13.78,0,0,1,8,2.72,19.22,19.22,0,0,0,5.65,3.1,15.08,15.08,0,0,1,5.74,3.82c2.85,2.83,5.61,5.7,7.09,9.55a6.57,6.57,0,0,0,.85,1.44c2.24,3.08,2.92,3.24,6.31,1.57,1.08-.52,2.16-1.05,3.27-1.5,1.6-.64,3.23-1.06,4.73.25.56.49,1.22.24,1.84.31s1.25.44,1.29,1.18-.49,1.14-1.19,1.27a32,32,0,0,0-8.62,2.86c-1.6.82-1.64.82-1.19,2.46a6.33,6.33,0,0,1,.21,2.62c-.46,3.15.24,6.2.62,9.29a50,50,0,0,0,2,9.36,34.45,34.45,0,0,1,1,5.67c.62,4.27,1.3,8.53,1.77,12.82a140.53,140.53,0,0,1,.53,16.29,49.68,49.68,0,0,0,.5,6.68,76.84,76.84,0,0,1,.16,13.9c-.21,3.74-.22,7.5-.57,11.25-.51,5.41-1.35,10.79-1.81,16.2a120,120,0,0,0-.81,13.39,1.43,1.43,0,0,0,.46,1.28c.93-1.14,1.84-2.3,2.81-3.41a7.28,7.28,0,0,1,8.44-2.29,6.91,6.91,0,0,1,2.09,1.16,28.2,28.2,0,0,1,7.06,7.43,3.65,3.65,0,0,0,.55.78c4.54,4,7.54,9.28,11.21,14a19.62,19.62,0,0,0,2.17,2.55,2.71,2.71,0,0,1,1.08,2.47c-.17,1.73,1,2.31,2.6,1.64,5.18-2.15,9.36-5.8,13.67-9.21a94.27,94.27,0,0,1,14.13-9,38.26,38.26,0,0,0,5.91-4.07c4.89-3.88,9.47-8.09,14-12.41a123.51,123.51,0,0,1,15.77-12.87,1.63,1.63,0,0,1,2.19,0c1,.94,1.32.17,1.65-.65,1.47-3.58,3.15-4.45,6.88-3.43a13,13,0,0,1,7,5.15c4.09,5.53,6.77,11.76,9.08,18.17.65,1.81,1.16,3.67,1.85,5.46,1.63,4.22,1.67,8.62,1.4,13-.18,2.89-1.21,5.47-3.91,7a4.46,4.46,0,0,1-2.47.83,5.74,5.74,0,0,0-3.35,1.1c-7.52,4.6-15.58,8.14-23.43,12.11-5,2.52-10,4.93-14.84,7.83-5.35,3.22-10.9,6.06-16.51,8.8-5.46,2.67-10.7,5.76-16,8.72a50.45,50.45,0,0,1-11.81,5.08,8.44,8.44,0,0,0-2.33,1.15c-1.58,1-3.07,1-4.14-.29-5.12-5.92-10.53-11.64-13.72-19-1-2.39-1.93-4.85-3.08-7.77,0,6.9.28,13.27.75,19.64.27,3.66.47,7.33.62,11a122.73,122.73,0,0,0,1.8,19.3c1,4.85,1.2,9.85,2.12,14.71,1.57,8.25,2.41,16.61,4,24.85a57.13,57.13,0,0,1,.6,5.72c.32,3.08,1.23,4.21,4.28,5a33.66,33.66,0,0,0,14.51.21,54,54,0,0,0,6.71-1.8c6.84-2.22,13.74-4.27,20.54-6.65a143.63,143.63,0,0,0,34.31-16.93c3.69-2.53,7.46-5,11.23-7.36,6.13-3.9,11.34-8.85,16.69-13.64a16.18,16.18,0,0,1,2.88-2.14,1.41,1.41,0,0,1,1.78.13c.58.57.37,1.17-.06,1.71-3.32,4.2-5.37,9-7.24,14-2,5.42-5.17,10.27-8,15.26-.47.81-.9,1.64-1.5,2.74,1.69-.6,2.29-2.11,4-2.87a12.68,12.68,0,0,1-2.7,5.16q-4.45,5.49-9,10.87a46.4,46.4,0,0,1-6.76,6.46,251.5,251.5,0,0,0-20.69,17.48c-5.06,4.91-11.06,8.69-16.66,12.95-1.46,1.12-3,2.19-4.32,3.43a53.55,53.55,0,0,1-17.15,10.36,170.85,170.85,0,0,0-15.6,7.39,21.28,21.28,0,0,1-5.38,2c-3,.63-6.07,1.39-9.1,2.12-2.35.56-4.78.21-7.18.2-1.68,0-3.35-.13-5-.12-2.5,0-2.7.4-1.36,2.59s2.72,4.34,4.1,6.49a270.54,270.54,0,0,1,24.19,46.28,5.49,5.49,0,0,1,.74,2.74Zm-45.81-90.72c0,.44-.07.53,0,.6a149,149,0,0,0,14.08,26.14c1.49,2.15,3.39,3.75,6.39,3.4a36.27,36.27,0,0,1,5.51.09c3.45.14,6.88.17,10.17-1.14a8.31,8.31,0,0,1,1.87-.41,30.19,30.19,0,0,0,9.11-2.85,190.63,190.63,0,0,1,18-8.4,35.31,35.31,0,0,0,9.7-5.67l3.86-3.23c7.56-6.27,16-11.37,23-18.38a145,145,0,0,1,16.45-13.6c1.34-1,2.58-2.14,3.86-3.23.49-.41,1.06-.83,1.13-1.5a5.19,5.19,0,0,1,2-3.16c1-1,1.78-2,2.66-3.08,4.18-4.93,6.48-11,9.77-16.41a3.38,3.38,0,0,0,.18-.44,68.88,68.88,0,0,1,5.63-11.1,26.42,26.42,0,0,0,2.86-6.57c-.8,0-1.07.59-1.47.94-2,1.65-3.78,3.47-5.85,5-6.42,4.63-13.06,8.93-19.75,13.16-2.91,1.84-5.78,3.75-8.81,5.36a159.66,159.66,0,0,1-20.57,9.19c-7.22,2.63-14.54,4.94-21.88,7.17a71.21,71.21,0,0,1-9.94,2.7,33.26,33.26,0,0,1-16.56-1.19,6,6,0,0,0-.88-.18c-.12.22-.26.37-.25.49.54,5,0,10.08.34,15.1.33,5.77-.91,11.32-2.08,16.84-.9,4.2-5,9-10.8,7.3a18.78,18.78,0,0,0-7.35-.74,11.21,11.21,0,0,1-9.49-3.72C1835.59,2012,1831.55,2009.9,1827.87,2006.88Zm-157.8-279.27c0-.95-.45-1.29-1.37-1.1a7.63,7.63,0,0,0-2.64,1.08c-.94.62-1.91,1.17-2.87,1.75a63.32,63.32,0,0,0-11,8c-.81.78-1.76,1.45-1,2.83.28.53,0,1.06-.53,1.45-3.35,2.55-5.69,6-8,9.44a127.16,127.16,0,0,0-8.33,14.81c-.38.75-1.27,1.65-.6,2.39.85.92,1.78-.11,2.54-.53a97.51,97.51,0,0,0,22.63-17.58,41.21,41.21,0,0,0,5.15-6.6c1.56-2.43,2.75-5,4.14-7.56s.26-5.52,2-7.88C1670.11,1728,1670.06,1727.77,1670.07,1727.61Zm153.54-1.64c-1.33.67-2.26,1.1-3.15,1.62-2.65,1.52-3.13,4.17-1.23,6.6a6.94,6.94,0,0,0,9.31,1.07,21.87,21.87,0,0,0,4.46-4.65,7.94,7.94,0,0,0,.84-9.14c-.41-.83-.87-1.1-1.67-.66a11.65,11.65,0,0,0-1.44.86c-1.28.94-1.38,1.38-.42,2.74a3.07,3.07,0,0,1,.7,2c-.09,2.29-2.8,5.15-5.1,5.36-1.73.17-2.53-.5-2.57-2.31C1823.32,1728.42,1823.49,1727.4,1823.61,1726Zm-43.7,1.15a13,13,0,0,0-2.31-7.51,7.09,7.09,0,0,0-2-2c-1.38-.9-2.33-.67-3.13.76-.61,1.11-1.11,2.29-1.77,3.37a1.64,1.64,0,0,0,.57,2.59c2,1.32,3.92,2.72,5.91,4,.7.46,1.38,1.46,2.25,1.05S1779.72,1727.81,1779.91,1727.12Zm39-2.09a.84.84,0,0,0,1-.13c3.63-2.87,7.18-5.83,11.08-8.33a1,1,0,0,0,.49-1c-.21-1.39-2.2-3-3.48-2.71s-3,2.76-2.75,4c.43,1.71.45,1.8-1.18,2.18-2.24.53-2.71,2.82-4.24,4A2.09,2.09,0,0,0,1818.87,1725Zm-49,12.53c2,.18,3.72-.82,5.43-1.67.91-.44,2.34-.72,2.31-1.82s-1.53-1.43-2.45-2-1.79-.45-2.73.4c-1.39,1.26-2.65,2.84-4.79,3-.55,0-.79.51-.78,1a.94.94,0,0,0,.86,1C1768.4,1737.52,1769.12,1737.53,1769.84,1737.56Zm20,288.56c.18-1.61.55-2.87-1.34-3.26-.66-.13-.76-.95-.79-1.6s0-1.43,0-2.14c0-.48,0-1.13-.56-1.19-2.12-.22-2.5-1.86-3-3.53-.41,1.1-1.75,1.88-1.06,3.2C1784.72,2020.76,1786.52,2023.83,1789.85,2026.12Zm2.42-10.12c0,2.68,0,5.37,0,8,0,.46,0,1.06.64,1,.5,0,.53-.53.53-.92A26.63,26.63,0,0,0,1792.27,2016Zm-5.1-2.67c.83-3,.65-7.54-.35-8.87C1786.3,2007.42,1787,2010.37,1787.17,2013.33Zm-22.83-279.1c2.11-5.85,2.17-6.55.6-8A27.47,27.47,0,0,0,1764.34,1734.23Zm29.4,294.23c-.14,2.28,0,2.55,2.32,3.37C1796.54,2029.81,1794.65,2029.47,1793.74,2028.46Zm-11-25.11a5.14,5.14,0,0,0,0,3.43C1784.6,2005.49,1784.6,2005.16,1782.77,2003.35Z" transform="translate(-1576.57 -1547.16)"/><path d="M1830.17,1602.58a10,10,0,0,0,2.12-2.16,86.42,86.42,0,0,1,14.59-13.82,12.47,12.47,0,0,1,8.53-2.6,6.58,6.58,0,0,1,2.76.69,1.14,1.14,0,0,1,.7,1.37,1.1,1.1,0,0,1-1.32.77l-.23,0c-4.44-1.16-8,.6-11.2,3.41a101.16,101.16,0,0,0-14.8,15.32,20.22,20.22,0,0,0-2.49,4.1c-.53,1.24-.21,1.85,1.15,2a34.9,34.9,0,0,0,6.7-.08c6.14-.7,12,.14,17.19,3.71.72.49,1.4,1.06,2.08,1.62,4.2,3.51,4.34,9.62,2.2,13.37-3.34,5.87-7.7,10.8-14.07,13.59-7.17,3.14-14.69,3.54-22.34,2.78a8.53,8.53,0,0,1-3.59-1.29c-2.15-1.3-2.13-3.64,0-5,3-1.83,6.25-1.8,9.54-1.51,1.19.1,1.73.85,1.49,1.72s-1,1.13-1.89.93a12.75,12.75,0,0,0-5.7.06c-.81.2-2.08.31-2,1.31s1.31,1,2.13,1.16a25.54,25.54,0,0,0,7.65.33,43.91,43.91,0,0,0,11.77-1.94c5.05-1.66,8.59-5.1,11.94-8.91.53-.6.92-1.31,1.45-1.91,2.33-2.62,2.56-5.76,2.27-9a4.81,4.81,0,0,0-1.4-2.72,17.2,17.2,0,0,0-12.67-5.92c-3.75-.14-7.52,0-11.28,0a10.47,10.47,0,0,1-2.86-.16c-1.46-.42-2.19.1-2.82,1.38-4.64,9.34-11.49,16.84-19.45,23.44a71.79,71.79,0,0,1-11.93,8,21.19,21.19,0,0,1-16.24,1.9,16.41,16.41,0,0,1-9-6,21.33,21.33,0,0,1-4.62-13.32,59.74,59.74,0,0,1,4.84-22.34,80.8,80.8,0,0,1,13.45-22.28,28.24,28.24,0,0,1,12.57-8.81,46.64,46.64,0,0,1,15.72-2.79c12.51.19,19.24,10.37,19.45,19.68a44.49,44.49,0,0,1-.36,7.9A15.84,15.84,0,0,0,1830.17,1602.58Zm-34.65-24.21c-.11.66.27.88.53,1.17a1.2,1.2,0,0,1,0,1.73,1.31,1.31,0,0,1-1.92.21c-.27-.17-.52-.37-.79-.54-1.91-1.26-2-1.31-3.69.22a58.58,58.58,0,0,0-7.67,8.23,73.56,73.56,0,0,0-9.48,16c-3.58,8.41-6.08,17-5.32,26.27a16.15,16.15,0,0,0,8.48,13.13c4.49,2.62,9.43,2.6,14.16,1,6.11-2.1,11.3-5.88,16.09-10.18,1.13-1,2.24-2.05,3.37-3.06a63.71,63.71,0,0,0,13-15.91,44.27,44.27,0,0,0,5.81-23.19,19.79,19.79,0,0,0-2.72-10c-1.94-3.23-4.5-5.83-8.23-6.94a34.42,34.42,0,0,0-21.61,1.88Z" transform="translate(-1576.57 -1547.16)"/><path d="M1635.72,1585c4.73,1.2,7.6,4.88,10.76,8.09,6.92,7,14.26,13.55,21.15,20.57a85.46,85.46,0,0,1,9.1,10.19,8.92,8.92,0,0,1,1.56,3c.37,1.5-.24,2.3-1.76,2.44a4.32,4.32,0,0,1-3.65-1.46,17,17,0,0,1-3.35-5.22c-.19-.44-.5-1-.22-1.37.94-1.38,0-2.14-.82-3-6-6.23-12.34-12.08-18.54-18.09-3.22-3.11-6.36-6.3-9.55-9.45a10.22,10.22,0,0,0-4.58-2.93c-1.9-.48-2.07-.48-2.49,1.4-.7,3.12-1.35,6.25-1.9,9.4-.91,5.19-1.72,10.41-2.6,15.61a22.59,22.59,0,0,0-.33,3.58,137.69,137.69,0,0,1-1.63,18.13c-.21,1.36-.18,2.71-.28,4.07,0,.66-.19,1.32-1,1.42-1,.11-1.26-.61-1.35-1.35a15.31,15.31,0,0,1-.1-2.87c.5-7.18,1.13-14.34,2-21.49a51.51,51.51,0,0,0,.21-5.26,212,212,0,0,1,2.13-26.76,110.29,110.29,0,0,1,5.52-23,63.34,63.34,0,0,1,5.65-10.83,11.22,11.22,0,0,1,1.66-2c.78-.76,1.6-.57,2.13.4a.68.68,0,0,1,.09.22c.1,2.7,2,2.61,3.94,2.61,4.72,0,9.44-.13,14.16,0a102,102,0,0,1,20.45,2.34,20.62,20.62,0,0,1,2.72.9,1.4,1.4,0,0,1,1,1.48,1.33,1.33,0,0,1-1,1.2c-6.87,1.58-11.7,6.77-17.6,10.06-6.77,3.77-13.52,7.6-20.29,11.37l-10.07,5.57A2,2,0,0,0,1635.72,1585Zm-.14-3.33c15.05-8.33,30.37-16.1,44.49-26.25a5.73,5.73,0,0,0-1-.4,129.63,129.63,0,0,0-17.14-1.64h-14.62a11.42,11.42,0,0,1-4-.6c-.7-.27-1.23-1.25-2.12-.72-.7.42-1,1.25-1.38,1.93a2.84,2.84,0,0,0-.53,2.26,1.29,1.29,0,0,1-.27,1.35c-1,.94-.9,2.18-.84,3.35a45,45,0,0,1-1.56,14c-.37,1.39-.71,2.79-1,4.18A3.06,3.06,0,0,0,1635.58,1581.66Zm-5.26,7.49h.49c1.55-6.93,3.12-13.86,4.63-20.81a5.69,5.69,0,0,0-.31-3.77A135.57,135.57,0,0,0,1630.32,1589.15Z" transform="translate(-1576.57 -1547.16)"/><path d="M1888.28,1658.94c0-.52.14-.74.07-.81-1.82-1.9-1.57-4-.72-6.23a29.66,29.66,0,0,0,1.7-8.43c.39-5,1.11-10,1.75-15,.25-1.92.09-2.26-1.78-2.09-4.7.43-9.43.13-14.11.82a3,3,0,0,0-2.58,1.45c-3.35,6.5-8.19,12-12.1,18.14a27.32,27.32,0,0,0-3.24,6.92,6.51,6.51,0,0,1-.64,1.54,1.29,1.29,0,0,1-1.85.55c-.68-.37-.72-1-.45-1.65a58.26,58.26,0,0,1,6.08-11.66c2.75-3.92,5.88-7.59,8.18-11.82.2-.35.57-.67.6-1,.3-3.68,3.74-5.56,5-8.73s2.89-6.41,4.4-9.59,3-6.2,4.49-9.28a56.38,56.38,0,0,1,6.14-9.71,16,16,0,0,1,4.58-4.18c1.81-1,2.69-.58,2.88,1.47a11,11,0,0,1-.27,4,21,21,0,0,0-.61,6,112.16,112.16,0,0,1-1.23,21,1.87,1.87,0,0,0,0,.47c0,1-.52,2.18,1,2.52,1.79.39,3,0,3.57-1.49,3.17-8,6.9-15.82,9.68-24a24.26,24.26,0,0,0,1.26-6.09c.06-.76.25-1.51,1.2-1.48s1.18.8,1.24,1.52a9.59,9.59,0,0,1-.19,2.13,50.39,50.39,0,0,1-3.66,11.4c-3.07,7.2-5.92,14.5-9,21.68-2.84,6.54-5.19,13.25-7.82,19.86a14.94,14.94,0,0,0-.71,6.15c0,1.44.35,1.7,1.83,1.27a95.76,95.76,0,0,1,12-2.47c5.61-.89,11.25-1.59,16.77-2.93,1.83-.44,3.76-.63,5-2.41.57-.81,3-.48,3.75.3a1.09,1.09,0,0,1-.1,1.69,6.09,6.09,0,0,1-2.15,1c-5.57,2.1-11.43,2.94-17.26,3.92s-11.73,1.54-17.42,3.29c-2.37.73-2.41.67-2.44,3.06,0,1.36,0,2.72,0,4.08a7.66,7.66,0,0,1-.15,1.66,1.1,1.1,0,0,1-1,.9,1,1,0,0,1-1.13-.7,34.54,34.54,0,0,0-4.42-8.2,1,1,0,0,1,.19-1.51,1.29,1.29,0,0,1,1.9.28C1887,1657.25,1887.16,1658.32,1888.28,1658.94Zm5.57-67.68a6.88,6.88,0,0,0-1.95,1.65,50.59,50.59,0,0,0-5.09,7.23c-2.57,4.15-4.28,8.73-6.49,13.06-1.64,3.19-3,6.51-4.5,9.78-.64,1.41-.39,1.82,1.13,1.58,3.88-.59,7.81-.23,11.7-.67,3.09-.36,3.11-.21,3.51-3.24,0-.16,0-.32,0-.47a130.5,130.5,0,0,0,1-20,21.6,21.6,0,0,1,.72-6.88A2.1,2.1,0,0,0,1893.85,1591.26Zm-1.41,46,.45.08c1.16-2.88,2.34-5.76,3.49-8.65.23-.6.93-1.38-.15-1.78a1.79,1.79,0,0,0-2.32.69,2.41,2.41,0,0,0-.31.9C1893.2,1631.38,1892.83,1634.3,1892.44,1637.22Z" transform="translate(-1576.57 -1547.16)"/><path d="M1581.22,1597.15c0-10.48,0-21,0-31.44a13.81,13.81,0,0,1,.54-4c.19-.65.57-1.2,1.34-1.15a1.15,1.15,0,0,1,1.08,1.11c.16,1.47,1.15,1.35,2.11,1.12,3-.72,6.13-1.13,9.19-1.68a137.83,137.83,0,0,1,28.17-2.19,7.78,7.78,0,0,1,3.68.95c1.93,1.09,2.2,2.63.7,4.31a15.91,15.91,0,0,1-3.62,2.74c-7,4.31-14.18,8.36-20.7,13.45-4.1,3.2-8,6.67-11.86,10.11a10.68,10.68,0,0,0-2.43,3,3.29,3.29,0,0,1-1,1.31,1.67,1.67,0,0,1-2,0c-.71-.54-.57-1.24-.17-1.93a10.56,10.56,0,0,1,2.16-2.55c8.66-7.86,17.6-15.36,27.79-21.19,2.85-1.63,5.62-3.38,8.38-5.15.62-.4,1.66-.81,1.42-1.71s-1.34-.71-2.09-.74a125.36,125.36,0,0,0-18.68.71,188.83,188.83,0,0,0-18.91,3.17c-2.3.5-2.5.65-2.5,3,0,17.2-.27,34.4.24,51.59a160.94,160.94,0,0,0,1.89,17.63,68.22,68.22,0,0,1,.19,9.59,3.86,3.86,0,0,1-.16.94c-.14.58-.44,1.09-1.09,1.1s-1.12-.59-1.15-1.28c-.21-5.52-1.43-10.93-1.93-16.42-.65-7.32-1.53-14.63-2-22-.47-6.86-1.44-13.67-1.87-20.53-.3-4.8-.46-9.58-.49-14.38a18.58,18.58,0,0,0-.69-4.25c-.17-.66-.18-1.32.56-1.64s1.33.18,1.75.81a4.15,4.15,0,0,1,.6,2.28c.11,3.68.19,7.35.4,11,.27,4.78.65,9.56,1,14.33Z" transform="translate(-1576.57 -1547.16)"/><path d="M1718.55,1641.66c.26-2,.57-4,.93-6,2-11.41,3.76-22.87,6.25-34.19,1.16-5.24,2.5-10.42,3.92-15.58,1-3.55,1.25-7.24,1.85-10.87.35-2,.78-4.08,1.33-6.08s1.2-2.23,2.94-1.38a7.13,7.13,0,0,0,3.27.52c6.88,0,13.76-.19,20.63,0a23,23,0,0,1,14,4.8,8.67,8.67,0,0,1,.73.63c1.44,1.45,1.22,2.54-.73,3a35.91,35.91,0,0,0-8.72,3.9,138.69,138.69,0,0,1-18.41,8.69q-3.36,1.27-6.71,2.58c-1.25.48-2.61.76-3.24,2.22-.26.61-1,.77-1.64.89a15.3,15.3,0,0,1-2.6.34c-1.38,0-1.92.7-2.16,2-1,5.5-2,11-3.18,16.48-1.82,8.69-3.73,17.35-5.59,26-.16.78-.21,1.59-.39,2.37s-.39,1.91-1.56,1.72S1718.45,1642.49,1718.55,1641.66Zm16.83-71c-.07.2-.14.29-.12.35.73,2.27,1.7,4.55-.51,6.59-.1.1-.11.3-.16.45a64.42,64.42,0,0,0-3,12.32c-.18,1.67,0,1.8,1.63,1.19l13-4.84c8.58-3.2,16.44-7.83,24.52-12,.11-.06.15-.26.24-.41-.2-.82-1-1-1.59-1.28a25.2,25.2,0,0,0-10.42-2.45c-6.72.07-13.43.08-20.15.11Z" transform="translate(-1576.57 -1547.16)"/><path d="M1679.81,1616.27a95.13,95.13,0,0,1,3-25.27c1.44-6.06,3.26-12,4.92-18a17.72,17.72,0,0,1,1.78-4.18,3.83,3.83,0,0,1,1.69-1.64c1.13-.51,2-.24,2.4.73s0,2.25-1.11,2.39c-1.5.2-1.75,1.29-2.06,2.31-1.09,3.6-2.16,7.2-3.13,10.83a164.43,164.43,0,0,0-4.38,20.13,101.77,101.77,0,0,0-.61,17.71,13.12,13.12,0,0,0,2.93,7.24,5,5,0,0,0,3.88,2.06,13.57,13.57,0,0,0,8.23-2,60.19,60.19,0,0,0,13.86-11.73,36.49,36.49,0,0,0,8.58-18.46,52.62,52.62,0,0,0,.14-17.66c-.73-4.23-2.16-8.22-5.81-11a8.65,8.65,0,0,0-7.92-1.54,7.87,7.87,0,0,0-2.91,2c-.59.52-1.28.82-1.9.14s-.28-1.35.24-1.92a8.19,8.19,0,0,1,5.57-2.92c6-.47,10.1,2.35,12.73,7.52a28.9,28.9,0,0,1,3.08,12.7,59.55,59.55,0,0,1-1.63,16.88c-2.43,9-7.57,16.12-14.61,22a68.71,68.71,0,0,1-8.13,5.93,15.79,15.79,0,0,1-8.86,2.47c-3.41-.08-5.66-1.73-7.36-4.53A19.25,19.25,0,0,1,1679.81,1616.27Z" transform="translate(-1576.57 -1547.16)"/><path d="M1940.15,1645.64a10.82,10.82,0,0,0,5.2,1.49,53.75,53.75,0,0,0,12.66-.61c8.68-1.44,13-10.33,11.85-17.59a13,13,0,0,0-7.45-10.16,21.91,21.91,0,0,0-10.11-2.61c-6,0-12,0-18,0a18,18,0,0,1-4.52-.47c-3.1-.78-3.93-2.44-2.6-5.33a19.76,19.76,0,0,1,4.68-6,61.43,61.43,0,0,1,17.37-11.8,18.17,18.17,0,0,1,9.54-1.77c2.72.32,3.85,1.86,4.63,4.5a2.13,2.13,0,0,1,0,.71,1.17,1.17,0,0,1-.82,1.08,1,1,0,0,1-1.23-.51c-.26-.49-.45-1-.66-1.53a2.76,2.76,0,0,0-2.6-1.77,16.11,16.11,0,0,0-7.92,1.51,55.62,55.62,0,0,0-15.69,10.46c-1.62,1.52-3,3.28-4.5,5a4.38,4.38,0,0,0-.68,1.26c-.39.94,0,1.54.93,1.78a15.23,15.23,0,0,0,3.8.43c5.84,0,11.68.05,17.51,0a25.69,25.69,0,0,1,14.63,4.61,13.17,13.17,0,0,1,5.49,7.62,18.74,18.74,0,0,1-5.78,19.81,11.62,11.62,0,0,1-4.4,2.4,38.54,38.54,0,0,1-19.88.86,8.48,8.48,0,0,1-3.25-1.47,2.79,2.79,0,0,1-1.3-2.67,2.36,2.36,0,0,1,2.13-2c1.88-.33,3.79-.57,5.69-.78.92-.11,1.88,0,1.89,1.25,0,1-.81,1.22-1.68,1.3-1.65.15-3.29.36-4.94.55Z" transform="translate(-1576.57 -1547.16)"/><path d="M1985.74,1596.64H1981c-1,0-2-.11-2.18-1.36-.17-.92-.91-1-1.62-1.14a1.22,1.22,0,0,1-1.13-1.07,1.26,1.26,0,0,1,.9-1.28c3.79-1.76,7.71-2.62,11.85-1.43,1.75.5,1.83,1.4,2.12,3.21.34,2.19-1,3-2.23,4a24.32,24.32,0,0,0-6.92,8.43,2.65,2.65,0,0,0,2.21-1.37c.43-.51.9-1,1.63-.71a1.43,1.43,0,0,1,.88,1.56,17.13,17.13,0,0,1-.23,2.37c-.82,5.05-1.66,10.09-2.48,15.14a5,5,0,0,0,.12,2.84,11.72,11.72,0,0,1,.69,4.94q0,5,0,10.07a8.76,8.76,0,0,1-.55,3.29c-.26.65-.71,1.12-1.47.93s-.93-.81-.83-1.5c.67-4.46.19-8.94.32-13.41a7.41,7.41,0,0,0-.63-3.74,4.79,4.79,0,0,1-.19-3.06q.95-6.16,1.91-12.32c.06-.39.15-.78.18-1.18,0-.71-.25-1.06-1-.92l-.23,0c-3.37.14-3.92-.58-2.72-3.67a22.13,22.13,0,0,1,4.39-6.53Z" transform="translate(-1576.57 -1547.16)"/><path d="M1774.33,1705.91c-.93.44-1.85.91-2.8,1.33a1.15,1.15,0,0,1-1.51-.3,1.08,1.08,0,0,1,.38-1.65,2.87,2.87,0,0,0,1.44-3.24c-.08-.61-.26-1.11-1-1a1.41,1.41,0,0,1-1.79-1.41,2,2,0,0,1,1.51-2.17,2.07,2.07,0,0,1,2.59.58,6,6,0,0,1,1.14,3.35c.1,1.51,0,3,0,4.54Z" transform="translate(-1576.57 -1547.16)"/><path d="M1983.72,1654.88a1.19,1.19,0,0,1-.73,1.13,12,12,0,0,1-2.22.79,1.52,1.52,0,0,1-1.8-1.43c-.06-.89.5-1.28,1.29-1.37a18.85,18.85,0,0,1,2.37-.15A1,1,0,0,1,1983.72,1654.88Z" transform="translate(-1576.57 -1547.16)"/><path d="M1778.76,1761.91a5.64,5.64,0,0,0,.86-.1c.91-.33,1.84-.43,2.27.59s-.51,1.35-1.19,1.77-1,.78-1.58,1.08c-1.43.76-2.5.25-2.83-1.36a5.08,5.08,0,0,1,.41-3.27,50.13,50.13,0,0,1,15-18.43,14.73,14.73,0,0,1,10.43-2.76,5.91,5.91,0,0,1,2.5.78c1.9,1,3.36,2.7,5.29,3.71.31.16.5.61.68,1,2.35,4.63,4.5,9.36,6.5,14.14,1.82,4.35,3.55,8.75,5.15,13.18,1.08,3,1.85,6.12,2.79,9.18a11.42,11.42,0,0,0,1.6,3.73,2.85,2.85,0,0,1,.46,1.09,1.37,1.37,0,0,1-.59,1.67,1.22,1.22,0,0,1-1.68-.46,4.94,4.94,0,0,0-2.52-2.13c-3.29-.83-5.9-3-8.91-4.34s-5.74-3.47-8.59-5.25a20.9,20.9,0,0,0-12.23-3.55,7.21,7.21,0,0,1-2.85-.25,1.08,1.08,0,0,1-.83-1.05,1,1,0,0,1,.85-1,13.12,13.12,0,0,1,1.67-.17c5.42-.49,10.24,1.24,14.76,4a8.35,8.35,0,0,0,2.87,1.47,7.64,7.64,0,0,0-1.49-2.9,44,44,0,0,0-6.34-7.16,3.71,3.71,0,0,0-2.56-1.08,12.79,12.79,0,0,1-4.25-.6,6.14,6.14,0,0,0-3.32,0,13.66,13.66,0,0,1-3.77.64c-2.07-.06-3.58-1-4.12-2.67a4.94,4.94,0,0,1,1.74-5.34,12.87,12.87,0,0,1,5.78-2.2c2.62-.26,5.27-.31,7.9-.41a8.65,8.65,0,0,1,5.39,1.7,36.42,36.42,0,0,1,8.41,8.44,47.78,47.78,0,0,1,7.7,15.88c.32,1.12.62,2.34,2,2.71.7-.41.27-.9.17-1.3a124.4,124.4,0,0,0-6.18-17.89c-1.48-3.45-2.87-6.94-4.41-10.37-1-2.25-2.23-4.42-3.36-6.62a2.41,2.41,0,0,0-1-1,11.27,11.27,0,0,1-1.41-.9c-1.47-1.26-2.9-2.39-5.07-2.3-2.7.12-5.26.4-7.46,2.14A49.86,49.86,0,0,0,1778.76,1761.91Zm39,18.6a44,44,0,0,0-6.71-14.54,38.2,38.2,0,0,0-8.22-8.61,6.17,6.17,0,0,0-4.23-1.38c-2.54.15-5.09.22-7.63.41a9.36,9.36,0,0,0-4.06,1.35c-1.23.72-1.72,1.75-1.34,2.75a1.85,1.85,0,0,0,2.41,1,18.62,18.62,0,0,1,9.66,0,1.93,1.93,0,0,0,.72,0,6.07,6.07,0,0,1,4.92,2,39.39,39.39,0,0,1,8.43,11.22A12.32,12.32,0,0,0,1817.81,1780.51Z" transform="translate(-1576.57 -1547.16)"/></svg>