<svg id="Layer_1" data-name="Layer 1" xmlns="http://www.w3.org/2000/svg" viewBox="0 0 212.26 218.81"><title>dinosaur_sweating_bullets</title><path d="M-451.91,1784.24c-4.75-.83-7.54-8.41-4.2-13.18,1.46-2.08.92-5.27,5.2-5.93,4.71-.72,5.73,1.94,6.8,4.77.91,2.4.89,5.16,1.34,8.14l4.44-5.17c1.91-2.23,3.28-5.27,2.08-7.59s-4.86-2.65-7.48-3.13c-3.5-.63-7.13-.39-10.74-1-5.2-.92-9.46.4-11.77,6.17-1.16,2.89-3.92,5.21-6.18,7.56-2.5,2.6-4.63,5.21-3.12,9.05a1,1,0,0,1-.16,1.25c-8.25,8.5-4.89,19.22-5,29-.05,5.8,1.33,11.84,2.46,17.74,1,5,3.56,8.91,5.84,13.08,1.09,2,1.08.3,2.05-.73,2.41-2.57,6.14-1.5,9.28-.76a92.46,92.46,0,0,0,17.3,2.62,17.78,17.78,0,0,0,11.41-3.33c7.28-5.08,15.39-7,24.25-6.45,6.15.39,10.29-4,14.49-7.45,4.9-4,9.15-8.85,13.6-13.4s9.28-7,15.67-6.53a113.13,113.13,0,0,0,12.49,0c2.14-.1,4.38.86,4.38,2.37,0,4.67,3.22,8.6,2.52,13.37-.36,2.48-1.44,4.55-3.83,4.18-4.82-.72-8.3,2.07-11.53,4.37a24.39,24.39,0,0,1-16.3,4.79c-6-.35-11,3.31-16.61,4.66-9.31,2.24-17.34,8.07-27,9.54-2.54.39-6.15,0-7.79,3.23-2.54-1.32-5.07-1.89-7.82.28,15.55,1.85,25.55,12.62,36,22.24,4.75,4.38,11.84,6.6,14.26,13.08,2.73,7.29,6.85,14,8.55,21.7a21.65,21.65,0,0,0,3.24,6.82c.79,1.25,1,2.06-.21,2.84s-1.63-.53-1.95-1.23c-1.48-3.3-3.34-6.29-4.3-10-1.76-6.71-5.85-12.67-7.75-19.49a7.4,7.4,0,0,0-4.1-4.48c-4.36-2-7.78-5.64-11-9.06-6.14-6.49-14.46-10.09-20.66-16.41-3-3-7.32-.8-10.63-2.72-.75-.43-2.1.3-2.72-.73-3.83-6.4-9.74-2.49-14.73-2.85-.91-.06-2.18.87-3.09,0-4.94-4.48-11.09-5.64-17.35-6.47a3.46,3.46,0,0,1-2.69-1.79,54.56,54.56,0,0,1-7.91-23.44c-1-8.19-1.7-16.47-1.06-24.74.38-4.9-.44-10.28,4.27-13.91a2.51,2.51,0,0,0,.64-2.76c-.94-4.06.48-7.19,3-10.38,9.28-11.87,16.93-25,27.51-35.87,2.48-2.53,6-3.93,9-5.64,5.69-3.25,10.93-7.2,16.75-10.24,5.48-2.85,11.47-4.06,17.15-6.24,4.18-1.6,8.92-2.27,12.54-4.68,4.93-3.29,10.43-3.18,15.69-4.26,9.14-1.87,18.49-.67,27.73-1.17a38.23,38.23,0,0,1,24.59,7c5.29,3.63,10.74,7.31,16.62,9.75,10.74,4.46,12.68,14.13,15.48,23.49.14.46-.15,1.09.06,1.48,5.27,10.08,4.36,21.72,8.14,32.1a86.12,86.12,0,0,0,4.89,12c4,7.4,2.25,15.65,3.85,23.41,1.69,8.22,2.73,16.58,4,24.89a3.65,3.65,0,0,1,0,1c-.24,2,.95,5.42-1.51,5.61-2.09.16-1.3-3.2-1.48-5.09-1-9.83-3.19-19.47-4.6-29.21-1-7.2-.33-14.8-3.55-21.5-4-8.31-7.17-17.06-8.11-26-.81-7.76-4.29-14.42-5.74-21.77-1.82-9.28-6.33-16.49-15.62-20.07-6.21-2.38-11.38-6.63-17.08-9.93-3.6-2.08-7.67-4-12.07-4-8.84-.1-17.69-.39-26.5.06a84.73,84.73,0,0,0-33,8.4c-5.71,2.76-12.17,3.9-18,6.36-8.65,3.61-15.87,9.7-23.79,14.57-7.21,4.43-11.92,11-16.84,17.42-1.86,2.45-1.88,4.32,2.34,4.25a65.39,65.39,0,0,1,20.63,3c1.52.47,3.79.85,3.89,3.18.17,3.6.1,7.08-2.7,10-3.52,3.73-7.22,7.26-10.84,10.88a16.63,16.63,0,0,1-18.75,3.12,21.21,21.21,0,0,0-5.11-1.32c-1.42-.28-2.77-.74-2.36-2.41.46-1.89,1.86-.82,3.06-.67,3.69.47,6.61,3.41,10.58,3.11C-456.4,1786.85-453.49,1787.45-451.91,1784.24Zm67.33,52.22A12.76,12.76,0,0,1-377,1835c6.35.73,11.61-1.66,16.78-5.09,2.43-1.61,4.75-4.39,8.06-3.84,4.52.75,4.58-1.88,4.14-4.88-.42-2.81-2.61-5.15-2.12-8.33.17-1.18-1.53-.84-2.42-.85-4,0-8,0-12,0,1.1,4.49.2,8.78.69,13,.15,1.35.81,2.74-1,2.87-1.5.11-2.1-1.22-2.09-2.74,0-3.49-.37-7,.13-10.47.44-3-.65-3.14-2.81-2.35-5.89,2.17-10.39,6.38-13.95,11.22-1.36,1.86-.26,5.49-.38,8.3-.07,1.58-.34,3.14-.53,4.7-4.31-2-1.5-6.16-3-9.77-3.7,5.38-9,8.22-14.19,11-2.92,1.58-3.74,3-3,6.09C-398.39,1840.26-391.24,1839-384.58,1836.46ZM-428.72,1851c5.74-1.37,11.2-2.7,16.67-4,2.05-.47,3.92-.6,4.17-3.6s-1.55-3.5-3.47-4.1c-3.71-1.17-6.94,1-10.37,1.73C-429.31,1842.57-429.3,1842.65-428.72,1851Zm-3.83-5.53c-5.4,5.87-11.79,2.86-17.58,3.43-1.1.1-2.65-2.25-2.9.9-.19,2.28,1.1,2.26,2.71,2.25,4.46,0,8.93-.25,13.37,0C-432.14,1852.38-431.21,1850.21-432.55,1845.44Zm-34.05,1.33,10.38,3.88C-456.88,1846.66-458.87,1845.81-466.6,1846.77Z" transform="translate(484.19 -1703.86)"/><path d="M-360.27,1745.68c3.91-1.69,7.21,2,10.55,5.17,2.93,2.82,2.38,8.78-1,11.3-2,1.46-4.19,2.54-5.32,4.89-.18.37-.71,1-.9.89-5.49-1.69-8,3.29-11.76,5.34a6.17,6.17,0,0,1-3.24.71c-8.65,0-17.31-.15-25.95.08-5.47.15-5.9-4.3-6.92-7.55-.84-2.68-1-5.57,3.55-7.09,6.26-2.11,11.13-7.13,17.51-9.71C-376.53,1746.79-369.25,1746.55-360.27,1745.68Zm4,17.84c1.27-1.12,2-2.2,3-2.56,3-1.11,2.66-3.59,2.22-5.69-.57-2.75-2.24-5.91-5-6.07-8.62-.51-17.2-.23-25.58,2.81-6,2.17-10.95,6.11-16.53,8.64-4.28,1.94-3,5.31-4.59,7.74,2,1.23,3.67,2.82,6.48,2.71,7.32-.29,14.66-.09,22-.1,5.91,0,6.17-.41,4-5.8s.13-10.7,5.32-12.08c2.25-.6,4.94-.71,6,2.48C-358.24,1758-357.36,1760.46-356.31,1763.52Z" transform="translate(484.19 -1703.86)"/><path d="M-411.81,1780c1.79,2.61,3.09,4.85,2.85,7.78-.19,2.23.62,4.39-3.3,4.39-3.77,0-3.9-1.63-3.78-4.43.16-3.75,0-7.51,1-11.26,0,4,.13,7.92-.05,11.87-.1,2.3.81,2.69,2.87,2.72,2.37,0,1.94-1.37,2.25-2.85C-409.32,1785.28-412.53,1783.32-411.81,1780Z" transform="translate(484.19 -1703.86)"/><path d="M-371,1872.49c0,3.45-.07,6.91,0,10.35,0,1.14-.52,2.28,1.15,3.33,4.4,2.77,5.52,2.47,6.24-2.58,1,5,.93,5.16-1.42,5.41-3.57.37-7-2.17-7-5.31-.05-3.73,0-7.46,0-11.2Z" transform="translate(484.19 -1703.86)"/><path d="M-328,1850.21c-.63,1.86,1.89,4.57-2.15,4.78-3.56.19-7.25.5-6.86-5.65,1.61,3,2.73,5.48,6.47,4.77C-327.8,1853.59-329.9,1851.16-328,1850.21Z" transform="translate(484.19 -1703.86)"/><path d="M-324.08,1760.05c-2.35-4.24-3.63-8.68-2.23-13.59-1.14,4.88,3.06,8.89,2.09,13.74A1.92,1.92,0,0,0-324.08,1760.05Z" transform="translate(484.19 -1703.86)"/><path d="M-316.93,1753.92c2,1.93.54,4.35.88,6.53.29,1.84-1.23,1.52-2.34,1.55a8.88,8.88,0,0,1-5.68-2l-.15.15a11.74,11.74,0,0,1,2.42-.17c5.44.75,5.65.48,4-5.44Z" transform="translate(484.19 -1703.86)"/><path d="M-345.44,1723.5c-3.94-.58-6.68-2.83-11.4-2.54C-351.66,1719.77-350,1720.2-345.44,1723.5Z" transform="translate(484.19 -1703.86)"/><path d="M-317.77,1754.59c-1.3-1-3.33-1-4.86-3.44,2.57.88,4.38,1.23,5.7,2.77Z" transform="translate(484.19 -1703.86)"/><path d="M-338.36,1850.2l-1.85-3.87C-337.5,1846.92-338,1848.61-338.36,1850.2Z" transform="translate(484.19 -1703.86)"/><path d="M-345.4,1723.57l1.21.79c-.24.19-.52.58-.7.54a4.85,4.85,0,0,1-1.15-.64Z" transform="translate(484.19 -1703.86)"/></svg>