<svg id="Layer_1" data-name="Layer 1" xmlns="http://www.w3.org/2000/svg" viewBox="0 0 94.33 75.59"><title>dinosaur_here</title><path d="M1813.08,1806.08c2.48,1.44,4.34,3.48,6.89,4.55.51.21.73.78,1.22,1.08a.34.34,0,0,1-.27.62c-1.07-.16-.94.59-1,1.19a29.48,29.48,0,0,0,.34,6.57,20.59,20.59,0,0,0,.68,4.13c.09.3.18.72.4.84,1.43.78.17,1-.29,1.19a36.37,36.37,0,0,1-4.92,1.52,9.66,9.66,0,0,0-2.58,1c-.68.39-.84.67-.07,1.23a5.7,5.7,0,0,1,2.44,4.78c3.29-.88,5.7-3.11,8.13-5.29.27-.24.47-.85.92-.39s0,.75-.32,1a35.45,35.45,0,0,1-5.54,4.38c-.24.14-.62.28-.65.47-.23,1.44-1.28,1.17-2.13.95a9,9,0,0,1-5.91-4.71c-.43-.83-.09-1.34.62-1.89,2.42-1.88,5.34-2.45,8.16-3.28.84-.25,1.09-.55.9-1.52-.78-4-1.72-8.07-.87-12.22a1,1,0,0,0-.52-1.1c-1.53-1.09-3-2.2-4.58-3.28-.26-.19-.65-.59-.9-.07-.6,1.3-1.4.7-2.15.26a1.79,1.79,0,0,0-1.4-.42c-.67.12-.89-.47-.43-.91,1.5-1.41,1.26-3.3,1.36-5,.17-3.24.06-3.25-3.13-3.25-5.36,0-10.74-.23-16.07.12-7.06.47-14.12.63-21.18.65-.71,0-1,.28-1,1,.08,2.3-.26,4.62.5,6.89.22.65.82.85,1.08,1.38.12.24.39.45.17.75a.61.61,0,0,1-.85.14,4.6,4.6,0,0,0-3.19-.11,6.91,6.91,0,0,0-2.38.8.52.52,0,0,1-.75-.12.45.45,0,0,1,.11-.64,3,3,0,0,0,.66-2.46c0-2.08,0-4.16,0-6.24,0-.77-.18-1.14-1.07-1.17-3.57-.12-6.1-2.27-8.57-4.52a1.59,1.59,0,0,1-.41-1.1,43.69,43.69,0,0,0-.45-5.45c-.39-1.93,0-4-.26-5.95a41.9,41.9,0,0,1-.08-8.23,29.46,29.46,0,0,0,0-4.79c-.18-1.6.78-2.88.88-4.39.05-.63.87-.89,1.52-1a50.1,50.1,0,0,1,5.45-.69,58.12,58.12,0,0,1,12.77.69c3.48.65,6.94,1.43,10.45,2a70.09,70.09,0,0,0,16,.45,15.41,15.41,0,0,1,1.8,0c4.79.17,9.56-.58,14.35-.41a59.82,59.82,0,0,1,6.65.73c1.43.21,2,1.46,2.37,3.48.79,4.54-.38,9-.65,13.42-.06,1-.06,1.91-.09,2.87,0,.47.14.71.64.43l.53-.27c3-1.47,5.57-.53,7.11,2.52a25.24,25.24,0,0,1,2,7.48c.56,3.54,1,7.1,1.74,10.63.27,1.38,1.34,2.34,1.68,3.66.08.29.4.58.18.88-1.08,1.44.1,2.84.11,4.25,0,.7.61.13.84-.08a39.69,39.69,0,0,0,3.63-4.14c1-1.26,2-2.52,3-3.76.22-.27.46-.65.88-.41a1,1,0,0,1,.34,1,32,32,0,0,1-3.77,12.49,15.57,15.57,0,0,1-4.07,4.67,4.85,4.85,0,0,0-1.53,1.81,2.88,2.88,0,0,1-1.78,1.82c-.47.14-.56.55-.67.92a57.91,57.91,0,0,1-3.28,7.33,1.77,1.77,0,0,1-1.74,1.14,8.09,8.09,0,0,1-5-1.47c-1.58-1-1.69-1.61-.6-3.21.54-.79,1-1.63,1.5-2.45.12-.2.33-.42.2-.66s-.51-.15-.77-.13-.47.11-.7.14a.46.46,0,0,1-.55-.36c0-.22.13-.36.33-.44a1.52,1.52,0,0,1,.57-.18c1.79.14,2.38-1.1,2.86-2.48.18-.52.43-1,.65-1.54.15-.33.3-.77.75-.55s.18.63.05,1a44.67,44.67,0,0,1-3.16,6.67c-.76,1.21-.73,1.2.66,1.52s2.84.59,3.83,1.8c.32.38.55.37.79-.09a40,40,0,0,0,3.58-9.25c.07-.35-.11-.94.52-.86.47.07.34.57.34.91a9.52,9.52,0,0,1-.11,1.06,7.54,7.54,0,0,0,2.34-4.89c-.25-2.65-.66-5.28-1.15-7.9-.43,1.8-.78,3.63-1.28,5.41a3.56,3.56,0,0,1-5.5,2.3c-.83-.47-1.7-.9-2.49-1.44-.46-.31-1.28-.78-.09-1.3.34-.15.21-.49.22-.75,0-.8,0-1.6,0-2.4a6.89,6.89,0,0,1,1.33-4.5c.81-1.13,1.46-2.38,2.22-3.55.2-.31.48-.81.93-.43s0,.64-.23.92c-.89,1.46-1.84,2.9-2.71,4.38s-.62,3.34-.65,5c0,.41.25.54.65.49a9.36,9.36,0,0,1,4.43.82c.66.24,1.05.22,1.23-.56a32.08,32.08,0,0,0,1.29-7.41,8.11,8.11,0,0,0-.59-3.7,18.06,18.06,0,0,1-1.15-5.1c-.59-3.54-1-7.12-1.73-10.64a12.58,12.58,0,0,0-1.76-4.31,4,4,0,0,0-5.12-1.42,10.15,10.15,0,0,0-3.2,2.46c-.33.41-.45.69.09,1a1.61,1.61,0,0,1,.79,1.41c0,.86-.33,1.44-1.32,1.16s-1.21.21-.9,1.05c1,2.64,1.93,3.1,4.48,2.62a3.27,3.27,0,0,0,3.08-3.18c0-.26.12-.48.43-.45s.42.31.46.61a4.51,4.51,0,0,1-2.38,3.57c-.34.09-.7.14-1,.21a1.5,1.5,0,0,0-1.38,1.73,20.15,20.15,0,0,1-1.3,6.9c-.25.71.29,1.2.45,1.8s1,1.41.24,1.76-.73-.81-1-1.32c-1.38-3-2.67-6-5.11-8.32a6.4,6.4,0,0,0-1.11-.91c-.86-.51-1.36-.26-1.6.71-.19.78-.41,1.55-.63,2.32C1815.57,1804.34,1815,1805,1813.08,1806.08ZM1755.52,1791c-.4-3,.37-6,.21-9-.21-3.91,0-7.83,0-11.75-.1.86-.15,1.73-.17,2.6-.08,3.55.07,7.1-.13,10.65a37.17,37.17,0,0,0,.14,7.53c-.13,1.83,0,3.36,1.74,4.71,3.33,2.64,7,3.14,11,2.49,1.59.37,3.17,0,4.75-.07,3.23,0,6.47,0,9.7,0a13.14,13.14,0,0,0,3.82-.61,9.06,9.06,0,0,0-3-.36c-3.55.57-7.06-.4-10.61-.12a13.63,13.63,0,0,0-4.63,1.19,18.3,18.3,0,0,1-10-2.24c-.54-.28-1.14-.69-1.2-1.26C1756.91,1793.26,1755.88,1792.26,1755.52,1791Zm67.69,6.68a11.33,11.33,0,0,1-1.93-4.64,2.41,2.41,0,0,1,.77-2.54,1.71,1.71,0,0,0,.67-1.77,7.56,7.56,0,0,1,.13-3.1,8.79,8.79,0,0,0,0-4.61,4.39,4.39,0,0,1-.13-1.9,42.66,42.66,0,0,0,.19-6.59c0-3.06,0-3-3-3.08-2.51-.09-5-.43-7.51,0-1,.19-2.1.36-3.15.53-.51.08-.62.49-.66.88s.35.34.6.32.58,0,.66.34,0,1,.72.79a.84.84,0,0,0,.5-1.18c-.07-.2-.1-.41.19-.44s.36.15.43.35c.29.87-.3,1.35-.88,1.78s-1.09.17-1.34-.44-.7-.67-1.18-.24c-.22.19-.25.84-.72.32a.76.76,0,0,1-.08-1.15,12.32,12.32,0,0,0,1.16-2c-4.78-.64-9.45-.26-14.1-.6-.47,0-.93.06-1,.65s-.24,1.24.68,1.39c.55.09.54.55.39.94a1.06,1.06,0,0,1-1.09.78c-.44,0-.6-.35-.61-.75a11.61,11.61,0,0,1,0-1.56c.13-1-.22-1.27-1.23-1.28-2.8,0-5.61.31-8.38-.2-1.43-.25-2.84-1-4.23-1.07a59.1,59.1,0,0,1-8.8-.79c-2.8-.61-5.7-.57-8.54-1a5.35,5.35,0,0,0-4.34,1.22c-1.16.93-.61,2-.61,3.08,0,3.88,0,7.76,0,11.64a26.37,26.37,0,0,1-.23,6c-.53,2.48,1,4.45,1.66,6.6.36,1.07,1.79,1.08,2.73,1.57a7,7,0,0,0,1.7.54c1.86.41,3.74,1,5.64.41a11.64,11.64,0,0,1,5.73-.95c.64.1,1.24-.31,1.9-.17a32.81,32.81,0,0,0,6.79.43,61.49,61.49,0,0,1,7.92.3,30.68,30.68,0,0,0,8.45.13c1.7-.25,3.36-.7,5.06-.9,2.44-.28,4.81.5,7.22.74s5,1,7.49,0c.26-.11.44,0,.65.18A7.09,7.09,0,0,0,1823.21,1797.64Zm17.07,26.69c4.14-3.95,5.83-8.92,6.33-14.67-2.43,2.8-4.36,5.71-7,8a.56.56,0,0,0-.19.54C1839.79,1820.21,1840.1,1822.23,1840.28,1824.33Zm-41.71-56.54a92.93,92.93,0,0,1,11.55.53c2.27.26,4.51-.37,6.79-.23a18.7,18.7,0,0,0,3.81.21,2.65,2.65,0,0,1,3,1.54,3.71,3.71,0,0,1,.25,1.64c.24,3.67-.49,7.36.34,11,.1-4.18,1.45-8.31.44-12.54-.27-1.09-.52-2.35-1.94-2.36-2,0-4-.58-6.06-.54-3.75.08-7.49.31-11.23.41A58.09,58.09,0,0,0,1798.57,1767.79Zm-5.72,0a58.72,58.72,0,0,1-7.84-.59c-5.32-1-10.6-2.26-16-2.7-2.59-.21-5.21,0-7.82,0,3.23,1,6.61.61,9.85,1.44,3.44.87,7.08.29,10.5,1.27C1785.27,1768.24,1789.07,1767.65,1792.85,1767.77Zm-27.26,39.83.33.05c.17-.22.32-.44.5-.65.45-.53.9-.69,1.28.08.12.23.15.61.56.4s.29-.47.17-.74a7,7,0,0,1-.27-2.84q0-1.8,0-3.6c0-.71-.37-1-1-.84s-1.51-.49-1.55.52C1765.53,1802.52,1765.59,1805.06,1765.59,1807.6Zm58.62-2.12c.29-2.39,1.33-4.66.83-7.19-1,1.66-2.63,1.66-4.25,2C1822,1802,1823.17,1803.69,1824.21,1805.48Zm-8.36-5.49c.18-.54-.15-.69-.57-.85s-.76.07-.76.45c0,1.42-1.06,2.26-1.68,3.35-.34.61-1.11,1.47-.26,2s1.49-.41,2-1.07a2.14,2.14,0,0,0,.21-.43A29.94,29.94,0,0,0,1815.85,1800Zm14.28,38c.36-.06.87.16,1.06-.3s-.22-.84-.57-1.06a8.55,8.55,0,0,0-4.44-1.19.46.46,0,0,0-.5.26c-.1.28.11.46.3.59A7.84,7.84,0,0,0,1830.13,1837.94Zm-.57-16.78c.89.5,1.77,1,2.69,1.49a1.75,1.75,0,0,0,2-.16c.7-.6.59-1.15-.27-1.45a8.13,8.13,0,0,0-3.17-.52C1830.35,1820.55,1829.86,1820.53,1829.56,1821.16Zm-14.63,12.49a5.1,5.1,0,0,0-2.46-3.33.6.6,0,0,0-.85.11.75.75,0,0,0-.09.89,7.71,7.71,0,0,0,2.76,2.74C1814.68,1834.29,1815,1834.26,1814.93,1833.65Zm-3.19-30.81a6.09,6.09,0,0,0,1.61-3.36c.16-.79-.32-.76-.76-.86s-.87,0-.86.62C1811.74,1800.39,1811.74,1801.54,1811.74,1802.84Z" transform="translate(-1753.57 -1763.25)"/><path d="M1827,1792a1.89,1.89,0,0,1,1.81-1.75,1.94,1.94,0,0,1,2.14,1.34l0,.11c.07.59-1.6,1.64-2.77,1.75C1827.5,1793.46,1827,1792.8,1827,1792Z" transform="translate(-1753.57 -1763.25)"/><path d="M1791.75,1780.55a22.55,22.55,0,0,1,5.59,2.56c.77.58,1.8.21,2.65.65.31.16.44-.3.49-.54.59-2.68,1.37-5.33,1.06-8.12a1.18,1.18,0,0,1,.48-1.26,1.12,1.12,0,0,1,1.35,0,4.57,4.57,0,0,0,2.84.74c1.61,0,3,.93,4.69.83a10.37,10.37,0,0,1,2.15.14c.77.12,1.54.38,1.49,1.38,0,.72-1.14,1.23-2,1.07-2.53-.47-5.07-.9-7.61-1.34-.4-.06-.87-.1-1,.39a3.6,3.6,0,0,0-.22,1.63c.11.49.7.24,1,.17a28.28,28.28,0,0,0,4.9-1,1,1,0,0,1,1.38.57,1.07,1.07,0,0,1-.53,1.42c-1.1.7-2.38.61-3.58.88-1,.23-2,.37-3.05.56-.32.06-.65.17-.72.54a14.4,14.4,0,0,0-.79,3.86c0,.58.14.8.79.53a58.93,58.93,0,0,1,6.49-2.06,6.67,6.67,0,0,1,1.77-.23c.67,0,1.23.12,1.28.91s-.42,1.08-1.08,1.21a31.91,31.91,0,0,0-3.84.9,44.2,44.2,0,0,0-4.84,1.72c-1.62.74-2.59.16-2.8-1.57,0-.26,0-.63-.35-.66-1.77-.11-3-1.33-4.45-2.1a20.75,20.75,0,0,0-4-1.59c-1.07-.31-1.69.4-1.39,1.52a3.33,3.33,0,0,1-1.44,3.6,1.13,1.13,0,0,1-1.34.07,1.17,1.17,0,0,1-.43-1.38c.3-1.08.59-2.15.94-3.22.26-.82.84-1.55.46-2.51a.87.87,0,0,1,.22-.65,8.57,8.57,0,0,0,1.49-4.36,3.53,3.53,0,0,1,2.84-3,3.8,3.8,0,0,1,4,1,3.19,3.19,0,0,1-.78,4.69,5.49,5.49,0,0,1-.63.34Zm0-2.38,2.42-1.18c.54-.26,1-.56.9-1.26a1.07,1.07,0,0,0-1-.94,1.39,1.39,0,0,0-1.67.62A5.46,5.46,0,0,0,1791.73,1778.17Z" transform="translate(-1753.57 -1763.25)"/><path d="M1773.88,1781.74c.37,1.78-.64,4.11-.11,6.47.15.68-.36,1.12-1.09,1.11a1.72,1.72,0,0,1-1.32-1.75c.12-1.23.29-2.45.38-3.67.11-1.42,0-1.6-1.4-1.49a24.69,24.69,0,0,0-3.92.48c-.67.17-1.05.49-1,1.23a38.15,38.15,0,0,1-.2,4.66c-.06.85-.3,1.59-1.21,1.65s-.94-.79-1.16-1.5c-.39-1.29.46-2.38.36-3.63-.13-1.49-.92-2.9.07-4.55.55-.91.11-2.42.1-3.66,0-.81.24-1.5,1.16-1.48s1,.75,1,1.47c0,1,0,1.92,0,2.88,0,.61.23.86.9.7a14.21,14.21,0,0,1,4.16-.35c.86,0,1.09-.32,1.11-1.13s-.25-1.74-.26-2.61.14-1.44,1-1.47.94.61,1.08,1.3A38.47,38.47,0,0,1,1773.88,1781.74Z" transform="translate(-1753.57 -1763.25)"/><path d="M1781.64,1776.71h2.88c.63,0,1.14.21,1.18.91s-.46,1.05-1.12,1.16a22.21,22.21,0,0,1-3.82.23c-.51,0-1.09-.08-1.3.57-.12.38-.26.87.15,1.1a1.89,1.89,0,0,0,1.62-.1,1.41,1.41,0,0,0,.58-.58,1.18,1.18,0,0,1,1.45-.53,1.71,1.71,0,0,1,1.12,1.57c0,.62-.34.92-.86,1.15a8.69,8.69,0,0,1-3,.69,3.13,3.13,0,0,0-2.58,3.62c.12.46.4.38.73.37a15.29,15.29,0,0,0,4.62-1.1l.44-.2c.73-.27,1.39-.18,1.71.58s-.17,1.25-.82,1.47c-1.36.45-2.73.86-4.12,1.22a27.26,27.26,0,0,1-2.7.49c-1.4.21-1.87-.24-2-1.65a21.9,21.9,0,0,1,1.23-7.27c.16-.59.17-1-.47-1.35-.87-.54-.61-1.48.44-1.86A15.21,15.21,0,0,1,1781.64,1776.71Z" transform="translate(-1753.57 -1763.25)"/><path d="M1799,1771.42c-.3-.34-.63.28-.88-.11.76-1.09.91-1.1,1.6-.15a2,2,0,0,0,1.3.78c.26,0,.78.2.75,0-.36-1.57,1.9-.44,1.75-1.75a.93.93,0,0,1,.31-1c.41.65,0,1.89,1.59,1.85-.82.49-1.63.66-1.11,1.67-.29-.14-.45-.16-.48-.23-.42-1.08-.88-1.44-1.56-.18a.5.5,0,0,1-.41.22c-1-.2-1.84.29-2.76.41-.33,0-.78.13-1-.28s.2-.56.4-.8S1798.87,1771.59,1799,1771.42Z" transform="translate(-1753.57 -1763.25)"/><path d="M1766.06,1768.91c.15-.77.42-1.33,1.36-.86a1.43,1.43,0,0,0,1,.2c.68-.18,1.57-.29,1.64.55a1.56,1.56,0,0,1-1.47,1.48,6.23,6.23,0,0,1-2.27-.52C1766,1769.65,1766.06,1769.23,1766.06,1768.91Z" transform="translate(-1753.57 -1763.25)"/><path d="M1770.14,1770.6c-.18-.73.22-1.25.3-1.82,0-.16.29-.34.33-.25.41.86,1.61,0,2,1,.25.61.64.18.86-.19s.51-1,1.06-.57,0,.79-.27,1.09-.39.34.16.33c.33,0,.09.36-.08.49a.85.85,0,0,1-1.2-.06C1772.29,1769.49,1771.24,1769.93,1770.14,1770.6Z" transform="translate(-1753.57 -1763.25)"/><path d="M1760.86,1767.84c.09.28.13.35.14.42.08.41-.63,1,.08,1.18s1.05-.46,1.23-1.08c0-.18,0-.4,0-.58s.21-.38.44-.27a.52.52,0,0,1,.21.38,2,2,0,0,1-2.77,1.87c-.45-.23-.55.14-.8.26-.93.4-1.5,0-1.42-1a1.54,1.54,0,0,1,.13-.58c.28-.5.34-1.59.8-1.39.65.27-.12,1-.26,1.49-.08.31-.27.64,0,.87s.6,0,.84-.22Z" transform="translate(-1753.57 -1763.25)"/></svg>