<svg id="Layer_1" data-name="Layer 1" xmlns="http://www.w3.org/2000/svg" viewBox="0 0 365.49 359.95"><title>handstand</title><path d="M1976.53,1653.63a67.94,67.94,0,0,0-17.5-11.88c-2-.94-3.43-2.46-5.14-3.69-5.52-4-12-5-18.47-6.37-4.07-.85-8.42-.82-12.06-3.33-2.27-1.56-5.09-1.54-7.59-1.67a137.18,137.18,0,0,0-21,0c-5.36.54-10.63,2.45-15.81,4.15-2.5.83-5,1.81-7.56,1.9-7.79.25-15,3.34-22.58,4.56-5.61.9-11,3.16-16.41,5.54-7.7,3.43-15.6,6.55-22.81,10.85-5.49,3.28-11.59,5.2-16.92,8.57-3.82,2.42-8.13,3.83-11.81,6.36-8.35,5.73-17.36,10.51-24,18.56-3,3.64-5.93,7.36-9,11a9.89,9.89,0,0,1-14.89.2c-5.46-5.8-11.94-10.25-18.77-14.26-1.36-.79-2.35-2.18-3.65-3.1-4.62-3.27-10.21-2.93-14.78-1.48-4.92,1.57-9.81,1.77-14.68,2.23-7.14.67-13.78,2.77-20.64,4.48-7.44,1.86-14,6.56-22,6.54-2.13,0-4.47,1.54-7,1.35,2.62-2,5.22-3.9,8.56-4.38a19.34,19.34,0,0,0,8.75-3c3.13-2.23,7.18-1.27,10.32-2.91,9-4.68,18.76-4.39,28.39-5.46,5.63-.62,11-2.67,16.89-2.22,2.83.22,5.59.4,7.71,2.24,4.24,3.66,9.11,6.53,13.63,9.69,4.36,3.06,7.65,7.38,12.4,9.82,2.72,1.4,5,1.43,7.21-1.32,4.07-5.16,8.23-10.29,12.73-15.07,2.42-2.57,4.76-5.46,8.15-7,5.4-2.38,9.27-7.12,14.69-9.47,7.32-3.17,14.16-7.31,21.33-10.79,5-2.45,10.06-5.21,15-8a157.27,157.27,0,0,1,19.06-8.52,103.88,103.88,0,0,1,19.35-5.12c12.29-2.26,24.67-4.33,36.52-8.56a5,5,0,0,1,1.83-.31c9.1.23,18.22-.71,27.3.7,3.71.57,6.6,3.06,10.51,3.5,6.12.69,12.1,2.65,18.15,4,3,.67,5.73,1.54,7.4,4.47,1.39,2.42,4.11,3.45,6.41,4.34,6.47,2.5,10.79,7.94,16.56,11.33,1.12.66,2.54,1.74,2.06,3.26-.53,1.69-2.33,1.06-3.61,1.1-5.23.16-10.44.32-15.46,2.12a15.3,15.3,0,0,1-5.16.84c-10.95-.11-21.56,2-31.93,5.19-11,3.4-22.48,5.89-32.69,11.56-3,1.66-6.2,3.08-9,5.2a13.44,13.44,0,0,1-7.13,3c-2.83.23-5,2.29-7.23,3.66-9.29,5.65-19.31,10.18-27.58,17.44a19.28,19.28,0,0,0-4,5c5.18-2,10.55-1.8,15.14-4.59,1-.58,2.43-.44,3.66-.44,10.38,0,20.75,0,31.13,0,4.61,0,7.82,1.91,9.58,6.25,1.35,3.3,4.14,5.61,5.8,8.91,2.33,4.6,4.07,9.81,7.24,13.72,3.57,4.41,5.09,9.59,7.82,14.26a28.68,28.68,0,0,1,3.88,17.52c-.39,4.36-3.11,7.85-7.58,8a29.14,29.14,0,0,0-8.28,1.93c-5.37,1.81-11.13,1.12-16.66,2-15.39,2.38-30.87,1.17-46.32,1.46-2.32,0-3.43.79-2.18,3.17,2.72,5.15,3.34,10.93,5,16.38,2.86,9.22,2.94,18.57,3.28,28,.3,8.29-2.52,15-7.81,21.11-3.31,3.82-6,8-7,13.15a3.19,3.19,0,0,0,0,1.44c.59,1.86,7.09,5.61,8.93,4.77,2-.93,2.67.15,3.65,1.33,2.38,2.89,4.77,5.76,7.27,8.55a10.41,10.41,0,0,0,3.4,2.87c6.63,2.68,9.32,8.07,10.61,14.57a15.82,15.82,0,0,0,1.31,3.49,29.18,29.18,0,0,1,2.79,11.92c.17,11.21,0,22.38-2.3,33.43-.72,3.41-3.36,5.43-5,8.13-.73,1.17-1,1.29.34,2.37,1.87,1.55,4.74,2.59,4.7,5.85,0,1.89-.48,3-2.67,3.2a13.06,13.06,0,0,1-11.82-5.1c-2.27-2.91-4.24-.49-6.23-.39-1.15.06,0,1.29.36,2,1.79,3.31.87,4.82-2.8,5-2.9.15-5-1.21-7-3-2.7-2.51-8-1.28-8.82,2.23-.69,3.11-2.92,3-5.18,3-2.62-.08-3.65-1.57-3.64-4.17.06-11,.74-22.06-.17-33-1.14-13.81-5.36-26.54-18.37-34.29a19.6,19.6,0,0,1-2.92-2.57c3,12.23,1.75,24.61.49,37.08-.8,7.93-3,15.58-3.47,23.59-.51,9.22-7.91,13-15.3,16-2.58,1-5.47,1.71-8.12,2.7-10.39,3.89-21.39,4.27-32.17,5.76-2.78.38-4.16,2.71-6.63,3.07-6.41.94-12.8,2.26-19.29,2.31-13.75.11-27.51-.26-41.25.15-8,.23-21.17-9.83-20.85-18.5.1-2.54-5-5.13-7.12-3.89-4.15,2.43-6.83,1.14-7-3.67-.08-2.79-.69-3.42-3-1.76a13.9,13.9,0,0,1-2.33,1.21c-5.47,2.5-7.7,1-7.12-5a43.13,43.13,0,0,1-6.1,1.37c-2.91.24-4.58-2.26-2.63-4.25,4.57-4.65,1.56-9.12.19-13.43-3.76-11.82-4.26-23.92.61-35a37.92,37.92,0,0,1,17-18.67c8.18-4.37,15.63-10.36,22.53-16.75a28.82,28.82,0,0,1,11.92-6.48l6.84-2c5.13-1.47,6.13-4.56,1.91-7.93-9.82-7.83-11.52-19.07-13.51-30.22-1-5.32,0-10.94-2.68-16-.53-1-.36-2.45-.37-3.69,0-6.87.19-13.76-.07-20.62s1.44-12.94,4.56-19.21c3.57-7.18,7.87-14.31,8.78-22.63.1-.89,0-2.08,1.18-2.57,1.68,2.48,1.39,6.55.44,9.6-1.82,5.81-5.47,10.78-7.19,16.61-.47,1.62-1.71,3-2.55,4.52-2.25,4.07-2.74,8.45-2.41,13a38.71,38.71,0,0,1,0,6.37c-.91,9.63,1.61,18.92,2.53,28.37.62,6.51,2.27,12.72,3.62,19a25,25,0,0,0,8.74,14,8.87,8.87,0,0,1,2.13,2c4.3,6.81,3.3,10-4.34,12.25-4.9,1.42-9.93,2.6-14.22,5.36-3.74,2.4-7,5.61-10.5,8.34-4.75,3.66-8.85,8.33-14.23,10.94-13.46,6.56-19.33,17.33-20.35,31.92-.71,10,3.18,18.81,5.15,28.13a4.46,4.46,0,0,0,4.49,3.86c4.22-.2,7.63,2.1,11.45,3.09,3.29.85,6.12,1.68,9.11-1.51,2.62-2.8,7-2.31,10.64-2.86,3.34-.5,8.18-4.2,8.85-7.4a47.31,47.31,0,0,0,.9-7.78c.24-6.36,5.43-12.65,11-15.63,7.14-3.79,15-6.13,21.65-10.88,2.25-1.61,5-2.07,7.73-2.59s5.13-1.07,7.72-1.43c1.75-.24,2-1,1.49-2.53-1.68-5.33-3.25-10.7-4.84-16.06a7.07,7.07,0,0,1-.46-2.54c.16-1.61-.94-4.29,1.25-4.5s1.1,2.48,1.51,3.87c1.71,5.83,3.18,11.76,5.22,17.47,1.88,5.23,3.2,10.44,3,16-.17,6.12,0,12.25,0,18.37a15,15,0,0,1-.09,3c-.35,1.67-.73,4.11-2.87,3.58s-.22-2.43-.12-3.72c.13-1.62.29-3.23.29-4.85,0-6.62.1-13.25,0-19.87-.1-5.07-1.21-5.5-6.12-4.8-11.54,1.66-20.77,8.38-30.92,13.18-4.45,2.11-8.26,4.34-10.91,8.48s-1.56,9.2-2.35,13.8c-.23,1.35.93.89,1.83.55,16.27-6,32.55-6.5,48.84,0,2.33.93,4.21,2.19,4.67,4.86.38,2.16,2.42,3.08,3.51,4.72,1.43,2.12,1.37,3.91-.71,5.54-3.12,2.45-6,5.56-10.23,5.76-7.61.35-15.32.6-22.49-2.59-3.56-1.58-6.17-8.92-4.79-12.54.74-1.94,2-3.38,4.45-3.32,7.07.15,14.18-.49,21.06,2,1.42.52,3.19.07,4.87.07-7.61-9-41-7.8-56,2.13a38.06,38.06,0,0,1,14.82,4.28c1.81,1,3.41,2,3.56,4.4s-1.56,3.09-3.17,4.1a18.39,18.39,0,0,1-10.95,3.07c-3.87-.17-7.75,0-11.63-.06-2.5,0-2.9,1.08-2.47,3.31,1.13,5.87,11.86,14.4,18,14.27,13.5-.28,27,.15,40.5-.19,6.2-.16,13-.06,18.41-2.53,10.67-4.85,22.34-3,32.94-6.58,7.35-2.48,15.27-3.77,21.71-8.69,3.44-2.63,6-5.78,6.26-10.17.34-6.38,2-12.52,2.89-18.76a178,178,0,0,0,1.89-20.44,64.79,64.79,0,0,0-4.53-26.65c-2-4.83-2.17-10.25-4.78-14.9a1.57,1.57,0,0,1,.4-2.32c1-.59,1.71.14,2.15.9,1.18,2,2.51,4.1,2.67,6.51.53,8,5.62,12.55,11.6,17,8.08,6,13.18,13.82,15.7,24,2.88,11.69,1.46,23.32,1.92,35,.26,6.71.68,7,7.5,5.47,7.37-1.7,14.77-3.4,22.25-4.49,3.36-.5,6.06-1.61,8-4.15a25.77,25.77,0,0,0,5-10.83c1.74-8.67,1.73-17.29,1.84-26a31.3,31.3,0,0,0-3-13.73c-1.85-4-1.89-8.76-5.06-12.29-.74-.81-1.13-2-2.27-2.34-4-1.28-6.83-4.17-9.41-7.19a24.15,24.15,0,0,0-11-7.26c-6.1-2-7.38-6-6.4-11.95,1.13-6.86,6.64-10.53,9.66-16,2.31-4.16,4.37-8.21,4.39-13.24,0-6.64.36-13.47-1.15-19.76-1.93-8.06-3-16.45-6.66-24.09-2.93-6.13-1.5-8.36,5.13-8.37q12.55,0,25.12,0c11.36,0,22.53-2.15,33.82-2.94,2.93-.21,4.3-1.27,2.18-4.22a5.32,5.32,0,0,1-.68-2.47,1.52,1.52,0,0,1,1-1.81c.92-.29,1.29.36,1.64,1.09a24.59,24.59,0,0,0,1.59,2.95c.65,1,1.54,1.89,2.7.68a1.84,1.84,0,0,0-.35-3.14c-.62-.42-1.52-.74-1.77-1.33-2-4.58-4.7-5.58-9.39-3.31-3.15,1.52-4.35.15-4.53-3.48a10.5,10.5,0,0,1,1.43-5.34c1.75-3.5-.51-7-4.48-7.06-6.38-.09-8.31-2.67-6.6-8.82.21-.76.48-1.52,1.37-1.47s1.19.82,1.23,1.61c.07,1.25.08,2.5.1,3.74s.26,2.37,1.84,2.18,1.91-1.2,1.56-2.72c-.82-3.49-3.35-6-5.14-8.9a88.46,88.46,0,0,1-5-10.43c-1.06-2.37.46-5.11.47-7.72a1.08,1.08,0,0,1,1.32-1c1.11.22,1.27,1.21,1.16,2.06-.58,4.45,1.11,8.27,2.89,12.17,2,4.4,5.83,7.72,7.19,12.49.24.84,1,.24,1.61.14,1.39-.26,2.08.72,1.68,1.72-1.45,3.53,1.26,5.65,2.9,7.66,3.54,4.37,6.54,9.12,10.09,13.47a14.19,14.19,0,0,0,2.83,2.38c1.64,1.2,2.48.86,2.66-1.16,0-.13,0-.28.07-.36,3.61-4.09,2-8.09-.29-12-2.65-4.58-3.43-10.16-7.73-13.88-1-.91-1.56-2.55-2.07-4-3-8.22-8.39-15.08-12.91-22.43a6.3,6.3,0,0,0-5.76-2.9c-10.25.08-20.54-.51-30.73.24-5.67.43-11.42,2.48-16.69,4.8-4,1.76-8.62,1.58-12.17,4.47a2,2,0,0,1-2.73-.52c-.82-1.11-.31-2.21.58-3a21.21,21.21,0,0,1,2.76-1.87,57.52,57.52,0,0,0,9.41-7.15c5.14-5,10.72-9.52,17.35-12.68a139.84,139.84,0,0,0,15.39-8.84c1.75-1.12,3.34-2.13,5.4-2.19a7.64,7.64,0,0,0,4.16-1.54c11.64-8,24.78-12.37,38.12-16.57,9-2.81,18.14-4.33,27.22-6.41,4.25-1,8.74.31,13.06-.73A74.37,74.37,0,0,1,1976.53,1653.63ZM1720.07,1959a6.9,6.9,0,0,0-3.38-1.75c-6-1.07-7.76-3-8-9,0-.93-.78-1.21-1.16-1.7-1-1.24-9.58-.68-10.47.57a3.4,3.4,0,0,0-.67,2c.25,3,1.42,6.33,4,7.14C1706.63,1958.3,1713,1961,1720.07,1959Zm-45.52,1.29c-5.14-.23-8.51-3-11-7.2-1.5-2.54-7.3-3.71-9.76-2.06-1.27.85-2.39,2-1.07,3.71a2.17,2.17,0,0,1,.49,1.67c-1.2,2.86.56,3.06,2.67,3.35A106.79,106.79,0,0,0,1674.55,1960.29Z" transform="translate(-1616.95 -1623.68)"/><path d="M1639.26,1754.44c.94-.34,1.78-.57,2.56-.93,1.21-.56,2.84-.82,2.76-2.62s-1.46-2.09-2.93-2.18c-1.11-.07-2.05-.53-1.88-1.81s1.15-1.26,2.27-1.19c3.54.23,5.73,1.67,5.46,5.54-.16,2.34,1,3.14,3.14,3,1.37-.09,2.75,0,4.12,0,3.62,0,8.22,3.7,8.87,7.06.23,1.21-.53,1.61-1.53,1.51a4.1,4.1,0,0,1-3-2c-.94-1.38-1.09-3.66-3.31-3.64-3.06,0-6.11-.69-9.16.81-4.19,2.06-8.58,3.73-12.94,5.4-2.48,1-4.08,0-6-2.13-4.46-5-5.29-11.45-7.81-17.2-1.57-3.6-.3-7.65-1.21-11.47-2.19-9.19-1.61-18.59-1.72-27.94,0-4.62,2.7-8.2,4.11-12.27.59-1.71,6.23-3.1,7.83-2.36.94.44,1.58,1.56.64,2-2.84,1.19-1.13,2.66-.61,4.17.4,1.17.61,2.4.93,3.6a3.45,3.45,0,0,0,2.93,2.89c3.81.8,4.89,5,2.25,8s-2.52,2.86,1,4.35c4.15,1.73,6.28,9.77,3.47,13.36-.81,1-2,2.78-3.18,2.1-1.43-.79-3.56-1.68-3.54-3.84,0-5-2.41-9.45-3-14.14-.61-4.48-2.11-8.6-3.06-12.92a13.25,13.25,0,0,0-1.2-3.11c-.38-.76-.86-1.75-1.87-1.56-.81.16-.67,1.22-1,1.87-5.18,11-3,22.33-1.15,33.61a10.46,10.46,0,0,1,.39,3c-.94,7,2.42,13.14,4.17,19.57.77,2.84,3.42,4.83,5.1,7.28,1.09,1.59,2.73.05,3.24-1.83,1.12-4.09,2.47-8.11,2.12-12.47-.1-1.31-.67-3.67,1.42-3.59s1.21,2.38,1.27,3.75C1639.34,1748.66,1639.26,1751.39,1639.26,1754.44Z" transform="translate(-1616.95 -1623.68)"/></svg>