<svg id="Layer_1" data-name="Layer 1" xmlns="http://www.w3.org/2000/svg" viewBox="0 0 377.22 420.15"><title>i_have_failed</title><path d="M1911.56,1745.16c-.79,3-.55,6-.61,8.89-.17,8.32-5.08,13.64-10.38,19-3.71,3.78-8.29,6.72-10.86,11.66-2.42,4.66-1.89,8.18,1.34,12.34,4.86,6.24,9.18,12.9,13.86,19.3a19.77,19.77,0,0,0,9.38,7.44c6.69,2.5,13.26,1.33,19.92,1.34,8.5,0,14.79-5.35,21.59-9.11a25,25,0,0,1,15.38-3.12c5.24.53,10.11,2.54,15.2,3.68,5.47,1.22,6.17,3.49,4,8.71-4.12,9.89-10,18.75-15.76,27.69-2.31,3.57-2.84,7.92-4,12a2.83,2.83,0,0,0,1.52,3.49c6.52,3.27,10.37,9,14,15a6.55,6.55,0,0,0,1.31,1.32,10.84,10.84,0,0,1,2.56,12.53,12.42,12.42,0,0,0-1.5,6.08c0,1,.12,2.25-.4,2.92-4.31,5.47-3.48,12.9-7.31,18.59-4.49,6.65-9.44,12.34-17.12,15.81-9.37,4.22-18.86,1.54-28.28,2.07-5.3-4.1-12.55-2.8-18-6.5a13.55,13.55,0,0,1-2.65-2c-4.1-4.65-5.69-5.14-11.12-2.11-6,3.32-11.46,7.62-18.09,9.63-8.64,2.61-10.39,9.71-11.78,17.17-1.16,6.28-.11,12.75-1.59,19-1,4-2.74,7.71-3.45,11.78a3.75,3.75,0,0,1-2,2.12c-5.21,2.57-8.14,7.59-12.1,11.44-2.22,2.16-4.91,3-7.33,4.11-7,3.24-14.57,4.5-22.18,2.53-10.12-2.62-20.8-3.65-30.21-8.33-4.89-2.44-10.85-2.64-14.84-7-.51-.56-1.58-.65-2.42-.84-10.91-2.47-15-10.55-15.33-19-.29-6.22-.41-12.47.69-18.67a21.55,21.55,0,0,1,6.63-12.25c5-4.69,6.21-16,2.87-21.88-3.08-5.43-6.63-10.51-10.11-15.66-4.18-6.2-10.34-6.45-17-5.84-7.89.73-15,3.87-21.75,7.51-4.71,2.55-9.72,4.64-14.22,7.64-5.85,3.91-12.39,3.92-19,2.93-2-.31-3.58-.16-5.09,1.4a14.4,14.4,0,0,1-6.2,3.32c-5.44,1.72-7.85.08-8.35-5.51-.32-3.52-1.61-6.79-2.21-10.23-.32-1.88-1.37-2.19-3-1.51a14.75,14.75,0,0,1-2.1.78c-4.19,1.09-5.51.08-5.56-4.2,0-2.62-.27-5.27,1.58-7.52a1.86,1.86,0,0,0,.49-1.36c-1-3.06-3.25-5.51-4.14-8.71-.46-1.64-2.64-2.28-4.28-2.63-3.37-.74-4.19-2.73-4.24-5.95-.07-4.16.6-7.71,4.5-9.93a1.66,1.66,0,0,1,2.35.41,1.55,1.55,0,0,1-.69,2.49c-3.54,1.52-3.41,4.55-3.26,7.61.1,2,1.52,2.41,3.09,2.56,2.22.21,1.5-1.52,1.57-2.59.3-4.22-.24-8.44.59-12.69a22,22,0,0,1,8.77-13.43,63.17,63.17,0,0,0,17.63-20.25c3.42-6,6.43-11.9,12.57-16.13,6.75-4.64,7.06-12.44,6-20-.67-4.8-2.81-8.83-5.36-13.11-2.85-4.8-6.23-9.51-8.39-14.69s-5.5-9-9.42-12.75c-2.9-2.73-4.93-6.2-7.37-9.32-4.64-5.94-8.88-12.25-14.33-17.56a10,10,0,0,1-2.83-4.36c-1.94-7.11-5.64-13.34-9.26-19.68-5.08-8.91-11-17.33-14.9-27a20.28,20.28,0,0,0-6-7.93c-2.15-1.76-5.33-4.68-5-6.59.93-5.84-3.67-10.15-3.17-15.67a64.8,64.8,0,0,0,0-11.23c-.62-7.19,1.26-13.9,3.54-20.5,1.5-4.35,5.11-7.26,9.12-9,4.9-2.11,9.53-4.78,14.61-6.62s10.24-2,15.33-3.08c5.28-1.14,10.64-1.61,15.89-3.33,3.51-1.16,7.73-2.44,11.58,0a4.2,4.2,0,0,0,2.52.37c4.74-.09,9.49-.16,14.24-.12,4.17,0,5.9,3.13,3.9,6.85a6.28,6.28,0,0,1-1.15,1.47c-5.11,5-5.12,5,.1,10.19a85.49,85.49,0,0,1,12.36,15c5.58,8.94,12.19,17.11,18.13,25.77,3.35,4.89,8,9,10,14.7a65,65,0,0,0,7.2,14.59,95.37,95.37,0,0,0,10.77,13.37,304.15,304.15,0,0,1,23.9,27.58,7.08,7.08,0,0,1,1.52,3c1,6.28,5.26,10.79,8.24,16,.91,1.6,2,1.53,3.36.42,2.58-2.13,5.31-4.08,7.82-6.27,5.92-5.17,13.38-8.38,18.84-14,5.21-5.36,11.18-6.78,18.2-6.46,5.86.27,11.74,0,17.62.08,2.32,0,3.58-.47,4.73-3,1.48-3.26,5-5,8.34-6.4a50.61,50.61,0,0,0,6.78-3.12c4.68-2.78,8.34-1,9.15,4.28.39,2.58,1.59,5,1.5,7.69,0,1.46.68,1.92,2.18,1.6,14.75-3.2,21.24,11.25,17,22.61-.73,1.93,0,2.52,1.25,3.57,5,4.26,5.67,9.9,1.7,13.51-.86.79-1.79,2.3-3.1,1.17s.09-2.21.84-3.11C1914.9,1750.24,1914.72,1748.14,1911.56,1745.16Zm-247.45-147.55c-7.58,1-14.94,1.5-22,4.08-4.83,1.75-9.25,4.28-13.89,6.34-4,1.76-6.59,5.1-8.23,9.61-3.07,8.4-2.59,16.94-2.7,25.52a18.87,18.87,0,0,0,1.94,9.45c3.12,5.71,3.31,13,9.23,17.25a10.23,10.23,0,0,1,3.17,4.52c3.61,9.56,9.81,17.71,14.35,26.74,1.69,3.34,4.59,5.86,5.78,9.52a103.27,103.27,0,0,0,4,10c.9,2,1.77,4.11,3.58,5.64,4.29,3.62,6.77,8.75,10.7,12.78,4.07,4.18,6.36,9.94,11,13.85,2.26,1.88,4.61,4.11,5.83,6.7a102.81,102.81,0,0,0,8.58,14.27c5.83,8.44,9,17.86,8.23,28.52-.51,7.26-3.73,12.4-9.41,16.41-1.81,1.29-3.69,2.4-4.88,4.49-3.79,6.61-6.73,13.69-12,19.52-2.48,2.75-4.66,5.75-7.72,7.89-8,5.59-12.69,12.83-11.89,23,.17,2.1-.61,4.38.57,6.25s3.48.73,5.22,1.2a4.06,4.06,0,0,1,1,.39,2,2,0,0,1,1.13,2.5c-.5,1.38-1.41,1-2.38.43-1.23-.74-2.8-1.3-3.65.12-.73,1.22.32,2.58,1,3.76.86,1.46,3,1.89,3,4,.1,3,1.86,5.05,4.17,6.73,5.32,3.86,10.67,7.68,15.95,11.59,1.81,1.35,4.46,1.23,5.82,3.22s3.36,2.27,5.57,2.37c8.92.4,15.79-4.79,22.76-9,6.45-3.86,13.45-6.16,20.28-8.77,4.09-1.56,9.08-1.07,13.71-1.14,5.64-.08,9.48,2.7,12.65,6.74,2.52,3.22,4.5,6.87,7,10.11,5.44,7,6.38,14.89,4.84,23.33-.43,2.34-.58,4.63-2.63,6.37a24.17,24.17,0,0,0-8.65,17.17,72.55,72.55,0,0,0,.08,14.21c1,8.64,5.47,14.22,14.38,15.69a4.18,4.18,0,0,1,2.36,1c3.59,4,9.06,4.25,13.52,6.46,9.85,4.88,21,6.21,31.67,8.69,9.3,2.17,17.7-1,25.28-6.72,4.46-3.37,6.94-8.85,12.35-11.14a2.58,2.58,0,0,0,1.37-1.67c1-7.11,4.66-13.6,4.11-21.11a34.55,34.55,0,0,1,3.35-18.12c2-4.09,4.11-7.71,9.14-9,3.07-.76,6-2.46,8.88-3.88,4.07-2,7.45-5,11.59-6.83,5-2.18,9.44-1.77,12.31,1.61,3.25,3.84,7.54,5.38,12.28,6.19,2.42.41,4.65,1.59,6.9,2.33,7.93,2.59,16.36,2.3,24.29.43,4.62-1.09,8.8-4.17,12.57-8,4.36-4.46,7.85-9,9.08-14.9,1.29-6.17,5.85-11.29,5.4-18-.06-.87.85-1.77,1.22-2.7,1.1-2.73,1.24-5.67-.92-7.7a38.91,38.91,0,0,1-7.4-9.68,8.91,8.91,0,0,0-5.15-4.58c-4.29-1.38-6.78-5.1-6-9.47.81-4.74,2-9.47,4.67-13.65,3.39-5.3,6.59-10.72,10-16,2.2-3.37,2.68-7.47,5-10.81,1.4-2,.62-3.81-2-4.43s-5.27-.84-7.61-1.9c-10.4-4.71-19.15-.5-27.45,5.1a30.6,30.6,0,0,1-10.73,4.73,66.47,66.47,0,0,1-20.87.72c-5-.55-10-2-13.78-6.38-4.14-4.86-7.06-10.53-11.34-15.26a62.38,62.38,0,0,1-7-10c-3.76-6.34-1.75-12.45,4.61-19.09,7-7.34,15.93-12.88,16.86-24.8.71-9.25-5.18-20.76-14-24-4.3-1.6-8.71-3.26-12.48-5.77-4.1-2.73-8.68-3.66-13.15-4.53-9.36-1.82-18.93-.64-28.41-.91-3-.09-6.26.71-8,2.51-4.66,4.82-10.39,8.06-15.61,12-5.79,4.43-11.65,8.77-17.31,13.36-1.95,1.58-2.92,1.06-4.19-.62-3.3-4.38-6.53-8.78-8.83-13.8-1-2.17-.55-4.77-2.11-6.73-3.7-4.68-7.23-9.51-11.17-14-6.26-7.07-13.09-13.63-19-21-4.58-5.76-10-10.75-11.41-18.76-1.06-6-5.28-10.8-9.55-15.31-6.59-7-9.8-16.47-17.12-22.92a3.08,3.08,0,0,1-.58-1c-3.89-8.59-10.54-15-17-21.6a5.74,5.74,0,0,0-7.26-1.17c-7.38,4.77-15.49,2.86-23.35,3.16-3,.12-4.7-1.62-4.57-4.67S1663.8,1600.88,1664.11,1597.61Zm244.29,140.08c4.75-11.8-2.13-20.61-13.85-19a17.24,17.24,0,0,1-3.73,0c-1.17-.1-2-1-1.66-2,1.25-3.38-.72-6.34-1-9.5s-2-4.17-4.76-2.37a19.38,19.38,0,0,1-6.06,2.84c-2.83.69-4.7,2.75-6.95,4.24-1.28.85-2.41,2.71-.14,3.3,6.48,1.7,12.39,4.6,18.46,7.3C1896.46,1725.85,1903.94,1729.23,1908.4,1737.69Zm-222.61,177.82c-3.52-2.83-8.08-4.24-11.18-7.84-.56-.66-1.29-1.43-2.21-.82-.67.44-.47,1.38-.33,2.11.58,2.93,1.35,5.83,1.78,8.78.47,3.23,2.26,3.54,4.78,2.5A29,29,0,0,0,1685.79,1915.51ZM1675,1608.74c-2.47-3.58-2.59-5.57-.77-9.31.36-.75,1.25-1.48.58-2.33s-1.78-.56-2.75-.32c-4.28,1-6.68,4.58-5.92,9.23.69,4.22,4.23,2.24,6.61,2.71A14.55,14.55,0,0,0,1675,1608.74Zm21.87-13.73a18.36,18.36,0,0,0-2.15,0c-1.4.19-3.78-.71-4,.52a6.39,6.39,0,0,0,1.61,5.81c2.27,2.27,4.23,1.6,6.06-.31,1.53-1.6,5.15-2.23,4.23-4.92C1701.74,1593.67,1698.57,1595.59,1696.83,1595Z" transform="translate(-1614.31 -1590.66)"/><path d="M1641.89,1629.51a67.24,67.24,0,0,0-12.73-.77c-3.65,0-7-.59-8.25-4.85-1.13-3.88-.28-7.62,3.54-9.72,5-2.78,9.44-6.84,15.45-7.92,3.69-.65,7.31-1.49,11.08-1.25,1.29.09,2.93.23,2.81,1.78-.29,3.54,1.27,6.71,1.62,10.06C1656.19,1624.48,1651,1629.54,1641.89,1629.51Zm-10.33-3.76c-.58-2.94-2.12-5.58-2.11-8.58,0-1.32-1-1.42-1.81-1.1a6.18,6.18,0,0,0-4.2,4.73c-.33,2.06.82,3.78,3,4.63A8.7,8.7,0,0,0,1631.56,1625.75Zm10.46.77c4.32.59,6.73-1.67,9-3.58s2.23-4.45.94-7.54A56,56,0,0,1,1642,1626.52Z" transform="translate(-1614.31 -1590.66)"/><path d="M1846,1973.75c1.51,3,3,6,4.53,9,.45.89,1.07,1.93-.19,2.58s-1.94-.28-2.44-1.15c-1.22-2.17-2.32-4.41-3.5-6.61-5-9.27-12.81-14.09-23.17-16-7.83-1.47-15.74-2.21-23.54-3.74-1-.2-1.41-.12-1.3,1,.1.93,0,1.86-1.23,1.88a1.82,1.82,0,0,1-1.79-1.64c-.37-2.62-2.18-2.59-4.15-2.57-3.48,0-7-.31-10.18,1.68a6.45,6.45,0,0,1-2.89.46,1.27,1.27,0,0,1-1.38-1,1.17,1.17,0,0,1,.93-1.41c4.09-.74,5.95-4.64,9.26-6.49a16.32,16.32,0,0,1,3.6-1.91c4.84-1.31,5.38-1.2,6.29,3.66.82,4.4,4.56,3.62,7.22,4.37,2.45.7,5.2.37,7.81.46.49,0,1.29.09,1.41-.14,2.14-4.17,7.3-4.06,10.14-7.31,2-2.33,5.31-2.71,8.06-3.74,2.17-.81,4.08.84,4.22,3.08.3,4.79,4.11,9,2.15,14.15-.36,1,.82,1.43,1.4,2,2.82,2.93,6.35,5.2,8.3,8.94A6.25,6.25,0,0,1,1846,1973.75Zm-30.9-17.35c5.45,2.94,11.59,2.41,16.82,5.19,1.34.71,1.78-.76,1.55-1.72q-1.22-5.22-2.75-10.36c-.42-1.4-1.55-.75-2.5-.5C1823.19,1950.35,1820.18,1955.07,1815.05,1956.4Z" transform="translate(-1614.31 -1590.66)"/><path d="M1965.82,1883c-.31,1.49-1,2.07-2.14,2.21-10.94,1.43-15.21,9.07-17.3,18.66-1.54,7.12-4.44,14-3.72,21.55.2,2.08-.44,2.58-2.88,1.26-3.2-1.75-4.31-4.67-5.93-7.3-1.39-2.25-.38-3.87,2.41-3.88,1.68,0,2.51-.35,3.57-2.15,3.84-6.48,3.73-14.17,7-20.77,2.52-5.19,5.4-10.17,9.78-14a3.37,3.37,0,0,1,4.22.12C1962.61,1880,1964.24,1881.64,1965.82,1883Z" transform="translate(-1614.31 -1590.66)"/><path d="M1671,1663.26a2.41,2.41,0,0,1-.38,0c-2.87-.38-6.61,1.37-7.93-2.94-1-3.31,1.62-8.92,5-10.61,4.81-2.39,9.71-4.17,15.34-3.51,6.35.74,8.18,4,5.4,9.92s-8,6.46-13.32,7.09a35.38,35.38,0,0,1-4.12,0Zm-.15-2.72c4.47-.22,8.85-.19,12.56-3,2.13-1.62,3.5-3.78,2.92-6.38-.51-2.27-3-1.72-4.74-2.08-5-1-8.77,1.85-12.79,4-2.46,1.29-3.79,3.64-3.11,6.11S1669.15,1660,1670.81,1660.54Z" transform="translate(-1614.31 -1590.66)"/><path d="M1845.51,1973.3c.71-2.86,3.34-4.2,5.09-6.21,1-1.08,2.4-.44,3.15.79,2.23,3.67,1.82,7.92,2.52,11.93a1,1,0,0,1-1.22,1.09c-1-.12-1.45-1-1.66-1.82-.64-2.52-.43-5.21-1.62-7.89-2,.57-3.29,3.21-5.82,2.56A6.25,6.25,0,0,0,1845.51,1973.3Z" transform="translate(-1614.31 -1590.66)"/></svg>