<svg id="Layer_1" data-name="Layer 1" xmlns="http://www.w3.org/2000/svg" viewBox="0 0 1677.6 1872.77"><title>orpheusmc</title><path d="M1967.39,2433.75a320,320,0,0,0,39.18,34.65c29.5,22.13,61.39,39.89,96.33,52a351.67,351.67,0,0,0,57.62,14.31c8,1.33,16,3.14,23.53,6.52,4,1.83,8.15,3.05,9.82,8.3.88,2.8,5,3.66,8.07,4.24,3.74.71,5.72,2.66,7.63,6.14,2.5,4.55,6.8,8.07,10.11,12.2,7.62,9.5,14.59,19.43,19.34,30.76,5.91,14.11,2.44,27.46-3.29,40.55a258.47,258.47,0,0,1-56.27,81.82c-10.84,10.63-23.66,15.24-38.62,13.81-30.26-2.91-59.86-9.3-88.89-18.12-19.47-5.92-27.38-17.63-28.36-38.08-1.5-31.52,8.4-59.32,26.5-84.6,11.25-15.71,24.6-29.25,40.91-39.82,13.44-8.71,28.06-11.67,43.82-10.37,10.67.88,21.28,2.63,32.14,1.8-9.41-1.83-18.82-3.63-28.22-5.51A321.81,321.81,0,0,1,2071,2522.3a355.84,355.84,0,0,1-62.38-35.62c-20.08-14.36-39.09-30-55.9-48.15-5.29-5.72-11.34-10.73-15-17.93-1.61-3.2-2.25-5.85,0-8.71s5.51-3,8.64-1.8c5.73,2.26,11.33,4.84,17,7.19,48.4,20,98.73,33.1,150.3,41.83,29.4,5,59,8.59,88.61,11.33,20.88,1.92,41.79,3.67,62.77,4.4,2.65.1,5.31.39,7.95.71,3.79.47,5-.4,2.93-4.24-6.84-13-13.27-26.13-19.49-39.4a473.8,473.8,0,0,1-23.78-62c-9.51-31-14.46-62.89-18.13-95q-3-26.05-6-52.08c-.42-3.55-1.27-6.78-5.12-8.47q-19.69-8.61-39.23-17.53c-4-1.81-5.32-1-5.25,3.44.22,16-.11,32,.35,48,.58,20.46-7.33,37.14-21.13,51.67-7.49,7.89-15,15.68-24.86,20.62a35.92,35.92,0,0,1-29,1.86c-4.69-1.65-7.42-5.52-10.46-9-1.65-1.88-3-2.4-5-.83a177.37,177.37,0,0,1-24.72,15.85c5.35.4,8.34,2.53,7.83,7.45-.49,4.75-3.81,6.23-8.11,6.36A9.91,9.91,0,0,0,2036,2346c-3.69,4.47-8.42,4.35-11.42-.53-1.73-2.81-3.15-3.09-5.95-1.77-4.36,2.06-8.89,3.77-13.42,5.45-3.81,1.4-8.15,1.77-9.12,7.07-.32,1.74-2.53,2.49-4.2,3.3a583.19,583.19,0,0,1-80.27,31.87c-4,1.25-7.75,2-11.3-1.09a4.51,4.51,0,0,0-2.79-.82c-17.21.11-33.49-5.29-50.07-8.69-45.67-9.39-91.38-18.58-136.71-29.53-40.32-9.73-80.34-20.59-119.43-34.51-35.34-12.58-69.88-27-101.54-47.59-34.08-22.15-53.55-52.77-56.26-93.81-2.84-43.17,7.57-83,30-119.6a168.69,168.69,0,0,1,49.23-51.79c3.28-2.22,6.44-2.82,9.29.61,2.63,3.15,2.18,7.28-1,10.29a21.28,21.28,0,0,1-2,1.5,167.34,167.34,0,0,0-13.37,10.44c-21.56,19.09-36.72,42.48-46.84,69.23-8.39,22.17-12.93,45.17-12.36,68.91.45,18.6,3.62,36.73,12.59,53.45,8.53,15.87,21.74,27.23,36,37.48,23.46,16.86,49.91,27.85,76.48,38.62,31.7,12.84,64.27,23.06,97.22,32,38.72,10.53,77.81,19.51,117.11,27.61,30.49,6.29,60.9,13,91.37,19.34,9.07,1.89,18.21,2.42,27.58,2.65,17.08.42,30.82-8.26,46-13.06,2-.61,3.19-1.87,2.89-4.06-.66-4.8,2.31-6.86,6.11-8.47a268.89,268.89,0,0,1,28.29-9.85c14.93-4.44,29.5-9.63,41.53-20,14.12-12.22,21.12-28.36,25-46.15,3.64-16.68,4.12-33.69,5-50.64.54-10.82,1.64-21.57,2.58-32.35.55-6.3-.51-12.59-1.63-18.81a3.51,3.51,0,0,0-1.22-2.1c-5.28-3.67-3.94-8.18-1.78-12.84a35,35,0,0,0,1.63-3.65c2.63-7.91.65-11.13-7.54-11.59-20.44-1.17-40.91-2-61.34-3.26-27.9-1.75-55.75-4.11-83.52-7.54-19.65-2.42-39.23-5.43-58.6-9.38a426.65,426.65,0,0,1-97.37-32.51c-8.72-4.13-17.33-8.45-25.74-13.18-5.54-3.12-7.17-6.73-4.79-10.7s6.11-4.27,11.33-1.33a409.47,409.47,0,0,0,133.47,47.27c33,5.6,66.2,9.45,99.57,12,22.4,1.73,44.81,3.33,67.28,4,8.3.25,16.6.95,24.86,1.81,3.77.4,5-.86,5.65-4.46a84,84,0,0,1,19.8-40.83,60.69,60.69,0,0,1,17.6-13.81c3.49-1.85,3.2-3.16.14-5.06a34.43,34.43,0,0,1-15.21-19.76c-1.22-4.09-3.24-6-7.27-7.52-12.26-4.73-24.11-10.46-36.3-15.36a820.3,820.3,0,0,0-117.33-37.57c-21-5-41.65-3.3-62.14,2.71-4.79,1.41-9.6,2.76-14.4,4.14-9.54,2.75-16-2.76-14.41-12.59,1.41-8.88,3.29-17.68,4.74-26.55,3.5-21.52,7-43,10.17-64.61,4.15-28.12,8.32-56.23,12-84.41q5.94-45,10.08-90.3c4.17-46,6.38-92,5.59-138.17-.22-12.81-1.19-25.61-1.81-38.41-.15-3.12.86-5.41,4-6.66,3-1.18,5.2.06,7.31,1.76a6.4,6.4,0,0,1,2.09,4.92c1.68,31.1,2.77,62.2,1.35,93.37-.71,15.63-1.23,31.27-2.21,46.9-1.52,24.42-3.83,48.78-6.47,73.11-3.05,28.12-6.67,56.18-10.58,84.21-.84,6-1.64,12.1-2.57,18.92a150.1,150.1,0,0,1,31.43-16.54,137.89,137.89,0,0,1,39-8.22c22.82-1.56,45.21,1.49,67.22,7.51,40.29,11,78.48,27.58,116.55,44.47a243,243,0,0,1,36,19.35c11.86,7.86,21,18.3,30.22,28.86l10.18,11.66c1.7,2,3.23,2.93,5.85.86,3.31-2.61,6.56-1.48,9.26,1.49,5.26,5.79,8.66,13,14.24,18.6,2.45,2.46,1.71,6.16-.64,8.7-3.44,3.73-.25,6.92.54,10.2.74,3.06,3.68,2.25,5.92,2.24a75.5,75.5,0,0,1,28.33,5.21c7.74,3.1,14.64,8.53,21.56,13.42q39.69,28.08,53.94,74.67c1.67,5.48,2.53,11,1.31,16.74-1.69,8-6.82,13.13-14.47,14-27.91,3.09-55.61,3.06-81.75-9.49a86.84,86.84,0,0,1-10.37-6c-1.9-1.26-2.9-1.32-3.57,1-4.13,14.2-10.82,27.18-19,39.42-1.67,2.49-1.34,5-.68,7.67a548.88,548.88,0,0,1,11.5,63.36,6.79,6.79,0,0,0,4.59,5.89q33.33,14.2,66.63,28.45c37.54,16,75.59,30.8,111.43,50.48,4.82,2.65,9.42,5.67,14.12,8.52,7.4,4.51,7.91,8.15,1.79,14.61,22.66,4,37.31,19,50.47,36,3.36,4.35,6.78,8.66,10,13.11,6.63,9.15,8.19,19.62,6.9,30.48-2.68,22.38-8.82,43.66-20.59,63.16-14,23.14-34.19,37.4-60.48,42.84-22.16,4.58-44.49,4.88-66.17-2.18-10.78-3.51-21.67-2.72-32.51-3.89-4.15-.45-3.54,1.66-2.07,4.09,5.59,9.28,10.34,19,16.34,28.07,7.67,11.53,15.58,22.83,25.74,32.38,14.52,13.66,30.86,23.35,51.56,22.78,15.39-.42,28.57-6.91,40.63-16,15.28-11.54,27.54-26,39.46-40.8,14.59-18.17,29-36.6,48.52-50a85,85,0,0,1,33.41-13.93c5.54-1,8,.92,9.25,6.37a296.56,296.56,0,0,1,4.38,102.76c-1.8,13.83-4.24,27.69-1.45,41.7a41.44,41.44,0,0,0,10.3,20.8c10.63,11.16,22.38,11.67,36,2.73,8.79-5.78,14.95-14.12,20.88-22.63,7-10.1,13.65-20.52,22.89-28.89,12.66-11.45,23.84-11.49,36,.37,9.4,9.2,17.76,19.46,27.88,27.93,6.39,5.35,12.88,10.49,21,13.28a40,40,0,0,0,17.16,2.39c4.13-.41,7.42.25,8,5.15s-1.94,7.92-7.06,8.34a52.72,52.72,0,0,1-29.89-6.22c-16-8.6-28.11-21.72-40.36-34.67-2.18-2.3-4.21-4.73-6.48-6.93-5.81-5.61-9.46-5.8-15.64-.68s-10.83,11.71-15.66,18.07c-5.94,7.83-10.82,16.44-17.45,23.75-9.4,10.36-20,18.53-34.65,19.84-22.8,2-38.34-14-44.11-33.06-4.24-14-3.63-28.36-1.7-42.61,4.36-32.19,5.33-64.31-.56-96.42-1.36-7.45-1.42-7.44-8.35-4.61-16.46,6.73-29.32,18.19-41.08,31.09-16.84,18.44-31,39.23-49.16,56.49-16.34,15.57-34.86,27.22-58.15,29.47-17.51,1.69-33.23-2.93-47.81-12.35-23.69-15.31-38.8-38-52.8-61.6-4.51-7.58-8.61-15.41-12.66-23.26-1.57-3-3.56-4.15-7-4.35-29.91-1.74-59.8-3.64-89.63-6.59-34.48-3.41-68.77-7.92-102.76-14.61-40.58-8-80.44-18.62-118.95-33.91A14.21,14.21,0,0,0,1967.39,2433.75Zm204.64-473a29.79,29.79,0,0,0,11.32-1.64c3.3-1,5.27-8.39,2.94-10.91-2.94-3.16-6.13-6.14-8.78-9.53a134.24,134.24,0,0,0-49.42-39.6c-33.2-15.52-66.87-29.91-101.53-41.87-24.82-8.56-50.11-14.77-76.58-15-31.45-.28-59.92,7.52-83.32,29.8a10.66,10.66,0,0,0-3.64,6.68c-2,13.81-4,27.62-6.27,41.4q-4.37,26.82-9.11,53.59c-.63,3.57.49,4.19,3.65,3.29,4.8-1.35,9.61-2.72,14.49-3.76,14.35-3.07,28.73-5.54,43.56-3.83,18.29,2.11,35.92,7.1,53.5,12.15a844.22,844.22,0,0,1,114.28,42c3.1,1.4,4.4,1,4.93-2.61,2.43-16.49,9.56-31.08,18.86-44.68,10.87-15.89,25.57-23.17,45.08-19.82C2154.66,1958,2163.17,1960.5,2172,1960.79Zm118.17,428.15c-.47,8.76.86,19.34,3.22,29.74,4.75,20.87,13.06,39.78,30.7,53.29,5.69,4.36,11.65,7.54,19.16,6.75,4.12-.44,8.07-.06,10.08,4.54.74,1.68,2.51,1.37,3.95,1.57a135.23,135.23,0,0,0,35.33,0c21.53-2.68,39.69-11.78,53.53-28.81,13.26-16.32,19.92-35.49,24.34-55.7,3.42-15.63,1.26-29.69-10-41.75-3.29-3.52-6-7.52-9.23-11.15-9.11-10.4-19.16-19.61-33.12-22.9-9-2.13-18.23-3.72-27.34-5.61a4.13,4.13,0,0,0-2.9.08c-4.42,2.37-9.14,1.32-13.73,1-14.28-.89-28.58-1.9-42.88-1.46-19.62.6-30.85,9.95-36.19,29C2291.48,2360.4,2290.06,2373.59,2290.2,2388.94ZM2144,2725.86c8.91.78,16.27-2.42,23-8.05,11.38-9.61,20.63-21.12,29.49-32.9a236,236,0,0,0,27.67-48.49c4.28-9.88,6.84-19.9,1.66-30.33-6.19-12.47-14.55-23.41-23.8-33.72-3.9-4.34-8.71-5.91-14.61-6.28-17.11-1.07-34.22-2.42-51.24-4.4-15.92-1.84-30.06,1.72-42.7,11.43-19.05,14.64-34.39,32.41-45,54.05-7.72,15.76-12.38,32.35-12.05,50,.38,20.16,5.57,27.05,24.93,32.52,11.22,3.17,22.57,5.9,34,8.36A390,390,0,0,0,2144,2725.86Zm164-249.36c-5.89-7.05-11.25-13.79-15.42-21.28-9.15-16.43-13.51-34.23-15.08-52.91-1.76-21-.25-41.63,5.61-61.8,5.57-19.19,17.65-31.9,38.3-34.55a119.92,119.92,0,0,1,21.93-1c4.14.22,7.8-.45,11.12-3.28,2.71-2.32,6.2-2.91,9.81-3.12,8.57-.5,16.45,2.09,24.27,5a79.82,79.82,0,0,0,21.42,4.93c-2.29-1.56-3.32-2.34-4.43-3a493.85,493.85,0,0,0-46.88-24.56c-34.66-15.92-70.12-30-105.23-44.86-8.88-3.77-17.75-7.56-26.58-11.45-3.59-1.58-5-.63-4.46,3.24.3,2.15.66,4.28.9,6.43,3.81,33.9,7.52,67.78,14.47,101.26,10.21,49.19,31.5,93.89,54.55,137.94.88,1.68,1.88,3.07,4.14,3C2300.06,2476.41,2303.7,2476.5,2308,2476.5Zm-212.6-454.09c-.68,17.8,4.22,28.14,16.25,34.16,10.81,5.41,22.73,7.39,34.41,10,2.35.53,3.61-.87,4.91-2.58,7.86-10.35,16-20.54,26.16-28.72,4.57-3.67,5.69-6.91,3.59-12.65-4.34-11.84-1.95-17.41,8.48-24.61,2.59-1.8,6-2.45,7.92-5.09a20,20,0,0,1,12.57-8.35c1.78-.37,3-1.13,2.74-3.38-.91-6.85-10.63-16.84-17.39-17.74-2.06-.27-3.66,0-3.83,2.62-.29,4.5-3.39,6.2-7.25,7a49.47,49.47,0,0,1-10.39,1.18c-9.58-.08-18.71-2.9-28.06-4.4-8.34-1.34-17-2.28-23.76,4C2106.35,1988.19,2097.58,2006.07,2095.38,2022.41Zm110.16,178.17c-2-17.12-5.17-32.89-8.25-48.67-.7-3.59-2.05-3.51-4.38-1.06a133.52,133.52,0,0,1-27.42,22.25,12,12,0,0,0-3.94,4.42c-1.05,1.78-.65,3.18,1.28,4Z" transform="translate(-1093.77 -866.69)"/><path d="M2367.78,1301.25c-7,2.59-12.62,5.07-18.67,6.37-7.13,1.53-8.93.64-11.26-6a122.5,122.5,0,0,1-4.69-63,22.55,22.55,0,0,0,.34-2.45c0-.26-.27-.55-.68-1.3-3.79,2.35-7.59,4.62-11.31,7-25.27,16.27-53,25.44-82.77,28.56a186.29,186.29,0,0,1-54.21-2.06,39.79,39.79,0,0,1-3.9-.84c-6.14-1.76-7.76-7.25-3.23-11.83,13.47-13.61,26.8-27.34,39.69-41.49,25.69-28.21,48.79-58.19,64.1-93.53,1.46-3.37.7-4.6-2.6-5.74-16.07-5.55-31.24-12.95-42.8-25.75-18.24-20.2-26.62-43.47-17.89-70.42,7.76-24,33.3-38.25,57.94-33.23,3.68.75,4.86.63,4.3-3.85-1.17-9.22-1.71-18.55-2-27.85-.45-12.81-1.68-25.59-1.49-38.43.27-18.78,7.93-30.48,25.93-35.85,26.22-7.84,52.91-14.06,80.57-12.59,27.49,1.47,51.35,10.9,67.91,34.32,4.48,6.34,7.21,13.48,9.12,21,2.85,11.12,5.63,12.81,16.25,8.31,16-6.77,32-13.17,49.16-16.24,23.71-4.25,47.14-4.21,69.77,5.08a82.3,82.3,0,0,1,30.55,22.08c14.42,16.37,22.66,35.1,21.48,57.4-.18,3.41-2.72,7.21-.34,10.14,2.16,2.67,6.28,2.77,9.53,4a157.47,157.47,0,0,1,55.2,34.4c22.65,21.85,38.66,47.89,44.77,79.19,3.25,16.65,2.77,33.25-5.06,48.77-10.57,20.94-27.72,31.69-51.32,31.9a57.83,57.83,0,0,0-12.92,1.12c-9.27,2.16-13.21,7.17-13,16.71.16,6.54,2.26,12.76,3.2,19.19a87.47,87.47,0,0,1-5.27,45.11c-14.22,36.54-47.08,58.67-86.25,57.83-18.08-.39-34.71-5.89-49.87-15.62-2.88-1.85-4-1.47-5.72,1.26-11.8,18.38-26.77,33.63-46.09,44-29.09,15.67-59.61,21.77-91.33,9.33-18.48-7.24-30.34-21.82-32.13-44.44a78.32,78.32,0,0,1,4.51-32.44C2366.11,1307,2366.75,1304.61,2367.78,1301.25Zm8.75-421.06a152.43,152.43,0,0,0-24.31,2.16c-15.17,2.25-30.17,5.15-44.77,9.83s-19,13.43-17.84,28.39q2.86,37.35,4.65,74.77c.45,9.31-3.87,11.67-12.07,7-18.25-10.34-41.38-1.5-49.71,16.93-7.73,17.08-5.13,33.58,4.3,49.15,10.06,16.61,25.75,26,43.43,32.73,7.19,2.71,7.17,2.75,9.49-4.53,1.58-5,4.62-6.94,8.85-5.78s5.72,4.26,4.12,9.56c-2.36,7.81-4.49,15.56-7.83,23.23-17.2,39.38-42.8,72.75-71.66,103.95-8.14,8.8-16.57,17.32-24.89,26-1.85,1.92-1.77,3.08,1.12,3.44,1.15.14,2.28.54,3.44.6,18.35.86,36.64.65,54.66-3.52,26.69-6.16,51-17.43,72.37-34.63,2.41-1.94,4.8-3.51,8.15-2.81,8.81,1.83,12.44,7.49,10.32,16.31-.23,1-.46,1.94-.71,2.91-4.54,17.65-4.11,35.23.32,52.85,1,3.85,2.36,4.88,6.17,3.37,8.41-3.33,16.5-7.15,23.83-12.5,2.58-1.89,5.51-2.83,8.3-.59s3.54,5.52,2.24,9c-.46,1.25-1.1,2.42-1.67,3.63-5.15,11-10.21,22.13-12,34.27-3.6,23.86,3.87,42,29.42,49.93,13.4,4.15,27.07,4.1,40.52,1.23,35.14-7.48,61.16-27.42,78.14-59.1,4.31-8,7.17-8.79,14.09-2.8,25.52,22.07,67.82,25.43,95.49,4.49,19.54-14.79,29.82-34.32,32.36-58.35,1.23-11.64-2-22.81-3.66-34.13-2.3-15.34,6.29-28.2,21.46-31.63a93.14,93.14,0,0,1,18.85-1.88c14.26-.28,25.43-6.09,33.87-17.88,9.28-13,11.36-27.44,9-42.4-5.13-32.7-22.58-58.76-46.7-80.47-17.46-15.73-38.09-26.09-60.86-32.13-6.08-1.61-7.63-4.34-5.66-10.37a51,51,0,0,0,2.08-25.61c-6.94-36.76-41.41-61.65-82-60.17-19.52.71-38.1,5.85-56.29,12.67-6.55,2.46-12.67,6-19.47,7.8-14.29,3.87-22.78-.73-26.87-15.06-3.29-11.53-7.67-22.25-16.85-30.58C2416,885.18,2397.17,880.16,2376.53,880.19Z" transform="translate(-1093.77 -866.69)"/><path d="M2043,1336c-4.69-40.35-12.9-79.75-36.11-114.09-18.36-27.18-43.18-46-75.86-53a82.37,82.37,0,0,0-35.19.22,657.15,657.15,0,0,0-117.31,37.15c-27.43,11.62-52.55,27.17-76,45.68-19.87,15.7-36.42,34-49.18,55.88-9.82,16.77-16.28,35-23.05,53.08a1486.16,1486.16,0,0,0-53.7,176.72c-9.73,40.82-17.62,82-24.11,123.48-3.06,19.55-5,39.3-8.27,58.8-3,17.44-4.25,35-5.85,52.56-2.37,25.85-4.21,51.75-5.9,77.66-.89,13.62-.74,27.3-1.5,40.94-1.18,21.15-.63,42.3-.61,63.46,0,9,.66,18,.85,27,.12,5.41-1.86,7.65-6.23,7.68s-7-2.63-7.19-7.71c-1-26.81-1.58-53.62-.8-80.44.65-22.29,1.33-44.61,2.91-66.85,2.07-29.21,4.23-58.41,7.46-87.53,4.26-38.54,10.07-76.88,16.4-115.11,7.28-44,16.76-87.64,28.11-130.82,7.45-28.35,15.6-56.48,24.7-84.35,10.59-32.45,21.6-64.77,35.26-96.05,12.08-27.68,29.37-52,52.6-71.43a365.12,365.12,0,0,1,103.45-61.35c27.25-10.49,55.2-18.63,83.16-26.8,18-5.26,36.24-8.28,55.07-6.11,22.12,2.54,41.44,11.68,59.12,24.83,22.68,16.88,38.24,39.23,49.26,64.85,9.39,21.82,15.06,44.77,18.75,68.21a781.24,781.24,0,0,1,9.28,103.37c.3,12.87.26,25.65-1.61,38.33-4.48,30.34-22.48,49.09-51,58.71-19.42,6.54-39.4,6.25-59.36,4.8-19.24-1.4-38.37-4.48-57.72-4.47-15.84,0-28.08-6.14-37.49-19.1a213.82,213.82,0,0,1-31.57-62c-2.16-6.9.36-10.7,6.67-10.39,3.63.17,5,2.34,6,5.55,5.28,16.92,12,33.21,22,48,3.06,4.56,6.53,8.84,9.85,13.22,6,7.88,13.93,11.43,23.81,11.23,19.2-.4,38.1,3.07,57.15,4.68,23.42,2,46.7,2.16,68.22-9.44,15.43-8.32,25.72-20.7,29.52-38.2,3.61-16.65,2.93-33.39,2.06-50.22-1-19.45-2.2-38.88-4.32-58.25-.45-4.12-1.17-8.21-1.76-12.31Z" transform="translate(-1093.77 -866.69)"/><path d="M1396.87,2739.39a471.05,471.05,0,0,1-155.57-24.16c-34.3-11.36-67.08-26.13-96.07-48.11-22.57-17.11-40.37-38.09-49.85-65.33-3-8.62-2.2-10.81,5.85-15,24.52-12.89,50.25-23,76-33,24.52-9.53,49.25-18.49,73.71-28.16,35.4-14,69.51-30.7,100.56-52.89,23-16.47,44.55-34.81,63.76-55.83a459.54,459.54,0,0,0,35.09-42.87,388.82,388.82,0,0,0,42.77-76c1.41-3.38,2.83-6.77,4.43-10.06a7.09,7.09,0,0,1,9.61-3.67c4.22,1.85,4.23,5.11,2.75,8.77a442,442,0,0,1-31.67,63.38,412.29,412.29,0,0,1-44.41,60.22,458.76,458.76,0,0,1-64.74,60c-41.77,31.84-89.19,52.56-137.81,71.1-37.8,14.42-76,27.79-112.58,45.33-10.84,5.21-10.93,5.61-5.46,16.59,12.4,24.89,32.25,42.53,55.27,57,35,22,73.33,36.23,113.29,46.19a462.72,462.72,0,0,0,98.75,13.2A471,471,0,0,0,1499,2714.44a459,459,0,0,0,105.49-38c24.28-12.25,47.41-26.45,67.14-45.54,1.57-1.53,3.1-3,3.38-5.36,2.12-17.51,18.06-28.46,37.25-28.63,8.74-.07,17.31,1.35,25.75,3a1083.27,1083.27,0,0,1,120.8,31.27,1029.4,1029.4,0,0,1,115,44.55c10.57,4.86,21,9.95,31.54,15,5.49,2.64,7.06,5.67,5.16,9.55s-6.32,4.79-11.31,2.36c-19-9.28-38.15-18.25-57.68-26.4a1070.93,1070.93,0,0,0-118.19-41.56c-33.49-9.57-67.24-18-101.59-23.8-11.25-1.92-22-1-30.12,8.68-1.75,2.1-3.3,4.52-2.64,7.27,1.28,5.29-1.58,8.43-5,11.62a293.62,293.62,0,0,1-61.24,43.72,476.69,476.69,0,0,1-134.44,48.21C1457,2736.62,1425.43,2740,1396.87,2739.39Z" transform="translate(-1093.77 -866.69)"/><path d="M1852.62,1392.14a55.78,55.78,0,0,1-22.37-.23c-23-5.29-32.33-27.59-20.28-48.19,9.41-16.07,24.34-21.79,41.83-22.87a109.36,109.36,0,0,1,20.93,1c4.77.61,9.21,1.43,13.85-1.62a5.7,5.7,0,0,1,8.47,2.78c3.32,8.32,10.4,13.26,16.39,19.17,6.66,6.56,12.41,13.33,12,23.63-.37,9.25-4.5,15.83-12.38,20.22-7.45,4.15-15.72,5.66-24,6C1875.58,1392.49,1864.09,1392.14,1852.62,1392.14Zm-8.08-12.55c-1.93-2-3.52-.47-5-.57-3.18-.2-5.83-1.14-7.27-4.32s-.13-5.41,2.13-7.49c14.07-13,42.31-16.1,58.75-6.57,3,1.72,5.23,3.83,4.61,7.5s-3.15,5.41-6.65,5.69c-1.86.15-2.92.72-2.61,2.68s1.78,2.25,3.4,1.89a55.07,55.07,0,0,0,8.7-2.17c9.94-4,12-11.78,5.55-20.29-3.33-4.43-8-7.46-11.63-11.6-4.2-4.83-8-10.38-15.85-8.24a3.68,3.68,0,0,1-1.47-.2,123.08,123.08,0,0,0-26.35-1.65c-16.13.56-28.24,9.63-31.9,23.87-1.49,5.8-.22,11.11,4.06,15.14C1828.85,1378.78,1836.19,1380.2,1844.54,1379.59Z" transform="translate(-1093.77 -866.69)"/><path d="M2043,1336c-.4,4.79.86,9.55-.21,14.39-3.82,17.3-18,30.48-37.42,33.56-18.54,2.94-36.1,0-52-10.51-8-5.26-12.87-12.4-12.08-22,.77-9.31,6.73-15.1,15.16-18.78,8.23-3.6,17-4.46,25.69-5.9,5.41-.89,10.84-1.68,16.27-2.46,2.6-.37,4.1-1,3.68-4.38-.54-4.37,2-6.57,7.06-7.1a30.31,30.31,0,0,1,30.2,16.25l3.73,7Zm-13.21,8c.23-4.26-1.81-8.39-4.8-12.1-.65-.81-1.65-2.92-2.94-.74-2,3.39-5.36,3.74-8.59,4.24-11.16,1.73-22.34,3.28-33.51,4.95-6.59,1-13.18,2.15-19.17,5.18-7.27,3.66-8,9.64-1.94,15a40.07,40.07,0,0,0,11.1,6.56c4.29,1.82,6.47,1.7,8.5-3.3,3.83-9.43,13.61-13.94,23.66-12.36,6.5,1,11.37,4.45,15.41,9.31,1.37,1.65,2.49,2.61,4.33.63C2026.21,1356.59,2029.81,1351.5,2029.78,1344Z" transform="translate(-1093.77 -866.69)"/><path d="M2526.75,1242.35c1.31-14-4.47-25-16.34-33a24.8,24.8,0,0,0-11.69-4c-7-.7-9.29,1.56-8.28,8.56a63.22,63.22,0,0,1,0,20.36c-2,11.11-8,19.61-17,26.13-9.39,6.83-20,11.24-30.87,15.07-9.66,3.42-16.7-1.06-16.86-11.24-.36-22.46-.38-44.93.19-67.38.31-12.27,7.62-18.41,19.86-18,5,.16,9.9,1.18,14.86,1.77,7.1.84,9.59-1.38,9.25-8.56-.21-4.31-.87-8.6-1.17-12.92-1.17-16.65,9.13-24.09,23.13-25.3,5.7-.49,11.3.49,16.88,1.37s10.92.61,16-2.2c2.81-1.56,5.67-2.1,8.23.56s2.26,5.56,1,8.78c-3.32,8.51-1.43,17.37-1.32,26.09,0,2.52,2.74,3,5,3.21,5.48.39,11,.9,16.45,1.1,13.12.49,17.93,4.57,19.33,17.72,1.79,16.81,2.06,33.56-3.86,49.83a50.29,50.29,0,0,1-16.53,23.29c-5.35,4.14-11.49,5.73-17.83,3s-8.15-8.42-8.46-14.74C2526.63,1248.81,2526.75,1245.8,2526.75,1242.35Zm-87.68-14.19c0,9.84,0,19.67,0,29.5,0,3.49,1.24,4.51,4.58,3.19,7.31-2.87,14.48-6.12,20.85-10.69,8.7-6.25,14.1-14.32,13.34-25.78-.33-4.81-.76-9.62-1-14.43-.41-9.68,4.19-15.59,13.65-17.22a37.7,37.7,0,0,1,29.81,6.94c16.1,12,22.62,28.27,19.48,48.23-.32,2-.9,4.22,1.29,5.36,1.93,1,3.48-.58,4.88-1.7,5.92-4.77,9.39-11.13,11.67-18.25,4.26-13.31,3.27-27,2.9-40.65-.11-3.94-2.33-6.26-6.71-6.5-7-.38-13.93-1.07-20.88-1.83-9.7-1.07-13.85-5.7-14-15.45-.08-5.49,0-11,0-16.49,0-2.15-.26-3.9-3.16-4-7-.27-13.95-1-20.93-1.12-9.71-.11-13.29,3.84-12.5,13.62.43,5.31,1.25,10.58,1,15.94-.38,8-5.46,14-13.06,16.36s-14.5-.48-21.67-1.34c-6.88-.82-9.41,1-9.51,7.83C2439,1209.17,2439.07,1218.67,2439.07,1228.16Z" transform="translate(-1093.77 -866.69)"/><path d="M2445.81,1124.33c-10.16,0-20.31.12-30.46,0-11-.18-16.84-5.76-16.53-16.77.44-16,1.5-31.88,2.33-47.82.35-6.75,1.56-13.41-1.24-20.13-1.87-4.46,2.13-8.41,7.9-9,11.74-1.14,23.46-2.58,35.22-3.5,14.58-1.15,29-4,43.62-4.33,11.95-.25,17.48,5.28,17.67,17.22.28,16.66-1.86,33.2-2.53,49.82-.14,3.48-.32,7-.5,10.46-.78,14.83-9.16,23.19-24,24-.49,0-1,0-1.49,0h-30Zm8.21-13.55c7.49,0,15,.31,22.48-.08,7.82-.41,10.69-3.46,11.25-11.24q2-28.14,3.82-56.3c.35-5.26-1.29-7.16-6.61-6.86-6.8.38-13.58,1.26-20.36,2-14.89,1.57-29.77,3.19-44.67,4.75-2.85.3-4.53,1.42-4.69,4.63-1,18.95-2.14,37.88-3.07,56.83-.28,6,1,7.11,6.89,7.13C2430.72,1111.66,2442.35,1110.31,2454,1110.78Z" transform="translate(-1093.77 -866.69)"/><path d="M2567.66,1120.25a147.48,147.48,0,0,1-23.48-1.85c-9-1.53-12-4.9-12.13-14.15-.06-7.8.3-15.64.91-23.42a528.51,528.51,0,0,1,6.74-53.93c1-5.73,4.19-7.9,9.53-5.56a10.71,10.71,0,0,0,8.13.12c18-5.67,36.4-7.55,55.16-6.68,12.4.57,17.44,5,18.92,17.36,1.7,14.29-.15,28.57-.75,42.84a93.07,93.07,0,0,1-2.58,19.75c-2.22,8.55-7.59,14.13-15.56,17.63-10.08,4.43-20.89,5.37-31.58,6.82C2576,1119.85,2571,1120,2567.66,1120.25Zm51.29-75-.34,0c0-3.5.13-7,0-10.49-.18-3.79-2-6.26-6.11-6.48a147.05,147.05,0,0,0-57,8,6.17,6.17,0,0,0-4.64,5.7c-.94,7.75-2.44,15.45-3.14,23.23-1.06,11.93-1.63,23.9-2.39,35.85-.14,2.3.1,4.34,3.11,4.7a133.82,133.82,0,0,0,57.66-5.2c6.62-2.12,10.12-7.47,10.56-14.41C2617.54,1072.47,2618.2,1058.85,2619,1045.23Z" transform="translate(-1093.77 -866.69)"/></svg>