<svg id="Layer_1" data-name="Layer 1" xmlns="http://www.w3.org/2000/svg" viewBox="0 0 742.17 331.16"><title>restaurant_dinosaur</title><path d="M1585.52,1889.49c-4.86-2.85-9.52-6-13.16-10.35-4.84-5.76-11.85-9.19-16.34-15.25-4.29-5.8-8.39-11.74-12.51-17.65-1.12-1.6-1.89-2.8-3.68-.49a65,65,0,0,1-5.76,5.87c-1,1-2,2.12-3.45,2-3.26-.18-3.27,1.26-2.54,3.87,2.51,8.94-.83,16.57-5.76,23.75-1.27,1.84-3.45,2.06-5.35,2.3-11.89,1.52-23.5,1.32-34.5-4.64-8.54-4.64-17.69-5.63-27.51-4.45a28.93,28.93,0,0,1-23.94-8.2,15.75,15.75,0,0,1-5.27-9.79v-20.25c10.14-16.5,25.46-21,43.73-19.22,7,.69,13.85,1.66,20.43,4.15,1.44.54,2-.28,2.74-1.22,2.28-3,5.58-5,8.32-7.51a9.07,9.07,0,0,1,4.64-2.21c-.07-1.24-1-1.78-1.75-2.38-9.65-8.22-7.12-18-2-25.46,3-4.4,6.59-8.49,11.84-10.53,1.07-.42,1.37-1,1.31-2.26a192.8,192.8,0,0,1,4.18-49.38c2.81-13.27,8.78-25,15.95-36.42,10.56-16.77,24.79-29.67,41.07-40.62,3-2,6.95-2,9.55-4.84a1.74,1.74,0,0,1,1.7.16c2,2.44,4.81,1.61,7.35,1.72,5.83.23,11.67-.53,17.42,1.51,10.66,3.79,20.43,12.92,19.42,25.76a10.79,10.79,0,0,1-4.45,8.18c-5.87,4.61-12.86,6.4-20,7.81-4.51.89-8.77,2.66-13.31,3.53-3.3.64-4.59,4.07-6,6.84a68.18,68.18,0,0,0-6.81,27c-.45,7.87-.48,15.72-.51,23.57a78.73,78.73,0,0,0,.85,9.67c.32,2.77,1.45,3.19,3.82,1.48,4.06-3,7.26-6.83,10.9-10.21,12.72-11.84,24.38-24.67,33.59-39.54a6.39,6.39,0,0,1,5.3-3.12c4.81-.06,9.73-1.12,14.42,1,2.06.91,3.66.61,4.11-2.36-4.06.4-8,.79-10.81-3.39-1.43-2.14-2.58-4-1.68-6.47a7.07,7.07,0,0,1,6.33-4.59c2.44-.27,4.78,0,7-1.84a3,3,0,0,1,4.58,1.69c.77,2.31.61,4.63-2.83,4.56,1.19,3.75,2.95,4.51,5.91,2.29,2.78-2.07,6.35-2.11,9.47-3.31,3.56-1.38,6.85-3.18,6.23-8a2.83,2.83,0,0,1,1.58-2.78c.43-.25,1.58-.21.75-1.13-1-1.11-1.15-2,.36-2.56s2.6.28,3.42,1.58c3.44,5.41,2.75,10.43-2.21,15.42-1.38,1.39-2.81,2.73-4.77,4.61,4.14-.71,6.36-3.18,8.8-5.14,1-.84,1.94-1.89,3-2.77,1.62-1.33,3.9-2.77.41-4.65a1.09,1.09,0,0,1-.59-1.55c.48-1,1.38-.9,2.27-.9s1.86.89,2.24-.43-.61-2.05-1.61-2.65-3.07-.33-1.91-2.22c.8-1.32,2.51-1,3.75-.25A4.68,4.68,0,0,1,1696,1681c0,.87,0,1.75-.07,2.62a24.72,24.72,0,0,0-.56,4.79c.11,1.17-1.24,3.63,1.09,3.38a15.72,15.72,0,0,1,4.82.16c.46-2.76-.58-6.65,4.4-5.91,3,.45,3.88,2.54,3.76,5.1s-.77,4.92-4.16,4.3c-1.72-.31-2.47,0-2.58,1.94-.18,3.2-2.64,5.29-4.39,7.65-1.17,1.6-3.22,1.21-4.88.68s-1.63-2-1.67-3.45a13.92,13.92,0,0,1,.56-4.13,16.24,16.24,0,0,1-6.74,4.41c-3,1.25-4.8,3.46-6.57,5.86-.91,1.24-2.39,2.68.41,3.57a.82.82,0,0,1,.46.55c1,7,6.1,10.44,11.43,14.06a13.62,13.62,0,0,1,6.13,13.59c-.32,2.46-1.32,4.63-4.33,4.78a1.5,1.5,0,0,1-1.56-.81c-.32-.7.13-1.12.57-1.6,4.27-4.61,1.87-12.15-4.44-14-.23,5.64,1.21,11.42-1.48,16.86-.6,1.21-1,2.94-2.77,2.36-2.15-.7-.4-2.21-.4-3.4,0-4,2-8.24-1-12-.83-1.06-1.7-2.28-2.55,0a4.53,4.53,0,0,1-3.8,2.65c-3,.36-4.3,2.38-5.73,4.35-8.93,12.29-19.35,23-32.16,31.36-.42.27-.83.56-1.24.84-4.25,2.94-4.35,4,0,6.9a63.8,63.8,0,0,1,11.19,9.33c2.66,2.8,5.47,5.47,8.26,8.11,6.32,6,11.46,12.83,16.71,19.64,1.58,2,3,3.22,6,2.72,6.71-1.07,12.92,2.1,19.37,3.34,4,.78,7.88,2.27,12,2.66a11.65,11.65,0,0,1,5.51,2.22,10.94,10.94,0,0,0,4.38,2c5.64,1,8.12-1,9-8.32.68-5.8,2.68-11.32,3-17.19.16-2.7-.13-4.08-3.17-3.91a15.46,15.46,0,0,1-5.18-.4c-3.12-.95-3.69-4.26-1.26-6.46.65-.58,1.39-1.39,2.15-1.46,5.52-.47,7.55-6.18,12.19-8,2-.78.33-2.17-.4-2.4-6.75-2.06-5.6-7.52-5.7-12.56,0-2.49,2.4-5.1-.31-7.55-.3-.27.47-1.22,1.11-1.19,1.82.08,2.35-.75,2.32-2.47,0-1.14-.78-5.86-1.47-6.82a4.91,4.91,0,0,1-.44-5c.61-1.44,2-1.71,3.49-1.68,3.27.07,6.19-.31,9.13-2.4,2.38-1.7,5.85-.61,8.81-.55s4.61,0,3-3.65c-4-8.73-3.66-18.52-6.66-27.53-2.23-6.71-3.92-13.59-5.73-20.43-.71-2.66-1.21-5.44,3-5.5,1.5,0,1.76-1.08,1.79-2.33a8.32,8.32,0,0,0-2.52-6.63c0,1.93,0,3.86,0,5.79,0,.88-.22,1.88-1.42,1.77-.88-.08-1.18-.88-1.19-1.66,0-2.38-.08-4.75.06-7.12.07-1.2,1-2.48,2.1-2.27,3,.59,5.75-1.92,8.66-.26.42.24.64.43,1.1-.18,2.79-3.68,4.26-3.8,8.26-.28,0-2.77-.17-5.07,0-7.34.23-2.45.37-5.32,3.74-5.58,3.13-.24,3.73,2.2,4.34,4.62,1.18,4.67,1.27,4.7,5.81,3.18,2-.67,3.46-.22,4.29,1.72,2.26,5.26,4.77,10.45,4.81,16.37a5.41,5.41,0,0,0,.52,2.88c6,8.38,6.93,18.66,10.65,27.87,2.45,6.06,2.45,12.39,2.33,18.77,0,2.33-.47,3.93-3.28,3.78-2.23-.13-3.89,1.53-5.92,2.12-5.56,1.61-10.68,4.56-17.66,5.47,10.11,3.41,14,11.08,17.6,19a12.37,12.37,0,0,1,.59,1.78c2.22,7.94.37,9.86-7.45,8-5.31-1.28-10.75-2-15.71-5.41,1.16,4.22,1.17,4.21,4.56,4.7.46.07,1.14.3,1.27.64,1.06,2.67,2.13,4.19,4.73,1.14.84-1,2.08,0,2.65,1.13,1,1.83,1.95,3.36,4.19,1.36a1.23,1.23,0,0,1,2,.25,1.74,1.74,0,0,1,0,2.11c-1.7,2.37-3.93,2.63-6.19,1-1.93-1.35-2.43-.66-2.3,1.25a17.25,17.25,0,0,1-2.17,9.72,3,3,0,0,0-.16,2.54c3.83,9.92,3,20.63,5.17,30.85,2.56,11.93,2.67,24-.73,35.91-1.1,3.82-2.62,7.52-4.08,11.23-1.4,3.54-4.63,5.19-7.82,6.48a112.59,112.59,0,0,0-14.56,6.75c-4.49,2.61-9.21,4.86-13.3,8.16-3.6,2.9-8.25,4-12.62,6.71,4.57,1.2,8.58,2.93,13.09,3,15.35.41,30.34-1.36,44.72-7.06.88-.35,1.79-.51,2.38.31.78,1.08,0,1.83-.81,2.51-8.88,7.62-17.47,15.56-27.3,22-4.75,3.14-8.8,7.3-14.2,9.56-14.75,6.18-29.86,9.22-46,7.1-8.73-1.16-16.41-3.93-22.9-9.92a4.47,4.47,0,0,0-5.15-1,162.2,162.2,0,0,0-16.55,8.61c-3.86,2.18-5.72,6.16-7.91,9.73a110.7,110.7,0,0,0-5.35,10.25c-2.11,4.42-5.79,6.37-10.41,6.85-6.16.63-12.06,3.22-18.44,2.39-1.66-.22-2.57,1.33-3.75,2.22-4.11,3.1-6.86,2.89-10-.86-2,1.7-2.58,6-6.34,4.25-3.53-1.63-1.51-5.35-2.17-8.11-1.73-.12-3.08.91-4.6,1.39-1.1.35-2.3.49-3.08-.59a2,2,0,0,1,.29-2.77c4.82-3.56,5.14-9.6,8-14.22,2-3.29,5.45-5.08,8.24-7.54,7.69-6.82,8.21-6.76,1.62-14.73-7.15-8.65-14-17.56-18.61-27.92-.86-1.93-2.23-4.48,1.72-4.94a21.63,21.63,0,0,0,.87,3.23c3.1,7,7.4,13.26,11.9,19.38,3.25,4.42,6.87,8.56,10.09,13,2.59,3.58,1.9,7.29-1.22,10.3a106.69,106.69,0,0,1-9.14,7.73,14.83,14.83,0,0,0-4.94,7.34,2.7,2.7,0,0,0,1,3.53c2.29,1.76,4.52,3.56,7.46,4.11,8.93,1.68,17.85,3.8,26.86.33a13,13,0,0,1,3-.28c3.88-.51,7.33-1.77,9-5.69,1.54-3.54,3.72-6.74,5.45-10.19,1.92-3.84,4.13-7.85,8-10.18,7.88-4.8,16-9.2,24.86-12,14.69-4.61,27.86-12.11,40.08-21.34a26.42,26.42,0,0,1,6.79-3.8,97.66,97.66,0,0,0,17.94-8.34,113.54,113.54,0,0,1,15.9-8.18c7.82-3.31,15.9-6,18.21-16.24,2-8.94,4.19-17.72,3.26-26.92a120.1,120.1,0,0,0-2.15-14c-1.82-8.15-.85-16.7-3.74-24.68-.94-2.62-3.66-3.52-5.22-1.24-2.45,3.56-5.74,4.63-9.69,4.32-2.52-.2-3.75.43-3.31,3.22.22,1.41-.14,2.81-1.77,3.33a3.46,3.46,0,0,1-3.77-1,10.81,10.81,0,0,1-1.82-2.35c-1.38-2.69-2.6-2.92-4.07,0-1.28,2.49-3.09,4.35-6.24,3.51-2.94-.78-4-3-3.83-6.92-.4,3.7-.53,6.32-1,8.88-1.17,6.6-1.9,13.3-4.35,19.63-.58,1.5-1.32,2.92-2.93,3.06-3.21.29-6.73,1.14-9.59-.45a47.47,47.47,0,0,0-13.64-4.7c-6.81-1.47-13.51-3.42-20.3-5-1.49-.35-3.68-.93-4.56.52-1,1.7,1.14,2.69,2.07,3.9.46.59,1,1.08,1.48,1.68,7.51,10.34,15,20.7,22.5,31,.84,1.16,1.26,2.41.14,3.33-1.52,1.25-2.44,0-3.19-1.28-1.49-2.45-2.81-5-4.5-7.31q-10.53-14.26-21.27-28.38c-4.91-6.45-9.7-13-15.1-19.05-6-6.68-12.45-13-19-19.06a72,72,0,0,0-13.06-9.9c-3.88-2.21-7.89-4.62-12.51-5.33a1.66,1.66,0,0,1-1.52-1.85c.23-1.36,1.31-1.19,2.37-.94a38.42,38.42,0,0,1,9.47,3.35c1.77.94,3.32,1.16,5.15-.28,6.65-5.22,13.8-9.73,19.84-15.84a183.72,183.72,0,0,0,21.27-25.42c1.67-2.44,1-3.1-1.77-3.12-4.74,0-9.52.6-14.2-.38-9.41-2-15.93-8.3-22.23-14.94a2,2,0,0,1-.18-3c1.23-1.25,2.15,0,2.75.81,2.22,2.88,5,5.14,7.63,7.6,8.11,7.55,17.73,7.9,27.88,6.55-3.33-1.62-6.79-2.84-10.19-4.23-5.29-2.15-11.8-3.51-12-11.28,0-1-.77-1.07-1.47-1.38-8.26-3.64-14.68-1.83-19.66,5.58-.34.51-.75,1-1.12,1.49-10.94,15-24,28-37.3,40.86a41.44,41.44,0,0,1-6.89,5.14c-2.83,1.77-4.4,1.07-5-2.17a71,71,0,0,1-1.49-13.72c0-9.61-.19-19.22.78-28.8a59.25,59.25,0,0,1,9.9-27.89c1.1-1.61,2.55-3.11,4.41-3.24,6-.43,11.51-3.07,17.39-4.2,5.3-1,10.63-2.74,15-6.41a8.91,8.91,0,0,0,3.6-7c.16-5.22-2.19-9.31-5-13.46-2,3.31-4.9,4.76-8.52,4.31a33.67,33.67,0,0,1-11-3.4c-3-1.53-3.21-3.86-.78-6.29,1.68-1.67,4.09-1.89,6.71-3.35-7.23-1.81-13.82-1-20.4-1-4.21,0-8.24,0-12,2.62-16,10.88-30.11,23.56-40.39,40.19-4.4,7.13-8.56,14.34-11.48,22.2a108.74,108.74,0,0,0-5.58,22.41c-1.91,13.08-3.75,26.12-2.1,39.38.18,1.46.7,3.6-1.51,4.1-5.45,1.23-8.66,5.35-11.74,9.33-3.77,4.85-6.54,10.49-3.38,16.62a19.37,19.37,0,0,0,10.57,9.66,21.44,21.44,0,0,1,4,2,2.45,2.45,0,0,1,.95,3.58c-1.34,1.78-1.88-.2-2.75-.89-1.45-1.15-3-2.2-5.06-1.87-5.64.9-9.48,4.67-13.37,8.33-1.87,1.77-1.49,3,1.09,3.42,10,6.35,18.52,14.32,27,22.71,1.15-2.7-.36-5.06-1.9-6.94-6.58-8-14-14.84-25.11-15.81.45-4.1,3.54-2.58,5.4-2.09,8.62,2.25,15.17,7.72,20.9,14.3,3.82,4.39,5.32,9.18,2.3,14.91,2.25-.47,4.34.09,5.93-1.53,2.18-2.22,4.42-4.38,6.53-6.67.91-1,1.79-2.25.79-3.7-6.5-9.49-7.39-21.06-11.69-31.37-.84-2-.53-4.19-.3-6.29a1.54,1.54,0,0,1,1.82-1.47,1.34,1.34,0,0,1,1.17,1.92c-1,2.76.4,5.09,1.19,7.57,1.35,4.26,2.15,8.73,3.89,12.82,2.18,5.12,1.6,12,8.33,14.56.4.15.42,1.35.57,2.06.21,1,.09,2.13.6,2.87,4.42,6.46,8.24,13.53,13.61,19.09,9,9.28,18.38,18.2,29.09,25.56,1,.69,2.59,1.37,1.85,2.79C1588.12,1891.27,1586.7,1890.18,1585.52,1889.49Zm193.33,11.92a3.42,3.42,0,0,0-2.8-.05,100.31,100.31,0,0,1-21.71,3.4c-10,.55-19.9-.23-29.48-3.61-1.41-.5-2.88-1-4.53.35a134.57,134.57,0,0,1-38.26,20.77c-2.77,1-2.35,1.93-.57,3.35a34,34,0,0,0,12.15,6.43c17.81,4.89,34.75,1.56,51.42-5.15,6.53-2.63,11.46-7.5,16.92-11.58C1767.75,1911,1774.38,1907.75,1778.85,1901.41Zm18.63-174.72a21.74,21.74,0,0,0-.69-6.6c-2.33-8.52-5.48-16.77-8.23-25.14-.67-2-1.21-2-2.64-.48-6.2,6.68-13.58,10.55-23.05,9.35-1.74-.22-3.7-.56-5.07,1.44-.75,1.08-2,.75-2.91-.21-.7-.76-1.47-1.62-2.53-1s-.29,1.84-.11,2.71c1.2,5.58,2.91,11.09,3.63,16.74.67,5.3,2.57,10.07,4.63,14.84.94,2.19,2.83,2.94,4.91,1.88a60.68,60.68,0,0,1,29.08-7c2.32,0,3.15-1,3-3.16C1797.42,1729.11,1797.48,1728.11,1797.48,1726.69Zm-44.81,16.07a21.11,21.11,0,0,0-2.25,0c-1.67.16-4-.78-4.78,1.13s1.52,2.78,2.6,4c.32.38.71.71,1,1.07,10,10.8,22,18.06,36.67,20.78,3,.57,3.77-.84,3.08-3.25-.62-2.13-2-4-2.67-6.17-2.51-8-13.13-17.11-23.78-15.45a2.85,2.85,0,0,1-2.12-.44C1758.18,1742.24,1755.37,1742.84,1752.67,1742.76Zm-322.62,114.6c.59,2.3,1,4.09,2.33,5.55,5.89,6.34,13.46,9.71,21.74,8.75a54.94,54.94,0,0,1,32.54,5.69c9.86,5.08,20.34,5.09,30.95,2.87.7-.14,1.51-.18,1.68-1.71-2.23,0-4.42-.08-6.6,0-5.19.23-9.77-1.67-14.16-4.1a87.09,87.09,0,0,0-16.39-7.16c-12-3.73-24.55-3.85-37-4.37A26.42,26.42,0,0,1,1430.05,1857.36Zm68.91-28a49.87,49.87,0,0,0-12-5.88c-10.13-3.46-20.71-5.33-31.56-3.47-8.69,1.5-16.41,4.92-22.6,11.41-2.32,2.44-3.61,4.76.2,7,1.44.84,2.32,3.89,4.42,2s-1.12-2.74-1.59-4.22c-.37-1.18-2.18-2.87-.21-3.36,2.42-.6,5.46-2.89,7.67,1.07,1.08,1.93,2.94.64,4.2-.36,1.5-1.19.22-2.14-.5-3.13s-2.68-2-1.25-3.35,2.49.68,3.62,1.46c.82.57,1.27,2.27,2.67,1.22s0-2-.38-2.93c-.5-1.08-1-2.22.26-3s1.88.46,2.27,1.28c1.11,2.32,2.38,2.14,4.43,1,4.64-2.57,9.61-4.14,15-3.63,1.18.12,2.41.34,2.35,1.82-.08,1.67-1.29,1.4-2.49,1.17-3.31-.62-6.44.22-9.44,1.51-6.48,2.79-6.72,4.43-1.49,9.34.09.08.16.19.26.27.58.53,1.24,1,2,.41,1.19-1-.09-1.51-.57-2.07a14.81,14.81,0,0,0-2-1.72c-1-.83-2-1.81-.94-3.1s2,0,2.8.66c1.76,1.45,3.43,3,5.5,4.82a5.34,5.34,0,0,0-.12-1.34c-.82-1.3-2.85-2.73-1.28-4.13,1.94-1.72,2.38,1.25,3.59,2,.31.18.56.49.87.7,2.63,1.78,4.38,1,4.92-2,.34-1.9,1.69-1.41,2.86-.79s2.15,1.55,3.76.79C1488.87,1828.64,1493.75,1828.4,1499,1829.37Zm24.63,24.86c-.18,3.55.53,6.62-2.21,8.56s-5.43,3.9-8.23,5.73a9,9,0,0,1-6.9.84c-2.45-.51-3.83-2.3-3.09-5,.43-1.54,1.41-2.94.93-4.72a5.46,5.46,0,0,1-1.17.65c-4.79,1.31-4.79,1.3-3,5.69a1.77,1.77,0,0,1-.23,2.08c-.68.67-1.38.4-2-.17a51.16,51.16,0,0,0-3.65-3.71c-1.07-.86-2.66-1.41-3.51,0-.38.65-1.3,2.38.56,3.1,5.55,2.15,10.37,6.74,16.16,7.15,2.76.19,5.33,1,8,1.16,3.72.19,6.18.24,6.94-6.52.12-1.07-.11-2.4,1.44-2.64.72-.11,1.08.5,1.25,1.14.09.35.13.71.23,1.23C1526.73,1863.94,1526.12,1859.43,1523.59,1854.23Zm-2.86,1.83c0-3.7-.69-4.31-4.19-3.14-3.7,1.23-6.85,1.43-9.61-2.18-1.8-2.36-4.76-3.06-7.78-2.94a2,2,0,0,0-1.9,1c-.37.87.45,1.29,1.06,1.72a30.5,30.5,0,0,0,4.32,2.94c4,1.82,4.84,5,4.37,8.94-.16,1.33-1.69,2.94.31,4,1.78.92,3.46-.07,4.9-1,1.76-1.14,3-3,5.11-3.7C1520,1860.75,1520.81,1858.66,1520.73,1856.06ZM1765.66,1795c-8.51-3.1-16.89-4.78-24.16-9.3a2.22,2.22,0,0,0-.72-.21c-2.94-.68-5.58,1.37-6.28,5.12-.59,3.16,2.18,2.71,3.92,3.51,4.39,2,9.1,2.19,13.77,2.58C1756.58,1797,1761.08,1798,1765.66,1795Zm1.67-3.13c1.59-.32,3.8.51,4-1.38s-2.08-1.73-3.42-2.19a15.32,15.32,0,0,0-2.55-.49,33.79,33.79,0,0,1-17.89-8.46c-3.49-3.26-6.18-7.41-10.11-10.33-1-.76-1.35-3.06-2.9-2.4-1.77.77-.84,2.89-.88,4.43a2.64,2.64,0,0,0,2.2,2.67c.85.24,2.07.43,1.9,1.43-.53,3.13,2.2,3.71,3.73,5.27,3.63,3.72,8.79,4.67,13.06,7.24C1758.46,1790,1763,1791,1767.33,1791.82Zm-29.44-46c-1.13.17-2.8-.54-3.16,1.12-.33,1.5,1.28,2,2.29,2.6,2.07,1.3,4.5,1.29,6.81,1.75,1.78.35,3.17.87,1.23,2.8-1.14,1.15-.74,1.91.43,2.66s2.37,2.24,3.7,2.46c2.86.48,5.55.28,6.24,4.32.13.77,3.32,2.56,5.35,3.45,1.33.59,2.67,2.39,4,0s-1.2-2.5-2.11-3a67.84,67.84,0,0,1-16.09-13.19C1744.31,1748.29,1742,1745.29,1737.89,1745.79Zm-215.41,103.38c-3.21-3-5.61-5.43-8.24-7.59-2-1.64-4.31-2.9-6.46-4.37a2.8,2.8,0,0,0-3.47.32c-1.37,1.17.45,1.82.89,2.68.74,1.43,1.86,2.74,2.25,4.26,1.44,5.46,3.36,6.64,8.72,5.16C1517.93,1849.14,1519.68,1848.43,1522.48,1849.17Zm229-169.57c1.22,6.87,3.94,13.43,6.69,20,.82,1.93,2.87,1.82,4.23,1.2s.1-2-.36-2.82c-3.35-5.9-5.42-12.28-7.39-18.71-.32-1.06-.57-2.4-2-2.22S1751.62,1678.47,1751.52,1679.6Zm17.9-3.45c-1.09.31-1,1.06-.7,2q3.21,8.94,6.42,17.89c.34.94.63,1.94,2.08,1.42s1.58-1.32,1-2.6a139.34,139.34,0,0,1-6.76-16.57A2.74,2.74,0,0,0,1769.42,1676.15Zm-4.85,7a21.75,21.75,0,0,0-3.76-11.36c-.41-.64-.79-1.83-1.91-1.31s-.7,1.57-.57,2.37c.6,3.42,1.28,6.83,2,10.23.25,1.22-.08,2.83,2.3,2.35C1764.55,1685.08,1764.75,1684.15,1764.57,1683.18Zm-324.15,176.23c-5-5.71-8.34-11.52-13.37-16.48C1426.47,1850.28,1430.82,1855.69,1440.42,1859.41Zm322.2-169.67c.32,4.36,3.08,7.22,4.46,10.66.43,1.1,2.26.68,3.45.27.76-.26,1.34-.86,1-1.73-1.58-3.51-3.1-7.09-5.93-9.84-.61-.59-1.36-1.18-2.33-.55A1.18,1.18,0,0,0,1762.62,1689.74Zm-265.79,147a13.73,13.73,0,0,1-1.61-1.93c-1.87-3.32-4.58-3.19-7.67-2.1-2.23.78-2.79,1.69-1.08,3.67C1490,1840.51,1490.56,1840.59,1496.83,1836.77ZM1778.5,1668c-1.11.77-2.12,1.65-1.85,3.23.32,2,.75,3.87,1.08,5.82.17,1,.24,2.36,1.28,2.41,1.25.07,3.49-.37,3.66-1,.79-3-1.78-5.38-2.35-8.23A2.44,2.44,0,0,0,1778.5,1668Zm-10.91-7.21c-.21.3-.67.65-.73,1.07a23.52,23.52,0,0,0,.11,9.6c.6,2.36,2.43,1.19,3.69.92,1.84-.39,1.25-1.74.81-3-.85-2.33-1.66-4.68-2.45-7C1768.79,1661.67,1768.83,1660.84,1767.59,1660.78ZM1480.05,1863c-3.17-4.07-6-7.71-8.81-11.28-.61-.76-1.56-1.56-2.5-.5-.74.82,0,1.67.54,2.29a37.08,37.08,0,0,1,4.65,6.72C1475.14,1862.33,1477,1863.41,1480.05,1863Zm16.68-18c1.2,0,3.06,0,4.91,0,2.28.08,2.16-1,1.31-2.52-1.74-3.13-4.28-3.47-8.13-1-.85.55-2.25,1-1.45,2.51C1493.94,1845.1,1494.74,1845.76,1496.73,1845Z" transform="translate(-1425.75 -1638.2)"/><path d="M2167.92,1742.65c-.57,13.58-.93,27.16-1.82,40.72-.26,4-1.88,8-3.06,11.91-1,3.23-2.19,6.38-2.05,9.83.09,2.07-1,2.85-3,2.9-14.69.37-29.17-.45-42.55-7.51-.65-.35-1.57-.61-1.86-1.18-2.27-4.41-6.07-3.1-9.28-2.14-10.62,3.19-21.64,3.44-32.5,4.66-2.88.32-5.44,1.61-8.34,1.62-18.81.07-37.27,4.18-56,5-16.94.74-34,1.5-50.91-.51-15.6-1.86-31.23-3.2-46.86-4.62-4.26-.39-8.72-.91-12.62-3.15-.81-.47-2.11-.76-1.62-2.09s1.55-1.08,2.55-.73c12.2,4.3,25,4.38,37.63,4.83,4.29.15,8.41,1.16,12.58,1.88a113.66,113.66,0,0,0,20.82,1.91c14.61-.21,29.23.55,43.82-.75,4.71-.42,9.37-1.25,14.11-1.66,9.17-.81,18.27-2.38,27.4-3.62.79-.1,1.81-.38,1.37-1.22-.65-1.23-1.34-2.8-3.3-2.5a61,61,0,0,1-19-.25c-1.47-.23-2.94-.53-4.4-.85a2,2,0,0,1-1.78-2.07,2.13,2.13,0,0,1,2-1.94c8.45-1.17,16.38-4.13,24.39-6.85,2.68-.91,4.39-2.13,5.18-5.13a77.83,77.83,0,0,0,2.26-15.3c.3-5.11-2.06-4.73-5-5.27a54.57,54.57,0,0,0-17.06-.48c-1.5.19-2.27-.27-2.27-1.63a24.2,24.2,0,0,1,3.52-12.77c1.05-1.73,3.31-1.34,5.19-1.49a88.82,88.82,0,0,0,22.47-4.88c2-.7,3-1.76,2.55-4.17-.69-3.55,1-7.42-1.38-10.82-.23-.32.11-1.24.43-1.74,4.1-6.38,6.45-13.94,11.74-19.47s12.24-7.49,19.87-6.71a53.15,53.15,0,0,1,7,1.25c5.4,1.31,7.08,4.68,4.86,9.83a34.14,34.14,0,0,1-8.29,11.9c-3.94,3.61-2.26,4.66,1.19,10.72,1.87,3.31,4.73,1.62,6.79.24,7.15-4.78,14.11-9.81,21.16-14.73,1.27-.89.8-1.88.36-3a223.53,223.53,0,0,0-11-22.09c-1.93-3.54-2.89-7.41-4.45-11.06a10.38,10.38,0,0,0-8.09-6.48c-16.88-3.21-33.35-8.29-50.3-11.13-17.92-3-35.74-6.52-53.79-8.77-9.76-1.22-19.4-3.35-29.09-5.05-10.36-1.82-20.65-.8-30.85,1.06a203.26,203.26,0,0,0-43.45,13.38c-3.89,1.65-7.44,4.09-11.19,6.07-1.64.87-1.55,1.78-.31,2.82,1.62,1.37,3.3,2.66,5,4a1.84,1.84,0,0,1,.72,2.31c-.47,1.06-1.34.62-2.22.62-4.59,0-8.78-2.06-13.28-2.46-2.28-.2-7.82,3.68-8.08,5.79-.2,1.67,1.93,1.23,2.31,2.55.33,1.13,2.78.69,2.37,2.4s-2,1-3.2,1.13c-1.86.14-.13.58,0,.71,1.21,1.73-.29,2.35-1.34,2.73-2.8,1-5.68,1.81-8.55,2.61-1.4.38-1.79.56-1.26,2.41,1.8,6.35,4.89,12.34,5.54,19,.3,3.07,1.47,4.07,4.29,2.31a4.85,4.85,0,0,1,2.09-.78c1.65-.12,2.37.62,1.6,2.29a1.55,1.55,0,0,1-.46.59c-6.92,5.17-5,12.17-4.11,19.08,1.78,14.35,4.19,28.59,6.66,42.82.75,4.31.89,8.88,4.06,12.52.83,1,.94,2.93-.66,3.55-2.27.88-3.24-1.07-3.65-2.73-1.2-4.95-2.3-9.94-3.17-15-1.7-9.82-3.28-19.65-4.8-29.49-.63-4.06-.94-8.17-1.5-12.24-.3-2.22-.8-3.68-3.32-1.32-2.07,1.93-4.35,3.49-6.06,5.92-2.57,3.67-5.57,3.55-8.16-.06a32.79,32.79,0,0,0-5.35-5.74c-2.18-1.86-2.23-3.62.16-5.1,5.82-3.61,11-8.31,17.53-10.7,2.1-.76,2.45-1.9,2.17-4-.93-6.87-3.92-13.15-5.46-19.83-.47-2.07-1.6-1.85-3-1.15a83.46,83.46,0,0,1-11.45,4.5c-2.57.83-3.9.26-3.83-2.57.1-4.6-.5-9.18,0-13.78.2-1.93,1.2-2.31,2.82-3.16,5.18-2.74,9.63,0,14.34,1,6.75,1.48,10.83-.32,14.16-6.11.74-1.29.1-1.8-.77-2.41-3-2.15-6.09-4.29-9.13-6.45-.92-.65-2-1.28-1.6-2.65.34-1.15,1.51-1,2.4-1.42,4.74-2.09,9.75-3.68,13.8-7.11,1.17-1,2.35-2.19,3.94-1.46,1.77.81.26,2.09.16,3.2-.14,1.49.86,2.57,1.86,3.53.61.58,1.77.7,1.85,1.7.45,5.17,3,3.19,5.49,1.71,10-5.85,20.65-9.77,31.73-13,7.91-2.29,15.74-4.6,23.9-5.91a113.19,113.19,0,0,1,40.12,1.06c14.29,2.79,28.7,5,43.18,6.71,8.14,1,16.1,3.44,24.23,4.6,17.17,2.45,33.8,7.32,50.71,11a26.12,26.12,0,0,0,3.66.75c6.92.48,10.78,4.48,12.67,10.82,2.05,6.86,5.93,12.87,9,19.24,1.64,3.36,3.27,6.74,4.73,10.18,1,2.42,2.45,2.86,4.66,1.65a59.09,59.09,0,0,1,6.33-3.25c11.37-4.51,13.65-1.51,17.12,8.34C2167.75,1723.84,2167.9,1733.26,2167.92,1742.65Zm-57-7.56c5.56-.62,5.9-.41,5.78,4.75a141.7,141.7,0,0,1-1.59,14.49c-.85,6.86-.25,14.62,2.93,21.19,2.5,5.18,2.49,10.27,2.32,15.63-.06,1.7-.21,2.83-2,3.47-.95.34-2.29,1-2.23,2.13s1.45,1.23,2.31,1.68c10.69,5.56,22.23,6.74,34,6.86,3.65,0,6.49-.08,5.87-4.94a6.66,6.66,0,0,1,.85-3.22c3.74-8.5,4.83-17.59,4.87-26.65.06-14.32,2.11-28.63.16-43-.78-5.71-1.94-11.25-4.62-16.44-1.66-3.21-3.74-4.19-7.27-2.95-7.51,2.63-14.18,6.8-20.83,11a89.61,89.61,0,0,0-8.34,5.64C2119.19,1728,2114.2,1730.06,2111,1735.09Zm-65.71,58.83a18.17,18.17,0,0,0,6.55-.58c2.12-.64,4.38-1.54,5.51,1.64.28.76,1.2,1.43,1.93.06,1.52-2.81,3-1.3,3.58.43,1.32,3.91,4.18,4.12,7.47,3.74,1.73-.2,3.45-.57,5.18-.68a215.16,215.16,0,0,0,36.45-6c1.84-.44,2.16-1.23,1.72-2.9a21.38,21.38,0,0,1-.26-8.93c1.45-8.83-.77-17.37-1.91-25.94-.34-2.56-2.1-5-2-8a25.27,25.27,0,0,0-5.62-16.53c-4.26-5.52-7.22-11.2.48-17.14a18.8,18.8,0,0,0,3.7-4.68c2.67-4,1.3-6.42-3.48-7-8.44-.93-15.63,3.08-21,8.11a27.23,27.23,0,0,0-8.23,25.22c.57,3.13-.52,5.49-3.23,6.35-5.88,1.88-11.41,4.77-17.74,5.48-3.7.42-7.64,1.36-10.32,4.56-.77.92-2.18,1.74-1.44,3.13.61,1.15,2.06.68,3.11.62a64.83,64.83,0,0,1,16.32,1.65c4.64.92,5.11,1.74,5.3,6.51.18,4.57-.86,8.92-1.8,13.31-.21,1-1.24,2.25.52,2.77,3.28,1,1.86,2.58.58,4.08a16.48,16.48,0,0,1-5.82,4.6A128.25,128.25,0,0,1,2045.24,1793.92Z" transform="translate(-1425.75 -1638.2)"/><path d="M1913,1708c1.67-2.38,2.51-4.58,2.18-7.21-.39-3.13,1.31-4.73,3.92-3.18,3.94,2.32,7.68,1,11.55.6a11,11,0,0,1,4.1-.14c6.42,1.85,11.8-.83,17.26-3.55,3.21-1.6,3.81-.92,4.33,2.41.39,2.54-2.33,4.7-.63,7.13a15.47,15.47,0,0,1,3,6.5,44.55,44.55,0,0,0,4.83-9.11c1.17-2.59,1.53-5.08-.83-7.51-2.06-2.13-2-5.07-1.56-7.83.62-3.95,2.75-5.43,7.23-5.35,3.78.07,7.71,2.88,8.08,5.92.16,1.35.46,2.95-.06,4.09-2.64,5.76-.68,11.8-1.38,17.68.61-1.66-.29-4.07,2-4.79,3.34-1.05,6.79-1.7,10.31-.81a1.68,1.68,0,0,1,1,1c1.32,5,4.43,9.29,4.11,14.92-.48,8.63-2,17.06-3.39,25.54-.54,3.31-.85,6.66-1.38,10-.44,2.78-1.83,4.12-5,4.3-15.1.85-30.21.32-45.3.8-6.76.21-13.65.28-20.26,2.59-4.54,1.59-6.5,0-7-4.74-.67-5.81-1.8-11.58-1.59-17.48a6.92,6.92,0,0,0-.8-3.22c-3.26-6.62-6.62-13.18-9.92-19.78a14.77,14.77,0,0,1-1.93-7.91c.24-2.82-.93-3.66-3.67-3.68-3.59,0-6.78-1.54-8-5.13a8.3,8.3,0,0,1,2.51-9.52c2.92-2.48,15.44-2.32,17.52.78,2.29,3.4,3.69,7.39,5.57,11.07C1910.69,1704.24,1911.83,1706,1913,1708Zm72.06,42.17c-4.26,5.1-7.34,4.88-10.24-.32-.79-1.4-1-3.8-2.46-4-4.15-.62-5.75-4.14-8.11-6.6-4.18-4.32-4-4.54-.08-9.13a10.1,10.1,0,0,0,1.32-1.81c4.45-8.75,8.18-17.68,6.75-27.87-.2-1.49.08-3.11-2.08-3.34-2-.21-2.59,1.11-3,2.65-2,7.58-6.64,13.9-10.35,20.63a26.14,26.14,0,0,1-5.37,6.59c-5.73,5.23-12.4,5.56-19.53,5.38-8.82-.23-17.11-8.7-19-15.58a54.55,54.55,0,0,0-7.13-14.76c-.37-.56-.69-1.38-1.7-1-4.31,1.49-6.43,5.46-5.18,10,1.53,5.62,4.68,10.48,7.79,15.28.7,1.06,1.59,3.5,4,2.87,1.06-.29,2-.46,2.49.78.37,1-.37,1.67-1.16,2.08-2.2,1.15-1.34,2.26,0,3.4l7.36,6.36c5.85,5.07,12.18,9.21,20,10.42a4,4,0,0,1,1.35.62c.67.41,1.22,1,.82,1.83a1.4,1.4,0,0,1-1.59.72c-1.59-.25-3.18-.57-4.76-.92-.75-.17-1.6-.49-1.84.53-.29,1.22.7,1.42,1.61,1.47s2,0,3,0c13.85-.08,27.7.31,41.54-.69C1984.35,1755.44,1984.68,1755.42,1985.07,1750.15Zm-68-42.16c-2.88,6-.95,12.11,5,17.11,7.41,6.29,21.47,6.77,29.32-2.4,3.39-4,5.7-8.51,3.6-14-.89-2.38-2.11-3.46-4.7-1.79-2,1.3-4.44,1.4-6.86,1.41a5.22,5.22,0,0,1-5.25-5c-.23-2.29-1.11-2.35-2.59-2.49a14.15,14.15,0,0,0-7,1.19c2.48,1.58,4.64,3.23,3.33,6.17-1.2,2.7-3.44,3.79-6.58,4C1921.78,1712.34,1919.46,1710.71,1917.09,1708Zm-23-5.44c2.74-.24,5.7-1,7.61-3.85,1.74-2.6.2-7-1.78-6-3.38,1.6-5.71-.52-8.49-.87a3.26,3.26,0,0,0-2.71,1c-1.67,1.53-2.78,3.37-2,5.61C1887.9,1701.47,1890.58,1702.37,1894.08,1702.55Zm75.44-8.26c.06-1.73-.8-3.93,1.78-3.3,3,.72,2.47-1.28,2.32-2.71-.2-2-1.88-3.15-3.51-4-2.07-1.14-4.12-1.24-5.37,1.22-1.6,3.13-.81,6.34,1.8,7.23A5.41,5.41,0,0,1,1969.52,1694.29Z" transform="translate(-1425.75 -1638.2)"/><path d="M2013.64,1846.31c-1.48.49-1.66,3-3.23,1.51-1.19-1.11-.65-2.56.33-3.7,1.42-1.65,3.34-1.55,5.2-1.21,2,.37,2,2.14,1.78,3.58-.45,3.66,1.47,3.4,4,2.78,6.2-1.49,9.25-.06,11.77,5.49.58,1.29,1.07,1.11,1.86.37,1.1-1,2.16-2.06,3.29-3,.88-.76,1.94-1.38,3-.54s.9,2,.52,3.1c-.63,1.84-2.46,4.21-1.12,5.49,1.88,1.79,4.44-.1,6.61-.9,4.41-1.61,5.89-.86,7.89,3.38,1.09,2.32.5,5.22,2.76,7.15.87.74.1,1.65-.91,1.83a4.44,4.44,0,0,1-2.58,0c-6.84-3.68-14.21-1.76-21.33-2-4.68-.16-9.15-.28-13.25-3a18.7,18.7,0,0,0-6.92-2.65c-2.43-.44-3.22-2-2.67-4.42C2011.66,1855.31,2012.58,1851.08,2013.64,1846.31Zm24.09,11.18c-4.75,3-6.17,2.79-7-.88-.93-4.29-3.12-5.66-7.49-4.72-1.82.39-3.73,1.24-5.47,1-4.1-.58-3,2.7-3.66,4.54-.76,2.31.59,3.24,2.87,3.63,7.46,1.3,14.89,2.77,22.33,4.21,3.9.76,7.76,1.88,11.8,1.47.9-.09,2.11.38,2.07-1.33-.07-2.78-2.05-4.25-4.6-3.24a15.84,15.84,0,0,1-5.76,1.37C2037.47,1863.58,2037.19,1863.33,2037.73,1857.49Z" transform="translate(-1425.75 -1638.2)"/><path d="M2107.11,1806.75c3-.56,4.66,2.87,7.89,2.47,2.46-.3,5.09.85,7.66,1.26,1.49.23,2.74.77,3,2.36a5.06,5.06,0,0,1-1.25,4.3c-2.72,3.31-7.08,3.08-10.1,5.58-1.05.89-2.59-.35-3.92-.61-1-.19-1.93-.46-2.91-.57-2-.2-4.17.58-5.87-.51-2-1.27-.65-3.72-1.2-5.56s-2.07-3.17-.38-5.13A11,11,0,0,1,2107.11,1806.75Zm13.95,7.14a17.1,17.1,0,0,0-2.55-1.26c-3.61-.88-7.58,0-10.82-2.85-1.08-.93-2.91.42-3.89,1.53s.29,1.9,1,2.74c2.57,3.19,5.47,4,9.11,1.68C2115.67,1814.6,2117.82,1814.29,2121.06,1813.89Z" transform="translate(-1425.75 -1638.2)"/><path d="M1669.68,1673.75c-6.41.07-12.06-7.85-10-14a2.76,2.76,0,0,1,3.1-2.13c5.29.63,10.1,2.4,13.63,6.64,1.34,1.62,1,3.47.18,5.27A7.59,7.59,0,0,1,1669.68,1673.75Z" transform="translate(-1425.75 -1638.2)"/><path d="M2054.29,1839.57c-4.33-.08-5.4-1.35-4.57-5.56.53-2.68,1.09-5.29,2.85-7.6,3.59-4.68,9-6.08,14.28-3.43,1.86.94,3.14,5.6,1.41,7.68C2064.61,1835,2060.67,1839.34,2054.29,1839.57Zm7-14.9c-2.75-.07-4.13,1.94-5.74,3.64-2.26,2.4-.64,4.69.81,6.19s3-.56,4.33-1.51c.78-.57,1.3-1.72,2.13-2,2.1-.63,3.36-1.85,3-4C2065.44,1824.37,2062.67,1825.76,2061.28,1824.67Z" transform="translate(-1425.75 -1638.2)"/><path d="M1913.47,1673.23c0,1.84,0,3.44,0,5,0,.74-.13,1.59-1,1.78-1.15.25-1.36-.69-1.73-1.5-1.1-2.34-.32-5-1.19-7.34-.47-1.28-.74-2.63-1.22-3.91-1.08-2.85-1.1-2.81,2-3.35,1-.18.92-1.35,1.46-2,1-1.19,1.9-3,3.77-2.56,2,.45,2.73,2.35,3.2,4.22a1,1,0,0,1,0,.37c-.77,4.46-.44,8.22,5.13,9.27A1.81,1.81,0,0,1,1925,1676c-.76,1.13-1.76.39-2.6-.16C1919.69,1674.09,1916.61,1673.86,1913.47,1673.23Z" transform="translate(-1425.75 -1638.2)"/><path d="M2028.49,1677.34c-.62-3.8.8-7.52,3.87-10.63,2.67-2.72,5.36-2.39,7.26.9a10.9,10.9,0,0,1,1.34,3.44c.62,3.25,1.5,5.89,5.71,4.17.85-.34,1.84-.37,2.18.71a1.63,1.63,0,0,1-1.57,2.1c-3.25.4-4,2.18-3.32,5.11a4,4,0,0,1-.26,2.19c-.44,1.16-1.49,1.23-2.51,1s-1.08-1-.84-2c.93-3.91.05-4.76-4-4.51-1.47.1-3.94,2.06-4.26-.68-.23-1.93,2.41-2,4.16-2.08,3.44,0,2.52-2.15,2-4.13-.4-1.7-.59-4-2.35-4.31-2-.31-2.85,2.06-3.77,3.63-1.61,2.77-.68,5.86-1,8.8-.12,1.26.56,3.37-1.2,3.44-2.21.09-1.34-2.17-1.52-3.49A29.13,29.13,0,0,1,2028.49,1677.34Z" transform="translate(-1425.75 -1638.2)"/><path d="M2024.5,1671.07c0,.28.15,1.25-.25,1.72-2.35,2.75-1.11,4,1.75,4.91a1.39,1.39,0,0,1,1.1,1.7c-.31,1.1-1.26,1.06-2.15.91-2.78-.44-4.89-2.33-7.33-3.5-1.21-.58-1.12-1.85.17-2.65.31-.2.7-.28,1-.5,1.48-1,3.55-1.73,2.68-4.24a2.09,2.09,0,0,0-2.61-1.56,5.28,5.28,0,0,0-4,4c-.49,1.89.54,3.67.59,5.53,0,1.22.19,2.7-1.57,2.86-1.51.15-1.61-1.13-2-2.22-1.1-3.26,0-7-2.42-10a1.2,1.2,0,0,1,.31-1.68,1.4,1.4,0,0,1,2,0c1.42,1.87,2.4.75,3.63-.24a6.46,6.46,0,0,1,6.74-.59C2024.27,1666.35,2024.54,1668.52,2024.5,1671.07Z" transform="translate(-1425.75 -1638.2)"/><path d="M2056.8,1677.54c.22,1.66,1,3.56.62,5.59-.15.77-.4,1.5-1.36,1.45-.71,0-1-.59-1.2-1.24-1-4-1.94-8-2.89-11.95a1.7,1.7,0,0,1,.6-2,1.18,1.18,0,0,1,1.84.6c.75,2,2.26,1.91,3.94,1.82a4,4,0,0,1,2.13.54c2.44,1.39,5.19,4,4.92-1.85a1.16,1.16,0,0,1,1.2-1.2c1.14,0,1.38,1,1.35,1.87a24.56,24.56,0,0,0,1.23,8.07c.32,1,.34,2.27,1.49,2.88.91.49,1.89,1,1.41,2.22a2.2,2.2,0,0,1-2.08,1.33,2.31,2.31,0,0,1-2.68-2c-.94-4.2-4.09-6.36-7.53-8.24C2057.7,1674.27,2056.83,1674.84,2056.8,1677.54Z" transform="translate(-1425.75 -1638.2)"/><path d="M1702.26,1724.71c-1.69.5-3.28-.64-5.08-.29-1.54.3-1.67-1.14-1.57-2.31.24-2.81,4.36-7.36,7.21-8,4.06-.95,6.8.36,7.35,3.5s-2.23,6.6-5.64,7.11A17.15,17.15,0,0,1,1702.26,1724.71Z" transform="translate(-1425.75 -1638.2)"/><path d="M1973.76,1671a8.69,8.69,0,0,1,6.3-8.79c3-.72,6.25,1.23,7.86,5.52,1,2.8,3.61,5.62,1.26,9.07-.89,1.29-2,1.71-2.34.22-.78-3.19-3.09-3.13-5.46-3.29-.91-.06-1.93-.24-1.89-1.34s1.08-1.12,1.94-1.38c1.34-.42,4,1.11,3.8-1.38-.15-1.78-1.59-4.4-4-4.41s-3.85,2-4.51,4.37a2.68,2.68,0,0,0,.13,1.1c.23,1.31.95,3.2-1,3.37C1973.72,1674.26,1973.87,1672.09,1973.76,1671Z" transform="translate(-1425.75 -1638.2)"/><path d="M1933.4,1668c.37,0,.75-.06,1.11-.13,1.73-.35,4.26-1.63,4.63.87.26,1.79-2.73,2-4.21,1.9-3.69-.22-4.49,1.49-4.23,4.68.1,1.18.62,3.23-1.41,3.19-1.64,0-1.1-1.89-1.31-3-.55-2.93,0-6.09-3-8.35-1.56-1.17-.18-2.76,1.23-3.51,2.29-1.22,4.68-2.28,7-3.39a1.61,1.61,0,0,1,2.29.48c.58.95,0,1.69-.77,2.2s-1.78.91-2.58,1.48-2.87.62-2.32,2.33S1932,1668,1933.4,1668Z" transform="translate(-1425.75 -1638.2)"/><path d="M1960.76,1673.71c0,4.43-1.7,6.17-4.86,6-1.36-.07-2.47-.52-2.9-1.88-.35-1.08-.56-2.38.49-3.1,1.52-1,1.68.74,2.42,1.39s1.43.31,1.8-.47a1.14,1.14,0,0,0-.83-1.73,19.37,19.37,0,0,0-3-.2c-1.79-.1-3.18-.7-3.36-2.75a3.78,3.78,0,0,1,2.78-4.3c3.46-1.14,6,.36,6.79,3.93C1960.42,1672,1960.67,1673.28,1960.76,1673.71Z" transform="translate(-1425.75 -1638.2)"/><path d="M2087.71,1669.55c.8,0,2-.11,2.3,1.1.35,1.45-1,1.49-1.89,1.66-2.25.43-3,1.78-2.89,4,.13,2.86,0,5.72,0,8.58,0,.9-.21,1.93-1.31,1.91s-1.33-1-1.34-1.92c-.05-2.73-.14-5.47,0-8.2.08-2.14-.73-2.63-2.68-2a43.41,43.41,0,0,1-5.07,1.19c-.84.16-1.85.2-2.22-.84s.5-1.61,1.35-1.82C2078.46,1672.1,2082.8,1670.1,2087.71,1669.55Z" transform="translate(-1425.75 -1638.2)"/><path d="M1966.67,1659c.87,0,1.74,0,2.61,0s1.85,0,2.2,1c.42,1.17-.77,1.25-1.31,1.82-2.34,2.52-.75,5.65-1.08,8.49a10.58,10.58,0,0,0,.47,2.54c.12.76.06,1.59-.79,1.87-1.32.43-1.84-.68-2.11-1.56-.85-2.65-.31-5.42-.41-8.14-.06-1.68,0-3.32-2.38-3.34-.95,0-2.31.09-2.32-1.25,0-1.55,1.44-1.4,2.52-1.47.86-.06,1.73,0,2.6,0Z" transform="translate(-1425.75 -1638.2)"/><path d="M2008,1673a10.22,10.22,0,0,1-.34,2.19c-.62,2-1.57,3.86-4,3.73-2.69-.14-4.12-2-5-4.37a4,4,0,0,1-.13-1.85c.22-1.46-.79-3.92,1.4-4,2-.09,1.2,2.31,1.34,3.66s.65,3.05,2.09,3.14c1.79.11,1.59-1.81,1.86-3.07a12.21,12.21,0,0,0,.06-1.49c.07-1,0-2.29,1.29-2.32,1.63,0,1.32,1.46,1.44,2.51C2008,1671.48,2008,1671.86,2008,1673Z" transform="translate(-1425.75 -1638.2)"/><path d="M1618,1670.41a3.67,3.67,0,0,1-1.71,3.33,21.92,21.92,0,0,1-9.22,3.78c-1.79.35-4,0-4.5,2.81-.2,1.13-1.91,1.18-2.44.31-1.79-3-4.92-2.47-7.55-3.2-6.21-1.72-8.54-5.84-6.42-11.4,1.27-3.32,3.6-5,7-3.73,6.14,2.28,12.47,1.91,18.79,1.93C1616.71,1664.25,1618.06,1665.59,1618,1670.41Zm-17.21,0c.28,1.86-.51,4.86,2.56,4.58,2.13-.2,5.89.66,5.83-3.5,0-2.81-1.37-4.59-4.6-4.57C1602.11,1667,1600.26,1667.27,1600.78,1670.46Z" transform="translate(-1425.75 -1638.2)"/><path d="M1582.31,1660.26c-1,0-1.48,0-2,0-1.88-.2-4.35.76-5.23-1.72-.94-2.65.83-4.67,2.75-6,3.82-2.65,7.23-6.3,13-3.59,2.51,1.19,4.68,1.91,4.56,4.84a5.81,5.81,0,0,1-5,5.65C1587.55,1660,1584.73,1660.66,1582.31,1660.26Z" transform="translate(-1425.75 -1638.2)"/><path d="M1772.13,1731.62a19.87,19.87,0,0,1-4-.49c-1.09-.35-3.26-.33-2.25-2.47.68-1.45,1.39-3.31,3.88-2.21,3.18,1.41,6,1.06,8-2.3a3.43,3.43,0,0,1,4.23-1.53c1.76.8.85,2.54.39,4C1780.7,1731.75,1776.24,1731.17,1772.13,1731.62Z" transform="translate(-1425.75 -1638.2)"/><path d="M1931.74,1727c-6.31,0-8.41-1.56-8.26-6,.1-2.77,1.77-4.38,4-5.45,2.52-1.25,10.3.62,12.36,2.71,2.5,2.55,2,5.56-1.22,7.26C1935.86,1727,1935.86,1727,1931.74,1727Zm-.16-2.65a8.88,8.88,0,0,0,4.35-.88c.81-.48,2.13-.62,2-1.85-.06-1.07-1.17-1.53-2-2-2.43-1.34-5.06-1-7.63-.64a2.4,2.4,0,0,0-2,2.42,2.26,2.26,0,0,0,1.94,2.37A29.79,29.79,0,0,0,1931.58,1724.36Z" transform="translate(-1425.75 -1638.2)"/></svg>