<svg id="Layer_1" data-name="Layer 1" xmlns="http://www.w3.org/2000/svg" viewBox="0 0 304.11 282.84"><title>smart_dinosaur_hackedu_docs</title><path d="M1816.51,1836.24c-.79-2-4.71-1.5-3.35-3.92s3.55,0,5.16.75a3.8,3.8,0,0,0,4.67-.63,104.78,104.78,0,0,1,11.77-8.63c3.21-2,3.23-3.78,1.39-6.57-1.07-1.63-4.19-4.08,1-4.49.75-.06.8-.89.78-1.51,0-2.29,0-4.53,2.1-6.09a1.19,1.19,0,0,0,.22-1c-3.49-21.45-6.34-43-12.3-64a22.69,22.69,0,0,1-1.19-8.47c.09-.91.29-1.9,1.38-1.9s1.14,1,1.33,1.93c3.12,14.1,6.34,28.18,9.36,42.31a94,94,0,0,1,1.18,10.37c.25,2.59,1.27,3.21,3.7,2,9.73-4.88,20.27-6.59,31-7.69,4.21-.44,8.43-.64,12.67-.8,9-.33,15.51,4.08,20.7,10.78a69.68,69.68,0,0,1,8.4,13.68c3.15,6.92,1.76,13.42-2.23,19.44-1.57,2.36-2.14,5.29-4.47,7.24-1.31,1.09.51,2.22.56,3.36.11,2.86,1.36,5.35,2.67,7.71,2.41,4.35,2.36,5.71-1.82,8.72-2.81,2-4.28,4.7-5.56,8.48,7-2,13.49-3.79,20-5.66,2.63-.76,5.21-1.71,7.85-2.44,3.71-1,7.39-1.9,6.69-7.13a2.3,2.3,0,0,1,2-2.37,2.45,2.45,0,0,1,2.79,1.47c1,2.45,2.39,3.39,5.14,2.93a2.52,2.52,0,0,1,3,3.26c-3,8.18.8,16.18.28,24.32a72.81,72.81,0,0,1-5.77,24.94,5.53,5.53,0,0,1-3.84,3.26c-9.35,2.59-18.73,5.06-28,7.84-4.87,1.47-9.56,3.52-14.35,5.26-2.33.85-2.23,2.75-2.16,4.64a41.27,41.27,0,0,1-4.34,19.14c-1.49,3.21-3.71,4.72-7.35,4.51-12.46-.74-25,.08-37.39-1.09-12.8-1.2-25.82-1.81-38.32-5.54a14.89,14.89,0,0,1-4.36-2.08c-4.19-3-9.72-4-13.23-7.47-3.7-3.65-7-3.23-11.39-2.75-16.53,1.79-33.08,1.05-49.62-.5-13.51-1.28-27-2.88-40.15-6.15a105.85,105.85,0,0,1-26.59-10.63c-5.77-3.24-10.28-8.06-15.93-11.35a2,2,0,0,1-1.22-2.13,2.16,2.16,0,0,1,2.13-1.78c1.25-.09,2.5-.09,3.75-.09,14.22,0,28.47.49,42.61-1.54a163.53,163.53,0,0,0,28.3-6.7c12.55-4.16,23.66-10.41,33.06-19.73,4-3.92,4-6.07,2.85-11.37a39.65,39.65,0,0,1,.19-18.19c2.06-8.26,4.66-16.36,10.9-22.65.53-.53,1-1.31,1.6-1.54,4.29-1.52,4.56-5.11,4.72-8.8.23-5.27,1.74-10.3,2.94-15.39,1.75-7.45.44-14.91,0-22.34-.45-7.19-1.79-14.34-2-21.53-.49-15.54-2.6-31-1.65-46.61.63-10.49,3.12-20.17,11.35-27.52a28,28,0,0,1,16.13-7.11c15-1.59,26.57,4.77,36.09,15.77a7.81,7.81,0,0,1,2.18,3.87c.48,3.52,2.32,5.33,5.89,6,3,.52,5.77,1.72,6.14,5.52s-1.89,5.82-5,7-2.5,3.45-2.24,5.83c.53,4.92,1.76,10-1.06,14.59-4.33,7-10.5,11.34-19.06,11a99.14,99.14,0,0,1-14.07-1.57c-6.42-1.18-7.85-3.18-7.84-9.62,0-2.88,0-5.75.07-8.63,0-1.21.54-2.33,2-2,1.34.27,1,1.34,1,2.39-.2,2.86,0,5.75-.33,8.6s.85,5,3.67,5.62c7.95,1.8,15.95,4.39,24,.27,7.63-3.9,10.68-10.14,9.1-18.55-1.21-6.44-1.21-6.44-7.58-7.76-.49-.1-1-.11-1.48-.2-5.28-1-6.85-2.57-6.38-6.48s4.59-7.84,8.53-7.35c2.63.33,2.65-.29,2.07-2.48-1.12-4.2-4.36-6.69-7.3-9.27-6.5-5.69-13.88-9.29-22.86-9.74-12.19-.62-23.48,7.28-28,19.56a37.51,37.51,0,0,0-2,12.84c-.08,9.93-1.55,20,1.1,29.83a4.11,4.11,0,0,1,.13,1.11c-.43,10,.93,19.9,1.57,29.84.34,5.21,1,10.4,1.47,15.6.86,9.23-1.51,18-3.39,26.94a28.58,28.58,0,0,0-.35,3.71c-.11,1.72.33,2.74,2.35,1.9.65-.28,1.5-.66,1.87.37a1.73,1.73,0,0,1-1.08,2.44c-3.15.83-4.7,4-8.13,4.85-3.18.84-5.3,4.6-6.71,7.73-3.41,7.61-6.47,15.27-6.47,24a20.91,20.91,0,0,0,6,15.15c14.72,15.48,32.28,24.64,54.19,22.59a115.17,115.17,0,0,0,29.74-7.08c6.06-2.28,9.23-7.8,11.65-13.54,1.4-3.32,2.33-6.85,3.67-10.2,2.64-6.66-.82-11.74-4.68-16.24-4.32-5.06-10.56-7.84-16.07-11.46-1.58-1-2.8-.5-4.16.21a91.25,91.25,0,0,0-18.19,12.42c-3.65,3.24-8.28,4.59-11.92,7.64a1.31,1.31,0,0,1-2-.11,1.61,1.61,0,0,1,.18-2.36C1813.7,1838.1,1815.08,1837.25,1816.51,1836.24Zm-160.2,56.27a70.32,70.32,0,0,0,26.18,16.74c15.4,5.88,31.65,7.74,47.83,9.63a323.1,323.1,0,0,0,43.34,1.63,90.74,90.74,0,0,0,12.94-1.69c1.48-.25,3-.77,2.47-3-.86-3.88-1.27-7.87-2.82-11.59a10.59,10.59,0,0,1-.68-2.89c-.1-.88.06-1.88,1.12-2.1s1.3.78,1.61,1.62a68.8,68.8,0,0,1,3.68,12.93c.93,5.86,3.1,10.44,9.73,11.51a8.54,8.54,0,0,1,3.9,2.13,26.6,26.6,0,0,0,12.77,5.84c6.36,1.22,13,1.08,19.23,2.42,16.2,3.47,32.63.79,48.84,2.75,3.1.37,4.89-1.11,6.12-3.81,2.89-6.36,4.72-13,3.79-20-1.31-9.86-6.66-17-16-20.94-2-.82-4-1-5.43.92a35.26,35.26,0,0,0-3.53,5.7c-2.68,5.82-2.06,11.94-2.19,18a6.34,6.34,0,0,0,2.28,5.23c3,2.66,5.73,5.57,7.19,9.41.4,1.06,1.65,2.41,0,3.28s-2.48-.58-3-1.88a15.51,15.51,0,0,0-4.54-6.31,12.38,12.38,0,0,1-4.76-11.87c.37-3.22.48-6.23-4.4-6.14a3.75,3.75,0,0,1-3.67-4c.08-2.37,2.17-2.09,3.66-2.3,2.85-.4,4.2-1.75,3.72-4.73a7,7,0,0,1,.09-3c.52-1.68-.07-1.9-1.63-2.22-5.25-1-10.43-2.4-15.65-3.6-.88-.2-1.92-.31-1.84-1.43s1.07-1.34,2-1.28a21.82,21.82,0,0,1,3.31.48c4,.88,8,1.77,12,2.76,1.33.33,1.9.12,2.53-1.25,1.49-3.26,3.93-3.75,6.38-1.2a6.42,6.42,0,0,0,5.63,2.16,7.71,7.71,0,0,1,3.64.7c7.78,3.17,12.63,9.14,15.65,16.7.82,2.07,1.57,2.8,3.73,1.9,12.76-5.38,26.25-8.46,39.47-12.35a6.12,6.12,0,0,0,4.12-3.35,50,50,0,0,0,5.06-18.27c.85-8.13.47-16.23-3.38-23.75-.61-1.2-1.13-2.77-2.68-2.82s-1.82,1.5-2.58,2.46c-2.57,3.23-1.77,7.41-3,11.09-1.8,5.41-2,11.46-1.92,17.36,0,3.37.46,6.4,3,8.93.88.88,2.2,2.36.8,3.54s-2.34-.61-3.3-1.45a7.7,7.7,0,0,1-.91-1.18c-4.12-5.52-2.12-11.83-2.06-17.79s2.64-11.73-.12-17.74c-.69-1.5-.82-1.93-2.42-1.45-8,2.4-16.06,4.53-24,7.09-5.1,1.64-5.54,2.74-4.35,8,1.39,6.2,1.52,12.63,3.63,18.68.34,1,.56,2.06-.83,2.4-1.22.3-1.83-.45-2.11-1.56s-.58-1.92-.76-2.89q-1.37-7.53-2.66-15.07c-.35-2.07-1.19-3-3.17-1.46-6.81,5.22-15.06,6.22-23.09,7.58-3.91.66-8.39,1.35-10.44-3.86-.8-2.06-2-1.42-3-.16a15.47,15.47,0,0,1-8,4.68c-13.2,3.78-26.46,7.43-40.39,6.21-7-.61-14-1.74-20.14-5.11-9.6-5.25-18.89-11.06-26.06-19.62-1.78,2.14-3.29,4.28-5.12,6.1a85.41,85.41,0,0,1-32.91,20c-17.32,6-35.09,8.3-53.26,8.47C1669.1,1892.56,1663.15,1892.51,1656.31,1892.51Zm231.61-102.71a51.69,51.69,0,0,0-2.22,10.09c-.33,2.72-5.67,7.56-7.69,6.7-4.92-2.1-9.79-.92-14.67-.29-8,1-15.54,3.28-22.11,8.19-1.37,1-2.17,2-1.2,3.71,1.07,1.93,2.16.93,3.39.28a6.45,6.45,0,0,1,6.8.19c8.47,5.57,17.74,10.27,22.27,20.26a7.67,7.67,0,0,1,.87,4.88c-1.27,7.44-4,14.38-7,21.21-1.51,3.4.46,8.15,3.73,8.1,5.83-.1,11.52-1.55,17.1-3.19s9.27-5.48,12.28-10.15c.88-1.38,2.74-1.72,3.19-3.54,1-4.29,3.65-7.58,7-10.4.85-.72,1.8-1.35,1.13-3.09-3.26-8.5-7-16.76-10.89-25-2.25-4.82-5.61-9-6.93-14.42C1891.89,1799,1890.94,1794.36,1887.92,1789.8Zm-46.19,9.38c2.55-2.78,4.73-.06,7.06-.06,7.83,0,15.69.32,23.48,1,3.2.29,3.59-.67,2.87-3.19-1.49-5.13,1-8.72,4.66-11.7,2.34-1.91,5.3-2.13,8.17-1.66,2.19.35,1.73,2.76,2.61,4.15,1.74,2.75,2.19,6,6.51,7.19,8.37,2.37,14.76,7.76,17.89,16.58a9.46,9.46,0,0,0-.81-6.76,75,75,0,0,0-9-14.6c-5.21-6.28-11.48-10.12-20.07-9.5-3,.21-5.92.72-8.9.85a95.88,95.88,0,0,0-27.64,5.83C1841,1790,1841.14,1790.33,1841.73,1799.18Zm70.44,16.15c-.08-6.6-8.77-16.4-15-17.34-1.88-.29-2.44.18-2,2.07a24.11,24.11,0,0,0,3.11,8.34,86.18,86.18,0,0,1,7.81,15.64c.29.75.29,2,1.41,1.87a2.66,2.66,0,0,0,1.64-1.4A35.7,35.7,0,0,0,1912.17,1815.33Zm-66.12-125.12c1.78.21,3.54-.31,5.21.51.62.3.86,2,1.94.72s.09-2.06-.76-2.85c-3-2.84-8.87-3.1-12.28-.43-1,.76-2,1.54-2.92.59-1.73-1.87-1.94.1-2.54.84a1.88,1.88,0,0,0,.61,3.13c1.2.61,3.13,2.14,3.87.36C1840.69,1689.47,1843.56,1690.52,1846.05,1690.21Z" transform="translate(-1649.34 -1658.48)"/><path d="M1813.2,1700.52a33.52,33.52,0,0,1-6.29-.52c-3.15-.74-6.27-1.28-6.38-5.4s2.38-7.84,6.29-8.57c3.54-.65,7.22-.81,10.62.81a10.34,10.34,0,0,0,4.24,1.2,4.67,4.67,0,0,1,4.7,4,5.52,5.52,0,0,1-2.42,6.18C1821.46,1699.84,1818.47,1700.52,1813.2,1700.52Zm-2.6-12c-4.35,0-6.79,2.14-6.77,5.43,0,2.1,2.6,4,3.66,2.61,2.61-3.39,6.59-3.12,9.87-4.64,2.21-1,3.47-.92,4.24,1.53.17.53.29,1.76,1.39,1,.74-.47.59-1.25.1-2-1.24-1.84-3.1-1.77-5-1.77-2.13,0-5,2.18-5.9-1.93C1812.12,1688.56,1810.82,1688.56,1810.6,1688.52Z" transform="translate(-1649.34 -1658.48)"/><path d="M1894,1819.34a2.82,2.82,0,0,1,2.62,1.76c1.19,2.05,2.38,4.08,4.43,5.47,1,.67,1.55,1.81.68,2.92s-1.82.33-2.58-.32c-1.23-1.05-2-2-3.37.23-1.13,1.87-3.39.5-5.36.29-.14,3.71-1.06,6.8-5.69,6.5-.2,0-.4.28-.62.38-1.51.65-2.42,4.31-4.64,1.4-5.21-6.84-5.67-9.74-2.53-12.64,1-.91,2.24-2.26,3.51-.92,1.5,1.57-.41,2.26-1.34,3.14a2.17,2.17,0,0,0-.62,1.38c3.38-1.33,5.82-4.29,9.4-5.18.25-.07.25-1.14.36-1.75C1889.72,1820.13,1892.44,1821,1894,1819.34Z" transform="translate(-1649.34 -1658.48)"/><path d="M1894,1819.34c-1.57,1.64-4.29.79-5.75,2.66a5.78,5.78,0,0,1-2.07-.65c-3-2.5-4.81-2.21-7.63.5a7.92,7.92,0,0,1-5,2c-1.83,0-1.61-2.11-2-3.53-.46-1.8-1.12-3.55-1.68-5.32-.39-1.22-.75-2.56.51-3.4,1.5-1,2.56.18,3.54,1.13.61.6,1.13,1.29,1.81,2.07a24.69,24.69,0,0,1,1.4-2.57,2.11,2.11,0,0,1,3.23-.63c1.12.85.95,2-.17,2.78-.81.59-1.37,1.17-.53,2.1a2,2,0,0,0,2.09.43c1.11-.24,1.25-1.12,1-2-.28-1.08-.72-2.12-1-3.2s-.61-2.42.67-3c1.63-.7,1.63,1,2.14,1.86.24.42.45.85.69,1.29.27-.23.54-.34.6-.52.39-1.2-.44-3.37,1.41-3.36,2.18,0,1.58,2.31,1.39,3.54-.5,3-.31,5.18,3.51,5.38C1893.35,1816.89,1894,1818.07,1894,1819.34Z" transform="translate(-1649.34 -1658.48)"/><path d="M1890.34,1847.39c-.78,2.47-.81,5.6-4.77,5.32-1-.07-1.08.64-1.38,1.36a49.93,49.93,0,0,1-2.35,4.61,2,2,0,0,1-2.09,1.25c-.85-.16-1.12-.9-1.21-1.68a21.1,21.1,0,0,0-2.33-6.64c-1.23-2.57-.29-3.8,2.41-3.82,2.49,0,5,.45,6.27-2.77a3.13,3.13,0,0,1,4.21-1.39C1890.69,1844.4,1890.05,1846,1890.34,1847.39Z" transform="translate(-1649.34 -1658.48)"/><path d="M1903.16,1843.15c-3,.22-5-.54-4.32-4.15.31-1.56,1.2-3.18,2.9-2.75,2.32.58.22,2.19.22,3.3.83.73,1.46,0,2.09-.2,1.62-.6,3.37-1.18,4,1s.24,5-2.19,5.18c-4.22.28-8.07,2.43-12.39,2-2-.21-3-.92-3-3s-.65-4.71,2.3-5.66a2.37,2.37,0,0,1,2.77.57c.89,1.23-.21,1.69-1.12,2.18s-1.38,1.23-.92,2.16c.65,1.31,2.06,1.13,3,.72A15.47,15.47,0,0,1,1903.16,1843.15Z" transform="translate(-1649.34 -1658.48)"/><path d="M1866.19,1822.64c-.73.72-.3,1.31-.17,1.88.19.89.31,1.83-.65,2.29s-1.48-.43-2.09-1.06c-2-2-2.3-4.88-3.59-7.25-.41-.77-.82-1.7.11-2.34,1.11-.78,1.81.09,2.47.86s.76,2.22,2,1.83.55-1.67.36-2.58,0-1.53.82-1.8a1.66,1.66,0,0,1,2,1.17c1,2.39,2,4.8,2.91,7.24.43,1.16.83,2.66-.73,3.18s-1.72-1.06-2.23-2C1867.13,1823.56,1867.15,1822.84,1866.19,1822.64Z" transform="translate(-1649.34 -1658.48)"/></svg>